0
SECTION
2
HEADER
9
$INSUNITS
70
4
9
$ACADVER
1
AC1014
9
$HANDSEED
5
FFFF
0
ENDSEC
0
SECTION
2
TABLES
0
TABLE
2
VPORT
5
8
100
AcDbSymbolTable
0
ENDTAB
0
TABLE
2
LTYPE
5
5
100
AcDbSymbolTable
0
LTYPE
5
14
100
AcDbSymbolTableRecord
100
AcDbLinetypeTableRecord
2
BYBLOCK
70
0
0
LTYPE
5
15
100
AcDbSymbolTableRecord
100
AcDbLinetypeTableRecord
2
BYLAYER
70
0
0
ENDTAB
0
TABLE
2
LAYER
5
2
100
AcDbSymbolTable
70
2
0
LAYER
5
50
100
AcDbSymbolTableRecord
100
AcDbLayerTableRecord
2
0
70
0
6
CONTINUOUS
0
ENDTAB
0
TABLE
2
STYLE
5
3
100
AcDbSymbolTable
70
1
0
STYLE
5
11
100
AcDbSymbolTableRecord
100
AcDbTextStyleTableRecord
2
STANDARD
70
0
0
ENDTAB
0
TABLE
2
VIEW
5
6
100
AcDbSymbolTable
70
0
0
ENDTAB
0
TABLE
2
UCS
5
7
100
AcDbSymbolTable
70
0
0
ENDTAB
0
TABLE
2
APPID
5
9
100
AcDbSymbolTable
70
2
0
APPID
5
12
100
AcDbSymbolTableRecord
100
AcDbRegAppTableRecord
2
ACAD
70
0
0
ENDTAB
0
TABLE
2
DIMSTYLE
5
A
100
AcDbSymbolTable
70
1
0
ENDTAB
0
TABLE
2
BLOCK_RECORD
5
1
100
AcDbSymbolTable
70
1
0
BLOCK_RECORD
5
1F
100
AcDbSymbolTableRecord
100
AcDbBlockTableRecord
2
*MODEL_SPACE
0
BLOCK_RECORD
5
1B
100
AcDbSymbolTableRecord
100
AcDbBlockTableRecord
2
*PAPER_SPACE
0
ENDTAB
0
ENDSEC
0
SECTION
2
BLOCKS
0
BLOCK
5
20
100
AcDbEntity
100
AcDbBlockBegin
2
*MODEL_SPACE
0
ENDBLK
5
21
100
AcDbEntity
100
AcDbBlockEnd
0
BLOCK
5
1C
100
AcDbEntity
100
AcDbBlockBegin
2
*PAPER_SPACE
0
ENDBLK
5
1D
100
AcDbEntity
100
AcDbBlockEnd
0
ENDSEC
0
SECTION
2
ENTITIES
0
CIRCLE
5
100
100
AcDbEntity
8
0
100
AcDbCircle
10
-45.992520833333337
20
-50.574442708333351
30
0
40
0.52916666666666679
210
0
220
0
230
-1
0
CIRCLE
5
101
100
AcDbEntity
8
0
100
AcDbCircle
10
-57.369604166666683
20
-38.006734375000008
30
0
40
0.52916666666666679
210
0
220
0
230
-1
0
CIRCLE
5
102
100
AcDbEntity
8
0
100
AcDbCircle
10
-30.911270833333337
20
-24.777567708333336
30
0
40
0.52916666666666679
210
0
220
0
230
-1
0
CIRCLE
5
103
100
AcDbEntity
8
0
100
AcDbCircle
10
-29.588354166666669
20
-39.726526041666673
30
0
40
0.52916666666666679
210
0
220
0
230
-1
0
CIRCLE
5
104
100
AcDbEntity
8
0
100
AcDbCircle
10
-50.358145833333346
20
-29.010901041666667
30
0
40
0.52916666666666679
210
0
220
0
230
-1
0
CIRCLE
5
105
100
AcDbEntity
8
0
100
AcDbCircle
10
-95.728895833333354
20
-39.714487500000011
30
0
40
0.52916666666666679
210
0
220
0
230
-1
0
CIRCLE
5
106
100
AcDbEntity
8
0
100
AcDbCircle
10
-79.324729166666671
20
-50.562404166666674
30
0
40
0.52916666666666679
210
0
220
0
230
-1
0
CIRCLE
5
107
100
AcDbEntity
8
0
100
AcDbCircle
10
-67.94764583333334
20
-37.994695833333338
30
0
40
0.52916666666666679
210
0
220
0
230
-1
0
CIRCLE
5
108
100
AcDbEntity
8
0
100
AcDbCircle
10
-74.959104166666677
20
-28.998862500000008
30
0
40
0.52916666666666679
210
0
220
0
230
-1
0
CIRCLE
5
109
100
AcDbEntity
8
0
100
AcDbCircle
10
-94.405979166666683
20
-24.765529166666674
30
0
40
0.52916666666666679
210
0
220
0
230
-1
0
CIRCLE
5
110
100
AcDbEntity
8
0
100
AcDbCircle
10
-45.992520833333337
20
-50.574442708333351
30
0
40
0.46302083333333344
210
0
220
0
230
-1
0
CIRCLE
5
111
100
AcDbEntity
8
0
100
AcDbCircle
10
-57.369604166666683
20
-38.006734375000008
30
0
40
0.46302083333333344
210
0
220
0
230
-1
0
CIRCLE
5
112
100
AcDbEntity
8
0
100
AcDbCircle
10
-30.911270833333337
20
-24.777567708333336
30
0
40
0.46302083333333344
210
0
220
0
230
-1
0
CIRCLE
5
113
100
AcDbEntity
8
0
100
AcDbCircle
10
-29.588354166666669
20
-39.726526041666673
30
0
40
0.46302083333333344
210
0
220
0
230
-1
0
CIRCLE
5
114
100
AcDbEntity
8
0
100
AcDbCircle
10
-50.358145833333346
20
-29.010901041666667
30
0
40
0.46302083333333344
210
0
220
0
230
-1
0
CIRCLE
5
115
100
AcDbEntity
8
0
100
AcDbCircle
10
-95.728895833333354
20
-39.714487500000011
30
0
40
0.46302083333333344
210
0
220
0
230
-1
0
CIRCLE
5
116
100
AcDbEntity
8
0
100
AcDbCircle
10
-79.324729166666671
20
-50.562404166666674
30
0
40
0.46302083333333344
210
0
220
0
230
-1
0
CIRCLE
5
117
100
AcDbEntity
8
0
100
AcDbCircle
10
-67.94764583333334
20
-37.994695833333338
30
0
40
0.46302083333333344
210
0
220
0
230
-1
0
CIRCLE
5
118
100
AcDbEntity
8
0
100
AcDbCircle
10
-74.959104166666677
20
-28.998862500000008
30
0
40
0.46302083333333344
210
0
220
0
230
-1
0
CIRCLE
5
119
100
AcDbEntity
8
0
100
AcDbCircle
10
-94.405979166666683
20
-24.765529166666674
30
0
40
0.46302083333333344
210
0
220
0
230
-1
0
LWPOLYLINE
5
120
100
AcDbEntity
8
0
100
AcDbPolyline
90
80
70
1
43
0.0
10
46.453741550445564
20
-57.210905520121258
42
-0.41419426630196943
10
45.056451193491618
20
-56.67454452514648
10
43.303110218048104
20
-52.736513741811123
42
0.058799339779504925
10
43.239794476826994
20
-52.629963397979736
10
39.700491778055834
20
-48.009173901875812
42
0.072282537849497466
10
39.591430282592782
20
-47.902865791320799
10
35.933328310648612
20
-45.24509843190512
42
0.0031176847809510867
10
35.927930545806895
20
-45.241210587819431
10
28.60553350448609
20
-40.060377756754562
42
0.1284216719274647
10
28.355209636688237
20
-39.966080379486087
10
24.031230592727667
20
-39.511630566914882
42
-0.41425848352496947
10
23.089314572016406
20
-38.348470783233644
10
24.499808661142989
20
-24.928644323349005
42
-0.41419988992468054
10
25.662968444824223
20
-23.986728302637736
10
29.714005088806154
20
-24.412495676676436
42
0.20767897517319309
10
30.116013415654503
20
-24.286025683085128
10
30.919287220637006
20
-23.5894293944041
42
-0.23055503175787895
10
31.814585447311401
20
-23.350115029017132
10
35.964972050984706
20
-24.156881030400598
42
0.1637760192215009
10
36.29966980616252
20
-24.112166786193853
10
39.754994265238444
20
-22.411081584294639
42
-0.23185145692416842
10
40.686381212870288
20
-22.409361728032433
10
44.372158336639409
20
-24.207047541936241
42
0.20012495512911713
10
44.77863788604737
20
-24.23099230130514
10
45.8515254020691
20
-23.856208976109823
42
-0.22286518303267583
10
46.745604387919116
20
-23.948178895314534
10
50.82788508733114
20
-26.401051219304406
42
-0.27573593880009728
10
51.339986419677743
20
-27.357281208038337
10
51.269557094573983
20
-28.874773772557582
42
0.25234769848673477
10
51.487094688415532
20
-29.327422984441128
10
54.647677771250414
20
-31.623713699976609
42
-0.17797227071603483
10
55.054104836781832
20
-32.23043135007223
10
55.243995539347345
20
-33.013200108210249
42
0.17803132708061103
10
55.447221183776861
20
-33.316544802983607
10
57.554573980967206
20
-34.847634728749604
42
0.15830292005951913
10
57.865593433380127
20
-34.948706563313806
10
61.336210886637375
20
-35.037315495808926
10
61.336210886637375
20
-36.757107162475592
10
63.98204421997071
20
-36.757107162475592
10
63.98204421997071
20
-35.037315495808926
10
67.452637449900323
20
-34.948706563313806
42
0.15838759948480902
10
67.763677088419612
20
-34.847634728749597
10
69.871033922831231
20
-33.316544802983607
42
0.17792951017567885
10
70.074235343933125
20
-33.013200108210249
10
70.264122009277358
20
-32.23043135007223
42
-0.17800546046600355
10
70.670549074808775
20
-31.623713699976609
10
73.831136194864925
20
-29.327422984441132
42
0.25238336012471868
10
74.048702049255382
20
-28.874773772557578
10
73.978268686930349
20
-27.357281208038337
42
-0.27571129707311615
10
74.490365982055678
20
-26.40105121930441
10
78.572626495361334
20
-23.948178895314534
42
-0.22287288240498881
10
79.466733741760279
20
-23.856208976109826
10
80.539617220560729
20
-24.23099230130514
42
0.20013365522518373
10
80.946092732747402
20
-24.207047541936241
10
84.631849670410162
20
-22.409361728032433
42
-0.23184525981063939
10
85.56326084136964
20
-22.411081584294639
10
89.018557039896663
20
-24.112166786193853
42
0.16379357102138281
10
89.353258832295751
20
-24.156854788462322
10
93.503643417358404
20
-23.350115029017132
42
-0.23057507399675059
10
94.398937606811529
20
-23.589455636342372
10
95.202215449015313
20
-24.286025683085125
42
0.20766867534435807
10
95.604225794474303
20
-24.412495676676436
10
99.655286661783862
20
-23.98672830263774
42
-0.41420595827019163
10
100.8184181849162
20
-24.928644323349005
10
102.22891832987469
20
-38.348470783233651
42
-0.41420858761956286
10
101.28702653249105
20
-39.511630566914882
10
96.963041432698574
20
-39.966080379486094
42
0.12837150032672956
10
96.71272563934329
20
-40.060377756754555
10
89.390296300252302
20
-45.241210587819431
42
0.0033735055437433565
10
89.384902572631844
20
-45.24509843190512
10
85.726824824015324
20
-47.902865791320799
42
0.072278892060849809
10
85.617763328552257
20
-48.009173901875819
10
82.078436406453449
20
-52.629963397979751
42
0.058714541946042906
10
82.015116628011071
20
-52.73651374181113
10
80.26180795033774
20
-56.674544525146487
42
-0.41421188022847749
10
78.864509518941247
20
-57.21090552012128
10
73.734291330973321
20
-54.926811250050861
42
0.10504981073819605
10
73.519083213806169
20
-54.881065495808926
10
51.799171892801922
20
-54.881065495808926
42
0.10509551612120425
10
51.583935515085869
20
-54.926811250050875
0
ENDSEC
0
SECTION
2
OBJECTS
0
DICTIONARY
5
C
100
AcDbDictionary
3
ACAD_GROUP
350
D
3
ACAD_MLINESTYLE
350
17
0
DICTIONARY
5
D
100
AcDbDictionary
0
DICTIONARY
5
1A
330
C
100
AcDbDictionary
0
DICTIONARY
5
17
100
AcDbDictionary
0
ENDSEC
0
EOF
