  0
SECTION
  2
HEADER
  9
$ANGBASE
  50
0.0
  9
$ANGDIR
  70
1
  9
$MEASUREMENT
  70
1
  0
ENDSEC
  0
SECTION
  2
TABLES
  0
TABLE
  2
LTYPE
  70
4
  0
LTYPE
  5
40F
  2
CONTINUOUS
  70
0
  3
Solid line
  72
65
  73
0
  40
0.0
  0
LTYPE
  5
410
  2
DASHDOT
 70
0
  3
Dash Dot ____ _ ____ _
 72
65
 73
4
 40
2.0
 49
1.25
 49
-0.25
 49
0.25
 49
-0.25
  0
LTYPE
  5
411
  2
DASHED
 70
0
  3
Dashed __ __ __ __ __
 72
65
 73
2
 40
0.75
 49
0.5
 49
-0.25
  0
LTYPE
  5
43B
  2
DOTTED
 70
0
  3
Dotted .  .  .  .
 72
65
 73
2
 40
0.2
 49
0.0
 49
-0.2
  0
ENDTAB
  0
TABLE
  2
STYLE
  70
4
  0
STYLE
  2
KICAD
  70
0
  40
0
  41
1
  42
1
  50
0
  71
0
  3
isocp.shx
  0
STYLE
  2
KICADB
  70
0
  40
0
  41
1
  42
1
  50
0
  71
0
  3
isocp.shx
  0
STYLE
  2
KICADI
  70
0
  40
0
  41
1
  42
1
  50
15
  71
0
  3
isocp.shx
  0
STYLE
  2
KICADBI
  70
0
  40
0
  41
1
  42
1
  50
15
  71
0
  3
isocp.shx
  0
ENDTAB
  0
TABLE
  2
LAYER
  70
1
  0
LAYER
  2
BLACK
  70
0
  62
7
  6
CONTINUOUS
  0
ENDTAB
  0
ENDSEC
  0
SECTION
  2
ENTITIES
0
LINE
8
BLACK
6
CONTINUOUS
10
152.3851729999999804
20
-84.2332139999999896
11
152.7530160000000024
21
-84.2831240000000008
0
LINE
8
BLACK
6
CONTINUOUS
10
152.7530160000000024
20
-84.2831240000000008
11
153.1147899999999993
21
-84.3663019999999904
0
LINE
8
BLACK
6
CONTINUOUS
10
153.1147899999999993
20
-84.3663019999999904
11
153.4674929999999904
21
-84.482057999999995
0
LINE
8
BLACK
6
CONTINUOUS
10
153.4674929999999904
20
-84.482057999999995
11
153.8081980000000044
21
-84.6294319999999942
0
LINE
8
BLACK
6
CONTINUOUS
10
153.8081980000000044
20
-84.6294319999999942
11
153.8082079999999792
21
-84.6294109999999904
0
LINE
8
BLACK
6
CONTINUOUS
10
153.8082079999999792
20
-84.6294109999999904
11
153.8115569999999934
21
-84.632645999999994
0
LINE
8
BLACK
6
CONTINUOUS
10
153.8115569999999934
20
-84.632645999999994
11
167.7386649999999975
21
-91.4237449999999967
0
LINE
8
BLACK
6
CONTINUOUS
10
167.7386649999999975
20
-91.4237449999999967
11
167.7386709999999823
21
-91.4237479999999891
0
LINE
8
BLACK
6
CONTINUOUS
10
167.7386709999999823
20
-91.4237479999999891
11
167.7386719999999798
21
-91.4237490000000008
0
LINE
8
BLACK
6
CONTINUOUS
10
167.7386719999999798
20
-91.4237490000000008
11
167.7386740000000032
21
-91.4237439999999992
0
LINE
8
BLACK
6
CONTINUOUS
10
167.7386740000000032
20
-91.4237439999999992
11
167.8527330000000006
21
-91.4793339999999944
0
LINE
8
BLACK
6
CONTINUOUS
10
167.8527330000000006
20
-91.4793339999999944
11
168.0934440000000052
21
-91.5596949999999907
0
LINE
8
BLACK
6
CONTINUOUS
10
168.0934440000000052
20
-91.5596949999999907
11
168.3426209999999799
21
-91.6077559999999949
0
LINE
8
BLACK
6
CONTINUOUS
10
168.3426209999999799
20
-91.6077559999999949
11
168.5959509999999852
21
-91.6226849999999899
0
LINE
8
BLACK
6
CONTINUOUS
10
168.5959509999999852
20
-91.6226849999999899
11
168.8490489999999795
21
-91.6042240000000021
0
LINE
8
BLACK
6
CONTINUOUS
10
168.8490489999999795
20
-91.6042240000000021
11
169.0975320000000011
21
-91.5526919999999933
0
LINE
8
BLACK
6
CONTINUOUS
10
169.0975320000000011
20
-91.5526919999999933
11
169.2173310000000015
21
-91.5108829999999926
0
LINE
8
BLACK
6
CONTINUOUS
10
169.2173310000000015
20
-91.5108829999999926
11
169.2173310000000015
21
-91.5108839999999901
0
LINE
8
BLACK
6
CONTINUOUS
10
169.2173310000000015
20
-91.5108839999999901
11
169.2219929999999977
21
-91.5107809999999944
0
LINE
8
BLACK
6
CONTINUOUS
10
169.2219929999999977
20
-91.5107809999999944
11
173.2723670000000027
21
-90.0943889999999925
0
LINE
8
BLACK
6
CONTINUOUS
10
173.2723670000000027
20
-90.0943889999999925
11
173.2726509999999962
21
-90.0943199999999962
0
LINE
8
BLACK
6
CONTINUOUS
10
173.2726509999999962
20
-90.0943199999999962
11
173.614531999999997
21
-89.99147099999999
0
LINE
8
BLACK
6
CONTINUOUS
10
173.614531999999997
20
-89.99147099999999
11
173.9643969999999911
21
-89.9189080000000018
0
LINE
8
BLACK
6
CONTINUOUS
10
173.9643969999999911
20
-89.9189080000000018
11
174.3192729999999813
21
-89.8772730000000024
0
LINE
8
BLACK
6
CONTINUOUS
10
174.3192729999999813
20
-89.8772730000000024
11
174.6764330000000029
21
-89.8668849999999964
0
LINE
8
BLACK
6
CONTINUOUS
10
174.6764330000000029
20
-89.8668849999999964
11
175.0331290000000024
21
-89.8878259999999898
0
LINE
8
BLACK
6
CONTINUOUS
10
175.0331290000000024
20
-89.8878259999999898
11
175.3866199999999935
21
-89.9399329999999964
0
LINE
8
BLACK
6
CONTINUOUS
10
175.3866199999999935
20
-89.9399329999999964
11
175.7341869999999915
21
-90.0228070000000002
0
LINE
8
BLACK
6
CONTINUOUS
10
175.7341869999999915
20
-90.0228070000000002
11
176.0731579999999781
21
-90.1358099999999922
0
LINE
8
BLACK
6
CONTINUOUS
10
176.0731579999999781
20
-90.1358099999999922
11
176.4009259999999983
21
-90.2780719999999945
0
LINE
8
BLACK
6
CONTINUOUS
10
176.4009259999999983
20
-90.2780719999999945
11
176.7149719999999888
21
-90.4485019999999906
0
LINE
8
BLACK
6
CONTINUOUS
10
176.7149719999999888
20
-90.4485019999999906
11
176.7149759999999787
21
-90.4484949999999941
0
LINE
8
BLACK
6
CONTINUOUS
10
176.7149759999999787
20
-90.4484949999999941
11
176.7180319999999938
21
-90.4520109999999988
0
LINE
8
BLACK
6
CONTINUOUS
10
176.7180319999999938
20
-90.4520109999999988
11
192.1439849999999865
21
-99.7191759999999903
0
LINE
8
BLACK
6
CONTINUOUS
10
192.1439849999999865
20
-99.7191759999999903
11
192.1439969999999846
21
-99.719184999999996
0
LINE
8
BLACK
6
CONTINUOUS
10
192.1439969999999846
20
-99.719184999999996
11
192.4483809999999835
21
-99.9211619999999954
0
LINE
8
BLACK
6
CONTINUOUS
10
192.4483809999999835
20
-99.9211619999999954
11
192.7334659999999928
21
-100.1496009999999899
0
LINE
8
BLACK
6
CONTINUOUS
10
192.7334659999999928
20
-100.1496009999999899
11
192.9969449999999824
21
-100.4026549999999958
0
LINE
8
BLACK
6
CONTINUOUS
10
192.9969449999999824
20
-100.4026549999999958
11
193.2367009999999823
21
-100.6782899999999898
0
LINE
8
BLACK
6
CONTINUOUS
10
193.2367009999999823
20
-100.6782899999999898
11
193.450806
21
-100.9742909999999938
0
LINE
8
BLACK
6
CONTINUOUS
10
193.450806
20
-100.9742909999999938
11
193.6375390000000039
21
-101.2882789999999886
0
LINE
8
BLACK
6
CONTINUOUS
10
193.6375390000000039
20
-101.2882789999999886
11
193.7954000000000008
21
-101.6177289999999971
0
LINE
8
BLACK
6
CONTINUOUS
10
193.7954000000000008
20
-101.6177289999999971
11
193.9231189999999856
21
-101.9599949999999922
0
LINE
8
BLACK
6
CONTINUOUS
10
193.9231189999999856
20
-101.9599949999999922
11
194.0196699999999908
21
-102.3123229999999921
0
LINE
8
BLACK
6
CONTINUOUS
10
194.0196699999999908
20
-102.3123229999999921
11
194.0842769999999859
21
-102.6718839999999915
0
LINE
8
BLACK
6
CONTINUOUS
10
194.0842769999999859
20
-102.6718839999999915
11
194.1164210000000026
21
-103.03578499999999
0
LINE
8
BLACK
6
CONTINUOUS
10
194.1164210000000026
20
-103.03578499999999
11
194.1158429999999839
21
-103.401102999999992
0
LINE
8
BLACK
6
CONTINUOUS
10
194.1158429999999839
20
-103.401102999999992
11
194.1158049999999946
21
-103.4011019999999945
0
LINE
8
BLACK
6
CONTINUOUS
10
194.1158049999999946
20
-103.4011019999999945
11
194.1141700000000014
21
-103.4054359999999946
0
LINE
8
BLACK
6
CONTINUOUS
10
194.1141700000000014
20
-103.4054359999999946
11
193.8495800000000031
21
-109.1364919999999898
0
LINE
8
BLACK
6
CONTINUOUS
10
193.8495800000000031
20
-109.1364919999999898
11
193.8496179999999924
21
-109.136493999999999
0
LINE
8
BLACK
6
CONTINUOUS
10
193.8496179999999924
20
-109.136493999999999
11
193.8441219999999987
21
-109.2554889999999972
0
LINE
8
BLACK
6
CONTINUOUS
10
193.8441219999999987
20
-109.2554889999999972
11
193.8625059999999962
21
-109.4930209999999988
0
LINE
8
BLACK
6
CONTINUOUS
10
193.8625059999999962
20
-109.4930209999999988
11
193.910033999999996
21
-109.7264749999999935
0
LINE
8
BLACK
6
CONTINUOUS
10
193.910033999999996
20
-109.7264749999999935
11
193.9859799999999836
21
-109.9522879999999958
0
LINE
8
BLACK
6
CONTINUOUS
10
193.9859799999999836
20
-109.9522879999999958
11
194.0891849999999863
21
-110.1670170000000013
0
LINE
8
BLACK
6
CONTINUOUS
10
194.0891849999999863
20
-110.1670170000000013
11
194.2180749999999989
21
-110.3673840000000013
0
LINE
8
BLACK
6
CONTINUOUS
10
194.2180749999999989
20
-110.3673840000000013
11
194.3706839999999829
21
-110.5503319999999974
0
LINE
8
BLACK
6
CONTINUOUS
10
194.3706839999999829
20
-110.5503319999999974
11
194.544682999999992
21
-110.7130709999999993
0
LINE
8
BLACK
6
CONTINUOUS
10
194.544682999999992
20
-110.7130709999999993
11
194.6410359999999855
21
-110.7831139999999976
0
LINE
8
BLACK
6
CONTINUOUS
10
194.6410359999999855
20
-110.7831139999999976
11
194.641034999999988
21
-110.7831139999999976
0
LINE
8
BLACK
6
CONTINUOUS
10
194.641034999999988
20
-110.7831139999999976
11
194.6437880000000007
21
-110.7869029999999952
0
LINE
8
BLACK
6
CONTINUOUS
10
194.6437880000000007
20
-110.7869029999999952
11
206.586513999999994
21
-119.4620259999999945
0
LINE
8
BLACK
6
CONTINUOUS
10
206.586513999999994
20
-119.4620259999999945
11
206.5865239999999972
21
-119.4620350000000002
0
LINE
8
BLACK
6
CONTINUOUS
10
206.5865239999999972
20
-119.4620350000000002
11
206.8671699999999873
21
-119.6854569999999995
0
LINE
8
BLACK
6
CONTINUOUS
10
206.8671699999999873
20
-119.6854569999999995
11
207.1270879999999863
21
-119.9327040000000011
0
LINE
8
BLACK
6
CONTINUOUS
10
207.1270879999999863
20
-119.9327040000000011
11
207.3642539999999883
21
-120.2018529999999998
0
LINE
8
BLACK
6
CONTINUOUS
10
207.3642539999999883
20
-120.2018529999999998
11
207.5768290000000036
21
-120.4908169999999927
0
LINE
8
BLACK
6
CONTINUOUS
10
207.5768290000000036
20
-120.4908169999999927
11
207.7631669999999815
21
-120.797356999999991
0
LINE
8
BLACK
6
CONTINUOUS
10
207.7631669999999815
20
-120.797356999999991
11
207.9218239999999867
21
-121.1190969999999965
0
LINE
8
BLACK
6
CONTINUOUS
10
207.9218239999999867
20
-121.1190969999999965
11
208.0515680000000032
21
-121.4535439999999937
0
LINE
8
BLACK
6
CONTINUOUS
10
208.0515680000000032
20
-121.4535439999999937
11
208.151395999999977
21
-121.79810599999999
0
LINE
8
BLACK
6
CONTINUOUS
10
208.151395999999977
20
-121.79810599999999
11
208.1514259999999865
21
-121.7980989999999935
0
LINE
8
BLACK
6
CONTINUOUS
10
208.1514259999999865
20
-121.7980989999999935
11
208.1510729999999967
21
-121.8027189999999962
0
LINE
8
BLACK
6
CONTINUOUS
10
208.1510729999999967
20
-121.8027189999999962
11
208.8691059999999879
21
-124.7565979999999968
0
LINE
8
BLACK
6
CONTINUOUS
10
208.8691059999999879
20
-124.7565979999999968
11
208.8691069999999854
21
-124.7566049999999933
0
LINE
8
BLACK
6
CONTINUOUS
10
208.8691069999999854
20
-124.7566049999999933
11
208.8691079999999829
21
-124.7566069999999883
0
LINE
8
BLACK
6
CONTINUOUS
10
208.8691079999999829
20
-124.7566069999999883
11
208.8691069999999854
21
-124.7566069999999883
0
LINE
8
BLACK
6
CONTINUOUS
10
208.8691069999999854
20
-124.7566069999999883
11
208.8691399999999874
21
-124.7568409999999943
0
LINE
8
BLACK
6
CONTINUOUS
10
208.8691399999999874
20
-124.7568409999999943
11
208.8956839999999886
21
-124.866589999999988
0
LINE
8
BLACK
6
CONTINUOUS
10
208.8956839999999886
20
-124.866589999999988
11
208.9744110000000035
21
-125.0787489999999877
0
LINE
8
BLACK
6
CONTINUOUS
10
208.9744110000000035
20
-125.0787489999999877
11
209.0774579999999787
21
-125.2802219999999949
0
LINE
8
BLACK
6
CONTINUOUS
10
209.0774579999999787
20
-125.2802219999999949
11
209.2034050000000036
21
-125.4682289999999938
0
LINE
8
BLACK
6
CONTINUOUS
10
209.2034050000000036
20
-125.4682289999999938
11
209.3505179999999939
21
-125.6401819999999958
0
LINE
8
BLACK
6
CONTINUOUS
10
209.3505179999999939
20
-125.6401819999999958
11
209.5167679999999848
21
-125.7937089999999927
0
LINE
8
BLACK
6
CONTINUOUS
10
209.5167679999999848
20
-125.7937089999999927
11
209.6083519999999965
21
-125.8601519999999994
0
LINE
8
BLACK
6
CONTINUOUS
10
209.6083519999999965
20
-125.8601519999999994
11
209.6110899999999901
21
-125.8639189999999957
0
LINE
8
BLACK
6
CONTINUOUS
10
209.6110899999999901
20
-125.8639189999999957
11
217.5731389999999976
21
-131.6469029999999805
0
LINE
8
BLACK
6
CONTINUOUS
10
217.5731389999999976
20
-131.6469029999999805
11
217.5731409999999926
21
-131.6469040000000064
0
LINE
8
BLACK
6
CONTINUOUS
10
217.5731409999999926
20
-131.6469040000000064
11
217.5731399999999951
21
-131.6469040000000064
0
LINE
8
BLACK
6
CONTINUOUS
10
217.5731399999999951
20
-131.6469040000000064
11
217.5731499999999983
21
-131.6469109999999887
0
LINE
8
BLACK
6
CONTINUOUS
10
217.5731499999999983
20
-131.6469109999999887
11
217.5732119999999838
21
-131.6469659999999919
0
LINE
8
BLACK
6
CONTINUOUS
10
217.5732119999999838
20
-131.6469659999999919
11
217.6711249999999893
21
-131.718086999999997
0
LINE
8
BLACK
6
CONTINUOUS
10
217.6711249999999893
20
-131.718086999999997
11
217.8833949999999788
21
-131.8347589999999911
0
LINE
8
BLACK
6
CONTINUOUS
10
217.8833949999999788
20
-131.8347589999999911
11
218.1086099999999988
21
-131.9239189999999837
0
LINE
8
BLACK
6
CONTINUOUS
10
218.1086099999999988
20
-131.9239189999999837
11
218.3432200000000023
21
-131.9841629999999952
0
LINE
8
BLACK
6
CONTINUOUS
10
218.3432200000000023
20
-131.9841629999999952
11
218.5835289999999986
21
-132.0145399999999825
0
LINE
8
BLACK
6
CONTINUOUS
10
218.5835289999999986
20
-132.0145399999999825
11
218.704638999999986
21
-132.0145530000000065
0
LINE
8
BLACK
6
CONTINUOUS
10
218.704638999999986
20
-132.0145530000000065
11
218.7093619999999987
21
-132.0160879999999963
0
LINE
8
BLACK
6
CONTINUOUS
10
218.7093619999999987
20
-132.0160879999999963
11
231.8237889999999766
21
-132.3495089999999834
0
LINE
8
BLACK
6
CONTINUOUS
10
231.8237889999999766
20
-132.3495089999999834
11
231.8351869999999906
21
-132.350925999999987
0
LINE
8
BLACK
6
CONTINUOUS
10
231.8351869999999906
20
-132.350925999999987
11
231.8365069999999832
21
-132.350925999999987
0
LINE
8
BLACK
6
CONTINUOUS
10
231.8365069999999832
20
-132.350925999999987
11
231.8370729999999753
21
-132.351159999999993
0
LINE
8
BLACK
6
CONTINUOUS
10
231.8370729999999753
20
-132.351159999999993
11
231.8383800000000008
21
-132.3513230000000078
0
LINE
8
BLACK
6
CONTINUOUS
10
231.8383800000000008
20
-132.3513230000000078
11
231.8508989999999983
21
-132.3568870000000004
0
LINE
8
BLACK
6
CONTINUOUS
10
231.8508989999999983
20
-132.3568870000000004
11
231.8635429999999928
21
-132.3621249999999918
0
LINE
8
BLACK
6
CONTINUOUS
10
231.8635429999999928
20
-132.3621249999999918
11
231.8642309999999895
21
-132.3628129999999885
0
LINE
8
BLACK
6
CONTINUOUS
10
231.8642309999999895
20
-132.3628129999999885
11
231.8651209999999878
21
-132.3632089999999835
0
LINE
8
BLACK
6
CONTINUOUS
10
231.8651209999999878
20
-132.3632089999999835
11
231.8745499999999993
21
-132.3731319999999982
0
LINE
8
BLACK
6
CONTINUOUS
10
231.8745499999999993
20
-132.3731319999999982
11
231.8842349999999897
21
-132.3828169999999886
0
LINE
8
BLACK
6
CONTINUOUS
10
231.8842349999999897
20
-132.3828169999999886
11
231.8846069999999884
21
-132.3837159999999926
0
LINE
8
BLACK
6
CONTINUOUS
10
231.8846069999999884
20
-132.3837159999999926
11
231.8852779999999996
21
-132.3844220000000007
0
LINE
8
BLACK
6
CONTINUOUS
10
231.8852779999999996
20
-132.3844220000000007
11
231.8901899999999898
21
-132.3971929999999873
0
LINE
8
BLACK
6
CONTINUOUS
10
231.8901899999999898
20
-132.3971929999999873
11
231.8954339999999945
21
-132.4098529999999982
0
LINE
8
BLACK
6
CONTINUOUS
10
231.8954339999999945
20
-132.4098529999999982
11
231.8954339999999945
21
-132.4108279999999809
0
LINE
8
BLACK
6
CONTINUOUS
10
231.8954339999999945
20
-132.4108279999999809
11
231.8957829999999944
21
-132.4117349999999931
0
LINE
8
BLACK
6
CONTINUOUS
10
231.8957829999999944
20
-132.4117349999999931
11
231.8954369999999869
21
-132.4252679999999884
0
LINE
8
BLACK
6
CONTINUOUS
10
231.8954369999999869
20
-132.4252679999999884
11
231.8968679999999836
21
-138.8509109999999964
0
LINE
8
BLACK
6
CONTINUOUS
10
231.8968679999999836
20
-138.8509109999999964
11
241.7482990000000029
21
-138.8494910000000004
0
LINE
8
BLACK
6
CONTINUOUS
10
241.7482990000000029
20
-138.8494910000000004
11
241.7468689999999754
21
-132.4244829999999808
0
LINE
8
BLACK
6
CONTINUOUS
10
241.7468689999999754
20
-132.4244829999999808
11
241.7479929999999797
21
-132.4130600000000015
0
LINE
8
BLACK
6
CONTINUOUS
10
241.7479929999999797
20
-132.4130600000000015
11
241.7479599999999778
21
-132.4117329999999981
0
LINE
8
BLACK
6
CONTINUOUS
10
241.7479599999999778
20
-132.4117329999999981
11
241.7481809999999882
21
-132.4111570000000029
0
LINE
8
BLACK
6
CONTINUOUS
10
241.7481809999999882
20
-132.4111570000000029
11
241.7483099999999752
21
-132.4098510000000033
0
LINE
8
BLACK
6
CONTINUOUS
10
241.7483099999999752
20
-132.4098510000000033
11
241.7535469999999975
21
-132.3972069999999803
0
LINE
8
BLACK
6
CONTINUOUS
10
241.7535469999999975
20
-132.3972069999999803
11
241.7584659999999985
21
-132.3844200000000058
0
LINE
8
BLACK
6
CONTINUOUS
10
241.7584659999999985
20
-132.3844200000000058
11
241.7591359999999838
21
-132.3837139999999977
0
LINE
8
BLACK
6
CONTINUOUS
10
241.7591359999999838
20
-132.3837139999999977
11
241.75950899999998
21
-132.3828149999999937
0
LINE
8
BLACK
6
CONTINUOUS
10
241.75950899999998
20
-132.3828149999999937
11
241.7691930000000013
21
-132.3731300000000033
0
LINE
8
BLACK
6
CONTINUOUS
10
241.7691930000000013
20
-132.3731300000000033
11
241.7786229999999819
21
-132.3632069999999885
0
LINE
8
BLACK
6
CONTINUOUS
10
241.7786229999999819
20
-132.3632069999999885
11
241.7795119999999827
21
-132.3628109999999936
0
LINE
8
BLACK
6
CONTINUOUS
10
241.7795119999999827
20
-132.3628109999999936
11
241.7802009999999768
21
-132.3621229999999969
0
LINE
8
BLACK
6
CONTINUOUS
10
241.7802009999999768
20
-132.3621229999999969
11
241.7928440000000023
21
-132.3568850000000054
0
LINE
8
BLACK
6
CONTINUOUS
10
241.7928440000000023
20
-132.3568850000000054
11
241.8053639999999973
21
-132.3513209999999845
0
LINE
8
BLACK
6
CONTINUOUS
10
241.8053639999999973
20
-132.3513209999999845
11
241.8063379999999825
21
-132.3512949999999933
0
LINE
8
BLACK
6
CONTINUOUS
10
241.8063379999999825
20
-132.3512949999999933
11
241.8072369999999864
21
-132.350923999999992
0
LINE
8
BLACK
6
CONTINUOUS
10
241.8072369999999864
20
-132.350923999999992
11
241.8208449999999914
21
-132.350923999999992
0
LINE
8
BLACK
6
CONTINUOUS
10
241.8208449999999914
20
-132.350923999999992
11
254.9372059999999749
21
-132.0145729999999844
0
LINE
8
BLACK
6
CONTINUOUS
10
254.9372059999999749
20
-132.0145729999999844
11
254.9387089999999887
21
-132.0146819999999934
0
LINE
8
BLACK
6
CONTINUOUS
10
254.9387089999999887
20
-132.0146819999999934
11
254.9391200000000026
21
-132.0145489999999882
0
LINE
8
BLACK
6
CONTINUOUS
10
254.9391200000000026
20
-132.0145489999999882
11
254.9391200000000026
21
-132.0145660000000021
0
LINE
8
BLACK
6
CONTINUOUS
10
254.9391200000000026
20
-132.0145660000000021
11
255.060231999999985
21
-132.0145650000000046
0
LINE
8
BLACK
6
CONTINUOUS
10
255.060231999999985
20
-132.0145650000000046
11
255.3005449999999996
21
-131.9842030000000079
0
LINE
8
BLACK
6
CONTINUOUS
10
255.3005449999999996
20
-131.9842030000000079
11
255.5351569999999981
21
-131.9239599999999939
0
LINE
8
BLACK
6
CONTINUOUS
10
255.5351569999999981
20
-131.9239599999999939
11
255.7603689999999972
21
-131.8347870000000057
0
LINE
8
BLACK
6
CONTINUOUS
10
255.7603689999999972
20
-131.8347870000000057
11
255.9726279999999861
21
-131.7180909999999869
0
LINE
8
BLACK
6
CONTINUOUS
10
255.9726279999999861
20
-131.7180909999999869
11
256.0706069999999954
21
-131.6469009999999855
0
LINE
8
BLACK
6
CONTINUOUS
10
256.0706069999999954
20
-131.6469009999999855
11
256.0706079999999929
21
-131.6469009999999855
0
LINE
8
BLACK
6
CONTINUOUS
10
256.0706079999999929
20
-131.6469009999999855
11
256.0750610000000052
21
-131.6454530000000034
0
LINE
8
BLACK
6
CONTINUOUS
10
256.0750610000000052
20
-131.6454530000000034
11
264.0354019999999764
21
-125.8601529999999968
0
LINE
8
BLACK
6
CONTINUOUS
10
264.0354019999999764
20
-125.8601529999999968
11
264.0354229999999802
21
-125.8601400000000012
0
LINE
8
BLACK
6
CONTINUOUS
10
264.0354229999999802
20
-125.8601400000000012
11
264.1268910000000005
21
-125.7936039999999878
0
LINE
8
BLACK
6
CONTINUOUS
10
264.1268910000000005
20
-125.7936039999999878
11
264.2931049999999686
21
-125.6400639999999953
0
LINE
8
BLACK
6
CONTINUOUS
10
264.2931049999999686
20
-125.6400639999999953
11
264.4401919999999677
21
-125.4681119999999908
0
LINE
8
BLACK
6
CONTINUOUS
10
264.4401919999999677
20
-125.4681119999999908
11
264.566125999999997
21
-125.28011699999999
0
LINE
8
BLACK
6
CONTINUOUS
10
264.566125999999997
20
-125.28011699999999
11
264.6691749999999956
21
-125.0786650000000009
0
LINE
8
BLACK
6
CONTINUOUS
10
264.6691749999999956
20
-125.0786650000000009
11
264.7479199999999651
21
-124.8665309999999948
0
LINE
8
BLACK
6
CONTINUOUS
10
264.7479199999999651
20
-124.8665309999999948
11
264.7746539999999982
21
-124.7565959999999876
0
LINE
8
BLACK
6
CONTINUOUS
10
264.7746539999999982
20
-124.7565959999999876
11
264.7746549999999957
21
-124.7565959999999876
0
LINE
8
BLACK
6
CONTINUOUS
10
264.7746549999999957
20
-124.7565959999999876
11
264.7770939999999769
21
-124.7526369999999929
0
LINE
8
BLACK
6
CONTINUOUS
10
264.7770939999999769
20
-124.7526369999999929
11
265.4923299999999813
21
-121.7981049999999925
0
LINE
8
BLACK
6
CONTINUOUS
10
265.4923299999999813
20
-121.7981049999999925
11
265.4923299999999813
21
-121.798103999999995
0
LINE
8
BLACK
6
CONTINUOUS
10
265.4923299999999813
20
-121.798103999999995
11
265.4923309999999788
21
-121.7980989999999935
0
LINE
8
BLACK
6
CONTINUOUS
10
265.4923309999999788
20
-121.7980989999999935
11
265.4923349999999687
21
-121.7980859999999979
0
LINE
8
BLACK
6
CONTINUOUS
10
265.4923349999999687
20
-121.7980859999999979
11
265.5921429999999646
21
-121.4535300000000007
0
LINE
8
BLACK
6
CONTINUOUS
10
265.5921429999999646
20
-121.4535300000000007
11
265.7218799999999987
21
-121.1190719999999885
0
LINE
8
BLACK
6
CONTINUOUS
10
265.7218799999999987
20
-121.1190719999999885
11
265.8805340000000115
21
-120.7973219999999941
0
LINE
8
BLACK
6
CONTINUOUS
10
265.8805340000000115
20
-120.7973219999999941
11
266.0668769999999768
21
-120.4907749999999993
0
LINE
8
BLACK
6
CONTINUOUS
10
266.0668769999999768
20
-120.4907749999999993
11
266.2794619999999668
21
-120.2018089999999972
0
LINE
8
BLACK
6
CONTINUOUS
10
266.2794619999999668
20
-120.2018089999999972
11
266.5166419999999903
21
-119.9326629999999909
0
LINE
8
BLACK
6
CONTINUOUS
10
266.5166419999999903
20
-119.9326629999999909
11
266.7765789999999697
21
-119.6854239999999976
0
LINE
8
BLACK
6
CONTINUOUS
10
266.7765789999999697
20
-119.6854239999999976
11
267.0572559999999953
21
-119.4620089999999948
0
LINE
8
BLACK
6
CONTINUOUS
10
267.0572559999999953
20
-119.4620089999999948
11
267.0572520000000054
21
-119.4620039999999932
0
LINE
8
BLACK
6
CONTINUOUS
10
267.0572520000000054
20
-119.4620039999999932
11
267.0616809999999646
21
-119.4605649999999883
0
LINE
8
BLACK
6
CONTINUOUS
10
267.0616809999999646
20
-119.4605649999999883
11
279.002728999999988
21
-110.7831229999999891
0
LINE
8
BLACK
6
CONTINUOUS
10
279.002728999999988
20
-110.7831229999999891
11
279.002728999999988
21
-110.7831219999999917
0
LINE
8
BLACK
6
CONTINUOUS
10
279.002728999999988
20
-110.7831219999999917
11
279.0027299999999855
21
-110.7831219999999917
0
LINE
8
BLACK
6
CONTINUOUS
10
279.0027299999999855
20
-110.7831219999999917
11
279.0028780000000097
21
-110.7830349999999981
0
LINE
8
BLACK
6
CONTINUOUS
10
279.0028780000000097
20
-110.7830349999999981
11
279.0990999999999644
21
-110.713097999999988
0
LINE
8
BLACK
6
CONTINUOUS
10
279.0990999999999644
20
-110.713097999999988
11
279.2731129999999666
21
-110.5503640000000019
0
LINE
8
BLACK
6
CONTINUOUS
10
279.2731129999999666
20
-110.5503640000000019
11
279.4257329999999797
21
-110.3674159999999915
0
LINE
8
BLACK
6
CONTINUOUS
10
279.4257329999999797
20
-110.3674159999999915
11
279.5546309999999721
21
-110.1670459999999991
0
LINE
8
BLACK
6
CONTINUOUS
10
279.5546309999999721
20
-110.1670459999999991
11
279.6578409999999622
21
-109.9523119999999921
0
LINE
8
BLACK
6
CONTINUOUS
10
279.6578409999999622
20
-109.9523119999999921
11
279.7337870000000066
21
-109.7264919999999933
0
LINE
8
BLACK
6
CONTINUOUS
10
279.7337870000000066
20
-109.7264919999999933
11
279.7813089999999647
21
-109.4930299999999903
0
LINE
8
BLACK
6
CONTINUOUS
10
279.7813089999999647
20
-109.4930299999999903
11
279.7996840000000134
21
-109.2554899999999947
0
LINE
8
BLACK
6
CONTINUOUS
10
279.7996840000000134
20
-109.2554899999999947
11
279.794181999999978
21
-109.1364930000000015
0
LINE
8
BLACK
6
CONTINUOUS
10
279.794181999999978
20
-109.1364930000000015
11
279.7941829999999754
21
-109.1364930000000015
0
LINE
8
BLACK
6
CONTINUOUS
10
279.7941829999999754
20
-109.1364930000000015
11
279.7954119999999989
21
-109.132009999999994
0
LINE
8
BLACK
6
CONTINUOUS
10
279.7954119999999989
20
-109.132009999999994
11
279.5279810000000111
21
-103.4019909999999953
0
LINE
8
BLACK
6
CONTINUOUS
10
279.5279810000000111
20
-103.4019909999999953
11
279.5280159999999796
21
-103.4013099999999952
0
LINE
8
BLACK
6
CONTINUOUS
10
279.5280159999999796
20
-103.4013099999999952
11
279.5279350000000136
21
-103.401094999999998
0
LINE
8
BLACK
6
CONTINUOUS
10
279.5279350000000136
20
-103.401094999999998
11
279.5273659999999722
21
-103.0357810000000001
0
LINE
8
BLACK
6
CONTINUOUS
10
279.5273659999999722
20
-103.0357810000000001
11
279.5595169999999712
21
-102.6718839999999915
0
LINE
8
BLACK
6
CONTINUOUS
10
279.5595169999999712
20
-102.6718839999999915
11
279.6241279999999847
21
-102.3123289999999912
0
LINE
8
BLACK
6
CONTINUOUS
10
279.6241279999999847
20
-102.3123289999999912
11
279.7206820000000107
21
-101.9600049999999953
0
LINE
8
BLACK
6
CONTINUOUS
10
279.7206820000000107
20
-101.9600049999999953
11
279.8483999999999696
21
-101.6177440000000018
0
LINE
8
BLACK
6
CONTINUOUS
10
279.8483999999999696
20
-101.6177440000000018
11
280.006259
21
-101.288297
0
LINE
8
BLACK
6
CONTINUOUS
10
280.006259
20
-101.288297
11
280.1929869999999596
21
-100.9743110000000001
0
LINE
8
BLACK
6
CONTINUOUS
10
280.1929869999999596
20
-100.9743110000000001
11
280.4070859999999925
21
-100.6783099999999962
0
LINE
8
BLACK
6
CONTINUOUS
10
280.4070859999999925
20
-100.6783099999999962
11
280.6468330000000151
21
-100.402672999999993
0
LINE
8
BLACK
6
CONTINUOUS
10
280.6468330000000151
20
-100.402672999999993
11
280.910302999999999
21
-100.1496149999999972
0
LINE
8
BLACK
6
CONTINUOUS
10
280.910302999999999
20
-100.1496149999999972
11
281.1953780000000052
21
-99.9211699999999894
0
LINE
8
BLACK
6
CONTINUOUS
10
281.1953780000000052
20
-99.9211699999999894
11
281.4997659999999655
21
-99.7191739999999953
0
LINE
8
BLACK
6
CONTINUOUS
10
281.4997659999999655
20
-99.7191739999999953
11
281.4997759999999971
21
-99.7191890000000001
0
LINE
8
BLACK
6
CONTINUOUS
10
281.4997759999999971
20
-99.7191890000000001
11
281.5043149999999628
21
-99.7181409999999886
0
LINE
8
BLACK
6
CONTINUOUS
10
281.5043149999999628
20
-99.7181409999999886
11
296.9287679999999909
21
-90.4484929999999991
0
LINE
8
BLACK
6
CONTINUOUS
10
296.9287679999999909
20
-90.4484929999999991
11
296.9289349999999672
21
-90.4484130000000022
0
LINE
8
BLACK
6
CONTINUOUS
10
296.9289349999999672
20
-90.4484130000000022
11
297.2428239999999846
21
-90.278064999999998
0
LINE
8
BLACK
6
CONTINUOUS
10
297.2428239999999846
20
-90.278064999999998
11
297.5705939999999714
21
-90.1357979999999941
0
LINE
8
BLACK
6
CONTINUOUS
10
297.5705939999999714
20
-90.1357979999999941
11
297.9095659999999839
21
-90.022790999999998
0
LINE
8
BLACK
6
CONTINUOUS
10
297.9095659999999839
20
-90.022790999999998
11
298.2571350000000052
21
-89.93991299999999
0
LINE
8
BLACK
6
CONTINUOUS
10
298.2571350000000052
20
-89.93991299999999
11
298.6106269999999654
21
-89.8878019999999935
0
LINE
8
BLACK
6
CONTINUOUS
10
298.6106269999999654
20
-89.8878019999999935
11
298.9673260000000141
21
-89.8668579999999935
0
LINE
8
BLACK
6
CONTINUOUS
10
298.9673260000000141
20
-89.8668579999999935
11
299.3244889999999714
21
-89.8772419999999954
0
LINE
8
BLACK
6
CONTINUOUS
10
299.3244889999999714
20
-89.8772419999999954
11
299.6793680000000109
21
-89.9188740000000024
0
LINE
8
BLACK
6
CONTINUOUS
10
299.6793680000000109
20
-89.9188740000000024
11
300.0292369999999664
21
-89.9914349999999956
0
LINE
8
BLACK
6
CONTINUOUS
10
300.0292369999999664
20
-89.9914349999999956
11
300.3714029999999866
21
-90.0943659999999937
0
LINE
8
BLACK
6
CONTINUOUS
10
300.3714029999999866
20
-90.0943659999999937
11
300.3713889999999651
21
-90.0944059999999922
0
LINE
8
BLACK
6
CONTINUOUS
10
300.3713889999999651
20
-90.0944059999999922
11
300.3750839999999585
21
-90.0972159999999889
0
LINE
8
BLACK
6
CONTINUOUS
10
300.3750839999999585
20
-90.0972159999999889
11
304.4264279999999872
21
-91.5108829999999926
0
LINE
8
BLACK
6
CONTINUOUS
10
304.4264279999999872
20
-91.5108829999999926
11
304.4264369999999644
21
-91.5108869999999968
0
LINE
8
BLACK
6
CONTINUOUS
10
304.4264369999999644
20
-91.5108869999999968
11
304.4264450000000011
21
-91.5108649999999955
0
LINE
8
BLACK
6
CONTINUOUS
10
304.4264450000000011
20
-91.5108649999999955
11
304.5462410000000091
21
-91.5526759999999911
0
LINE
8
BLACK
6
CONTINUOUS
10
304.5462410000000091
20
-91.5526759999999911
11
304.7947199999999839
21
-91.6042139999999989
0
LINE
8
BLACK
6
CONTINUOUS
10
304.7947199999999839
20
-91.6042139999999989
11
305.0478129999999624
21
-91.622681
0
LINE
8
BLACK
6
CONTINUOUS
10
305.0478129999999624
20
-91.622681
11
305.3011409999999728
21
-91.6077559999999949
0
LINE
8
BLACK
6
CONTINUOUS
10
305.3011409999999728
20
-91.6077559999999949
11
305.5503160000000094
21
-91.5596979999999974
0
LINE
8
BLACK
6
CONTINUOUS
10
305.5503160000000094
20
-91.5596979999999974
11
305.7910229999999956
21
-91.4793399999999934
0
LINE
8
BLACK
6
CONTINUOUS
10
305.7910229999999956
20
-91.4793399999999934
11
305.9050809999999956
21
-91.4237509999999958
0
LINE
8
BLACK
6
CONTINUOUS
10
305.9050809999999956
20
-91.4237509999999958
11
305.909672999999998
21
-91.4231049999999925
0
LINE
8
BLACK
6
CONTINUOUS
10
305.909672999999998
20
-91.4231049999999925
11
319.8355399999999804
21
-84.6293919999999957
0
LINE
8
BLACK
6
CONTINUOUS
10
319.8355399999999804
20
-84.6293919999999957
11
319.8355629999999792
21
-84.62938299999999
0
LINE
8
BLACK
6
CONTINUOUS
10
319.8355629999999792
20
-84.62938299999999
11
320.1762509999999793
21
-84.4820299999999946
0
LINE
8
BLACK
6
CONTINUOUS
10
320.1762509999999793
20
-84.4820299999999946
11
320.5289569999999912
21
-84.3662839999999932
0
LINE
8
BLACK
6
CONTINUOUS
10
320.5289569999999912
20
-84.3662839999999932
11
320.8907330000000115
21
-84.2831139999999976
0
LINE
8
BLACK
6
CONTINUOUS
10
320.8907330000000115
20
-84.2831139999999976
11
321.258576000000005
21
-84.2332109999999972
0
LINE
8
BLACK
6
CONTINUOUS
10
321.258576000000005
20
-84.2332109999999972
11
321.6294340000000034
21
-84.2169889999999981
0
LINE
8
BLACK
6
CONTINUOUS
10
321.6294340000000034
20
-84.2169889999999981
11
322.0002299999999877
21
-84.2345820000000032
0
LINE
8
BLACK
6
CONTINUOUS
10
322.0002299999999877
20
-84.2345820000000032
11
322.3678869999999961
21
-84.2858449999999948
0
LINE
8
BLACK
6
CONTINUOUS
10
322.3678869999999961
20
-84.2858449999999948
11
322.7293520000000058
21
-84.3703519999999969
0
LINE
8
BLACK
6
CONTINUOUS
10
322.7293520000000058
20
-84.3703519999999969
11
323.0816279999999665
21
-84.487402000000003
0
LINE
8
BLACK
6
CONTINUOUS
10
323.0816279999999665
20
-84.487402000000003
11
323.4217909999999847
21
-84.6360239999999919
0
LINE
8
BLACK
6
CONTINUOUS
10
323.4217909999999847
20
-84.6360239999999919
11
323.4251279999999724
21
-84.6392709999999937
0
LINE
8
BLACK
6
CONTINUOUS
10
323.4251279999999724
20
-84.6392709999999937
11
336.4812319999999772
21
-91.0653499999999951
0
LINE
8
BLACK
6
CONTINUOUS
10
336.4812319999999772
20
-91.0653499999999951
11
336.4812349999999697
21
-91.0653449999999935
0
LINE
8
BLACK
6
CONTINUOUS
10
336.4812349999999697
20
-91.0653449999999935
11
336.5747969999999896
21
-91.1114079999999973
0
LINE
8
BLACK
6
CONTINUOUS
10
336.5747969999999896
20
-91.1114079999999973
11
336.7707809999999995
21
-91.1827729999999974
0
LINE
8
BLACK
6
CONTINUOUS
10
336.7707809999999995
20
-91.1827729999999974
11
336.9733279999999809
21
-91.2325489999999917
0
LINE
8
BLACK
6
CONTINUOUS
10
336.9733279999999809
20
-91.2325489999999917
11
337.1800660000000107
21
-91.260154
0
LINE
8
BLACK
6
CONTINUOUS
10
337.1800660000000107
20
-91.260154
11
337.388576999999998
21
-91.2652649999999994
0
LINE
8
BLACK
6
CONTINUOUS
10
337.388576999999998
20
-91.2652649999999994
11
337.5964189999999689
21
-91.2478229999999968
0
LINE
8
BLACK
6
CONTINUOUS
10
337.5964189999999689
20
-91.2478229999999968
11
337.6987889999999766
21
-91.2279209999999949
0
LINE
8
BLACK
6
CONTINUOUS
10
337.6987889999999766
20
-91.2279209999999949
11
337.6987889999999766
21
-91.2279219999999924
0
LINE
8
BLACK
6
CONTINUOUS
10
337.6987889999999766
20
-91.2279219999999924
11
337.7033930000000055
21
-91.2284870000000012
0
LINE
8
BLACK
6
CONTINUOUS
10
337.7033930000000055
20
-91.2284870000000012
11
353.385298999999975
21
-88.17877399999999
0
LINE
8
BLACK
6
CONTINUOUS
10
353.385298999999975
20
-88.17877399999999
11
353.3853169999999864
21
-88.178771999999995
0
LINE
8
BLACK
6
CONTINUOUS
10
353.3853169999999864
20
-88.178771999999995
11
353.7505539999999655
21
-88.1248059999999924
0
LINE
8
BLACK
6
CONTINUOUS
10
353.7505539999999655
20
-88.1248059999999924
11
354.1191959999999881
21
-88.1041219999999896
0
LINE
8
BLACK
6
CONTINUOUS
10
354.1191959999999881
20
-88.1041219999999896
11
354.4881959999999594
21
-88.1168940000000021
0
LINE
8
BLACK
6
CONTINUOUS
10
354.4881959999999594
20
-88.1168940000000021
11
354.8545239999999694
21
-88.1630150000000015
0
LINE
8
BLACK
6
CONTINUOUS
10
354.8545239999999694
20
-88.1630150000000015
11
355.2151739999999904
21
-88.2421080000000018
0
LINE
8
BLACK
6
CONTINUOUS
10
355.2151739999999904
20
-88.2421080000000018
11
355.5671839999999975
21
-88.3535229999999956
0
LINE
8
BLACK
6
CONTINUOUS
10
355.5671839999999975
20
-88.3535229999999956
11
355.9076629999999568
21
-88.4963449999999909
0
LINE
8
BLACK
6
CONTINUOUS
10
355.9076629999999568
20
-88.4963449999999909
11
356.2338159999999903
21
-88.6694019999999909
0
LINE
8
BLACK
6
CONTINUOUS
10
356.2338159999999903
20
-88.6694019999999909
11
356.5429639999999836
21
-88.8712719999999905
0
LINE
8
BLACK
6
CONTINUOUS
10
356.5429639999999836
20
-88.8712719999999905
11
356.8325689999999781
21
-89.1002979999999951
0
LINE
8
BLACK
6
CONTINUOUS
10
356.8325689999999781
20
-89.1002979999999951
11
356.8325989999999592
21
-89.1002639999999957
0
LINE
8
BLACK
6
CONTINUOUS
10
356.8325989999999592
20
-89.1002639999999957
11
356.8349919999999997
21
-89.1042369999999977
0
LINE
8
BLACK
6
CONTINUOUS
10
356.8349919999999997
20
-89.1042369999999977
11
359.8685769999999593
21
-91.7330189999999988
0
LINE
8
BLACK
6
CONTINUOUS
10
359.8685769999999593
20
-91.7330189999999988
11
359.8685999999999581
21
-91.733042999999995
0
LINE
8
BLACK
6
CONTINUOUS
10
359.8685999999999581
20
-91.733042999999995
11
359.9537839999999846
21
-91.8068600000000004
0
LINE
8
BLACK
6
CONTINUOUS
10
359.9537839999999846
20
-91.8068600000000004
11
360.1402420000000006
21
-91.9336950000000002
0
LINE
8
BLACK
6
CONTINUOUS
10
360.1402420000000006
20
-91.9336950000000002
11
360.3402309999999602
21
-92.037897000000001
0
LINE
8
BLACK
6
CONTINUOUS
10
360.3402309999999602
20
-92.037897000000001
11
360.5510170000000016
21
-92.1180399999999935
0
LINE
8
BLACK
6
CONTINUOUS
10
360.5510170000000016
20
-92.1180399999999935
11
360.7697180000000117
21
-92.1730280000000022
0
LINE
8
BLACK
6
CONTINUOUS
10
360.7697180000000117
20
-92.1730280000000022
11
360.9933419999999842
21
-92.2021099999999905
0
LINE
8
BLACK
6
CONTINUOUS
10
360.9933419999999842
20
-92.2021099999999905
11
361.218832999999961
21
-92.2048879999999969
0
LINE
8
BLACK
6
CONTINUOUS
10
361.218832999999961
20
-92.2048879999999969
11
361.3309729999999718
21
-92.1931409999999971
0
LINE
8
BLACK
6
CONTINUOUS
10
361.3309729999999718
20
-92.1931409999999971
11
361.3309729999999718
21
-92.1931419999999946
0
LINE
8
BLACK
6
CONTINUOUS
10
361.3309729999999718
20
-92.1931419999999946
11
361.3355459999999653
21
-92.194113999999999
0
LINE
8
BLACK
6
CONTINUOUS
10
361.3355459999999653
20
-92.194113999999999
11
376.6420420000000036
21
-90.5838959999999958
0
LINE
8
BLACK
6
CONTINUOUS
10
376.6420420000000036
20
-90.5838959999999958
11
376.6420439999999985
21
-90.5838949999999983
0
LINE
8
BLACK
6
CONTINUOUS
10
376.6420439999999985
20
-90.5838949999999983
11
377.0177899999999909
21
-90.5618910000000028
0
LINE
8
BLACK
6
CONTINUOUS
10
377.0177899999999909
20
-90.5618910000000028
11
377.3939619999999877
21
-90.5746489999999937
0
LINE
8
BLACK
6
CONTINUOUS
10
377.3939619999999877
20
-90.5746489999999937
11
377.7673529999999573
21
-90.6220599999999905
0
LINE
8
BLACK
6
CONTINUOUS
10
377.7673529999999573
20
-90.6220599999999905
11
378.1347769999999855
21
-90.7037210000000016
0
LINE
8
BLACK
6
CONTINUOUS
10
378.1347769999999855
20
-90.7037210000000016
11
378.4930989999999724
21
-90.8189339999999987
0
LINE
8
BLACK
6
CONTINUOUS
10
378.4930989999999724
20
-90.8189339999999987
11
378.8392619999999624
21
-90.9667170000000027
0
LINE
8
BLACK
6
CONTINUOUS
10
378.8392619999999624
20
-90.9667170000000027
11
379.1703129999999646
21
-91.1458089999999999
0
LINE
8
BLACK
6
CONTINUOUS
10
379.1703129999999646
20
-91.1458089999999999
11
379.4834280000000035
21
-91.3546819999999968
0
LINE
8
BLACK
6
CONTINUOUS
10
379.4834280000000035
20
-91.3546819999999968
11
379.775935000000004
21
-91.5915540000000021
0
LINE
8
BLACK
6
CONTINUOUS
10
379.775935000000004
20
-91.5915540000000021
11
380.0453400000000101
21
-91.8544040000000024
0
LINE
8
BLACK
6
CONTINUOUS
10
380.0453400000000101
20
-91.8544040000000024
11
380.2893419999999765
21
-92.1409889999999905
0
LINE
8
BLACK
6
CONTINUOUS
10
380.2893419999999765
20
-92.1409889999999905
11
380.5058619999999792
21
-92.4488659999999953
0
LINE
8
BLACK
6
CONTINUOUS
10
380.5058619999999792
20
-92.4488659999999953
11
380.6930509999999686
21
-92.7754070000000013
0
LINE
8
BLACK
6
CONTINUOUS
10
380.6930509999999686
20
-92.7754070000000013
11
380.8493139999999926
21
-93.1178259999999938
0
LINE
8
BLACK
6
CONTINUOUS
10
380.8493139999999926
20
-93.1178259999999938
11
380.9733149999999569
21
-93.4732020000000006
0
LINE
8
BLACK
6
CONTINUOUS
10
380.9733149999999569
20
-93.4732020000000006
11
381.0639989999999671
21
-93.8385040000000004
0
LINE
8
BLACK
6
CONTINUOUS
10
381.0639989999999671
20
-93.8385040000000004
11
381.1205899999999929
21
-94.2106139999999925
0
LINE
8
BLACK
6
CONTINUOUS
10
381.1205899999999929
20
-94.2106139999999925
11
381.1206679999999665
21
-94.2106059999999985
0
LINE
8
BLACK
6
CONTINUOUS
10
381.1206679999999665
20
-94.2106059999999985
11
381.1196989999999687
21
-94.2151629999999898
0
LINE
8
BLACK
6
CONTINUOUS
10
381.1196989999999687
20
-94.2151629999999898
11
386.4516209999999887
21
-144.9312280000000044
0
LINE
8
BLACK
6
CONTINUOUS
10
386.4516209999999887
20
-144.9312280000000044
11
386.4736369999999965
21
-145.3069810000000075
0
LINE
8
BLACK
6
CONTINUOUS
10
386.4736369999999965
20
-145.3069810000000075
11
386.4608879999999544
21
-145.6831630000000075
0
LINE
8
BLACK
6
CONTINUOUS
10
386.4608879999999544
20
-145.6831630000000075
11
386.4134849999999801
21
-146.0565639999999803
0
LINE
8
BLACK
6
CONTINUOUS
10
386.4134849999999801
20
-146.0565639999999803
11
386.3318299999999681
21
-146.4239979999999832
0
LINE
8
BLACK
6
CONTINUOUS
10
386.3318299999999681
20
-146.4239979999999832
11
386.2166219999999726
21
-146.7823300000000017
0
LINE
8
BLACK
6
CONTINUOUS
10
386.2166219999999726
20
-146.7823300000000017
11
386.0688429999999585
21
-147.1285039999999924
0
LINE
8
BLACK
6
CONTINUOUS
10
386.0688429999999585
20
-147.1285039999999924
11
385.8897529999999847
21
-147.4595659999999953
0
LINE
8
BLACK
6
CONTINUOUS
10
385.8897529999999847
20
-147.4595659999999953
11
385.6808809999999994
21
-147.7726920000000064
0
LINE
8
BLACK
6
CONTINUOUS
10
385.6808809999999994
20
-147.7726920000000064
11
385.4440079999999966
21
-148.0652099999999791
0
LINE
8
BLACK
6
CONTINUOUS
10
385.4440079999999966
20
-148.0652099999999791
11
385.1811559999999872
21
-148.3346239999999909
0
LINE
8
BLACK
6
CONTINUOUS
10
385.1811559999999872
20
-148.3346239999999909
11
384.894566999999995
21
-148.5786349999999914
0
LINE
8
BLACK
6
CONTINUOUS
10
384.894566999999995
20
-148.5786349999999914
11
384.5866859999999861
21
-148.7951639999999998
0
LINE
8
BLACK
6
CONTINUOUS
10
384.5866859999999861
20
-148.7951639999999998
11
384.260138999999981
21
-148.9823599999999999
0
LINE
8
BLACK
6
CONTINUOUS
10
384.260138999999981
20
-148.9823599999999999
11
383.9177139999999895
21
-149.1386289999999804
0
LINE
8
BLACK
6
CONTINUOUS
10
383.9177139999999895
20
-149.1386289999999804
11
383.5623299999999745
21
-149.2626359999999863
0
LINE
8
BLACK
6
CONTINUOUS
10
383.5623299999999745
20
-149.2626359999999863
11
383.1970210000000066
21
-149.353322999999989
0
LINE
8
BLACK
6
CONTINUOUS
10
383.1970210000000066
20
-149.353322999999989
11
382.8249020000000087
21
-149.4099180000000047
0
LINE
8
BLACK
6
CONTINUOUS
10
382.8249020000000087
20
-149.4099180000000047
11
382.8248969999999645
21
-149.4098720000000071
0
LINE
8
BLACK
6
CONTINUOUS
10
382.8248969999999645
20
-149.4098720000000071
11
382.8203419999999824
21
-149.4089029999999809
0
LINE
8
BLACK
6
CONTINUOUS
10
382.8203419999999824
20
-149.4089029999999809
11
366.4823189999999613
21
-151.1275259999999889
0
LINE
8
BLACK
6
CONTINUOUS
10
366.4823189999999613
20
-151.1275259999999889
11
366.4823179999999638
21
-151.1275269999999864
0
LINE
8
BLACK
6
CONTINUOUS
10
366.4823179999999638
20
-151.1275269999999864
11
366.4823169999999664
21
-151.1275259999999889
0
LINE
8
BLACK
6
CONTINUOUS
10
366.4823169999999664
20
-151.1275259999999889
11
366.4823049999999967
21
-151.1275279999999839
0
LINE
8
BLACK
6
CONTINUOUS
10
366.4823049999999967
20
-151.1275279999999839
11
366.4821349999999711
21
-151.1275289999999814
0
LINE
8
BLACK
6
CONTINUOUS
10
366.4821349999999711
20
-151.1275289999999814
11
366.384399999999971
21
-151.1378579999999943
0
LINE
8
BLACK
6
CONTINUOUS
10
366.384399999999971
20
-151.1378579999999943
11
366.1916819999999575
21
-151.1783379999999966
0
LINE
8
BLACK
6
CONTINUOUS
10
366.1916819999999575
20
-151.1783379999999966
11
366.0040960000000041
21
-151.2382570000000044
0
LINE
8
BLACK
6
CONTINUOUS
10
366.0040960000000041
20
-151.2382570000000044
11
365.823598000000004
21
-151.3169910000000016
0
LINE
8
BLACK
6
CONTINUOUS
10
365.823598000000004
20
-151.3169910000000016
11
365.6520689999999831
21
-151.4137199999999837
0
LINE
8
BLACK
6
CONTINUOUS
10
365.6520689999999831
20
-151.4137199999999837
11
365.5716600000000085
21
-151.4705449999999871
0
LINE
8
BLACK
6
CONTINUOUS
10
365.5716600000000085
20
-151.4705449999999871
11
365.5672119999999836
21
-151.4719269999999938
0
LINE
8
BLACK
6
CONTINUOUS
10
365.5672119999999836
20
-151.4719269999999938
11
337.8964639999999804
21
-171.0516649999999856
0
LINE
8
BLACK
6
CONTINUOUS
10
337.8964639999999804
20
-171.0516649999999856
11
337.8964369999999917
21
-171.0516800000000046
0
LINE
8
BLACK
6
CONTINUOUS
10
337.8964369999999917
20
-171.0516800000000046
11
337.8964330000000018
21
-171.0516859999999895
0
LINE
8
BLACK
6
CONTINUOUS
10
337.8964330000000018
20
-171.0516859999999895
11
337.8964330000000018
21
-171.0516869999999869
0
LINE
8
BLACK
6
CONTINUOUS
10
337.8964330000000018
20
-171.0516869999999869
11
337.8931539999999814
21
-171.0540039999999919
0
LINE
8
BLACK
6
CONTINUOUS
10
337.8931539999999814
20
-171.0540039999999919
11
337.8866150000000061
21
-171.0586700000000064
0
LINE
8
BLACK
6
CONTINUOUS
10
337.8866150000000061
20
-171.0586700000000064
11
337.8800979999999754
21
-171.0633639999999787
0
LINE
8
BLACK
6
CONTINUOUS
10
337.8800979999999754
20
-171.0633639999999787
11
337.8768499999999904
21
-171.0657269999999812
0
LINE
8
BLACK
6
CONTINUOUS
10
337.8768499999999904
20
-171.0657269999999812
11
337.8768499999999904
21
-171.0657259999999837
0
LINE
8
BLACK
6
CONTINUOUS
10
337.8768499999999904
20
-171.0657259999999837
11
337.872413999999992
21
-171.0671689999999785
0
LINE
8
BLACK
6
CONTINUOUS
10
337.872413999999992
20
-171.0671689999999785
11
324.0509569999999826
21
-181.1108349999999803
0
LINE
8
BLACK
6
CONTINUOUS
10
324.0509569999999826
20
-181.1108349999999803
11
324.0509539999999902
21
-181.1108359999999777
0
LINE
8
BLACK
6
CONTINUOUS
10
324.0509539999999902
20
-181.1108359999999777
11
323.9759219999999686
21
-181.1653359999999964
0
LINE
8
BLACK
6
CONTINUOUS
10
323.9759219999999686
20
-181.1653359999999964
11
323.8370360000000119
21
-181.2882899999999893
0
LINE
8
BLACK
6
CONTINUOUS
10
323.8370360000000119
20
-181.2882899999999893
11
323.7106039999999894
21
-181.4240169999999921
0
LINE
8
BLACK
6
CONTINUOUS
10
323.7106039999999894
20
-181.4240169999999921
11
323.6542159999999626
21
-181.4976529999999855
0
LINE
8
BLACK
6
CONTINUOUS
10
323.6542159999999626
20
-181.4976529999999855
11
323.6542149999999651
21
-181.497651999999988
0
LINE
8
BLACK
6
CONTINUOUS
10
323.6542149999999651
20
-181.497651999999988
11
323.6503789999999867
21
-181.5002920000000017
0
LINE
8
BLACK
6
CONTINUOUS
10
323.6503789999999867
20
-181.5002920000000017
11
310.2772840000000087
21
-198.9620089999999948
0
LINE
8
BLACK
6
CONTINUOUS
10
310.2772840000000087
20
-198.9620089999999948
11
310.2772509999999784
21
-198.9620429999999942
0
LINE
8
BLACK
6
CONTINUOUS
10
310.2772509999999784
20
-198.9620429999999942
11
310.2314569999999776
21
-199.021821999999986
0
LINE
8
BLACK
6
CONTINUOUS
10
310.2314569999999776
20
-199.021821999999986
11
310.1494490000000042
21
-199.1482739999999865
0
LINE
8
BLACK
6
CONTINUOUS
10
310.1494490000000042
20
-199.1482739999999865
11
310.0775699999999802
21
-199.280744999999996
0
LINE
8
BLACK
6
CONTINUOUS
10
310.0775699999999802
20
-199.280744999999996
11
310.0469249999999874
21
-199.3495910000000038
0
LINE
8
BLACK
6
CONTINUOUS
10
310.0469249999999874
20
-199.3495910000000038
11
310.0438069999999584
21
-199.353051999999991
0
LINE
8
BLACK
6
CONTINUOUS
10
310.0438069999999584
20
-199.353051999999991
11
303.420174999999972
21
-214.2335169999999778
0
LINE
8
BLACK
6
CONTINUOUS
10
303.420174999999972
20
-214.2335169999999778
11
303.4201699999999846
21
-214.2335239999999885
0
LINE
8
BLACK
6
CONTINUOUS
10
303.4201699999999846
20
-214.2335239999999885
11
303.2513589999999795
21
-214.5699290000000019
0
LINE
8
BLACK
6
CONTINUOUS
10
303.2513589999999795
20
-214.5699290000000019
11
303.0522249999999644
21
-214.8893279999999777
0
LINE
8
BLACK
6
CONTINUOUS
10
303.0522249999999644
20
-214.8893279999999777
11
302.8244699999999625
21
-215.1889919999999847
0
LINE
8
BLACK
6
CONTINUOUS
10
302.8244699999999625
20
-215.1889919999999847
11
302.5700370000000134
21
-215.4663620000000037
0
LINE
8
BLACK
6
CONTINUOUS
10
302.5700370000000134
20
-215.4663620000000037
11
302.2910979999999768
21
-215.7190739999999778
0
LINE
8
BLACK
6
CONTINUOUS
10
302.2910979999999768
20
-215.7190739999999778
11
301.9900319999999851
21
-215.9449709999999811
0
LINE
8
BLACK
6
CONTINUOUS
10
301.9900319999999851
20
-215.9449709999999811
11
301.6694059999999808
21
-216.1421259999999904
0
LINE
8
BLACK
6
CONTINUOUS
10
301.6694059999999808
20
-216.1421259999999904
11
301.331957999999986
21
-216.3088559999999916
0
LINE
8
BLACK
6
CONTINUOUS
10
301.331957999999986
20
-216.3088559999999916
11
300.9805650000000128
21
-216.4437399999999911
0
LINE
8
BLACK
6
CONTINUOUS
10
300.9805650000000128
20
-216.4437399999999911
11
300.6182259999999928
21
-216.5456259999999986
0
LINE
8
BLACK
6
CONTINUOUS
10
300.6182259999999928
20
-216.5456259999999986
11
300.2480319999999665
21
-216.6136449999999911
0
LINE
8
BLACK
6
CONTINUOUS
10
300.2480319999999665
20
-216.6136449999999911
11
299.8731409999999755
21
-216.647217999999981
0
LINE
8
BLACK
6
CONTINUOUS
10
299.8731409999999755
20
-216.647217999999981
11
299.4967509999999606
21
-216.6460569999999848
0
LINE
8
BLACK
6
CONTINUOUS
10
299.4967509999999606
20
-216.6460569999999848
11
299.1220739999999978
21
-216.6101730000000032
0
LINE
8
BLACK
6
CONTINUOUS
10
299.1220739999999978
20
-216.6101730000000032
11
298.7523069999999734
21
-216.5398709999999767
0
LINE
8
BLACK
6
CONTINUOUS
10
298.7523069999999734
20
-216.5398709999999767
11
298.3906029999999987
21
-216.4357519999999795
0
LINE
8
BLACK
6
CONTINUOUS
10
298.3906029999999987
20
-216.4357519999999795
11
298.0400490000000104
21
-216.2987039999999865
0
LINE
8
BLACK
6
CONTINUOUS
10
298.0400490000000104
20
-216.2987039999999865
11
298.0400239999999599
21
-216.2987599999999873
0
LINE
8
BLACK
6
CONTINUOUS
10
298.0400239999999599
20
-216.2987599999999873
11
298.0365610000000061
21
-216.2956419999999866
0
LINE
8
BLACK
6
CONTINUOUS
10
298.0365610000000061
20
-216.2956419999999866
11
278.650338999999974
21
-207.6659019999999884
0
LINE
8
BLACK
6
CONTINUOUS
10
278.650338999999974
20
-207.6659019999999884
11
278.650338999999974
21
-207.665900999999991
0
LINE
8
BLACK
6
CONTINUOUS
10
278.650338999999974
20
-207.665900999999991
11
278.6503329999999892
21
-207.665898999999996
0
LINE
8
BLACK
6
CONTINUOUS
10
278.6503329999999892
20
-207.665898999999996
11
278.6503149999999778
21
-207.6658889999999928
0
LINE
8
BLACK
6
CONTINUOUS
10
278.6503149999999778
20
-207.6658889999999928
11
278.5581730000000107
21
-207.6248719999999821
0
LINE
8
BLACK
6
CONTINUOUS
10
278.5581730000000107
20
-207.6248719999999821
11
278.3662729999999783
21
-207.5625299999999811
0
LINE
8
BLACK
6
CONTINUOUS
10
278.3662729999999783
20
-207.5625299999999811
11
278.1689099999999826
21
-207.5205809999999929
0
LINE
8
BLACK
6
CONTINUOUS
10
278.1689099999999826
20
-207.5205809999999929
11
277.9682439999999701
21
-207.4994820000000004
0
LINE
8
BLACK
6
CONTINUOUS
10
277.9682439999999701
20
-207.4994820000000004
11
277.8673579999999674
21
-207.4994759999999872
0
LINE
8
BLACK
6
CONTINUOUS
10
277.8673579999999674
20
-207.4994759999999872
11
277.8629249999999615
21
-207.4980349999999873
0
LINE
8
BLACK
6
CONTINUOUS
10
277.8629249999999615
20
-207.4980349999999873
11
195.7763899999999921
21
-207.4994799999999771
0
LINE
8
BLACK
6
CONTINUOUS
10
195.7763899999999921
20
-207.4994799999999771
11
195.7763899999999921
21
-207.4994989999999859
0
LINE
8
BLACK
6
CONTINUOUS
10
195.7763899999999921
20
-207.4994989999999859
11
195.6755049999999869
21
-207.4994989999999859
0
LINE
8
BLACK
6
CONTINUOUS
10
195.6755049999999869
20
-207.4994989999999859
11
195.4748390000000029
21
-207.5205890000000011
0
LINE
8
BLACK
6
CONTINUOUS
10
195.4748390000000029
20
-207.5205890000000011
11
195.2774759999999787
21
-207.5625359999999944
0
LINE
8
BLACK
6
CONTINUOUS
10
195.2774759999999787
20
-207.5625359999999944
11
195.0855789999999956
21
-207.6248819999999853
0
LINE
8
BLACK
6
CONTINUOUS
10
195.0855789999999956
20
-207.6248819999999853
11
194.9934140000000014
21
-207.6659129999999891
0
LINE
8
BLACK
6
CONTINUOUS
10
194.9934140000000014
20
-207.6659129999999891
11
194.9934140000000014
21
-207.6659119999999916
0
LINE
8
BLACK
6
CONTINUOUS
10
194.9934140000000014
20
-207.6659119999999916
11
194.9888009999999952
21
-207.6663959999999918
0
LINE
8
BLACK
6
CONTINUOUS
10
194.9888009999999952
20
-207.6663959999999918
11
175.6037259999999947
21
-216.2987459999999942
0
LINE
8
BLACK
6
CONTINUOUS
10
175.6037259999999947
20
-216.2987459999999942
11
175.6036770000000047
21
-216.2987609999999847
0
LINE
8
BLACK
6
CONTINUOUS
10
175.6036770000000047
20
-216.2987609999999847
11
175.2531689999999855
21
-216.4357849999999814
0
LINE
8
BLACK
6
CONTINUOUS
10
175.2531689999999855
20
-216.4357849999999814
11
174.8914609999999925
21
-216.5398989999999912
0
LINE
8
BLACK
6
CONTINUOUS
10
174.8914609999999925
20
-216.5398989999999912
11
174.5216899999999782
21
-216.610196000000002
0
LINE
8
BLACK
6
CONTINUOUS
10
174.5216899999999782
20
-216.610196000000002
11
174.1470099999999945
21
-216.6460759999999937
0
LINE
8
BLACK
6
CONTINUOUS
10
174.1470099999999945
20
-216.6460759999999937
11
173.7706179999999847
21
-216.6472329999999999
0
LINE
8
BLACK
6
CONTINUOUS
10
173.7706179999999847
20
-216.6472329999999999
11
173.3957240000000013
21
-216.6136569999999892
0
LINE
8
BLACK
6
CONTINUOUS
10
173.3957240000000013
20
-216.6136569999999892
11
173.02552799999998
21
-216.5456350000000043
0
LINE
8
BLACK
6
CONTINUOUS
10
173.02552799999998
20
-216.5456350000000043
11
172.6631859999999961
21
-216.4437470000000019
0
LINE
8
BLACK
6
CONTINUOUS
10
172.6631859999999961
20
-216.4437470000000019
11
172.3117909999999995
21
-216.308860999999979
0
LINE
8
BLACK
6
CONTINUOUS
10
172.3117909999999995
20
-216.308860999999979
11
171.9743399999999838
21
-216.1421299999999803
0
LINE
8
BLACK
6
CONTINUOUS
10
171.9743399999999838
20
-216.1421299999999803
11
171.653712999999982
21
-215.944974000000002
0
LINE
8
BLACK
6
CONTINUOUS
10
171.653712999999982
20
-215.944974000000002
11
171.3526430000000005
21
-215.7190769999999986
0
LINE
8
BLACK
6
CONTINUOUS
10
171.3526430000000005
20
-215.7190769999999986
11
171.0737000000000023
21
-215.4663649999999961
0
LINE
8
BLACK
6
CONTINUOUS
10
171.0737000000000023
20
-215.4663649999999961
11
170.8192629999999781
21
-215.1889939999999797
0
LINE
8
BLACK
6
CONTINUOUS
10
170.8192629999999781
20
-215.1889939999999797
11
170.5915039999999863
21
-214.8893309999999985
0
LINE
8
BLACK
6
CONTINUOUS
10
170.5915039999999863
20
-214.8893309999999985
11
170.3923649999999839
21
-214.5699319999999943
0
LINE
8
BLACK
6
CONTINUOUS
10
170.3923649999999839
20
-214.5699319999999943
11
170.223544000000004
21
-214.2335209999999961
0
LINE
8
BLACK
6
CONTINUOUS
10
170.223544000000004
20
-214.2335209999999961
11
170.2235719999999901
21
-214.2335080000000005
0
LINE
8
BLACK
6
CONTINUOUS
10
170.2235719999999901
20
-214.2335080000000005
11
170.2230840000000001
21
-214.2288749999999879
0
LINE
8
BLACK
6
CONTINUOUS
10
170.2230840000000001
20
-214.2288749999999879
11
163.596825999999993
21
-199.3495810000000006
0
LINE
8
BLACK
6
CONTINUOUS
10
163.596825999999993
20
-199.3495810000000006
11
163.596823999999998
21
-199.3495759999999848
0
LINE
8
BLACK
6
CONTINUOUS
10
163.596823999999998
20
-199.3495759999999848
11
163.5968230000000005
21
-199.3495749999999873
0
LINE
8
BLACK
6
CONTINUOUS
10
163.5968230000000005
20
-199.3495749999999873
11
163.5968199999999797
21
-199.3495769999999823
0
LINE
8
BLACK
6
CONTINUOUS
10
163.5968199999999797
20
-199.3495769999999823
11
163.5661859999999876
21
-199.2807329999999979
0
LINE
8
BLACK
6
CONTINUOUS
10
163.5661859999999876
20
-199.2807329999999979
11
163.4943199999999877
21
-199.1482699999999966
0
LINE
8
BLACK
6
CONTINUOUS
10
163.4943199999999877
20
-199.1482699999999966
11
163.4123119999999858
21
-199.0218349999999816
0
LINE
8
BLACK
6
CONTINUOUS
10
163.4123119999999858
20
-199.0218349999999816
11
163.3664809999999932
21
-198.9620229999999879
0
LINE
8
BLACK
6
CONTINUOUS
10
163.3664809999999932
20
-198.9620229999999879
11
163.3649279999999919
21
-198.9576279999999997
0
LINE
8
BLACK
6
CONTINUOUS
10
163.3649279999999919
20
-198.9576279999999997
11
149.9895359999999869
21
-181.4976460000000031
0
LINE
8
BLACK
6
CONTINUOUS
10
149.9895359999999869
20
-181.4976460000000031
11
149.9895099999999957
21
-181.497604999999993
0
LINE
8
BLACK
6
CONTINUOUS
10
149.9895099999999957
20
-181.497604999999993
11
149.9331569999999942
21
-181.4240159999999946
0
LINE
8
BLACK
6
CONTINUOUS
10
149.9331569999999942
20
-181.4240159999999946
11
149.8067240000000027
21
-181.2882919999999842
0
LINE
8
BLACK
6
CONTINUOUS
10
149.8067240000000027
20
-181.2882919999999842
11
149.6678369999999916
21
-181.1653419999999812
0
LINE
8
BLACK
6
CONTINUOUS
10
149.6678369999999916
20
-181.1653419999999812
11
149.5927969999999902
21
-181.1108389999999986
0
LINE
8
BLACK
6
CONTINUOUS
10
149.5927969999999902
20
-181.1108389999999986
11
149.5927969999999902
21
-181.1108380000000011
0
LINE
8
BLACK
6
CONTINUOUS
10
149.5927969999999902
20
-181.1108380000000011
11
149.5900389999999902
21
-181.1070419999999785
0
LINE
8
BLACK
6
CONTINUOUS
10
149.5900389999999902
20
-181.1070419999999785
11
135.766918000000004
21
-171.0657420000000002
0
LINE
8
BLACK
6
CONTINUOUS
10
135.766918000000004
20
-171.0657420000000002
11
135.7669170000000065
21
-171.0657420000000002
0
LINE
8
BLACK
6
CONTINUOUS
10
135.7669170000000065
20
-171.0657420000000002
11
135.7636559999999974
21
-171.0633739999999818
0
LINE
8
BLACK
6
CONTINUOUS
10
135.7636559999999974
20
-171.0633739999999818
11
135.7571140000000014
21
-171.0586629999999957
0
LINE
8
BLACK
6
CONTINUOUS
10
135.7571140000000014
20
-171.0586629999999957
11
135.7505539999999939
21
-171.0539789999999982
0
LINE
8
BLACK
6
CONTINUOUS
10
135.7505539999999939
20
-171.0539789999999982
11
135.7472630000000038
21
-171.0516509999999926
0
LINE
8
BLACK
6
CONTINUOUS
10
135.7472630000000038
20
-171.0516509999999926
11
135.7472640000000013
21
-171.0516499999999951
0
LINE
8
BLACK
6
CONTINUOUS
10
135.7472640000000013
20
-171.0516499999999951
11
135.7444789999999841
21
-171.0479159999999865
0
LINE
8
BLACK
6
CONTINUOUS
10
135.7444789999999841
20
-171.0479159999999865
11
108.0720639999999975
21
-151.4705339999999865
0
LINE
8
BLACK
6
CONTINUOUS
10
108.0720639999999975
20
-151.4705339999999865
11
108.0720619999999883
21
-151.4705319999999915
0
LINE
8
BLACK
6
CONTINUOUS
10
108.0720619999999883
20
-151.4705319999999915
11
107.9917099999999976
21
-151.4136409999999842
0
LINE
8
BLACK
6
CONTINUOUS
10
107.9917099999999976
20
-151.4136409999999842
11
107.8201799999999935
21
-151.3169049999999913
0
LINE
8
BLACK
6
CONTINUOUS
10
107.8201799999999935
20
-151.3169049999999913
11
107.639679000000001
21
-151.2381699999999967
0
LINE
8
BLACK
6
CONTINUOUS
10
107.639679000000001
20
-151.2381699999999967
11
107.4520879999999892
21
-151.1782550000000072
0
LINE
8
BLACK
6
CONTINUOUS
10
107.4520879999999892
20
-151.1782550000000072
11
107.2593639999999908
21
-151.137787000000003
0
LINE
8
BLACK
6
CONTINUOUS
10
107.2593639999999908
20
-151.137787000000003
11
107.1614359999999948
21
-151.1275279999999839
0
LINE
8
BLACK
6
CONTINUOUS
10
107.1614359999999948
20
-151.1275279999999839
11
107.1571789999999993
21
-151.125631999999996
0
LINE
8
BLACK
6
CONTINUOUS
10
107.1571789999999993
20
-151.125631999999996
11
90.8188699999999898
21
-149.4098539999999957
0
LINE
8
BLACK
6
CONTINUOUS
10
90.8188699999999898
20
-149.4098539999999957
11
90.8188689999999923
21
-149.4098549999999932
0
LINE
8
BLACK
6
CONTINUOUS
10
90.8188689999999923
20
-149.4098549999999932
11
90.8188689999999923
21
-149.4098539999999957
0
LINE
8
BLACK
6
CONTINUOUS
10
90.8188689999999923
20
-149.4098539999999957
11
90.8188629999999932
21
-149.4098539999999957
0
LINE
8
BLACK
6
CONTINUOUS
10
90.8188629999999932
20
-149.4098539999999957
11
90.8188459999999935
21
-149.4098500000000058
0
LINE
8
BLACK
6
CONTINUOUS
10
90.8188459999999935
20
-149.4098500000000058
11
90.4467389999999938
21
-149.3532879999999921
0
LINE
8
BLACK
6
CONTINUOUS
10
90.4467389999999938
20
-149.3532879999999921
11
90.0814170000000018
21
-149.2626249999999857
0
LINE
8
BLACK
6
CONTINUOUS
10
90.0814170000000018
20
-149.2626249999999857
11
89.7260189999999938
21
-149.1386379999999861
0
LINE
8
BLACK
6
CONTINUOUS
10
89.7260189999999938
20
-149.1386379999999861
11
89.3835789999999974
21
-148.9823859999999911
0
LINE
8
BLACK
6
CONTINUOUS
10
89.3835789999999974
20
-148.9823859999999911
11
89.0570189999999968
21
-148.7951999999999941
0
LINE
8
BLACK
6
CONTINUOUS
10
89.0570189999999968
20
-148.7951999999999941
11
88.7491239999999948
21
-148.5786799999999914
0
LINE
8
BLACK
6
CONTINUOUS
10
88.7491239999999948
20
-148.5786799999999914
11
88.4625229999999902
21
-148.3346719999999834
0
LINE
8
BLACK
6
CONTINUOUS
10
88.4625229999999902
20
-148.3346719999999834
11
88.1996599999999944
21
-148.0652589999999975
0
LINE
8
BLACK
6
CONTINUOUS
10
88.1996599999999944
20
-148.0652589999999975
11
87.9627799999999951
21
-147.7727390000000014
0
LINE
8
BLACK
6
CONTINUOUS
10
87.9627799999999951
20
-147.7727390000000014
11
87.753902999999994
21
-147.4596080000000029
0
LINE
8
BLACK
6
CONTINUOUS
10
87.753902999999994
20
-147.4596080000000029
11
87.5748119999999943
21
-147.1285399999999868
0
LINE
8
BLACK
6
CONTINUOUS
10
87.5748119999999943
20
-147.1285399999999868
11
87.4270349999999894
21
-146.7823579999999879
0
LINE
8
BLACK
6
CONTINUOUS
10
87.4270349999999894
20
-146.7823579999999879
11
87.3118319999999954
21
-146.4240159999999946
0
LINE
8
BLACK
6
CONTINUOUS
10
87.3118319999999954
20
-146.4240159999999946
11
87.2301879999999983
21
-146.056572999999986
0
LINE
8
BLACK
6
CONTINUOUS
10
87.2301879999999983
20
-146.056572999999986
11
87.1827979999999911
21
-145.683164000000005
0
LINE
8
BLACK
6
CONTINUOUS
10
87.1827979999999911
20
-145.683164000000005
11
87.1700670000000031
21
-145.3069749999999942
0
LINE
8
BLACK
6
CONTINUOUS
10
87.1700670000000031
20
-145.3069749999999942
11
87.1921040000000005
21
-144.9312170000000037
0
LINE
8
BLACK
6
CONTINUOUS
10
87.1921040000000005
20
-144.9312170000000037
11
87.1921419999999898
21
-144.9312209999999936
0
LINE
8
BLACK
6
CONTINUOUS
10
87.1921419999999898
20
-144.9312209999999936
11
87.1940379999999919
21
-144.9269610000000057
0
LINE
8
BLACK
6
CONTINUOUS
10
87.1940379999999919
20
-144.9269610000000057
11
92.5230799999999931
21
-94.2106119999999976
0
LINE
8
BLACK
6
CONTINUOUS
10
92.5230799999999931
20
-94.2106119999999976
11
92.5231249999999932
21
-94.2103899999999896
0
LINE
8
BLACK
6
CONTINUOUS
10
92.5231249999999932
20
-94.2103899999999896
11
92.5796890000000019
21
-93.8384980000000013
0
LINE
8
BLACK
6
CONTINUOUS
10
92.5796890000000019
20
-93.8384980000000013
11
92.6703779999999995
21
-93.4731929999999949
0
LINE
8
BLACK
6
CONTINUOUS
10
92.6703779999999995
20
-93.4731929999999949
11
92.7943859999999887
21
-93.1178149999999931
0
LINE
8
BLACK
6
CONTINUOUS
10
92.7943859999999887
20
-93.1178149999999931
11
92.9506540000000001
21
-92.7753939999999915
0
LINE
8
BLACK
6
CONTINUOUS
10
92.9506540000000001
20
-92.7753939999999915
11
93.1378490000000028
21
-92.4488529999999997
0
LINE
8
BLACK
6
CONTINUOUS
10
93.1378490000000028
20
-92.4488529999999997
11
93.3543739999999929
21
-92.1409749999999974
0
LINE
8
BLACK
6
CONTINUOUS
10
93.3543739999999929
20
-92.1409749999999974
11
93.5983820000000009
21
-91.8543889999999976
0
LINE
8
BLACK
6
CONTINUOUS
10
93.5983820000000009
20
-91.8543889999999976
11
93.8677919999999943
21
-91.5915389999999974
0
LINE
8
BLACK
6
CONTINUOUS
10
93.8677919999999943
20
-91.5915389999999974
11
94.1603039999999964
21
-91.3546679999999895
0
LINE
8
BLACK
6
CONTINUOUS
10
94.1603039999999964
20
-91.3546679999999895
11
94.4734239999999943
21
-91.14579599999999
0
LINE
8
BLACK
6
CONTINUOUS
10
94.4734239999999943
20
-91.14579599999999
11
94.8044799999999981
21
-90.9667049999999904
0
LINE
8
BLACK
6
CONTINUOUS
10
94.8044799999999981
20
-90.9667049999999904
11
95.1506479999999897
21
-90.8189229999999981
0
LINE
8
BLACK
6
CONTINUOUS
10
95.1506479999999897
20
-90.8189229999999981
11
95.5089739999999949
21
-90.7037119999999959
0
LINE
8
BLACK
6
CONTINUOUS
10
95.5089739999999949
20
-90.7037119999999959
11
95.8764019999999988
21
-90.622052999999994
0
LINE
8
BLACK
6
CONTINUOUS
10
95.8764019999999988
20
-90.622052999999994
11
96.2497970000000009
21
-90.5746429999999947
0
LINE
8
BLACK
6
CONTINUOUS
10
96.2497970000000009
20
-90.5746429999999947
11
96.6259739999999994
21
-90.5618869999999987
0
LINE
8
BLACK
6
CONTINUOUS
10
96.6259739999999994
20
-90.5618869999999987
11
97.0017229999999984
21
-90.5838940000000008
0
LINE
8
BLACK
6
CONTINUOUS
10
97.0017229999999984
20
-90.5838940000000008
11
97.0059779999999989
21
-90.5857879999999938
0
LINE
8
BLACK
6
CONTINUOUS
10
97.0059779999999989
20
-90.5857879999999938
11
112.3127709999999979
21
-92.1931469999999962
0
LINE
8
BLACK
6
CONTINUOUS
10
112.3127709999999979
20
-92.1931469999999962
11
112.3127719999999954
21
-92.1931469999999962
0
LINE
8
BLACK
6
CONTINUOUS
10
112.3127719999999954
20
-92.1931469999999962
11
112.3127749999999878
21
-92.1931189999999958
0
LINE
8
BLACK
6
CONTINUOUS
10
112.3127749999999878
20
-92.1931189999999958
11
112.4249140000000011
21
-92.2048679999999905
0
LINE
8
BLACK
6
CONTINUOUS
10
112.4249140000000011
20
-92.2048679999999905
11
112.6504029999999972
21
-92.2020969999999949
0
LINE
8
BLACK
6
CONTINUOUS
10
112.6504029999999972
20
-92.2020969999999949
11
112.8740260000000006
21
-92.173019999999994
0
LINE
8
BLACK
6
CONTINUOUS
10
112.8740260000000006
20
-92.173019999999994
11
113.092725999999999
21
-92.1180349999999919
0
LINE
8
BLACK
6
CONTINUOUS
10
113.092725999999999
20
-92.1180349999999919
11
113.3035110000000003
21
-92.0378949999999918
0
LINE
8
BLACK
6
CONTINUOUS
10
113.3035110000000003
20
-92.0378949999999918
11
113.5034989999999908
21
-91.9336940000000027
0
LINE
8
BLACK
6
CONTINUOUS
10
113.5034989999999908
20
-91.9336940000000027
11
113.6899549999999977
21
-91.8068590000000029
0
LINE
8
BLACK
6
CONTINUOUS
10
113.6899549999999977
20
-91.8068590000000029
11
113.7751659999999987
21
-91.7330199999999962
0
LINE
8
BLACK
6
CONTINUOUS
10
113.7751659999999987
20
-91.7330199999999962
11
113.7794409999999914
21
-91.7312110000000018
0
LINE
8
BLACK
6
CONTINUOUS
10
113.7794409999999914
20
-91.7312110000000018
11
116.8111649999999884
21
-89.1002739999999989
0
LINE
8
BLACK
6
CONTINUOUS
10
116.8111649999999884
20
-89.1002739999999989
11
116.8111789999999957
21
-89.1002639999999957
0
LINE
8
BLACK
6
CONTINUOUS
10
116.8111789999999957
20
-89.1002639999999957
11
117.1007779999999912
21
-88.8712599999999924
0
LINE
8
BLACK
6
CONTINUOUS
10
117.1007779999999912
20
-88.8712599999999924
11
117.4099319999999977
21
-88.6693989999999985
0
LINE
8
BLACK
6
CONTINUOUS
10
117.4099319999999977
20
-88.6693989999999985
11
117.7360879999999952
21
-88.49635099999999
0
LINE
8
BLACK
6
CONTINUOUS
10
117.7360879999999952
20
-88.49635099999999
11
118.0765689999999921
21
-88.3535349999999937
0
LINE
8
BLACK
6
CONTINUOUS
10
118.0765689999999921
20
-88.3535349999999937
11
118.4285789999999992
21
-88.2421229999999923
0
LINE
8
BLACK
6
CONTINUOUS
10
118.4285789999999992
20
-88.2421229999999923
11
118.7892289999999917
21
-88.1630320000000012
0
LINE
8
BLACK
6
CONTINUOUS
10
118.7892289999999917
20
-88.1630320000000012
11
119.1555569999999875
21
-88.1169099999999901
0
LINE
8
BLACK
6
CONTINUOUS
10
119.1555569999999875
20
-88.1169099999999901
11
119.5245559999999898
21
-88.1041349999999994
0
LINE
8
BLACK
6
CONTINUOUS
10
119.5245559999999898
20
-88.1041349999999994
11
119.8931970000000007
21
-88.124812999999989
0
LINE
8
BLACK
6
CONTINUOUS
10
119.8931970000000007
20
-88.124812999999989
11
120.2584529999999887
21
-88.1787729999999925
0
LINE
8
BLACK
6
CONTINUOUS
10
120.2584529999999887
20
-88.1787729999999925
11
120.2584529999999887
21
-88.17877399999999
0
LINE
8
BLACK
6
CONTINUOUS
10
120.2584529999999887
20
-88.17877399999999
11
120.2625269999999915
21
-88.1810320000000019
0
LINE
8
BLACK
6
CONTINUOUS
10
120.2625269999999915
20
-88.1810320000000019
11
135.944942999999995
21
-91.2279279999999915
0
LINE
8
BLACK
6
CONTINUOUS
10
135.944942999999995
20
-91.2279279999999915
11
135.9450109999999938
21
-91.2279479999999978
0
LINE
8
BLACK
6
CONTINUOUS
10
135.9450109999999938
20
-91.2279479999999978
11
136.0473099999999818
21
-91.247833
0
LINE
8
BLACK
6
CONTINUOUS
10
136.0473099999999818
20
-91.247833
11
136.2551579999999944
21
-91.265270000000001
0
LINE
8
BLACK
6
CONTINUOUS
10
136.2551579999999944
20
-91.265270000000001
11
136.4636739999999975
21
-91.2601549999999975
0
LINE
8
BLACK
6
CONTINUOUS
10
136.4636739999999975
20
-91.2601549999999975
11
136.6704169999999863
21
-91.2325479999999942
0
LINE
8
BLACK
6
CONTINUOUS
10
136.6704169999999863
20
-91.2325479999999942
11
136.8729689999999835
21
-91.1827710000000025
0
LINE
8
BLACK
6
CONTINUOUS
10
136.8729689999999835
20
-91.1827710000000025
11
137.0689590000000067
21
-91.1114060000000023
0
LINE
8
BLACK
6
CONTINUOUS
10
137.0689590000000067
20
-91.1114060000000023
11
137.1625239999999906
21
-91.0653429999999986
0
LINE
8
BLACK
6
CONTINUOUS
10
137.1625239999999906
20
-91.0653429999999986
11
137.1625239999999906
21
-91.0653439999999961
0
LINE
8
BLACK
6
CONTINUOUS
10
137.1625239999999906
20
-91.0653439999999961
11
137.167131999999981
21
-91.0646789999999982
0
LINE
8
BLACK
6
CONTINUOUS
10
137.167131999999981
20
-91.0646789999999982
11
150.2219609999999932
21
-84.6360179999999929
0
LINE
8
BLACK
6
CONTINUOUS
10
150.2219609999999932
20
-84.6360179999999929
11
150.2219699999999989
21
-84.636014000000003
0
LINE
8
BLACK
6
CONTINUOUS
10
150.2219699999999989
20
-84.636014000000003
11
150.5621209999999905
21
-84.4873949999999923
0
LINE
8
BLACK
6
CONTINUOUS
10
150.5621209999999905
20
-84.4873949999999923
11
150.9143969999999797
21
-84.3703440000000029
0
LINE
8
BLACK
6
CONTINUOUS
10
150.9143969999999797
20
-84.3703440000000029
11
151.2758629999999869
21
-84.2858370000000008
0
LINE
8
BLACK
6
CONTINUOUS
10
151.2758629999999869
20
-84.2858370000000008
11
151.6435189999999977
21
-84.2345770000000016
0
LINE
8
BLACK
6
CONTINUOUS
10
151.6435189999999977
20
-84.2345770000000016
11
152.0143149999999821
21
-84.2169870000000031
0
LINE
8
BLACK
6
CONTINUOUS
10
152.0143149999999821
20
-84.2169870000000031
11
152.3851729999999804
21
-84.2332139999999896
0
LINE
8
BLACK
6
CONTINUOUS
10
321.093703000000005
20
-84.3985749999999939
11
320.7415919999999687
21
-84.4627959999999973
0
LINE
8
BLACK
6
CONTINUOUS
10
320.7415919999999687
20
-84.4627959999999973
11
320.3967859999999632
21
-84.5587919999999968
0
LINE
8
BLACK
6
CONTINUOUS
10
320.3967859999999632
20
-84.5587919999999968
11
320.0621469999999817
21
-84.6857669999999985
0
LINE
8
BLACK
6
CONTINUOUS
10
320.0621469999999817
20
-84.6857669999999985
11
319.9012960000000021
21
-84.7642120000000006
0
LINE
8
BLACK
6
CONTINUOUS
10
319.9012960000000021
20
-84.7642120000000006
11
319.8966810000000009
21
-84.7648599999999988
0
LINE
8
BLACK
6
CONTINUOUS
10
319.8966810000000009
20
-84.7648599999999988
11
305.9708650000000034
21
-91.5585489999999993
0
LINE
8
BLACK
6
CONTINUOUS
10
305.9708650000000034
20
-91.5585489999999993
11
305.9708509999999819
21
-91.5585629999999924
0
LINE
8
BLACK
6
CONTINUOUS
10
305.9708509999999819
20
-91.5585629999999924
11
305.755079999999964
21
-91.6491419999999977
0
LINE
8
BLACK
6
CONTINUOUS
10
305.755079999999964
20
-91.6491419999999977
11
305.5304810000000089
21
-91.7148439999999994
0
LINE
8
BLACK
6
CONTINUOUS
10
305.5304810000000089
20
-91.7148439999999994
11
305.2999110000000087
21
-91.7548299999999983
0
LINE
8
BLACK
6
CONTINUOUS
10
305.2999110000000087
20
-91.7548299999999983
11
305.0663049999999998
21
-91.7685929999999956
0
LINE
8
BLACK
6
CONTINUOUS
10
305.0663049999999998
20
-91.7685929999999956
11
304.8326339999999846
21
-91.7559569999999951
0
LINE
8
BLACK
6
CONTINUOUS
10
304.8326339999999846
20
-91.7559569999999951
11
304.6018740000000093
21
-91.7170839999999998
0
LINE
8
BLACK
6
CONTINUOUS
10
304.6018740000000093
20
-91.7170839999999998
11
304.3769599999999969
21
-91.6524670000000015
0
LINE
8
BLACK
6
CONTINUOUS
10
304.3769599999999969
20
-91.6524670000000015
11
304.3769530000000145
21
-91.6524890000000028
0
LINE
8
BLACK
6
CONTINUOUS
10
304.3769530000000145
20
-91.6524890000000028
11
304.3732599999999593
21
-91.6496789999999919
0
LINE
8
BLACK
6
CONTINUOUS
10
304.3732599999999593
20
-91.6496789999999919
11
300.3219229999999698
21
-90.2360149999999948
0
LINE
8
BLACK
6
CONTINUOUS
10
300.3219229999999698
20
-90.2360149999999948
11
300.3215230000000133
21
-90.2358289999999954
0
LINE
8
BLACK
6
CONTINUOUS
10
300.3215230000000133
20
-90.2358289999999954
11
300.1593149999999923
21
-90.1792090000000002
0
LINE
8
BLACK
6
CONTINUOUS
10
300.1593149999999923
20
-90.1792090000000002
11
299.8253970000000095
21
-90.0945309999999893
0
LINE
8
BLACK
6
CONTINUOUS
10
299.8253970000000095
20
-90.0945309999999893
11
299.4853439999999978
21
-90.0394309999999933
0
LINE
8
BLACK
6
CONTINUOUS
10
299.4853439999999978
20
-90.0394309999999933
11
299.1417710000000056
21
-90.014331999999996
0
LINE
8
BLACK
6
CONTINUOUS
10
299.1417710000000056
20
-90.014331999999996
11
298.7973200000000134
21
-90.0194279999999907
0
LINE
8
BLACK
6
CONTINUOUS
10
298.7973200000000134
20
-90.0194279999999907
11
298.454640999999981
21
-90.0546779999999956
0
LINE
8
BLACK
6
CONTINUOUS
10
298.454640999999981
20
-90.0546779999999956
11
298.1163659999999709
21
-90.1198129999999935
0
LINE
8
BLACK
6
CONTINUOUS
10
298.1163659999999709
20
-90.1198129999999935
11
297.785098000000005
21
-90.2143310000000014
0
LINE
8
BLACK
6
CONTINUOUS
10
297.785098000000005
20
-90.2143310000000014
11
297.4633839999999623
21
-90.3375049999999931
0
LINE
8
BLACK
6
CONTINUOUS
10
297.4633839999999623
20
-90.3375049999999931
11
297.1536959999999681
21
-90.488388999999998
0
LINE
8
BLACK
6
CONTINUOUS
10
297.1536959999999681
20
-90.488388999999998
11
297.0060369999999921
21
-90.5770720000000011
0
LINE
8
BLACK
6
CONTINUOUS
10
297.0060369999999921
20
-90.5770720000000011
11
297.0060369999999921
21
-90.5770709999999895
0
LINE
8
BLACK
6
CONTINUOUS
10
297.0060369999999921
20
-90.5770709999999895
11
297.001468999999986
21
-90.578125
0
LINE
8
BLACK
6
CONTINUOUS
10
297.001468999999986
20
-90.578125
11
281.5770309999999768
21
-99.8477649999999954
0
LINE
8
BLACK
6
CONTINUOUS
10
281.5770309999999768
20
-99.8477649999999954
11
281.5768569999999613
21
-99.8478470000000016
0
LINE
8
BLACK
6
CONTINUOUS
10
281.5768569999999613
20
-99.8478470000000016
11
281.4260610000000042
21
-99.938445999999999
0
LINE
8
BLACK
6
CONTINUOUS
10
281.4260610000000042
20
-99.938445999999999
11
281.1416059999999675
21
-100.1461619999999897
0
LINE
8
BLACK
6
CONTINUOUS
10
281.1416059999999675
20
-100.1461619999999897
11
280.8768979999999829
21
-100.3785189999999972
0
LINE
8
BLACK
6
CONTINUOUS
10
280.8768979999999829
20
-100.3785189999999972
11
280.6340619999999717
21
-100.6336489999999912
0
LINE
8
BLACK
6
CONTINUOUS
10
280.6340619999999717
20
-100.6336489999999912
11
280.4150520000000029
21
-100.9095009999999917
0
LINE
8
BLACK
6
CONTINUOUS
10
280.4150520000000029
20
-100.9095009999999917
11
280.2216270000000122
21
-101.2038599999999917
0
LINE
8
BLACK
6
CONTINUOUS
10
280.2216270000000122
20
-101.2038599999999917
11
280.0553409999999985
21
-101.5143580000000014
0
LINE
8
BLACK
6
CONTINUOUS
10
280.0553409999999985
20
-101.5143580000000014
11
279.9175309999999968
21
-101.8385019999999912
0
LINE
8
BLACK
6
CONTINUOUS
10
279.9175309999999968
20
-101.8385019999999912
11
279.8093059999999923
21
-102.1736839999999944
0
LINE
8
BLACK
6
CONTINUOUS
10
279.8093059999999923
20
-102.1736839999999944
11
279.7315330000000131
21
-102.5172120000000007
0
LINE
8
BLACK
6
CONTINUOUS
10
279.7315330000000131
20
-102.5172120000000007
11
279.6848390000000109
21
-102.8663249999999891
0
LINE
8
BLACK
6
CONTINUOUS
10
279.6848390000000109
20
-102.8663249999999891
11
279.6695990000000052
21
-103.2182169999999957
0
LINE
8
BLACK
6
CONTINUOUS
10
279.6695990000000052
20
-103.2182169999999957
11
279.6777739999999994
21
-103.3941379999999981
0
LINE
8
BLACK
6
CONTINUOUS
10
279.6777739999999994
20
-103.3941379999999981
11
279.677773000000002
21
-103.3941389999999956
0
LINE
8
BLACK
6
CONTINUOUS
10
279.677773000000002
20
-103.3941389999999956
11
279.6765459999999734
21
-103.3986079999999959
0
LINE
8
BLACK
6
CONTINUOUS
10
279.6765459999999734
20
-103.3986079999999959
11
279.9440199999999663
21
-109.1295319999999975
0
LINE
8
BLACK
6
CONTINUOUS
10
279.9440199999999663
20
-109.1295319999999975
11
279.9440209999999638
21
-109.129532999999995
0
LINE
8
BLACK
6
CONTINUOUS
10
279.9440209999999638
20
-109.129532999999995
11
279.9400749999999789
21
-109.385830999999996
0
LINE
8
BLACK
6
CONTINUOUS
10
279.9400749999999789
20
-109.385830999999996
11
279.9045580000000086
21
-109.6396859999999975
0
LINE
8
BLACK
6
CONTINUOUS
10
279.9045580000000086
20
-109.6396859999999975
11
279.838011999999992
21
-109.8872250000000008
0
LINE
8
BLACK
6
CONTINUOUS
10
279.838011999999992
20
-109.8872250000000008
11
279.7414529999999786
21
-110.1246699999999947
0
LINE
8
BLACK
6
CONTINUOUS
10
279.7414529999999786
20
-110.1246699999999947
11
279.6163540000000012
21
-110.3483979999999889
0
LINE
8
BLACK
6
CONTINUOUS
10
279.6163540000000012
20
-110.3483979999999889
11
279.4646240000000148
21
-110.5549939999999935
0
LINE
8
BLACK
6
CONTINUOUS
10
279.4646240000000148
20
-110.5549939999999935
11
279.2885799999999676
21
-110.7413059999999945
0
LINE
8
BLACK
6
CONTINUOUS
10
279.2885799999999676
20
-110.7413059999999945
11
279.0909059999999613
21
-110.9044899999999956
0
LINE
8
BLACK
6
CONTINUOUS
10
279.0909059999999613
20
-110.9044899999999956
11
279.0908959999999865
21
-110.9044759999999883
0
LINE
8
BLACK
6
CONTINUOUS
10
279.0908959999999865
20
-110.9044759999999883
11
279.0864649999999756
21
-110.9059149999999931
0
LINE
8
BLACK
6
CONTINUOUS
10
279.0864649999999756
20
-110.9059149999999931
11
267.1454160000000115
21
-119.5833590000000015
0
LINE
8
BLACK
6
CONTINUOUS
10
267.1454160000000115
20
-119.5833590000000015
11
267.1454119999999648
21
-119.583359999999999
0
LINE
8
BLACK
6
CONTINUOUS
10
267.1454119999999648
20
-119.583359999999999
11
267.1454119999999648
21
-119.5833619999999939
0
LINE
8
BLACK
6
CONTINUOUS
10
267.1454119999999648
20
-119.5833619999999939
11
267.1454160000000115
21
-119.583367999999993
0
LINE
8
BLACK
6
CONTINUOUS
10
267.1454160000000115
20
-119.583367999999993
11
267.0054789999999798
21
-119.6849769999999893
0
LINE
8
BLACK
6
CONTINUOUS
10
267.0054789999999798
20
-119.6849769999999893
11
266.7446160000000077
21
-119.9120829999999955
0
LINE
8
BLACK
6
CONTINUOUS
10
266.7446160000000077
20
-119.9120829999999955
11
266.5047419999999647
21
-120.161254999999997
0
LINE
8
BLACK
6
CONTINUOUS
10
266.5047419999999647
20
-120.161254999999997
11
266.287715999999989
21
-120.4305609999999973
0
LINE
8
BLACK
6
CONTINUOUS
10
266.287715999999989
20
-120.4305609999999973
11
266.0952209999999809
21
-120.7179149999999908
0
LINE
8
BLACK
6
CONTINUOUS
10
266.0952209999999809
20
-120.7179149999999908
11
265.9287489999999821
21
-121.0210869999999943
0
LINE
8
BLACK
6
CONTINUOUS
10
265.9287489999999821
20
-121.0210869999999943
11
265.7895909999999731
21
-121.3377289999999959
0
LINE
8
BLACK
6
CONTINUOUS
10
265.7895909999999731
20
-121.3377289999999959
11
265.678826000000015
21
-121.6653829999999914
0
LINE
8
BLACK
6
CONTINUOUS
10
265.678826000000015
20
-121.6653829999999914
11
265.6381049999999959
21
-121.8334559999999982
0
LINE
8
BLACK
6
CONTINUOUS
10
265.6381049999999959
20
-121.8334559999999982
11
265.6381039999999985
21
-121.8334559999999982
0
LINE
8
BLACK
6
CONTINUOUS
10
265.6381039999999985
20
-121.8334559999999982
11
265.635672999999997
21
-121.8374019999999973
0
LINE
8
BLACK
6
CONTINUOUS
10
265.635672999999997
20
-121.8374019999999973
11
264.9204310000000078
21
-124.7919629999999955
0
LINE
8
BLACK
6
CONTINUOUS
10
264.9204310000000078
20
-124.7919629999999955
11
264.9203899999999976
21
-124.7920790000000011
0
LINE
8
BLACK
6
CONTINUOUS
10
264.9203899999999976
20
-124.7920790000000011
11
264.8492259999999874
21
-125.0248179999999962
0
LINE
8
BLACK
6
CONTINUOUS
10
264.8492259999999874
20
-125.0248179999999962
11
264.7512449999999831
21
-125.2477289999999925
0
LINE
8
BLACK
6
CONTINUOUS
10
264.7512449999999831
20
-125.2477289999999925
11
264.6278299999999604
21
-125.4576289999999972
0
LINE
8
BLACK
6
CONTINUOUS
10
264.6278299999999604
20
-125.4576289999999972
11
264.4806790000000092
21
-125.6516299999999973
0
LINE
8
BLACK
6
CONTINUOUS
10
264.4806790000000092
20
-125.6516299999999973
11
264.3118200000000115
21
-125.8270599999999888
0
LINE
8
BLACK
6
CONTINUOUS
10
264.3118200000000115
20
-125.8270599999999888
11
264.1235749999999598
21
-125.9815049999999985
0
LINE
8
BLACK
6
CONTINUOUS
10
264.1235749999999598
20
-125.9815049999999985
11
264.1235729999999648
21
-125.9815029999999894
0
LINE
8
BLACK
6
CONTINUOUS
10
264.1235729999999648
20
-125.9815029999999894
11
264.1191469999999981
21
-125.9829409999999967
0
LINE
8
BLACK
6
CONTINUOUS
10
264.1191469999999981
20
-125.9829409999999967
11
256.1587849999999662
21
-131.7682570000000055
0
LINE
8
BLACK
6
CONTINUOUS
10
256.1587849999999662
20
-131.7682570000000055
11
256.1586179999999899
21
-131.768353999999988
0
LINE
8
BLACK
6
CONTINUOUS
10
256.1586179999999899
20
-131.768353999999988
11
255.9766249999999843
21
-131.8865490000000023
0
LINE
8
BLACK
6
CONTINUOUS
10
255.9766249999999843
20
-131.8865490000000023
11
255.7831039999999803
21
-131.9851579999999842
0
LINE
8
BLACK
6
CONTINUOUS
10
255.7831039999999803
20
-131.9851579999999842
11
255.5803359999999884
21
-132.0629979999999932
0
LINE
8
BLACK
6
CONTINUOUS
10
255.5803359999999884
20
-132.0629979999999932
11
255.3705420000000004
21
-132.1192159999999944
0
LINE
8
BLACK
6
CONTINUOUS
10
255.3705420000000004
20
-132.1192159999999944
11
255.1560199999999838
21
-132.1531959999999799
0
LINE
8
BLACK
6
CONTINUOUS
10
255.1560199999999838
20
-132.1531959999999799
11
254.9391219999999976
21
-132.1645660000000078
0
LINE
8
BLACK
6
CONTINUOUS
10
254.9391219999999976
20
-132.1645660000000078
11
254.9391219999999976
21
-132.1645489999999938
0
LINE
8
BLACK
6
CONTINUOUS
10
254.9391219999999976
20
-132.1645489999999938
11
254.9350859999999841
21
-132.163236999999981
0
LINE
8
BLACK
6
CONTINUOUS
10
254.9350859999999841
20
-132.163236999999981
11
241.8954469999999901
21
-132.497620999999981
0
LINE
8
BLACK
6
CONTINUOUS
10
241.8954469999999901
20
-132.497620999999981
11
241.8968779999999867
21
-138.9244809999999859
0
LINE
8
BLACK
6
CONTINUOUS
10
241.8968779999999867
20
-138.9244809999999859
11
241.8954369999999869
21
-138.9391129999999919
0
LINE
8
BLACK
6
CONTINUOUS
10
241.8954369999999869
20
-138.9391129999999919
11
241.8842379999999821
21
-138.9661490000000015
0
LINE
8
BLACK
6
CONTINUOUS
10
241.8842379999999821
20
-138.9661490000000015
11
241.8635459999999853
21
-138.9868409999999983
0
LINE
8
BLACK
6
CONTINUOUS
10
241.8635459999999853
20
-138.9868409999999983
11
241.8365099999999757
21
-138.9980400000000031
0
LINE
8
BLACK
6
CONTINUOUS
10
241.8365099999999757
20
-138.9980400000000031
11
231.8218849999999804
21
-138.9994829999999979
0
LINE
8
BLACK
6
CONTINUOUS
10
231.8218849999999804
20
-138.9994829999999979
11
231.8072530000000029
21
-138.9980419999999981
0
LINE
8
BLACK
6
CONTINUOUS
10
231.8072530000000029
20
-138.9980419999999981
11
231.7802169999999933
21
-138.9868429999999933
0
LINE
8
BLACK
6
CONTINUOUS
10
231.7802169999999933
20
-138.9868429999999933
11
231.7595249999999965
21
-138.9661509999999964
0
LINE
8
BLACK
6
CONTINUOUS
10
231.7595249999999965
20
-138.9661509999999964
11
231.7483259999999916
21
-138.9391149999999868
0
LINE
8
BLACK
6
CONTINUOUS
10
231.7483259999999916
20
-138.9391149999999868
11
231.7483259999999916
21
-138.9391129999999919
0
LINE
8
BLACK
6
CONTINUOUS
10
231.7483259999999916
20
-138.9391129999999919
11
231.7468899999999792
21
-132.4961629999999957
0
LINE
8
BLACK
6
CONTINUOUS
10
231.7468899999999792
20
-132.4961629999999957
11
218.7027149999999835
21
-132.1645289999999875
0
LINE
8
BLACK
6
CONTINUOUS
10
218.7027149999999835
20
-132.1645289999999875
11
218.7016559999999856
21
-132.1643970000000081
0
LINE
8
BLACK
6
CONTINUOUS
10
218.7016559999999856
20
-132.1643970000000081
11
218.4877309999999966
21
-132.1531619999999805
0
LINE
8
BLACK
6
CONTINUOUS
10
218.4877309999999966
20
-132.1531619999999805
11
218.2732199999999807
21
-132.1191719999999918
0
LINE
8
BLACK
6
CONTINUOUS
10
218.2732199999999807
20
-132.1191719999999918
11
218.0634349999999984
21
-132.0629559999999856
0
LINE
8
BLACK
6
CONTINUOUS
10
218.0634349999999984
20
-132.0629559999999856
11
217.8606709999999964
21
-131.9851290000000006
0
LINE
8
BLACK
6
CONTINUOUS
10
217.8606709999999964
20
-131.9851290000000006
11
217.6671489999999949
21
-131.886542999999989
0
LINE
8
BLACK
6
CONTINUOUS
10
217.6671489999999949
20
-131.886542999999989
11
217.4849859999999921
21
-131.768275999999986
0
LINE
8
BLACK
6
CONTINUOUS
10
217.4849859999999921
20
-131.768275999999986
11
217.4849909999999795
21
-131.7682700000000011
0
LINE
8
BLACK
6
CONTINUOUS
10
217.4849909999999795
20
-131.7682700000000011
11
217.4822519999999884
21
-131.7645019999999931
0
LINE
8
BLACK
6
CONTINUOUS
10
217.4822519999999884
20
-131.7645019999999931
11
209.5202029999999809
21
-125.9815179999999941
0
LINE
8
BLACK
6
CONTINUOUS
10
209.5202029999999809
20
-125.9815179999999941
11
209.5202019999999834
21
-125.9815179999999941
0
LINE
8
BLACK
6
CONTINUOUS
10
209.5202019999999834
20
-125.9815179999999941
11
209.5202019999999834
21
-125.9815169999999966
0
LINE
8
BLACK
6
CONTINUOUS
10
209.5202019999999834
20
-125.9815169999999966
11
209.5201929999999777
21
-125.9815109999999976
0
LINE
8
BLACK
6
CONTINUOUS
10
209.5201929999999777
20
-125.9815109999999976
11
209.5201720000000023
21
-125.9814930000000004
0
LINE
8
BLACK
6
CONTINUOUS
10
209.5201720000000023
20
-125.9814930000000004
11
209.3319189999999992
21
-125.8270979999999923
0
LINE
8
BLACK
6
CONTINUOUS
10
209.3319189999999992
20
-125.8270979999999923
11
209.163029999999992
21
-125.6516779999999898
0
LINE
8
BLACK
6
CONTINUOUS
10
209.163029999999992
20
-125.6516779999999898
11
209.015862999999996
21
-125.4576749999999947
0
LINE
8
BLACK
6
CONTINUOUS
10
209.015862999999996
20
-125.4576749999999947
11
208.8924439999999834
21
-125.2477619999999945
0
LINE
8
BLACK
6
CONTINUOUS
10
208.8924439999999834
20
-125.2477619999999945
11
208.7944760000000031
21
-125.0248319999999893
0
LINE
8
BLACK
6
CONTINUOUS
10
208.7944760000000031
20
-125.0248319999999893
11
208.7233080000000029
21
-124.7919569999999965
0
LINE
8
BLACK
6
CONTINUOUS
10
208.7233080000000029
20
-124.7919569999999965
11
208.7233319999999992
21
-124.7919509999999974
0
LINE
8
BLACK
6
CONTINUOUS
10
208.7233319999999992
20
-124.7919509999999974
11
208.723684999999989
21
-124.7873319999999921
0
LINE
8
BLACK
6
CONTINUOUS
10
208.723684999999989
20
-124.7873319999999921
11
208.0056539999999927
21
-121.8334599999999881
0
LINE
8
BLACK
6
CONTINUOUS
10
208.0056539999999927
20
-121.8334599999999881
11
208.0056539999999927
21
-121.8334589999999906
0
LINE
8
BLACK
6
CONTINUOUS
10
208.0056539999999927
20
-121.8334589999999906
11
208.0056239999999832
21
-121.8334660000000014
0
LINE
8
BLACK
6
CONTINUOUS
10
208.0056239999999832
20
-121.8334660000000014
11
207.9648939999999868
21
-121.6653979999999962
0
LINE
8
BLACK
6
CONTINUOUS
10
207.9648939999999868
20
-121.6653979999999962
11
207.8541170000000022
21
-121.3377529999999922
0
LINE
8
BLACK
6
CONTINUOUS
10
207.8541170000000022
20
-121.3377529999999922
11
207.7149539999999774
21
-121.0211199999999963
0
LINE
8
BLACK
6
CONTINUOUS
10
207.7149539999999774
20
-121.0211199999999963
11
207.5484819999999786
21
-120.7179529999999943
0
LINE
8
BLACK
6
CONTINUOUS
10
207.5484819999999786
20
-120.7179529999999943
11
207.3559929999999838
21
-120.4306019999999933
0
LINE
8
BLACK
6
CONTINUOUS
10
207.3559929999999838
20
-120.4306019999999933
11
207.1389769999999828
21
-120.1612939999999981
0
LINE
8
BLACK
6
CONTINUOUS
10
207.1389769999999828
20
-120.1612939999999981
11
206.8991169999999897
21
-119.912115
0
LINE
8
BLACK
6
CONTINUOUS
10
206.8991169999999897
20
-119.912115
11
206.6382720000000006
21
-119.6849969999999956
0
LINE
8
BLACK
6
CONTINUOUS
10
206.6382720000000006
20
-119.6849969999999956
11
206.4983450000000005
21
-119.5833789999999937
0
LINE
8
BLACK
6
CONTINUOUS
10
206.4983450000000005
20
-119.5833789999999937
11
206.498345999999998
21
-119.5833779999999962
0
LINE
8
BLACK
6
CONTINUOUS
10
206.498345999999998
20
-119.5833779999999962
11
206.4956080000000043
21
-119.5796099999999882
0
LINE
8
BLACK
6
CONTINUOUS
10
206.4956080000000043
20
-119.5796099999999882
11
194.5528579999999863
21
-110.9044699999999892
0
LINE
8
BLACK
6
CONTINUOUS
10
194.5528579999999863
20
-110.9044699999999892
11
194.5526749999999936
21
-110.9043080000000003
0
LINE
8
BLACK
6
CONTINUOUS
10
194.5526749999999936
20
-110.9043080000000003
11
194.3552049999999838
21
-110.7412709999999976
0
LINE
8
BLACK
6
CONTINUOUS
10
194.3552049999999838
20
-110.7412709999999976
11
194.1791749999999865
21
-110.5549570000000017
0
LINE
8
BLACK
6
CONTINUOUS
10
194.1791749999999865
20
-110.5549570000000017
11
194.0274569999999983
21
-110.3483639999999895
0
LINE
8
BLACK
6
CONTINUOUS
10
194.0274569999999983
20
-110.3483639999999895
11
193.9023660000000007
21
-110.1246419999999944
0
LINE
8
BLACK
6
CONTINUOUS
10
193.9023660000000007
20
-110.1246419999999944
11
193.8058099999999797
21
-109.8872049999999945
0
LINE
8
BLACK
6
CONTINUOUS
10
193.8058099999999797
20
-109.8872049999999945
11
193.7392619999999965
21
-109.6396759999999944
0
LINE
8
BLACK
6
CONTINUOUS
10
193.7392619999999965
20
-109.6396759999999944
11
193.7037379999999871
21
-109.385830999999996
0
LINE
8
BLACK
6
CONTINUOUS
10
193.7037379999999871
20
-109.385830999999996
11
193.6997789999999782
21
-109.1295429999999982
0
LINE
8
BLACK
6
CONTINUOUS
10
193.6997789999999782
20
-109.1295429999999982
11
193.6997419999999863
21
-109.1295420000000007
0
LINE
8
BLACK
6
CONTINUOUS
10
193.6997419999999863
20
-109.1295420000000007
11
193.7013809999999978
21
-109.1251919999999984
0
LINE
8
BLACK
6
CONTINUOUS
10
193.7013809999999978
20
-109.1251919999999984
11
193.9659309999999834
21
-103.3950289999999939
0
LINE
8
BLACK
6
CONTINUOUS
10
193.9659309999999834
20
-103.3950289999999939
11
193.9660279999999943
21
-103.394362000000001
0
LINE
8
BLACK
6
CONTINUOUS
10
193.9660279999999943
20
-103.394362000000001
11
193.9659669999999778
21
-103.3941399999999931
0
LINE
8
BLACK
6
CONTINUOUS
10
193.9659669999999778
20
-103.3941399999999931
11
193.9660039999999981
21
-103.3941420000000022
0
LINE
8
BLACK
6
CONTINUOUS
10
193.9660039999999981
20
-103.3941420000000022
11
193.9741839999999797
21
-103.2182200000000023
0
LINE
8
BLACK
6
CONTINUOUS
10
193.9741839999999797
20
-103.2182200000000023
11
193.9589519999999823
21
-102.8663239999999917
0
LINE
8
BLACK
6
CONTINUOUS
10
193.9589519999999823
20
-102.8663239999999917
11
193.9122639999999933
21
-102.5172069999999991
0
LINE
8
BLACK
6
CONTINUOUS
10
193.9122639999999933
20
-102.5172069999999991
11
193.8344939999999781
21
-102.1736749999999887
0
LINE
8
BLACK
6
CONTINUOUS
10
193.8344939999999781
20
-102.1736749999999887
11
193.7262690000000021
21
-101.8384889999999956
0
LINE
8
BLACK
6
CONTINUOUS
10
193.7262690000000021
20
-101.8384889999999956
11
193.5884590000000003
21
-101.5143419999999992
0
LINE
8
BLACK
6
CONTINUOUS
10
193.5884590000000003
20
-101.5143419999999992
11
193.4221699999999942
21
-101.2038419999999945
0
LINE
8
BLACK
6
CONTINUOUS
10
193.4221699999999942
20
-101.2038419999999945
11
193.2287389999999903
21
-100.9094829999999945
0
LINE
8
BLACK
6
CONTINUOUS
10
193.2287389999999903
20
-100.9094829999999945
11
193.0097219999999822
21
-100.6336319999999915
0
LINE
8
BLACK
6
CONTINUOUS
10
193.0097219999999822
20
-100.6336319999999915
11
192.7668789999999888
21
-100.3785049999999899
0
LINE
8
BLACK
6
CONTINUOUS
10
192.7668789999999888
20
-100.3785049999999899
11
192.502161000000001
21
-100.1461539999999957
0
LINE
8
BLACK
6
CONTINUOUS
10
192.502161000000001
20
-100.1461539999999957
11
192.2176969999999869
21
-99.938445999999999
0
LINE
8
BLACK
6
CONTINUOUS
10
192.2176969999999869
20
-99.938445999999999
11
192.0667320000000018
21
-99.8477539999999948
0
LINE
8
BLACK
6
CONTINUOUS
10
192.0667320000000018
20
-99.8477539999999948
11
192.0667320000000018
21
-99.8477529999999973
0
LINE
8
BLACK
6
CONTINUOUS
10
192.0667320000000018
20
-99.8477529999999973
11
192.0636749999999893
21
-99.8442369999999926
0
LINE
8
BLACK
6
CONTINUOUS
10
192.0636749999999893
20
-99.8442369999999926
11
176.6377190000000041
21
-90.577069999999992
0
LINE
8
BLACK
6
CONTINUOUS
10
176.6377190000000041
20
-90.577069999999992
11
176.6377179999999782
21
-90.5770689999999945
0
LINE
8
BLACK
6
CONTINUOUS
10
176.6377179999999782
20
-90.5770689999999945
11
176.6377139999999883
21
-90.5770749999999936
0
LINE
8
BLACK
6
CONTINUOUS
10
176.6377139999999883
20
-90.5770749999999936
11
176.4900549999999839
21
-90.4883939999999996
0
LINE
8
BLACK
6
CONTINUOUS
10
176.4900549999999839
20
-90.4883939999999996
11
176.1803689999999847
21
-90.3375149999999962
0
LINE
8
BLACK
6
CONTINUOUS
10
176.1803689999999847
20
-90.3375149999999962
11
175.8586549999999988
21
-90.2143449999999945
0
LINE
8
BLACK
6
CONTINUOUS
10
175.8586549999999988
20
-90.2143449999999945
11
175.5273889999999994
21
-90.1198309999999907
0
LINE
8
BLACK
6
CONTINUOUS
10
175.5273889999999994
20
-90.1198309999999907
11
175.1891169999999818
21
-90.0546999999999969
0
LINE
8
BLACK
6
CONTINUOUS
10
175.1891169999999818
20
-90.0546999999999969
11
174.8464390000000037
21
-90.0194529999999986
0
LINE
8
BLACK
6
CONTINUOUS
10
174.8464390000000037
20
-90.0194529999999986
11
174.5019910000000039
21
-90.0143609999999939
0
LINE
8
BLACK
6
CONTINUOUS
10
174.5019910000000039
20
-90.0143609999999939
11
174.1584220000000016
21
-90.0394629999999978
0
LINE
8
BLACK
6
CONTINUOUS
10
174.1584220000000016
20
-90.0394629999999978
11
173.8183719999999823
21
-90.0945660000000004
0
LINE
8
BLACK
6
CONTINUOUS
10
173.8183719999999823
20
-90.0945660000000004
11
173.4844559999999944
21
-90.179245999999992
0
LINE
8
BLACK
6
CONTINUOUS
10
173.4844559999999944
20
-90.179245999999992
11
173.3218369999999879
21
-90.2360129999999998
0
LINE
8
BLACK
6
CONTINUOUS
10
173.3218369999999879
20
-90.2360129999999998
11
173.3171480000000031
21
-90.2361149999999981
0
LINE
8
BLACK
6
CONTINUOUS
10
173.3171480000000031
20
-90.2361149999999981
11
169.266807
21
-91.6524959999999993
0
LINE
8
BLACK
6
CONTINUOUS
10
169.266807
20
-91.6524959999999993
11
169.2666309999999896
21
-91.6525379999999927
0
LINE
8
BLACK
6
CONTINUOUS
10
169.2666309999999896
20
-91.6525379999999927
11
169.0418929999999875
21
-91.7170979999999929
0
LINE
8
BLACK
6
CONTINUOUS
10
169.0418929999999875
20
-91.7170979999999929
11
168.8111299999999915
21
-91.7559660000000008
0
LINE
8
BLACK
6
CONTINUOUS
10
168.8111299999999915
20
-91.7559660000000008
11
168.5774569999999812
21
-91.7685969999999998
0
LINE
8
BLACK
6
CONTINUOUS
10
168.5774569999999812
20
-91.7685969999999998
11
168.3438490000000058
21
-91.7548299999999983
0
LINE
8
BLACK
6
CONTINUOUS
10
168.3438490000000058
20
-91.7548299999999983
11
168.1132769999999823
21
-91.7148409999999927
0
LINE
8
BLACK
6
CONTINUOUS
10
168.1132769999999823
20
-91.7148409999999927
11
167.8886760000000038
21
-91.6491369999999961
0
LINE
8
BLACK
6
CONTINUOUS
10
167.8886760000000038
20
-91.6491369999999961
11
167.6729039999999884
21
-91.5585569999999933
0
LINE
8
BLACK
6
CONTINUOUS
10
167.6729039999999884
20
-91.5585569999999933
11
167.6729019999999934
21
-91.5585609999999974
0
LINE
8
BLACK
6
CONTINUOUS
10
167.6729019999999934
20
-91.5585609999999974
11
167.6695540000000051
21
-91.5553269999999912
0
LINE
8
BLACK
6
CONTINUOUS
10
167.6695540000000051
20
-91.5553269999999912
11
153.742449999999991
21
-84.7642299999999977
0
LINE
8
BLACK
6
CONTINUOUS
10
153.742449999999991
20
-84.7642299999999977
11
153.742447999999996
21
-84.7642290000000003
0
LINE
8
BLACK
6
CONTINUOUS
10
153.742447999999996
20
-84.7642290000000003
11
153.7424379999999928
21
-84.7642489999999924
0
LINE
8
BLACK
6
CONTINUOUS
10
153.7424379999999928
20
-84.7642489999999924
11
153.5815900000000056
21
-84.6857990000000029
0
LINE
8
BLACK
6
CONTINUOUS
10
153.5815900000000056
20
-84.6857990000000029
11
153.2469549999999856
21
-84.5588139999999981
0
LINE
8
BLACK
6
CONTINUOUS
10
153.2469549999999856
20
-84.5588139999999981
11
152.902152000000001
21
-84.4628089999999929
0
LINE
8
BLACK
6
CONTINUOUS
10
152.902152000000001
20
-84.4628089999999929
11
152.5500429999999881
21
-84.398580999999993
0
LINE
8
BLACK
6
CONTINUOUS
10
152.5500429999999881
20
-84.398580999999993
11
152.1935499999999877
21
-84.3666640000000001
0
LINE
8
BLACK
6
CONTINUOUS
10
152.1935499999999877
20
-84.3666640000000001
11
151.8356320000000039
21
-84.3673209999999898
0
LINE
8
BLACK
6
CONTINUOUS
10
151.8356320000000039
20
-84.3673209999999898
11
151.4792579999999873
21
-84.4005480000000006
0
LINE
8
BLACK
6
CONTINUOUS
10
151.4792579999999873
20
-84.4005480000000006
11
151.1273879999999963
21
-84.4660689999999903
0
LINE
8
BLACK
6
CONTINUOUS
10
151.1273879999999963
20
-84.4660689999999903
11
150.7829399999999964
21
-84.5633399999999966
0
LINE
8
BLACK
6
CONTINUOUS
10
150.7829399999999964
20
-84.5633399999999966
11
150.4487729999999885
21
-84.691552999999999
0
LINE
8
BLACK
6
CONTINUOUS
10
150.4487729999999885
20
-84.691552999999999
11
150.2882149999999797
21
-84.7705940000000027
0
LINE
8
BLACK
6
CONTINUOUS
10
150.2882149999999797
20
-84.7705940000000027
11
150.2882139999999822
21
-84.770592999999991
0
LINE
8
BLACK
6
CONTINUOUS
10
150.2882139999999822
20
-84.770592999999991
11
150.2836059999999918
21
-84.7712569999999914
0
LINE
8
BLACK
6
CONTINUOUS
10
150.2836059999999918
20
-84.7712569999999914
11
137.2287739999999872
21
-91.1999209999999891
0
LINE
8
BLACK
6
CONTINUOUS
10
137.2287739999999872
20
-91.1999209999999891
11
137.2287599999999941
21
-91.1999259999999907
0
LINE
8
BLACK
6
CONTINUOUS
10
137.2287599999999941
20
-91.1999259999999907
11
137.0222839999999849
21
-91.288029999999992
0
LINE
8
BLACK
6
CONTINUOUS
10
137.0222839999999849
20
-91.288029999999992
11
136.8074890000000039
21
-91.3533199999999965
0
LINE
8
BLACK
6
CONTINUOUS
10
136.8074890000000039
20
-91.3533199999999965
11
136.5868989999999883
21
-91.3950260000000014
0
LINE
8
BLACK
6
CONTINUOUS
10
136.5868989999999883
20
-91.3950260000000014
11
136.3630939999999896
21
-91.4126619999999974
0
LINE
8
BLACK
6
CONTINUOUS
10
136.3630939999999896
20
-91.4126619999999974
11
136.1386939999999868
21
-91.4060209999999955
0
LINE
8
BLACK
6
CONTINUOUS
10
136.1386939999999868
20
-91.4060209999999955
11
135.9163250000000005
21
-91.3751800000000003
0
LINE
8
BLACK
6
CONTINUOUS
10
135.9163250000000005
20
-91.3751800000000003
11
135.916325999999998
21
-91.3751729999999895
0
LINE
8
BLACK
6
CONTINUOUS
10
135.916325999999998
20
-91.3751729999999895
11
135.9122500000000002
21
-91.3729139999999944
0
LINE
8
BLACK
6
CONTINUOUS
10
135.9122500000000002
20
-91.3729139999999944
11
120.2298309999999901
21
-88.3260179999999906
0
LINE
8
BLACK
6
CONTINUOUS
10
120.2298309999999901
20
-88.3260179999999906
11
120.2298210000000012
21
-88.3260149999999982
0
LINE
8
BLACK
6
CONTINUOUS
10
120.2298210000000012
20
-88.3260149999999982
11
120.0551099999999991
21
-88.2920149999999921
0
LINE
8
BLACK
6
CONTINUOUS
10
120.0551099999999991
20
-88.2920149999999921
11
119.7009389999999911
21
-88.2559949999999986
0
LINE
8
BLACK
6
CONTINUOUS
10
119.7009389999999911
20
-88.2559949999999986
11
119.3449609999999979
21
-88.2521809999999931
0
LINE
8
BLACK
6
CONTINUOUS
10
119.3449609999999979
20
-88.2521809999999931
11
118.9900990000000007
21
-88.2806049999999942
0
LINE
8
BLACK
6
CONTINUOUS
10
118.9900990000000007
20
-88.2806049999999942
11
118.6392669999999896
21
-88.341031000000001
0
LINE
8
BLACK
6
CONTINUOUS
10
118.6392669999999896
20
-88.341031000000001
11
118.2953449999999975
21
-88.4329659999999933
0
LINE
8
BLACK
6
CONTINUOUS
10
118.2953449999999975
20
-88.4329659999999933
11
117.9611559999999884
21
-88.5556539999999899
0
LINE
8
BLACK
6
CONTINUOUS
10
117.9611559999999884
20
-88.5556539999999899
11
117.639443
21
-88.7080869999999919
0
LINE
8
BLACK
6
CONTINUOUS
10
117.639443
20
-88.7080869999999919
11
117.332848999999996
21
-88.8890140000000031
0
LINE
8
BLACK
6
CONTINUOUS
10
117.332848999999996
20
-88.8890140000000031
11
117.0438909999999879
21
-89.0969499999999925
0
LINE
8
BLACK
6
CONTINUOUS
10
117.0438909999999879
20
-89.0969499999999925
11
116.9094399999999894
21
-89.2135979999999904
0
LINE
8
BLACK
6
CONTINUOUS
10
116.9094399999999894
20
-89.2135979999999904
11
116.9094389999999919
21
-89.2135969999999929
0
LINE
8
BLACK
6
CONTINUOUS
10
116.9094389999999919
20
-89.2135969999999929
11
116.9051649999999967
21
-89.2154039999999924
0
LINE
8
BLACK
6
CONTINUOUS
10
116.9051649999999967
20
-89.2154039999999924
11
113.8734379999999931
21
-91.8463459999999969
0
LINE
8
BLACK
6
CONTINUOUS
10
113.8734379999999931
20
-91.8463459999999969
11
113.8734359999999981
21
-91.8463459999999969
0
LINE
8
BLACK
6
CONTINUOUS
10
113.8734359999999981
20
-91.8463459999999969
11
113.8734359999999981
21
-91.8463479999999919
0
LINE
8
BLACK
6
CONTINUOUS
10
113.8734359999999981
20
-91.8463479999999919
11
113.8734350000000006
21
-91.8463469999999944
0
LINE
8
BLACK
6
CONTINUOUS
10
113.8734350000000006
20
-91.8463469999999944
11
113.8734159999999918
21
-91.8463610000000017
0
LINE
8
BLACK
6
CONTINUOUS
10
113.8734159999999918
20
-91.8463610000000017
11
113.6811149999999913
21
-91.994332
0
LINE
8
BLACK
6
CONTINUOUS
10
113.6811149999999913
20
-91.994332
11
113.4728329999999943
21
-92.1188539999999989
0
LINE
8
BLACK
6
CONTINUOUS
10
113.4728329999999943
20
-92.1188539999999989
11
113.2514389999999906
21
-92.21820799999999
0
LINE
8
BLACK
6
CONTINUOUS
10
113.2514389999999906
20
-92.21820799999999
11
113.0199590000000001
21
-92.2910359999999912
0
LINE
8
BLACK
6
CONTINUOUS
10
113.0199590000000001
20
-92.2910359999999912
11
112.7815599999999989
21
-92.3363429999999994
0
LINE
8
BLACK
6
CONTINUOUS
10
112.7815599999999989
20
-92.3363429999999994
11
112.5395019999999988
21
-92.3535079999999908
0
LINE
8
BLACK
6
CONTINUOUS
10
112.5395019999999988
20
-92.3535079999999908
11
112.2970949999999988
21
-92.3422970000000021
0
LINE
8
BLACK
6
CONTINUOUS
10
112.2970949999999988
20
-92.3422970000000021
11
112.2970919999999921
21
-92.3423250000000024
0
LINE
8
BLACK
6
CONTINUOUS
10
112.2970919999999921
20
-92.3423250000000024
11
112.2928349999999966
21
-92.3404299999999978
0
LINE
8
BLACK
6
CONTINUOUS
10
112.2928349999999966
20
-92.3404299999999978
11
96.9860469999999992
21
-90.7330719999999928
0
LINE
8
BLACK
6
CONTINUOUS
10
96.9860469999999992
20
-90.7330719999999928
11
96.9860469999999992
21
-90.7330729999999903
0
LINE
8
BLACK
6
CONTINUOUS
10
96.9860469999999992
20
-90.7330729999999903
11
96.805577999999997
21
-90.714107999999996
0
LINE
8
BLACK
6
CONTINUOUS
10
96.805577999999997
20
-90.714107999999996
11
96.4426799999999957
21
-90.7096429999999998
0
LINE
8
BLACK
6
CONTINUOUS
10
96.4426799999999957
20
-90.7096429999999998
11
96.0809179999999969
21
-90.7386800000000022
0
LINE
8
BLACK
6
CONTINUOUS
10
96.0809179999999969
20
-90.7386800000000022
11
95.7233779999999967
21
-90.8009720000000016
0
LINE
8
BLACK
6
CONTINUOUS
10
95.7233779999999967
20
-90.8009720000000016
11
95.3731109999999944
21
-90.895986999999991
0
LINE
8
BLACK
6
CONTINUOUS
10
95.3731109999999944
20
-90.895986999999991
11
95.0331039999999945
21
-91.0229140000000001
0
LINE
8
BLACK
6
CONTINUOUS
10
95.0331039999999945
20
-91.0229140000000001
11
94.7062589999999886
21
-91.1806709999999896
0
LINE
8
BLACK
6
CONTINUOUS
10
94.7062589999999886
20
-91.1806709999999896
11
94.3953640000000007
21
-91.3679109999999923
0
LINE
8
BLACK
6
CONTINUOUS
10
94.3953640000000007
20
-91.3679109999999923
11
94.1030709999999999
21
-91.5830380000000019
0
LINE
8
BLACK
6
CONTINUOUS
10
94.1030709999999999
20
-91.5830380000000019
11
93.8318730000000016
21
-91.8242159999999927
0
LINE
8
BLACK
6
CONTINUOUS
10
93.8318730000000016
20
-91.8242159999999927
11
93.5840850000000017
21
-92.0893870000000021
0
LINE
8
BLACK
6
CONTINUOUS
10
93.5840850000000017
20
-92.0893870000000021
11
93.3618199999999945
21
-92.3762899999999973
0
LINE
8
BLACK
6
CONTINUOUS
10
93.3618199999999945
20
-92.3762899999999973
11
93.1669749999999937
21
-92.6824769999999916
0
LINE
8
BLACK
6
CONTINUOUS
10
93.1669749999999937
20
-92.6824769999999916
11
93.0012109999999979
21
-93.0053350000000023
0
LINE
8
BLACK
6
CONTINUOUS
10
93.0012109999999979
20
-93.0053350000000023
11
92.8659430000000015
21
-93.342109999999991
0
LINE
8
BLACK
6
CONTINUOUS
10
92.8659430000000015
20
-93.342109999999991
11
92.7623249999999899
21
-93.6899289999999922
0
LINE
8
BLACK
6
CONTINUOUS
10
92.7623249999999899
20
-93.6899289999999922
11
92.6912409999999909
21
-94.0458249999999936
0
LINE
8
BLACK
6
CONTINUOUS
10
92.6912409999999909
20
-94.0458249999999936
11
92.6722699999999975
21
-94.2262929999999983
0
LINE
8
BLACK
6
CONTINUOUS
10
92.6722699999999975
20
-94.2262929999999983
11
92.672269
21
-94.2262929999999983
0
LINE
8
BLACK
6
CONTINUOUS
10
92.672269
20
-94.2262929999999983
11
92.6703589999999906
21
-94.2305819999999983
0
LINE
8
BLACK
6
CONTINUOUS
10
92.6703589999999906
20
-94.2305819999999983
11
87.3413199999999961
21
-144.9469049999999868
0
LINE
8
BLACK
6
CONTINUOUS
10
87.3413199999999961
20
-144.9469049999999868
11
87.3413189999999986
21
-144.9469069999999817
0
LINE
8
BLACK
6
CONTINUOUS
10
87.3413189999999986
20
-144.9469069999999817
11
87.3413199999999961
21
-144.9469090000000051
0
LINE
8
BLACK
6
CONTINUOUS
10
87.3413199999999961
20
-144.9469090000000051
11
87.3413189999999986
21
-144.9469080000000076
0
LINE
8
BLACK
6
CONTINUOUS
10
87.3413189999999986
20
-144.9469080000000076
11
87.3412399999999991
21
-144.9472920000000045
0
LINE
8
BLACK
6
CONTINUOUS
10
87.3412399999999991
20
-144.9472920000000045
11
87.3223019999999934
21
-145.1273779999999931
0
LINE
8
BLACK
6
CONTINUOUS
10
87.3223019999999934
20
-145.1273779999999931
11
87.3178109999999919
21
-145.4902850000000001
0
LINE
8
BLACK
6
CONTINUOUS
10
87.3178109999999919
20
-145.4902850000000001
11
87.3468269999999904
21
-145.852058999999997
0
LINE
8
BLACK
6
CONTINUOUS
10
87.3468269999999904
20
-145.852058999999997
11
87.4091009999999926
21
-146.2096109999999953
0
LINE
8
BLACK
6
CONTINUOUS
10
87.4091009999999926
20
-146.2096109999999953
11
87.5041039999999981
21
-146.5598919999999907
0
LINE
8
BLACK
6
CONTINUOUS
10
87.5041039999999981
20
-146.5598919999999907
11
87.631024999999994
21
-146.899911000000003
0
LINE
8
BLACK
6
CONTINUOUS
10
87.631024999999994
20
-146.899911000000003
11
87.788778999999991
21
-147.2267679999999928
0
LINE
8
BLACK
6
CONTINUOUS
10
87.788778999999991
20
-147.2267679999999928
11
87.9760220000000004
21
-147.5376739999999813
0
LINE
8
BLACK
6
CONTINUOUS
10
87.9760220000000004
20
-147.5376739999999813
11
88.1911539999999974
21
-147.8299749999999904
0
LINE
8
BLACK
6
CONTINUOUS
10
88.1911539999999974
20
-147.8299749999999904
11
88.4323419999999913
21
-148.101177000000007
0
LINE
8
BLACK
6
CONTINUOUS
10
88.4323419999999913
20
-148.101177000000007
11
88.6975259999999963
21
-148.3489659999999901
0
LINE
8
BLACK
6
CONTINUOUS
10
88.6975259999999963
20
-148.3489659999999901
11
88.9844429999999988
21
-148.5712279999999907
0
LINE
8
BLACK
6
CONTINUOUS
10
88.9844429999999988
20
-148.5712279999999907
11
89.2906459999999953
21
-148.766065999999995
0
LINE
8
BLACK
6
CONTINUOUS
10
89.2906459999999953
20
-148.766065999999995
11
89.613521999999989
21
-148.9318169999999952
0
LINE
8
BLACK
6
CONTINUOUS
10
89.613521999999989
20
-148.9318169999999952
11
89.9503149999999891
21
-149.0670669999999802
0
LINE
8
BLACK
6
CONTINUOUS
10
89.9503149999999891
20
-149.0670669999999802
11
90.2981509999999901
21
-149.170661999999993
0
LINE
8
BLACK
6
CONTINUOUS
10
90.2981509999999901
20
-149.170661999999993
11
90.6540619999999961
21
-149.2417179999999917
0
LINE
8
BLACK
6
CONTINUOUS
10
90.6540619999999961
20
-149.2417179999999917
11
90.8345369999999974
21
-149.260674999999992
0
LINE
8
BLACK
6
CONTINUOUS
10
90.8345369999999974
20
-149.260674999999992
11
90.8387949999999904
21
-149.2625699999999824
0
LINE
8
BLACK
6
CONTINUOUS
10
90.8387949999999904
20
-149.2625699999999824
11
107.1771209999999996
21
-150.978350000000006
0
LINE
8
BLACK
6
CONTINUOUS
10
107.1771209999999996
20
-150.978350000000006
11
107.1771239999999921
21
-150.978350000000006
0
LINE
8
BLACK
6
CONTINUOUS
10
107.1771239999999921
20
-150.978350000000006
11
107.1771279999999962
21
-150.978350000000006
0
LINE
8
BLACK
6
CONTINUOUS
10
107.1771279999999962
20
-150.978350000000006
11
107.1771279999999962
21
-150.9783510000000035
0
LINE
8
BLACK
6
CONTINUOUS
10
107.1771279999999962
20
-150.9783510000000035
11
107.3865419999999915
21
-151.0112629999999854
0
LINE
8
BLACK
6
CONTINUOUS
10
107.3865419999999915
20
-151.0112629999999854
11
107.5915079999999904
21
-151.0653629999999907
0
LINE
8
BLACK
6
CONTINUOUS
10
107.5915079999999904
20
-151.0653629999999907
11
107.7898859999999956
21
-151.1400859999999966
0
LINE
8
BLACK
6
CONTINUOUS
10
107.7898859999999956
20
-151.1400859999999966
11
107.9796089999999964
21
-151.2346540000000061
0
LINE
8
BLACK
6
CONTINUOUS
10
107.9796089999999964
20
-151.2346540000000061
11
108.158695999999992
21
-151.3480799999999817
0
LINE
8
BLACK
6
CONTINUOUS
10
108.158695999999992
20
-151.3480799999999817
11
108.1614819999999924
21
-151.3518149999999878
0
LINE
8
BLACK
6
CONTINUOUS
10
108.1614819999999924
20
-151.3518149999999878
11
135.8339039999999898
21
-170.9292030000000011
0
LINE
8
BLACK
6
CONTINUOUS
10
135.8339039999999898
20
-170.9292030000000011
11
135.8339069999999822
21
-170.9292049999999961
0
LINE
8
BLACK
6
CONTINUOUS
10
135.8339069999999822
20
-170.9292049999999961
11
135.8339079999999797
21
-170.9292059999999935
0
LINE
8
BLACK
6
CONTINUOUS
10
135.8339079999999797
20
-170.9292059999999935
11
135.8409869999999842
21
-170.934236999999996
0
LINE
8
BLACK
6
CONTINUOUS
10
135.8409869999999842
20
-170.934236999999996
11
135.8480439999999874
21
-170.9392969999999821
0
LINE
8
BLACK
6
CONTINUOUS
10
135.8480439999999874
20
-170.9392969999999821
11
135.8550799999999867
21
-170.9443870000000061
0
LINE
8
BLACK
6
CONTINUOUS
10
135.8550799999999867
20
-170.9443870000000061
11
135.8550809999999842
21
-170.9443859999999802
0
LINE
8
BLACK
6
CONTINUOUS
10
135.8550809999999842
20
-170.9443859999999802
11
135.8578200000000038
21
-170.9481549999999856
0
LINE
8
BLACK
6
CONTINUOUS
10
135.8578200000000038
20
-170.9481549999999856
11
149.6809749999999894
21
-180.9894799999999861
0
LINE
8
BLACK
6
CONTINUOUS
10
149.6809749999999894
20
-180.9894799999999861
11
149.6811359999999809
21
-180.9896229999999946
0
LINE
8
BLACK
6
CONTINUOUS
10
149.6811359999999809
20
-180.9896229999999946
11
149.8366929999999968
21
-181.1145190000000014
0
LINE
8
BLACK
6
CONTINUOUS
10
149.8366929999999968
20
-181.1145190000000014
11
149.9796809999999994
21
-181.2539259999999786
0
LINE
8
BLACK
6
CONTINUOUS
10
149.9796809999999994
20
-181.2539259999999786
11
150.1086159999999836
21
-181.4064249999999845
0
LINE
8
BLACK
6
CONTINUOUS
10
150.1086159999999836
20
-181.4064249999999845
11
150.1086119999999937
21
-181.4064269999999794
0
LINE
8
BLACK
6
CONTINUOUS
10
150.1086119999999937
20
-181.4064269999999794
11
150.110163
21
-181.4108190000000036
0
LINE
8
BLACK
6
CONTINUOUS
10
150.110163
20
-181.4108190000000036
11
163.4855599999999924
21
-198.870806999999985
0
LINE
8
BLACK
6
CONTINUOUS
10
163.4855599999999924
20
-198.870806999999985
11
163.4855680000000007
21
-198.8708199999999806
0
LINE
8
BLACK
6
CONTINUOUS
10
163.4855680000000007
20
-198.8708199999999806
11
163.5791539999999884
21
-199.0034309999999778
0
LINE
8
BLACK
6
CONTINUOUS
10
163.5791539999999884
20
-199.0034309999999778
11
163.6620910000000038
21
-199.1429749999999785
0
LINE
8
BLACK
6
CONTINUOUS
10
163.6620910000000038
20
-199.1429749999999785
11
163.7338579999999979
21
-199.2885780000000011
0
LINE
8
BLACK
6
CONTINUOUS
10
163.7338579999999979
20
-199.2885780000000011
11
163.7338609999999903
21
-199.2885770000000036
0
LINE
8
BLACK
6
CONTINUOUS
10
163.7338609999999903
20
-199.2885770000000036
11
163.7343469999999854
21
-199.2932089999999903
0
LINE
8
BLACK
6
CONTINUOUS
10
163.7343469999999854
20
-199.2932089999999903
11
170.3606029999999976
21
-214.1724959999999953
0
LINE
8
BLACK
6
CONTINUOUS
10
170.3606029999999976
20
-214.1724959999999953
11
170.3607010000000059
21
-214.1727909999999895
0
LINE
8
BLACK
6
CONTINUOUS
10
170.3607010000000059
20
-214.1727909999999895
11
170.4343859999999893
21
-214.338279
0
LINE
8
BLACK
6
CONTINUOUS
10
170.4343859999999893
20
-214.338279
11
170.6119730000000061
21
-214.6547889999999938
0
LINE
8
BLACK
6
CONTINUOUS
10
170.6119730000000061
20
-214.6547889999999938
11
170.8180049999999994
21
-214.9535649999999976
0
LINE
8
BLACK
6
CONTINUOUS
10
170.8180049999999994
20
-214.9535649999999976
11
171.0507249999999999
21
-215.232056
0
LINE
8
BLACK
6
CONTINUOUS
10
171.0507249999999999
20
-215.232056
11
171.3081469999999911
21
-215.4878870000000006
0
LINE
8
BLACK
6
CONTINUOUS
10
171.3081469999999911
20
-215.4878870000000006
11
171.5880760000000009
21
-215.7188759999999945
0
LINE
8
BLACK
6
CONTINUOUS
10
171.5880760000000009
20
-215.7188759999999945
11
171.8881229999999789
21
-215.9230519999999842
0
LINE
8
BLACK
6
CONTINUOUS
10
171.8881229999999789
20
-215.9230519999999842
11
172.2057279999999935
21
-216.0986719999999934
0
LINE
8
BLACK
6
CONTINUOUS
10
172.2057279999999935
20
-216.0986719999999934
11
172.5381820000000062
21
-216.2442399999999907
0
LINE
8
BLACK
6
CONTINUOUS
10
172.5381820000000062
20
-216.2442399999999907
11
172.8826489999999865
21
-216.3585129999999879
0
LINE
8
BLACK
6
CONTINUOUS
10
172.8826489999999865
20
-216.3585129999999879
11
173.2361909999999909
21
-216.4405169999999998
0
LINE
8
BLACK
6
CONTINUOUS
10
173.2361909999999909
20
-216.4405169999999998
11
173.5957899999999938
21
-216.4895499999999799
0
LINE
8
BLACK
6
CONTINUOUS
10
173.5957899999999938
20
-216.4895499999999799
11
173.9583789999999794
21
-216.5051959999999838
0
LINE
8
BLACK
6
CONTINUOUS
10
173.9583789999999794
20
-216.5051959999999838
11
174.3208649999999977
21
-216.4873209999999801
0
LINE
8
BLACK
6
CONTINUOUS
10
174.3208649999999977
20
-216.4873209999999801
11
174.6801559999999824
21
-216.4360779999999806
0
LINE
8
BLACK
6
CONTINUOUS
10
174.6801559999999824
20
-216.4360779999999806
11
175.0331869999999981
21
-216.3519019999999955
0
LINE
8
BLACK
6
CONTINUOUS
10
175.0331869999999981
20
-216.3519019999999955
11
175.3769439999999804
21
-216.2355139999999949
0
LINE
8
BLACK
6
CONTINUOUS
10
175.3769439999999804
20
-216.2355139999999949
11
175.5427210000000002
21
-216.1617090000000019
0
LINE
8
BLACK
6
CONTINUOUS
10
175.5427210000000002
20
-216.1617090000000019
11
175.5473619999999926
21
-216.1612209999999834
0
LINE
8
BLACK
6
CONTINUOUS
10
175.5473619999999926
20
-216.1612209999999834
11
194.9323909999999955
21
-207.5288919999999848
0
LINE
8
BLACK
6
CONTINUOUS
10
194.9323909999999955
20
-207.5288919999999848
11
194.932407999999981
21
-207.5288779999999917
0
LINE
8
BLACK
6
CONTINUOUS
10
194.932407999999981
20
-207.5288779999999917
11
194.9324089999999785
21
-207.5288789999999892
0
LINE
8
BLACK
6
CONTINUOUS
10
194.9324089999999785
20
-207.5288789999999892
11
195.1351789999999937
21
-207.4510499999999809
0
LINE
8
BLACK
6
CONTINUOUS
10
195.1351789999999937
20
-207.4510499999999809
11
195.3449729999999818
21
-207.3948399999999879
0
LINE
8
BLACK
6
CONTINUOUS
10
195.3449729999999818
20
-207.3948399999999879
11
195.5594930000000033
21
-207.3608659999999873
0
LINE
8
BLACK
6
CONTINUOUS
10
195.5594930000000033
20
-207.3608659999999873
11
195.7763899999999921
21
-207.3494989999999802
0
LINE
8
BLACK
6
CONTINUOUS
10
195.7763899999999921
20
-207.3494989999999802
11
195.7763899999999921
21
-207.3494799999999998
0
LINE
8
BLACK
6
CONTINUOUS
10
195.7763899999999921
20
-207.3494799999999998
11
195.780822999999998
21
-207.3509200000000021
0
LINE
8
BLACK
6
CONTINUOUS
10
195.780822999999998
20
-207.3509200000000021
11
277.8673640000000091
21
-207.3494759999999815
0
LINE
8
BLACK
6
CONTINUOUS
10
277.8673640000000091
20
-207.3494759999999815
11
277.867367999999999
21
-207.3494759999999815
0
LINE
8
BLACK
6
CONTINUOUS
10
277.867367999999999
20
-207.3494759999999815
11
277.867369999999994
21
-207.3494759999999815
0
LINE
8
BLACK
6
CONTINUOUS
10
277.867369999999994
20
-207.3494759999999815
11
278.084261999999967
21
-207.3608559999999841
0
LINE
8
BLACK
6
CONTINUOUS
10
278.084261999999967
20
-207.3608559999999841
11
278.2987769999999728
21
-207.3948350000000005
0
LINE
8
BLACK
6
CONTINUOUS
10
278.2987769999999728
20
-207.3948350000000005
11
278.5085679999999684
21
-207.4510429999999985
0
LINE
8
BLACK
6
CONTINUOUS
10
278.5085679999999684
20
-207.4510429999999985
11
278.711338000000012
21
-207.5288620000000037
0
LINE
8
BLACK
6
CONTINUOUS
10
278.711338000000012
20
-207.5288620000000037
11
278.7113370000000145
21
-207.5288639999999987
0
LINE
8
BLACK
6
CONTINUOUS
10
278.7113370000000145
20
-207.5288639999999987
11
278.7147999999999683
21
-207.5319819999999993
0
LINE
8
BLACK
6
CONTINUOUS
10
278.7147999999999683
20
-207.5319819999999993
11
298.1010339999999701
21
-216.1617279999999823
0
LINE
8
BLACK
6
CONTINUOUS
10
298.1010339999999701
20
-216.1617279999999823
11
298.1010589999999638
21
-216.1616719999999816
0
LINE
8
BLACK
6
CONTINUOUS
10
298.1010589999999638
20
-216.1616719999999816
11
298.2668329999999628
21
-216.235478999999998
0
LINE
8
BLACK
6
CONTINUOUS
10
298.2668329999999628
20
-216.235478999999998
11
298.6105860000000121
21
-216.3518729999999834
0
LINE
8
BLACK
6
CONTINUOUS
10
298.6105860000000121
20
-216.3518729999999834
11
298.9636120000000119
21
-216.4360529999999869
0
LINE
8
BLACK
6
CONTINUOUS
10
298.9636120000000119
20
-216.4360529999999869
11
299.3228990000000067
21
-216.4872999999999763
0
LINE
8
BLACK
6
CONTINUOUS
10
299.3228990000000067
20
-216.4872999999999763
11
299.6853820000000042
21
-216.5051789999999983
0
LINE
8
BLACK
6
CONTINUOUS
10
299.6853820000000042
20
-216.5051789999999983
11
300.0479689999999664
21
-216.4895369999999843
0
LINE
8
BLACK
6
CONTINUOUS
10
300.0479689999999664
20
-216.4895369999999843
11
300.4075649999999769
21
-216.4405059999999992
0
LINE
8
BLACK
6
CONTINUOUS
10
300.4075649999999769
20
-216.4405059999999992
11
300.7611039999999889
21
-216.3585049999999796
0
LINE
8
BLACK
6
CONTINUOUS
10
300.7611039999999889
20
-216.3585049999999796
11
301.1055680000000052
21
-216.2442339999999774
0
LINE
8
BLACK
6
CONTINUOUS
10
301.1055680000000052
20
-216.2442339999999774
11
301.4380199999999945
21
-216.0986680000000035
0
LINE
8
BLACK
6
CONTINUOUS
10
301.4380199999999945
20
-216.0986680000000035
11
301.7556219999999598
21
-215.9230479999999943
0
LINE
8
BLACK
6
CONTINUOUS
10
301.7556219999999598
20
-215.9230479999999943
11
302.0556659999999738
21
-215.7188730000000021
0
LINE
8
BLACK
6
CONTINUOUS
10
302.0556659999999738
20
-215.7188730000000021
11
302.3355909999999653
21
-215.4878849999999773
0
LINE
8
BLACK
6
CONTINUOUS
10
302.3355909999999653
20
-215.4878849999999773
11
302.5930099999999925
21
-215.2320539999999767
0
LINE
8
BLACK
6
CONTINUOUS
10
302.5930099999999925
20
-215.2320539999999767
11
302.8257249999999772
21
-214.9535630000000026
0
LINE
8
BLACK
6
CONTINUOUS
10
302.8257249999999772
20
-214.9535630000000026
11
303.0317519999999831
21
-214.6547879999999964
0
LINE
8
BLACK
6
CONTINUOUS
10
303.0317519999999831
20
-214.6547879999999964
11
303.2093329999999582
21
-214.3382780000000025
0
LINE
8
BLACK
6
CONTINUOUS
10
303.2093329999999582
20
-214.3382780000000025
11
303.2831429999999955
21
-214.172505000000001
0
LINE
8
BLACK
6
CONTINUOUS
10
303.2831429999999955
20
-214.172505000000001
11
303.283143999999993
21
-214.1725059999999985
0
LINE
8
BLACK
6
CONTINUOUS
10
303.283143999999993
20
-214.1725059999999985
11
303.2862589999999727
21
-214.1690459999999803
0
LINE
8
BLACK
6
CONTINUOUS
10
303.2862589999999727
20
-214.1690459999999803
11
309.9098950000000059
21
-199.2885749999999803
0
LINE
8
BLACK
6
CONTINUOUS
10
309.9098950000000059
20
-199.2885749999999803
11
309.9098960000000034
21
-199.2885719999999878
0
LINE
8
BLACK
6
CONTINUOUS
10
309.9098960000000034
20
-199.2885719999999878
11
309.9098970000000008
21
-199.2885689999999954
0
LINE
8
BLACK
6
CONTINUOUS
10
309.9098970000000008
20
-199.2885689999999954
11
309.9098979999999983
21
-199.2885699999999929
0
LINE
8
BLACK
6
CONTINUOUS
10
309.9098979999999983
20
-199.2885699999999929
11
309.9816789999999855
21
-199.1429770000000019
0
LINE
8
BLACK
6
CONTINUOUS
10
309.9816789999999855
20
-199.1429770000000019
11
310.0646130000000085
21
-199.003436999999991
0
LINE
8
BLACK
6
CONTINUOUS
10
310.0646130000000085
20
-199.003436999999991
11
310.1581939999999804
21
-198.8708010000000002
0
LINE
8
BLACK
6
CONTINUOUS
10
310.1581939999999804
20
-198.8708010000000002
11
310.1581979999999703
21
-198.8708029999999951
0
LINE
8
BLACK
6
CONTINUOUS
10
310.1581979999999703
20
-198.8708029999999951
11
310.162036999999998
21
-198.8681589999999915
0
LINE
8
BLACK
6
CONTINUOUS
10
310.162036999999998
20
-198.8681589999999915
11
323.5351379999999608
21
-181.4064339999999902
0
LINE
8
BLACK
6
CONTINUOUS
10
323.5351379999999608
20
-181.4064339999999902
11
323.5351420000000076
21
-181.4064290000000028
0
LINE
8
BLACK
6
CONTINUOUS
10
323.5351420000000076
20
-181.4064290000000028
11
323.535143000000005
21
-181.4064280000000053
0
LINE
8
BLACK
6
CONTINUOUS
10
323.535143000000005
20
-181.4064280000000053
11
323.5351440000000025
21
-181.4064280000000053
0
LINE
8
BLACK
6
CONTINUOUS
10
323.5351440000000025
20
-181.4064280000000053
11
323.5351469999999949
21
-181.4064249999999845
0
LINE
8
BLACK
6
CONTINUOUS
10
323.5351469999999949
20
-181.4064249999999845
11
323.5351469999999949
21
-181.4064229999999895
0
LINE
8
BLACK
6
CONTINUOUS
10
323.5351469999999949
20
-181.4064229999999895
11
323.6640769999999634
21
-181.2539259999999786
0
LINE
8
BLACK
6
CONTINUOUS
10
323.6640769999999634
20
-181.2539259999999786
11
323.8070649999999659
21
-181.1145159999999805
0
LINE
8
BLACK
6
CONTINUOUS
10
323.8070649999999659
20
-181.1145159999999805
11
323.9627839999999992
21
-180.9894869999999969
0
LINE
8
BLACK
6
CONTINUOUS
10
323.9627839999999992
20
-180.9894869999999969
11
323.9672140000000127
21
-180.9880459999999971
0
LINE
8
BLACK
6
CONTINUOUS
10
323.9672140000000127
20
-180.9880459999999971
11
337.7886560000000031
21
-170.9443929999999909
0
LINE
8
BLACK
6
CONTINUOUS
10
337.7886560000000031
20
-170.9443929999999909
11
337.7886570000000006
21
-170.9443919999999935
0
LINE
8
BLACK
6
CONTINUOUS
10
337.7886570000000006
20
-170.9443919999999935
11
337.7956829999999968
21
-170.9393079999999827
0
LINE
8
BLACK
6
CONTINUOUS
10
337.7956829999999968
20
-170.9393079999999827
11
337.8027589999999805
21
-170.934235000000001
0
LINE
8
BLACK
6
CONTINUOUS
10
337.8027589999999805
20
-170.934235000000001
11
337.8098569999999654
21
-170.9291939999999954
0
LINE
8
BLACK
6
CONTINUOUS
10
337.8098569999999654
20
-170.9291939999999954
11
337.8143000000000029
21
-170.9278129999999862
0
LINE
8
BLACK
6
CONTINUOUS
10
337.8143000000000029
20
-170.9278129999999862
11
365.4850319999999897
21
-151.34808799999999
0
LINE
8
BLACK
6
CONTINUOUS
10
365.4850319999999897
20
-151.34808799999999
11
365.4850399999999695
21
-151.3480830000000026
0
LINE
8
BLACK
6
CONTINUOUS
10
365.4850399999999695
20
-151.3480830000000026
11
365.4850419999999644
21
-151.3480809999999792
0
LINE
8
BLACK
6
CONTINUOUS
10
365.4850419999999644
20
-151.3480809999999792
11
365.4850419999999644
21
-151.3480820000000051
0
LINE
8
BLACK
6
CONTINUOUS
10
365.4850419999999644
20
-151.3480820000000051
11
365.6641349999999875
21
-151.2346639999999809
0
LINE
8
BLACK
6
CONTINUOUS
10
365.6641349999999875
20
-151.2346639999999809
11
365.8538589999999999
21
-151.1400999999999897
0
LINE
8
BLACK
6
CONTINUOUS
10
365.8538589999999999
20
-151.1400999999999897
11
366.0522359999999935
21
-151.0653729999999939
0
LINE
8
BLACK
6
CONTINUOUS
10
366.0522359999999935
20
-151.0653729999999939
11
366.2571989999999573
21
-151.0112629999999854
0
LINE
8
BLACK
6
CONTINUOUS
10
366.2571989999999573
20
-151.0112629999999854
11
366.4666110000000003
21
-150.9783349999999871
0
LINE
8
BLACK
6
CONTINUOUS
10
366.4666110000000003
20
-150.9783349999999871
11
366.4666119999999978
21
-150.9783510000000035
0
LINE
8
BLACK
6
CONTINUOUS
10
366.4666119999999978
20
-150.9783510000000035
11
366.4711689999999749
21
-150.9793190000000038
0
LINE
8
BLACK
6
CONTINUOUS
10
366.4711689999999749
20
-150.9793190000000038
11
382.8092159999999922
21
-149.2606940000000009
0
LINE
8
BLACK
6
CONTINUOUS
10
382.8092159999999922
20
-149.2606940000000009
11
382.8092169999999896
21
-149.2606940000000009
0
LINE
8
BLACK
6
CONTINUOUS
10
382.8092169999999896
20
-149.2606940000000009
11
382.8092179999999871
21
-149.2606940000000009
0
LINE
8
BLACK
6
CONTINUOUS
10
382.8092179999999871
20
-149.2606940000000009
11
382.8096879999999942
21
-149.2606899999999825
0
LINE
8
BLACK
6
CONTINUOUS
10
382.8096879999999942
20
-149.2606899999999825
11
382.9896919999999909
21
-149.2417700000000025
0
LINE
8
BLACK
6
CONTINUOUS
10
382.9896919999999909
20
-149.2417700000000025
11
383.345593000000008
21
-149.1706879999999842
0
LINE
8
BLACK
6
CONTINUOUS
10
383.345593000000008
20
-149.1706879999999842
11
383.6934170000000108
21
-149.0670709999999985
0
LINE
8
BLACK
6
CONTINUOUS
10
383.6934170000000108
20
-149.0670709999999985
11
384.0301969999999869
21
-148.9318030000000022
0
LINE
8
BLACK
6
CONTINUOUS
10
384.0301969999999869
20
-148.9318030000000022
11
384.3530599999999708
21
-148.7660379999999805
0
LINE
8
BLACK
6
CONTINUOUS
10
384.3530599999999708
20
-148.7660379999999805
11
384.6592499999999859
21
-148.5711909999999989
0
LINE
8
BLACK
6
CONTINUOUS
10
384.6592499999999859
20
-148.5711909999999989
11
384.9461559999999736
21
-148.348922999999985
0
LINE
8
BLACK
6
CONTINUOUS
10
384.9461559999999736
20
-148.348922999999985
11
385.2113299999999754
21
-148.101130999999981
0
LINE
8
BLACK
6
CONTINUOUS
10
385.2113299999999754
20
-148.101130999999981
11
385.4525099999999611
21
-147.8299289999999928
0
LINE
8
BLACK
6
CONTINUOUS
10
385.4525099999999611
20
-147.8299289999999928
11
385.6676369999999565
21
-147.5376300000000072
0
LINE
8
BLACK
6
CONTINUOUS
10
385.6676369999999565
20
-147.5376300000000072
11
385.8548769999999877
21
-147.226729000000006
0
LINE
8
BLACK
6
CONTINUOUS
10
385.8548769999999877
20
-147.226729000000006
11
386.0126319999999964
21
-146.8998789999999985
0
LINE
8
BLACK
6
CONTINUOUS
10
386.0126319999999964
20
-146.8998789999999985
11
386.139556999999968
21
-146.5598659999999995
0
LINE
8
BLACK
6
CONTINUOUS
10
386.139556999999968
20
-146.5598659999999995
11
386.23456699999997
21
-146.2095929999999839
0
LINE
8
BLACK
6
CONTINUOUS
10
386.23456699999997
20
-146.2095929999999839
11
386.2968539999999962
21
-145.8520479999999964
0
LINE
8
BLACK
6
CONTINUOUS
10
386.2968539999999962
20
-145.8520479999999964
11
386.3258849999999711
21
-145.4902809999999818
0
LINE
8
BLACK
6
CONTINUOUS
10
386.3258849999999711
20
-145.4902809999999818
11
386.3214120000000094
21
-145.1273789999999906
0
LINE
8
BLACK
6
CONTINUOUS
10
386.3214120000000094
20
-145.1273789999999906
11
386.3024429999999825
21
-144.9469080000000076
0
LINE
8
BLACK
6
CONTINUOUS
10
386.3024429999999825
20
-144.9469080000000076
11
386.3034109999999828
21
-144.9423490000000072
0
LINE
8
BLACK
6
CONTINUOUS
10
386.3034109999999828
20
-144.9423490000000072
11
380.9714899999999602
21
-94.2262860000000018
0
LINE
8
BLACK
6
CONTINUOUS
10
380.9714899999999602
20
-94.2262860000000018
11
380.9714119999999866
21
-94.2262939999999958
0
LINE
8
BLACK
6
CONTINUOUS
10
380.9714119999999866
20
-94.2262939999999958
11
380.9524439999999572
21
-94.0458280000000002
0
LINE
8
BLACK
6
CONTINUOUS
10
380.9524439999999572
20
-94.0458280000000002
11
380.8813649999999598
21
-93.6899349999999913
0
LINE
8
BLACK
6
CONTINUOUS
10
380.8813649999999598
20
-93.6899349999999913
11
380.7777529999999615
21
-93.3421179999999993
0
LINE
8
BLACK
6
CONTINUOUS
10
380.7777529999999615
20
-93.3421179999999993
11
380.6424900000000093
21
-93.0053449999999913
0
LINE
8
BLACK
6
CONTINUOUS
10
380.6424900000000093
20
-93.0053449999999913
11
380.47673199999997
21
-92.6824879999999922
0
LINE
8
BLACK
6
CONTINUOUS
10
380.47673199999997
20
-92.6824879999999922
11
380.2818919999999707
21
-92.3763029999999929
0
LINE
8
BLACK
6
CONTINUOUS
10
380.2818919999999707
20
-92.3763029999999929
11
380.0596329999999625
21
-92.0894009999999952
0
LINE
8
BLACK
6
CONTINUOUS
10
380.0596329999999625
20
-92.0894009999999952
11
379.8118499999999926
21
-91.8242290000000025
0
LINE
8
BLACK
6
CONTINUOUS
10
379.8118499999999926
20
-91.8242290000000025
11
379.5406580000000076
21
-91.5830509999999975
0
LINE
8
BLACK
6
CONTINUOUS
10
379.5406580000000076
20
-91.5830509999999975
11
379.2483699999999658
21
-91.3679240000000021
0
LINE
8
BLACK
6
CONTINUOUS
10
379.2483699999999658
20
-91.3679240000000021
11
378.9374789999999962
21
-91.1806830000000019
0
LINE
8
BLACK
6
CONTINUOUS
10
378.9374789999999962
20
-91.1806830000000019
11
378.6106389999999919
21
-91.0229250000000008
0
LINE
8
BLACK
6
CONTINUOUS
10
378.6106389999999919
20
-91.0229250000000008
11
378.2706369999999652
21
-90.8959969999999942
0
LINE
8
BLACK
6
CONTINUOUS
10
378.2706369999999652
20
-90.8959969999999942
11
377.9203749999999786
21
-90.8009799999999956
0
LINE
8
BLACK
6
CONTINUOUS
10
377.9203749999999786
20
-90.8009799999999956
11
377.5628389999999968
21
-90.7386869999999988
0
LINE
8
BLACK
6
CONTINUOUS
10
377.5628389999999968
20
-90.7386869999999988
11
377.2010809999999879
21
-90.7096480000000014
0
LINE
8
BLACK
6
CONTINUOUS
10
377.2010809999999879
20
-90.7096480000000014
11
376.8381870000000049
21
-90.7141110000000026
0
LINE
8
BLACK
6
CONTINUOUS
10
376.8381870000000049
20
-90.7141110000000026
11
376.6577199999999834
21
-90.7330749999999995
0
LINE
8
BLACK
6
CONTINUOUS
10
376.6577199999999834
20
-90.7330749999999995
11
376.6577199999999834
21
-90.733074000000002
0
LINE
8
BLACK
6
CONTINUOUS
10
376.6577199999999834
20
-90.733074000000002
11
376.6531659999999988
21
-90.7321060000000017
0
LINE
8
BLACK
6
CONTINUOUS
10
376.6531659999999988
20
-90.7321060000000017
11
361.3466549999999984
21
-92.3423259999999999
0
LINE
8
BLACK
6
CONTINUOUS
10
361.3466549999999984
20
-92.3423259999999999
11
361.346494000000007
21
-92.3423269999999974
0
LINE
8
BLACK
6
CONTINUOUS
10
361.346494000000007
20
-92.3423269999999974
11
361.1042390000000069
21
-92.3535239999999931
0
LINE
8
BLACK
6
CONTINUOUS
10
361.1042390000000069
20
-92.3535239999999931
11
360.8621809999999641
21
-92.3363519999999909
0
LINE
8
BLACK
6
CONTINUOUS
10
360.8621809999999641
20
-92.3363519999999909
11
360.6237820000000056
21
-92.2910409999999928
0
LINE
8
BLACK
6
CONTINUOUS
10
360.6237820000000056
20
-92.2910409999999928
11
360.3923029999999699
21
-92.2182099999999991
0
LINE
8
BLACK
6
CONTINUOUS
10
360.3923029999999699
20
-92.2182099999999991
11
360.1709079999999972
21
-92.1188539999999989
0
LINE
8
BLACK
6
CONTINUOUS
10
360.1709079999999972
20
-92.1188539999999989
11
359.9626260000000002
21
-91.9943329999999975
0
LINE
8
BLACK
6
CONTINUOUS
10
359.9626260000000002
20
-91.9943329999999975
11
359.7703040000000101
21
-91.8463479999999919
0
LINE
8
BLACK
6
CONTINUOUS
10
359.7703040000000101
20
-91.8463479999999919
11
359.7703070000000025
21
-91.8463449999999995
0
LINE
8
BLACK
6
CONTINUOUS
10
359.7703070000000025
20
-91.8463449999999995
11
359.7679119999999671
21
-91.8423700000000025
0
LINE
8
BLACK
6
CONTINUOUS
10
359.7679119999999671
20
-91.8423700000000025
11
356.7343219999999633
21
-89.2135849999999948
0
LINE
8
BLACK
6
CONTINUOUS
10
356.7343219999999633
20
-89.2135849999999948
11
356.7343189999999709
21
-89.2135820000000024
0
LINE
8
BLACK
6
CONTINUOUS
10
356.7343189999999709
20
-89.2135820000000024
11
356.7342899999999872
21
-89.2136169999999993
0
LINE
8
BLACK
6
CONTINUOUS
10
356.7342899999999872
20
-89.2136169999999993
11
356.5998429999999644
21
-89.0969649999999973
0
LINE
8
BLACK
6
CONTINUOUS
10
356.5998429999999644
20
-89.0969649999999973
11
356.3108909999999696
21
-88.8890189999999905
0
LINE
8
BLACK
6
CONTINUOUS
10
356.3108909999999696
20
-88.8890189999999905
11
356.0043029999999931
21
-88.7080839999999995
0
LINE
8
BLACK
6
CONTINUOUS
10
356.0043029999999931
20
-88.7080839999999995
11
355.6825939999999946
21
-88.5556449999999984
0
LINE
8
BLACK
6
CONTINUOUS
10
355.6825939999999946
20
-88.5556449999999984
11
355.3484070000000088
21
-88.4329529999999977
0
LINE
8
BLACK
6
CONTINUOUS
10
355.3484070000000088
20
-88.4329529999999977
11
355.0044859999999858
21
-88.3410159999999962
0
LINE
8
BLACK
6
CONTINUOUS
10
355.0044859999999858
20
-88.3410159999999962
11
354.6536539999999604
21
-88.280588999999992
0
LINE
8
BLACK
6
CONTINUOUS
10
354.6536539999999604
20
-88.280588999999992
11
354.2987929999999892
21
-88.2521679999999975
0
LINE
8
BLACK
6
CONTINUOUS
10
354.2987929999999892
20
-88.2521679999999975
11
353.942814999999996
21
-88.2559859999999929
0
LINE
8
BLACK
6
CONTINUOUS
10
353.942814999999996
20
-88.2559859999999929
11
353.5886459999999829
21
-88.2920129999999972
0
LINE
8
BLACK
6
CONTINUOUS
10
353.5886459999999829
20
-88.2920129999999972
11
353.4139250000000061
21
-88.3260179999999906
0
LINE
8
BLACK
6
CONTINUOUS
10
353.4139250000000061
20
-88.3260179999999906
11
353.4092999999999734
21
-88.3254499999999894
0
LINE
8
BLACK
6
CONTINUOUS
10
353.4092999999999734
20
-88.3254499999999894
11
337.7274199999999951
21
-91.3751589999999965
0
LINE
8
BLACK
6
CONTINUOUS
10
337.7274199999999951
20
-91.3751589999999965
11
337.727406999999971
21
-91.375165999999993
0
LINE
8
BLACK
6
CONTINUOUS
10
337.727406999999971
20
-91.375165999999993
11
337.5050420000000031
21
-91.4060130000000015
0
LINE
8
BLACK
6
CONTINUOUS
10
337.5050420000000031
20
-91.4060130000000015
11
337.2806459999999902
21
-91.4126589999999908
0
LINE
8
BLACK
6
CONTINUOUS
10
337.2806459999999902
20
-91.4126589999999908
11
337.0568450000000098
21
-91.3950260000000014
0
LINE
8
BLACK
6
CONTINUOUS
10
337.0568450000000098
20
-91.3950260000000014
11
336.8362579999999866
21
-91.353320999999994
0
LINE
8
BLACK
6
CONTINUOUS
10
336.8362579999999866
20
-91.353320999999994
11
336.621467999999993
21
-91.2880320000000012
0
LINE
8
BLACK
6
CONTINUOUS
10
336.621467999999993
20
-91.2880320000000012
11
336.4149869999999964
21
-91.1999229999999983
0
LINE
8
BLACK
6
CONTINUOUS
10
336.4149869999999964
20
-91.1999229999999983
11
336.414984000000004
21
-91.1999279999999999
0
LINE
8
BLACK
6
CONTINUOUS
10
336.414984000000004
20
-91.1999279999999999
11
336.411645999999962
21
-91.1966809999999981
0
LINE
8
BLACK
6
CONTINUOUS
10
336.411645999999962
20
-91.1966809999999981
11
323.3555369999999698
21
-84.7706000000000017
0
LINE
8
BLACK
6
CONTINUOUS
10
323.3555369999999698
20
-84.7706000000000017
11
323.3555250000000001
21
-84.7705919999999935
0
LINE
8
BLACK
6
CONTINUOUS
10
323.3555250000000001
20
-84.7705919999999935
11
323.1949779999999919
21
-84.691558999999998
0
LINE
8
BLACK
6
CONTINUOUS
10
323.1949779999999919
20
-84.691558999999998
11
322.8608099999999581
21
-84.5633469999999932
0
LINE
8
BLACK
6
CONTINUOUS
10
322.8608099999999581
20
-84.5633469999999932
11
322.5163619999999582
21
-84.4660769999999985
0
LINE
8
BLACK
6
CONTINUOUS
10
322.5163619999999582
20
-84.4660769999999985
11
322.1644900000000007
21
-84.4005549999999971
0
LINE
8
BLACK
6
CONTINUOUS
10
322.1644900000000007
20
-84.4005549999999971
11
321.8081169999999815
21
-84.3673249999999939
0
LINE
8
BLACK
6
CONTINUOUS
10
321.8081169999999815
20
-84.3673249999999939
11
321.4501980000000003
21
-84.3666640000000001
0
LINE
8
BLACK
6
CONTINUOUS
10
321.4501980000000003
20
-84.3666640000000001
11
321.093703000000005
21
-84.3985749999999939
  0
ENDSEC
  0
EOF
