<?xml version="1.0" standalone="no"?>
 <!DOCTYPE svg PUBLIC "-//W3C//DTD SVG 1.1//EN" 
 "http://www.w3.org/Graphics/SVG/1.1/DTD/svg11.dtd"> 
<svg
  xmlns:svg="http://www.w3.org/2000/svg"
  xmlns="http://www.w3.org/2000/svg"
  xmlns:xlink="http://www.w3.org/1999/xlink"
  version="1.1"
  width="419.989000mm" height="297.002200mm" viewBox="0.000000 0.000000 419.989000 297.002200">
<title>SVG Image created as ykb-F_Mask.svg date 2024/06/26 15:03:08 </title>
  <desc>Image generated by PCBNEW </desc>
<g style="fill:#000000; fill-opacity:1.000000;stroke:#000000; stroke-opacity:1.000000;
stroke-linecap:round; stroke-linejoin:round;"
 transform="translate(0 0) scale(1 1)">
</g>
<g style="fill:#000000; fill-opacity:1.000000; stroke:none;">
<circle cx="299.739764" cy="123.310281" r="0.900900" /> 
</g>
<g style="fill:#000000; fill-opacity:1.000000; stroke:none;">
<circle cx="301.389707" cy="115.377428" r="1.550000" /> 
</g>
<g style="fill:#000000; fill-opacity:1.000000; stroke:none;">
<circle cx="304.454185" cy="120.477570" r="1.764500" /> 
</g>
<g style="fill:#000000; fill-opacity:1.000000; stroke:none;">
<circle cx="306.808633" cy="114.688006" r="1.550000" /> 
</g>
<g style="fill:#000000; fill-opacity:1.000000; stroke:none;">
<circle cx="309.168606" cy="117.644859" r="0.900900" /> 
</g>
<g style="fill:#000000; fill-opacity:1.000000; stroke:none;">
<circle cx="307.492911" cy="125.534857" r="1.066000" /> 
</g>
<g style="fill:#000000; fill-opacity:1.000000; stroke:none;">
<circle cx="302.125494" cy="126.310000" r="1.066000" /> 
</g>
<g style="fill:#000000; fill-opacity:1.000000; stroke:none;">
<circle cx="277.287869" cy="127.621171" r="0.900900" /> 
</g>
<g style="fill:#000000; fill-opacity:1.000000; stroke:none;">
<circle cx="278.240138" cy="119.574705" r="1.550000" /> 
</g>
<g style="fill:#000000; fill-opacity:1.000000; stroke:none;">
<circle cx="281.737461" cy="124.388354" r="1.764500" /> 
</g>
<g style="fill:#000000; fill-opacity:1.000000; stroke:none;">
<circle cx="283.578353" cy="118.415616" r="1.550000" /> 
</g>
<g style="fill:#000000; fill-opacity:1.000000; stroke:none;">
<circle cx="286.187053" cy="121.155537" r="0.900900" /> 
</g>
<g style="fill:#000000; fill-opacity:1.000000; stroke:none;">
<circle cx="285.205393" cy="129.161555" r="1.066000" /> 
</g>
<g style="fill:#000000; fill-opacity:1.000000; stroke:none;">
<circle cx="279.925958" cy="130.401547" r="1.066000" /> 
</g>
<g style="fill:#000000; fill-opacity:1.000000; stroke:none;">
<circle cx="287.280218" cy="141.374459" r="0.900900" /> 
</g>
<g style="fill:#000000; fill-opacity:1.000000; stroke:none;">
<circle cx="288.232487" cy="133.327993" r="1.550000" /> 
</g>
<g style="fill:#000000; fill-opacity:1.000000; stroke:none;">
<circle cx="291.729810" cy="138.141642" r="1.764500" /> 
</g>
<g style="fill:#000000; fill-opacity:1.000000; stroke:none;">
<circle cx="293.570702" cy="132.168904" r="1.550000" /> 
</g>
<g style="fill:#000000; fill-opacity:1.000000; stroke:none;">
<circle cx="296.179402" cy="134.908825" r="0.900900" /> 
</g>
<g style="fill:#000000; fill-opacity:1.000000; stroke:none;">
<circle cx="295.197742" cy="142.914843" r="1.066000" /> 
</g>
<g style="fill:#000000; fill-opacity:1.000000; stroke:none;">
<circle cx="289.918307" cy="144.154835" r="1.066000" /> 
</g>
<g style="fill:#000000; fill-opacity:1.000000; stroke:none;">
<circle cx="297.272566" cy="155.127753" r="0.900900" /> 
</g>
<g style="fill:#000000; fill-opacity:1.000000; stroke:none;">
<circle cx="298.224835" cy="147.081287" r="1.550000" /> 
</g>
<g style="fill:#000000; fill-opacity:1.000000; stroke:none;">
<circle cx="301.722158" cy="151.894936" r="1.764500" /> 
</g>
<g style="fill:#000000; fill-opacity:1.000000; stroke:none;">
<circle cx="303.563050" cy="145.922198" r="1.550000" /> 
</g>
<g style="fill:#000000; fill-opacity:1.000000; stroke:none;">
<circle cx="306.171750" cy="148.662119" r="0.900900" /> 
</g>
<g style="fill:#000000; fill-opacity:1.000000; stroke:none;">
<circle cx="305.190090" cy="156.668137" r="1.066000" /> 
</g>
<g style="fill:#000000; fill-opacity:1.000000; stroke:none;">
<circle cx="299.910655" cy="157.908129" r="1.066000" /> 
</g>
<g style="fill:#000000; fill-opacity:1.000000; stroke:none;">
<circle cx="143.996809" cy="112.788551" r="0.900900" /> 
</g>
<g style="fill:#000000; fill-opacity:1.000000; stroke:none;">
<circle cx="151.548483" cy="109.851765" r="1.550000" /> 
</g>
<g style="fill:#000000; fill-opacity:1.000000; stroke:none;">
<circle cx="148.940176" cy="115.199591" r="1.764500" /> 
</g>
<g style="fill:#000000; fill-opacity:1.000000; stroke:none;">
<circle cx="155.078041" cy="114.020968" r="1.550000" /> 
</g>
<g style="fill:#000000; fill-opacity:1.000000; stroke:none;">
<circle cx="153.883543" cy="117.610631" r="0.900900" /> 
</g>
<g style="fill:#000000; fill-opacity:1.000000; stroke:none;">
<circle cx="146.353787" cy="120.502474" r="1.066000" /> 
</g>
<g style="fill:#000000; fill-opacity:1.000000; stroke:none;">
<circle cx="142.780393" cy="116.423151" r="1.066000" /> 
</g>
<g style="fill:#000000; fill-opacity:1.000000; stroke:none;">
<circle cx="99.175760" cy="103.498867" r="0.900900" /> 
</g>
<g style="fill:#000000; fill-opacity:1.000000; stroke:none;">
<circle cx="104.645635" cy="104.073774" r="1.764500" /> 
</g>
<g style="fill:#000000; fill-opacity:1.000000; stroke:none;">
<circle cx="105.267583" cy="98.156365" r="1.550000" /> 
</g>
<g style="fill:#000000; fill-opacity:1.000000; stroke:none;">
<circle cx="110.010227" cy="100.866959" r="1.550000" /> 
</g>
<g style="fill:#000000; fill-opacity:1.000000; stroke:none;">
<circle cx="110.115510" cy="104.648681" r="0.900900" /> 
</g>
<g style="fill:#000000; fill-opacity:1.000000; stroke:none;">
<circle cx="104.028920" cy="109.941452" r="1.066000" /> 
</g>
<g style="fill:#000000; fill-opacity:1.000000; stroke:none;">
<circle cx="99.275816" cy="107.330316" r="1.066000" /> 
</g>
<g style="fill:#000000; fill-opacity:1.000000; stroke:none;">
<circle cx="97.398779" cy="120.405733" r="0.900900" /> 
</g>
<g style="fill:#000000; fill-opacity:1.000000; stroke:none;">
<circle cx="102.868654" cy="120.980640" r="1.764500" /> 
</g>
<g style="fill:#000000; fill-opacity:1.000000; stroke:none;">
<circle cx="103.490602" cy="115.063231" r="1.550000" /> 
</g>
<g style="fill:#000000; fill-opacity:1.000000; stroke:none;">
<circle cx="108.233246" cy="117.773825" r="1.550000" /> 
</g>
<g style="fill:#000000; fill-opacity:1.000000; stroke:none;">
<circle cx="108.338529" cy="121.555547" r="0.900900" /> 
</g>
<g style="fill:#000000; fill-opacity:1.000000; stroke:none;">
<circle cx="102.251939" cy="126.848318" r="1.066000" /> 
</g>
<g style="fill:#000000; fill-opacity:1.000000; stroke:none;">
<circle cx="97.498835" cy="124.237182" r="1.066000" /> 
</g>
<g style="fill:#000000; fill-opacity:1.000000; stroke:none;">
<circle cx="155.734818" cy="132.216713" r="0.900900" /> 
</g>
<g style="fill:#000000; fill-opacity:1.000000; stroke:none;">
<circle cx="163.513712" cy="129.949272" r="1.550000" /> 
</g>
<g style="fill:#000000; fill-opacity:1.000000; stroke:none;">
<circle cx="160.449236" cy="135.049421" r="1.764500" /> 
</g>
<g style="fill:#000000; fill-opacity:1.000000; stroke:none;">
<circle cx="166.666468" cy="134.410234" r="1.550000" /> 
</g>
<g style="fill:#000000; fill-opacity:1.000000; stroke:none;">
<circle cx="165.163654" cy="137.882129" r="0.900900" /> 
</g>
<g style="fill:#000000; fill-opacity:1.000000; stroke:none;">
<circle cx="157.410513" cy="140.106706" r="1.066000" /> 
</g>
<g style="fill:#000000; fill-opacity:1.000000; stroke:none;">
<circle cx="154.206249" cy="135.731466" r="1.066000" /> 
</g>
<g style="fill:#000000; fill-opacity:1.000000; stroke:none;">
<circle cx="145.967065" cy="162.970475" r="0.900900" /> 
</g>
<g style="fill:#000000; fill-opacity:1.000000; stroke:none;">
<circle cx="153.913978" cy="161.389638" r="1.550000" /> 
</g>
<g style="fill:#000000; fill-opacity:1.000000; stroke:none;">
<circle cx="150.416657" cy="166.203292" r="1.764500" /> 
</g>
<g style="fill:#000000; fill-opacity:1.000000; stroke:none;">
<circle cx="156.665940" cy="166.108410" r="1.550000" /> 
</g>
<g style="fill:#000000; fill-opacity:1.000000; stroke:none;">
<circle cx="154.866249" cy="169.436109" r="0.900900" /> 
</g>
<g style="fill:#000000; fill-opacity:1.000000; stroke:none;">
<circle cx="146.948728" cy="170.976490" r="1.066000" /> 
</g>
<g style="fill:#000000; fill-opacity:1.000000; stroke:none;">
<circle cx="144.137992" cy="166.338627" r="1.066000" /> 
</g>
<g style="fill:#000000; fill-opacity:1.000000; stroke:none;">
<circle cx="341.558782" cy="103.332494" r="0.900900" /> 
</g>
<g style="fill:#000000; fill-opacity:1.000000; stroke:none;">
<circle cx="345.822422" cy="96.442362" r="1.550000" /> 
</g>
<g style="fill:#000000; fill-opacity:1.000000; stroke:none;">
<circle cx="346.957737" cy="102.283041" r="1.764500" /> 
</g>
<g style="fill:#000000; fill-opacity:1.000000; stroke:none;">
<circle cx="351.150344" cy="97.647895" r="1.550000" /> 
</g>
<g style="fill:#000000; fill-opacity:1.000000; stroke:none;">
<circle cx="352.356692" cy="101.233588" r="0.900900" /> 
</g>
<g style="fill:#000000; fill-opacity:1.000000; stroke:none;">
<circle cx="348.083508" cy="108.074643" r="1.066000" /> 
</g>
<g style="fill:#000000; fill-opacity:1.000000; stroke:none;">
<circle cx="342.774676" cy="106.967269" r="1.066000" /> 
</g>
<g style="fill:#000000; fill-opacity:1.000000; stroke:none;">
<circle cx="136.544498" cy="128.068059" r="0.900900" /> 
</g>
<g style="fill:#000000; fill-opacity:1.000000; stroke:none;">
<circle cx="144.096172" cy="125.131273" r="1.550000" /> 
</g>
<g style="fill:#000000; fill-opacity:1.000000; stroke:none;">
<circle cx="141.487865" cy="130.479099" r="1.764500" /> 
</g>
<g style="fill:#000000; fill-opacity:1.000000; stroke:none;">
<circle cx="147.625730" cy="129.300476" r="1.550000" /> 
</g>
<g style="fill:#000000; fill-opacity:1.000000; stroke:none;">
<circle cx="146.431232" cy="132.890139" r="0.900900" /> 
</g>
<g style="fill:#000000; fill-opacity:1.000000; stroke:none;">
<circle cx="138.901476" cy="135.781982" r="1.066000" /> 
</g>
<g style="fill:#000000; fill-opacity:1.000000; stroke:none;">
<circle cx="135.328082" cy="131.702659" r="1.066000" /> 
<path style="fill:#000000; fill-opacity:1.000000; stroke:none;fill-rule:evenodd;"
d="M 226.120001,136.522486
226.128282,136.434178
226.175046,136.300533
226.259125,136.186610
226.373048,136.102531
226.506693,136.055767
226.595001,136.047486
229.245001,136.047486
229.333309,136.055767
229.466954,136.102531
229.580877,136.186610
229.664956,136.300533
229.711720,136.434178
229.720001,136.522486
229.720001,137.472486
229.711720,137.560794
229.664956,137.694439
229.580877,137.808362
229.466954,137.892441
229.333309,137.939205
229.245001,137.947486
226.595001,137.947486
226.506693,137.939205
226.373048,137.892441
226.259125,137.808362
226.175046,137.694439
226.128282,137.560794
226.120001,137.472486
Z" /> 
<path style="fill:#000000; fill-opacity:1.000000; stroke:none;fill-rule:evenodd;"
d="M 226.119996,139.062489
226.128277,138.974181
226.175041,138.840536
226.259120,138.726613
226.373043,138.642534
226.506688,138.595770
226.594996,138.587489
229.244996,138.587489
229.333304,138.595770
229.466949,138.642534
229.580872,138.726613
229.664951,138.840536
229.711715,138.974181
229.719996,139.062489
229.719996,140.012489
229.711715,140.100797
229.664951,140.234442
229.580872,140.348365
229.466949,140.432444
229.333304,140.479208
229.244996,140.487489
226.594996,140.487489
226.506688,140.479208
226.373043,140.432444
226.259120,140.348365
226.175041,140.234442
226.128277,140.100797
226.119996,140.012489
Z" /> 
<path style="fill:#000000; fill-opacity:1.000000; stroke:none;fill-rule:evenodd;"
d="M 226.120005,141.602488
226.128286,141.514180
226.175050,141.380535
226.259129,141.266612
226.373052,141.182533
226.506697,141.135769
226.595005,141.127488
229.245005,141.127488
229.333313,141.135769
229.466958,141.182533
229.580881,141.266612
229.664960,141.380535
229.711724,141.514180
229.720005,141.602488
229.720005,142.552488
229.711724,142.640796
229.664960,142.774441
229.580881,142.888364
229.466958,142.972443
229.333313,143.019207
229.245005,143.027488
226.595005,143.027488
226.506697,143.019207
226.373052,142.972443
226.259129,142.888364
226.175050,142.774441
226.128286,142.640796
226.120005,142.552488
Z" /> 
<path style="fill:#000000; fill-opacity:1.000000; stroke:none;fill-rule:evenodd;"
d="M 226.120008,144.142480
226.128289,144.054172
226.175053,143.920527
226.259132,143.806604
226.373055,143.722525
226.506700,143.675761
226.595008,143.667480
229.245008,143.667480
229.333316,143.675761
229.466961,143.722525
229.580884,143.806604
229.664963,143.920527
229.711727,144.054172
229.720008,144.142480
229.720008,145.092480
229.711727,145.180788
229.664963,145.314433
229.580884,145.428356
229.466961,145.512435
229.333316,145.559199
229.245008,145.567480
226.595008,145.567480
226.506700,145.559199
226.373055,145.512435
226.259132,145.428356
226.175053,145.314433
226.128289,145.180788
226.120008,145.092480
Z" /> 
<path style="fill:#000000; fill-opacity:1.000000; stroke:none;fill-rule:evenodd;"
d="M 226.120001,146.682481
226.128282,146.594173
226.175046,146.460528
226.259125,146.346605
226.373048,146.262526
226.506693,146.215762
226.595001,146.207481
229.245001,146.207481
229.333309,146.215762
229.466954,146.262526
229.580877,146.346605
229.664956,146.460528
229.711720,146.594173
229.720001,146.682481
229.720001,147.632481
229.711720,147.720789
229.664956,147.854434
229.580877,147.968357
229.466954,148.052436
229.333309,148.099200
229.245001,148.107481
226.595001,148.107481
226.506693,148.099200
226.373048,148.052436
226.259125,147.968357
226.175046,147.854434
226.128282,147.720789
226.120001,147.632481
Z" /> 
<path style="fill:#000000; fill-opacity:1.000000; stroke:none;fill-rule:evenodd;"
d="M 226.120002,149.222493
226.128283,149.134185
226.175047,149.000540
226.259126,148.886617
226.373049,148.802538
226.506694,148.755774
226.595002,148.747493
229.245002,148.747493
229.333310,148.755774
229.466955,148.802538
229.580878,148.886617
229.664957,149.000540
229.711721,149.134185
229.720002,149.222493
229.720002,150.172493
229.711721,150.260801
229.664957,150.394446
229.580878,150.508369
229.466955,150.592448
229.333310,150.639212
229.245002,150.647493
226.595002,150.647493
226.506694,150.639212
226.373049,150.592448
226.259126,150.508369
226.175047,150.394446
226.128283,150.260801
226.120002,150.172493
Z" /> 
<path style="fill:#000000; fill-opacity:1.000000; stroke:none;fill-rule:evenodd;"
d="M 226.120002,151.762491
226.128283,151.674183
226.175047,151.540538
226.259126,151.426615
226.373049,151.342536
226.506694,151.295772
226.595002,151.287491
229.245002,151.287491
229.333310,151.295772
229.466955,151.342536
229.580878,151.426615
229.664957,151.540538
229.711721,151.674183
229.720002,151.762491
229.720002,152.712491
229.711721,152.800799
229.664957,152.934444
229.580878,153.048367
229.466955,153.132446
229.333310,153.179210
229.245002,153.187491
226.595002,153.187491
226.506694,153.179210
226.373049,153.132446
226.259126,153.048367
226.175047,152.934444
226.128283,152.800799
226.120002,152.712491
Z" /> 
<path style="fill:#000000; fill-opacity:1.000000; stroke:none;fill-rule:evenodd;"
d="M 226.120005,154.302482
226.128286,154.214174
226.175050,154.080529
226.259129,153.966606
226.373052,153.882527
226.506697,153.835763
226.595005,153.827482
229.245005,153.827482
229.333313,153.835763
229.466958,153.882527
229.580881,153.966606
229.664960,154.080529
229.711724,154.214174
229.720005,154.302482
229.720005,155.252482
229.711724,155.340790
229.664960,155.474435
229.580881,155.588358
229.466958,155.672437
229.333313,155.719201
229.245005,155.727482
226.595005,155.727482
226.506697,155.719201
226.373052,155.672437
226.259129,155.588358
226.175050,155.474435
226.128286,155.340790
226.120005,155.252482
Z" /> 
<path style="fill:#000000; fill-opacity:1.000000; stroke:none;fill-rule:evenodd;"
d="M 226.120001,156.842488
226.128282,156.754180
226.175046,156.620535
226.259125,156.506612
226.373048,156.422533
226.506693,156.375769
226.595001,156.367488
229.245001,156.367488
229.333309,156.375769
229.466954,156.422533
229.580877,156.506612
229.664956,156.620535
229.711720,156.754180
229.720001,156.842488
229.720001,157.792488
229.711720,157.880796
229.664956,158.014441
229.580877,158.128364
229.466954,158.212443
229.333309,158.259207
229.245001,158.267488
226.595001,158.267488
226.506693,158.259207
226.373048,158.212443
226.259125,158.128364
226.175046,158.014441
226.128282,157.880796
226.120001,157.792488
Z" /> 
<path style="fill:#000000; fill-opacity:1.000000; stroke:none;fill-rule:evenodd;"
d="M 226.119994,159.382483
226.128275,159.294175
226.175039,159.160530
226.259118,159.046607
226.373041,158.962528
226.506686,158.915764
226.594994,158.907483
229.244994,158.907483
229.333302,158.915764
229.466947,158.962528
229.580870,159.046607
229.664949,159.160530
229.711713,159.294175
229.719994,159.382483
229.719994,160.332483
229.711713,160.420791
229.664949,160.554436
229.580870,160.668359
229.466947,160.752438
229.333302,160.799202
229.244994,160.807483
226.594994,160.807483
226.506686,160.799202
226.373041,160.752438
226.259118,160.668359
226.175039,160.554436
226.128275,160.420791
226.119994,160.332483
Z" /> 
<path style="fill:#000000; fill-opacity:1.000000; stroke:none;fill-rule:evenodd;"
d="M 226.120000,161.922489
226.128281,161.834181
226.175045,161.700536
226.259124,161.586613
226.373047,161.502534
226.506692,161.455770
226.595000,161.447489
229.245000,161.447489
229.333308,161.455770
229.466953,161.502534
229.580876,161.586613
229.664955,161.700536
229.711719,161.834181
229.720000,161.922489
229.720000,162.872489
229.711719,162.960797
229.664955,163.094442
229.580876,163.208365
229.466953,163.292444
229.333308,163.339208
229.245000,163.347489
226.595000,163.347489
226.506692,163.339208
226.373047,163.292444
226.259124,163.208365
226.175045,163.094442
226.128281,162.960797
226.120000,162.872489
Z" /> 
<path style="fill:#000000; fill-opacity:1.000000; stroke:none;fill-rule:evenodd;"
d="M 226.119994,164.462487
226.128275,164.374179
226.175039,164.240534
226.259118,164.126611
226.373041,164.042532
226.506686,163.995768
226.594994,163.987487
229.244994,163.987487
229.333302,163.995768
229.466947,164.042532
229.580870,164.126611
229.664949,164.240534
229.711713,164.374179
229.719994,164.462487
229.719994,165.412487
229.711713,165.500795
229.664949,165.634440
229.580870,165.748363
229.466947,165.832442
229.333302,165.879206
229.244994,165.887487
226.594994,165.887487
226.506686,165.879206
226.373041,165.832442
226.259118,165.748363
226.175039,165.634440
226.128275,165.500795
226.119994,165.412487
Z" /> 
<path style="fill:#000000; fill-opacity:1.000000; stroke:none;fill-rule:evenodd;"
d="M 243.960006,136.522485
243.968287,136.434177
244.015051,136.300532
244.099130,136.186609
244.213053,136.102530
244.346698,136.055766
244.435006,136.047485
247.085006,136.047485
247.173314,136.055766
247.306959,136.102530
247.420882,136.186609
247.504961,136.300532
247.551725,136.434177
247.560006,136.522485
247.560006,137.472485
247.551725,137.560793
247.504961,137.694438
247.420882,137.808361
247.306959,137.892440
247.173314,137.939204
247.085006,137.947485
244.435006,137.947485
244.346698,137.939204
244.213053,137.892440
244.099130,137.808361
244.015051,137.694438
243.968287,137.560793
243.960006,137.472485
Z" /> 
<path style="fill:#000000; fill-opacity:1.000000; stroke:none;fill-rule:evenodd;"
d="M 243.960000,139.062483
243.968281,138.974175
244.015045,138.840530
244.099124,138.726607
244.213047,138.642528
244.346692,138.595764
244.435000,138.587483
247.085000,138.587483
247.173308,138.595764
247.306953,138.642528
247.420876,138.726607
247.504955,138.840530
247.551719,138.974175
247.560000,139.062483
247.560000,140.012483
247.551719,140.100791
247.504955,140.234436
247.420876,140.348359
247.306953,140.432438
247.173308,140.479202
247.085000,140.487483
244.435000,140.487483
244.346692,140.479202
244.213047,140.432438
244.099124,140.348359
244.015045,140.234436
243.968281,140.100791
243.960000,140.012483
Z" /> 
<path style="fill:#000000; fill-opacity:1.000000; stroke:none;fill-rule:evenodd;"
d="M 243.960006,141.602489
243.968287,141.514181
244.015051,141.380536
244.099130,141.266613
244.213053,141.182534
244.346698,141.135770
244.435006,141.127489
247.085006,141.127489
247.173314,141.135770
247.306959,141.182534
247.420882,141.266613
247.504961,141.380536
247.551725,141.514181
247.560006,141.602489
247.560006,142.552489
247.551725,142.640797
247.504961,142.774442
247.420882,142.888365
247.306959,142.972444
247.173314,143.019208
247.085006,143.027489
244.435006,143.027489
244.346698,143.019208
244.213053,142.972444
244.099130,142.888365
244.015051,142.774442
243.968287,142.640797
243.960006,142.552489
Z" /> 
<path style="fill:#000000; fill-opacity:1.000000; stroke:none;fill-rule:evenodd;"
d="M 243.959999,144.142484
243.968280,144.054176
244.015044,143.920531
244.099123,143.806608
244.213046,143.722529
244.346691,143.675765
244.434999,143.667484
247.084999,143.667484
247.173307,143.675765
247.306952,143.722529
247.420875,143.806608
247.504954,143.920531
247.551718,144.054176
247.559999,144.142484
247.559999,145.092484
247.551718,145.180792
247.504954,145.314437
247.420875,145.428360
247.306952,145.512439
247.173307,145.559203
247.084999,145.567484
244.434999,145.567484
244.346691,145.559203
244.213046,145.512439
244.099123,145.428360
244.015044,145.314437
243.968280,145.180792
243.959999,145.092484
Z" /> 
<path style="fill:#000000; fill-opacity:1.000000; stroke:none;fill-rule:evenodd;"
d="M 243.959995,146.682490
243.968276,146.594182
244.015040,146.460537
244.099119,146.346614
244.213042,146.262535
244.346687,146.215771
244.434995,146.207490
247.084995,146.207490
247.173303,146.215771
247.306948,146.262535
247.420871,146.346614
247.504950,146.460537
247.551714,146.594182
247.559995,146.682490
247.559995,147.632490
247.551714,147.720798
247.504950,147.854443
247.420871,147.968366
247.306948,148.052445
247.173303,148.099209
247.084995,148.107490
244.434995,148.107490
244.346687,148.099209
244.213042,148.052445
244.099119,147.968366
244.015040,147.854443
243.968276,147.720798
243.959995,147.632490
Z" /> 
<path style="fill:#000000; fill-opacity:1.000000; stroke:none;fill-rule:evenodd;"
d="M 243.959998,149.222481
243.968279,149.134173
244.015043,149.000528
244.099122,148.886605
244.213045,148.802526
244.346690,148.755762
244.434998,148.747481
247.084998,148.747481
247.173306,148.755762
247.306951,148.802526
247.420874,148.886605
247.504953,149.000528
247.551717,149.134173
247.559998,149.222481
247.559998,150.172481
247.551717,150.260789
247.504953,150.394434
247.420874,150.508357
247.306951,150.592436
247.173306,150.639200
247.084998,150.647481
244.434998,150.647481
244.346690,150.639200
244.213045,150.592436
244.099122,150.508357
244.015043,150.394434
243.968279,150.260789
243.959998,150.172481
Z" /> 
<path style="fill:#000000; fill-opacity:1.000000; stroke:none;fill-rule:evenodd;"
d="M 243.959998,151.762479
243.968279,151.674171
244.015043,151.540526
244.099122,151.426603
244.213045,151.342524
244.346690,151.295760
244.434998,151.287479
247.084998,151.287479
247.173306,151.295760
247.306951,151.342524
247.420874,151.426603
247.504953,151.540526
247.551717,151.674171
247.559998,151.762479
247.559998,152.712479
247.551717,152.800787
247.504953,152.934432
247.420874,153.048355
247.306951,153.132434
247.173306,153.179198
247.084998,153.187479
244.434998,153.187479
244.346690,153.179198
244.213045,153.132434
244.099122,153.048355
244.015043,152.934432
243.968279,152.800787
243.959998,152.712479
Z" /> 
<path style="fill:#000000; fill-opacity:1.000000; stroke:none;fill-rule:evenodd;"
d="M 243.959999,154.302491
243.968280,154.214183
244.015044,154.080538
244.099123,153.966615
244.213046,153.882536
244.346691,153.835772
244.434999,153.827491
247.084999,153.827491
247.173307,153.835772
247.306952,153.882536
247.420875,153.966615
247.504954,154.080538
247.551718,154.214183
247.559999,154.302491
247.559999,155.252491
247.551718,155.340799
247.504954,155.474444
247.420875,155.588367
247.306952,155.672446
247.173307,155.719210
247.084999,155.727491
244.434999,155.727491
244.346691,155.719210
244.213046,155.672446
244.099123,155.588367
244.015044,155.474444
243.968280,155.340799
243.959999,155.252491
Z" /> 
<path style="fill:#000000; fill-opacity:1.000000; stroke:none;fill-rule:evenodd;"
d="M 243.959992,156.842492
243.968273,156.754184
244.015037,156.620539
244.099116,156.506616
244.213039,156.422537
244.346684,156.375773
244.434992,156.367492
247.084992,156.367492
247.173300,156.375773
247.306945,156.422537
247.420868,156.506616
247.504947,156.620539
247.551711,156.754184
247.559992,156.842492
247.559992,157.792492
247.551711,157.880800
247.504947,158.014445
247.420868,158.128368
247.306945,158.212447
247.173300,158.259211
247.084992,158.267492
244.434992,158.267492
244.346684,158.259211
244.213039,158.212447
244.099116,158.128368
244.015037,158.014445
243.968273,157.880800
243.959992,157.792492
Z" /> 
<path style="fill:#000000; fill-opacity:1.000000; stroke:none;fill-rule:evenodd;"
d="M 243.959995,159.382484
243.968276,159.294176
244.015040,159.160531
244.099119,159.046608
244.213042,158.962529
244.346687,158.915765
244.434995,158.907484
247.084995,158.907484
247.173303,158.915765
247.306948,158.962529
247.420871,159.046608
247.504950,159.160531
247.551714,159.294176
247.559995,159.382484
247.559995,160.332484
247.551714,160.420792
247.504950,160.554437
247.420871,160.668360
247.306948,160.752439
247.173303,160.799203
247.084995,160.807484
244.434995,160.807484
244.346687,160.799203
244.213042,160.752439
244.099119,160.668360
244.015040,160.554437
243.968276,160.420792
243.959995,160.332484
Z" /> 
<path style="fill:#000000; fill-opacity:1.000000; stroke:none;fill-rule:evenodd;"
d="M 243.960004,161.922483
243.968285,161.834175
244.015049,161.700530
244.099128,161.586607
244.213051,161.502528
244.346696,161.455764
244.435004,161.447483
247.085004,161.447483
247.173312,161.455764
247.306957,161.502528
247.420880,161.586607
247.504959,161.700530
247.551723,161.834175
247.560004,161.922483
247.560004,162.872483
247.551723,162.960791
247.504959,163.094436
247.420880,163.208359
247.306957,163.292438
247.173312,163.339202
247.085004,163.347483
244.435004,163.347483
244.346696,163.339202
244.213051,163.292438
244.099128,163.208359
244.015049,163.094436
243.968285,162.960791
243.960004,162.872483
Z" /> 
<path style="fill:#000000; fill-opacity:1.000000; stroke:none;fill-rule:evenodd;"
d="M 243.959999,164.462486
243.968280,164.374178
244.015044,164.240533
244.099123,164.126610
244.213046,164.042531
244.346691,163.995767
244.434999,163.987486
247.084999,163.987486
247.173307,163.995767
247.306952,164.042531
247.420875,164.126610
247.504954,164.240533
247.551718,164.374178
247.559999,164.462486
247.559999,165.412486
247.551718,165.500794
247.504954,165.634439
247.420875,165.748362
247.306952,165.832441
247.173307,165.879205
247.084999,165.887486
244.434999,165.887486
244.346691,165.879205
244.213046,165.832441
244.099123,165.748362
244.015044,165.634439
243.968280,165.500794
243.959999,165.412486
Z" /> 
<path style="fill:#000000; fill-opacity:1.000000; stroke:none;fill-rule:evenodd;"
d="M 231.285000,168.037484
231.196692,168.029203
231.063047,167.982439
230.949124,167.898360
230.865045,167.784437
230.818281,167.650792
230.810000,167.562484
230.810000,164.912484
230.818281,164.824176
230.865045,164.690531
230.949124,164.576608
231.063047,164.492529
231.196692,164.445765
231.285000,164.437484
232.235000,164.437484
232.323308,164.445765
232.456953,164.492529
232.570876,164.576608
232.654955,164.690531
232.701719,164.824176
232.710000,164.912484
232.710000,167.562484
232.701719,167.650792
232.654955,167.784437
232.570876,167.898360
232.456953,167.982439
232.323308,168.029203
232.235000,168.037484
Z" /> 
<path style="fill:#000000; fill-opacity:1.000000; stroke:none;fill-rule:evenodd;"
d="M 233.824993,168.037485
233.736685,168.029204
233.603040,167.982440
233.489117,167.898361
233.405038,167.784438
233.358274,167.650793
233.349993,167.562485
233.349993,164.912485
233.358274,164.824177
233.405038,164.690532
233.489117,164.576609
233.603040,164.492530
233.736685,164.445766
233.824993,164.437485
234.774993,164.437485
234.863301,164.445766
234.996946,164.492530
235.110869,164.576609
235.194948,164.690532
235.241712,164.824177
235.249993,164.912485
235.249993,167.562485
235.241712,167.650793
235.194948,167.784438
235.110869,167.898361
234.996946,167.982440
234.863301,168.029204
234.774993,168.037485
Z" /> 
<path style="fill:#000000; fill-opacity:1.000000; stroke:none;fill-rule:evenodd;"
d="M 236.364998,168.037489
236.276690,168.029208
236.143045,167.982444
236.029122,167.898365
235.945043,167.784442
235.898279,167.650797
235.889998,167.562489
235.889998,164.912489
235.898279,164.824181
235.945043,164.690536
236.029122,164.576613
236.143045,164.492534
236.276690,164.445770
236.364998,164.437489
237.314998,164.437489
237.403306,164.445770
237.536951,164.492534
237.650874,164.576613
237.734953,164.690536
237.781717,164.824181
237.789998,164.912489
237.789998,167.562489
237.781717,167.650797
237.734953,167.784442
237.650874,167.898365
237.536951,167.982444
237.403306,168.029208
237.314998,168.037489
Z" /> 
<path style="fill:#000000; fill-opacity:1.000000; stroke:none;fill-rule:evenodd;"
d="M 238.905000,168.037489
238.816692,168.029208
238.683047,167.982444
238.569124,167.898365
238.485045,167.784442
238.438281,167.650797
238.430000,167.562489
238.430000,164.912489
238.438281,164.824181
238.485045,164.690536
238.569124,164.576613
238.683047,164.492534
238.816692,164.445770
238.905000,164.437489
239.855000,164.437489
239.943308,164.445770
240.076953,164.492534
240.190876,164.576613
240.274955,164.690536
240.321719,164.824181
240.330000,164.912489
240.330000,167.562489
240.321719,167.650797
240.274955,167.784442
240.190876,167.898365
240.076953,167.982444
239.943308,168.029208
239.855000,168.037489
Z" /> 
<path style="fill:#000000; fill-opacity:1.000000; stroke:none;fill-rule:evenodd;"
d="M 241.445001,168.037489
241.356693,168.029208
241.223048,167.982444
241.109125,167.898365
241.025046,167.784442
240.978282,167.650797
240.970001,167.562489
240.970001,164.912489
240.978282,164.824181
241.025046,164.690536
241.109125,164.576613
241.223048,164.492534
241.356693,164.445770
241.445001,164.437489
242.395001,164.437489
242.483309,164.445770
242.616954,164.492534
242.730877,164.576613
242.814956,164.690536
242.861720,164.824181
242.870001,164.912489
242.870001,167.562489
242.861720,167.650797
242.814956,167.784442
242.730877,167.898365
242.616954,167.982444
242.483309,168.029208
242.395001,168.037489
Z" /> 
<path style="fill:#000000; fill-opacity:1.000000; stroke:none;fill-rule:evenodd;"
d="M 247.559999,134.932494
247.551718,135.020802
247.504954,135.154447
247.420875,135.268370
247.306952,135.352449
247.173307,135.399213
247.084999,135.407494
244.434999,135.407494
244.346691,135.399213
244.213046,135.352449
244.099123,135.268370
244.015044,135.154447
243.968280,135.020802
243.959999,134.932494
243.959999,133.982494
243.968280,133.894186
244.015044,133.760541
244.099123,133.646618
244.213046,133.562539
244.346691,133.515775
244.434999,133.507494
247.084999,133.507494
247.173307,133.515775
247.306952,133.562539
247.420875,133.646618
247.504954,133.760541
247.551718,133.894186
247.559999,133.982494
Z" /> 
<path style="fill:#000000; fill-opacity:1.000000; stroke:none;fill-rule:evenodd;"
d="M 226.119992,133.982492
226.128273,133.894184
226.175037,133.760539
226.259116,133.646616
226.373039,133.562537
226.506684,133.515773
226.594992,133.507492
229.244992,133.507492
229.333300,133.515773
229.466945,133.562537
229.580868,133.646616
229.664947,133.760539
229.711711,133.894184
229.719992,133.982492
229.719992,134.932492
229.711711,135.020800
229.664947,135.154445
229.580868,135.268368
229.466945,135.352447
229.333300,135.399211
229.244992,135.407492
226.594992,135.407492
226.506684,135.399211
226.373039,135.352447
226.259116,135.268368
226.175037,135.154445
226.128273,135.020800
226.119992,134.932492
Z" /> 
</g>
<g style="fill:#000000; fill-opacity:1.000000; stroke:none;">
<circle cx="235.570001" cy="142.077483" r="0.950000" /> 
</g>
<g style="fill:#000000; fill-opacity:1.000000; stroke:none;">
<circle cx="238.110001" cy="142.077484" r="0.950000" /> 
</g>
<g style="fill:#000000; fill-opacity:1.000000; stroke:none;">
<circle cx="231.760001" cy="162.397492" r="0.950000" /> 
</g>
<g style="fill:#000000; fill-opacity:1.000000; stroke:none;">
<circle cx="290.984114" cy="108.738439" r="0.900900" /> 
</g>
<g style="fill:#000000; fill-opacity:1.000000; stroke:none;">
<circle cx="292.634057" cy="100.805586" r="1.550000" /> 
</g>
<g style="fill:#000000; fill-opacity:1.000000; stroke:none;">
<circle cx="295.698535" cy="105.905728" r="1.764500" /> 
</g>
<g style="fill:#000000; fill-opacity:1.000000; stroke:none;">
<circle cx="298.052983" cy="100.116164" r="1.550000" /> 
</g>
<g style="fill:#000000; fill-opacity:1.000000; stroke:none;">
<circle cx="300.412956" cy="103.073017" r="0.900900" /> 
</g>
<g style="fill:#000000; fill-opacity:1.000000; stroke:none;">
<circle cx="298.737261" cy="110.963015" r="1.066000" /> 
</g>
<g style="fill:#000000; fill-opacity:1.000000; stroke:none;">
<circle cx="293.369844" cy="111.738158" r="1.066000" /> 
</g>
<g style="fill:#000000; fill-opacity:1.000000; stroke:none;">
<circle cx="284.708736" cy="168.458543" r="0.900900" /> 
</g>
<g style="fill:#000000; fill-opacity:1.000000; stroke:none;">
<circle cx="285.661005" cy="160.412077" r="1.550000" /> 
</g>
<g style="fill:#000000; fill-opacity:1.000000; stroke:none;">
<circle cx="289.158328" cy="165.225726" r="1.764500" /> 
</g>
<g style="fill:#000000; fill-opacity:1.000000; stroke:none;">
<circle cx="290.999220" cy="159.252988" r="1.550000" /> 
</g>
<g style="fill:#000000; fill-opacity:1.000000; stroke:none;">
<circle cx="293.607920" cy="161.992909" r="0.900900" /> 
</g>
<g style="fill:#000000; fill-opacity:1.000000; stroke:none;">
<circle cx="292.626260" cy="169.998927" r="1.066000" /> 
</g>
<g style="fill:#000000; fill-opacity:1.000000; stroke:none;">
<circle cx="287.346825" cy="171.238919" r="1.066000" /> 
</g>
<g style="fill:#000000; fill-opacity:1.000000; stroke:none;">
<circle cx="95.621779" cy="137.312606" r="0.900900" /> 
</g>
<g style="fill:#000000; fill-opacity:1.000000; stroke:none;">
<circle cx="101.091654" cy="137.887513" r="1.764500" /> 
</g>
<g style="fill:#000000; fill-opacity:1.000000; stroke:none;">
<circle cx="101.713602" cy="131.970104" r="1.550000" /> 
</g>
<g style="fill:#000000; fill-opacity:1.000000; stroke:none;">
<circle cx="106.456246" cy="134.680698" r="1.550000" /> 
</g>
<g style="fill:#000000; fill-opacity:1.000000; stroke:none;">
<circle cx="106.561529" cy="138.462420" r="0.900900" /> 
</g>
<g style="fill:#000000; fill-opacity:1.000000; stroke:none;">
<circle cx="100.474939" cy="143.755191" r="1.066000" /> 
</g>
<g style="fill:#000000; fill-opacity:1.000000; stroke:none;">
<circle cx="95.721835" cy="141.144055" r="1.066000" /> 
</g>
<g style="fill:#000000; fill-opacity:1.000000; stroke:none;">
<circle cx="199.609635" cy="165.696389" r="0.900900" /> 
</g>
<g style="fill:#000000; fill-opacity:1.000000; stroke:none;">
<circle cx="207.556548" cy="164.115552" r="1.550000" /> 
</g>
<g style="fill:#000000; fill-opacity:1.000000; stroke:none;">
<circle cx="204.059227" cy="168.929206" r="1.764500" /> 
</g>
<g style="fill:#000000; fill-opacity:1.000000; stroke:none;">
<circle cx="210.308510" cy="168.834324" r="1.550000" /> 
</g>
<g style="fill:#000000; fill-opacity:1.000000; stroke:none;">
<circle cx="208.508819" cy="172.162023" r="0.900900" /> 
</g>
<g style="fill:#000000; fill-opacity:1.000000; stroke:none;">
<circle cx="200.591298" cy="173.702404" r="1.066000" /> 
</g>
<g style="fill:#000000; fill-opacity:1.000000; stroke:none;">
<circle cx="197.780562" cy="169.064541" r="1.066000" /> 
</g>
<g style="fill:#000000; fill-opacity:1.000000; stroke:none;">
<circle cx="200.035848" cy="134.486323" r="0.900900" /> 
</g>
<g style="fill:#000000; fill-opacity:1.000000; stroke:none;">
<circle cx="207.982761" cy="132.905486" r="1.550000" /> 
</g>
<g style="fill:#000000; fill-opacity:1.000000; stroke:none;">
<circle cx="204.485440" cy="137.719140" r="1.764500" /> 
</g>
<g style="fill:#000000; fill-opacity:1.000000; stroke:none;">
<circle cx="210.734723" cy="137.624258" r="1.550000" /> 
</g>
<g style="fill:#000000; fill-opacity:1.000000; stroke:none;">
<circle cx="208.935032" cy="140.951957" r="0.900900" /> 
</g>
<g style="fill:#000000; fill-opacity:1.000000; stroke:none;">
<circle cx="201.017511" cy="142.492338" r="1.066000" /> 
</g>
<g style="fill:#000000; fill-opacity:1.000000; stroke:none;">
<circle cx="198.206775" cy="137.854475" r="1.066000" /> 
</g>
<g style="fill:#000000; fill-opacity:1.000000; stroke:none;">
<circle cx="363.543562" cy="104.648676" r="0.900900" /> 
</g>
<g style="fill:#000000; fill-opacity:1.000000; stroke:none;">
<circle cx="368.391486" cy="98.156363" r="1.550000" /> 
</g>
<g style="fill:#000000; fill-opacity:1.000000; stroke:none;">
<circle cx="369.013434" cy="104.073767" r="1.764500" /> 
</g>
<g style="fill:#000000; fill-opacity:1.000000; stroke:none;">
<circle cx="373.594063" cy="99.821669" r="1.550000" /> 
</g>
<g style="fill:#000000; fill-opacity:1.000000; stroke:none;">
<circle cx="374.483306" cy="103.498858" r="0.900900" /> 
</g>
<g style="fill:#000000; fill-opacity:1.000000; stroke:none;">
<circle cx="369.630152" cy="109.941444" r="1.066000" /> 
</g>
<g style="fill:#000000; fill-opacity:1.000000; stroke:none;">
<circle cx="364.438035" cy="108.375594" r="1.066000" /> 
</g>
<g style="fill:#000000; fill-opacity:1.000000; stroke:none;">
<circle cx="114.814876" cy="134.608916" r="0.900900" /> 
</g>
<g style="fill:#000000; fill-opacity:1.000000; stroke:none;">
<circle cx="121.349135" cy="129.817678" r="1.550000" /> 
</g>
<g style="fill:#000000; fill-opacity:1.000000; stroke:none;">
<circle cx="120.213823" cy="135.658363" r="1.764500" /> 
</g>
<g style="fill:#000000; fill-opacity:1.000000; stroke:none;">
<circle cx="125.837492" cy="132.931304" r="1.550000" /> 
</g>
<g style="fill:#000000; fill-opacity:1.000000; stroke:none;">
<circle cx="125.612770" cy="136.707810" r="0.900900" /> 
</g>
<g style="fill:#000000; fill-opacity:1.000000; stroke:none;">
<circle cx="119.088049" cy="141.449965" r="1.066000" /> 
</g>
<g style="fill:#000000; fill-opacity:1.000000; stroke:none;">
<circle cx="114.580612" cy="138.434501" r="1.066000" /> 
</g>
<g style="fill:#000000; fill-opacity:1.000000; stroke:none;">
<circle cx="303.326917" cy="186.109597" r="0.900900" /> 
</g>
<g style="fill:#000000; fill-opacity:1.000000; stroke:none;">
<circle cx="306.788178" cy="181.835294" r="1.764500" /> 
</g>
<g style="fill:#000000; fill-opacity:1.000000; stroke:none;">
<circle cx="302.164165" cy="178.090837" r="1.550000" /> 
</g>
<g style="fill:#000000; fill-opacity:1.000000; stroke:none;">
<circle cx="307.020488" cy="175.589611" r="1.550000" /> 
</g>
<g style="fill:#000000; fill-opacity:1.000000; stroke:none;">
<circle cx="310.249439" cy="177.560991" r="0.900900" /> 
</g>
<g style="fill:#000000; fill-opacity:1.000000; stroke:none;">
<circle cx="311.373337" cy="185.548285" r="1.066000" /> 
</g>
<g style="fill:#000000; fill-opacity:1.000000; stroke:none;">
<circle cx="306.594731" cy="188.112440" r="1.066000" /> 
</g>
<g style="fill:#000000; fill-opacity:1.000000; stroke:none;">
<circle cx="190.043506" cy="148.239619" r="0.900900" /> 
</g>
<g style="fill:#000000; fill-opacity:1.000000; stroke:none;">
<circle cx="197.990419" cy="146.658782" r="1.550000" /> 
</g>
<g style="fill:#000000; fill-opacity:1.000000; stroke:none;">
<circle cx="194.493098" cy="151.472436" r="1.764500" /> 
</g>
<g style="fill:#000000; fill-opacity:1.000000; stroke:none;">
<circle cx="200.742381" cy="151.377554" r="1.550000" /> 
</g>
<g style="fill:#000000; fill-opacity:1.000000; stroke:none;">
<circle cx="198.942690" cy="154.705253" r="0.900900" /> 
</g>
<g style="fill:#000000; fill-opacity:1.000000; stroke:none;">
<circle cx="191.025169" cy="156.245634" r="1.066000" /> 
</g>
<g style="fill:#000000; fill-opacity:1.000000; stroke:none;">
<circle cx="188.214433" cy="151.607771" r="1.066000" /> 
</g>
<g style="fill:#000000; fill-opacity:1.000000; stroke:none;">
<circle cx="121.302374" cy="101.233593" r="0.900900" /> 
</g>
<g style="fill:#000000; fill-opacity:1.000000; stroke:none;">
<circle cx="127.836633" cy="96.442355" r="1.550000" /> 
</g>
<g style="fill:#000000; fill-opacity:1.000000; stroke:none;">
<circle cx="126.701321" cy="102.283040" r="1.764500" /> 
</g>
<g style="fill:#000000; fill-opacity:1.000000; stroke:none;">
<circle cx="132.324990" cy="99.555981" r="1.550000" /> 
</g>
<g style="fill:#000000; fill-opacity:1.000000; stroke:none;">
<circle cx="132.100268" cy="103.332487" r="0.900900" /> 
</g>
<g style="fill:#000000; fill-opacity:1.000000; stroke:none;">
<circle cx="125.575547" cy="108.074642" r="1.066000" /> 
</g>
<g style="fill:#000000; fill-opacity:1.000000; stroke:none;">
<circle cx="121.068110" cy="105.059178" r="1.066000" /> 
</g>
<g style="fill:#000000; fill-opacity:1.000000; stroke:none;">
<circle cx="348.046287" cy="136.707816" r="0.900900" /> 
</g>
<g style="fill:#000000; fill-opacity:1.000000; stroke:none;">
<circle cx="352.309927" cy="129.817684" r="1.550000" /> 
</g>
<g style="fill:#000000; fill-opacity:1.000000; stroke:none;">
<circle cx="353.445242" cy="135.658363" r="1.764500" /> 
</g>
<g style="fill:#000000; fill-opacity:1.000000; stroke:none;">
<circle cx="357.637849" cy="131.023217" r="1.550000" /> 
</g>
<g style="fill:#000000; fill-opacity:1.000000; stroke:none;">
<circle cx="358.844197" cy="134.608910" r="0.900900" /> 
</g>
<g style="fill:#000000; fill-opacity:1.000000; stroke:none;">
<circle cx="354.571013" cy="141.449965" r="1.066000" /> 
</g>
<g style="fill:#000000; fill-opacity:1.000000; stroke:none;">
<circle cx="349.262181" cy="140.342591" r="1.066000" /> 
</g>
<g style="fill:#000000; fill-opacity:1.000000; stroke:none;">
<circle cx="173.830005" cy="191.147491" r="2.050000" /> 
</g>
<g style="fill:#000000; fill-opacity:1.000000; stroke:none;">
<circle cx="216.829997" cy="143.647487" r="2.050000" /> 
</g>
<g style="fill:#000000; fill-opacity:1.000000; stroke:none;">
<circle cx="327.227844" cy="132.890138" r="0.900900" /> 
</g>
<g style="fill:#000000; fill-opacity:1.000000; stroke:none;">
<circle cx="329.562895" cy="125.131278" r="1.550000" /> 
</g>
<g style="fill:#000000; fill-opacity:1.000000; stroke:none;">
<circle cx="332.171206" cy="130.479098" r="1.764500" /> 
</g>
<g style="fill:#000000; fill-opacity:1.000000; stroke:none;">
<circle cx="335.021282" cy="124.916765" r="1.550000" /> 
</g>
<g style="fill:#000000; fill-opacity:1.000000; stroke:none;">
<circle cx="337.114568" cy="128.068058" r="0.900900" /> 
</g>
<g style="fill:#000000; fill-opacity:1.000000; stroke:none;">
<circle cx="334.757596" cy="135.781986" r="1.066000" /> 
</g>
<g style="fill:#000000; fill-opacity:1.000000; stroke:none;">
<circle cx="329.343041" cy="136.086372" r="1.066000" /> 
</g>
<g style="fill:#000000; fill-opacity:1.000000; stroke:none;">
<circle cx="308.495404" cy="137.882126" r="0.900900" /> 
</g>
<g style="fill:#000000; fill-opacity:1.000000; stroke:none;">
<circle cx="310.145347" cy="129.949273" r="1.550000" /> 
</g>
<g style="fill:#000000; fill-opacity:1.000000; stroke:none;">
<circle cx="313.209825" cy="135.049415" r="1.764500" /> 
</g>
<g style="fill:#000000; fill-opacity:1.000000; stroke:none;">
<circle cx="315.564273" cy="129.259851" r="1.550000" /> 
</g>
<g style="fill:#000000; fill-opacity:1.000000; stroke:none;">
<circle cx="317.924246" cy="132.216704" r="0.900900" /> 
</g>
<g style="fill:#000000; fill-opacity:1.000000; stroke:none;">
<circle cx="316.248551" cy="140.106702" r="1.066000" /> 
</g>
<g style="fill:#000000; fill-opacity:1.000000; stroke:none;">
<circle cx="310.881134" cy="140.881845" r="1.066000" /> 
<path style="fill:#000000; fill-opacity:1.000000; stroke:none;fill-rule:evenodd;"
d="M 245.315002,182.705216
245.334136,182.709022
245.350357,182.719861
245.361196,182.736082
245.365002,182.755216
245.365002,184.455216
245.361196,184.474350
245.350357,184.490571
245.334136,184.501410
245.315002,184.505216
243.615002,184.505216
243.595868,184.501410
243.579647,184.490571
243.568808,184.474350
243.565002,184.455216
243.565002,182.755216
243.568808,182.736082
243.579647,182.719861
243.595868,182.709022
243.615002,182.705216
Z" /> 
</g>
<g style="fill:#000000; fill-opacity:1.000000; stroke:none;">
<circle cx="241.925002" cy="183.605215" r="0.900000" /> 
<circle cx="239.384999" cy="183.605218" r="0.900000" /> 
<circle cx="236.844998" cy="183.605219" r="0.900000" /> 
<circle cx="234.305004" cy="183.605215" r="0.900000" /> 
<circle cx="231.765002" cy="183.605217" r="0.900000" /> 
<circle cx="229.225009" cy="183.605217" r="0.900000" /> 
<circle cx="265.150242" cy="172.162030" r="0.900900" /> 
</g>
<g style="fill:#000000; fill-opacity:1.000000; stroke:none;">
<circle cx="266.102511" cy="164.115564" r="1.550000" /> 
</g>
<g style="fill:#000000; fill-opacity:1.000000; stroke:none;">
<circle cx="269.599834" cy="168.929213" r="1.764500" /> 
</g>
<g style="fill:#000000; fill-opacity:1.000000; stroke:none;">
<circle cx="271.440726" cy="162.956475" r="1.550000" /> 
</g>
<g style="fill:#000000; fill-opacity:1.000000; stroke:none;">
<circle cx="274.049426" cy="165.696396" r="0.900900" /> 
</g>
<g style="fill:#000000; fill-opacity:1.000000; stroke:none;">
<circle cx="273.067766" cy="173.702414" r="1.066000" /> 
</g>
<g style="fill:#000000; fill-opacity:1.000000; stroke:none;">
<circle cx="267.788331" cy="174.942406" r="1.066000" /> 
</g>
<g style="fill:#000000; fill-opacity:1.000000; stroke:none;">
<circle cx="312.323224" cy="102.331137" r="0.900900" /> 
</g>
<g style="fill:#000000; fill-opacity:1.000000; stroke:none;">
<circle cx="314.658275" cy="94.572277" r="1.550000" /> 
</g>
<g style="fill:#000000; fill-opacity:1.000000; stroke:none;">
<circle cx="317.266586" cy="99.920097" r="1.764500" /> 
</g>
<g style="fill:#000000; fill-opacity:1.000000; stroke:none;">
<circle cx="320.116662" cy="94.357764" r="1.550000" /> 
</g>
<g style="fill:#000000; fill-opacity:1.000000; stroke:none;">
<circle cx="322.209948" cy="97.509057" r="0.900900" /> 
</g>
<g style="fill:#000000; fill-opacity:1.000000; stroke:none;">
<circle cx="319.852976" cy="105.222985" r="1.066000" /> 
</g>
<g style="fill:#000000; fill-opacity:1.000000; stroke:none;">
<circle cx="314.438421" cy="105.527371" r="1.066000" /> 
</g>
<g style="fill:#000000; fill-opacity:1.000000; stroke:none;">
<circle cx="177.479671" cy="134.908828" r="0.900900" /> 
</g>
<g style="fill:#000000; fill-opacity:1.000000; stroke:none;">
<circle cx="185.426584" cy="133.327991" r="1.550000" /> 
</g>
<g style="fill:#000000; fill-opacity:1.000000; stroke:none;">
<circle cx="181.929263" cy="138.141645" r="1.764500" /> 
</g>
<g style="fill:#000000; fill-opacity:1.000000; stroke:none;">
<circle cx="188.178546" cy="138.046763" r="1.550000" /> 
</g>
<g style="fill:#000000; fill-opacity:1.000000; stroke:none;">
<circle cx="186.378855" cy="141.374462" r="0.900900" /> 
</g>
<g style="fill:#000000; fill-opacity:1.000000; stroke:none;">
<circle cx="178.461334" cy="142.914843" r="1.066000" /> 
</g>
<g style="fill:#000000; fill-opacity:1.000000; stroke:none;">
<circle cx="175.650598" cy="138.276980" r="1.066000" /> 
</g>
<g style="fill:#000000; fill-opacity:1.000000; stroke:none;">
<circle cx="187.472018" cy="121.155540" r="0.900900" /> 
</g>
<g style="fill:#000000; fill-opacity:1.000000; stroke:none;">
<circle cx="195.418931" cy="119.574703" r="1.550000" /> 
</g>
<g style="fill:#000000; fill-opacity:1.000000; stroke:none;">
<circle cx="191.921610" cy="124.388357" r="1.764500" /> 
</g>
<g style="fill:#000000; fill-opacity:1.000000; stroke:none;">
<circle cx="198.170893" cy="124.293475" r="1.550000" /> 
</g>
<g style="fill:#000000; fill-opacity:1.000000; stroke:none;">
<circle cx="196.371202" cy="127.621174" r="0.900900" /> 
</g>
<g style="fill:#000000; fill-opacity:1.000000; stroke:none;">
<circle cx="188.453681" cy="129.161555" r="1.066000" /> 
</g>
<g style="fill:#000000; fill-opacity:1.000000; stroke:none;">
<circle cx="185.642945" cy="124.523692" r="1.066000" /> 
</g>
<g style="fill:#000000; fill-opacity:1.000000; stroke:none;">
<circle cx="274.716368" cy="154.705246" r="0.900900" /> 
</g>
<g style="fill:#000000; fill-opacity:1.000000; stroke:none;">
<circle cx="275.668637" cy="146.658780" r="1.550000" /> 
</g>
<g style="fill:#000000; fill-opacity:1.000000; stroke:none;">
<circle cx="279.165960" cy="151.472429" r="1.764500" /> 
</g>
<g style="fill:#000000; fill-opacity:1.000000; stroke:none;">
<circle cx="281.006852" cy="145.499691" r="1.550000" /> 
</g>
<g style="fill:#000000; fill-opacity:1.000000; stroke:none;">
<circle cx="283.615552" cy="148.239612" r="0.900900" /> 
</g>
<g style="fill:#000000; fill-opacity:1.000000; stroke:none;">
<circle cx="282.633892" cy="156.245630" r="1.066000" /> 
</g>
<g style="fill:#000000; fill-opacity:1.000000; stroke:none;">
<circle cx="277.354457" cy="157.485622" r="1.066000" /> 
</g>
<g style="fill:#000000; fill-opacity:1.000000; stroke:none;">
<circle cx="164.490465" cy="117.644865" r="0.900900" /> 
</g>
<g style="fill:#000000; fill-opacity:1.000000; stroke:none;">
<circle cx="172.269359" cy="115.377424" r="1.550000" /> 
</g>
<g style="fill:#000000; fill-opacity:1.000000; stroke:none;">
<circle cx="169.204883" cy="120.477573" r="1.764500" /> 
</g>
<g style="fill:#000000; fill-opacity:1.000000; stroke:none;">
<circle cx="175.422115" cy="119.838386" r="1.550000" /> 
</g>
<g style="fill:#000000; fill-opacity:1.000000; stroke:none;">
<circle cx="173.919301" cy="123.310281" r="0.900900" /> 
</g>
<g style="fill:#000000; fill-opacity:1.000000; stroke:none;">
<circle cx="166.166160" cy="125.534858" r="1.066000" /> 
</g>
<g style="fill:#000000; fill-opacity:1.000000; stroke:none;">
<circle cx="162.961896" cy="121.159618" r="1.066000" /> 
</g>
<g style="fill:#000000; fill-opacity:1.000000; stroke:none;">
<circle cx="367.097541" cy="138.462419" r="0.900900" /> 
</g>
<g style="fill:#000000; fill-opacity:1.000000; stroke:none;">
<circle cx="371.945465" cy="131.970106" r="1.550000" /> 
</g>
<g style="fill:#000000; fill-opacity:1.000000; stroke:none;">
<circle cx="372.567413" cy="137.887510" r="1.764500" /> 
</g>
<g style="fill:#000000; fill-opacity:1.000000; stroke:none;">
<circle cx="377.148042" cy="133.635412" r="1.550000" /> 
</g>
<g style="fill:#000000; fill-opacity:1.000000; stroke:none;">
<circle cx="378.037285" cy="137.312601" r="0.900900" /> 
</g>
<g style="fill:#000000; fill-opacity:1.000000; stroke:none;">
<circle cx="373.184131" cy="143.755187" r="1.066000" /> 
</g>
<g style="fill:#000000; fill-opacity:1.000000; stroke:none;">
<circle cx="367.992014" cy="142.189337" r="1.066000" /> 
</g>
<g style="fill:#000000; fill-opacity:1.000000; stroke:none;">
<circle cx="116.830003" cy="93.647495" r="2.050000" /> 
</g>
<g style="fill:#000000; fill-opacity:1.000000; stroke:none;">
<circle cx="111.829996" cy="150.147488" r="2.050000" /> 
</g>
<g style="fill:#000000; fill-opacity:1.000000; stroke:none;">
<circle cx="344.802545" cy="120.020143" r="0.900900" /> 
</g>
<g style="fill:#000000; fill-opacity:1.000000; stroke:none;">
<circle cx="349.066185" cy="113.130011" r="1.550000" /> 
</g>
<g style="fill:#000000; fill-opacity:1.000000; stroke:none;">
<circle cx="350.201500" cy="118.970690" r="1.764500" /> 
</g>
<g style="fill:#000000; fill-opacity:1.000000; stroke:none;">
<circle cx="354.394107" cy="114.335544" r="1.550000" /> 
</g>
<g style="fill:#000000; fill-opacity:1.000000; stroke:none;">
<circle cx="355.600455" cy="117.921237" r="0.900900" /> 
</g>
<g style="fill:#000000; fill-opacity:1.000000; stroke:none;">
<circle cx="351.327271" cy="124.762292" r="1.066000" /> 
</g>
<g style="fill:#000000; fill-opacity:1.000000; stroke:none;">
<circle cx="346.018439" cy="123.654918" r="1.066000" /> 
</g>
<g style="fill:#000000; fill-opacity:1.000000; stroke:none;">
<circle cx="167.487326" cy="148.662116" r="0.900900" /> 
</g>
<g style="fill:#000000; fill-opacity:1.000000; stroke:none;">
<circle cx="175.434239" cy="147.081279" r="1.550000" /> 
</g>
<g style="fill:#000000; fill-opacity:1.000000; stroke:none;">
<circle cx="171.936918" cy="151.894933" r="1.764500" /> 
</g>
<g style="fill:#000000; fill-opacity:1.000000; stroke:none;">
<circle cx="178.186201" cy="151.800051" r="1.550000" /> 
</g>
<g style="fill:#000000; fill-opacity:1.000000; stroke:none;">
<circle cx="176.386510" cy="155.127750" r="0.900900" /> 
</g>
<g style="fill:#000000; fill-opacity:1.000000; stroke:none;">
<circle cx="168.468989" cy="156.668131" r="1.066000" /> 
</g>
<g style="fill:#000000; fill-opacity:1.000000; stroke:none;">
<circle cx="165.658253" cy="152.030268" r="1.066000" /> 
</g>
<g style="fill:#000000; fill-opacity:1.000000; stroke:none;">
<circle cx="151.449123" cy="97.509050" r="0.900900" /> 
</g>
<g style="fill:#000000; fill-opacity:1.000000; stroke:none;">
<circle cx="159.000797" cy="94.572264" r="1.550000" /> 
</g>
<g style="fill:#000000; fill-opacity:1.000000; stroke:none;">
<circle cx="156.392490" cy="99.920090" r="1.764500" /> 
</g>
<g style="fill:#000000; fill-opacity:1.000000; stroke:none;">
<circle cx="162.530355" cy="98.741467" r="1.550000" /> 
</g>
<g style="fill:#000000; fill-opacity:1.000000; stroke:none;">
<circle cx="161.335857" cy="102.331130" r="0.900900" /> 
</g>
<g style="fill:#000000; fill-opacity:1.000000; stroke:none;">
<circle cx="153.806101" cy="105.222973" r="1.066000" /> 
</g>
<g style="fill:#000000; fill-opacity:1.000000; stroke:none;">
<circle cx="150.232707" cy="101.143650" r="1.066000" /> 
</g>
<g style="fill:#000000; fill-opacity:1.000000; stroke:none;">
<circle cx="180.051154" cy="161.992900" r="0.900900" /> 
</g>
<g style="fill:#000000; fill-opacity:1.000000; stroke:none;">
<circle cx="187.998067" cy="160.412063" r="1.550000" /> 
</g>
<g style="fill:#000000; fill-opacity:1.000000; stroke:none;">
<circle cx="184.500746" cy="165.225717" r="1.764500" /> 
</g>
<g style="fill:#000000; fill-opacity:1.000000; stroke:none;">
<circle cx="190.750029" cy="165.130835" r="1.550000" /> 
</g>
<g style="fill:#000000; fill-opacity:1.000000; stroke:none;">
<circle cx="188.950338" cy="168.458534" r="0.900900" /> 
</g>
<g style="fill:#000000; fill-opacity:1.000000; stroke:none;">
<circle cx="181.032817" cy="169.998915" r="1.066000" /> 
</g>
<g style="fill:#000000; fill-opacity:1.000000; stroke:none;">
<circle cx="178.222081" cy="165.361052" r="1.066000" /> 
</g>
<g style="fill:#000000; fill-opacity:1.000000; stroke:none;">
<circle cx="163.409619" cy="177.560990" r="0.900900" /> 
</g>
<g style="fill:#000000; fill-opacity:1.000000; stroke:none;">
<circle cx="171.494893" cy="178.090834" r="1.550000" /> 
</g>
<g style="fill:#000000; fill-opacity:1.000000; stroke:none;">
<circle cx="166.870878" cy="181.835291" r="1.764500" /> 
</g>
<g style="fill:#000000; fill-opacity:1.000000; stroke:none;">
<circle cx="172.931774" cy="183.361069" r="1.550000" /> 
</g>
<g style="fill:#000000; fill-opacity:1.000000; stroke:none;">
<circle cx="170.332137" cy="186.109592" r="0.900900" /> 
</g>
<g style="fill:#000000; fill-opacity:1.000000; stroke:none;">
<circle cx="162.285720" cy="185.548280" r="1.066000" /> 
</g>
<g style="fill:#000000; fill-opacity:1.000000; stroke:none;">
<circle cx="160.771120" cy="180.340976" r="1.066000" /> 
</g>
<g style="fill:#000000; fill-opacity:1.000000; stroke:none;">
<circle cx="319.775530" cy="117.610634" r="0.900900" /> 
</g>
<g style="fill:#000000; fill-opacity:1.000000; stroke:none;">
<circle cx="322.110581" cy="109.851774" r="1.550000" /> 
</g>
<g style="fill:#000000; fill-opacity:1.000000; stroke:none;">
<circle cx="324.718892" cy="115.199594" r="1.764500" /> 
</g>
<g style="fill:#000000; fill-opacity:1.000000; stroke:none;">
<circle cx="327.568968" cy="109.637261" r="1.550000" /> 
</g>
<g style="fill:#000000; fill-opacity:1.000000; stroke:none;">
<circle cx="329.662254" cy="112.788554" r="0.900900" /> 
</g>
<g style="fill:#000000; fill-opacity:1.000000; stroke:none;">
<circle cx="327.305282" cy="120.502482" r="1.066000" /> 
</g>
<g style="fill:#000000; fill-opacity:1.000000; stroke:none;">
<circle cx="321.890727" cy="120.806868" r="1.066000" /> 
</g>
<g style="fill:#000000; fill-opacity:1.000000; stroke:none;">
<circle cx="190.330001" cy="109.647485" r="2.050000" /> 
</g>
<g style="fill:#000000; fill-opacity:1.000000; stroke:none;">
<circle cx="173.246112" cy="103.073027" r="0.900900" /> 
</g>
<g style="fill:#000000; fill-opacity:1.000000; stroke:none;">
<circle cx="181.025006" cy="100.805586" r="1.550000" /> 
</g>
<g style="fill:#000000; fill-opacity:1.000000; stroke:none;">
<circle cx="177.960530" cy="105.905735" r="1.764500" /> 
</g>
<g style="fill:#000000; fill-opacity:1.000000; stroke:none;">
<circle cx="184.177762" cy="105.266548" r="1.550000" /> 
</g>
<g style="fill:#000000; fill-opacity:1.000000; stroke:none;">
<circle cx="182.674948" cy="108.738443" r="0.900900" /> 
</g>
<g style="fill:#000000; fill-opacity:1.000000; stroke:none;">
<circle cx="174.921807" cy="110.963020" r="1.066000" /> 
</g>
<g style="fill:#000000; fill-opacity:1.000000; stroke:none;">
<circle cx="171.717543" cy="106.587780" r="1.066000" /> 
</g>
<g style="fill:#000000; fill-opacity:1.000000; stroke:none;">
<circle cx="285.805041" cy="197.125934" r="0.900900" /> 
</g>
<g style="fill:#000000; fill-opacity:1.000000; stroke:none;">
<circle cx="290.829542" cy="199.362988" r="1.764500" /> 
</g>
<g style="fill:#000000; fill-opacity:1.000000; stroke:none;">
<circle cx="293.249627" cy="193.927391" r="1.550000" /> 
</g>
<g style="fill:#000000; fill-opacity:1.000000; stroke:none;">
<circle cx="296.922533" cy="197.970880" r="1.550000" /> 
</g>
<g style="fill:#000000; fill-opacity:1.000000; stroke:none;">
<circle cx="295.854043" cy="201.600042" r="0.900900" /> 
</g>
<g style="fill:#000000; fill-opacity:1.000000; stroke:none;">
<circle cx="288.429795" cy="204.752905" r="1.066000" /> 
</g>
<g style="fill:#000000; fill-opacity:1.000000; stroke:none;">
<circle cx="284.716214" cy="200.800776" r="1.066000" /> 
</g>
<g style="fill:#000000; fill-opacity:1.000000; stroke:none;">
<circle cx="365.320556" cy="121.555556" r="0.900900" /> 
</g>
<g style="fill:#000000; fill-opacity:1.000000; stroke:none;">
<circle cx="370.168480" cy="115.063243" r="1.550000" /> 
</g>
<g style="fill:#000000; fill-opacity:1.000000; stroke:none;">
<circle cx="370.790428" cy="120.980647" r="1.764500" /> 
</g>
<g style="fill:#000000; fill-opacity:1.000000; stroke:none;">
<circle cx="375.371057" cy="116.728549" r="1.550000" /> 
</g>
<g style="fill:#000000; fill-opacity:1.000000; stroke:none;">
<circle cx="376.260300" cy="120.405738" r="0.900900" /> 
</g>
<g style="fill:#000000; fill-opacity:1.000000; stroke:none;">
<circle cx="371.407146" cy="126.848324" r="1.066000" /> 
</g>
<g style="fill:#000000; fill-opacity:1.000000; stroke:none;">
<circle cx="366.215029" cy="125.282474" r="1.066000" /> 
</g>
<g style="fill:#000000; fill-opacity:1.000000; stroke:none;">
<circle cx="177.805038" cy="201.600047" r="0.900900" /> 
</g>
<g style="fill:#000000; fill-opacity:1.000000; stroke:none;">
<circle cx="182.829541" cy="199.362994" r="1.764500" /> 
</g>
<g style="fill:#000000; fill-opacity:1.000000; stroke:none;">
<circle cx="180.409459" cy="193.927398" r="1.550000" /> 
</g>
<g style="fill:#000000; fill-opacity:1.000000; stroke:none;">
<circle cx="185.872008" cy="193.903515" r="1.550000" /> 
</g>
<g style="fill:#000000; fill-opacity:1.000000; stroke:none;">
<circle cx="187.854044" cy="197.125941" r="0.900900" /> 
</g>
<g style="fill:#000000; fill-opacity:1.000000; stroke:none;">
<circle cx="185.229287" cy="204.752910" r="1.066000" /> 
</g>
<g style="fill:#000000; fill-opacity:1.000000; stroke:none;">
<circle cx="179.807414" cy="204.868146" r="1.066000" /> 
</g>
<g style="fill:#000000; fill-opacity:1.000000; stroke:none;">
<circle cx="318.792825" cy="169.436113" r="0.900900" /> 
</g>
<g style="fill:#000000; fill-opacity:1.000000; stroke:none;">
<circle cx="319.745094" cy="161.389647" r="1.550000" /> 
</g>
<g style="fill:#000000; fill-opacity:1.000000; stroke:none;">
<circle cx="323.242417" cy="166.203296" r="1.764500" /> 
</g>
<g style="fill:#000000; fill-opacity:1.000000; stroke:none;">
<circle cx="325.083309" cy="160.230558" r="1.550000" /> 
</g>
<g style="fill:#000000; fill-opacity:1.000000; stroke:none;">
<circle cx="327.692009" cy="162.970479" r="0.900900" /> 
</g>
<g style="fill:#000000; fill-opacity:1.000000; stroke:none;">
<circle cx="326.710349" cy="170.976497" r="1.066000" /> 
</g>
<g style="fill:#000000; fill-opacity:1.000000; stroke:none;">
<circle cx="321.430914" cy="172.216489" r="1.066000" /> 
</g>
<g style="fill:#000000; fill-opacity:1.000000; stroke:none;">
<circle cx="264.724028" cy="140.951953" r="0.900900" /> 
</g>
<g style="fill:#000000; fill-opacity:1.000000; stroke:none;">
<circle cx="265.676297" cy="132.905487" r="1.550000" /> 
</g>
<g style="fill:#000000; fill-opacity:1.000000; stroke:none;">
<circle cx="269.173620" cy="137.719136" r="1.764500" /> 
</g>
<g style="fill:#000000; fill-opacity:1.000000; stroke:none;">
<circle cx="271.014512" cy="131.746398" r="1.550000" /> 
</g>
<g style="fill:#000000; fill-opacity:1.000000; stroke:none;">
<circle cx="273.623212" cy="134.486319" r="0.900900" /> 
</g>
<g style="fill:#000000; fill-opacity:1.000000; stroke:none;">
<circle cx="272.641552" cy="142.492337" r="1.066000" /> 
</g>
<g style="fill:#000000; fill-opacity:1.000000; stroke:none;">
<circle cx="267.362117" cy="143.732329" r="1.066000" /> 
</g>
<g style="fill:#000000; fill-opacity:1.000000; stroke:none;">
<circle cx="118.058627" cy="117.921252" r="0.900900" /> 
</g>
<g style="fill:#000000; fill-opacity:1.000000; stroke:none;">
<circle cx="124.592886" cy="113.130014" r="1.550000" /> 
</g>
<g style="fill:#000000; fill-opacity:1.000000; stroke:none;">
<circle cx="123.457574" cy="118.970699" r="1.764500" /> 
</g>
<g style="fill:#000000; fill-opacity:1.000000; stroke:none;">
<circle cx="129.081243" cy="116.243640" r="1.550000" /> 
</g>
<g style="fill:#000000; fill-opacity:1.000000; stroke:none;">
<circle cx="128.856521" cy="120.020146" r="0.900900" /> 
</g>
<g style="fill:#000000; fill-opacity:1.000000; stroke:none;">
<circle cx="122.331800" cy="124.762301" r="1.066000" /> 
</g>
<g style="fill:#000000; fill-opacity:1.000000; stroke:none;">
<circle cx="117.824363" cy="121.746837" r="1.066000" /> 
</g>
<g style="fill:#000000; fill-opacity:1.000000; stroke:none;">
<circle cx="361.810027" cy="150.102006" r="2.050000" /> 
</g>
<g style="fill:#000000; fill-opacity:1.000000; stroke:none;">
<circle cx="299.810033" cy="191.102007" r="2.050000" /> 
</g>
<g style="fill:#000000; fill-opacity:1.000000; stroke:none;">
<circle cx="256.810022" cy="143.602006" r="2.050000" /> 
</g>
<g style="fill:#000000; fill-opacity:1.000000; stroke:none;">
<circle cx="283.310021" cy="109.602008" r="2.050000" /> 
</g>
<g style="fill:#000000; fill-opacity:1.000000; stroke:none;">
<circle cx="356.810026" cy="93.602017" r="2.050000" /> 
</g> 
</svg>
