G04 #@! TF.GenerationSoftware,KiCad,Pcbnew,8.0.3*
G04 #@! TF.CreationDate,2024-06-16T15:20:09+01:00*
G04 #@! TF.ProjectId,ykb,796b622e-6b69-4636-9164-5f7063625858,v1.0.0*
G04 #@! TF.SameCoordinates,Original*
G04 #@! TF.FileFunction,Other,Comment*
%FSLAX46Y46*%
G04 Gerber Fmt 4.6, Leading zero omitted, Abs format (unit mm)*
G04 Created by KiCad (PCBNEW 8.0.3) date 2024-06-16 15:20:09*
%MOMM*%
%LPD*%
G01*
G04 APERTURE LIST*
%ADD10C,0.150000*%
%ADD11C,0.200000*%
G04 APERTURE END LIST*
D10*
X223818095Y-147199819D02*
X223818095Y-148009342D01*
X223818095Y-148009342D02*
X223865714Y-148104580D01*
X223865714Y-148104580D02*
X223913333Y-148152200D01*
X223913333Y-148152200D02*
X224008571Y-148199819D01*
X224008571Y-148199819D02*
X224199047Y-148199819D01*
X224199047Y-148199819D02*
X224294285Y-148152200D01*
X224294285Y-148152200D02*
X224341904Y-148104580D01*
X224341904Y-148104580D02*
X224389523Y-148009342D01*
X224389523Y-148009342D02*
X224389523Y-147199819D01*
X224818095Y-148152200D02*
X224960952Y-148199819D01*
X224960952Y-148199819D02*
X225199047Y-148199819D01*
X225199047Y-148199819D02*
X225294285Y-148152200D01*
X225294285Y-148152200D02*
X225341904Y-148104580D01*
X225341904Y-148104580D02*
X225389523Y-148009342D01*
X225389523Y-148009342D02*
X225389523Y-147914104D01*
X225389523Y-147914104D02*
X225341904Y-147818866D01*
X225341904Y-147818866D02*
X225294285Y-147771247D01*
X225294285Y-147771247D02*
X225199047Y-147723628D01*
X225199047Y-147723628D02*
X225008571Y-147676009D01*
X225008571Y-147676009D02*
X224913333Y-147628390D01*
X224913333Y-147628390D02*
X224865714Y-147580771D01*
X224865714Y-147580771D02*
X224818095Y-147485533D01*
X224818095Y-147485533D02*
X224818095Y-147390295D01*
X224818095Y-147390295D02*
X224865714Y-147295057D01*
X224865714Y-147295057D02*
X224913333Y-147247438D01*
X224913333Y-147247438D02*
X225008571Y-147199819D01*
X225008571Y-147199819D02*
X225246666Y-147199819D01*
X225246666Y-147199819D02*
X225389523Y-147247438D01*
X226151428Y-147676009D02*
X226294285Y-147723628D01*
X226294285Y-147723628D02*
X226341904Y-147771247D01*
X226341904Y-147771247D02*
X226389523Y-147866485D01*
X226389523Y-147866485D02*
X226389523Y-148009342D01*
X226389523Y-148009342D02*
X226341904Y-148104580D01*
X226341904Y-148104580D02*
X226294285Y-148152200D01*
X226294285Y-148152200D02*
X226199047Y-148199819D01*
X226199047Y-148199819D02*
X225818095Y-148199819D01*
X225818095Y-148199819D02*
X225818095Y-147199819D01*
X225818095Y-147199819D02*
X226151428Y-147199819D01*
X226151428Y-147199819D02*
X226246666Y-147247438D01*
X226246666Y-147247438D02*
X226294285Y-147295057D01*
X226294285Y-147295057D02*
X226341904Y-147390295D01*
X226341904Y-147390295D02*
X226341904Y-147485533D01*
X226341904Y-147485533D02*
X226294285Y-147580771D01*
X226294285Y-147580771D02*
X226246666Y-147628390D01*
X226246666Y-147628390D02*
X226151428Y-147676009D01*
X226151428Y-147676009D02*
X225818095Y-147676009D01*
G04 #@! TO.C,U1*
X220630001Y-145900001D02*
X229530001Y-145900001D01*
X229530001Y-152550001D01*
X220630001Y-152550001D01*
X220630001Y-145900001D01*
D11*
X233970000Y-146750000D02*
X216190000Y-146750000D01*
X216190000Y-179770000D01*
X233970000Y-179770000D01*
X233970000Y-146750000D01*
G04 #@! TD*
M02*
