G04 #@! TF.GenerationSoftware,KiCad,Pcbnew,8.0.3*
G04 #@! TF.CreationDate,2024-06-16T15:20:09+01:00*
G04 #@! TF.ProjectId,ykb,796b622e-6b69-4636-9164-5f7063625858,v1.0.0*
G04 #@! TF.SameCoordinates,Original*
G04 #@! TF.FileFunction,Legend,Top*
G04 #@! TF.FilePolarity,Positive*
%FSLAX46Y46*%
G04 Gerber Fmt 4.6, Leading zero omitted, Abs format (unit mm)*
G04 Created by KiCad (PCBNEW 8.0.3) date 2024-06-16 15:20:09*
%MOMM*%
%LPD*%
G01*
G04 APERTURE LIST*
G04 Aperture macros list*
%AMRoundRect*
0 Rectangle with rounded corners*
0 $1 Rounding radius*
0 $2 $3 $4 $5 $6 $7 $8 $9 X,Y pos of 4 corners*
0 Add a 4 corners polygon primitive as box body*
4,1,4,$2,$3,$4,$5,$6,$7,$8,$9,$2,$3,0*
0 Add four circle primitives for the rounded corners*
1,1,$1+$1,$2,$3*
1,1,$1+$1,$4,$5*
1,1,$1+$1,$6,$7*
1,1,$1+$1,$8,$9*
0 Add four rect primitives between the rounded corners*
20,1,$1+$1,$2,$3,$4,$5,0*
20,1,$1+$1,$4,$5,$6,$7,0*
20,1,$1+$1,$6,$7,$8,$9,0*
20,1,$1+$1,$8,$9,$2,$3,0*%
G04 Aperture macros list end*
%ADD10C,0.150000*%
%ADD11C,0.120000*%
%ADD12RoundRect,0.475000X-1.325000X-0.475000X1.325000X-0.475000X1.325000X0.475000X-1.325000X0.475000X0*%
%ADD13RoundRect,0.475000X0.475000X-1.325000X0.475000X1.325000X-0.475000X1.325000X-0.475000X-1.325000X0*%
%ADD14RoundRect,0.475000X1.325000X0.475000X-1.325000X0.475000X-1.325000X-0.475000X1.325000X-0.475000X0*%
%ADD15C,1.900000*%
%ADD16C,3.150000*%
%ADD17C,5.150000*%
%ADD18C,2.000000*%
%ADD19C,1.700000*%
%ADD20RoundRect,0.250000X-0.391081X-0.263734X0.065692X-0.467102X0.391081X0.263734X-0.065692X0.467102X0*%
%ADD21RoundRect,0.250000X0.153528X-0.446015X0.468188X-0.057442X-0.153528X0.446015X-0.468188X0.057442X0*%
%ADD22RoundRect,0.250000X0.032860X-0.470553X0.437368X-0.176660X-0.032860X0.470553X-0.437368X0.176660X0*%
%ADD23RoundRect,0.250000X-0.008277X-0.471626X0.420307X-0.214107X0.008277X0.471626X-0.420307X0.214107X0*%
%ADD24RoundRect,0.250000X-0.049350X-0.469110X0.400047X-0.249925X0.049350X0.469110X-0.400047X0.249925X0*%
%ADD25RoundRect,0.250000X-0.169083X-0.440353X0.321730X-0.344949X0.169083X0.440353X-0.321730X0.344949X0*%
%ADD26RoundRect,0.250000X-0.206819X-0.423941X0.290442X-0.371677X0.206819X0.423941X-0.290442X0.371677X0*%
G04 APERTURE END LIST*
D10*
X214836779Y-180424819D02*
X214836779Y-181234342D01*
X214836779Y-181234342D02*
X214884398Y-181329580D01*
X214884398Y-181329580D02*
X214932017Y-181377200D01*
X214932017Y-181377200D02*
X215027255Y-181424819D01*
X215027255Y-181424819D02*
X215217731Y-181424819D01*
X215217731Y-181424819D02*
X215312969Y-181377200D01*
X215312969Y-181377200D02*
X215360588Y-181329580D01*
X215360588Y-181329580D02*
X215408207Y-181234342D01*
X215408207Y-181234342D02*
X215408207Y-180424819D01*
X216408207Y-181424819D02*
X215836779Y-181424819D01*
X216122493Y-181424819D02*
X216122493Y-180424819D01*
X216122493Y-180424819D02*
X216027255Y-180567676D01*
X216027255Y-180567676D02*
X215932017Y-180662914D01*
X215932017Y-180662914D02*
X215836779Y-180710533D01*
X219345714Y-151117319D02*
X218774286Y-151117319D01*
X219060000Y-151117319D02*
X219060000Y-150117319D01*
X219060000Y-150117319D02*
X218964762Y-150260176D01*
X218964762Y-150260176D02*
X218869524Y-150355414D01*
X218869524Y-150355414D02*
X218774286Y-150403033D01*
X223818095Y-147199819D02*
X223818095Y-148009342D01*
X223818095Y-148009342D02*
X223865714Y-148104580D01*
X223865714Y-148104580D02*
X223913333Y-148152200D01*
X223913333Y-148152200D02*
X224008571Y-148199819D01*
X224008571Y-148199819D02*
X224199047Y-148199819D01*
X224199047Y-148199819D02*
X224294285Y-148152200D01*
X224294285Y-148152200D02*
X224341904Y-148104580D01*
X224341904Y-148104580D02*
X224389523Y-148009342D01*
X224389523Y-148009342D02*
X224389523Y-147199819D01*
X224818095Y-148152200D02*
X224960952Y-148199819D01*
X224960952Y-148199819D02*
X225199047Y-148199819D01*
X225199047Y-148199819D02*
X225294285Y-148152200D01*
X225294285Y-148152200D02*
X225341904Y-148104580D01*
X225341904Y-148104580D02*
X225389523Y-148009342D01*
X225389523Y-148009342D02*
X225389523Y-147914104D01*
X225389523Y-147914104D02*
X225341904Y-147818866D01*
X225341904Y-147818866D02*
X225294285Y-147771247D01*
X225294285Y-147771247D02*
X225199047Y-147723628D01*
X225199047Y-147723628D02*
X225008571Y-147676009D01*
X225008571Y-147676009D02*
X224913333Y-147628390D01*
X224913333Y-147628390D02*
X224865714Y-147580771D01*
X224865714Y-147580771D02*
X224818095Y-147485533D01*
X224818095Y-147485533D02*
X224818095Y-147390295D01*
X224818095Y-147390295D02*
X224865714Y-147295057D01*
X224865714Y-147295057D02*
X224913333Y-147247438D01*
X224913333Y-147247438D02*
X225008571Y-147199819D01*
X225008571Y-147199819D02*
X225246666Y-147199819D01*
X225246666Y-147199819D02*
X225389523Y-147247438D01*
X226151428Y-147676009D02*
X226294285Y-147723628D01*
X226294285Y-147723628D02*
X226341904Y-147771247D01*
X226341904Y-147771247D02*
X226389523Y-147866485D01*
X226389523Y-147866485D02*
X226389523Y-148009342D01*
X226389523Y-148009342D02*
X226341904Y-148104580D01*
X226341904Y-148104580D02*
X226294285Y-148152200D01*
X226294285Y-148152200D02*
X226199047Y-148199819D01*
X226199047Y-148199819D02*
X225818095Y-148199819D01*
X225818095Y-148199819D02*
X225818095Y-147199819D01*
X225818095Y-147199819D02*
X226151428Y-147199819D01*
X226151428Y-147199819D02*
X226246666Y-147247438D01*
X226246666Y-147247438D02*
X226294285Y-147295057D01*
X226294285Y-147295057D02*
X226341904Y-147390295D01*
X226341904Y-147390295D02*
X226341904Y-147485533D01*
X226341904Y-147485533D02*
X226294285Y-147580771D01*
X226294285Y-147580771D02*
X226246666Y-147628390D01*
X226246666Y-147628390D02*
X226151428Y-147676009D01*
X226151428Y-147676009D02*
X225818095Y-147676009D01*
X222460952Y-148933152D02*
X222841904Y-148933152D01*
X222603809Y-148599819D02*
X222603809Y-149456961D01*
X222603809Y-149456961D02*
X222651428Y-149552200D01*
X222651428Y-149552200D02*
X222746666Y-149599819D01*
X222746666Y-149599819D02*
X222841904Y-149599819D01*
X223318095Y-149599819D02*
X223222857Y-149552200D01*
X223222857Y-149552200D02*
X223175238Y-149504580D01*
X223175238Y-149504580D02*
X223127619Y-149409342D01*
X223127619Y-149409342D02*
X223127619Y-149123628D01*
X223127619Y-149123628D02*
X223175238Y-149028390D01*
X223175238Y-149028390D02*
X223222857Y-148980771D01*
X223222857Y-148980771D02*
X223318095Y-148933152D01*
X223318095Y-148933152D02*
X223460952Y-148933152D01*
X223460952Y-148933152D02*
X223556190Y-148980771D01*
X223556190Y-148980771D02*
X223603809Y-149028390D01*
X223603809Y-149028390D02*
X223651428Y-149123628D01*
X223651428Y-149123628D02*
X223651428Y-149409342D01*
X223651428Y-149409342D02*
X223603809Y-149504580D01*
X223603809Y-149504580D02*
X223556190Y-149552200D01*
X223556190Y-149552200D02*
X223460952Y-149599819D01*
X223460952Y-149599819D02*
X223318095Y-149599819D01*
X224080000Y-148933152D02*
X224080000Y-149933152D01*
X224080000Y-148980771D02*
X224175238Y-148933152D01*
X224175238Y-148933152D02*
X224365714Y-148933152D01*
X224365714Y-148933152D02*
X224460952Y-148980771D01*
X224460952Y-148980771D02*
X224508571Y-149028390D01*
X224508571Y-149028390D02*
X224556190Y-149123628D01*
X224556190Y-149123628D02*
X224556190Y-149409342D01*
X224556190Y-149409342D02*
X224508571Y-149504580D01*
X224508571Y-149504580D02*
X224460952Y-149552200D01*
X224460952Y-149552200D02*
X224365714Y-149599819D01*
X224365714Y-149599819D02*
X224175238Y-149599819D01*
X224175238Y-149599819D02*
X224080000Y-149552200D01*
X224937143Y-149552200D02*
X225032381Y-149599819D01*
X225032381Y-149599819D02*
X225222857Y-149599819D01*
X225222857Y-149599819D02*
X225318095Y-149552200D01*
X225318095Y-149552200D02*
X225365714Y-149456961D01*
X225365714Y-149456961D02*
X225365714Y-149409342D01*
X225365714Y-149409342D02*
X225318095Y-149314104D01*
X225318095Y-149314104D02*
X225222857Y-149266485D01*
X225222857Y-149266485D02*
X225080000Y-149266485D01*
X225080000Y-149266485D02*
X224984762Y-149218866D01*
X224984762Y-149218866D02*
X224937143Y-149123628D01*
X224937143Y-149123628D02*
X224937143Y-149076009D01*
X224937143Y-149076009D02*
X224984762Y-148980771D01*
X224984762Y-148980771D02*
X225080000Y-148933152D01*
X225080000Y-148933152D02*
X225222857Y-148933152D01*
X225222857Y-148933152D02*
X225318095Y-148980771D01*
X225794286Y-149599819D02*
X225794286Y-148933152D01*
X225794286Y-148599819D02*
X225746667Y-148647438D01*
X225746667Y-148647438D02*
X225794286Y-148695057D01*
X225794286Y-148695057D02*
X225841905Y-148647438D01*
X225841905Y-148647438D02*
X225794286Y-148599819D01*
X225794286Y-148599819D02*
X225794286Y-148695057D01*
X226699047Y-149599819D02*
X226699047Y-148599819D01*
X226699047Y-149552200D02*
X226603809Y-149599819D01*
X226603809Y-149599819D02*
X226413333Y-149599819D01*
X226413333Y-149599819D02*
X226318095Y-149552200D01*
X226318095Y-149552200D02*
X226270476Y-149504580D01*
X226270476Y-149504580D02*
X226222857Y-149409342D01*
X226222857Y-149409342D02*
X226222857Y-149123628D01*
X226222857Y-149123628D02*
X226270476Y-149028390D01*
X226270476Y-149028390D02*
X226318095Y-148980771D01*
X226318095Y-148980771D02*
X226413333Y-148933152D01*
X226413333Y-148933152D02*
X226603809Y-148933152D01*
X226603809Y-148933152D02*
X226699047Y-148980771D01*
X227556190Y-149552200D02*
X227460952Y-149599819D01*
X227460952Y-149599819D02*
X227270476Y-149599819D01*
X227270476Y-149599819D02*
X227175238Y-149552200D01*
X227175238Y-149552200D02*
X227127619Y-149456961D01*
X227127619Y-149456961D02*
X227127619Y-149076009D01*
X227127619Y-149076009D02*
X227175238Y-148980771D01*
X227175238Y-148980771D02*
X227270476Y-148933152D01*
X227270476Y-148933152D02*
X227460952Y-148933152D01*
X227460952Y-148933152D02*
X227556190Y-148980771D01*
X227556190Y-148980771D02*
X227603809Y-149076009D01*
X227603809Y-149076009D02*
X227603809Y-149171247D01*
X227603809Y-149171247D02*
X227127619Y-149266485D01*
X281363950Y-205042001D02*
X281475089Y-205143608D01*
X281475089Y-205143608D02*
X281692599Y-205240450D01*
X281692599Y-205240450D02*
X281798972Y-205235685D01*
X281798972Y-205235685D02*
X281861843Y-205211551D01*
X281861843Y-205211551D02*
X281944082Y-205143915D01*
X281944082Y-205143915D02*
X281982818Y-205056911D01*
X281982818Y-205056911D02*
X281978053Y-204950538D01*
X281978053Y-204950538D02*
X281953919Y-204887667D01*
X281953919Y-204887667D02*
X281886283Y-204805428D01*
X281886283Y-204805428D02*
X281731643Y-204684453D01*
X281731643Y-204684453D02*
X281664007Y-204602214D01*
X281664007Y-204602214D02*
X281639874Y-204539343D01*
X281639874Y-204539343D02*
X281635108Y-204432970D01*
X281635108Y-204432970D02*
X281673845Y-204345966D01*
X281673845Y-204345966D02*
X281756084Y-204278330D01*
X281756084Y-204278330D02*
X281818955Y-204254196D01*
X281818955Y-204254196D02*
X281925327Y-204249431D01*
X281925327Y-204249431D02*
X282142838Y-204346273D01*
X282142838Y-204346273D02*
X282253976Y-204447880D01*
X282920805Y-205057525D02*
X282649647Y-205666555D01*
X282858241Y-204612666D02*
X282350204Y-205168356D01*
X282350204Y-205168356D02*
X282915732Y-205420145D01*
X283790848Y-205444893D02*
X283519690Y-206053923D01*
X283728285Y-205000034D02*
X283220248Y-205555724D01*
X283220248Y-205555724D02*
X283785776Y-205807514D01*
X287501635Y-191422351D02*
X287628545Y-191341298D01*
X287628545Y-191341298D02*
X287778383Y-191156263D01*
X287778383Y-191156263D02*
X287801311Y-191052282D01*
X287801311Y-191052282D02*
X287794272Y-190985307D01*
X287794272Y-190985307D02*
X287750226Y-190888365D01*
X287750226Y-190888365D02*
X287676212Y-190828430D01*
X287676212Y-190828430D02*
X287572230Y-190805501D01*
X287572230Y-190805501D02*
X287505256Y-190812541D01*
X287505256Y-190812541D02*
X287408314Y-190856587D01*
X287408314Y-190856587D02*
X287251436Y-190974647D01*
X287251436Y-190974647D02*
X287154494Y-191018693D01*
X287154494Y-191018693D02*
X287087519Y-191025733D01*
X287087519Y-191025733D02*
X286983538Y-191002804D01*
X286983538Y-191002804D02*
X286909524Y-190942869D01*
X286909524Y-190942869D02*
X286865478Y-190845927D01*
X286865478Y-190845927D02*
X286858438Y-190778952D01*
X286858438Y-190778952D02*
X286881367Y-190674971D01*
X286881367Y-190674971D02*
X287031205Y-190489936D01*
X287031205Y-190489936D02*
X287158115Y-190408883D01*
X287919574Y-189922563D02*
X288437671Y-190342110D01*
X287473680Y-189867857D02*
X287878946Y-190502406D01*
X287878946Y-190502406D02*
X288268525Y-190021316D01*
X287930234Y-189379727D02*
X288319813Y-188898637D01*
X288319813Y-188898637D02*
X288406095Y-189397427D01*
X288406095Y-189397427D02*
X288495998Y-189286406D01*
X288495998Y-189286406D02*
X288592941Y-189242360D01*
X288592941Y-189242360D02*
X288659915Y-189235320D01*
X288659915Y-189235320D02*
X288763897Y-189258249D01*
X288763897Y-189258249D02*
X288948931Y-189408087D01*
X288948931Y-189408087D02*
X288992978Y-189505029D01*
X288992978Y-189505029D02*
X289000017Y-189572004D01*
X289000017Y-189572004D02*
X288977089Y-189675985D01*
X288977089Y-189675985D02*
X288797283Y-189898027D01*
X288797283Y-189898027D02*
X288700341Y-189942073D01*
X288700341Y-189942073D02*
X288633366Y-189949112D01*
X305360514Y-174011814D02*
X305504078Y-173966369D01*
X305504078Y-173966369D02*
X305696701Y-173826421D01*
X305696701Y-173826421D02*
X305745760Y-173731916D01*
X305745760Y-173731916D02*
X305756295Y-173665402D01*
X305756295Y-173665402D02*
X305738840Y-173560363D01*
X305738840Y-173560363D02*
X305682860Y-173483314D01*
X305682860Y-173483314D02*
X305588356Y-173434254D01*
X305588356Y-173434254D02*
X305521842Y-173423719D01*
X305521842Y-173423719D02*
X305416803Y-173441174D01*
X305416803Y-173441174D02*
X305234715Y-173514609D01*
X305234715Y-173514609D02*
X305129676Y-173532064D01*
X305129676Y-173532064D02*
X305063161Y-173521529D01*
X305063161Y-173521529D02*
X304968657Y-173472469D01*
X304968657Y-173472469D02*
X304912678Y-173395420D01*
X304912678Y-173395420D02*
X304895223Y-173290381D01*
X304895223Y-173290381D02*
X304905757Y-173223867D01*
X304905757Y-173223867D02*
X304954817Y-173129363D01*
X304954817Y-173129363D02*
X305147440Y-172989414D01*
X305147440Y-172989414D02*
X305291004Y-172943969D01*
X306152385Y-172671301D02*
X306544242Y-173210645D01*
X305735844Y-172503053D02*
X305963068Y-173220871D01*
X305963068Y-173220871D02*
X306463888Y-172857004D01*
X306397683Y-172198780D02*
X306408218Y-172132266D01*
X306408218Y-172132266D02*
X306457277Y-172037761D01*
X306457277Y-172037761D02*
X306649900Y-171897813D01*
X306649900Y-171897813D02*
X306754939Y-171880358D01*
X306754939Y-171880358D02*
X306821454Y-171890892D01*
X306821454Y-171890892D02*
X306915958Y-171939952D01*
X306915958Y-171939952D02*
X306971937Y-172017001D01*
X306971937Y-172017001D02*
X307017382Y-172160565D01*
X307017382Y-172160565D02*
X306890964Y-172958737D01*
X306890964Y-172958737D02*
X307391784Y-172594870D01*
X251717947Y-176737727D02*
X251861511Y-176692282D01*
X251861511Y-176692282D02*
X252054134Y-176552334D01*
X252054134Y-176552334D02*
X252103193Y-176457829D01*
X252103193Y-176457829D02*
X252113728Y-176391315D01*
X252113728Y-176391315D02*
X252096273Y-176286276D01*
X252096273Y-176286276D02*
X252040293Y-176209227D01*
X252040293Y-176209227D02*
X251945789Y-176160167D01*
X251945789Y-176160167D02*
X251879275Y-176149632D01*
X251879275Y-176149632D02*
X251774236Y-176167087D01*
X251774236Y-176167087D02*
X251592148Y-176240522D01*
X251592148Y-176240522D02*
X251487109Y-176257977D01*
X251487109Y-176257977D02*
X251420594Y-176247442D01*
X251420594Y-176247442D02*
X251326090Y-176198382D01*
X251326090Y-176198382D02*
X251270111Y-176121333D01*
X251270111Y-176121333D02*
X251252656Y-176016294D01*
X251252656Y-176016294D02*
X251263190Y-175949780D01*
X251263190Y-175949780D02*
X251312250Y-175855276D01*
X251312250Y-175855276D02*
X251504873Y-175715327D01*
X251504873Y-175715327D02*
X251648437Y-175669882D01*
X252509818Y-175397214D02*
X252901675Y-175936558D01*
X252093277Y-175228966D02*
X252320501Y-175946784D01*
X252320501Y-175946784D02*
X252821321Y-175582917D01*
X253749217Y-175320783D02*
X253286922Y-175656661D01*
X253518069Y-175488722D02*
X252930284Y-174679705D01*
X252930284Y-174679705D02*
X252937204Y-174851258D01*
X252937204Y-174851258D02*
X252916134Y-174984287D01*
X252916134Y-174984287D02*
X252867075Y-175078791D01*
X251291729Y-145527659D02*
X251435293Y-145482214D01*
X251435293Y-145482214D02*
X251627916Y-145342266D01*
X251627916Y-145342266D02*
X251676975Y-145247761D01*
X251676975Y-145247761D02*
X251687510Y-145181247D01*
X251687510Y-145181247D02*
X251670055Y-145076208D01*
X251670055Y-145076208D02*
X251614075Y-144999159D01*
X251614075Y-144999159D02*
X251519571Y-144950099D01*
X251519571Y-144950099D02*
X251453057Y-144939564D01*
X251453057Y-144939564D02*
X251348018Y-144957019D01*
X251348018Y-144957019D02*
X251165930Y-145030454D01*
X251165930Y-145030454D02*
X251060891Y-145047909D01*
X251060891Y-145047909D02*
X250994376Y-145037374D01*
X250994376Y-145037374D02*
X250899872Y-144988314D01*
X250899872Y-144988314D02*
X250843893Y-144911265D01*
X250843893Y-144911265D02*
X250826438Y-144806226D01*
X250826438Y-144806226D02*
X250836972Y-144739712D01*
X250836972Y-144739712D02*
X250886032Y-144645208D01*
X250886032Y-144645208D02*
X251078655Y-144505259D01*
X251078655Y-144505259D02*
X251222219Y-144459814D01*
X252083600Y-144187146D02*
X252475457Y-144726490D01*
X251667059Y-144018898D02*
X251894283Y-144736716D01*
X251894283Y-144736716D02*
X252395103Y-144372849D01*
X252465541Y-143497627D02*
X252542591Y-143441647D01*
X252542591Y-143441647D02*
X252647630Y-143424192D01*
X252647630Y-143424192D02*
X252714144Y-143434727D01*
X252714144Y-143434727D02*
X252808648Y-143483787D01*
X252808648Y-143483787D02*
X252959132Y-143609895D01*
X252959132Y-143609895D02*
X253099081Y-143802518D01*
X253099081Y-143802518D02*
X253172515Y-143984607D01*
X253172515Y-143984607D02*
X253189970Y-144089646D01*
X253189970Y-144089646D02*
X253179435Y-144156160D01*
X253179435Y-144156160D02*
X253130376Y-144250664D01*
X253130376Y-144250664D02*
X253053327Y-144306644D01*
X253053327Y-144306644D02*
X252948288Y-144324099D01*
X252948288Y-144324099D02*
X252881773Y-144313564D01*
X252881773Y-144313564D02*
X252787269Y-144264504D01*
X252787269Y-144264504D02*
X252636785Y-144138396D01*
X252636785Y-144138396D02*
X252496836Y-143945773D01*
X252496836Y-143945773D02*
X252423402Y-143763684D01*
X252423402Y-143763684D02*
X252405947Y-143658645D01*
X252405947Y-143658645D02*
X252416482Y-143592131D01*
X252416482Y-143592131D02*
X252465541Y-143497627D01*
X261284078Y-159280948D02*
X261427642Y-159235503D01*
X261427642Y-159235503D02*
X261620265Y-159095555D01*
X261620265Y-159095555D02*
X261669324Y-159001050D01*
X261669324Y-159001050D02*
X261679859Y-158934536D01*
X261679859Y-158934536D02*
X261662404Y-158829497D01*
X261662404Y-158829497D02*
X261606424Y-158752448D01*
X261606424Y-158752448D02*
X261511920Y-158703388D01*
X261511920Y-158703388D02*
X261445406Y-158692853D01*
X261445406Y-158692853D02*
X261340367Y-158710308D01*
X261340367Y-158710308D02*
X261158279Y-158783743D01*
X261158279Y-158783743D02*
X261053240Y-158801198D01*
X261053240Y-158801198D02*
X260986725Y-158790663D01*
X260986725Y-158790663D02*
X260892221Y-158741603D01*
X260892221Y-158741603D02*
X260836242Y-158664554D01*
X260836242Y-158664554D02*
X260818787Y-158559515D01*
X260818787Y-158559515D02*
X260829321Y-158493001D01*
X260829321Y-158493001D02*
X260878381Y-158398497D01*
X260878381Y-158398497D02*
X261071004Y-158258548D01*
X261071004Y-158258548D02*
X261214568Y-158213103D01*
X261456250Y-157978650D02*
X261957070Y-157614783D01*
X261957070Y-157614783D02*
X261911316Y-158118908D01*
X261911316Y-158118908D02*
X262026890Y-158034939D01*
X262026890Y-158034939D02*
X262131929Y-158017484D01*
X262131929Y-158017484D02*
X262198443Y-158028019D01*
X262198443Y-158028019D02*
X262292948Y-158077078D01*
X262292948Y-158077078D02*
X262432896Y-158269701D01*
X262432896Y-158269701D02*
X262450351Y-158374740D01*
X262450351Y-158374740D02*
X262439817Y-158441255D01*
X262439817Y-158441255D02*
X262390757Y-158535759D01*
X262390757Y-158535759D02*
X262159609Y-158703698D01*
X262159609Y-158703698D02*
X262054570Y-158721153D01*
X262054570Y-158721153D02*
X261988056Y-158710618D01*
X262930102Y-158143902D02*
X263084200Y-158031943D01*
X263084200Y-158031943D02*
X263133260Y-157937439D01*
X263133260Y-157937439D02*
X263143795Y-157870924D01*
X263143795Y-157870924D02*
X263136874Y-157699371D01*
X263136874Y-157699371D02*
X263063440Y-157517283D01*
X263063440Y-157517283D02*
X262839522Y-157209086D01*
X262839522Y-157209086D02*
X262745018Y-157160026D01*
X262745018Y-157160026D02*
X262678503Y-157149492D01*
X262678503Y-157149492D02*
X262573464Y-157166947D01*
X262573464Y-157166947D02*
X262419366Y-157278906D01*
X262419366Y-157278906D02*
X262370306Y-157373410D01*
X262370306Y-157373410D02*
X262359771Y-157439924D01*
X262359771Y-157439924D02*
X262377226Y-157544963D01*
X262377226Y-157544963D02*
X262517175Y-157737586D01*
X262517175Y-157737586D02*
X262611679Y-157786646D01*
X262611679Y-157786646D02*
X262678194Y-157797181D01*
X262678194Y-157797181D02*
X262783233Y-157779726D01*
X262783233Y-157779726D02*
X262937331Y-157667767D01*
X262937331Y-157667767D02*
X262986391Y-157573262D01*
X262986391Y-157573262D02*
X262996926Y-157506748D01*
X262996926Y-157506748D02*
X262979471Y-157401709D01*
X271276427Y-173034237D02*
X271419991Y-172988792D01*
X271419991Y-172988792D02*
X271612614Y-172848844D01*
X271612614Y-172848844D02*
X271661673Y-172754339D01*
X271661673Y-172754339D02*
X271672208Y-172687825D01*
X271672208Y-172687825D02*
X271654753Y-172582786D01*
X271654753Y-172582786D02*
X271598773Y-172505737D01*
X271598773Y-172505737D02*
X271504269Y-172456677D01*
X271504269Y-172456677D02*
X271437755Y-172446142D01*
X271437755Y-172446142D02*
X271332716Y-172463597D01*
X271332716Y-172463597D02*
X271150628Y-172537032D01*
X271150628Y-172537032D02*
X271045589Y-172554487D01*
X271045589Y-172554487D02*
X270979074Y-172543952D01*
X270979074Y-172543952D02*
X270884570Y-172494892D01*
X270884570Y-172494892D02*
X270828591Y-172417843D01*
X270828591Y-172417843D02*
X270811136Y-172312804D01*
X270811136Y-172312804D02*
X270821670Y-172246290D01*
X270821670Y-172246290D02*
X270870730Y-172151786D01*
X270870730Y-172151786D02*
X271063353Y-172011837D01*
X271063353Y-172011837D02*
X271206917Y-171966392D01*
X271448599Y-171731939D02*
X271949419Y-171368072D01*
X271949419Y-171368072D02*
X271903665Y-171872197D01*
X271903665Y-171872197D02*
X272019239Y-171788228D01*
X272019239Y-171788228D02*
X272124278Y-171770773D01*
X272124278Y-171770773D02*
X272190792Y-171781308D01*
X272190792Y-171781308D02*
X272285297Y-171830367D01*
X272285297Y-171830367D02*
X272425245Y-172022990D01*
X272425245Y-172022990D02*
X272442700Y-172128029D01*
X272442700Y-172128029D02*
X272432166Y-172194544D01*
X272432166Y-172194544D02*
X272383106Y-172289048D01*
X272383106Y-172289048D02*
X272151958Y-172456987D01*
X272151958Y-172456987D02*
X272046919Y-172474442D01*
X272046919Y-172474442D02*
X271980405Y-172463907D01*
X272663623Y-171378916D02*
X272558584Y-171396371D01*
X272558584Y-171396371D02*
X272492069Y-171385836D01*
X272492069Y-171385836D02*
X272397565Y-171336777D01*
X272397565Y-171336777D02*
X272369575Y-171298252D01*
X272369575Y-171298252D02*
X272352120Y-171193213D01*
X272352120Y-171193213D02*
X272362655Y-171126699D01*
X272362655Y-171126699D02*
X272411715Y-171032195D01*
X272411715Y-171032195D02*
X272565813Y-170920236D01*
X272565813Y-170920236D02*
X272670852Y-170902781D01*
X272670852Y-170902781D02*
X272737367Y-170913315D01*
X272737367Y-170913315D02*
X272831871Y-170962375D01*
X272831871Y-170962375D02*
X272859861Y-171000900D01*
X272859861Y-171000900D02*
X272877315Y-171105939D01*
X272877315Y-171105939D02*
X272866781Y-171172453D01*
X272866781Y-171172453D02*
X272817721Y-171266957D01*
X272817721Y-171266957D02*
X272663623Y-171378916D01*
X272663623Y-171378916D02*
X272614563Y-171473420D01*
X272614563Y-171473420D02*
X272604028Y-171539935D01*
X272604028Y-171539935D02*
X272621483Y-171644974D01*
X272621483Y-171644974D02*
X272733442Y-171799072D01*
X272733442Y-171799072D02*
X272827947Y-171848132D01*
X272827947Y-171848132D02*
X272894461Y-171858667D01*
X272894461Y-171858667D02*
X272999500Y-171841212D01*
X272999500Y-171841212D02*
X273153598Y-171729253D01*
X273153598Y-171729253D02*
X273202658Y-171634748D01*
X273202658Y-171634748D02*
X273213193Y-171568234D01*
X273213193Y-171568234D02*
X273195738Y-171463195D01*
X273195738Y-171463195D02*
X273083779Y-171309096D01*
X273083779Y-171309096D02*
X272989275Y-171260037D01*
X272989275Y-171260037D02*
X272922760Y-171249502D01*
X272922760Y-171249502D02*
X272817721Y-171266957D01*
X263855565Y-132196867D02*
X263999129Y-132151422D01*
X263999129Y-132151422D02*
X264191752Y-132011474D01*
X264191752Y-132011474D02*
X264240811Y-131916969D01*
X264240811Y-131916969D02*
X264251346Y-131850455D01*
X264251346Y-131850455D02*
X264233891Y-131745416D01*
X264233891Y-131745416D02*
X264177911Y-131668367D01*
X264177911Y-131668367D02*
X264083407Y-131619307D01*
X264083407Y-131619307D02*
X264016893Y-131608772D01*
X264016893Y-131608772D02*
X263911854Y-131626227D01*
X263911854Y-131626227D02*
X263729766Y-131699662D01*
X263729766Y-131699662D02*
X263624727Y-131717117D01*
X263624727Y-131717117D02*
X263558212Y-131706582D01*
X263558212Y-131706582D02*
X263463708Y-131657522D01*
X263463708Y-131657522D02*
X263407729Y-131580473D01*
X263407729Y-131580473D02*
X263390274Y-131475434D01*
X263390274Y-131475434D02*
X263400808Y-131408920D01*
X263400808Y-131408920D02*
X263449868Y-131314416D01*
X263449868Y-131314416D02*
X263642491Y-131174467D01*
X263642491Y-131174467D02*
X263786055Y-131129022D01*
X264027737Y-130894569D02*
X264528557Y-130530702D01*
X264528557Y-130530702D02*
X264482803Y-131034827D01*
X264482803Y-131034827D02*
X264598377Y-130950858D01*
X264598377Y-130950858D02*
X264703416Y-130933403D01*
X264703416Y-130933403D02*
X264769930Y-130943938D01*
X264769930Y-130943938D02*
X264864435Y-130992997D01*
X264864435Y-130992997D02*
X265004383Y-131185620D01*
X265004383Y-131185620D02*
X265021838Y-131290659D01*
X265021838Y-131290659D02*
X265011304Y-131357174D01*
X265011304Y-131357174D02*
X264962244Y-131451678D01*
X264962244Y-131451678D02*
X264731096Y-131619617D01*
X264731096Y-131619617D02*
X264626057Y-131637072D01*
X264626057Y-131637072D02*
X264559543Y-131626537D01*
X264798230Y-130334773D02*
X265337574Y-129942917D01*
X265337574Y-129942917D02*
X265578638Y-131003842D01*
X273847914Y-145950156D02*
X273991478Y-145904711D01*
X273991478Y-145904711D02*
X274184101Y-145764763D01*
X274184101Y-145764763D02*
X274233160Y-145670258D01*
X274233160Y-145670258D02*
X274243695Y-145603744D01*
X274243695Y-145603744D02*
X274226240Y-145498705D01*
X274226240Y-145498705D02*
X274170260Y-145421656D01*
X274170260Y-145421656D02*
X274075756Y-145372596D01*
X274075756Y-145372596D02*
X274009242Y-145362061D01*
X274009242Y-145362061D02*
X273904203Y-145379516D01*
X273904203Y-145379516D02*
X273722115Y-145452951D01*
X273722115Y-145452951D02*
X273617076Y-145470406D01*
X273617076Y-145470406D02*
X273550561Y-145459871D01*
X273550561Y-145459871D02*
X273456057Y-145410811D01*
X273456057Y-145410811D02*
X273400078Y-145333762D01*
X273400078Y-145333762D02*
X273382623Y-145228723D01*
X273382623Y-145228723D02*
X273393157Y-145162209D01*
X273393157Y-145162209D02*
X273442217Y-145067705D01*
X273442217Y-145067705D02*
X273634840Y-144927756D01*
X273634840Y-144927756D02*
X273778404Y-144882311D01*
X274020086Y-144647858D02*
X274520906Y-144283991D01*
X274520906Y-144283991D02*
X274475152Y-144788116D01*
X274475152Y-144788116D02*
X274590726Y-144704147D01*
X274590726Y-144704147D02*
X274695765Y-144686692D01*
X274695765Y-144686692D02*
X274762279Y-144697227D01*
X274762279Y-144697227D02*
X274856784Y-144746286D01*
X274856784Y-144746286D02*
X274996732Y-144938909D01*
X274996732Y-144938909D02*
X275014187Y-145043948D01*
X275014187Y-145043948D02*
X275003653Y-145110463D01*
X275003653Y-145110463D02*
X274954593Y-145204967D01*
X274954593Y-145204967D02*
X274723445Y-145372906D01*
X274723445Y-145372906D02*
X274618406Y-145390361D01*
X274618406Y-145390361D02*
X274551892Y-145379826D01*
X275214349Y-143780175D02*
X275060251Y-143892134D01*
X275060251Y-143892134D02*
X275011192Y-143986638D01*
X275011192Y-143986638D02*
X275000657Y-144053153D01*
X275000657Y-144053153D02*
X275007577Y-144224706D01*
X275007577Y-144224706D02*
X275081011Y-144406794D01*
X275081011Y-144406794D02*
X275304929Y-144714991D01*
X275304929Y-144714991D02*
X275399434Y-144764051D01*
X275399434Y-144764051D02*
X275465948Y-144774586D01*
X275465948Y-144774586D02*
X275570987Y-144757131D01*
X275570987Y-144757131D02*
X275725085Y-144645172D01*
X275725085Y-144645172D02*
X275774145Y-144550667D01*
X275774145Y-144550667D02*
X275784680Y-144484153D01*
X275784680Y-144484153D02*
X275767225Y-144379114D01*
X275767225Y-144379114D02*
X275627276Y-144186491D01*
X275627276Y-144186491D02*
X275532772Y-144137431D01*
X275532772Y-144137431D02*
X275466257Y-144126897D01*
X275466257Y-144126897D02*
X275361218Y-144144351D01*
X275361218Y-144144351D02*
X275207120Y-144256311D01*
X275207120Y-144256311D02*
X275158060Y-144350815D01*
X275158060Y-144350815D02*
X275147526Y-144417329D01*
X275147526Y-144417329D02*
X275164981Y-144522368D01*
X283840263Y-159703445D02*
X283983827Y-159658000D01*
X283983827Y-159658000D02*
X284176450Y-159518052D01*
X284176450Y-159518052D02*
X284225509Y-159423547D01*
X284225509Y-159423547D02*
X284236044Y-159357033D01*
X284236044Y-159357033D02*
X284218589Y-159251994D01*
X284218589Y-159251994D02*
X284162609Y-159174945D01*
X284162609Y-159174945D02*
X284068105Y-159125885D01*
X284068105Y-159125885D02*
X284001591Y-159115350D01*
X284001591Y-159115350D02*
X283896552Y-159132805D01*
X283896552Y-159132805D02*
X283714464Y-159206240D01*
X283714464Y-159206240D02*
X283609425Y-159223695D01*
X283609425Y-159223695D02*
X283542910Y-159213160D01*
X283542910Y-159213160D02*
X283448406Y-159164100D01*
X283448406Y-159164100D02*
X283392427Y-159087051D01*
X283392427Y-159087051D02*
X283374972Y-158982012D01*
X283374972Y-158982012D02*
X283385506Y-158915498D01*
X283385506Y-158915498D02*
X283434566Y-158820994D01*
X283434566Y-158820994D02*
X283627189Y-158681045D01*
X283627189Y-158681045D02*
X283770753Y-158635600D01*
X284012435Y-158401147D02*
X284513255Y-158037280D01*
X284513255Y-158037280D02*
X284467501Y-158541405D01*
X284467501Y-158541405D02*
X284583075Y-158457436D01*
X284583075Y-158457436D02*
X284688114Y-158439981D01*
X284688114Y-158439981D02*
X284754628Y-158450516D01*
X284754628Y-158450516D02*
X284849133Y-158499575D01*
X284849133Y-158499575D02*
X284989081Y-158692198D01*
X284989081Y-158692198D02*
X285006536Y-158797237D01*
X285006536Y-158797237D02*
X284996002Y-158863752D01*
X284996002Y-158863752D02*
X284946942Y-158958256D01*
X284946942Y-158958256D02*
X284715794Y-159126195D01*
X284715794Y-159126195D02*
X284610755Y-159143650D01*
X284610755Y-159143650D02*
X284544241Y-159133115D01*
X285245223Y-157505474D02*
X284859977Y-157785372D01*
X284859977Y-157785372D02*
X285101350Y-158198608D01*
X285101350Y-158198608D02*
X285111885Y-158132093D01*
X285111885Y-158132093D02*
X285160944Y-158037589D01*
X285160944Y-158037589D02*
X285353567Y-157897640D01*
X285353567Y-157897640D02*
X285458606Y-157880186D01*
X285458606Y-157880186D02*
X285525121Y-157890720D01*
X285525121Y-157890720D02*
X285619625Y-157939780D01*
X285619625Y-157939780D02*
X285759574Y-158132403D01*
X285759574Y-158132403D02*
X285777029Y-158237442D01*
X285777029Y-158237442D02*
X285766494Y-158303956D01*
X285766494Y-158303956D02*
X285717434Y-158398461D01*
X285717434Y-158398461D02*
X285524811Y-158538409D01*
X285524811Y-158538409D02*
X285419772Y-158555864D01*
X285419772Y-158555864D02*
X285353258Y-158545329D01*
X278382127Y-113210433D02*
X278529105Y-113177674D01*
X278529105Y-113177674D02*
X278733192Y-113055046D01*
X278733192Y-113055046D02*
X278790302Y-112965177D01*
X278790302Y-112965177D02*
X278806593Y-112899834D01*
X278806593Y-112899834D02*
X278798360Y-112793673D01*
X278798360Y-112793673D02*
X278749308Y-112712038D01*
X278749308Y-112712038D02*
X278659440Y-112654929D01*
X278659440Y-112654929D02*
X278594097Y-112638637D01*
X278594097Y-112638637D02*
X278487936Y-112646871D01*
X278487936Y-112646871D02*
X278300140Y-112704156D01*
X278300140Y-112704156D02*
X278193980Y-112712389D01*
X278193980Y-112712389D02*
X278128637Y-112696097D01*
X278128637Y-112696097D02*
X278038768Y-112638988D01*
X278038768Y-112638988D02*
X277989717Y-112557353D01*
X277989717Y-112557353D02*
X277981483Y-112451193D01*
X277981483Y-112451193D02*
X277997775Y-112385849D01*
X277997775Y-112385849D02*
X278054884Y-112295981D01*
X278054884Y-112295981D02*
X278258972Y-112173353D01*
X278258972Y-112173353D02*
X278405950Y-112140593D01*
X278667147Y-111928096D02*
X279197774Y-111609263D01*
X279197774Y-111609263D02*
X279108256Y-112107483D01*
X279108256Y-112107483D02*
X279230709Y-112033906D01*
X279230709Y-112033906D02*
X279336870Y-112025672D01*
X279336870Y-112025672D02*
X279402213Y-112041964D01*
X279402213Y-112041964D02*
X279492081Y-112099073D01*
X279492081Y-112099073D02*
X279614709Y-112303161D01*
X279614709Y-112303161D02*
X279622943Y-112409321D01*
X279622943Y-112409321D02*
X279606651Y-112474664D01*
X279606651Y-112474664D02*
X279549542Y-112564533D01*
X279549542Y-112564533D02*
X279304637Y-112711687D01*
X279304637Y-112711687D02*
X279198476Y-112719921D01*
X279198476Y-112719921D02*
X279133133Y-112703629D01*
X280104168Y-111453524D02*
X280447527Y-112024969D01*
X279703876Y-111249613D02*
X279867673Y-111984503D01*
X279867673Y-111984503D02*
X280398300Y-111665670D01*
X287137774Y-127782277D02*
X287284752Y-127749518D01*
X287284752Y-127749518D02*
X287488839Y-127626890D01*
X287488839Y-127626890D02*
X287545949Y-127537021D01*
X287545949Y-127537021D02*
X287562240Y-127471678D01*
X287562240Y-127471678D02*
X287554007Y-127365517D01*
X287554007Y-127365517D02*
X287504955Y-127283882D01*
X287504955Y-127283882D02*
X287415087Y-127226773D01*
X287415087Y-127226773D02*
X287349744Y-127210481D01*
X287349744Y-127210481D02*
X287243583Y-127218715D01*
X287243583Y-127218715D02*
X287055787Y-127276000D01*
X287055787Y-127276000D02*
X286949627Y-127284233D01*
X286949627Y-127284233D02*
X286884284Y-127267941D01*
X286884284Y-127267941D02*
X286794415Y-127210832D01*
X286794415Y-127210832D02*
X286745364Y-127129197D01*
X286745364Y-127129197D02*
X286737130Y-127023037D01*
X286737130Y-127023037D02*
X286753422Y-126957693D01*
X286753422Y-126957693D02*
X286810531Y-126867825D01*
X286810531Y-126867825D02*
X287014619Y-126745197D01*
X287014619Y-126745197D02*
X287161597Y-126712437D01*
X287422794Y-126499940D02*
X287953421Y-126181107D01*
X287953421Y-126181107D02*
X287863903Y-126679327D01*
X287863903Y-126679327D02*
X287986356Y-126605750D01*
X287986356Y-126605750D02*
X288092517Y-126597516D01*
X288092517Y-126597516D02*
X288157860Y-126613808D01*
X288157860Y-126613808D02*
X288247728Y-126670917D01*
X288247728Y-126670917D02*
X288370356Y-126875005D01*
X288370356Y-126875005D02*
X288378590Y-126981165D01*
X288378590Y-126981165D02*
X288362298Y-127046508D01*
X288362298Y-127046508D02*
X288305189Y-127136377D01*
X288305189Y-127136377D02*
X288060284Y-127283531D01*
X288060284Y-127283531D02*
X287954123Y-127291765D01*
X287954123Y-127291765D02*
X287888780Y-127275473D01*
X288239143Y-126009428D02*
X288769771Y-125690595D01*
X288769771Y-125690595D02*
X288680253Y-126188814D01*
X288680253Y-126188814D02*
X288802706Y-126115237D01*
X288802706Y-126115237D02*
X288908866Y-126107003D01*
X288908866Y-126107003D02*
X288974209Y-126123295D01*
X288974209Y-126123295D02*
X289064078Y-126180405D01*
X289064078Y-126180405D02*
X289186706Y-126384492D01*
X289186706Y-126384492D02*
X289194940Y-126490653D01*
X289194940Y-126490653D02*
X289178648Y-126555996D01*
X289178648Y-126555996D02*
X289121539Y-126645865D01*
X289121539Y-126645865D02*
X288876634Y-126793018D01*
X288876634Y-126793018D02*
X288770473Y-126801252D01*
X288770473Y-126801252D02*
X288705130Y-126784960D01*
X295893421Y-142354121D02*
X296040399Y-142321362D01*
X296040399Y-142321362D02*
X296244486Y-142198734D01*
X296244486Y-142198734D02*
X296301596Y-142108865D01*
X296301596Y-142108865D02*
X296317887Y-142043522D01*
X296317887Y-142043522D02*
X296309654Y-141937361D01*
X296309654Y-141937361D02*
X296260602Y-141855726D01*
X296260602Y-141855726D02*
X296170734Y-141798617D01*
X296170734Y-141798617D02*
X296105391Y-141782325D01*
X296105391Y-141782325D02*
X295999230Y-141790559D01*
X295999230Y-141790559D02*
X295811434Y-141847844D01*
X295811434Y-141847844D02*
X295705274Y-141856077D01*
X295705274Y-141856077D02*
X295639931Y-141839785D01*
X295639931Y-141839785D02*
X295550062Y-141782676D01*
X295550062Y-141782676D02*
X295501011Y-141701041D01*
X295501011Y-141701041D02*
X295492777Y-141594881D01*
X295492777Y-141594881D02*
X295509069Y-141529537D01*
X295509069Y-141529537D02*
X295566178Y-141439669D01*
X295566178Y-141439669D02*
X295770266Y-141317041D01*
X295770266Y-141317041D02*
X295917244Y-141284281D01*
X296178441Y-141071784D02*
X296709068Y-140752951D01*
X296709068Y-140752951D02*
X296619550Y-141251171D01*
X296619550Y-141251171D02*
X296742003Y-141177594D01*
X296742003Y-141177594D02*
X296848164Y-141169360D01*
X296848164Y-141169360D02*
X296913507Y-141185652D01*
X296913507Y-141185652D02*
X297003375Y-141242761D01*
X297003375Y-141242761D02*
X297126003Y-141446849D01*
X297126003Y-141446849D02*
X297134237Y-141553009D01*
X297134237Y-141553009D02*
X297117945Y-141618352D01*
X297117945Y-141618352D02*
X297060836Y-141708221D01*
X297060836Y-141708221D02*
X296815931Y-141855375D01*
X296815931Y-141855375D02*
X296709770Y-141863609D01*
X296709770Y-141863609D02*
X296644427Y-141847317D01*
X297084659Y-140638381D02*
X297100951Y-140573038D01*
X297100951Y-140573038D02*
X297158060Y-140483169D01*
X297158060Y-140483169D02*
X297362148Y-140360541D01*
X297362148Y-140360541D02*
X297468308Y-140352307D01*
X297468308Y-140352307D02*
X297533652Y-140368599D01*
X297533652Y-140368599D02*
X297623520Y-140425709D01*
X297623520Y-140425709D02*
X297672571Y-140507344D01*
X297672571Y-140507344D02*
X297705331Y-140654322D01*
X297705331Y-140654322D02*
X297509828Y-141438439D01*
X297509828Y-141438439D02*
X298040456Y-141119606D01*
X300557422Y-106772186D02*
X300706696Y-106752362D01*
X300706696Y-106752362D02*
X300920695Y-106647988D01*
X300920695Y-106647988D02*
X300985419Y-106563438D01*
X300985419Y-106563438D02*
X301007344Y-106499764D01*
X301007344Y-106499764D02*
X301008394Y-106393290D01*
X301008394Y-106393290D02*
X300966645Y-106307690D01*
X300966645Y-106307690D02*
X300882095Y-106242965D01*
X300882095Y-106242965D02*
X300818421Y-106221041D01*
X300818421Y-106221041D02*
X300711946Y-106219990D01*
X300711946Y-106219990D02*
X300519873Y-106260690D01*
X300519873Y-106260690D02*
X300413398Y-106259640D01*
X300413398Y-106259640D02*
X300349724Y-106237715D01*
X300349724Y-106237715D02*
X300265175Y-106172990D01*
X300265175Y-106172990D02*
X300223425Y-106087391D01*
X300223425Y-106087391D02*
X300224475Y-105980917D01*
X300224475Y-105980917D02*
X300246400Y-105917242D01*
X300246400Y-105917242D02*
X300311125Y-105832693D01*
X300311125Y-105832693D02*
X300525123Y-105728319D01*
X300525123Y-105728319D02*
X300674397Y-105708494D01*
X300953120Y-105519571D02*
X301509517Y-105248198D01*
X301509517Y-105248198D02*
X301376917Y-105736719D01*
X301376917Y-105736719D02*
X301505316Y-105674095D01*
X301505316Y-105674095D02*
X301611791Y-105675145D01*
X301611791Y-105675145D02*
X301675465Y-105697070D01*
X301675465Y-105697070D02*
X301760014Y-105761795D01*
X301760014Y-105761795D02*
X301864389Y-105975793D01*
X301864389Y-105975793D02*
X301863338Y-106082267D01*
X301863338Y-106082267D02*
X301841414Y-106145942D01*
X301841414Y-106145942D02*
X301776689Y-106230491D01*
X301776689Y-106230491D02*
X301519891Y-106355740D01*
X301519891Y-106355740D02*
X301413416Y-106354690D01*
X301413416Y-106354690D02*
X301349742Y-106332765D01*
X302803882Y-105729496D02*
X302290286Y-105979993D01*
X302547084Y-105854745D02*
X302108713Y-104955951D01*
X302108713Y-104955951D02*
X302085738Y-105126099D01*
X302085738Y-105126099D02*
X302041888Y-105253448D01*
X302041888Y-105253448D02*
X301977163Y-105337998D01*
X308009731Y-122051685D02*
X308159005Y-122031861D01*
X308159005Y-122031861D02*
X308373004Y-121927487D01*
X308373004Y-121927487D02*
X308437728Y-121842937D01*
X308437728Y-121842937D02*
X308459653Y-121779263D01*
X308459653Y-121779263D02*
X308460703Y-121672789D01*
X308460703Y-121672789D02*
X308418954Y-121587189D01*
X308418954Y-121587189D02*
X308334404Y-121522464D01*
X308334404Y-121522464D02*
X308270730Y-121500540D01*
X308270730Y-121500540D02*
X308164255Y-121499489D01*
X308164255Y-121499489D02*
X307972182Y-121540189D01*
X307972182Y-121540189D02*
X307865707Y-121539139D01*
X307865707Y-121539139D02*
X307802033Y-121517214D01*
X307802033Y-121517214D02*
X307717484Y-121452489D01*
X307717484Y-121452489D02*
X307675734Y-121366890D01*
X307675734Y-121366890D02*
X307676784Y-121260416D01*
X307676784Y-121260416D02*
X307698709Y-121196741D01*
X307698709Y-121196741D02*
X307763434Y-121112192D01*
X307763434Y-121112192D02*
X307977432Y-121007818D01*
X307977432Y-121007818D02*
X308126706Y-120987993D01*
X308405429Y-120799070D02*
X308961826Y-120527697D01*
X308961826Y-120527697D02*
X308829226Y-121016218D01*
X308829226Y-121016218D02*
X308957625Y-120953594D01*
X308957625Y-120953594D02*
X309064100Y-120954644D01*
X309064100Y-120954644D02*
X309127774Y-120976569D01*
X309127774Y-120976569D02*
X309212323Y-121041294D01*
X309212323Y-121041294D02*
X309316698Y-121255292D01*
X309316698Y-121255292D02*
X309315647Y-121361766D01*
X309315647Y-121361766D02*
X309293723Y-121425441D01*
X309293723Y-121425441D02*
X309228998Y-121509990D01*
X309228998Y-121509990D02*
X308972200Y-121635239D01*
X308972200Y-121635239D02*
X308865725Y-121634189D01*
X308865725Y-121634189D02*
X308802051Y-121612264D01*
X309518222Y-120256324D02*
X309603821Y-120214575D01*
X309603821Y-120214575D02*
X309710296Y-120215625D01*
X309710296Y-120215625D02*
X309773970Y-120237550D01*
X309773970Y-120237550D02*
X309858520Y-120302274D01*
X309858520Y-120302274D02*
X309984819Y-120452598D01*
X309984819Y-120452598D02*
X310089193Y-120666597D01*
X310089193Y-120666597D02*
X310129892Y-120858671D01*
X310129892Y-120858671D02*
X310128842Y-120965145D01*
X310128842Y-120965145D02*
X310106917Y-121028819D01*
X310106917Y-121028819D02*
X310042193Y-121113369D01*
X310042193Y-121113369D02*
X309956593Y-121155118D01*
X309956593Y-121155118D02*
X309850119Y-121154068D01*
X309850119Y-121154068D02*
X309786444Y-121132143D01*
X309786444Y-121132143D02*
X309701895Y-121067419D01*
X309701895Y-121067419D02*
X309575596Y-120917095D01*
X309575596Y-120917095D02*
X309471222Y-120703096D01*
X309471222Y-120703096D02*
X309430522Y-120511022D01*
X309430522Y-120511022D02*
X309431572Y-120404548D01*
X309431572Y-120404548D02*
X309453497Y-120340874D01*
X309453497Y-120340874D02*
X309518222Y-120256324D01*
X315462041Y-137331184D02*
X315611315Y-137311360D01*
X315611315Y-137311360D02*
X315825314Y-137206986D01*
X315825314Y-137206986D02*
X315890038Y-137122436D01*
X315890038Y-137122436D02*
X315911963Y-137058762D01*
X315911963Y-137058762D02*
X315913013Y-136952288D01*
X315913013Y-136952288D02*
X315871264Y-136866688D01*
X315871264Y-136866688D02*
X315786714Y-136801963D01*
X315786714Y-136801963D02*
X315723040Y-136780039D01*
X315723040Y-136780039D02*
X315616565Y-136778988D01*
X315616565Y-136778988D02*
X315424492Y-136819688D01*
X315424492Y-136819688D02*
X315318017Y-136818638D01*
X315318017Y-136818638D02*
X315254343Y-136796713D01*
X315254343Y-136796713D02*
X315169794Y-136731988D01*
X315169794Y-136731988D02*
X315128044Y-136646389D01*
X315128044Y-136646389D02*
X315129094Y-136539915D01*
X315129094Y-136539915D02*
X315151019Y-136476240D01*
X315151019Y-136476240D02*
X315215744Y-136391691D01*
X315215744Y-136391691D02*
X315429742Y-136287317D01*
X315429742Y-136287317D02*
X315579016Y-136267492D01*
X315942289Y-136143293D02*
X315964214Y-136079619D01*
X315964214Y-136079619D02*
X316028938Y-135995069D01*
X316028938Y-135995069D02*
X316242937Y-135890695D01*
X316242937Y-135890695D02*
X316349411Y-135891745D01*
X316349411Y-135891745D02*
X316413086Y-135913670D01*
X316413086Y-135913670D02*
X316497635Y-135978395D01*
X316497635Y-135978395D02*
X316539385Y-136063994D01*
X316539385Y-136063994D02*
X316559209Y-136213268D01*
X316559209Y-136213268D02*
X316296110Y-136977363D01*
X316296110Y-136977363D02*
X316852507Y-136705990D01*
X317280504Y-136497242D02*
X317451703Y-136413743D01*
X317451703Y-136413743D02*
X317516427Y-136329193D01*
X317516427Y-136329193D02*
X317538352Y-136265519D01*
X317538352Y-136265519D02*
X317561327Y-136095370D01*
X317561327Y-136095370D02*
X317520628Y-135903296D01*
X317520628Y-135903296D02*
X317353629Y-135560899D01*
X317353629Y-135560899D02*
X317269080Y-135496174D01*
X317269080Y-135496174D02*
X317205405Y-135474249D01*
X317205405Y-135474249D02*
X317098931Y-135473199D01*
X317098931Y-135473199D02*
X316927732Y-135556698D01*
X316927732Y-135556698D02*
X316863008Y-135641248D01*
X316863008Y-135641248D02*
X316841083Y-135704922D01*
X316841083Y-135704922D02*
X316840033Y-135811396D01*
X316840033Y-135811396D02*
X316944407Y-136025395D01*
X316944407Y-136025395D02*
X317028956Y-136090120D01*
X317028956Y-136090120D02*
X317092631Y-136112044D01*
X317092631Y-136112044D02*
X317199105Y-136113094D01*
X317199105Y-136113094D02*
X317370304Y-136029595D01*
X317370304Y-136029595D02*
X317435028Y-135945046D01*
X317435028Y-135945046D02*
X317456953Y-135881371D01*
X317456953Y-135881371D02*
X317458003Y-135774897D01*
X332273272Y-108116854D02*
X332422591Y-108136339D01*
X332422591Y-108136339D02*
X332656312Y-108090909D01*
X332656312Y-108090909D02*
X332740714Y-108025992D01*
X332740714Y-108025992D02*
X332778372Y-107970162D01*
X332778372Y-107970162D02*
X332806944Y-107867588D01*
X332806944Y-107867588D02*
X332788772Y-107774099D01*
X332788772Y-107774099D02*
X332723855Y-107689697D01*
X332723855Y-107689697D02*
X332668025Y-107652039D01*
X332668025Y-107652039D02*
X332565450Y-107623467D01*
X332565450Y-107623467D02*
X332369388Y-107613068D01*
X332369388Y-107613068D02*
X332266813Y-107584496D01*
X332266813Y-107584496D02*
X332210983Y-107546838D01*
X332210983Y-107546838D02*
X332146066Y-107462436D01*
X332146066Y-107462436D02*
X332127894Y-107368947D01*
X332127894Y-107368947D02*
X332156466Y-107266373D01*
X332156466Y-107266373D02*
X332194124Y-107210543D01*
X332194124Y-107210543D02*
X332278526Y-107145626D01*
X332278526Y-107145626D02*
X332512247Y-107100195D01*
X332512247Y-107100195D02*
X332661566Y-107119681D01*
X333044605Y-107093736D02*
X333082263Y-107037906D01*
X333082263Y-107037906D02*
X333166665Y-106972989D01*
X333166665Y-106972989D02*
X333400386Y-106927559D01*
X333400386Y-106927559D02*
X333502960Y-106956131D01*
X333502960Y-106956131D02*
X333558791Y-106993789D01*
X333558791Y-106993789D02*
X333623707Y-107078191D01*
X333623707Y-107078191D02*
X333641879Y-107171679D01*
X333641879Y-107171679D02*
X333622394Y-107320998D01*
X333622394Y-107320998D02*
X333170497Y-107990961D01*
X333170497Y-107990961D02*
X333778171Y-107872841D01*
X334230068Y-107202878D02*
X334127493Y-107174306D01*
X334127493Y-107174306D02*
X334071663Y-107136648D01*
X334071663Y-107136648D02*
X334006746Y-107052246D01*
X334006746Y-107052246D02*
X333997660Y-107005502D01*
X333997660Y-107005502D02*
X334026232Y-106902927D01*
X334026232Y-106902927D02*
X334063890Y-106847097D01*
X334063890Y-106847097D02*
X334148292Y-106782180D01*
X334148292Y-106782180D02*
X334335269Y-106745836D01*
X334335269Y-106745836D02*
X334437843Y-106774408D01*
X334437843Y-106774408D02*
X334493674Y-106812066D01*
X334493674Y-106812066D02*
X334558590Y-106896468D01*
X334558590Y-106896468D02*
X334567676Y-106943212D01*
X334567676Y-106943212D02*
X334539104Y-107045786D01*
X334539104Y-107045786D02*
X334501446Y-107101617D01*
X334501446Y-107101617D02*
X334417044Y-107166533D01*
X334417044Y-107166533D02*
X334230068Y-107202878D01*
X334230068Y-107202878D02*
X334145665Y-107267794D01*
X334145665Y-107267794D02*
X334108007Y-107323624D01*
X334108007Y-107323624D02*
X334079436Y-107426199D01*
X334079436Y-107426199D02*
X334115780Y-107613176D01*
X334115780Y-107613176D02*
X334180697Y-107697578D01*
X334180697Y-107697578D02*
X334236527Y-107735236D01*
X334236527Y-107735236D02*
X334339101Y-107763808D01*
X334339101Y-107763808D02*
X334526078Y-107727463D01*
X334526078Y-107727463D02*
X334610480Y-107662547D01*
X334610480Y-107662547D02*
X334648138Y-107606716D01*
X334648138Y-107606716D02*
X334676710Y-107504142D01*
X334676710Y-107504142D02*
X334640365Y-107317165D01*
X334640365Y-107317165D02*
X334575449Y-107232763D01*
X334575449Y-107232763D02*
X334519619Y-107195105D01*
X334519619Y-107195105D02*
X334417044Y-107166533D01*
X335517024Y-124804516D02*
X335666343Y-124824001D01*
X335666343Y-124824001D02*
X335900064Y-124778571D01*
X335900064Y-124778571D02*
X335984466Y-124713654D01*
X335984466Y-124713654D02*
X336022124Y-124657824D01*
X336022124Y-124657824D02*
X336050696Y-124555250D01*
X336050696Y-124555250D02*
X336032524Y-124461761D01*
X336032524Y-124461761D02*
X335967607Y-124377359D01*
X335967607Y-124377359D02*
X335911777Y-124339701D01*
X335911777Y-124339701D02*
X335809202Y-124311129D01*
X335809202Y-124311129D02*
X335613140Y-124300730D01*
X335613140Y-124300730D02*
X335510565Y-124272158D01*
X335510565Y-124272158D02*
X335454735Y-124234500D01*
X335454735Y-124234500D02*
X335389818Y-124150098D01*
X335389818Y-124150098D02*
X335371646Y-124056609D01*
X335371646Y-124056609D02*
X335400218Y-123954035D01*
X335400218Y-123954035D02*
X335437876Y-123898205D01*
X335437876Y-123898205D02*
X335522278Y-123833288D01*
X335522278Y-123833288D02*
X335755999Y-123787857D01*
X335755999Y-123787857D02*
X335905318Y-123807343D01*
X336288357Y-123781398D02*
X336326015Y-123725568D01*
X336326015Y-123725568D02*
X336410417Y-123660651D01*
X336410417Y-123660651D02*
X336644138Y-123615221D01*
X336644138Y-123615221D02*
X336746712Y-123643793D01*
X336746712Y-123643793D02*
X336802543Y-123681451D01*
X336802543Y-123681451D02*
X336867459Y-123765853D01*
X336867459Y-123765853D02*
X336885631Y-123859341D01*
X336885631Y-123859341D02*
X336866146Y-124008660D01*
X336866146Y-124008660D02*
X336414249Y-124678623D01*
X336414249Y-124678623D02*
X337021923Y-124560503D01*
X337158324Y-123515273D02*
X337812742Y-123388067D01*
X337812742Y-123388067D02*
X337582853Y-124451470D01*
X338760777Y-141492179D02*
X338910096Y-141511664D01*
X338910096Y-141511664D02*
X339143817Y-141466234D01*
X339143817Y-141466234D02*
X339228219Y-141401317D01*
X339228219Y-141401317D02*
X339265877Y-141345487D01*
X339265877Y-141345487D02*
X339294449Y-141242913D01*
X339294449Y-141242913D02*
X339276277Y-141149424D01*
X339276277Y-141149424D02*
X339211360Y-141065022D01*
X339211360Y-141065022D02*
X339155530Y-141027364D01*
X339155530Y-141027364D02*
X339052955Y-140998792D01*
X339052955Y-140998792D02*
X338856893Y-140988393D01*
X338856893Y-140988393D02*
X338754318Y-140959821D01*
X338754318Y-140959821D02*
X338698488Y-140922163D01*
X338698488Y-140922163D02*
X338633571Y-140837761D01*
X338633571Y-140837761D02*
X338615399Y-140744272D01*
X338615399Y-140744272D02*
X338643971Y-140641698D01*
X338643971Y-140641698D02*
X338681629Y-140585868D01*
X338681629Y-140585868D02*
X338766031Y-140520951D01*
X338766031Y-140520951D02*
X338999752Y-140475520D01*
X338999752Y-140475520D02*
X339149071Y-140495006D01*
X339532110Y-140469061D02*
X339569768Y-140413231D01*
X339569768Y-140413231D02*
X339654170Y-140348314D01*
X339654170Y-140348314D02*
X339887891Y-140302884D01*
X339887891Y-140302884D02*
X339990465Y-140331456D01*
X339990465Y-140331456D02*
X340046296Y-140369114D01*
X340046296Y-140369114D02*
X340111212Y-140453516D01*
X340111212Y-140453516D02*
X340129384Y-140547004D01*
X340129384Y-140547004D02*
X340109899Y-140696323D01*
X340109899Y-140696323D02*
X339658002Y-141366286D01*
X339658002Y-141366286D02*
X340265676Y-141248166D01*
X340916262Y-140102989D02*
X340729286Y-140139333D01*
X340729286Y-140139333D02*
X340644883Y-140204250D01*
X340644883Y-140204250D02*
X340607225Y-140260080D01*
X340607225Y-140260080D02*
X340540996Y-140418485D01*
X340540996Y-140418485D02*
X340530596Y-140614547D01*
X340530596Y-140614547D02*
X340603285Y-140988501D01*
X340603285Y-140988501D02*
X340668202Y-141072903D01*
X340668202Y-141072903D02*
X340724032Y-141110561D01*
X340724032Y-141110561D02*
X340826606Y-141139133D01*
X340826606Y-141139133D02*
X341013583Y-141102788D01*
X341013583Y-141102788D02*
X341097985Y-141037872D01*
X341097985Y-141037872D02*
X341135643Y-140982041D01*
X341135643Y-140982041D02*
X341164215Y-140879467D01*
X341164215Y-140879467D02*
X341118784Y-140645746D01*
X341118784Y-140645746D02*
X341053868Y-140561344D01*
X341053868Y-140561344D02*
X340998038Y-140523686D01*
X340998038Y-140523686D02*
X340895463Y-140495114D01*
X340895463Y-140495114D02*
X340708486Y-140531459D01*
X340708486Y-140531459D02*
X340624084Y-140596375D01*
X340624084Y-140596375D02*
X340586426Y-140652205D01*
X340586426Y-140652205D02*
X340557854Y-140754780D01*
X355054401Y-109689963D02*
X355201453Y-109722389D01*
X355201453Y-109722389D02*
X355438244Y-109697501D01*
X355438244Y-109697501D02*
X355527983Y-109640188D01*
X355527983Y-109640188D02*
X355570364Y-109587852D01*
X355570364Y-109587852D02*
X355607767Y-109488158D01*
X355607767Y-109488158D02*
X355597812Y-109393441D01*
X355597812Y-109393441D02*
X355540498Y-109303703D01*
X355540498Y-109303703D02*
X355488163Y-109261322D01*
X355488163Y-109261322D02*
X355388469Y-109223919D01*
X355388469Y-109223919D02*
X355194058Y-109196471D01*
X355194058Y-109196471D02*
X355094364Y-109159068D01*
X355094364Y-109159068D02*
X355042029Y-109116687D01*
X355042029Y-109116687D02*
X354984715Y-109026948D01*
X354984715Y-109026948D02*
X354974760Y-108932232D01*
X354974760Y-108932232D02*
X355012163Y-108832538D01*
X355012163Y-108832538D02*
X355054544Y-108780202D01*
X355054544Y-108780202D02*
X355144283Y-108722889D01*
X355144283Y-108722889D02*
X355381074Y-108698001D01*
X355381074Y-108698001D02*
X355528126Y-108730427D01*
X355911969Y-108737965D02*
X355954350Y-108685629D01*
X355954350Y-108685629D02*
X356044088Y-108628316D01*
X356044088Y-108628316D02*
X356280879Y-108603428D01*
X356280879Y-108603428D02*
X356380573Y-108640831D01*
X356380573Y-108640831D02*
X356432909Y-108683212D01*
X356432909Y-108683212D02*
X356490222Y-108772951D01*
X356490222Y-108772951D02*
X356500177Y-108867667D01*
X356500177Y-108867667D02*
X356467752Y-109014719D01*
X356467752Y-109014719D02*
X355959184Y-109642748D01*
X355959184Y-109642748D02*
X356574841Y-109578040D01*
X357370118Y-108488944D02*
X356896536Y-108538720D01*
X356896536Y-108538720D02*
X356898953Y-109017279D01*
X356898953Y-109017279D02*
X356941334Y-108964944D01*
X356941334Y-108964944D02*
X357031073Y-108907630D01*
X357031073Y-108907630D02*
X357267864Y-108882743D01*
X357267864Y-108882743D02*
X357367557Y-108920146D01*
X357367557Y-108920146D02*
X357419893Y-108962526D01*
X357419893Y-108962526D02*
X357477206Y-109052265D01*
X357477206Y-109052265D02*
X357502094Y-109289056D01*
X357502094Y-109289056D02*
X357464691Y-109388750D01*
X357464691Y-109388750D02*
X357422310Y-109441086D01*
X357422310Y-109441086D02*
X357332572Y-109498399D01*
X357332572Y-109498399D02*
X357095781Y-109523287D01*
X357095781Y-109523287D02*
X356996087Y-109485884D01*
X356996087Y-109485884D02*
X356943751Y-109443503D01*
X356831385Y-126596835D02*
X356978437Y-126629261D01*
X356978437Y-126629261D02*
X357215228Y-126604373D01*
X357215228Y-126604373D02*
X357304967Y-126547060D01*
X357304967Y-126547060D02*
X357347348Y-126494724D01*
X357347348Y-126494724D02*
X357384751Y-126395030D01*
X357384751Y-126395030D02*
X357374796Y-126300313D01*
X357374796Y-126300313D02*
X357317482Y-126210575D01*
X357317482Y-126210575D02*
X357265147Y-126168194D01*
X357265147Y-126168194D02*
X357165453Y-126130791D01*
X357165453Y-126130791D02*
X356971042Y-126103343D01*
X356971042Y-126103343D02*
X356871348Y-126065940D01*
X356871348Y-126065940D02*
X356819013Y-126023559D01*
X356819013Y-126023559D02*
X356761699Y-125933820D01*
X356761699Y-125933820D02*
X356751744Y-125839104D01*
X356751744Y-125839104D02*
X356789147Y-125739410D01*
X356789147Y-125739410D02*
X356831528Y-125687074D01*
X356831528Y-125687074D02*
X356921267Y-125629761D01*
X356921267Y-125629761D02*
X357158058Y-125604873D01*
X357158058Y-125604873D02*
X357305110Y-125637299D01*
X357688953Y-125644837D02*
X357731334Y-125592501D01*
X357731334Y-125592501D02*
X357821072Y-125535188D01*
X357821072Y-125535188D02*
X358057863Y-125510300D01*
X358057863Y-125510300D02*
X358157557Y-125547703D01*
X358157557Y-125547703D02*
X358209893Y-125590084D01*
X358209893Y-125590084D02*
X358267206Y-125679823D01*
X358267206Y-125679823D02*
X358277161Y-125774539D01*
X358277161Y-125774539D02*
X358244736Y-125921591D01*
X358244736Y-125921591D02*
X357736168Y-126549620D01*
X357736168Y-126549620D02*
X358351825Y-126484912D01*
X359134586Y-125732301D02*
X359204272Y-126395316D01*
X358857975Y-125378323D02*
X358695847Y-126113584D01*
X358695847Y-126113584D02*
X359311504Y-126048876D01*
X358608369Y-143503707D02*
X358755421Y-143536133D01*
X358755421Y-143536133D02*
X358992212Y-143511245D01*
X358992212Y-143511245D02*
X359081951Y-143453932D01*
X359081951Y-143453932D02*
X359124332Y-143401596D01*
X359124332Y-143401596D02*
X359161735Y-143301902D01*
X359161735Y-143301902D02*
X359151780Y-143207185D01*
X359151780Y-143207185D02*
X359094466Y-143117447D01*
X359094466Y-143117447D02*
X359042131Y-143075066D01*
X359042131Y-143075066D02*
X358942437Y-143037663D01*
X358942437Y-143037663D02*
X358748026Y-143010215D01*
X358748026Y-143010215D02*
X358648332Y-142972812D01*
X358648332Y-142972812D02*
X358595997Y-142930431D01*
X358595997Y-142930431D02*
X358538683Y-142840692D01*
X358538683Y-142840692D02*
X358528728Y-142745976D01*
X358528728Y-142745976D02*
X358566131Y-142646282D01*
X358566131Y-142646282D02*
X358608512Y-142593946D01*
X358608512Y-142593946D02*
X358698251Y-142536633D01*
X358698251Y-142536633D02*
X358935042Y-142511745D01*
X358935042Y-142511745D02*
X359082094Y-142544171D01*
X359465937Y-142551709D02*
X359508318Y-142499373D01*
X359508318Y-142499373D02*
X359598056Y-142442060D01*
X359598056Y-142442060D02*
X359834847Y-142417172D01*
X359834847Y-142417172D02*
X359934541Y-142454575D01*
X359934541Y-142454575D02*
X359986877Y-142496956D01*
X359986877Y-142496956D02*
X360044190Y-142586695D01*
X360044190Y-142586695D02*
X360054145Y-142681411D01*
X360054145Y-142681411D02*
X360021720Y-142828463D01*
X360021720Y-142828463D02*
X359513152Y-143456492D01*
X359513152Y-143456492D02*
X360128809Y-143391784D01*
X360355788Y-142362419D02*
X360971444Y-142297711D01*
X360971444Y-142297711D02*
X360679757Y-142711419D01*
X360679757Y-142711419D02*
X360821832Y-142696487D01*
X360821832Y-142696487D02*
X360921525Y-142733890D01*
X360921525Y-142733890D02*
X360973861Y-142776270D01*
X360973861Y-142776270D02*
X361031174Y-142866009D01*
X361031174Y-142866009D02*
X361056062Y-143102800D01*
X361056062Y-143102800D02*
X361018659Y-143202494D01*
X361018659Y-143202494D02*
X360976278Y-143254830D01*
X360976278Y-143254830D02*
X360886540Y-143312143D01*
X360886540Y-143312143D02*
X360602391Y-143342008D01*
X360602391Y-143342008D02*
X360502697Y-143304605D01*
X360502697Y-143304605D02*
X360450361Y-143262224D01*
X166373937Y-206049158D02*
X166523812Y-206034555D01*
X166523812Y-206034555D02*
X166741323Y-205937713D01*
X166741323Y-205937713D02*
X166808958Y-205855474D01*
X166808958Y-205855474D02*
X166833092Y-205792603D01*
X166833092Y-205792603D02*
X166837858Y-205686230D01*
X166837858Y-205686230D02*
X166799121Y-205599226D01*
X166799121Y-205599226D02*
X166716882Y-205531590D01*
X166716882Y-205531590D02*
X166654011Y-205507456D01*
X166654011Y-205507456D02*
X166547638Y-205502691D01*
X166547638Y-205502691D02*
X166354261Y-205536662D01*
X166354261Y-205536662D02*
X166247889Y-205531897D01*
X166247889Y-205531897D02*
X166185018Y-205507763D01*
X166185018Y-205507763D02*
X166102779Y-205440127D01*
X166102779Y-205440127D02*
X166064042Y-205353123D01*
X166064042Y-205353123D02*
X166068808Y-205246750D01*
X166068808Y-205246750D02*
X166092941Y-205183880D01*
X166092941Y-205183880D02*
X166160577Y-205101641D01*
X166160577Y-205101641D02*
X166378088Y-205004799D01*
X166378088Y-205004799D02*
X166527963Y-204990196D01*
X166895349Y-204878751D02*
X166919482Y-204815880D01*
X166919482Y-204815880D02*
X166987118Y-204733641D01*
X166987118Y-204733641D02*
X167204629Y-204636799D01*
X167204629Y-204636799D02*
X167311002Y-204641564D01*
X167311002Y-204641564D02*
X167373873Y-204665698D01*
X167373873Y-204665698D02*
X167456111Y-204733334D01*
X167456111Y-204733334D02*
X167494848Y-204820338D01*
X167494848Y-204820338D02*
X167509451Y-204970213D01*
X167509451Y-204970213D02*
X167219846Y-205724660D01*
X167219846Y-205724660D02*
X167785374Y-205472871D01*
X167765392Y-204491382D02*
X167789526Y-204428512D01*
X167789526Y-204428512D02*
X167857162Y-204346273D01*
X167857162Y-204346273D02*
X168074673Y-204249431D01*
X168074673Y-204249431D02*
X168181045Y-204254196D01*
X168181045Y-204254196D02*
X168243916Y-204278330D01*
X168243916Y-204278330D02*
X168326155Y-204345966D01*
X168326155Y-204345966D02*
X168364892Y-204432970D01*
X168364892Y-204432970D02*
X168379495Y-204582845D01*
X168379495Y-204582845D02*
X168089890Y-205337292D01*
X168089890Y-205337292D02*
X168655418Y-205085502D01*
X160940046Y-189497990D02*
X160992942Y-189638979D01*
X160992942Y-189638979D02*
X161142781Y-189824014D01*
X161142781Y-189824014D02*
X161239723Y-189868060D01*
X161239723Y-189868060D02*
X161306697Y-189875099D01*
X161306697Y-189875099D02*
X161410679Y-189852171D01*
X161410679Y-189852171D02*
X161484693Y-189792236D01*
X161484693Y-189792236D02*
X161528739Y-189695293D01*
X161528739Y-189695293D02*
X161535778Y-189628319D01*
X161535778Y-189628319D02*
X161512850Y-189524337D01*
X161512850Y-189524337D02*
X161429986Y-189346342D01*
X161429986Y-189346342D02*
X161407058Y-189242360D01*
X161407058Y-189242360D02*
X161414097Y-189175386D01*
X161414097Y-189175386D02*
X161458144Y-189078443D01*
X161458144Y-189078443D02*
X161532158Y-189018508D01*
X161532158Y-189018508D02*
X161636139Y-188995580D01*
X161636139Y-188995580D02*
X161703114Y-189002619D01*
X161703114Y-189002619D02*
X161800056Y-189046665D01*
X161800056Y-189046665D02*
X161949894Y-189231700D01*
X161949894Y-189231700D02*
X162002790Y-189372689D01*
X162205524Y-189698712D02*
X162272499Y-189705751D01*
X162272499Y-189705751D02*
X162369441Y-189749798D01*
X162369441Y-189749798D02*
X162519279Y-189934832D01*
X162519279Y-189934832D02*
X162542208Y-190038814D01*
X162542208Y-190038814D02*
X162535168Y-190105788D01*
X162535168Y-190105788D02*
X162491122Y-190202731D01*
X162491122Y-190202731D02*
X162417108Y-190262666D01*
X162417108Y-190262666D02*
X162276120Y-190315562D01*
X162276120Y-190315562D02*
X161472425Y-190231090D01*
X161472425Y-190231090D02*
X161862004Y-190712180D01*
X162461357Y-191452320D02*
X162101745Y-191008236D01*
X162281551Y-191230278D02*
X163058697Y-190600957D01*
X163058697Y-190600957D02*
X162887741Y-190616846D01*
X162887741Y-190616846D02*
X162753791Y-190602768D01*
X162753791Y-190602768D02*
X162656849Y-190558722D01*
X142636205Y-172556346D02*
X142723789Y-172678840D01*
X142723789Y-172678840D02*
X142916412Y-172818789D01*
X142916412Y-172818789D02*
X143021451Y-172836244D01*
X143021451Y-172836244D02*
X143087965Y-172825709D01*
X143087965Y-172825709D02*
X143182469Y-172776650D01*
X143182469Y-172776650D02*
X143238449Y-172699601D01*
X143238449Y-172699601D02*
X143255904Y-172594562D01*
X143255904Y-172594562D02*
X143245369Y-172528047D01*
X143245369Y-172528047D02*
X143196310Y-172433543D01*
X143196310Y-172433543D02*
X143070201Y-172283059D01*
X143070201Y-172283059D02*
X143021141Y-172188555D01*
X143021141Y-172188555D02*
X143010607Y-172122041D01*
X143010607Y-172122041D02*
X143028061Y-172017002D01*
X143028061Y-172017002D02*
X143084041Y-171939952D01*
X143084041Y-171939952D02*
X143178545Y-171890893D01*
X143178545Y-171890893D02*
X143245060Y-171880358D01*
X143245060Y-171880358D02*
X143350099Y-171897813D01*
X143350099Y-171897813D02*
X143542722Y-172037762D01*
X143542722Y-172037762D02*
X143630306Y-172160256D01*
X143910513Y-172422699D02*
X143977027Y-172412164D01*
X143977027Y-172412164D02*
X144082066Y-172429619D01*
X144082066Y-172429619D02*
X144274689Y-172569568D01*
X144274689Y-172569568D02*
X144323749Y-172664072D01*
X144323749Y-172664072D02*
X144334284Y-172730586D01*
X144334284Y-172730586D02*
X144316829Y-172835625D01*
X144316829Y-172835625D02*
X144260849Y-172912674D01*
X144260849Y-172912674D02*
X144138355Y-173000259D01*
X144138355Y-173000259D02*
X143340183Y-173126677D01*
X143340183Y-173126677D02*
X143841003Y-173490544D01*
X144929608Y-173045394D02*
X145006657Y-173101373D01*
X145006657Y-173101373D02*
X145055717Y-173195878D01*
X145055717Y-173195878D02*
X145066252Y-173262392D01*
X145066252Y-173262392D02*
X145048797Y-173367431D01*
X145048797Y-173367431D02*
X144975362Y-173549519D01*
X144975362Y-173549519D02*
X144835413Y-173742142D01*
X144835413Y-173742142D02*
X144684930Y-173868251D01*
X144684930Y-173868251D02*
X144590425Y-173917310D01*
X144590425Y-173917310D02*
X144523911Y-173927845D01*
X144523911Y-173927845D02*
X144418872Y-173910390D01*
X144418872Y-173910390D02*
X144341823Y-173854411D01*
X144341823Y-173854411D02*
X144292763Y-173759907D01*
X144292763Y-173759907D02*
X144282228Y-173693392D01*
X144282228Y-173693392D02*
X144299683Y-173588353D01*
X144299683Y-173588353D02*
X144373118Y-173406265D01*
X144373118Y-173406265D02*
X144513067Y-173213642D01*
X144513067Y-173213642D02*
X144663550Y-173087533D01*
X144663550Y-173087533D02*
X144758055Y-173038474D01*
X144758055Y-173038474D02*
X144824569Y-173027939D01*
X144824569Y-173027939D02*
X144929608Y-173045394D01*
X196278773Y-175282259D02*
X196366357Y-175404753D01*
X196366357Y-175404753D02*
X196558980Y-175544702D01*
X196558980Y-175544702D02*
X196664019Y-175562157D01*
X196664019Y-175562157D02*
X196730533Y-175551622D01*
X196730533Y-175551622D02*
X196825037Y-175502563D01*
X196825037Y-175502563D02*
X196881017Y-175425514D01*
X196881017Y-175425514D02*
X196898472Y-175320475D01*
X196898472Y-175320475D02*
X196887937Y-175253960D01*
X196887937Y-175253960D02*
X196838878Y-175159456D01*
X196838878Y-175159456D02*
X196712769Y-175008972D01*
X196712769Y-175008972D02*
X196663709Y-174914468D01*
X196663709Y-174914468D02*
X196653175Y-174847954D01*
X196653175Y-174847954D02*
X196670629Y-174742915D01*
X196670629Y-174742915D02*
X196726609Y-174665865D01*
X196726609Y-174665865D02*
X196821113Y-174616806D01*
X196821113Y-174616806D02*
X196887628Y-174606271D01*
X196887628Y-174606271D02*
X196992667Y-174623726D01*
X196992667Y-174623726D02*
X197185290Y-174763675D01*
X197185290Y-174763675D02*
X197272874Y-174886169D01*
X197483571Y-176216457D02*
X197021275Y-175880579D01*
X197252423Y-176048518D02*
X197840208Y-175239501D01*
X197840208Y-175239501D02*
X197679190Y-175299095D01*
X197679190Y-175299095D02*
X197546161Y-175320165D01*
X197546161Y-175320165D02*
X197441122Y-175302710D01*
X197868817Y-176496355D02*
X198022915Y-176608314D01*
X198022915Y-176608314D02*
X198127954Y-176625769D01*
X198127954Y-176625769D02*
X198194469Y-176615234D01*
X198194469Y-176615234D02*
X198355487Y-176555639D01*
X198355487Y-176555639D02*
X198505971Y-176429531D01*
X198505971Y-176429531D02*
X198729889Y-176121334D01*
X198729889Y-176121334D02*
X198747344Y-176016295D01*
X198747344Y-176016295D02*
X198736809Y-175949780D01*
X198736809Y-175949780D02*
X198687750Y-175855276D01*
X198687750Y-175855276D02*
X198533651Y-175743317D01*
X198533651Y-175743317D02*
X198428612Y-175725862D01*
X198428612Y-175725862D02*
X198362098Y-175736397D01*
X198362098Y-175736397D02*
X198267594Y-175785456D01*
X198267594Y-175785456D02*
X198127645Y-175978080D01*
X198127645Y-175978080D02*
X198110190Y-176083119D01*
X198110190Y-176083119D02*
X198120725Y-176149633D01*
X198120725Y-176149633D02*
X198169784Y-176244137D01*
X198169784Y-176244137D02*
X198323883Y-176356096D01*
X198323883Y-176356096D02*
X198428922Y-176373551D01*
X198428922Y-176373551D02*
X198495436Y-176363016D01*
X198495436Y-176363016D02*
X198589940Y-176313957D01*
X196704991Y-144072191D02*
X196792575Y-144194685D01*
X196792575Y-144194685D02*
X196985198Y-144334634D01*
X196985198Y-144334634D02*
X197090237Y-144352089D01*
X197090237Y-144352089D02*
X197156751Y-144341554D01*
X197156751Y-144341554D02*
X197251255Y-144292495D01*
X197251255Y-144292495D02*
X197307235Y-144215446D01*
X197307235Y-144215446D02*
X197324690Y-144110407D01*
X197324690Y-144110407D02*
X197314155Y-144043892D01*
X197314155Y-144043892D02*
X197265096Y-143949388D01*
X197265096Y-143949388D02*
X197138987Y-143798904D01*
X197138987Y-143798904D02*
X197089927Y-143704400D01*
X197089927Y-143704400D02*
X197079393Y-143637886D01*
X197079393Y-143637886D02*
X197096847Y-143532847D01*
X197096847Y-143532847D02*
X197152827Y-143455797D01*
X197152827Y-143455797D02*
X197247331Y-143406738D01*
X197247331Y-143406738D02*
X197313846Y-143396203D01*
X197313846Y-143396203D02*
X197418885Y-143413658D01*
X197418885Y-143413658D02*
X197611508Y-143553607D01*
X197611508Y-143553607D02*
X197699092Y-143676101D01*
X197909789Y-145006389D02*
X197447493Y-144670511D01*
X197678641Y-144838450D02*
X198266426Y-144029433D01*
X198266426Y-144029433D02*
X198105408Y-144089027D01*
X198105408Y-144089027D02*
X197972379Y-144110097D01*
X197972379Y-144110097D02*
X197867340Y-144092642D01*
X198707961Y-144879971D02*
X198658902Y-144785466D01*
X198658902Y-144785466D02*
X198648367Y-144718952D01*
X198648367Y-144718952D02*
X198665822Y-144613913D01*
X198665822Y-144613913D02*
X198693812Y-144575388D01*
X198693812Y-144575388D02*
X198788316Y-144526329D01*
X198788316Y-144526329D02*
X198854830Y-144515794D01*
X198854830Y-144515794D02*
X198959869Y-144533249D01*
X198959869Y-144533249D02*
X199113968Y-144645208D01*
X199113968Y-144645208D02*
X199163027Y-144739712D01*
X199163027Y-144739712D02*
X199173562Y-144806227D01*
X199173562Y-144806227D02*
X199156107Y-144911266D01*
X199156107Y-144911266D02*
X199128117Y-144949790D01*
X199128117Y-144949790D02*
X199033613Y-144998850D01*
X199033613Y-144998850D02*
X198967099Y-145009385D01*
X198967099Y-145009385D02*
X198862060Y-144991930D01*
X198862060Y-144991930D02*
X198707961Y-144879971D01*
X198707961Y-144879971D02*
X198602922Y-144862516D01*
X198602922Y-144862516D02*
X198536408Y-144873051D01*
X198536408Y-144873051D02*
X198441904Y-144922110D01*
X198441904Y-144922110D02*
X198329945Y-145076209D01*
X198329945Y-145076209D02*
X198312490Y-145181248D01*
X198312490Y-145181248D02*
X198323025Y-145247762D01*
X198323025Y-145247762D02*
X198372084Y-145342266D01*
X198372084Y-145342266D02*
X198526183Y-145454225D01*
X198526183Y-145454225D02*
X198631222Y-145471680D01*
X198631222Y-145471680D02*
X198697736Y-145461145D01*
X198697736Y-145461145D02*
X198792240Y-145412086D01*
X198792240Y-145412086D02*
X198904199Y-145257987D01*
X198904199Y-145257987D02*
X198921654Y-145152948D01*
X198921654Y-145152948D02*
X198911119Y-145086434D01*
X198911119Y-145086434D02*
X198862060Y-144991930D01*
X186712641Y-157825480D02*
X186800225Y-157947974D01*
X186800225Y-157947974D02*
X186992848Y-158087923D01*
X186992848Y-158087923D02*
X187097887Y-158105378D01*
X187097887Y-158105378D02*
X187164401Y-158094843D01*
X187164401Y-158094843D02*
X187258905Y-158045784D01*
X187258905Y-158045784D02*
X187314885Y-157968735D01*
X187314885Y-157968735D02*
X187332340Y-157863696D01*
X187332340Y-157863696D02*
X187321805Y-157797181D01*
X187321805Y-157797181D02*
X187272746Y-157702677D01*
X187272746Y-157702677D02*
X187146637Y-157552193D01*
X187146637Y-157552193D02*
X187097577Y-157457689D01*
X187097577Y-157457689D02*
X187087043Y-157391175D01*
X187087043Y-157391175D02*
X187104497Y-157286136D01*
X187104497Y-157286136D02*
X187160477Y-157209086D01*
X187160477Y-157209086D02*
X187254981Y-157160027D01*
X187254981Y-157160027D02*
X187321496Y-157149492D01*
X187321496Y-157149492D02*
X187426535Y-157166947D01*
X187426535Y-157166947D02*
X187619158Y-157306896D01*
X187619158Y-157306896D02*
X187706742Y-157429390D01*
X187917439Y-158759678D02*
X187455143Y-158423800D01*
X187686291Y-158591739D02*
X188274076Y-157782722D01*
X188274076Y-157782722D02*
X188113058Y-157842316D01*
X188113058Y-157842316D02*
X187980029Y-157863386D01*
X187980029Y-157863386D02*
X187874990Y-157845931D01*
X188774896Y-158146589D02*
X189314241Y-158538446D01*
X189314241Y-158538446D02*
X188379734Y-159095555D01*
X176720292Y-171578769D02*
X176807876Y-171701263D01*
X176807876Y-171701263D02*
X177000499Y-171841212D01*
X177000499Y-171841212D02*
X177105538Y-171858667D01*
X177105538Y-171858667D02*
X177172052Y-171848132D01*
X177172052Y-171848132D02*
X177266556Y-171799073D01*
X177266556Y-171799073D02*
X177322536Y-171722024D01*
X177322536Y-171722024D02*
X177339991Y-171616985D01*
X177339991Y-171616985D02*
X177329456Y-171550470D01*
X177329456Y-171550470D02*
X177280397Y-171455966D01*
X177280397Y-171455966D02*
X177154288Y-171305482D01*
X177154288Y-171305482D02*
X177105228Y-171210978D01*
X177105228Y-171210978D02*
X177094694Y-171144464D01*
X177094694Y-171144464D02*
X177112148Y-171039425D01*
X177112148Y-171039425D02*
X177168128Y-170962375D01*
X177168128Y-170962375D02*
X177262632Y-170913316D01*
X177262632Y-170913316D02*
X177329147Y-170902781D01*
X177329147Y-170902781D02*
X177434186Y-170920236D01*
X177434186Y-170920236D02*
X177626809Y-171060185D01*
X177626809Y-171060185D02*
X177714393Y-171182679D01*
X177925090Y-172512967D02*
X177462794Y-172177089D01*
X177693942Y-172345028D02*
X178281727Y-171536011D01*
X178281727Y-171536011D02*
X178120709Y-171595605D01*
X178120709Y-171595605D02*
X177987680Y-171616675D01*
X177987680Y-171616675D02*
X177882641Y-171599220D01*
X179206318Y-172207766D02*
X179052220Y-172095807D01*
X179052220Y-172095807D02*
X178947181Y-172078352D01*
X178947181Y-172078352D02*
X178880666Y-172088887D01*
X178880666Y-172088887D02*
X178719648Y-172148481D01*
X178719648Y-172148481D02*
X178569164Y-172274590D01*
X178569164Y-172274590D02*
X178345246Y-172582787D01*
X178345246Y-172582787D02*
X178327791Y-172687826D01*
X178327791Y-172687826D02*
X178338326Y-172754340D01*
X178338326Y-172754340D02*
X178387385Y-172848844D01*
X178387385Y-172848844D02*
X178541484Y-172960803D01*
X178541484Y-172960803D02*
X178646523Y-172978258D01*
X178646523Y-172978258D02*
X178713037Y-172967723D01*
X178713037Y-172967723D02*
X178807541Y-172918664D01*
X178807541Y-172918664D02*
X178947490Y-172726041D01*
X178947490Y-172726041D02*
X178964945Y-172621002D01*
X178964945Y-172621002D02*
X178954410Y-172554487D01*
X178954410Y-172554487D02*
X178905351Y-172459983D01*
X178905351Y-172459983D02*
X178751252Y-172348024D01*
X178751252Y-172348024D02*
X178646213Y-172330569D01*
X178646213Y-172330569D02*
X178579699Y-172341104D01*
X178579699Y-172341104D02*
X178485195Y-172390163D01*
X184141154Y-130741399D02*
X184228738Y-130863893D01*
X184228738Y-130863893D02*
X184421361Y-131003842D01*
X184421361Y-131003842D02*
X184526400Y-131021297D01*
X184526400Y-131021297D02*
X184592914Y-131010762D01*
X184592914Y-131010762D02*
X184687418Y-130961703D01*
X184687418Y-130961703D02*
X184743398Y-130884654D01*
X184743398Y-130884654D02*
X184760853Y-130779615D01*
X184760853Y-130779615D02*
X184750318Y-130713100D01*
X184750318Y-130713100D02*
X184701259Y-130618596D01*
X184701259Y-130618596D02*
X184575150Y-130468112D01*
X184575150Y-130468112D02*
X184526090Y-130373608D01*
X184526090Y-130373608D02*
X184515556Y-130307094D01*
X184515556Y-130307094D02*
X184533010Y-130202055D01*
X184533010Y-130202055D02*
X184588990Y-130125005D01*
X184588990Y-130125005D02*
X184683494Y-130075946D01*
X184683494Y-130075946D02*
X184750009Y-130065411D01*
X184750009Y-130065411D02*
X184855048Y-130082866D01*
X184855048Y-130082866D02*
X185047671Y-130222815D01*
X185047671Y-130222815D02*
X185135255Y-130345309D01*
X185345952Y-131675597D02*
X184883656Y-131339719D01*
X185114804Y-131507658D02*
X185702589Y-130698641D01*
X185702589Y-130698641D02*
X185541571Y-130758235D01*
X185541571Y-130758235D02*
X185408542Y-130779305D01*
X185408542Y-130779305D02*
X185303503Y-130761850D01*
X186665705Y-131398386D02*
X186280459Y-131118488D01*
X186280459Y-131118488D02*
X185962036Y-131475744D01*
X185962036Y-131475744D02*
X186028551Y-131465209D01*
X186028551Y-131465209D02*
X186133590Y-131482664D01*
X186133590Y-131482664D02*
X186326213Y-131622613D01*
X186326213Y-131622613D02*
X186375272Y-131717117D01*
X186375272Y-131717117D02*
X186385807Y-131783632D01*
X186385807Y-131783632D02*
X186368352Y-131888671D01*
X186368352Y-131888671D02*
X186228403Y-132081294D01*
X186228403Y-132081294D02*
X186133899Y-132130353D01*
X186133899Y-132130353D02*
X186067385Y-132140888D01*
X186067385Y-132140888D02*
X185962346Y-132123433D01*
X185962346Y-132123433D02*
X185769723Y-131983484D01*
X185769723Y-131983484D02*
X185720663Y-131888980D01*
X185720663Y-131888980D02*
X185710128Y-131822466D01*
X174148805Y-144494688D02*
X174236389Y-144617182D01*
X174236389Y-144617182D02*
X174429012Y-144757131D01*
X174429012Y-144757131D02*
X174534051Y-144774586D01*
X174534051Y-144774586D02*
X174600565Y-144764051D01*
X174600565Y-144764051D02*
X174695069Y-144714992D01*
X174695069Y-144714992D02*
X174751049Y-144637943D01*
X174751049Y-144637943D02*
X174768504Y-144532904D01*
X174768504Y-144532904D02*
X174757969Y-144466389D01*
X174757969Y-144466389D02*
X174708910Y-144371885D01*
X174708910Y-144371885D02*
X174582801Y-144221401D01*
X174582801Y-144221401D02*
X174533741Y-144126897D01*
X174533741Y-144126897D02*
X174523207Y-144060383D01*
X174523207Y-144060383D02*
X174540661Y-143955344D01*
X174540661Y-143955344D02*
X174596641Y-143878294D01*
X174596641Y-143878294D02*
X174691145Y-143829235D01*
X174691145Y-143829235D02*
X174757660Y-143818700D01*
X174757660Y-143818700D02*
X174862699Y-143836155D01*
X174862699Y-143836155D02*
X175055322Y-143976104D01*
X175055322Y-143976104D02*
X175142906Y-144098598D01*
X175353603Y-145428886D02*
X174891307Y-145093008D01*
X175122455Y-145260947D02*
X175710240Y-144451930D01*
X175710240Y-144451930D02*
X175549222Y-144511524D01*
X175549222Y-144511524D02*
X175416193Y-144532594D01*
X175416193Y-144532594D02*
X175311154Y-144515139D01*
X176438903Y-145393357D02*
X176047046Y-145932702D01*
X176470198Y-144945211D02*
X175857728Y-145383132D01*
X175857728Y-145383132D02*
X176358548Y-145746999D01*
X164156456Y-158247977D02*
X164244040Y-158370471D01*
X164244040Y-158370471D02*
X164436663Y-158510420D01*
X164436663Y-158510420D02*
X164541702Y-158527875D01*
X164541702Y-158527875D02*
X164608216Y-158517340D01*
X164608216Y-158517340D02*
X164702720Y-158468281D01*
X164702720Y-158468281D02*
X164758700Y-158391232D01*
X164758700Y-158391232D02*
X164776155Y-158286193D01*
X164776155Y-158286193D02*
X164765620Y-158219678D01*
X164765620Y-158219678D02*
X164716561Y-158125174D01*
X164716561Y-158125174D02*
X164590452Y-157974690D01*
X164590452Y-157974690D02*
X164541392Y-157880186D01*
X164541392Y-157880186D02*
X164530858Y-157813672D01*
X164530858Y-157813672D02*
X164548312Y-157708633D01*
X164548312Y-157708633D02*
X164604292Y-157631583D01*
X164604292Y-157631583D02*
X164698796Y-157582524D01*
X164698796Y-157582524D02*
X164765311Y-157571989D01*
X164765311Y-157571989D02*
X164870350Y-157589444D01*
X164870350Y-157589444D02*
X165062973Y-157729393D01*
X165062973Y-157729393D02*
X165150557Y-157851887D01*
X165361254Y-159182175D02*
X164898958Y-158846297D01*
X165130106Y-159014236D02*
X165717891Y-158205219D01*
X165717891Y-158205219D02*
X165556873Y-158264813D01*
X165556873Y-158264813D02*
X165423844Y-158285883D01*
X165423844Y-158285883D02*
X165318805Y-158268428D01*
X166218711Y-158569086D02*
X166719531Y-158932953D01*
X166719531Y-158932953D02*
X166225941Y-159045222D01*
X166225941Y-159045222D02*
X166341515Y-159129191D01*
X166341515Y-159129191D02*
X166390574Y-159223695D01*
X166390574Y-159223695D02*
X166401109Y-159290210D01*
X166401109Y-159290210D02*
X166383654Y-159395249D01*
X166383654Y-159395249D02*
X166243705Y-159587872D01*
X166243705Y-159587872D02*
X166149201Y-159636931D01*
X166149201Y-159636931D02*
X166082687Y-159647466D01*
X166082687Y-159647466D02*
X165977648Y-159630011D01*
X165977648Y-159630011D02*
X165746500Y-159462073D01*
X165746500Y-159462073D02*
X165697440Y-159367568D01*
X165697440Y-159367568D02*
X165686906Y-159301054D01*
X169495363Y-111935101D02*
X169593289Y-112049495D01*
X169593289Y-112049495D02*
X169797377Y-112172124D01*
X169797377Y-112172124D02*
X169903538Y-112180357D01*
X169903538Y-112180357D02*
X169968881Y-112164065D01*
X169968881Y-112164065D02*
X170058749Y-112106956D01*
X170058749Y-112106956D02*
X170107801Y-112025321D01*
X170107801Y-112025321D02*
X170116034Y-111919160D01*
X170116034Y-111919160D02*
X170099742Y-111853817D01*
X170099742Y-111853817D02*
X170042633Y-111763949D01*
X170042633Y-111763949D02*
X169903889Y-111625029D01*
X169903889Y-111625029D02*
X169846779Y-111535160D01*
X169846779Y-111535160D02*
X169830488Y-111469817D01*
X169830488Y-111469817D02*
X169838721Y-111363656D01*
X169838721Y-111363656D02*
X169887773Y-111282021D01*
X169887773Y-111282021D02*
X169977641Y-111224912D01*
X169977641Y-111224912D02*
X170042984Y-111208620D01*
X170042984Y-111208620D02*
X170149145Y-111216854D01*
X170149145Y-111216854D02*
X170353232Y-111339482D01*
X170353232Y-111339482D02*
X170451159Y-111453876D01*
X170776997Y-112760738D02*
X170287187Y-112466431D01*
X170532092Y-112613585D02*
X171047130Y-111756417D01*
X171047130Y-111756417D02*
X170891918Y-111829819D01*
X170891918Y-111829819D02*
X170761232Y-111862402D01*
X170761232Y-111862402D02*
X170655071Y-111854169D01*
X171569524Y-112181411D02*
X171634867Y-112165119D01*
X171634867Y-112165119D02*
X171741027Y-112173353D01*
X171741027Y-112173353D02*
X171945115Y-112295981D01*
X171945115Y-112295981D02*
X172002224Y-112385850D01*
X172002224Y-112385850D02*
X172018516Y-112451193D01*
X172018516Y-112451193D02*
X172010282Y-112557354D01*
X172010282Y-112557354D02*
X171961231Y-112638989D01*
X171961231Y-112638989D02*
X171846837Y-112736915D01*
X171846837Y-112736915D02*
X171062719Y-112932418D01*
X171062719Y-112932418D02*
X171593347Y-113251251D01*
X160739716Y-126506945D02*
X160837642Y-126621339D01*
X160837642Y-126621339D02*
X161041730Y-126743968D01*
X161041730Y-126743968D02*
X161147891Y-126752201D01*
X161147891Y-126752201D02*
X161213234Y-126735909D01*
X161213234Y-126735909D02*
X161303102Y-126678800D01*
X161303102Y-126678800D02*
X161352154Y-126597165D01*
X161352154Y-126597165D02*
X161360387Y-126491004D01*
X161360387Y-126491004D02*
X161344095Y-126425661D01*
X161344095Y-126425661D02*
X161286986Y-126335793D01*
X161286986Y-126335793D02*
X161148242Y-126196873D01*
X161148242Y-126196873D02*
X161091132Y-126107004D01*
X161091132Y-126107004D02*
X161074841Y-126041661D01*
X161074841Y-126041661D02*
X161083074Y-125935500D01*
X161083074Y-125935500D02*
X161132126Y-125853865D01*
X161132126Y-125853865D02*
X161221994Y-125796756D01*
X161221994Y-125796756D02*
X161287337Y-125780464D01*
X161287337Y-125780464D02*
X161393498Y-125788698D01*
X161393498Y-125788698D02*
X161597585Y-125911326D01*
X161597585Y-125911326D02*
X161695512Y-126025720D01*
X162021350Y-127332582D02*
X161531540Y-127038275D01*
X161776445Y-127185429D02*
X162291483Y-126328261D01*
X162291483Y-126328261D02*
X162136271Y-126401663D01*
X162136271Y-126401663D02*
X162005585Y-126434246D01*
X162005585Y-126434246D02*
X161899424Y-126426013D01*
X162837700Y-127823095D02*
X162347890Y-127528788D01*
X162592795Y-127675941D02*
X163107833Y-126818774D01*
X163107833Y-126818774D02*
X162952621Y-126892175D01*
X162952621Y-126892175D02*
X162821935Y-126924759D01*
X162821935Y-126924759D02*
X162715774Y-126916525D01*
X151984069Y-141078789D02*
X152081995Y-141193183D01*
X152081995Y-141193183D02*
X152286083Y-141315812D01*
X152286083Y-141315812D02*
X152392244Y-141324045D01*
X152392244Y-141324045D02*
X152457587Y-141307753D01*
X152457587Y-141307753D02*
X152547455Y-141250644D01*
X152547455Y-141250644D02*
X152596507Y-141169009D01*
X152596507Y-141169009D02*
X152604740Y-141062848D01*
X152604740Y-141062848D02*
X152588448Y-140997505D01*
X152588448Y-140997505D02*
X152531339Y-140907637D01*
X152531339Y-140907637D02*
X152392595Y-140768717D01*
X152392595Y-140768717D02*
X152335485Y-140678848D01*
X152335485Y-140678848D02*
X152319194Y-140613505D01*
X152319194Y-140613505D02*
X152327427Y-140507344D01*
X152327427Y-140507344D02*
X152376479Y-140425709D01*
X152376479Y-140425709D02*
X152466347Y-140368600D01*
X152466347Y-140368600D02*
X152531690Y-140352308D01*
X152531690Y-140352308D02*
X152637851Y-140360542D01*
X152637851Y-140360542D02*
X152841938Y-140483170D01*
X152841938Y-140483170D02*
X152939865Y-140597564D01*
X153265703Y-141904426D02*
X152775893Y-141610119D01*
X153020798Y-141757273D02*
X153535836Y-140900105D01*
X153535836Y-140900105D02*
X153380624Y-140973507D01*
X153380624Y-140973507D02*
X153249938Y-141006090D01*
X153249938Y-141006090D02*
X153143777Y-140997857D01*
X154311368Y-141366092D02*
X154393003Y-141415144D01*
X154393003Y-141415144D02*
X154450113Y-141505012D01*
X154450113Y-141505012D02*
X154466404Y-141570355D01*
X154466404Y-141570355D02*
X154458171Y-141676516D01*
X154458171Y-141676516D02*
X154400886Y-141864312D01*
X154400886Y-141864312D02*
X154278258Y-142068399D01*
X154278258Y-142068399D02*
X154139338Y-142207143D01*
X154139338Y-142207143D02*
X154049469Y-142264253D01*
X154049469Y-142264253D02*
X153984126Y-142280545D01*
X153984126Y-142280545D02*
X153877965Y-142272311D01*
X153877965Y-142272311D02*
X153796330Y-142223260D01*
X153796330Y-142223260D02*
X153739221Y-142133391D01*
X153739221Y-142133391D02*
X153722929Y-142068048D01*
X153722929Y-142068048D02*
X153731163Y-141961887D01*
X153731163Y-141961887D02*
X153788448Y-141774092D01*
X153788448Y-141774092D02*
X153911076Y-141570004D01*
X153911076Y-141570004D02*
X154049996Y-141431260D01*
X154049996Y-141431260D02*
X154139865Y-141374150D01*
X154139865Y-141374150D02*
X154205208Y-141357859D01*
X154205208Y-141357859D02*
X154311368Y-141366092D01*
X147644989Y-105895444D02*
X147752514Y-106000869D01*
X147752514Y-106000869D02*
X147966512Y-106105243D01*
X147966512Y-106105243D02*
X148072986Y-106104193D01*
X148072986Y-106104193D02*
X148136661Y-106082268D01*
X148136661Y-106082268D02*
X148221210Y-106017543D01*
X148221210Y-106017543D02*
X148262960Y-105931944D01*
X148262960Y-105931944D02*
X148261910Y-105825469D01*
X148261910Y-105825469D02*
X148239985Y-105761795D01*
X148239985Y-105761795D02*
X148175260Y-105677245D01*
X148175260Y-105677245D02*
X148024936Y-105550946D01*
X148024936Y-105550946D02*
X147960212Y-105466397D01*
X147960212Y-105466397D02*
X147938287Y-105402723D01*
X147938287Y-105402723D02*
X147937237Y-105296248D01*
X147937237Y-105296248D02*
X147978986Y-105210649D01*
X147978986Y-105210649D02*
X148063536Y-105145924D01*
X148063536Y-105145924D02*
X148127210Y-105123999D01*
X148127210Y-105123999D02*
X148233684Y-105122949D01*
X148233684Y-105122949D02*
X148447683Y-105227323D01*
X148447683Y-105227323D02*
X148555207Y-105332748D01*
X148565708Y-106397490D02*
X148736907Y-106480989D01*
X148736907Y-106480989D02*
X148843381Y-106479939D01*
X148843381Y-106479939D02*
X148907056Y-106458014D01*
X148907056Y-106458014D02*
X149055280Y-106371365D01*
X149055280Y-106371365D02*
X149181579Y-106221041D01*
X149181579Y-106221041D02*
X149348577Y-105878643D01*
X149348577Y-105878643D02*
X149347527Y-105772169D01*
X149347527Y-105772169D02*
X149325602Y-105708494D01*
X149325602Y-105708494D02*
X149260878Y-105623945D01*
X149260878Y-105623945D02*
X149089679Y-105540446D01*
X149089679Y-105540446D02*
X148983205Y-105541496D01*
X148983205Y-105541496D02*
X148919530Y-105563421D01*
X148919530Y-105563421D02*
X148834981Y-105628145D01*
X148834981Y-105628145D02*
X148730607Y-105842144D01*
X148730607Y-105842144D02*
X148731657Y-105948618D01*
X148731657Y-105948618D02*
X148753582Y-106012293D01*
X148753582Y-106012293D02*
X148818306Y-106096842D01*
X148818306Y-106096842D02*
X148989505Y-106180341D01*
X148989505Y-106180341D02*
X149095979Y-106179291D01*
X149095979Y-106179291D02*
X149159654Y-106157366D01*
X149159654Y-106157366D02*
X149244203Y-106092642D01*
X140192679Y-121174943D02*
X140300204Y-121280368D01*
X140300204Y-121280368D02*
X140514202Y-121384742D01*
X140514202Y-121384742D02*
X140620676Y-121383692D01*
X140620676Y-121383692D02*
X140684351Y-121361767D01*
X140684351Y-121361767D02*
X140768900Y-121297042D01*
X140768900Y-121297042D02*
X140810650Y-121211443D01*
X140810650Y-121211443D02*
X140809600Y-121104968D01*
X140809600Y-121104968D02*
X140787675Y-121041294D01*
X140787675Y-121041294D02*
X140722950Y-120956744D01*
X140722950Y-120956744D02*
X140572626Y-120830445D01*
X140572626Y-120830445D02*
X140507902Y-120745896D01*
X140507902Y-120745896D02*
X140485977Y-120682222D01*
X140485977Y-120682222D02*
X140484927Y-120575747D01*
X140484927Y-120575747D02*
X140526676Y-120490148D01*
X140526676Y-120490148D02*
X140611226Y-120425423D01*
X140611226Y-120425423D02*
X140674900Y-120403498D01*
X140674900Y-120403498D02*
X140781374Y-120402448D01*
X140781374Y-120402448D02*
X140995373Y-120506822D01*
X140995373Y-120506822D02*
X141102897Y-120612247D01*
X141449495Y-121205142D02*
X141384771Y-121120593D01*
X141384771Y-121120593D02*
X141362846Y-121056918D01*
X141362846Y-121056918D02*
X141361796Y-120950444D01*
X141361796Y-120950444D02*
X141382671Y-120907644D01*
X141382671Y-120907644D02*
X141467220Y-120842920D01*
X141467220Y-120842920D02*
X141530895Y-120820995D01*
X141530895Y-120820995D02*
X141637369Y-120819945D01*
X141637369Y-120819945D02*
X141808568Y-120903444D01*
X141808568Y-120903444D02*
X141873292Y-120987993D01*
X141873292Y-120987993D02*
X141895217Y-121051668D01*
X141895217Y-121051668D02*
X141896267Y-121158142D01*
X141896267Y-121158142D02*
X141875392Y-121200942D01*
X141875392Y-121200942D02*
X141790843Y-121265666D01*
X141790843Y-121265666D02*
X141727169Y-121287591D01*
X141727169Y-121287591D02*
X141620694Y-121288641D01*
X141620694Y-121288641D02*
X141449495Y-121205142D01*
X141449495Y-121205142D02*
X141343021Y-121206192D01*
X141343021Y-121206192D02*
X141279347Y-121228117D01*
X141279347Y-121228117D02*
X141194797Y-121292842D01*
X141194797Y-121292842D02*
X141111298Y-121464041D01*
X141111298Y-121464041D02*
X141112348Y-121570515D01*
X141112348Y-121570515D02*
X141134273Y-121634189D01*
X141134273Y-121634189D02*
X141198998Y-121718739D01*
X141198998Y-121718739D02*
X141370197Y-121802238D01*
X141370197Y-121802238D02*
X141476671Y-121801188D01*
X141476671Y-121801188D02*
X141540345Y-121779263D01*
X141540345Y-121779263D02*
X141624895Y-121714538D01*
X141624895Y-121714538D02*
X141708394Y-121543339D01*
X141708394Y-121543339D02*
X141707344Y-121436865D01*
X141707344Y-121436865D02*
X141685419Y-121373191D01*
X141685419Y-121373191D02*
X141620694Y-121288641D01*
X132740370Y-136454442D02*
X132847895Y-136559867D01*
X132847895Y-136559867D02*
X133061893Y-136664241D01*
X133061893Y-136664241D02*
X133168367Y-136663191D01*
X133168367Y-136663191D02*
X133232042Y-136641266D01*
X133232042Y-136641266D02*
X133316591Y-136576541D01*
X133316591Y-136576541D02*
X133358341Y-136490942D01*
X133358341Y-136490942D02*
X133357291Y-136384467D01*
X133357291Y-136384467D02*
X133335366Y-136320793D01*
X133335366Y-136320793D02*
X133270641Y-136236243D01*
X133270641Y-136236243D02*
X133120317Y-136109944D01*
X133120317Y-136109944D02*
X133055593Y-136025395D01*
X133055593Y-136025395D02*
X133033668Y-135961721D01*
X133033668Y-135961721D02*
X133032618Y-135855246D01*
X133032618Y-135855246D02*
X133074367Y-135769647D01*
X133074367Y-135769647D02*
X133158917Y-135704922D01*
X133158917Y-135704922D02*
X133222591Y-135682997D01*
X133222591Y-135682997D02*
X133329065Y-135681947D01*
X133329065Y-135681947D02*
X133543064Y-135786321D01*
X133543064Y-135786321D02*
X133650588Y-135891746D01*
X133971061Y-135995070D02*
X134570257Y-136287317D01*
X134570257Y-136287317D02*
X133746689Y-136998238D01*
X115763473Y-107735236D02*
X115894619Y-107809238D01*
X115894619Y-107809238D02*
X116128340Y-107854669D01*
X116128340Y-107854669D02*
X116230914Y-107826097D01*
X116230914Y-107826097D02*
X116286744Y-107788439D01*
X116286744Y-107788439D02*
X116351661Y-107704037D01*
X116351661Y-107704037D02*
X116369833Y-107610549D01*
X116369833Y-107610549D02*
X116341261Y-107507974D01*
X116341261Y-107507974D02*
X116303603Y-107452144D01*
X116303603Y-107452144D02*
X116219201Y-107387228D01*
X116219201Y-107387228D02*
X116041311Y-107304139D01*
X116041311Y-107304139D02*
X115956908Y-107239222D01*
X115956908Y-107239222D02*
X115919250Y-107183392D01*
X115919250Y-107183392D02*
X115890679Y-107080818D01*
X115890679Y-107080818D02*
X115908851Y-106987329D01*
X115908851Y-106987329D02*
X115973767Y-106902927D01*
X115973767Y-106902927D02*
X116029598Y-106865269D01*
X116029598Y-106865269D02*
X116132172Y-106836697D01*
X116132172Y-106836697D02*
X116365893Y-106882128D01*
X116365893Y-106882128D02*
X116497039Y-106956131D01*
X117347520Y-107072937D02*
X117160543Y-107036592D01*
X117160543Y-107036592D02*
X117057969Y-107065164D01*
X117057969Y-107065164D02*
X117002139Y-107102822D01*
X117002139Y-107102822D02*
X116881392Y-107224883D01*
X116881392Y-107224883D02*
X116798303Y-107402773D01*
X116798303Y-107402773D02*
X116725614Y-107776726D01*
X116725614Y-107776726D02*
X116754186Y-107879301D01*
X116754186Y-107879301D02*
X116791844Y-107935131D01*
X116791844Y-107935131D02*
X116876246Y-108000047D01*
X116876246Y-108000047D02*
X117063223Y-108036392D01*
X117063223Y-108036392D02*
X117165797Y-108007820D01*
X117165797Y-108007820D02*
X117221627Y-107970162D01*
X117221627Y-107970162D02*
X117286544Y-107885760D01*
X117286544Y-107885760D02*
X117331975Y-107652039D01*
X117331975Y-107652039D02*
X117303403Y-107549465D01*
X117303403Y-107549465D02*
X117265745Y-107493634D01*
X117265745Y-107493634D02*
X117181343Y-107428718D01*
X117181343Y-107428718D02*
X116994366Y-107392373D01*
X116994366Y-107392373D02*
X116891792Y-107420945D01*
X116891792Y-107420945D02*
X116835961Y-107458603D01*
X116835961Y-107458603D02*
X116771045Y-107543005D01*
X112519720Y-124422898D02*
X112650866Y-124496900D01*
X112650866Y-124496900D02*
X112884587Y-124542331D01*
X112884587Y-124542331D02*
X112987161Y-124513759D01*
X112987161Y-124513759D02*
X113042991Y-124476101D01*
X113042991Y-124476101D02*
X113107908Y-124391699D01*
X113107908Y-124391699D02*
X113126080Y-124298211D01*
X113126080Y-124298211D02*
X113097508Y-124195636D01*
X113097508Y-124195636D02*
X113059850Y-124139806D01*
X113059850Y-124139806D02*
X112975448Y-124074890D01*
X112975448Y-124074890D02*
X112797558Y-123991801D01*
X112797558Y-123991801D02*
X112713155Y-123926884D01*
X112713155Y-123926884D02*
X112675497Y-123871054D01*
X112675497Y-123871054D02*
X112646926Y-123768480D01*
X112646926Y-123768480D02*
X112665098Y-123674991D01*
X112665098Y-123674991D02*
X112730014Y-123590589D01*
X112730014Y-123590589D02*
X112785845Y-123552931D01*
X112785845Y-123552931D02*
X112888419Y-123524359D01*
X112888419Y-123524359D02*
X113122140Y-123569790D01*
X113122140Y-123569790D02*
X113253286Y-123643793D01*
X114150511Y-123769685D02*
X113683070Y-123678824D01*
X113683070Y-123678824D02*
X113545464Y-124137179D01*
X113545464Y-124137179D02*
X113601294Y-124099521D01*
X113601294Y-124099521D02*
X113703869Y-124070949D01*
X113703869Y-124070949D02*
X113937590Y-124116380D01*
X113937590Y-124116380D02*
X114021992Y-124181296D01*
X114021992Y-124181296D02*
X114059650Y-124237127D01*
X114059650Y-124237127D02*
X114088222Y-124339701D01*
X114088222Y-124339701D02*
X114042791Y-124573422D01*
X114042791Y-124573422D02*
X113977874Y-124657824D01*
X113977874Y-124657824D02*
X113922044Y-124695482D01*
X113922044Y-124695482D02*
X113819470Y-124724054D01*
X113819470Y-124724054D02*
X113585749Y-124678623D01*
X113585749Y-124678623D02*
X113501347Y-124613707D01*
X113501347Y-124613707D02*
X113463689Y-124557877D01*
X109275967Y-141110561D02*
X109407113Y-141184563D01*
X109407113Y-141184563D02*
X109640834Y-141229994D01*
X109640834Y-141229994D02*
X109743408Y-141201422D01*
X109743408Y-141201422D02*
X109799238Y-141163764D01*
X109799238Y-141163764D02*
X109864155Y-141079362D01*
X109864155Y-141079362D02*
X109882327Y-140985874D01*
X109882327Y-140985874D02*
X109853755Y-140883299D01*
X109853755Y-140883299D02*
X109816097Y-140827469D01*
X109816097Y-140827469D02*
X109731695Y-140762553D01*
X109731695Y-140762553D02*
X109553805Y-140679464D01*
X109553805Y-140679464D02*
X109469402Y-140614547D01*
X109469402Y-140614547D02*
X109431744Y-140558717D01*
X109431744Y-140558717D02*
X109403173Y-140456143D01*
X109403173Y-140456143D02*
X109421345Y-140362654D01*
X109421345Y-140362654D02*
X109486261Y-140278252D01*
X109486261Y-140278252D02*
X109542092Y-140240594D01*
X109542092Y-140240594D02*
X109644666Y-140212022D01*
X109644666Y-140212022D02*
X109878387Y-140257453D01*
X109878387Y-140257453D02*
X110009533Y-140331456D01*
X110796411Y-140775471D02*
X110669205Y-141429889D01*
X110635379Y-140356087D02*
X110265367Y-141011819D01*
X110265367Y-141011819D02*
X110873041Y-141129939D01*
X92956553Y-109480906D02*
X93093651Y-109543197D01*
X93093651Y-109543197D02*
X93330441Y-109568085D01*
X93330441Y-109568085D02*
X93430135Y-109530682D01*
X93430135Y-109530682D02*
X93482471Y-109488301D01*
X93482471Y-109488301D02*
X93539784Y-109398562D01*
X93539784Y-109398562D02*
X93549739Y-109303846D01*
X93549739Y-109303846D02*
X93512336Y-109204152D01*
X93512336Y-109204152D02*
X93469956Y-109151816D01*
X93469956Y-109151816D02*
X93380217Y-109094503D01*
X93380217Y-109094503D02*
X93195762Y-109027234D01*
X93195762Y-109027234D02*
X93106023Y-108969921D01*
X93106023Y-108969921D02*
X93063642Y-108917585D01*
X93063642Y-108917585D02*
X93026239Y-108817891D01*
X93026239Y-108817891D02*
X93036194Y-108723175D01*
X93036194Y-108723175D02*
X93093508Y-108633436D01*
X93093508Y-108633436D02*
X93145843Y-108591056D01*
X93145843Y-108591056D02*
X93245537Y-108553653D01*
X93245537Y-108553653D02*
X93482328Y-108578540D01*
X93482328Y-108578540D02*
X93619425Y-108640831D01*
X93955910Y-108628316D02*
X94571566Y-108693024D01*
X94571566Y-108693024D02*
X94200239Y-109037047D01*
X94200239Y-109037047D02*
X94342313Y-109051979D01*
X94342313Y-109051979D02*
X94432052Y-109109292D01*
X94432052Y-109109292D02*
X94474433Y-109161628D01*
X94474433Y-109161628D02*
X94511836Y-109261322D01*
X94511836Y-109261322D02*
X94486948Y-109498113D01*
X94486948Y-109498113D02*
X94429635Y-109587852D01*
X94429635Y-109587852D02*
X94377299Y-109630232D01*
X94377299Y-109630232D02*
X94277605Y-109667636D01*
X94277605Y-109667636D02*
X93993456Y-109637770D01*
X93993456Y-109637770D02*
X93903717Y-109580457D01*
X93903717Y-109580457D02*
X93861337Y-109528121D01*
X91179569Y-126387778D02*
X91316667Y-126450069D01*
X91316667Y-126450069D02*
X91553457Y-126474957D01*
X91553457Y-126474957D02*
X91653151Y-126437554D01*
X91653151Y-126437554D02*
X91705487Y-126395173D01*
X91705487Y-126395173D02*
X91762800Y-126305434D01*
X91762800Y-126305434D02*
X91772755Y-126210718D01*
X91772755Y-126210718D02*
X91735352Y-126111024D01*
X91735352Y-126111024D02*
X91692972Y-126058688D01*
X91692972Y-126058688D02*
X91603233Y-126001375D01*
X91603233Y-126001375D02*
X91418778Y-125934106D01*
X91418778Y-125934106D02*
X91329039Y-125876793D01*
X91329039Y-125876793D02*
X91286658Y-125824457D01*
X91286658Y-125824457D02*
X91249255Y-125724763D01*
X91249255Y-125724763D02*
X91259210Y-125630047D01*
X91259210Y-125630047D02*
X91316524Y-125540308D01*
X91316524Y-125540308D02*
X91368859Y-125497928D01*
X91368859Y-125497928D02*
X91468553Y-125460525D01*
X91468553Y-125460525D02*
X91705344Y-125485412D01*
X91705344Y-125485412D02*
X91842441Y-125547703D01*
X92216329Y-125634882D02*
X92268665Y-125592501D01*
X92268665Y-125592501D02*
X92368359Y-125555098D01*
X92368359Y-125555098D02*
X92605150Y-125579986D01*
X92605150Y-125579986D02*
X92694888Y-125637299D01*
X92694888Y-125637299D02*
X92737269Y-125689635D01*
X92737269Y-125689635D02*
X92774672Y-125789329D01*
X92774672Y-125789329D02*
X92764717Y-125884045D01*
X92764717Y-125884045D02*
X92702426Y-126021142D01*
X92702426Y-126021142D02*
X92074398Y-126529710D01*
X92074398Y-126529710D02*
X92690054Y-126594418D01*
X89402585Y-143294650D02*
X89539683Y-143356941D01*
X89539683Y-143356941D02*
X89776473Y-143381829D01*
X89776473Y-143381829D02*
X89876167Y-143344426D01*
X89876167Y-143344426D02*
X89928503Y-143302045D01*
X89928503Y-143302045D02*
X89985816Y-143212306D01*
X89985816Y-143212306D02*
X89995771Y-143117590D01*
X89995771Y-143117590D02*
X89958368Y-143017896D01*
X89958368Y-143017896D02*
X89915988Y-142965560D01*
X89915988Y-142965560D02*
X89826249Y-142908247D01*
X89826249Y-142908247D02*
X89641794Y-142840978D01*
X89641794Y-142840978D02*
X89552055Y-142783665D01*
X89552055Y-142783665D02*
X89509674Y-142731329D01*
X89509674Y-142731329D02*
X89472271Y-142631635D01*
X89472271Y-142631635D02*
X89482226Y-142536919D01*
X89482226Y-142536919D02*
X89539540Y-142447180D01*
X89539540Y-142447180D02*
X89591875Y-142404800D01*
X89591875Y-142404800D02*
X89691569Y-142367397D01*
X89691569Y-142367397D02*
X89928360Y-142392284D01*
X89928360Y-142392284D02*
X90065457Y-142454575D01*
X90913070Y-143501290D02*
X90344772Y-143441559D01*
X90628921Y-143471424D02*
X90733449Y-142476903D01*
X90733449Y-142476903D02*
X90623800Y-142609022D01*
X90623800Y-142609022D02*
X90519129Y-142693783D01*
X90519129Y-142693783D02*
X90419435Y-142731186D01*
G04 #@! TO.C,U1*
X218860000Y-179970000D02*
X217460000Y-179970000D01*
X221530000Y-150330000D02*
X221530000Y-146550000D01*
X228630000Y-150330000D02*
X221530000Y-150330000D01*
X228630000Y-150330000D02*
X228630000Y-146550000D01*
X232700000Y-146550000D02*
X217460000Y-146550000D01*
X232700000Y-179970000D02*
X231300000Y-179970000D01*
X216420554Y-146980554D02*
G75*
G02*
X217460000Y-146550000I1039450J-1039450D01*
G01*
X217460000Y-179970000D02*
G75*
G02*
X216420553Y-179539447I-1J1469998D01*
G01*
X232700000Y-146550000D02*
G75*
G02*
X233739447Y-146980553I0J-1470000D01*
G01*
X233739447Y-179539447D02*
G75*
G02*
X232700000Y-179970000I-1039447J1039447D01*
G01*
D11*
G04 #@! TO.C,S44*
X275148253Y-203361349D02*
X268965856Y-217247240D01*
X268965856Y-217247240D02*
X282851747Y-223429637D01*
X282851747Y-223429637D02*
X289034144Y-209543746D01*
X289034144Y-209543746D02*
X275148253Y-203361349D01*
G04 #@! TO.C,S43*
X284269510Y-196991270D02*
X296082128Y-206556940D01*
X296082128Y-206556940D02*
X305647798Y-194744322D01*
X305647798Y-194744322D02*
X293835180Y-185178652D01*
X293835180Y-185178652D02*
X284269510Y-196991270D01*
G04 #@! TO.C,S42*
X300797178Y-178554441D02*
X309731514Y-190851499D01*
X309731514Y-190851499D02*
X322028572Y-181917163D01*
X322028572Y-181917163D02*
X313094236Y-169620105D01*
X313094236Y-169620105D02*
X300797178Y-178554441D01*
G04 #@! TO.C,S41*
X247154611Y-181280354D02*
X256088947Y-193577412D01*
X256088947Y-193577412D02*
X268386005Y-184643076D01*
X268386005Y-184643076D02*
X259451669Y-172346018D01*
X259451669Y-172346018D02*
X247154611Y-181280354D01*
G04 #@! TO.C,S40*
X246728393Y-150070286D02*
X255662729Y-162367344D01*
X255662729Y-162367344D02*
X267959787Y-153433008D01*
X267959787Y-153433008D02*
X259025451Y-141135950D01*
X259025451Y-141135950D02*
X246728393Y-150070286D01*
G04 #@! TO.C,S39*
X256720742Y-163823575D02*
X265655078Y-176120633D01*
X265655078Y-176120633D02*
X277952136Y-167186297D01*
X277952136Y-167186297D02*
X269017800Y-154889239D01*
X269017800Y-154889239D02*
X256720742Y-163823575D01*
G04 #@! TO.C,S38*
X266713091Y-177576864D02*
X275647427Y-189873922D01*
X275647427Y-189873922D02*
X287944485Y-180939586D01*
X287944485Y-180939586D02*
X279010149Y-168642528D01*
X279010149Y-168642528D02*
X266713091Y-177576864D01*
G04 #@! TO.C,S37*
X259292229Y-136739494D02*
X268226565Y-149036552D01*
X268226565Y-149036552D02*
X280523623Y-140102216D01*
X280523623Y-140102216D02*
X271589287Y-127805158D01*
X271589287Y-127805158D02*
X259292229Y-136739494D01*
G04 #@! TO.C,S36*
X269284578Y-150492783D02*
X278218914Y-162789841D01*
X278218914Y-162789841D02*
X290515972Y-153855505D01*
X290515972Y-153855505D02*
X281581636Y-141558447D01*
X281581636Y-141558447D02*
X269284578Y-150492783D01*
G04 #@! TO.C,S35*
X279276927Y-164246072D02*
X288211263Y-176543130D01*
X288211263Y-176543130D02*
X300508321Y-167608794D01*
X300508321Y-167608794D02*
X291573985Y-155311736D01*
X291573985Y-155311736D02*
X279276927Y-164246072D01*
G04 #@! TO.C,S34*
X273440240Y-117338053D02*
X281268819Y-130366996D01*
X281268819Y-130366996D02*
X294297762Y-122538417D01*
X294297762Y-122538417D02*
X286469183Y-109509474D01*
X286469183Y-109509474D02*
X273440240Y-117338053D01*
G04 #@! TO.C,S33*
X282195887Y-131909897D02*
X290024466Y-144938840D01*
X290024466Y-144938840D02*
X303053409Y-137110261D01*
X303053409Y-137110261D02*
X295224830Y-124081318D01*
X295224830Y-124081318D02*
X282195887Y-131909897D01*
G04 #@! TO.C,S32*
X290951534Y-146481741D02*
X298780113Y-159510684D01*
X298780113Y-159510684D02*
X311809056Y-151682105D01*
X311809056Y-151682105D02*
X303980477Y-138653162D01*
X303980477Y-138653162D02*
X290951534Y-146481741D01*
G04 #@! TO.C,S31*
X295274595Y-110453385D02*
X301937836Y-124115054D01*
X301937836Y-124115054D02*
X315599505Y-117451813D01*
X315599505Y-117451813D02*
X308936264Y-103790144D01*
X308936264Y-103790144D02*
X295274595Y-110453385D01*
G04 #@! TO.C,S30*
X302726904Y-125732884D02*
X309390145Y-139394553D01*
X309390145Y-139394553D02*
X323051814Y-132731312D01*
X323051814Y-132731312D02*
X316388573Y-119069643D01*
X316388573Y-119069643D02*
X302726904Y-125732884D01*
G04 #@! TO.C,S29*
X310179214Y-141012383D02*
X316842455Y-154674052D01*
X316842455Y-154674052D02*
X330504124Y-148010811D01*
X330504124Y-148010811D02*
X323840883Y-134349142D01*
X323840883Y-134349142D02*
X310179214Y-141012383D01*
G04 #@! TO.C,S28*
X326217689Y-110305323D02*
X329117986Y-125226056D01*
X329117986Y-125226056D02*
X344038719Y-122325759D01*
X344038719Y-122325759D02*
X341138422Y-107405026D01*
X341138422Y-107405026D02*
X326217689Y-110305323D01*
G04 #@! TO.C,S27*
X329461441Y-126992985D02*
X332361738Y-141913718D01*
X332361738Y-141913718D02*
X347282471Y-139013421D01*
X347282471Y-139013421D02*
X344382174Y-124092688D01*
X344382174Y-124092688D02*
X329461441Y-126992985D01*
G04 #@! TO.C,S26*
X332705194Y-143680648D02*
X335605491Y-158601381D01*
X335605491Y-158601381D02*
X350526224Y-155701084D01*
X350526224Y-155701084D02*
X347625927Y-140780351D01*
X347625927Y-140780351D02*
X332705194Y-143680648D01*
G04 #@! TO.C,S25*
X348831123Y-111342325D02*
X350419956Y-126459058D01*
X350419956Y-126459058D02*
X365536689Y-124870225D01*
X365536689Y-124870225D02*
X363947856Y-109753492D01*
X363947856Y-109753492D02*
X348831123Y-111342325D01*
G04 #@! TO.C,S24*
X350608107Y-128249197D02*
X352196940Y-143365930D01*
X352196940Y-143365930D02*
X367313673Y-141777097D01*
X367313673Y-141777097D02*
X365724840Y-126660364D01*
X365724840Y-126660364D02*
X350608107Y-128249197D01*
G04 #@! TO.C,S23*
X352385091Y-145156069D02*
X353973924Y-160272802D01*
X353973924Y-160272802D02*
X369090657Y-158683969D01*
X369090657Y-158683969D02*
X367501824Y-143567236D01*
X367501824Y-143567236D02*
X352385091Y-145156069D01*
G04 #@! TO.C,S22*
X160965856Y-209543746D02*
X167148253Y-223429637D01*
X167148253Y-223429637D02*
X181034144Y-217247240D01*
X181034144Y-217247240D02*
X174851747Y-203361349D01*
X174851747Y-203361349D02*
X160965856Y-209543746D01*
G04 #@! TO.C,S21*
X156164819Y-185178652D02*
X144352201Y-194744322D01*
X144352201Y-194744322D02*
X153917871Y-206556940D01*
X153917871Y-206556940D02*
X165730489Y-196991270D01*
X165730489Y-196991270D02*
X156164819Y-185178652D01*
G04 #@! TO.C,S20*
X136905763Y-169620105D02*
X127971427Y-181917163D01*
X127971427Y-181917163D02*
X140268485Y-190851499D01*
X140268485Y-190851499D02*
X149202821Y-178554441D01*
X149202821Y-178554441D02*
X136905763Y-169620105D01*
G04 #@! TO.C,S19*
X190548331Y-172346018D02*
X181613995Y-184643076D01*
X181613995Y-184643076D02*
X193911053Y-193577412D01*
X193911053Y-193577412D02*
X202845389Y-181280354D01*
X202845389Y-181280354D02*
X190548331Y-172346018D01*
G04 #@! TO.C,S18*
X190974549Y-141135950D02*
X182040213Y-153433008D01*
X182040213Y-153433008D02*
X194337271Y-162367344D01*
X194337271Y-162367344D02*
X203271607Y-150070286D01*
X203271607Y-150070286D02*
X190974549Y-141135950D01*
G04 #@! TO.C,S17*
X180982199Y-154889239D02*
X172047863Y-167186297D01*
X172047863Y-167186297D02*
X184344921Y-176120633D01*
X184344921Y-176120633D02*
X193279257Y-163823575D01*
X193279257Y-163823575D02*
X180982199Y-154889239D01*
G04 #@! TO.C,S16*
X170989850Y-168642528D02*
X162055514Y-180939586D01*
X162055514Y-180939586D02*
X174352572Y-189873922D01*
X174352572Y-189873922D02*
X183286908Y-177576864D01*
X183286908Y-177576864D02*
X170989850Y-168642528D01*
G04 #@! TO.C,S15*
X178410712Y-127805158D02*
X169476376Y-140102216D01*
X169476376Y-140102216D02*
X181773434Y-149036552D01*
X181773434Y-149036552D02*
X190707770Y-136739494D01*
X190707770Y-136739494D02*
X178410712Y-127805158D01*
G04 #@! TO.C,S14*
X168418363Y-141558447D02*
X159484027Y-153855505D01*
X159484027Y-153855505D02*
X171781085Y-162789841D01*
X171781085Y-162789841D02*
X180715421Y-150492783D01*
X180715421Y-150492783D02*
X168418363Y-141558447D01*
G04 #@! TO.C,S13*
X158426014Y-155311736D02*
X149491678Y-167608794D01*
X149491678Y-167608794D02*
X161788736Y-176543130D01*
X161788736Y-176543130D02*
X170723072Y-164246072D01*
X170723072Y-164246072D02*
X158426014Y-155311736D01*
G04 #@! TO.C,S12*
X163530816Y-109509474D02*
X155702237Y-122538417D01*
X155702237Y-122538417D02*
X168731180Y-130366996D01*
X168731180Y-130366996D02*
X176559759Y-117338053D01*
X176559759Y-117338053D02*
X163530816Y-109509474D01*
G04 #@! TO.C,S11*
X154775169Y-124081318D02*
X146946590Y-137110261D01*
X146946590Y-137110261D02*
X159975533Y-144938840D01*
X159975533Y-144938840D02*
X167804112Y-131909897D01*
X167804112Y-131909897D02*
X154775169Y-124081318D01*
G04 #@! TO.C,S10*
X146019522Y-138653162D02*
X138190943Y-151682105D01*
X138190943Y-151682105D02*
X151219886Y-159510684D01*
X151219886Y-159510684D02*
X159048465Y-146481741D01*
X159048465Y-146481741D02*
X146019522Y-138653162D01*
G04 #@! TO.C,S9*
X141063736Y-103790144D02*
X134400495Y-117451813D01*
X134400495Y-117451813D02*
X148062164Y-124115054D01*
X148062164Y-124115054D02*
X154725405Y-110453385D01*
X154725405Y-110453385D02*
X141063736Y-103790144D01*
G04 #@! TO.C,S8*
X133611426Y-119069643D02*
X126948185Y-132731312D01*
X126948185Y-132731312D02*
X140609854Y-139394553D01*
X140609854Y-139394553D02*
X147273095Y-125732884D01*
X147273095Y-125732884D02*
X133611426Y-119069643D01*
G04 #@! TO.C,S7*
X126159117Y-134349142D02*
X119495876Y-148010811D01*
X119495876Y-148010811D02*
X133157545Y-154674052D01*
X133157545Y-154674052D02*
X139820786Y-141012383D01*
X139820786Y-141012383D02*
X126159117Y-134349142D01*
G04 #@! TO.C,S6*
X108861578Y-107405026D02*
X105961281Y-122325759D01*
X105961281Y-122325759D02*
X120882014Y-125226056D01*
X120882014Y-125226056D02*
X123782311Y-110305323D01*
X123782311Y-110305323D02*
X108861578Y-107405026D01*
G04 #@! TO.C,S5*
X105617825Y-124092688D02*
X102717528Y-139013421D01*
X102717528Y-139013421D02*
X117638261Y-141913718D01*
X117638261Y-141913718D02*
X120538558Y-126992985D01*
X120538558Y-126992985D02*
X105617825Y-124092688D01*
G04 #@! TO.C,S4*
X102374072Y-140780351D02*
X99473775Y-155701084D01*
X99473775Y-155701084D02*
X114394508Y-158601381D01*
X114394508Y-158601381D02*
X117294805Y-143680648D01*
X117294805Y-143680648D02*
X102374072Y-140780351D01*
G04 #@! TO.C,S3*
X86052143Y-109753492D02*
X84463310Y-124870225D01*
X84463310Y-124870225D02*
X99580043Y-126459058D01*
X99580043Y-126459058D02*
X101168876Y-111342325D01*
X101168876Y-111342325D02*
X86052143Y-109753492D01*
G04 #@! TO.C,S2*
X84275159Y-126660364D02*
X82686326Y-141777097D01*
X82686326Y-141777097D02*
X97803059Y-143365930D01*
X97803059Y-143365930D02*
X99391892Y-128249197D01*
X99391892Y-128249197D02*
X84275159Y-126660364D01*
G04 #@! TO.C,S1*
X82498175Y-143567236D02*
X80909342Y-158683969D01*
X80909342Y-158683969D02*
X96026075Y-160272802D01*
X96026075Y-160272802D02*
X97614908Y-145156069D01*
X97614908Y-145156069D02*
X82498175Y-143567236D01*
D10*
G04 #@! TO.C,D44*
X276281157Y-217658169D02*
X276646575Y-217820863D01*
X276646575Y-217820863D02*
X276870280Y-217318413D01*
X276646575Y-217820863D02*
X276422870Y-218323313D01*
X276646575Y-217820863D02*
X277357397Y-217699487D01*
X277357397Y-217699487D02*
X277032008Y-218430323D01*
X277194702Y-218064905D02*
X277651475Y-218268273D01*
X277032008Y-218430323D02*
X276646575Y-217820863D01*
G04 #@! TO.C,D43*
X298372394Y-199597257D02*
X298624122Y-199286399D01*
X298624122Y-199286399D02*
X298196692Y-198940273D01*
X298624122Y-199286399D02*
X299051552Y-199632525D01*
X298624122Y-199286399D02*
X298690856Y-198568383D01*
X298690856Y-198568383D02*
X299312572Y-199071840D01*
X299001714Y-198820112D02*
X299316374Y-198431539D01*
X299312572Y-199071840D02*
X298624122Y-199286399D01*
G04 #@! TO.C,D42*
X313745038Y-184721726D02*
X314068645Y-184486612D01*
X314068645Y-184486612D02*
X313745363Y-184041652D01*
X314068645Y-184486612D02*
X314391927Y-184931571D01*
X314068645Y-184486612D02*
X314318941Y-183810334D01*
X314318941Y-183810334D02*
X314789169Y-184457547D01*
X314554055Y-184133941D02*
X314958564Y-183840048D01*
X314789169Y-184457547D02*
X314068645Y-184486612D01*
G04 #@! TO.C,D41*
X260102471Y-187447639D02*
X260426078Y-187212525D01*
X260426078Y-187212525D02*
X260102796Y-186767565D01*
X260426078Y-187212525D02*
X260749360Y-187657484D01*
X260426078Y-187212525D02*
X260676374Y-186536247D01*
X260676374Y-186536247D02*
X261146602Y-187183460D01*
X260911488Y-186859854D02*
X261315997Y-186565961D01*
X261146602Y-187183460D02*
X260426078Y-187212525D01*
G04 #@! TO.C,D40*
X259676253Y-156237571D02*
X259999860Y-156002457D01*
X259999860Y-156002457D02*
X259676578Y-155557497D01*
X259999860Y-156002457D02*
X260323142Y-156447416D01*
X259999860Y-156002457D02*
X260250156Y-155326179D01*
X260250156Y-155326179D02*
X260720384Y-155973392D01*
X260485270Y-155649786D02*
X260889779Y-155355893D01*
X260720384Y-155973392D02*
X259999860Y-156002457D01*
G04 #@! TO.C,D39*
X269668602Y-169990860D02*
X269992209Y-169755746D01*
X269992209Y-169755746D02*
X269668927Y-169310786D01*
X269992209Y-169755746D02*
X270315491Y-170200705D01*
X269992209Y-169755746D02*
X270242505Y-169079468D01*
X270242505Y-169079468D02*
X270712733Y-169726681D01*
X270477619Y-169403075D02*
X270882128Y-169109182D01*
X270712733Y-169726681D02*
X269992209Y-169755746D01*
G04 #@! TO.C,D38*
X279660952Y-183744149D02*
X279984559Y-183509035D01*
X279984559Y-183509035D02*
X279661277Y-183064075D01*
X279984559Y-183509035D02*
X280307841Y-183953994D01*
X279984559Y-183509035D02*
X280234855Y-182832757D01*
X280234855Y-182832757D02*
X280705083Y-183479970D01*
X280469969Y-183156364D02*
X280874478Y-182862471D01*
X280705083Y-183479970D02*
X279984559Y-183509035D01*
G04 #@! TO.C,D37*
X272240089Y-142906779D02*
X272563696Y-142671665D01*
X272563696Y-142671665D02*
X272240414Y-142226705D01*
X272563696Y-142671665D02*
X272886978Y-143116624D01*
X272563696Y-142671665D02*
X272813992Y-141995387D01*
X272813992Y-141995387D02*
X273284220Y-142642600D01*
X273049106Y-142318994D02*
X273453615Y-142025101D01*
X273284220Y-142642600D02*
X272563696Y-142671665D01*
G04 #@! TO.C,D36*
X282232438Y-156660068D02*
X282556045Y-156424954D01*
X282556045Y-156424954D02*
X282232763Y-155979994D01*
X282556045Y-156424954D02*
X282879327Y-156869913D01*
X282556045Y-156424954D02*
X282806341Y-155748676D01*
X282806341Y-155748676D02*
X283276569Y-156395889D01*
X283041455Y-156072283D02*
X283445964Y-155778390D01*
X283276569Y-156395889D02*
X282556045Y-156424954D01*
G04 #@! TO.C,D35*
X292224788Y-170413357D02*
X292548395Y-170178243D01*
X292548395Y-170178243D02*
X292225113Y-169733283D01*
X292548395Y-170178243D02*
X292871677Y-170623202D01*
X292548395Y-170178243D02*
X292798691Y-169501965D01*
X292798691Y-169501965D02*
X293268919Y-170149178D01*
X293033805Y-169825572D02*
X293438314Y-169531679D01*
X293268919Y-170149178D02*
X292548395Y-170178243D01*
G04 #@! TO.C,D34*
X285801316Y-124610351D02*
X286144182Y-124404335D01*
X286144182Y-124404335D02*
X285860912Y-123932893D01*
X286144182Y-124404335D02*
X286427453Y-124875777D01*
X286144182Y-124404335D02*
X286452468Y-123752446D01*
X286452468Y-123752446D02*
X286864498Y-124438179D01*
X286658483Y-124095312D02*
X287087066Y-123837793D01*
X286864498Y-124438179D02*
X286144182Y-124404335D01*
G04 #@! TO.C,D33*
X294556963Y-139182195D02*
X294899829Y-138976179D01*
X294899829Y-138976179D02*
X294616559Y-138504737D01*
X294899829Y-138976179D02*
X295183100Y-139447621D01*
X294899829Y-138976179D02*
X295208115Y-138324290D01*
X295208115Y-138324290D02*
X295620145Y-139010023D01*
X295414130Y-138667156D02*
X295842713Y-138409637D01*
X295620145Y-139010023D02*
X294899829Y-138976179D01*
G04 #@! TO.C,D32*
X303312611Y-153754039D02*
X303655477Y-153548023D01*
X303655477Y-153548023D02*
X303372207Y-153076581D01*
X303655477Y-153548023D02*
X303938748Y-154019465D01*
X303655477Y-153548023D02*
X303963763Y-152896134D01*
X303963763Y-152896134D02*
X304375793Y-153581867D01*
X304169778Y-153239000D02*
X304598361Y-152981481D01*
X304375793Y-153581867D02*
X303655477Y-153548023D01*
G04 #@! TO.C,D31*
X306954809Y-118775347D02*
X307314327Y-118599999D01*
X307314327Y-118599999D02*
X307073223Y-118105662D01*
X307314327Y-118599999D02*
X307555431Y-119094336D01*
X307314327Y-118599999D02*
X307678255Y-117977459D01*
X307678255Y-117977459D02*
X308028952Y-118696494D01*
X307853604Y-118336976D02*
X308303001Y-118117791D01*
X308028952Y-118696494D02*
X307314327Y-118599999D01*
G04 #@! TO.C,D30*
X314407119Y-134054846D02*
X314766637Y-133879498D01*
X314766637Y-133879498D02*
X314525533Y-133385161D01*
X314766637Y-133879498D02*
X315007741Y-134373835D01*
X314766637Y-133879498D02*
X315130565Y-133256958D01*
X315130565Y-133256958D02*
X315481262Y-133975993D01*
X315305914Y-133616475D02*
X315755311Y-133397290D01*
X315481262Y-133975993D02*
X314766637Y-133879498D01*
G04 #@! TO.C,D29*
X321859428Y-149334345D02*
X322218946Y-149158997D01*
X322218946Y-149158997D02*
X321977842Y-148664660D01*
X322218946Y-149158997D02*
X322460050Y-149653334D01*
X322218946Y-149158997D02*
X322582874Y-148536457D01*
X322582874Y-148536457D02*
X322933571Y-149255492D01*
X322758223Y-148895974D02*
X323207620Y-148676789D01*
X322933571Y-149255492D02*
X322218946Y-149158997D01*
G04 #@! TO.C,D28*
X335346029Y-121366784D02*
X335738679Y-121290460D01*
X335738679Y-121290460D02*
X335633735Y-120750565D01*
X335738679Y-121290460D02*
X335843624Y-121830355D01*
X335738679Y-121290460D02*
X336251332Y-120783324D01*
X336251332Y-120783324D02*
X336403979Y-121568626D01*
X336327656Y-121175975D02*
X336818469Y-121080570D01*
X336403979Y-121568626D02*
X335738679Y-121290460D01*
G04 #@! TO.C,D27*
X338589781Y-138054446D02*
X338982431Y-137978122D01*
X338982431Y-137978122D02*
X338877487Y-137438227D01*
X338982431Y-137978122D02*
X339087376Y-138518017D01*
X338982431Y-137978122D02*
X339495084Y-137470986D01*
X339495084Y-137470986D02*
X339647731Y-138256288D01*
X339571408Y-137863637D02*
X340062221Y-137768232D01*
X339647731Y-138256288D02*
X338982431Y-137978122D01*
G04 #@! TO.C,D26*
X341833534Y-154742109D02*
X342226184Y-154665785D01*
X342226184Y-154665785D02*
X342121240Y-154125890D01*
X342226184Y-154665785D02*
X342331129Y-155205680D01*
X342226184Y-154665785D02*
X342738837Y-154158649D01*
X342738837Y-154158649D02*
X342891484Y-154943951D01*
X342815161Y-154551300D02*
X343305974Y-154455895D01*
X342891484Y-154943951D02*
X342226184Y-154665785D01*
G04 #@! TO.C,D25*
X356960658Y-123157280D02*
X357358466Y-123115469D01*
X357358466Y-123115469D02*
X357300976Y-122568482D01*
X357358466Y-123115469D02*
X357415957Y-123662456D01*
X357358466Y-123115469D02*
X357913368Y-122654943D01*
X357913368Y-122654943D02*
X357996991Y-123450561D01*
X357955179Y-123052752D02*
X358452440Y-123000488D01*
X357996991Y-123450561D02*
X357358466Y-123115469D01*
G04 #@! TO.C,D24*
X358737642Y-140064152D02*
X359135450Y-140022341D01*
X359135450Y-140022341D02*
X359077960Y-139475354D01*
X359135450Y-140022341D02*
X359192941Y-140569328D01*
X359135450Y-140022341D02*
X359690352Y-139561815D01*
X359690352Y-139561815D02*
X359773975Y-140357433D01*
X359732163Y-139959624D02*
X360229424Y-139907360D01*
X359773975Y-140357433D02*
X359135450Y-140022341D01*
G04 #@! TO.C,D23*
X360514625Y-156971025D02*
X360912433Y-156929214D01*
X360912433Y-156929214D02*
X360854943Y-156382227D01*
X360912433Y-156929214D02*
X360969924Y-157476201D01*
X360912433Y-156929214D02*
X361467335Y-156468688D01*
X361467335Y-156468688D02*
X361550958Y-157264306D01*
X361509146Y-156866497D02*
X362006407Y-156814233D01*
X361550958Y-157264306D02*
X360912433Y-156929214D01*
G04 #@! TD*
%LPC*%
D12*
G04 #@! TO.C,U1*
X216160000Y-150560000D03*
X216160000Y-153100000D03*
X216160000Y-155640000D03*
X216160000Y-158180000D03*
X216160000Y-160720000D03*
X216160000Y-163260000D03*
X216160000Y-165800000D03*
X216160000Y-168340000D03*
X216160000Y-170880000D03*
X216160000Y-173420000D03*
X216160000Y-175960000D03*
X216160000Y-178500000D03*
X234000000Y-150560000D03*
X234000000Y-153100000D03*
X234000000Y-155640000D03*
X234000000Y-158180000D03*
X234000000Y-160720000D03*
X234000000Y-163260000D03*
X234000000Y-165800000D03*
X234000000Y-168340000D03*
X234000000Y-170880000D03*
X234000000Y-173420000D03*
X234000000Y-175960000D03*
X234000000Y-178500000D03*
D13*
X220000000Y-179800000D03*
X222540000Y-179800000D03*
X225080000Y-179800000D03*
X227620000Y-179800000D03*
X230160000Y-179800000D03*
D14*
X234000000Y-148020000D03*
D12*
X216160000Y-148020000D03*
D15*
X223810000Y-155640000D03*
X226350000Y-155640000D03*
X220000000Y-175960000D03*
G04 #@! TD*
D16*
G04 #@! TO.C,S44*
X281399746Y-208005575D03*
X285113327Y-211957703D03*
D17*
X279000000Y-213395493D03*
D18*
X273975500Y-211158441D03*
X284024500Y-215632545D03*
D19*
X272337579Y-216066569D03*
G04 #@! TD*
D16*
G04 #@! TO.C,S43*
X290373493Y-192154806D03*
X295152101Y-189590649D03*
D17*
X294958654Y-195867796D03*
D18*
X291497392Y-200142099D03*
X298419916Y-191593493D03*
D19*
X295814354Y-202994526D03*
G04 #@! TD*
D16*
G04 #@! TO.C,S42*
X307944942Y-175462602D03*
X313224376Y-174222611D03*
D17*
X311412875Y-180235802D03*
D18*
X306963282Y-183468621D03*
X315862468Y-177002983D03*
D19*
X310394884Y-187341166D03*
G04 #@! TD*
D16*
G04 #@! TO.C,S41*
X254302375Y-178188515D03*
X259581809Y-176948524D03*
D17*
X257770308Y-182961715D03*
D18*
X253320715Y-186194534D03*
X262219901Y-179728896D03*
D19*
X256752317Y-190067079D03*
G04 #@! TD*
D16*
G04 #@! TO.C,S40*
X253876157Y-146978447D03*
X259155591Y-145738456D03*
D17*
X257344090Y-151751647D03*
D18*
X252894497Y-154984466D03*
X261793683Y-148518828D03*
D19*
X256326099Y-158857011D03*
G04 #@! TD*
D16*
G04 #@! TO.C,S39*
X263868506Y-160731736D03*
X269147940Y-159491745D03*
D17*
X267336439Y-165504936D03*
D18*
X262886846Y-168737755D03*
X271786032Y-162272117D03*
D19*
X266318448Y-172610300D03*
G04 #@! TD*
D16*
G04 #@! TO.C,S38*
X273860855Y-174485025D03*
X279140289Y-173245034D03*
D17*
X277328788Y-179258225D03*
D18*
X272879195Y-182491044D03*
X281778381Y-176025406D03*
D19*
X276310797Y-186363589D03*
G04 #@! TD*
D16*
G04 #@! TO.C,S37*
X266439993Y-133647655D03*
X271719427Y-132407664D03*
D17*
X269907926Y-138420855D03*
D18*
X265458333Y-141653674D03*
X274357519Y-135188036D03*
D19*
X268889935Y-145526219D03*
G04 #@! TD*
D16*
G04 #@! TO.C,S36*
X276432342Y-147400944D03*
X281711776Y-146160953D03*
D17*
X279900275Y-152174144D03*
D18*
X275450682Y-155406963D03*
X284349868Y-148941325D03*
D19*
X278882284Y-159279508D03*
G04 #@! TD*
D16*
G04 #@! TO.C,S35*
X286424691Y-161154233D03*
X291704125Y-159914242D03*
D17*
X289892624Y-165927433D03*
D18*
X285443031Y-169160252D03*
X294342217Y-162694614D03*
D19*
X288874633Y-173032797D03*
G04 #@! TD*
D16*
G04 #@! TO.C,S34*
X280830276Y-114880948D03*
X286197693Y-114105809D03*
D17*
X283869001Y-119938235D03*
D18*
X279154581Y-122770944D03*
X288583421Y-117105526D03*
D19*
X282235611Y-126927837D03*
G04 #@! TD*
D16*
G04 #@! TO.C,S33*
X289585923Y-129452792D03*
X294953340Y-128677653D03*
D17*
X292624648Y-134510079D03*
D18*
X287910228Y-137342788D03*
X297339068Y-131677370D03*
D19*
X290991258Y-141499681D03*
G04 #@! TD*
D16*
G04 #@! TO.C,S32*
X298341570Y-144024636D03*
X303708987Y-143249497D03*
D17*
X301380295Y-149081923D03*
D18*
X296665875Y-151914632D03*
X306094715Y-146249214D03*
D19*
X299746905Y-156071525D03*
G04 #@! TD*
D16*
G04 #@! TO.C,S31*
X302850660Y-108649714D03*
X308265210Y-108345326D03*
D17*
X305437050Y-113952599D03*
D18*
X300493683Y-116363640D03*
X310380417Y-111541558D03*
D19*
X303200691Y-120773244D03*
G04 #@! TD*
D16*
G04 #@! TO.C,S30*
X310302969Y-123929213D03*
X315717519Y-123624825D03*
D17*
X312889359Y-129232098D03*
D18*
X307945992Y-131643139D03*
X317832726Y-126821057D03*
D19*
X310653000Y-136052743D03*
G04 #@! TD*
D16*
G04 #@! TO.C,S29*
X317755279Y-139208712D03*
X323169829Y-138904324D03*
D17*
X320341669Y-144511597D03*
D18*
X315398302Y-146922638D03*
X325285036Y-142100556D03*
D19*
X318105310Y-151332242D03*
G04 #@! TD*
D16*
G04 #@! TO.C,S28*
X334002431Y-110523941D03*
X339311266Y-111631313D03*
D17*
X335128204Y-116315541D03*
D18*
X329729254Y-117364990D03*
X340527154Y-115266092D03*
D19*
X331202734Y-122324966D03*
G04 #@! TD*
D16*
G04 #@! TO.C,S27*
X337246183Y-127211603D03*
X342555018Y-128318975D03*
D17*
X338371956Y-133003203D03*
D18*
X332973006Y-134052652D03*
X343770906Y-131953754D03*
D19*
X334446486Y-139012628D03*
G04 #@! TD*
D16*
G04 #@! TO.C,S26*
X340489936Y-143899266D03*
X345798771Y-145006638D03*
D17*
X341615709Y-149690866D03*
D18*
X336216759Y-150740315D03*
X347014659Y-148641417D03*
D19*
X337690239Y-155700291D03*
G04 #@! TD*
D16*
G04 #@! TO.C,S25*
X356567188Y-112238596D03*
X361759307Y-113804449D03*
D17*
X357183906Y-118106275D03*
D18*
X351714036Y-118681182D03*
X362653776Y-117531368D03*
D19*
X352749618Y-123750705D03*
G04 #@! TD*
D16*
G04 #@! TO.C,S24*
X358344172Y-129145468D03*
X363536291Y-130711321D03*
D17*
X358960890Y-135013147D03*
D18*
X353491020Y-135588054D03*
X364430760Y-134438240D03*
D19*
X354526602Y-140657577D03*
G04 #@! TD*
D16*
G04 #@! TO.C,S23*
X360121156Y-146052340D03*
X365313275Y-147618193D03*
D17*
X360737874Y-151920019D03*
D18*
X355268004Y-152494926D03*
X366207744Y-151345112D03*
D19*
X356303586Y-157564449D03*
G04 #@! TD*
D16*
G04 #@! TO.C,S22*
X168600254Y-208005575D03*
X174022128Y-207890337D03*
D17*
X171000000Y-213395493D03*
D18*
X165975500Y-215632545D03*
X176024500Y-211158441D03*
D19*
X168526966Y-220133935D03*
G04 #@! TD*
D16*
G04 #@! TO.C,S21*
X159626506Y-192154806D03*
X161141102Y-197362108D03*
D17*
X155041345Y-195867796D03*
D18*
X151580083Y-191593493D03*
X158502607Y-200142099D03*
D19*
X147892441Y-195223066D03*
G04 #@! TD*
D16*
G04 #@! TO.C,S20*
X142055057Y-175462602D03*
X144865793Y-180100464D03*
D17*
X138587124Y-180235802D03*
D18*
X134137531Y-177002983D03*
X143036717Y-183468621D03*
D19*
X131514945Y-181463313D03*
G04 #@! TD*
D16*
G04 #@! TO.C,S19*
X195697625Y-178188515D03*
X198508361Y-182826377D03*
D17*
X192229692Y-182961715D03*
D18*
X187780099Y-179728896D03*
X196679285Y-186194534D03*
D19*
X185157513Y-184189226D03*
G04 #@! TD*
D16*
G04 #@! TO.C,S18*
X196123843Y-146978447D03*
X198934579Y-151616309D03*
D17*
X192655910Y-151751647D03*
D18*
X188206317Y-148518828D03*
X197105503Y-154984466D03*
D19*
X185583731Y-152979158D03*
G04 #@! TD*
D16*
G04 #@! TO.C,S17*
X186131493Y-160731736D03*
X188942229Y-165369598D03*
D17*
X182663560Y-165504936D03*
D18*
X178213967Y-162272117D03*
X187113153Y-168737755D03*
D19*
X175591381Y-166732447D03*
G04 #@! TD*
D16*
G04 #@! TO.C,S16*
X176139144Y-174485025D03*
X178949880Y-179122887D03*
D17*
X172671211Y-179258225D03*
D18*
X168221618Y-176025406D03*
X177120804Y-182491044D03*
D19*
X165599032Y-180485736D03*
G04 #@! TD*
D16*
G04 #@! TO.C,S15*
X183560006Y-133647655D03*
X186370742Y-138285517D03*
D17*
X180092073Y-138420855D03*
D18*
X175642480Y-135188036D03*
X184541666Y-141653674D03*
D19*
X173019894Y-139648366D03*
G04 #@! TD*
D16*
G04 #@! TO.C,S14*
X173567657Y-147400944D03*
X176378393Y-152038806D03*
D17*
X170099724Y-152174144D03*
D18*
X165650131Y-148941325D03*
X174549317Y-155406963D03*
D19*
X163027545Y-153401655D03*
G04 #@! TD*
D16*
G04 #@! TO.C,S13*
X163575308Y-161154233D03*
X166386044Y-165792095D03*
D17*
X160107375Y-165927433D03*
D18*
X155657782Y-162694614D03*
X164556968Y-169160252D03*
D19*
X153035196Y-167154944D03*
G04 #@! TD*
D16*
G04 #@! TO.C,S12*
X169169723Y-114880948D03*
X172373979Y-119256190D03*
D17*
X166130998Y-119938235D03*
D18*
X161416578Y-117105526D03*
X170845418Y-122770944D03*
D19*
X159192715Y-121777456D03*
G04 #@! TD*
D16*
G04 #@! TO.C,S11*
X160414076Y-129452792D03*
X163618332Y-133828034D03*
D17*
X157375351Y-134510079D03*
D18*
X152660931Y-131677370D03*
X162089771Y-137342788D03*
D19*
X150437068Y-136349300D03*
G04 #@! TD*
D16*
G04 #@! TO.C,S10*
X151658429Y-144024636D03*
X154862685Y-148399878D03*
D17*
X148619704Y-149081923D03*
D18*
X143905284Y-146249214D03*
X153334124Y-151914632D03*
D19*
X141681421Y-150921144D03*
G04 #@! TD*
D16*
G04 #@! TO.C,S9*
X147149340Y-108649714D03*
X150722731Y-112729037D03*
D17*
X144562950Y-113952599D03*
D18*
X139619583Y-111541558D03*
X149506317Y-116363640D03*
D19*
X137811368Y-116389533D03*
G04 #@! TD*
D16*
G04 #@! TO.C,S8*
X139697030Y-123929213D03*
X143270421Y-128008536D03*
D17*
X137110640Y-129232098D03*
D18*
X132167273Y-126821057D03*
X142054007Y-131643139D03*
D19*
X130359058Y-131669032D03*
G04 #@! TD*
D16*
G04 #@! TO.C,S7*
X132244721Y-139208712D03*
X135818112Y-143288035D03*
D17*
X129658331Y-144511597D03*
D18*
X124714964Y-142100556D03*
X134601698Y-146922638D03*
D19*
X122906749Y-146948531D03*
G04 #@! TD*
D16*
G04 #@! TO.C,S6*
X115997569Y-110523941D03*
X120505006Y-113539403D03*
D17*
X114871796Y-116315541D03*
D18*
X109472846Y-115266092D03*
X120270746Y-117364990D03*
D19*
X108980994Y-120416876D03*
G04 #@! TD*
D16*
G04 #@! TO.C,S5*
X112753816Y-127211603D03*
X117261253Y-130227065D03*
D17*
X111628043Y-133003203D03*
D18*
X106229093Y-131953754D03*
X117026993Y-134052652D03*
D19*
X105737241Y-137104538D03*
G04 #@! TD*
D16*
G04 #@! TO.C,S4*
X109510063Y-143899266D03*
X114017500Y-146914728D03*
D17*
X108384290Y-149690866D03*
D18*
X102985340Y-148641417D03*
X113783240Y-150740315D03*
D19*
X102493488Y-153792201D03*
G04 #@! TD*
D16*
G04 #@! TO.C,S3*
X93432811Y-112238596D03*
X98185911Y-114849734D03*
D17*
X92816093Y-118106275D03*
D18*
X87346223Y-117531368D03*
X98285963Y-118681182D03*
D19*
X87305162Y-122705420D03*
G04 #@! TD*
D16*
G04 #@! TO.C,S2*
X91655827Y-129145468D03*
X96408927Y-131756606D03*
D17*
X91039109Y-135013147D03*
D18*
X85569239Y-134438240D03*
X96508979Y-135588054D03*
D19*
X85528178Y-139612292D03*
G04 #@! TD*
D16*
G04 #@! TO.C,S1*
X89878843Y-146052340D03*
X94631943Y-148663478D03*
D17*
X89262125Y-151920019D03*
D18*
X83792255Y-151345112D03*
X94731995Y-152494926D03*
D19*
X83751194Y-156519164D03*
G04 #@! TD*
D20*
G04 #@! TO.C,D44*
X275458966Y-217292106D03*
X278473666Y-218634336D03*
G04 #@! TD*
D21*
G04 #@! TO.C,D43*
X297806005Y-200296689D03*
X299882763Y-197732107D03*
G04 #@! TD*
D22*
G04 #@! TO.C,D42*
X313016923Y-185250733D03*
X315686679Y-183311041D03*
G04 #@! TD*
G04 #@! TO.C,D41*
X259374356Y-187976646D03*
X262044112Y-186036954D03*
G04 #@! TD*
G04 #@! TO.C,D40*
X258948138Y-156766578D03*
X261617894Y-154826886D03*
G04 #@! TD*
G04 #@! TO.C,D39*
X268940487Y-170519867D03*
X271610243Y-168580175D03*
G04 #@! TD*
G04 #@! TO.C,D38*
X278932837Y-184273156D03*
X281602593Y-182333464D03*
G04 #@! TD*
G04 #@! TO.C,D37*
X271511974Y-143435786D03*
X274181730Y-141496094D03*
G04 #@! TD*
G04 #@! TO.C,D36*
X281504323Y-157189075D03*
X284174079Y-155249383D03*
G04 #@! TD*
G04 #@! TO.C,D35*
X291496673Y-170942364D03*
X294166429Y-169002672D03*
G04 #@! TD*
D23*
G04 #@! TO.C,D34*
X285029865Y-125073885D03*
X287858517Y-123374259D03*
G04 #@! TD*
G04 #@! TO.C,D33*
X293785512Y-139645729D03*
X296614164Y-137946103D03*
G04 #@! TD*
G04 #@! TO.C,D32*
X302541160Y-154217573D03*
X305369812Y-152517947D03*
G04 #@! TD*
D24*
G04 #@! TO.C,D31*
X306145895Y-119169881D03*
X309111915Y-117723257D03*
G04 #@! TD*
G04 #@! TO.C,D30*
X313598205Y-134449380D03*
X316564225Y-133002756D03*
G04 #@! TD*
G04 #@! TO.C,D29*
X321050514Y-149728879D03*
X324016534Y-148282255D03*
G04 #@! TD*
D25*
G04 #@! TO.C,D28*
X334462564Y-121538512D03*
X337701934Y-120908842D03*
G04 #@! TD*
G04 #@! TO.C,D27*
X337706316Y-138226174D03*
X340945686Y-137596504D03*
G04 #@! TD*
G04 #@! TO.C,D26*
X340950069Y-154913837D03*
X344189439Y-154284167D03*
G04 #@! TD*
D26*
G04 #@! TO.C,D25*
X356065588Y-123251356D03*
X359347510Y-122906412D03*
G04 #@! TD*
G04 #@! TO.C,D24*
X357842572Y-140158228D03*
X361124494Y-139813284D03*
G04 #@! TD*
G04 #@! TO.C,D23*
X359619555Y-157065101D03*
X362901477Y-156720157D03*
G04 #@! TD*
%LPD*%
M02*
