G04 #@! TF.GenerationSoftware,KiCad,Pcbnew,8.0.3*
G04 #@! TF.CreationDate,2024-06-16T15:20:09+01:00*
G04 #@! TF.ProjectId,ykb,796b622e-6b69-4636-9164-5f7063625858,v1.0.0*
G04 #@! TF.SameCoordinates,Original*
G04 #@! TF.FileFunction,Paste,Top*
G04 #@! TF.FilePolarity,Positive*
%FSLAX46Y46*%
G04 Gerber Fmt 4.6, Leading zero omitted, Abs format (unit mm)*
G04 Created by KiCad (PCBNEW 8.0.3) date 2024-06-16 15:20:09*
%MOMM*%
%LPD*%
G01*
G04 APERTURE LIST*
G04 Aperture macros list*
%AMRoundRect*
0 Rectangle with rounded corners*
0 $1 Rounding radius*
0 $2 $3 $4 $5 $6 $7 $8 $9 X,Y pos of 4 corners*
0 Add a 4 corners polygon primitive as box body*
4,1,4,$2,$3,$4,$5,$6,$7,$8,$9,$2,$3,0*
0 Add four circle primitives for the rounded corners*
1,1,$1+$1,$2,$3*
1,1,$1+$1,$4,$5*
1,1,$1+$1,$6,$7*
1,1,$1+$1,$8,$9*
0 Add four rect primitives between the rounded corners*
20,1,$1+$1,$2,$3,$4,$5,0*
20,1,$1+$1,$4,$5,$6,$7,0*
20,1,$1+$1,$6,$7,$8,$9,0*
20,1,$1+$1,$8,$9,$2,$3,0*%
G04 Aperture macros list end*
%ADD10RoundRect,0.225000X-0.358074X-0.251064X0.053021X-0.434095X0.358074X0.251064X-0.053021X0.434095X0*%
%ADD11RoundRect,0.225000X0.149833X-0.410853X0.433027X-0.061137X-0.149833X0.410853X-0.433027X0.061137X0*%
%ADD12RoundRect,0.225000X0.038391X-0.435633X0.402448X-0.171130X-0.038391X0.435633X-0.402448X0.171130X0*%
%ADD13RoundRect,0.225000X0.000277X-0.437321X0.386002X-0.205554X-0.000277X0.437321X-0.386002X0.205554X0*%
%ADD14RoundRect,0.225000X-0.037839X-0.435681X0.366618X-0.238414X0.037839X0.435681X-0.366618X0.238414X0*%
%ADD15RoundRect,0.225000X-0.149313X-0.411042X0.292419X-0.325178X0.149313X0.411042X-0.292419X0.325178X0*%
%ADD16RoundRect,0.225000X-0.184569X-0.396465X0.262966X-0.349427X0.184569X0.396465X-0.262966X0.349427X0*%
G04 APERTURE END LIST*
D10*
G04 #@! TO.C,D44*
X275458966Y-217292106D03*
X278473666Y-218634336D03*
G04 #@! TD*
D11*
G04 #@! TO.C,D43*
X297806005Y-200296689D03*
X299882763Y-197732107D03*
G04 #@! TD*
D12*
G04 #@! TO.C,D42*
X313016923Y-185250733D03*
X315686679Y-183311041D03*
G04 #@! TD*
G04 #@! TO.C,D41*
X259374356Y-187976646D03*
X262044112Y-186036954D03*
G04 #@! TD*
G04 #@! TO.C,D40*
X258948138Y-156766578D03*
X261617894Y-154826886D03*
G04 #@! TD*
G04 #@! TO.C,D39*
X268940487Y-170519867D03*
X271610243Y-168580175D03*
G04 #@! TD*
G04 #@! TO.C,D38*
X278932837Y-184273156D03*
X281602593Y-182333464D03*
G04 #@! TD*
G04 #@! TO.C,D37*
X271511974Y-143435786D03*
X274181730Y-141496094D03*
G04 #@! TD*
G04 #@! TO.C,D36*
X281504323Y-157189075D03*
X284174079Y-155249383D03*
G04 #@! TD*
G04 #@! TO.C,D35*
X291496673Y-170942364D03*
X294166429Y-169002672D03*
G04 #@! TD*
D13*
G04 #@! TO.C,D34*
X285029865Y-125073885D03*
X287858517Y-123374259D03*
G04 #@! TD*
G04 #@! TO.C,D33*
X293785512Y-139645729D03*
X296614164Y-137946103D03*
G04 #@! TD*
G04 #@! TO.C,D32*
X302541160Y-154217573D03*
X305369812Y-152517947D03*
G04 #@! TD*
D14*
G04 #@! TO.C,D31*
X306145895Y-119169881D03*
X309111915Y-117723257D03*
G04 #@! TD*
G04 #@! TO.C,D30*
X313598205Y-134449380D03*
X316564225Y-133002756D03*
G04 #@! TD*
G04 #@! TO.C,D29*
X321050514Y-149728879D03*
X324016534Y-148282255D03*
G04 #@! TD*
D15*
G04 #@! TO.C,D28*
X334462564Y-121538512D03*
X337701934Y-120908842D03*
G04 #@! TD*
G04 #@! TO.C,D27*
X337706316Y-138226174D03*
X340945686Y-137596504D03*
G04 #@! TD*
G04 #@! TO.C,D26*
X340950069Y-154913837D03*
X344189439Y-154284167D03*
G04 #@! TD*
D16*
G04 #@! TO.C,D25*
X356065588Y-123251356D03*
X359347510Y-122906412D03*
G04 #@! TD*
G04 #@! TO.C,D24*
X357842572Y-140158228D03*
X361124494Y-139813284D03*
G04 #@! TD*
G04 #@! TO.C,D23*
X359619555Y-157065101D03*
X362901477Y-156720157D03*
G04 #@! TD*
M02*
