G04 #@! TF.GenerationSoftware,KiCad,Pcbnew,8.0.3*
G04 #@! TF.CreationDate,2024-06-16T15:20:09+01:00*
G04 #@! TF.ProjectId,ykb,796b622e-6b69-4636-9164-5f7063625858,v1.0.0*
G04 #@! TF.SameCoordinates,Original*
G04 #@! TF.FileFunction,Legend,Bot*
G04 #@! TF.FilePolarity,Positive*
%FSLAX46Y46*%
G04 Gerber Fmt 4.6, Leading zero omitted, Abs format (unit mm)*
G04 Created by KiCad (PCBNEW 8.0.3) date 2024-06-16 15:20:09*
%MOMM*%
%LPD*%
G01*
G04 APERTURE LIST*
G04 Aperture macros list*
%AMRoundRect*
0 Rectangle with rounded corners*
0 $1 Rounding radius*
0 $2 $3 $4 $5 $6 $7 $8 $9 X,Y pos of 4 corners*
0 Add a 4 corners polygon primitive as box body*
4,1,4,$2,$3,$4,$5,$6,$7,$8,$9,$2,$3,0*
0 Add four circle primitives for the rounded corners*
1,1,$1+$1,$2,$3*
1,1,$1+$1,$4,$5*
1,1,$1+$1,$6,$7*
1,1,$1+$1,$8,$9*
0 Add four rect primitives between the rounded corners*
20,1,$1+$1,$2,$3,$4,$5,0*
20,1,$1+$1,$4,$5,$6,$7,0*
20,1,$1+$1,$6,$7,$8,$9,0*
20,1,$1+$1,$8,$9,$2,$3,0*%
G04 Aperture macros list end*
%ADD10C,0.120000*%
%ADD11C,0.150000*%
%ADD12C,1.900000*%
%ADD13C,3.150000*%
%ADD14RoundRect,0.260000X-1.395932X-0.516913X0.549920X-1.383262X1.395932X0.516913X-0.549920X1.383262X0*%
%ADD15C,5.150000*%
%ADD16C,2.000000*%
%ADD17C,1.700000*%
%ADD18RoundRect,0.260000X0.138006X-1.482154X1.478458X0.173167X-0.138006X1.482154X-1.478458X-0.173167X0*%
%ADD19RoundRect,0.260000X-0.250306X-1.467369X1.472900X-0.215386X0.250306X1.467369X-1.472900X0.215386X0*%
%ADD20RoundRect,0.260000X-0.377244X-1.439970X1.448523X-0.342938X0.377244X1.439970X-1.448523X0.342938X0*%
%ADD21RoundRect,0.260000X-0.501310X-1.401611X1.413122X-0.467881X0.501310X1.401611X-1.413122X0.467881X0*%
%ADD22RoundRect,0.260000X-0.846992X-1.224104X1.243874X-0.817681X0.846992X1.224104X-1.243874X0.817681X0*%
%ADD23RoundRect,0.260000X-0.950456X-1.145626X1.167875X-0.922980X0.950456X1.145626X-1.167875X0.922980X0*%
%ADD24RoundRect,0.260000X-0.549920X-1.383262X1.395932X-0.516913X0.549920X1.383262X-1.395932X0.516913X0*%
%ADD25RoundRect,0.260000X-1.478458X0.173167X-0.138006X-1.482154X1.478458X-0.173167X0.138006X1.482154X0*%
%ADD26RoundRect,0.260000X-1.472900X-0.215386X0.250306X-1.467369X1.472900X0.215386X-0.250306X1.467369X0*%
%ADD27RoundRect,0.260000X-1.448523X-0.342938X0.377244X-1.439970X1.448523X0.342938X-0.377244X1.439970X0*%
%ADD28RoundRect,0.260000X-1.413122X-0.467881X0.501310X-1.401611X1.413122X0.467881X-0.501310X1.401611X0*%
%ADD29RoundRect,0.260000X-1.243874X-0.817681X0.846992X-1.224104X1.243874X0.817681X-0.846992X1.224104X0*%
%ADD30RoundRect,0.260000X-1.167875X-0.922980X0.950456X-1.145626X1.167875X0.922980X-0.950456X1.145626X0*%
%ADD31RoundRect,0.250000X0.467102X-0.065692X0.263734X0.391081X-0.467102X0.065692X-0.263734X-0.391081X0*%
%ADD32RoundRect,0.250000X0.057442X-0.468188X0.446015X-0.153528X-0.057442X0.468188X-0.446015X0.153528X0*%
%ADD33RoundRect,0.250000X0.176660X-0.437368X0.470553X-0.032860X-0.176660X0.437368X-0.470553X0.032860X0*%
%ADD34RoundRect,0.250000X0.214107X-0.420307X0.471626X0.008277X-0.214107X0.420307X-0.471626X-0.008277X0*%
%ADD35RoundRect,0.250000X0.249925X-0.400047X0.469110X0.049350X-0.249925X0.400047X-0.469110X-0.049350X0*%
%ADD36RoundRect,0.250000X0.344949X-0.321730X0.440353X0.169083X-0.344949X0.321730X-0.440353X-0.169083X0*%
%ADD37RoundRect,0.250000X0.371677X-0.290442X0.423941X0.206819X-0.371677X0.290442X-0.423941X-0.206819X0*%
G04 APERTURE END LIST*
D10*
G04 #@! TO.C,S44*
X286587219Y-214260256D02*
X286918836Y-214407901D01*
X286918836Y-214407901D02*
X286535690Y-215268461D01*
X286535690Y-215268461D02*
X282802943Y-213606535D01*
X282802943Y-213606535D02*
X282543742Y-213426547D01*
X282543742Y-213426547D02*
X282362575Y-213159799D01*
X282362575Y-213159799D02*
X282291199Y-212845604D01*
X282291199Y-212845604D02*
X282337496Y-212540015D01*
X282337496Y-212540015D02*
X282423769Y-211967619D01*
X282423769Y-211967619D02*
X282299242Y-211416306D01*
X282299242Y-211416306D02*
X281983268Y-210948329D01*
X281983268Y-210948329D02*
X281512563Y-210623821D01*
X281512563Y-210623821D02*
X279094408Y-209547189D01*
X279094408Y-209547189D02*
X278576956Y-208199181D01*
X279806386Y-205644359D02*
X281043490Y-205169479D01*
X281043490Y-205169479D02*
X283553000Y-206286785D01*
X283553000Y-206286785D02*
X283888620Y-206523783D01*
X283888620Y-206523783D02*
X284107909Y-206872089D01*
X284107909Y-206872089D02*
X284378039Y-207575799D01*
X284378039Y-207575799D02*
X284287743Y-207778606D01*
X284287743Y-207778606D02*
X284189071Y-208214125D01*
X284189071Y-208214125D02*
X284262704Y-208648640D01*
X284262704Y-208648640D02*
X284498731Y-209020818D01*
X284498731Y-209020818D02*
X284863478Y-209278447D01*
X284863478Y-209278447D02*
X287421405Y-210417310D01*
X287421405Y-210417310D02*
X287693697Y-210609693D01*
X287693697Y-210609693D02*
X287875357Y-210897459D01*
X287875357Y-210897459D02*
X287932910Y-211232866D01*
X287932910Y-211232866D02*
X287836885Y-211657523D01*
G04 #@! TO.C,S43*
X297757667Y-188762922D02*
X297986111Y-188480818D01*
X297986111Y-188480818D02*
X298718182Y-189073638D01*
X298718182Y-189073638D02*
X296146779Y-192249057D01*
X296146779Y-192249057D02*
X295905838Y-192452842D01*
X295905838Y-192452842D02*
X295601289Y-192558795D01*
X295601289Y-192558795D02*
X295279327Y-192546420D01*
X295279327Y-192546420D02*
X294996133Y-192422608D01*
X294996133Y-192422608D02*
X294465570Y-192191128D01*
X294465570Y-192191128D02*
X293900813Y-192168721D01*
X293900813Y-192168721D02*
X293367002Y-192352807D01*
X293367002Y-192352807D02*
X292931723Y-192723485D01*
X292931723Y-192723485D02*
X291265912Y-194780590D01*
X291265912Y-194780590D02*
X289829910Y-194931520D01*
X287680342Y-193082746D02*
X287541829Y-191764887D01*
X287541829Y-191764887D02*
X289270572Y-189630067D01*
X289270572Y-189630067D02*
X289586360Y-189367223D01*
X289586360Y-189367223D02*
X289979554Y-189245553D01*
X289979554Y-189245553D02*
X290729200Y-189166762D01*
X290729200Y-189166762D02*
X290901727Y-189306471D01*
X290901727Y-189306471D02*
X291296868Y-189514502D01*
X291296868Y-189514502D02*
X291735634Y-189555839D01*
X291735634Y-189555839D02*
X292156219Y-189424181D01*
X292156219Y-189424181D02*
X292499473Y-189138541D01*
X292499473Y-189138541D02*
X294261570Y-186962533D01*
X294261570Y-186962533D02*
X294517872Y-186749312D01*
X294517872Y-186749312D02*
X294842850Y-186648321D01*
X294842850Y-186648321D02*
X295181724Y-186679538D01*
X295181724Y-186679538D02*
X295567058Y-186882201D01*
G04 #@! TO.C,S42*
X315955391Y-174097459D02*
X316249064Y-173884093D01*
X316249064Y-173884093D02*
X316802758Y-174646187D01*
X316802758Y-174646187D02*
X313497114Y-177047877D01*
X313497114Y-177047877D02*
X313211640Y-177182359D01*
X313211640Y-177182359D02*
X312890046Y-177205879D01*
X312890046Y-177205879D02*
X312582257Y-177110595D01*
X312582257Y-177110595D02*
X312340757Y-176917707D01*
X312340757Y-176917707D02*
X311888184Y-176556794D01*
X311888184Y-176556794D02*
X311348470Y-176388981D01*
X311348470Y-176388981D02*
X310785203Y-176428634D01*
X310785203Y-176428634D02*
X310268818Y-176674022D01*
X310268818Y-176674022D02*
X308127350Y-178229890D01*
X308127350Y-178229890D02*
X306701215Y-178004012D01*
X305103389Y-175661884D02*
X305310683Y-174353081D01*
X305310683Y-174353081D02*
X307533053Y-172738434D01*
X307533053Y-172738434D02*
X307906110Y-172566278D01*
X307906110Y-172566278D02*
X308317396Y-172550521D01*
X308317396Y-172550521D02*
X309061892Y-172668437D01*
X309061892Y-172668437D02*
X309192380Y-172848039D01*
X309192380Y-172848039D02*
X309520214Y-173151251D01*
X309520214Y-173151251D02*
X309933332Y-173304741D01*
X309933332Y-173304741D02*
X310373661Y-173286424D01*
X310373661Y-173286424D02*
X310779147Y-173099358D01*
X310779147Y-173099358D02*
X313044395Y-171453560D01*
X313044395Y-171453560D02*
X313347150Y-171313940D01*
X313347150Y-171313940D02*
X313687193Y-171300501D01*
X313687193Y-171300501D02*
X314006440Y-171418361D01*
X314006440Y-171418361D02*
X314326191Y-171713850D01*
G04 #@! TO.C,S41*
X262312824Y-176823372D02*
X262606497Y-176610006D01*
X262606497Y-176610006D02*
X263160191Y-177372100D01*
X263160191Y-177372100D02*
X259854547Y-179773790D01*
X259854547Y-179773790D02*
X259569073Y-179908272D01*
X259569073Y-179908272D02*
X259247479Y-179931792D01*
X259247479Y-179931792D02*
X258939690Y-179836508D01*
X258939690Y-179836508D02*
X258698190Y-179643620D01*
X258698190Y-179643620D02*
X258245617Y-179282707D01*
X258245617Y-179282707D02*
X257705903Y-179114894D01*
X257705903Y-179114894D02*
X257142636Y-179154547D01*
X257142636Y-179154547D02*
X256626251Y-179399935D01*
X256626251Y-179399935D02*
X254484783Y-180955803D01*
X254484783Y-180955803D02*
X253058648Y-180729925D01*
X251460822Y-178387797D02*
X251668116Y-177078994D01*
X251668116Y-177078994D02*
X253890486Y-175464347D01*
X253890486Y-175464347D02*
X254263543Y-175292191D01*
X254263543Y-175292191D02*
X254674829Y-175276434D01*
X254674829Y-175276434D02*
X255419325Y-175394350D01*
X255419325Y-175394350D02*
X255549813Y-175573952D01*
X255549813Y-175573952D02*
X255877647Y-175877164D01*
X255877647Y-175877164D02*
X256290765Y-176030654D01*
X256290765Y-176030654D02*
X256731094Y-176012337D01*
X256731094Y-176012337D02*
X257136580Y-175825271D01*
X257136580Y-175825271D02*
X259401828Y-174179473D01*
X259401828Y-174179473D02*
X259704583Y-174039853D01*
X259704583Y-174039853D02*
X260044626Y-174026414D01*
X260044626Y-174026414D02*
X260363873Y-174144274D01*
X260363873Y-174144274D02*
X260683624Y-174439763D01*
G04 #@! TO.C,S40*
X261886606Y-145613304D02*
X262180279Y-145399938D01*
X262180279Y-145399938D02*
X262733973Y-146162032D01*
X262733973Y-146162032D02*
X259428329Y-148563722D01*
X259428329Y-148563722D02*
X259142855Y-148698204D01*
X259142855Y-148698204D02*
X258821261Y-148721724D01*
X258821261Y-148721724D02*
X258513472Y-148626440D01*
X258513472Y-148626440D02*
X258271972Y-148433552D01*
X258271972Y-148433552D02*
X257819399Y-148072639D01*
X257819399Y-148072639D02*
X257279685Y-147904826D01*
X257279685Y-147904826D02*
X256716418Y-147944479D01*
X256716418Y-147944479D02*
X256200033Y-148189867D01*
X256200033Y-148189867D02*
X254058565Y-149745735D01*
X254058565Y-149745735D02*
X252632430Y-149519857D01*
X251034604Y-147177729D02*
X251241898Y-145868926D01*
X251241898Y-145868926D02*
X253464268Y-144254279D01*
X253464268Y-144254279D02*
X253837325Y-144082123D01*
X253837325Y-144082123D02*
X254248611Y-144066366D01*
X254248611Y-144066366D02*
X254993107Y-144184282D01*
X254993107Y-144184282D02*
X255123595Y-144363884D01*
X255123595Y-144363884D02*
X255451429Y-144667096D01*
X255451429Y-144667096D02*
X255864547Y-144820586D01*
X255864547Y-144820586D02*
X256304876Y-144802269D01*
X256304876Y-144802269D02*
X256710362Y-144615203D01*
X256710362Y-144615203D02*
X258975610Y-142969405D01*
X258975610Y-142969405D02*
X259278365Y-142829785D01*
X259278365Y-142829785D02*
X259618408Y-142816346D01*
X259618408Y-142816346D02*
X259937655Y-142934206D01*
X259937655Y-142934206D02*
X260257406Y-143229695D01*
G04 #@! TO.C,S39*
X271878955Y-159366593D02*
X272172628Y-159153227D01*
X272172628Y-159153227D02*
X272726322Y-159915321D01*
X272726322Y-159915321D02*
X269420678Y-162317011D01*
X269420678Y-162317011D02*
X269135204Y-162451493D01*
X269135204Y-162451493D02*
X268813610Y-162475013D01*
X268813610Y-162475013D02*
X268505821Y-162379729D01*
X268505821Y-162379729D02*
X268264321Y-162186841D01*
X268264321Y-162186841D02*
X267811748Y-161825928D01*
X267811748Y-161825928D02*
X267272034Y-161658115D01*
X267272034Y-161658115D02*
X266708767Y-161697768D01*
X266708767Y-161697768D02*
X266192382Y-161943156D01*
X266192382Y-161943156D02*
X264050914Y-163499024D01*
X264050914Y-163499024D02*
X262624779Y-163273146D01*
X261026953Y-160931018D02*
X261234247Y-159622215D01*
X261234247Y-159622215D02*
X263456617Y-158007568D01*
X263456617Y-158007568D02*
X263829674Y-157835412D01*
X263829674Y-157835412D02*
X264240960Y-157819655D01*
X264240960Y-157819655D02*
X264985456Y-157937571D01*
X264985456Y-157937571D02*
X265115944Y-158117173D01*
X265115944Y-158117173D02*
X265443778Y-158420385D01*
X265443778Y-158420385D02*
X265856896Y-158573875D01*
X265856896Y-158573875D02*
X266297225Y-158555558D01*
X266297225Y-158555558D02*
X266702711Y-158368492D01*
X266702711Y-158368492D02*
X268967959Y-156722694D01*
X268967959Y-156722694D02*
X269270714Y-156583074D01*
X269270714Y-156583074D02*
X269610757Y-156569635D01*
X269610757Y-156569635D02*
X269930004Y-156687495D01*
X269930004Y-156687495D02*
X270249755Y-156982984D01*
G04 #@! TO.C,S38*
X281871304Y-173119882D02*
X282164977Y-172906516D01*
X282164977Y-172906516D02*
X282718671Y-173668610D01*
X282718671Y-173668610D02*
X279413027Y-176070300D01*
X279413027Y-176070300D02*
X279127553Y-176204782D01*
X279127553Y-176204782D02*
X278805959Y-176228302D01*
X278805959Y-176228302D02*
X278498170Y-176133018D01*
X278498170Y-176133018D02*
X278256670Y-175940130D01*
X278256670Y-175940130D02*
X277804097Y-175579217D01*
X277804097Y-175579217D02*
X277264383Y-175411404D01*
X277264383Y-175411404D02*
X276701116Y-175451057D01*
X276701116Y-175451057D02*
X276184731Y-175696445D01*
X276184731Y-175696445D02*
X274043263Y-177252313D01*
X274043263Y-177252313D02*
X272617128Y-177026435D01*
X271019302Y-174684307D02*
X271226596Y-173375504D01*
X271226596Y-173375504D02*
X273448966Y-171760857D01*
X273448966Y-171760857D02*
X273822023Y-171588701D01*
X273822023Y-171588701D02*
X274233309Y-171572944D01*
X274233309Y-171572944D02*
X274977805Y-171690860D01*
X274977805Y-171690860D02*
X275108293Y-171870462D01*
X275108293Y-171870462D02*
X275436127Y-172173674D01*
X275436127Y-172173674D02*
X275849245Y-172327164D01*
X275849245Y-172327164D02*
X276289574Y-172308847D01*
X276289574Y-172308847D02*
X276695060Y-172121781D01*
X276695060Y-172121781D02*
X278960308Y-170475983D01*
X278960308Y-170475983D02*
X279263063Y-170336363D01*
X279263063Y-170336363D02*
X279603106Y-170322924D01*
X279603106Y-170322924D02*
X279922353Y-170440784D01*
X279922353Y-170440784D02*
X280242104Y-170736273D01*
G04 #@! TO.C,S37*
X274450442Y-132282512D02*
X274744115Y-132069146D01*
X274744115Y-132069146D02*
X275297809Y-132831240D01*
X275297809Y-132831240D02*
X271992165Y-135232930D01*
X271992165Y-135232930D02*
X271706691Y-135367412D01*
X271706691Y-135367412D02*
X271385097Y-135390932D01*
X271385097Y-135390932D02*
X271077308Y-135295648D01*
X271077308Y-135295648D02*
X270835808Y-135102760D01*
X270835808Y-135102760D02*
X270383235Y-134741847D01*
X270383235Y-134741847D02*
X269843521Y-134574034D01*
X269843521Y-134574034D02*
X269280254Y-134613687D01*
X269280254Y-134613687D02*
X268763869Y-134859075D01*
X268763869Y-134859075D02*
X266622401Y-136414943D01*
X266622401Y-136414943D02*
X265196266Y-136189065D01*
X263598440Y-133846937D02*
X263805734Y-132538134D01*
X263805734Y-132538134D02*
X266028104Y-130923487D01*
X266028104Y-130923487D02*
X266401161Y-130751331D01*
X266401161Y-130751331D02*
X266812447Y-130735574D01*
X266812447Y-130735574D02*
X267556943Y-130853490D01*
X267556943Y-130853490D02*
X267687431Y-131033092D01*
X267687431Y-131033092D02*
X268015265Y-131336304D01*
X268015265Y-131336304D02*
X268428383Y-131489794D01*
X268428383Y-131489794D02*
X268868712Y-131471477D01*
X268868712Y-131471477D02*
X269274198Y-131284411D01*
X269274198Y-131284411D02*
X271539446Y-129638613D01*
X271539446Y-129638613D02*
X271842201Y-129498993D01*
X271842201Y-129498993D02*
X272182244Y-129485554D01*
X272182244Y-129485554D02*
X272501491Y-129603414D01*
X272501491Y-129603414D02*
X272821242Y-129898903D01*
G04 #@! TO.C,S36*
X284442791Y-146035801D02*
X284736464Y-145822435D01*
X284736464Y-145822435D02*
X285290158Y-146584529D01*
X285290158Y-146584529D02*
X281984514Y-148986219D01*
X281984514Y-148986219D02*
X281699040Y-149120701D01*
X281699040Y-149120701D02*
X281377446Y-149144221D01*
X281377446Y-149144221D02*
X281069657Y-149048937D01*
X281069657Y-149048937D02*
X280828157Y-148856049D01*
X280828157Y-148856049D02*
X280375584Y-148495136D01*
X280375584Y-148495136D02*
X279835870Y-148327323D01*
X279835870Y-148327323D02*
X279272603Y-148366976D01*
X279272603Y-148366976D02*
X278756218Y-148612364D01*
X278756218Y-148612364D02*
X276614750Y-150168232D01*
X276614750Y-150168232D02*
X275188615Y-149942354D01*
X273590789Y-147600226D02*
X273798083Y-146291423D01*
X273798083Y-146291423D02*
X276020453Y-144676776D01*
X276020453Y-144676776D02*
X276393510Y-144504620D01*
X276393510Y-144504620D02*
X276804796Y-144488863D01*
X276804796Y-144488863D02*
X277549292Y-144606779D01*
X277549292Y-144606779D02*
X277679780Y-144786381D01*
X277679780Y-144786381D02*
X278007614Y-145089593D01*
X278007614Y-145089593D02*
X278420732Y-145243083D01*
X278420732Y-145243083D02*
X278861061Y-145224766D01*
X278861061Y-145224766D02*
X279266547Y-145037700D01*
X279266547Y-145037700D02*
X281531795Y-143391902D01*
X281531795Y-143391902D02*
X281834550Y-143252282D01*
X281834550Y-143252282D02*
X282174593Y-143238843D01*
X282174593Y-143238843D02*
X282493840Y-143356703D01*
X282493840Y-143356703D02*
X282813591Y-143652192D01*
G04 #@! TO.C,S35*
X294435140Y-159789090D02*
X294728813Y-159575724D01*
X294728813Y-159575724D02*
X295282507Y-160337818D01*
X295282507Y-160337818D02*
X291976863Y-162739508D01*
X291976863Y-162739508D02*
X291691389Y-162873990D01*
X291691389Y-162873990D02*
X291369795Y-162897510D01*
X291369795Y-162897510D02*
X291062006Y-162802226D01*
X291062006Y-162802226D02*
X290820506Y-162609338D01*
X290820506Y-162609338D02*
X290367933Y-162248425D01*
X290367933Y-162248425D02*
X289828219Y-162080612D01*
X289828219Y-162080612D02*
X289264952Y-162120265D01*
X289264952Y-162120265D02*
X288748567Y-162365653D01*
X288748567Y-162365653D02*
X286607099Y-163921521D01*
X286607099Y-163921521D02*
X285180964Y-163695643D01*
X283583138Y-161353515D02*
X283790432Y-160044712D01*
X283790432Y-160044712D02*
X286012802Y-158430065D01*
X286012802Y-158430065D02*
X286385859Y-158257909D01*
X286385859Y-158257909D02*
X286797145Y-158242152D01*
X286797145Y-158242152D02*
X287541641Y-158360068D01*
X287541641Y-158360068D02*
X287672129Y-158539670D01*
X287672129Y-158539670D02*
X287999963Y-158842882D01*
X287999963Y-158842882D02*
X288413081Y-158996372D01*
X288413081Y-158996372D02*
X288853410Y-158978055D01*
X288853410Y-158978055D02*
X289258896Y-158790989D01*
X289258896Y-158790989D02*
X291524144Y-157145191D01*
X291524144Y-157145191D02*
X291826899Y-157005571D01*
X291826899Y-157005571D02*
X292166942Y-156992132D01*
X292166942Y-156992132D02*
X292486189Y-157109992D01*
X292486189Y-157109992D02*
X292805940Y-157405481D01*
G04 #@! TO.C,S34*
X288929223Y-114219157D02*
X289240375Y-114032198D01*
X289240375Y-114032198D02*
X289725541Y-114839649D01*
X289725541Y-114839649D02*
X286223155Y-116944095D01*
X286223155Y-116944095D02*
X285927046Y-117053184D01*
X285927046Y-117053184D02*
X285604626Y-117048586D01*
X285604626Y-117048586D02*
X285306313Y-116926839D01*
X285306313Y-116926839D02*
X285082543Y-116713636D01*
X285082543Y-116713636D02*
X284663148Y-116314653D01*
X284663148Y-116314653D02*
X284140114Y-116100439D01*
X284140114Y-116100439D02*
X283575534Y-116090849D01*
X283575534Y-116090849D02*
X283039727Y-116290298D01*
X283039727Y-116290298D02*
X280770805Y-117653604D01*
X280770805Y-117653604D02*
X279369784Y-117304290D01*
X277982168Y-114831814D02*
X278302743Y-113546058D01*
X278302743Y-113546058D02*
X280657381Y-112131248D01*
X280657381Y-112131248D02*
X281044023Y-111992261D01*
X281044023Y-111992261D02*
X281455118Y-112012410D01*
X281455118Y-112012410D02*
X282186503Y-112194765D01*
X282186503Y-112194765D02*
X282300842Y-112385056D01*
X282300842Y-112385056D02*
X282601002Y-112715687D01*
X282601002Y-112715687D02*
X282999170Y-112904598D01*
X282999170Y-112904598D02*
X283439419Y-112924728D01*
X283439419Y-112924728D02*
X283859667Y-112773715D01*
X283859667Y-112773715D02*
X286259735Y-111331608D01*
X286259735Y-111331608D02*
X286573507Y-111218906D01*
X286573507Y-111218906D02*
X286913427Y-111235155D01*
X286913427Y-111235155D02*
X287221188Y-111380391D01*
X287221188Y-111380391D02*
X287513968Y-111702624D01*
G04 #@! TO.C,S33*
X297684870Y-128791001D02*
X297996022Y-128604042D01*
X297996022Y-128604042D02*
X298481188Y-129411493D01*
X298481188Y-129411493D02*
X294978802Y-131515939D01*
X294978802Y-131515939D02*
X294682693Y-131625028D01*
X294682693Y-131625028D02*
X294360273Y-131620430D01*
X294360273Y-131620430D02*
X294061960Y-131498683D01*
X294061960Y-131498683D02*
X293838190Y-131285480D01*
X293838190Y-131285480D02*
X293418795Y-130886497D01*
X293418795Y-130886497D02*
X292895761Y-130672283D01*
X292895761Y-130672283D02*
X292331181Y-130662693D01*
X292331181Y-130662693D02*
X291795374Y-130862142D01*
X291795374Y-130862142D02*
X289526452Y-132225448D01*
X289526452Y-132225448D02*
X288125431Y-131876134D01*
X286737815Y-129403658D02*
X287058390Y-128117902D01*
X287058390Y-128117902D02*
X289413028Y-126703092D01*
X289413028Y-126703092D02*
X289799670Y-126564105D01*
X289799670Y-126564105D02*
X290210765Y-126584254D01*
X290210765Y-126584254D02*
X290942150Y-126766609D01*
X290942150Y-126766609D02*
X291056489Y-126956900D01*
X291056489Y-126956900D02*
X291356649Y-127287531D01*
X291356649Y-127287531D02*
X291754817Y-127476442D01*
X291754817Y-127476442D02*
X292195066Y-127496572D01*
X292195066Y-127496572D02*
X292615314Y-127345559D01*
X292615314Y-127345559D02*
X295015382Y-125903452D01*
X295015382Y-125903452D02*
X295329154Y-125790750D01*
X295329154Y-125790750D02*
X295669074Y-125806999D01*
X295669074Y-125806999D02*
X295976835Y-125952235D01*
X295976835Y-125952235D02*
X296269615Y-126274468D01*
G04 #@! TO.C,S32*
X306440517Y-143362845D02*
X306751669Y-143175886D01*
X306751669Y-143175886D02*
X307236835Y-143983337D01*
X307236835Y-143983337D02*
X303734449Y-146087783D01*
X303734449Y-146087783D02*
X303438340Y-146196872D01*
X303438340Y-146196872D02*
X303115920Y-146192274D01*
X303115920Y-146192274D02*
X302817607Y-146070527D01*
X302817607Y-146070527D02*
X302593837Y-145857324D01*
X302593837Y-145857324D02*
X302174442Y-145458341D01*
X302174442Y-145458341D02*
X301651408Y-145244127D01*
X301651408Y-145244127D02*
X301086828Y-145234537D01*
X301086828Y-145234537D02*
X300551021Y-145433986D01*
X300551021Y-145433986D02*
X298282099Y-146797292D01*
X298282099Y-146797292D02*
X296881078Y-146447978D01*
X295493462Y-143975502D02*
X295814037Y-142689746D01*
X295814037Y-142689746D02*
X298168675Y-141274936D01*
X298168675Y-141274936D02*
X298555317Y-141135949D01*
X298555317Y-141135949D02*
X298966412Y-141156098D01*
X298966412Y-141156098D02*
X299697797Y-141338453D01*
X299697797Y-141338453D02*
X299812136Y-141528744D01*
X299812136Y-141528744D02*
X300112296Y-141859375D01*
X300112296Y-141859375D02*
X300510464Y-142048286D01*
X300510464Y-142048286D02*
X300950713Y-142068416D01*
X300950713Y-142068416D02*
X301370961Y-141917403D01*
X301370961Y-141917403D02*
X303771029Y-140475296D01*
X303771029Y-140475296D02*
X304084801Y-140362594D01*
X304084801Y-140362594D02*
X304424721Y-140378843D01*
X304424721Y-140378843D02*
X304732482Y-140524079D01*
X304732482Y-140524079D02*
X305025262Y-140846312D01*
G04 #@! TO.C,S31*
X310976467Y-108696311D02*
X311302729Y-108537182D01*
X311302729Y-108537182D02*
X311715675Y-109383846D01*
X311715675Y-109383846D02*
X308043202Y-111175031D01*
X308043202Y-111175031D02*
X307738712Y-111257897D01*
X307738712Y-111257897D02*
X307417920Y-111225215D01*
X307417920Y-111225215D02*
X307131353Y-111077932D01*
X307131353Y-111077932D02*
X306927017Y-110846038D01*
X306927017Y-110846038D02*
X306543991Y-110412020D01*
X306543991Y-110412020D02*
X306041617Y-110153036D01*
X306041617Y-110153036D02*
X305480022Y-110094276D01*
X305480022Y-110094276D02*
X304928870Y-110246267D01*
X304928870Y-110246267D02*
X302549763Y-111406636D01*
X302549763Y-111406636D02*
X301184517Y-110936544D01*
X300017672Y-108352539D02*
X300449088Y-107099615D01*
X300449088Y-107099615D02*
X302918075Y-105895409D01*
X302918075Y-105895409D02*
X303315359Y-105790649D01*
X303315359Y-105790649D02*
X303723134Y-105846550D01*
X303723134Y-105846550D02*
X304435843Y-106091956D01*
X304435843Y-106091956D02*
X304533161Y-106291488D01*
X304533161Y-106291488D02*
X304803363Y-106647021D01*
X304803363Y-106647021D02*
X305183551Y-106869916D01*
X305183551Y-106869916D02*
X305620371Y-106928340D01*
X305620371Y-106928340D02*
X306052181Y-106814528D01*
X306052181Y-106814528D02*
X308568804Y-105587089D01*
X308568804Y-105587089D02*
X308891204Y-105502163D01*
X308891204Y-105502163D02*
X309228415Y-105547976D01*
X309228415Y-105547976D02*
X309522346Y-105719483D01*
X309522346Y-105719483D02*
X309785928Y-106066006D01*
G04 #@! TO.C,S30*
X318428776Y-123975810D02*
X318755038Y-123816681D01*
X318755038Y-123816681D02*
X319167984Y-124663345D01*
X319167984Y-124663345D02*
X315495511Y-126454530D01*
X315495511Y-126454530D02*
X315191021Y-126537396D01*
X315191021Y-126537396D02*
X314870229Y-126504714D01*
X314870229Y-126504714D02*
X314583662Y-126357431D01*
X314583662Y-126357431D02*
X314379326Y-126125537D01*
X314379326Y-126125537D02*
X313996300Y-125691519D01*
X313996300Y-125691519D02*
X313493926Y-125432535D01*
X313493926Y-125432535D02*
X312932331Y-125373775D01*
X312932331Y-125373775D02*
X312381179Y-125525766D01*
X312381179Y-125525766D02*
X310002072Y-126686135D01*
X310002072Y-126686135D02*
X308636826Y-126216043D01*
X307469981Y-123632038D02*
X307901397Y-122379114D01*
X307901397Y-122379114D02*
X310370384Y-121174908D01*
X310370384Y-121174908D02*
X310767668Y-121070148D01*
X310767668Y-121070148D02*
X311175443Y-121126049D01*
X311175443Y-121126049D02*
X311888152Y-121371455D01*
X311888152Y-121371455D02*
X311985470Y-121570987D01*
X311985470Y-121570987D02*
X312255672Y-121926520D01*
X312255672Y-121926520D02*
X312635860Y-122149415D01*
X312635860Y-122149415D02*
X313072680Y-122207839D01*
X313072680Y-122207839D02*
X313504490Y-122094027D01*
X313504490Y-122094027D02*
X316021113Y-120866588D01*
X316021113Y-120866588D02*
X316343513Y-120781662D01*
X316343513Y-120781662D02*
X316680724Y-120827475D01*
X316680724Y-120827475D02*
X316974655Y-120998982D01*
X316974655Y-120998982D02*
X317238237Y-121345505D01*
G04 #@! TO.C,S29*
X325881086Y-139255309D02*
X326207348Y-139096180D01*
X326207348Y-139096180D02*
X326620294Y-139942844D01*
X326620294Y-139942844D02*
X322947821Y-141734029D01*
X322947821Y-141734029D02*
X322643331Y-141816895D01*
X322643331Y-141816895D02*
X322322539Y-141784213D01*
X322322539Y-141784213D02*
X322035972Y-141636930D01*
X322035972Y-141636930D02*
X321831636Y-141405036D01*
X321831636Y-141405036D02*
X321448610Y-140971018D01*
X321448610Y-140971018D02*
X320946236Y-140712034D01*
X320946236Y-140712034D02*
X320384641Y-140653274D01*
X320384641Y-140653274D02*
X319833489Y-140805265D01*
X319833489Y-140805265D02*
X317454382Y-141965634D01*
X317454382Y-141965634D02*
X316089136Y-141495542D01*
X314922291Y-138911537D02*
X315353707Y-137658613D01*
X315353707Y-137658613D02*
X317822694Y-136454407D01*
X317822694Y-136454407D02*
X318219978Y-136349647D01*
X318219978Y-136349647D02*
X318627753Y-136405548D01*
X318627753Y-136405548D02*
X319340462Y-136650954D01*
X319340462Y-136650954D02*
X319437780Y-136850486D01*
X319437780Y-136850486D02*
X319707982Y-137206019D01*
X319707982Y-137206019D02*
X320088170Y-137428914D01*
X320088170Y-137428914D02*
X320524990Y-137487338D01*
X320524990Y-137487338D02*
X320956800Y-137373526D01*
X320956800Y-137373526D02*
X323473423Y-136146087D01*
X323473423Y-136146087D02*
X323795823Y-136061161D01*
X323795823Y-136061161D02*
X324133034Y-136106974D01*
X324133034Y-136106974D02*
X324426965Y-136278481D01*
X324426965Y-136278481D02*
X324690547Y-136625004D01*
G04 #@! TO.C,S28*
X341839297Y-112672063D02*
X342195628Y-112602799D01*
X342195628Y-112602799D02*
X342375370Y-113527492D01*
X342375370Y-113527492D02*
X338364441Y-114307138D01*
X338364441Y-114307138D02*
X338048879Y-114308373D01*
X338048879Y-114308373D02*
X337747476Y-114193778D01*
X337747476Y-114193778D02*
X337508793Y-113977344D01*
X337508793Y-113977344D02*
X337371439Y-113700465D01*
X337371439Y-113700465D02*
X337113797Y-113182102D01*
X337113797Y-113182102D02*
X336695570Y-112801918D01*
X336695570Y-112801918D02*
X336168319Y-112599809D01*
X336168319Y-112599809D02*
X335596609Y-112603973D01*
X335596609Y-112603973D02*
X332998242Y-113109044D01*
X332998242Y-113109044D02*
X331801185Y-112301619D01*
X331342889Y-109503660D02*
X332083886Y-108405087D01*
X332083886Y-108405087D02*
X334780415Y-107880935D01*
X334780415Y-107880935D02*
X335191276Y-107882569D01*
X335191276Y-107882569D02*
X335570688Y-108042105D01*
X335570688Y-108042105D02*
X336195596Y-108463611D01*
X336195596Y-108463611D02*
X336237956Y-108681532D01*
X336237956Y-108681532D02*
X336406932Y-109094884D01*
X336406932Y-109094884D02*
X336716476Y-109408584D01*
X336716476Y-109408584D02*
X337123290Y-109578074D01*
X337123290Y-109578074D02*
X337569843Y-109579902D01*
X337569843Y-109579902D02*
X340318399Y-109045636D01*
X340318399Y-109045636D02*
X340651794Y-109047048D01*
X340651794Y-109047048D02*
X340965657Y-109178576D01*
X340965657Y-109178576D02*
X341205184Y-109420314D01*
X341205184Y-109420314D02*
X341370098Y-109823250D01*
G04 #@! TO.C,S27*
X345083049Y-129359725D02*
X345439380Y-129290461D01*
X345439380Y-129290461D02*
X345619122Y-130215154D01*
X345619122Y-130215154D02*
X341608193Y-130994800D01*
X341608193Y-130994800D02*
X341292631Y-130996035D01*
X341292631Y-130996035D02*
X340991228Y-130881440D01*
X340991228Y-130881440D02*
X340752545Y-130665006D01*
X340752545Y-130665006D02*
X340615191Y-130388127D01*
X340615191Y-130388127D02*
X340357549Y-129869764D01*
X340357549Y-129869764D02*
X339939322Y-129489580D01*
X339939322Y-129489580D02*
X339412071Y-129287471D01*
X339412071Y-129287471D02*
X338840361Y-129291635D01*
X338840361Y-129291635D02*
X336241994Y-129796706D01*
X336241994Y-129796706D02*
X335044937Y-128989281D01*
X334586641Y-126191322D02*
X335327638Y-125092749D01*
X335327638Y-125092749D02*
X338024167Y-124568597D01*
X338024167Y-124568597D02*
X338435028Y-124570231D01*
X338435028Y-124570231D02*
X338814440Y-124729767D01*
X338814440Y-124729767D02*
X339439348Y-125151273D01*
X339439348Y-125151273D02*
X339481708Y-125369194D01*
X339481708Y-125369194D02*
X339650684Y-125782546D01*
X339650684Y-125782546D02*
X339960228Y-126096246D01*
X339960228Y-126096246D02*
X340367042Y-126265736D01*
X340367042Y-126265736D02*
X340813595Y-126267564D01*
X340813595Y-126267564D02*
X343562151Y-125733298D01*
X343562151Y-125733298D02*
X343895546Y-125734710D01*
X343895546Y-125734710D02*
X344209409Y-125866238D01*
X344209409Y-125866238D02*
X344448936Y-126107976D01*
X344448936Y-126107976D02*
X344613850Y-126510912D01*
G04 #@! TO.C,S26*
X348326802Y-146047388D02*
X348683133Y-145978124D01*
X348683133Y-145978124D02*
X348862875Y-146902817D01*
X348862875Y-146902817D02*
X344851946Y-147682463D01*
X344851946Y-147682463D02*
X344536384Y-147683698D01*
X344536384Y-147683698D02*
X344234981Y-147569103D01*
X344234981Y-147569103D02*
X343996298Y-147352669D01*
X343996298Y-147352669D02*
X343858944Y-147075790D01*
X343858944Y-147075790D02*
X343601302Y-146557427D01*
X343601302Y-146557427D02*
X343183075Y-146177243D01*
X343183075Y-146177243D02*
X342655824Y-145975134D01*
X342655824Y-145975134D02*
X342084114Y-145979298D01*
X342084114Y-145979298D02*
X339485747Y-146484369D01*
X339485747Y-146484369D02*
X338288690Y-145676944D01*
X337830394Y-142878985D02*
X338571391Y-141780412D01*
X338571391Y-141780412D02*
X341267920Y-141256260D01*
X341267920Y-141256260D02*
X341678781Y-141257894D01*
X341678781Y-141257894D02*
X342058193Y-141417430D01*
X342058193Y-141417430D02*
X342683101Y-141838936D01*
X342683101Y-141838936D02*
X342725461Y-142056857D01*
X342725461Y-142056857D02*
X342894437Y-142470209D01*
X342894437Y-142470209D02*
X343203981Y-142783909D01*
X343203981Y-142783909D02*
X343610795Y-142953399D01*
X343610795Y-142953399D02*
X344057348Y-142955227D01*
X344057348Y-142955227D02*
X346805904Y-142420961D01*
X346805904Y-142420961D02*
X347139299Y-142422373D01*
X347139299Y-142422373D02*
X347453162Y-142553901D01*
X347453162Y-142553901D02*
X347692689Y-142795639D01*
X347692689Y-142795639D02*
X347857603Y-143198575D01*
G04 #@! TO.C,S25*
X364187012Y-115061572D02*
X364548023Y-115023628D01*
X364548023Y-115023628D02*
X364646489Y-115960468D01*
X364646489Y-115960468D02*
X360582872Y-116387571D01*
X360582872Y-116387571D02*
X360268403Y-116361298D01*
X360268403Y-116361298D02*
X359978135Y-116220870D01*
X359978135Y-116220870D02*
X359759224Y-115984457D01*
X359759224Y-115984457D02*
X359646523Y-115696661D01*
X359646523Y-115696661D02*
X359435040Y-115157815D01*
X359435040Y-115157815D02*
X359051540Y-114742628D01*
X359051540Y-114742628D02*
X358543910Y-114495335D01*
X358543910Y-114495335D02*
X357974013Y-114449655D01*
X357974013Y-114449655D02*
X355341514Y-114726342D01*
X355341514Y-114726342D02*
X354219384Y-113817658D01*
X354006690Y-110990403D02*
X354840614Y-109960593D01*
X354840614Y-109960593D02*
X357572565Y-109673453D01*
X357572565Y-109673453D02*
X357981720Y-109710890D01*
X357981720Y-109710890D02*
X358345783Y-109902887D01*
X358345783Y-109902887D02*
X358931577Y-110377253D01*
X358931577Y-110377253D02*
X358954782Y-110598037D01*
X358954782Y-110598037D02*
X359087089Y-111024544D01*
X359087089Y-111024544D02*
X359368115Y-111364028D01*
X359368115Y-111364028D02*
X359758609Y-111568330D01*
X359758609Y-111568330D02*
X360203304Y-111609070D01*
X360203304Y-111609070D02*
X362987965Y-111316390D01*
X362987965Y-111316390D02*
X363319968Y-111346853D01*
X363319968Y-111346853D02*
X363621174Y-111505236D01*
X363621174Y-111505236D02*
X363838720Y-111766930D01*
X363838720Y-111766930D02*
X363967888Y-112182706D01*
G04 #@! TO.C,S24*
X365963996Y-131968444D02*
X366325007Y-131930500D01*
X366325007Y-131930500D02*
X366423473Y-132867340D01*
X366423473Y-132867340D02*
X362359856Y-133294443D01*
X362359856Y-133294443D02*
X362045387Y-133268170D01*
X362045387Y-133268170D02*
X361755119Y-133127742D01*
X361755119Y-133127742D02*
X361536208Y-132891329D01*
X361536208Y-132891329D02*
X361423507Y-132603533D01*
X361423507Y-132603533D02*
X361212024Y-132064687D01*
X361212024Y-132064687D02*
X360828524Y-131649500D01*
X360828524Y-131649500D02*
X360320894Y-131402207D01*
X360320894Y-131402207D02*
X359750997Y-131356527D01*
X359750997Y-131356527D02*
X357118498Y-131633214D01*
X357118498Y-131633214D02*
X355996368Y-130724530D01*
X355783674Y-127897275D02*
X356617598Y-126867465D01*
X356617598Y-126867465D02*
X359349549Y-126580325D01*
X359349549Y-126580325D02*
X359758704Y-126617762D01*
X359758704Y-126617762D02*
X360122767Y-126809759D01*
X360122767Y-126809759D02*
X360708561Y-127284125D01*
X360708561Y-127284125D02*
X360731766Y-127504909D01*
X360731766Y-127504909D02*
X360864073Y-127931416D01*
X360864073Y-127931416D02*
X361145099Y-128270900D01*
X361145099Y-128270900D02*
X361535593Y-128475202D01*
X361535593Y-128475202D02*
X361980288Y-128515942D01*
X361980288Y-128515942D02*
X364764949Y-128223262D01*
X364764949Y-128223262D02*
X365096952Y-128253725D01*
X365096952Y-128253725D02*
X365398158Y-128412108D01*
X365398158Y-128412108D02*
X365615704Y-128673802D01*
X365615704Y-128673802D02*
X365744872Y-129089578D01*
G04 #@! TO.C,S23*
X367740980Y-148875316D02*
X368101991Y-148837372D01*
X368101991Y-148837372D02*
X368200457Y-149774212D01*
X368200457Y-149774212D02*
X364136840Y-150201315D01*
X364136840Y-150201315D02*
X363822371Y-150175042D01*
X363822371Y-150175042D02*
X363532103Y-150034614D01*
X363532103Y-150034614D02*
X363313192Y-149798201D01*
X363313192Y-149798201D02*
X363200491Y-149510405D01*
X363200491Y-149510405D02*
X362989008Y-148971559D01*
X362989008Y-148971559D02*
X362605508Y-148556372D01*
X362605508Y-148556372D02*
X362097878Y-148309079D01*
X362097878Y-148309079D02*
X361527981Y-148263399D01*
X361527981Y-148263399D02*
X358895482Y-148540086D01*
X358895482Y-148540086D02*
X357773352Y-147631402D01*
X357560658Y-144804147D02*
X358394582Y-143774337D01*
X358394582Y-143774337D02*
X361126533Y-143487197D01*
X361126533Y-143487197D02*
X361535688Y-143524634D01*
X361535688Y-143524634D02*
X361899751Y-143716631D01*
X361899751Y-143716631D02*
X362485545Y-144190997D01*
X362485545Y-144190997D02*
X362508750Y-144411781D01*
X362508750Y-144411781D02*
X362641057Y-144838288D01*
X362641057Y-144838288D02*
X362922083Y-145177772D01*
X362922083Y-145177772D02*
X363312577Y-145382074D01*
X363312577Y-145382074D02*
X363757272Y-145422814D01*
X363757272Y-145422814D02*
X366541933Y-145130134D01*
X366541933Y-145130134D02*
X366873936Y-145160597D01*
X366873936Y-145160597D02*
X367175142Y-145318980D01*
X367175142Y-145318980D02*
X367392688Y-145580674D01*
X367392688Y-145580674D02*
X367521856Y-145996450D01*
G04 #@! TO.C,S22*
X176719484Y-208335730D02*
X177051101Y-208188084D01*
X177051101Y-208188084D02*
X177434247Y-209048644D01*
X177434247Y-209048644D02*
X173701500Y-210710570D01*
X173701500Y-210710570D02*
X173394304Y-210782759D01*
X173394304Y-210782759D02*
X173074847Y-210738902D01*
X173074847Y-210738902D02*
X172793595Y-210581708D01*
X172793595Y-210581708D02*
X172597477Y-210342824D01*
X172597477Y-210342824D02*
X172229832Y-209895703D01*
X172229832Y-209895703D02*
X171736801Y-209619344D01*
X171736801Y-209619344D02*
X171177599Y-209541020D01*
X171177599Y-209541020D02*
X170621479Y-209673684D01*
X170621479Y-209673684D02*
X168203324Y-210750316D01*
X168203324Y-210750316D02*
X166855316Y-210232864D01*
X165779362Y-207609710D02*
X166254242Y-206372606D01*
X166254242Y-206372606D02*
X168763752Y-205255301D01*
X168763752Y-205255301D02*
X169164449Y-205164469D01*
X169164449Y-205164469D02*
X169570025Y-205234567D01*
X169570025Y-205234567D02*
X170273735Y-205504696D01*
X170273735Y-205504696D02*
X170364031Y-205707503D01*
X170364031Y-205707503D02*
X170621660Y-206072250D01*
X170621660Y-206072250D02*
X170993837Y-206308278D01*
X170993837Y-206308278D02*
X171428352Y-206381910D01*
X171428352Y-206381910D02*
X171863871Y-206283238D01*
X171863871Y-206283238D02*
X174421798Y-205144376D01*
X174421798Y-205144376D02*
X174746965Y-205070753D01*
X174746965Y-205070753D02*
X175082372Y-205128307D01*
X175082372Y-205128307D02*
X175370139Y-205309967D01*
X175370139Y-205309967D02*
X175621467Y-205665478D01*
G04 #@! TO.C,S21*
X161409013Y-200082830D02*
X161637456Y-200364934D01*
X161637456Y-200364934D02*
X160905384Y-200957754D01*
X160905384Y-200957754D02*
X158333981Y-197782336D01*
X158333981Y-197782336D02*
X158184744Y-197504291D01*
X158184744Y-197504291D02*
X158144425Y-197184368D01*
X158144425Y-197184368D02*
X158223469Y-196872014D01*
X158223469Y-196872014D02*
X158403455Y-196620751D01*
X158403455Y-196620751D02*
X158740187Y-196149910D01*
X158740187Y-196149910D02*
X158879524Y-195602152D01*
X158879524Y-195602152D02*
X158810446Y-195041732D01*
X158810446Y-195041732D02*
X158538368Y-194538898D01*
X158538368Y-194538898D02*
X156872557Y-192481792D01*
X156872557Y-192481792D02*
X157023487Y-191045790D01*
X159278781Y-189327577D02*
X160596640Y-189466089D01*
X160596640Y-189466089D02*
X162325383Y-191600909D01*
X162325383Y-191600909D02*
X162516828Y-191964445D01*
X162516828Y-191964445D02*
X162554089Y-192374343D01*
X162554089Y-192374343D02*
X162475298Y-193123989D01*
X162475298Y-193123989D02*
X162302772Y-193263699D01*
X162302772Y-193263699D02*
X162017133Y-193606953D01*
X162017133Y-193606953D02*
X161885474Y-194027537D01*
X161885474Y-194027537D02*
X161926811Y-194466304D01*
X161926811Y-194466304D02*
X162134842Y-194861444D01*
X162134842Y-194861444D02*
X163896939Y-197037453D01*
X163896939Y-197037453D02*
X164052212Y-197332486D01*
X164052212Y-197332486D02*
X164083429Y-197671359D01*
X164083429Y-197671359D02*
X163982438Y-197996338D01*
X163982438Y-197996338D02*
X163704089Y-198331115D01*
G04 #@! TO.C,S20*
X145828750Y-182659139D02*
X146122423Y-182872505D01*
X146122423Y-182872505D02*
X145568729Y-183634599D01*
X145568729Y-183634599D02*
X142263086Y-181232908D01*
X142263086Y-181232908D02*
X142046970Y-181002963D01*
X142046970Y-181002963D02*
X141925223Y-180704377D01*
X141925223Y-180704377D02*
X141920731Y-180382208D01*
X141920731Y-180382208D02*
X142029552Y-180092923D01*
X142029552Y-180092923D02*
X142232947Y-179550972D01*
X142232947Y-179550972D02*
X142225766Y-178985816D01*
X142225766Y-178985816D02*
X142013995Y-178462371D01*
X142013995Y-178462371D02*
X141621045Y-178047089D01*
X141621045Y-178047089D02*
X139479577Y-176491221D01*
X139479577Y-176491221D02*
X139253699Y-175065086D01*
X140987440Y-172821706D02*
X142296244Y-172614412D01*
X142296244Y-172614412D02*
X144518613Y-174229058D01*
X144518613Y-174229058D02*
X144797624Y-174530657D01*
X144797624Y-174530657D02*
X144939705Y-174916944D01*
X144939705Y-174916944D02*
X145057622Y-175661440D01*
X145057622Y-175661440D02*
X144927133Y-175841041D01*
X144927133Y-175841041D02*
X144740068Y-176246528D01*
X144740068Y-176246528D02*
X144721751Y-176686857D01*
X144721751Y-176686857D02*
X144875241Y-177099974D01*
X144875241Y-177099974D02*
X145178453Y-177427809D01*
X145178453Y-177427809D02*
X147443700Y-179073608D01*
X147443700Y-179073608D02*
X147670043Y-179318399D01*
X147670043Y-179318399D02*
X147787903Y-179637647D01*
X147787903Y-179637647D02*
X147774464Y-179977690D01*
X147774464Y-179977690D02*
X147592246Y-180373102D01*
G04 #@! TO.C,S19*
X199471318Y-185385052D02*
X199764991Y-185598418D01*
X199764991Y-185598418D02*
X199211297Y-186360512D01*
X199211297Y-186360512D02*
X195905654Y-183958821D01*
X195905654Y-183958821D02*
X195689538Y-183728876D01*
X195689538Y-183728876D02*
X195567791Y-183430290D01*
X195567791Y-183430290D02*
X195563299Y-183108121D01*
X195563299Y-183108121D02*
X195672120Y-182818836D01*
X195672120Y-182818836D02*
X195875515Y-182276885D01*
X195875515Y-182276885D02*
X195868334Y-181711729D01*
X195868334Y-181711729D02*
X195656563Y-181188284D01*
X195656563Y-181188284D02*
X195263613Y-180773002D01*
X195263613Y-180773002D02*
X193122145Y-179217134D01*
X193122145Y-179217134D02*
X192896267Y-177790999D01*
X194630008Y-175547619D02*
X195938812Y-175340325D01*
X195938812Y-175340325D02*
X198161181Y-176954971D01*
X198161181Y-176954971D02*
X198440192Y-177256570D01*
X198440192Y-177256570D02*
X198582273Y-177642857D01*
X198582273Y-177642857D02*
X198700190Y-178387353D01*
X198700190Y-178387353D02*
X198569701Y-178566954D01*
X198569701Y-178566954D02*
X198382636Y-178972441D01*
X198382636Y-178972441D02*
X198364319Y-179412770D01*
X198364319Y-179412770D02*
X198517809Y-179825887D01*
X198517809Y-179825887D02*
X198821021Y-180153722D01*
X198821021Y-180153722D02*
X201086268Y-181799521D01*
X201086268Y-181799521D02*
X201312611Y-182044312D01*
X201312611Y-182044312D02*
X201430471Y-182363560D01*
X201430471Y-182363560D02*
X201417032Y-182703603D01*
X201417032Y-182703603D02*
X201234814Y-183099015D01*
G04 #@! TO.C,S18*
X199897536Y-154174984D02*
X200191209Y-154388350D01*
X200191209Y-154388350D02*
X199637515Y-155150444D01*
X199637515Y-155150444D02*
X196331872Y-152748753D01*
X196331872Y-152748753D02*
X196115756Y-152518808D01*
X196115756Y-152518808D02*
X195994009Y-152220222D01*
X195994009Y-152220222D02*
X195989517Y-151898053D01*
X195989517Y-151898053D02*
X196098338Y-151608768D01*
X196098338Y-151608768D02*
X196301733Y-151066817D01*
X196301733Y-151066817D02*
X196294552Y-150501661D01*
X196294552Y-150501661D02*
X196082781Y-149978216D01*
X196082781Y-149978216D02*
X195689831Y-149562934D01*
X195689831Y-149562934D02*
X193548363Y-148007066D01*
X193548363Y-148007066D02*
X193322485Y-146580931D01*
X195056226Y-144337551D02*
X196365030Y-144130257D01*
X196365030Y-144130257D02*
X198587399Y-145744903D01*
X198587399Y-145744903D02*
X198866410Y-146046502D01*
X198866410Y-146046502D02*
X199008491Y-146432789D01*
X199008491Y-146432789D02*
X199126408Y-147177285D01*
X199126408Y-147177285D02*
X198995919Y-147356886D01*
X198995919Y-147356886D02*
X198808854Y-147762373D01*
X198808854Y-147762373D02*
X198790537Y-148202702D01*
X198790537Y-148202702D02*
X198944027Y-148615819D01*
X198944027Y-148615819D02*
X199247239Y-148943654D01*
X199247239Y-148943654D02*
X201512486Y-150589453D01*
X201512486Y-150589453D02*
X201738829Y-150834244D01*
X201738829Y-150834244D02*
X201856689Y-151153492D01*
X201856689Y-151153492D02*
X201843250Y-151493535D01*
X201843250Y-151493535D02*
X201661032Y-151888947D01*
G04 #@! TO.C,S17*
X189905186Y-167928273D02*
X190198859Y-168141639D01*
X190198859Y-168141639D02*
X189645165Y-168903733D01*
X189645165Y-168903733D02*
X186339522Y-166502042D01*
X186339522Y-166502042D02*
X186123406Y-166272097D01*
X186123406Y-166272097D02*
X186001659Y-165973511D01*
X186001659Y-165973511D02*
X185997167Y-165651342D01*
X185997167Y-165651342D02*
X186105988Y-165362057D01*
X186105988Y-165362057D02*
X186309383Y-164820106D01*
X186309383Y-164820106D02*
X186302202Y-164254950D01*
X186302202Y-164254950D02*
X186090431Y-163731505D01*
X186090431Y-163731505D02*
X185697481Y-163316223D01*
X185697481Y-163316223D02*
X183556013Y-161760355D01*
X183556013Y-161760355D02*
X183330135Y-160334220D01*
X185063876Y-158090840D02*
X186372680Y-157883546D01*
X186372680Y-157883546D02*
X188595049Y-159498192D01*
X188595049Y-159498192D02*
X188874060Y-159799791D01*
X188874060Y-159799791D02*
X189016141Y-160186078D01*
X189016141Y-160186078D02*
X189134058Y-160930574D01*
X189134058Y-160930574D02*
X189003569Y-161110175D01*
X189003569Y-161110175D02*
X188816504Y-161515662D01*
X188816504Y-161515662D02*
X188798187Y-161955991D01*
X188798187Y-161955991D02*
X188951677Y-162369108D01*
X188951677Y-162369108D02*
X189254889Y-162696943D01*
X189254889Y-162696943D02*
X191520136Y-164342742D01*
X191520136Y-164342742D02*
X191746479Y-164587533D01*
X191746479Y-164587533D02*
X191864339Y-164906781D01*
X191864339Y-164906781D02*
X191850900Y-165246824D01*
X191850900Y-165246824D02*
X191668682Y-165642236D01*
G04 #@! TO.C,S16*
X179912837Y-181681562D02*
X180206510Y-181894928D01*
X180206510Y-181894928D02*
X179652816Y-182657022D01*
X179652816Y-182657022D02*
X176347173Y-180255331D01*
X176347173Y-180255331D02*
X176131057Y-180025386D01*
X176131057Y-180025386D02*
X176009310Y-179726800D01*
X176009310Y-179726800D02*
X176004818Y-179404631D01*
X176004818Y-179404631D02*
X176113639Y-179115346D01*
X176113639Y-179115346D02*
X176317034Y-178573395D01*
X176317034Y-178573395D02*
X176309853Y-178008239D01*
X176309853Y-178008239D02*
X176098082Y-177484794D01*
X176098082Y-177484794D02*
X175705132Y-177069512D01*
X175705132Y-177069512D02*
X173563664Y-175513644D01*
X173563664Y-175513644D02*
X173337786Y-174087509D01*
X175071527Y-171844129D02*
X176380331Y-171636835D01*
X176380331Y-171636835D02*
X178602700Y-173251481D01*
X178602700Y-173251481D02*
X178881711Y-173553080D01*
X178881711Y-173553080D02*
X179023792Y-173939367D01*
X179023792Y-173939367D02*
X179141709Y-174683863D01*
X179141709Y-174683863D02*
X179011220Y-174863464D01*
X179011220Y-174863464D02*
X178824155Y-175268951D01*
X178824155Y-175268951D02*
X178805838Y-175709280D01*
X178805838Y-175709280D02*
X178959328Y-176122397D01*
X178959328Y-176122397D02*
X179262540Y-176450232D01*
X179262540Y-176450232D02*
X181527787Y-178096031D01*
X181527787Y-178096031D02*
X181754130Y-178340822D01*
X181754130Y-178340822D02*
X181871990Y-178660070D01*
X181871990Y-178660070D02*
X181858551Y-179000113D01*
X181858551Y-179000113D02*
X181676333Y-179395525D01*
G04 #@! TO.C,S15*
X187333699Y-140844192D02*
X187627372Y-141057558D01*
X187627372Y-141057558D02*
X187073678Y-141819652D01*
X187073678Y-141819652D02*
X183768035Y-139417961D01*
X183768035Y-139417961D02*
X183551919Y-139188016D01*
X183551919Y-139188016D02*
X183430172Y-138889430D01*
X183430172Y-138889430D02*
X183425680Y-138567261D01*
X183425680Y-138567261D02*
X183534501Y-138277976D01*
X183534501Y-138277976D02*
X183737896Y-137736025D01*
X183737896Y-137736025D02*
X183730715Y-137170869D01*
X183730715Y-137170869D02*
X183518944Y-136647424D01*
X183518944Y-136647424D02*
X183125994Y-136232142D01*
X183125994Y-136232142D02*
X180984526Y-134676274D01*
X180984526Y-134676274D02*
X180758648Y-133250139D01*
X182492389Y-131006759D02*
X183801193Y-130799465D01*
X183801193Y-130799465D02*
X186023562Y-132414111D01*
X186023562Y-132414111D02*
X186302573Y-132715710D01*
X186302573Y-132715710D02*
X186444654Y-133101997D01*
X186444654Y-133101997D02*
X186562571Y-133846493D01*
X186562571Y-133846493D02*
X186432082Y-134026094D01*
X186432082Y-134026094D02*
X186245017Y-134431581D01*
X186245017Y-134431581D02*
X186226700Y-134871910D01*
X186226700Y-134871910D02*
X186380190Y-135285027D01*
X186380190Y-135285027D02*
X186683402Y-135612862D01*
X186683402Y-135612862D02*
X188948649Y-137258661D01*
X188948649Y-137258661D02*
X189174992Y-137503452D01*
X189174992Y-137503452D02*
X189292852Y-137822700D01*
X189292852Y-137822700D02*
X189279413Y-138162743D01*
X189279413Y-138162743D02*
X189097195Y-138558155D01*
G04 #@! TO.C,S14*
X177341350Y-154597481D02*
X177635023Y-154810847D01*
X177635023Y-154810847D02*
X177081329Y-155572941D01*
X177081329Y-155572941D02*
X173775686Y-153171250D01*
X173775686Y-153171250D02*
X173559570Y-152941305D01*
X173559570Y-152941305D02*
X173437823Y-152642719D01*
X173437823Y-152642719D02*
X173433331Y-152320550D01*
X173433331Y-152320550D02*
X173542152Y-152031265D01*
X173542152Y-152031265D02*
X173745547Y-151489314D01*
X173745547Y-151489314D02*
X173738366Y-150924158D01*
X173738366Y-150924158D02*
X173526595Y-150400713D01*
X173526595Y-150400713D02*
X173133645Y-149985431D01*
X173133645Y-149985431D02*
X170992177Y-148429563D01*
X170992177Y-148429563D02*
X170766299Y-147003428D01*
X172500040Y-144760048D02*
X173808844Y-144552754D01*
X173808844Y-144552754D02*
X176031213Y-146167400D01*
X176031213Y-146167400D02*
X176310224Y-146468999D01*
X176310224Y-146468999D02*
X176452305Y-146855286D01*
X176452305Y-146855286D02*
X176570222Y-147599782D01*
X176570222Y-147599782D02*
X176439733Y-147779383D01*
X176439733Y-147779383D02*
X176252668Y-148184870D01*
X176252668Y-148184870D02*
X176234351Y-148625199D01*
X176234351Y-148625199D02*
X176387841Y-149038316D01*
X176387841Y-149038316D02*
X176691053Y-149366151D01*
X176691053Y-149366151D02*
X178956300Y-151011950D01*
X178956300Y-151011950D02*
X179182643Y-151256741D01*
X179182643Y-151256741D02*
X179300503Y-151575989D01*
X179300503Y-151575989D02*
X179287064Y-151916032D01*
X179287064Y-151916032D02*
X179104846Y-152311444D01*
G04 #@! TO.C,S13*
X167349001Y-168350770D02*
X167642674Y-168564136D01*
X167642674Y-168564136D02*
X167088980Y-169326230D01*
X167088980Y-169326230D02*
X163783337Y-166924539D01*
X163783337Y-166924539D02*
X163567221Y-166694594D01*
X163567221Y-166694594D02*
X163445474Y-166396008D01*
X163445474Y-166396008D02*
X163440982Y-166073839D01*
X163440982Y-166073839D02*
X163549803Y-165784554D01*
X163549803Y-165784554D02*
X163753198Y-165242603D01*
X163753198Y-165242603D02*
X163746017Y-164677447D01*
X163746017Y-164677447D02*
X163534246Y-164154002D01*
X163534246Y-164154002D02*
X163141296Y-163738720D01*
X163141296Y-163738720D02*
X160999828Y-162182852D01*
X160999828Y-162182852D02*
X160773950Y-160756717D01*
X162507691Y-158513337D02*
X163816495Y-158306043D01*
X163816495Y-158306043D02*
X166038864Y-159920689D01*
X166038864Y-159920689D02*
X166317875Y-160222288D01*
X166317875Y-160222288D02*
X166459956Y-160608575D01*
X166459956Y-160608575D02*
X166577873Y-161353071D01*
X166577873Y-161353071D02*
X166447384Y-161532672D01*
X166447384Y-161532672D02*
X166260319Y-161938159D01*
X166260319Y-161938159D02*
X166242002Y-162378488D01*
X166242002Y-162378488D02*
X166395492Y-162791605D01*
X166395492Y-162791605D02*
X166698704Y-163119440D01*
X166698704Y-163119440D02*
X168963951Y-164765239D01*
X168963951Y-164765239D02*
X169190294Y-165010030D01*
X169190294Y-165010030D02*
X169308154Y-165329278D01*
X169308154Y-165329278D02*
X169294715Y-165669321D01*
X169294715Y-165669321D02*
X169112497Y-166064733D01*
G04 #@! TO.C,S12*
X173556275Y-121721201D02*
X173867427Y-121908160D01*
X173867427Y-121908160D02*
X173382261Y-122715612D01*
X173382261Y-122715612D02*
X169879875Y-120611166D01*
X169879875Y-120611166D02*
X169644541Y-120400931D01*
X169644541Y-120400931D02*
X169497233Y-120114092D01*
X169497233Y-120114092D02*
X169464680Y-119793541D01*
X169464680Y-119793541D02*
X169547873Y-119495872D01*
X169547873Y-119495872D02*
X169703261Y-118938257D01*
X169703261Y-118938257D02*
X169646851Y-118375877D01*
X169646851Y-118375877D02*
X169390264Y-117872881D01*
X169390264Y-117872881D02*
X168962615Y-117493427D01*
X168962615Y-117493427D02*
X166693693Y-116130121D01*
X166693693Y-116130121D02*
X166344379Y-114729099D01*
X167875999Y-112343150D02*
X169161755Y-112022575D01*
X169161755Y-112022575D02*
X171516394Y-113437385D01*
X171516394Y-113437385D02*
X171820629Y-113713519D01*
X171820629Y-113713519D02*
X171995837Y-114085953D01*
X171995837Y-114085953D02*
X172178192Y-114817339D01*
X172178192Y-114817339D02*
X172063853Y-115007630D01*
X172063853Y-115007630D02*
X171912840Y-115427877D01*
X171912840Y-115427877D02*
X171932970Y-115868127D01*
X171932970Y-115868127D02*
X172121881Y-116266295D01*
X172121881Y-116266295D02*
X172452512Y-116566455D01*
X172452512Y-116566455D02*
X174852580Y-118008562D01*
X174852580Y-118008562D02*
X175099397Y-118232695D01*
X175099397Y-118232695D02*
X175244633Y-118540455D01*
X175244633Y-118540455D02*
X175260882Y-118880376D01*
X175260882Y-118880376D02*
X175113820Y-119290165D01*
G04 #@! TO.C,S11*
X164800628Y-136293045D02*
X165111780Y-136480004D01*
X165111780Y-136480004D02*
X164626614Y-137287456D01*
X164626614Y-137287456D02*
X161124228Y-135183010D01*
X161124228Y-135183010D02*
X160888894Y-134972775D01*
X160888894Y-134972775D02*
X160741586Y-134685936D01*
X160741586Y-134685936D02*
X160709033Y-134365385D01*
X160709033Y-134365385D02*
X160792226Y-134067716D01*
X160792226Y-134067716D02*
X160947614Y-133510101D01*
X160947614Y-133510101D02*
X160891204Y-132947721D01*
X160891204Y-132947721D02*
X160634617Y-132444725D01*
X160634617Y-132444725D02*
X160206968Y-132065271D01*
X160206968Y-132065271D02*
X157938046Y-130701965D01*
X157938046Y-130701965D02*
X157588732Y-129300943D01*
X159120352Y-126914994D02*
X160406108Y-126594419D01*
X160406108Y-126594419D02*
X162760747Y-128009229D01*
X162760747Y-128009229D02*
X163064982Y-128285363D01*
X163064982Y-128285363D02*
X163240190Y-128657797D01*
X163240190Y-128657797D02*
X163422545Y-129389183D01*
X163422545Y-129389183D02*
X163308206Y-129579474D01*
X163308206Y-129579474D02*
X163157193Y-129999721D01*
X163157193Y-129999721D02*
X163177323Y-130439971D01*
X163177323Y-130439971D02*
X163366234Y-130838139D01*
X163366234Y-130838139D02*
X163696865Y-131138299D01*
X163696865Y-131138299D02*
X166096933Y-132580406D01*
X166096933Y-132580406D02*
X166343750Y-132804539D01*
X166343750Y-132804539D02*
X166488986Y-133112299D01*
X166488986Y-133112299D02*
X166505235Y-133452220D01*
X166505235Y-133452220D02*
X166358173Y-133862009D01*
G04 #@! TO.C,S10*
X156044981Y-150864889D02*
X156356133Y-151051848D01*
X156356133Y-151051848D02*
X155870967Y-151859300D01*
X155870967Y-151859300D02*
X152368581Y-149754854D01*
X152368581Y-149754854D02*
X152133247Y-149544619D01*
X152133247Y-149544619D02*
X151985939Y-149257780D01*
X151985939Y-149257780D02*
X151953386Y-148937229D01*
X151953386Y-148937229D02*
X152036579Y-148639560D01*
X152036579Y-148639560D02*
X152191967Y-148081945D01*
X152191967Y-148081945D02*
X152135557Y-147519565D01*
X152135557Y-147519565D02*
X151878970Y-147016569D01*
X151878970Y-147016569D02*
X151451321Y-146637115D01*
X151451321Y-146637115D02*
X149182399Y-145273809D01*
X149182399Y-145273809D02*
X148833085Y-143872787D01*
X150364705Y-141486838D02*
X151650461Y-141166263D01*
X151650461Y-141166263D02*
X154005100Y-142581073D01*
X154005100Y-142581073D02*
X154309335Y-142857207D01*
X154309335Y-142857207D02*
X154484543Y-143229641D01*
X154484543Y-143229641D02*
X154666898Y-143961027D01*
X154666898Y-143961027D02*
X154552559Y-144151318D01*
X154552559Y-144151318D02*
X154401546Y-144571565D01*
X154401546Y-144571565D02*
X154421676Y-145011815D01*
X154421676Y-145011815D02*
X154610587Y-145409983D01*
X154610587Y-145409983D02*
X154941218Y-145710143D01*
X154941218Y-145710143D02*
X157341286Y-147152250D01*
X157341286Y-147152250D02*
X157588103Y-147376383D01*
X157588103Y-147376383D02*
X157733339Y-147684143D01*
X157733339Y-147684143D02*
X157749588Y-148024064D01*
X157749588Y-148024064D02*
X157602526Y-148433853D01*
G04 #@! TO.C,S9*
X152115367Y-115081625D02*
X152441629Y-115240754D01*
X152441629Y-115240754D02*
X152028684Y-116087418D01*
X152028684Y-116087418D02*
X148356211Y-114296233D01*
X148356211Y-114296233D02*
X148103449Y-114107309D01*
X148103449Y-114107309D02*
X147931703Y-113834401D01*
X147931703Y-113834401D02*
X147871335Y-113517906D01*
X147871335Y-113517906D02*
X147928269Y-113214119D01*
X147928269Y-113214119D02*
X148034465Y-112645083D01*
X148034465Y-112645083D02*
X147929255Y-112089760D01*
X147929255Y-112089760D02*
X147629806Y-111611040D01*
X147629806Y-111611040D02*
X147170713Y-111270302D01*
X147170713Y-111270302D02*
X144791605Y-110109934D01*
X144791605Y-110109934D02*
X144321513Y-108744688D01*
X145639355Y-106234329D02*
X146892279Y-105802913D01*
X146892279Y-105802913D02*
X149361266Y-107007119D01*
X149361266Y-107007119D02*
X149688411Y-107255686D01*
X149688411Y-107255686D02*
X149895411Y-107611432D01*
X149895411Y-107611432D02*
X150140817Y-108324141D01*
X150140817Y-108324141D02*
X150043498Y-108523674D01*
X150043498Y-108523674D02*
X149929687Y-108955484D01*
X149929687Y-108955484D02*
X149988110Y-109392304D01*
X149988110Y-109392304D02*
X150211005Y-109772492D01*
X150211005Y-109772492D02*
X150566539Y-110042693D01*
X150566539Y-110042693D02*
X153083162Y-111270133D01*
X153083162Y-111270133D02*
X153348574Y-111471902D01*
X153348574Y-111471902D02*
X153520080Y-111765833D01*
X153520080Y-111765833D02*
X153565893Y-112103044D01*
X153565893Y-112103044D02*
X153455106Y-112524090D01*
G04 #@! TO.C,S8*
X144663057Y-130361124D02*
X144989319Y-130520253D01*
X144989319Y-130520253D02*
X144576374Y-131366917D01*
X144576374Y-131366917D02*
X140903901Y-129575732D01*
X140903901Y-129575732D02*
X140651139Y-129386808D01*
X140651139Y-129386808D02*
X140479393Y-129113900D01*
X140479393Y-129113900D02*
X140419025Y-128797405D01*
X140419025Y-128797405D02*
X140475959Y-128493618D01*
X140475959Y-128493618D02*
X140582155Y-127924582D01*
X140582155Y-127924582D02*
X140476945Y-127369259D01*
X140476945Y-127369259D02*
X140177496Y-126890539D01*
X140177496Y-126890539D02*
X139718403Y-126549801D01*
X139718403Y-126549801D02*
X137339295Y-125389433D01*
X137339295Y-125389433D02*
X136869203Y-124024187D01*
X138187045Y-121513828D02*
X139439969Y-121082412D01*
X139439969Y-121082412D02*
X141908956Y-122286618D01*
X141908956Y-122286618D02*
X142236101Y-122535185D01*
X142236101Y-122535185D02*
X142443101Y-122890931D01*
X142443101Y-122890931D02*
X142688507Y-123603640D01*
X142688507Y-123603640D02*
X142591188Y-123803173D01*
X142591188Y-123803173D02*
X142477377Y-124234983D01*
X142477377Y-124234983D02*
X142535800Y-124671803D01*
X142535800Y-124671803D02*
X142758695Y-125051991D01*
X142758695Y-125051991D02*
X143114229Y-125322192D01*
X143114229Y-125322192D02*
X145630852Y-126549632D01*
X145630852Y-126549632D02*
X145896264Y-126751401D01*
X145896264Y-126751401D02*
X146067770Y-127045332D01*
X146067770Y-127045332D02*
X146113583Y-127382543D01*
X146113583Y-127382543D02*
X146002796Y-127803589D01*
G04 #@! TO.C,S7*
X137210748Y-145640623D02*
X137537010Y-145799752D01*
X137537010Y-145799752D02*
X137124065Y-146646416D01*
X137124065Y-146646416D02*
X133451592Y-144855231D01*
X133451592Y-144855231D02*
X133198830Y-144666307D01*
X133198830Y-144666307D02*
X133027084Y-144393399D01*
X133027084Y-144393399D02*
X132966716Y-144076904D01*
X132966716Y-144076904D02*
X133023650Y-143773117D01*
X133023650Y-143773117D02*
X133129846Y-143204081D01*
X133129846Y-143204081D02*
X133024636Y-142648758D01*
X133024636Y-142648758D02*
X132725187Y-142170038D01*
X132725187Y-142170038D02*
X132266094Y-141829300D01*
X132266094Y-141829300D02*
X129886986Y-140668932D01*
X129886986Y-140668932D02*
X129416894Y-139303686D01*
X130734736Y-136793327D02*
X131987660Y-136361911D01*
X131987660Y-136361911D02*
X134456647Y-137566117D01*
X134456647Y-137566117D02*
X134783792Y-137814684D01*
X134783792Y-137814684D02*
X134990792Y-138170430D01*
X134990792Y-138170430D02*
X135236198Y-138883139D01*
X135236198Y-138883139D02*
X135138879Y-139082672D01*
X135138879Y-139082672D02*
X135025068Y-139514482D01*
X135025068Y-139514482D02*
X135083491Y-139951302D01*
X135083491Y-139951302D02*
X135306386Y-140331490D01*
X135306386Y-140331490D02*
X135661920Y-140601691D01*
X135661920Y-140601691D02*
X138178543Y-141829131D01*
X138178543Y-141829131D02*
X138443955Y-142030900D01*
X138443955Y-142030900D02*
X138615461Y-142324831D01*
X138615461Y-142324831D02*
X138661274Y-142662042D01*
X138661274Y-142662042D02*
X138550487Y-143083088D01*
G04 #@! TO.C,S6*
X122459084Y-115451387D02*
X122815415Y-115520651D01*
X122815415Y-115520651D02*
X122635673Y-116445343D01*
X122635673Y-116445343D02*
X118624744Y-115665698D01*
X118624744Y-115665698D02*
X118331697Y-115548631D01*
X118331697Y-115548631D02*
X118095169Y-115329473D01*
X118095169Y-115329473D02*
X117954944Y-115039387D01*
X117954944Y-115039387D02*
X117931311Y-114731216D01*
X117931311Y-114731216D02*
X117886612Y-114154083D01*
X117886612Y-114154083D02*
X117641259Y-113644912D01*
X117641259Y-113644912D02*
X117228111Y-113260008D01*
X117228111Y-113260008D02*
X116696472Y-113049703D01*
X116696472Y-113049703D02*
X114098105Y-112544631D01*
X114098105Y-112544631D02*
X113290679Y-111347574D01*
X113913889Y-108581671D02*
X115012461Y-107840674D01*
X115012461Y-107840674D02*
X117708991Y-108364826D01*
X117708991Y-108364826D02*
X118089322Y-108520253D01*
X118089322Y-108520253D02*
X118381343Y-108810302D01*
X118381343Y-108810302D02*
X118802850Y-109435210D01*
X118802850Y-109435210D02*
X118760490Y-109653132D01*
X118760490Y-109653132D02*
X118762317Y-110099685D01*
X118762317Y-110099685D02*
X118931807Y-110506499D01*
X118931807Y-110506499D02*
X119245507Y-110816043D01*
X119245507Y-110816043D02*
X119658859Y-110985019D01*
X119658859Y-110985019D02*
X122407415Y-111519284D01*
X122407415Y-111519284D02*
X122716005Y-111645485D01*
X122716005Y-111645485D02*
X122957743Y-111885011D01*
X122957743Y-111885011D02*
X123089271Y-112198874D01*
X123089271Y-112198874D02*
X123091234Y-112634248D01*
G04 #@! TO.C,S5*
X119215331Y-132139049D02*
X119571662Y-132208313D01*
X119571662Y-132208313D02*
X119391920Y-133133005D01*
X119391920Y-133133005D02*
X115380991Y-132353360D01*
X115380991Y-132353360D02*
X115087944Y-132236293D01*
X115087944Y-132236293D02*
X114851416Y-132017135D01*
X114851416Y-132017135D02*
X114711191Y-131727049D01*
X114711191Y-131727049D02*
X114687558Y-131418878D01*
X114687558Y-131418878D02*
X114642859Y-130841745D01*
X114642859Y-130841745D02*
X114397506Y-130332574D01*
X114397506Y-130332574D02*
X113984358Y-129947670D01*
X113984358Y-129947670D02*
X113452719Y-129737365D01*
X113452719Y-129737365D02*
X110854352Y-129232293D01*
X110854352Y-129232293D02*
X110046926Y-128035236D01*
X110670136Y-125269333D02*
X111768708Y-124528336D01*
X111768708Y-124528336D02*
X114465238Y-125052488D01*
X114465238Y-125052488D02*
X114845569Y-125207915D01*
X114845569Y-125207915D02*
X115137590Y-125497964D01*
X115137590Y-125497964D02*
X115559097Y-126122872D01*
X115559097Y-126122872D02*
X115516737Y-126340794D01*
X115516737Y-126340794D02*
X115518564Y-126787347D01*
X115518564Y-126787347D02*
X115688054Y-127194161D01*
X115688054Y-127194161D02*
X116001754Y-127503705D01*
X116001754Y-127503705D02*
X116415106Y-127672681D01*
X116415106Y-127672681D02*
X119163662Y-128206946D01*
X119163662Y-128206946D02*
X119472252Y-128333147D01*
X119472252Y-128333147D02*
X119713990Y-128572673D01*
X119713990Y-128572673D02*
X119845518Y-128886536D01*
X119845518Y-128886536D02*
X119847481Y-129321910D01*
G04 #@! TO.C,S4*
X115971578Y-148826712D02*
X116327909Y-148895976D01*
X116327909Y-148895976D02*
X116148167Y-149820668D01*
X116148167Y-149820668D02*
X112137238Y-149041023D01*
X112137238Y-149041023D02*
X111844191Y-148923956D01*
X111844191Y-148923956D02*
X111607663Y-148704798D01*
X111607663Y-148704798D02*
X111467438Y-148414712D01*
X111467438Y-148414712D02*
X111443805Y-148106541D01*
X111443805Y-148106541D02*
X111399106Y-147529408D01*
X111399106Y-147529408D02*
X111153753Y-147020237D01*
X111153753Y-147020237D02*
X110740605Y-146635333D01*
X110740605Y-146635333D02*
X110208966Y-146425028D01*
X110208966Y-146425028D02*
X107610599Y-145919956D01*
X107610599Y-145919956D02*
X106803173Y-144722899D01*
X107426383Y-141956996D02*
X108524955Y-141215999D01*
X108524955Y-141215999D02*
X111221485Y-141740151D01*
X111221485Y-141740151D02*
X111601816Y-141895578D01*
X111601816Y-141895578D02*
X111893837Y-142185627D01*
X111893837Y-142185627D02*
X112315344Y-142810535D01*
X112315344Y-142810535D02*
X112272984Y-143028457D01*
X112272984Y-143028457D02*
X112274811Y-143475010D01*
X112274811Y-143475010D02*
X112444301Y-143881824D01*
X112444301Y-143881824D02*
X112758001Y-144191368D01*
X112758001Y-144191368D02*
X113171353Y-144360344D01*
X113171353Y-144360344D02*
X115919909Y-144894609D01*
X115919909Y-144894609D02*
X116228499Y-145020810D01*
X116228499Y-145020810D02*
X116470237Y-145260336D01*
X116470237Y-145260336D02*
X116601765Y-145574199D01*
X116601765Y-145574199D02*
X116603728Y-146009573D01*
G04 #@! TO.C,S3*
X100299193Y-116584134D02*
X100660205Y-116622077D01*
X100660205Y-116622077D02*
X100561739Y-117558917D01*
X100561739Y-117558917D02*
X96498122Y-117131814D01*
X96498122Y-117131814D02*
X96195988Y-117040733D01*
X96195988Y-117040733D02*
X95941259Y-116843024D01*
X95941259Y-116843024D02*
X95776284Y-116566263D01*
X95776284Y-116566263D02*
X95725883Y-116261324D01*
X95725883Y-116261324D02*
X95631054Y-115690283D01*
X95631054Y-115690283D02*
X95342257Y-115204434D01*
X95342257Y-115204434D02*
X94897135Y-114857003D01*
X94897135Y-114857003D02*
X94349189Y-114693833D01*
X94349189Y-114693833D02*
X91716689Y-114417147D01*
X91716689Y-114417147D02*
X90808006Y-113295016D01*
X91187779Y-110485322D02*
X92217590Y-109651398D01*
X92217590Y-109651398D02*
X94949541Y-109938537D01*
X94949541Y-109938537D02*
X95341971Y-110060224D01*
X95341971Y-110060224D02*
X95658161Y-110323718D01*
X95658161Y-110323718D02*
X96132527Y-110909512D01*
X96132527Y-110909512D02*
X96109322Y-111130296D01*
X96109322Y-111130296D02*
X96150062Y-111574991D01*
X96150062Y-111574991D02*
X96354363Y-111965485D01*
X96354363Y-111965485D02*
X96693848Y-112246510D01*
X96693848Y-112246510D02*
X97120355Y-112378817D01*
X97120355Y-112378817D02*
X99905016Y-112671497D01*
X99905016Y-112671497D02*
X100223430Y-112770322D01*
X100223430Y-112770322D02*
X100485124Y-112987868D01*
X100485124Y-112987868D02*
X100643507Y-113289073D01*
X100643507Y-113289073D02*
X100683408Y-113722619D01*
G04 #@! TO.C,S2*
X98522209Y-133491006D02*
X98883221Y-133528949D01*
X98883221Y-133528949D02*
X98784755Y-134465789D01*
X98784755Y-134465789D02*
X94721138Y-134038686D01*
X94721138Y-134038686D02*
X94419004Y-133947605D01*
X94419004Y-133947605D02*
X94164275Y-133749896D01*
X94164275Y-133749896D02*
X93999300Y-133473135D01*
X93999300Y-133473135D02*
X93948899Y-133168196D01*
X93948899Y-133168196D02*
X93854070Y-132597155D01*
X93854070Y-132597155D02*
X93565273Y-132111306D01*
X93565273Y-132111306D02*
X93120151Y-131763875D01*
X93120151Y-131763875D02*
X92572205Y-131600705D01*
X92572205Y-131600705D02*
X89939705Y-131324019D01*
X89939705Y-131324019D02*
X89031022Y-130201888D01*
X89410795Y-127392194D02*
X90440606Y-126558270D01*
X90440606Y-126558270D02*
X93172557Y-126845409D01*
X93172557Y-126845409D02*
X93564987Y-126967096D01*
X93564987Y-126967096D02*
X93881177Y-127230590D01*
X93881177Y-127230590D02*
X94355543Y-127816384D01*
X94355543Y-127816384D02*
X94332338Y-128037168D01*
X94332338Y-128037168D02*
X94373078Y-128481863D01*
X94373078Y-128481863D02*
X94577379Y-128872357D01*
X94577379Y-128872357D02*
X94916864Y-129153382D01*
X94916864Y-129153382D02*
X95343371Y-129285689D01*
X95343371Y-129285689D02*
X98128032Y-129578369D01*
X98128032Y-129578369D02*
X98446446Y-129677194D01*
X98446446Y-129677194D02*
X98708140Y-129894740D01*
X98708140Y-129894740D02*
X98866523Y-130195945D01*
X98866523Y-130195945D02*
X98906424Y-130629491D01*
G04 #@! TO.C,S1*
X96745225Y-150397878D02*
X97106237Y-150435821D01*
X97106237Y-150435821D02*
X97007771Y-151372661D01*
X97007771Y-151372661D02*
X92944154Y-150945558D01*
X92944154Y-150945558D02*
X92642020Y-150854477D01*
X92642020Y-150854477D02*
X92387291Y-150656768D01*
X92387291Y-150656768D02*
X92222316Y-150380007D01*
X92222316Y-150380007D02*
X92171915Y-150075068D01*
X92171915Y-150075068D02*
X92077086Y-149504027D01*
X92077086Y-149504027D02*
X91788289Y-149018178D01*
X91788289Y-149018178D02*
X91343167Y-148670747D01*
X91343167Y-148670747D02*
X90795221Y-148507577D01*
X90795221Y-148507577D02*
X88162721Y-148230891D01*
X88162721Y-148230891D02*
X87254038Y-147108760D01*
X87633811Y-144299066D02*
X88663622Y-143465142D01*
X88663622Y-143465142D02*
X91395573Y-143752281D01*
X91395573Y-143752281D02*
X91788003Y-143873968D01*
X91788003Y-143873968D02*
X92104193Y-144137462D01*
X92104193Y-144137462D02*
X92578559Y-144723256D01*
X92578559Y-144723256D02*
X92555354Y-144944040D01*
X92555354Y-144944040D02*
X92596094Y-145388735D01*
X92596094Y-145388735D02*
X92800395Y-145779229D01*
X92800395Y-145779229D02*
X93139880Y-146060254D01*
X93139880Y-146060254D02*
X93566387Y-146192561D01*
X93566387Y-146192561D02*
X96351048Y-146485241D01*
X96351048Y-146485241D02*
X96669462Y-146584066D01*
X96669462Y-146584066D02*
X96931156Y-146801612D01*
X96931156Y-146801612D02*
X97089539Y-147102817D01*
X97089539Y-147102817D02*
X97129440Y-147536363D01*
D11*
G04 #@! TO.C,D22*
X181142358Y-215319741D02*
X181305052Y-215685159D01*
X181644808Y-215096036D02*
X181142358Y-215319741D01*
X180639908Y-215543446D02*
X181142358Y-215319741D01*
X181263734Y-214608919D02*
X181142358Y-215319741D01*
X180532898Y-214934308D02*
X181263734Y-214608919D01*
X180694948Y-214314841D02*
X180898316Y-214771614D01*
X181142358Y-215319741D02*
X180532898Y-214934308D01*
G04 #@! TO.C,D21*
X156227999Y-206220262D02*
X155917141Y-206471990D01*
X156574125Y-206647692D02*
X156227999Y-206220262D01*
X155881873Y-205792832D02*
X156227999Y-206220262D01*
X156946015Y-206153528D02*
X156227999Y-206220262D01*
X156442558Y-205531812D02*
X156946015Y-206153528D01*
X157082859Y-205528010D02*
X156694286Y-205842670D01*
X156227999Y-206220262D02*
X156442558Y-205531812D01*
G04 #@! TO.C,D20*
X142294275Y-189783156D02*
X142059161Y-190106763D01*
X142739235Y-190106438D02*
X142294275Y-189783156D01*
X141849316Y-189459874D02*
X142294275Y-189783156D01*
X142970553Y-189532860D02*
X142294275Y-189783156D01*
X142323340Y-189062632D02*
X142970553Y-189532860D01*
X142940839Y-188893237D02*
X142646946Y-189297746D01*
X142294275Y-189783156D02*
X142323340Y-189062632D01*
G04 #@! TO.C,D19*
X195794275Y-192283156D02*
X195559161Y-192606763D01*
X196239235Y-192606438D02*
X195794275Y-192283156D01*
X195349316Y-191959874D02*
X195794275Y-192283156D01*
X196470553Y-192032860D02*
X195794275Y-192283156D01*
X195823340Y-191562632D02*
X196470553Y-192032860D01*
X196440839Y-191393237D02*
X196146946Y-191797746D01*
X195794275Y-192283156D02*
X195823340Y-191562632D01*
G04 #@! TO.C,D18*
X196294275Y-161283156D02*
X196059161Y-161606763D01*
X196739235Y-161606438D02*
X196294275Y-161283156D01*
X195849316Y-160959874D02*
X196294275Y-161283156D01*
X196970553Y-161032860D02*
X196294275Y-161283156D01*
X196323340Y-160562632D02*
X196970553Y-161032860D01*
X196940839Y-160393237D02*
X196646946Y-160797746D01*
X196294275Y-161283156D02*
X196323340Y-160562632D01*
G04 #@! TO.C,D17*
X186294275Y-175283156D02*
X186059161Y-175606763D01*
X186739235Y-175606438D02*
X186294275Y-175283156D01*
X185849316Y-174959874D02*
X186294275Y-175283156D01*
X186970553Y-175032860D02*
X186294275Y-175283156D01*
X186323340Y-174562632D02*
X186970553Y-175032860D01*
X186940839Y-174393237D02*
X186646946Y-174797746D01*
X186294275Y-175283156D02*
X186323340Y-174562632D01*
G04 #@! TO.C,D16*
X176294275Y-188783156D02*
X176059161Y-189106763D01*
X176739235Y-189106438D02*
X176294275Y-188783156D01*
X175849316Y-188459874D02*
X176294275Y-188783156D01*
X176970553Y-188532860D02*
X176294275Y-188783156D01*
X176323340Y-188062632D02*
X176970553Y-188532860D01*
X176940839Y-187893237D02*
X176646946Y-188297746D01*
X176294275Y-188783156D02*
X176323340Y-188062632D01*
G04 #@! TO.C,D15*
X183794275Y-148283156D02*
X183559161Y-148606763D01*
X184239235Y-148606438D02*
X183794275Y-148283156D01*
X183349316Y-147959874D02*
X183794275Y-148283156D01*
X184470553Y-148032860D02*
X183794275Y-148283156D01*
X183823340Y-147562632D02*
X184470553Y-148032860D01*
X184440839Y-147393237D02*
X184146946Y-147797746D01*
X183794275Y-148283156D02*
X183823340Y-147562632D01*
G04 #@! TO.C,D14*
X173794275Y-161783156D02*
X173559161Y-162106763D01*
X174239235Y-162106438D02*
X173794275Y-161783156D01*
X173349316Y-161459874D02*
X173794275Y-161783156D01*
X174470553Y-161532860D02*
X173794275Y-161783156D01*
X173823340Y-161062632D02*
X174470553Y-161532860D01*
X174440839Y-160893237D02*
X174146946Y-161297746D01*
X173794275Y-161783156D02*
X173823340Y-161062632D01*
G04 #@! TO.C,D13*
X163794275Y-175283156D02*
X163559161Y-175606763D01*
X164239235Y-175606438D02*
X163794275Y-175283156D01*
X163349316Y-174959874D02*
X163794275Y-175283156D01*
X164470553Y-175032860D02*
X163794275Y-175283156D01*
X163823340Y-174562632D02*
X164470553Y-175032860D01*
X164440839Y-174393237D02*
X164146946Y-174797746D01*
X163794275Y-175283156D02*
X163823340Y-174562632D01*
G04 #@! TO.C,D12*
X170819737Y-129300009D02*
X170613721Y-129642875D01*
X171291179Y-129583279D02*
X170819737Y-129300009D01*
X170348295Y-129016738D02*
X170819737Y-129300009D01*
X171471626Y-128991723D02*
X170819737Y-129300009D01*
X170785893Y-128579693D02*
X171471626Y-128991723D01*
X171386279Y-128357125D02*
X171128760Y-128785708D01*
X170819737Y-129300009D02*
X170785893Y-128579693D01*
G04 #@! TO.C,D11*
X161819737Y-143800009D02*
X161613721Y-144142875D01*
X162291179Y-144083279D02*
X161819737Y-143800009D01*
X161348295Y-143516738D02*
X161819737Y-143800009D01*
X162471626Y-143491723D02*
X161819737Y-143800009D01*
X161785893Y-143079693D02*
X162471626Y-143491723D01*
X162386279Y-142857125D02*
X162128760Y-143285708D01*
X161819737Y-143800009D02*
X161785893Y-143079693D01*
G04 #@! TO.C,D10*
X153319737Y-158300009D02*
X153113721Y-158642875D01*
X153791179Y-158583279D02*
X153319737Y-158300009D01*
X152848295Y-158016738D02*
X153319737Y-158300009D01*
X153971626Y-157991723D02*
X153319737Y-158300009D01*
X153285893Y-157579693D02*
X153971626Y-157991723D01*
X153886279Y-157357125D02*
X153628760Y-157785708D01*
X153319737Y-158300009D02*
X153285893Y-157579693D01*
G04 #@! TO.C,D9*
X149846570Y-122814578D02*
X149671222Y-123174096D01*
X150340907Y-123055682D02*
X149846570Y-122814578D01*
X149352233Y-122573474D02*
X149846570Y-122814578D01*
X150469110Y-122450650D02*
X149846570Y-122814578D01*
X149750075Y-122099953D02*
X150469110Y-122450650D01*
X150328778Y-121825904D02*
X150109593Y-122275301D01*
X149846570Y-122814578D02*
X149750075Y-122099953D01*
G04 #@! TO.C,D8*
X142346570Y-138314578D02*
X142171222Y-138674096D01*
X142840907Y-138555682D02*
X142346570Y-138314578D01*
X141852233Y-138073474D02*
X142346570Y-138314578D01*
X142969110Y-137950650D02*
X142346570Y-138314578D01*
X142250075Y-137599953D02*
X142969110Y-137950650D01*
X142828778Y-137325904D02*
X142609593Y-137775301D01*
X142346570Y-138314578D02*
X142250075Y-137599953D01*
G04 #@! TO.C,D7*
X135346570Y-153314578D02*
X135171222Y-153674096D01*
X135840907Y-153555682D02*
X135346570Y-153314578D01*
X134852233Y-153073474D02*
X135346570Y-153314578D01*
X135969110Y-152950650D02*
X135346570Y-153314578D01*
X135250075Y-152599953D02*
X135969110Y-152950650D01*
X135828778Y-152325904D02*
X135609593Y-152775301D01*
X135346570Y-153314578D02*
X135250075Y-152599953D01*
G04 #@! TO.C,D6*
X122433217Y-123343570D02*
X122356893Y-123736220D01*
X122973112Y-123448514D02*
X122433217Y-123343570D01*
X121893322Y-123238625D02*
X122433217Y-123343570D01*
X122940353Y-122830917D02*
X122433217Y-123343570D01*
X122155051Y-122678270D02*
X122940353Y-122830917D01*
X122643107Y-122263780D02*
X122547702Y-122754593D01*
X122433217Y-123343570D02*
X122155051Y-122678270D01*
G04 #@! TO.C,D5*
X119433217Y-140343570D02*
X119356893Y-140736220D01*
X119973112Y-140448514D02*
X119433217Y-140343570D01*
X118893322Y-140238625D02*
X119433217Y-140343570D01*
X119940353Y-139830917D02*
X119433217Y-140343570D01*
X119155051Y-139678270D02*
X119940353Y-139830917D01*
X119643107Y-139263780D02*
X119547702Y-139754593D01*
X119433217Y-140343570D02*
X119155051Y-139678270D01*
G04 #@! TO.C,D4*
X115933217Y-156843570D02*
X115856893Y-157236220D01*
X116473112Y-156948514D02*
X115933217Y-156843570D01*
X115393322Y-156738625D02*
X115933217Y-156843570D01*
X116440353Y-156330917D02*
X115933217Y-156843570D01*
X115655051Y-156178270D02*
X116440353Y-156330917D01*
X116143107Y-155763780D02*
X116047702Y-156254593D01*
X115933217Y-156843570D02*
X115655051Y-156178270D01*
G04 #@! TO.C,D3*
X100963415Y-124348083D02*
X100921604Y-124745891D01*
X101510402Y-124405573D02*
X100963415Y-124348083D01*
X100416428Y-124290592D02*
X100963415Y-124348083D01*
X101423941Y-123793181D02*
X100963415Y-124348083D01*
X100628323Y-123709558D02*
X101423941Y-123793181D01*
X101078396Y-123254109D02*
X101026132Y-123751370D01*
X100963415Y-124348083D02*
X100628323Y-123709558D01*
G04 #@! TO.C,D2*
X98963415Y-141348083D02*
X98921604Y-141745891D01*
X99510402Y-141405573D02*
X98963415Y-141348083D01*
X98416428Y-141290592D02*
X98963415Y-141348083D01*
X99423941Y-140793181D02*
X98963415Y-141348083D01*
X98628323Y-140709558D02*
X99423941Y-140793181D01*
X99078396Y-140254109D02*
X99026132Y-140751370D01*
X98963415Y-141348083D02*
X98628323Y-140709558D01*
G04 #@! TO.C,D1*
X97463415Y-158348083D02*
X97421604Y-158745891D01*
X98010402Y-158405573D02*
X97463415Y-158348083D01*
X96916428Y-158290592D02*
X97463415Y-158348083D01*
X97923941Y-157793181D02*
X97463415Y-158348083D01*
X97128323Y-157709558D02*
X97923941Y-157793181D01*
X97578396Y-157254109D02*
X97526132Y-157751370D01*
X97463415Y-158348083D02*
X97128323Y-157709558D01*
G04 #@! TD*
%LPC*%
D12*
G04 #@! TO.C,U1*
X223810000Y-155640000D03*
X226350000Y-155640000D03*
X220000000Y-175960000D03*
G04 #@! TD*
D13*
G04 #@! TO.C,S44*
X281399746Y-208005575D03*
X285113327Y-211957703D03*
D14*
X278243011Y-206490642D03*
X288310736Y-213381282D03*
D15*
X279000000Y-213395493D03*
D16*
X273975500Y-211158441D03*
X284024500Y-215632545D03*
D17*
X272337579Y-216066569D03*
G04 #@! TD*
D13*
G04 #@! TO.C,S43*
X290373493Y-192154806D03*
X295152101Y-189590649D03*
D18*
X288093157Y-194811885D03*
X297354723Y-186870638D03*
D15*
X294958654Y-195867796D03*
D16*
X291497392Y-200142099D03*
X298419916Y-191593493D03*
D17*
X295814354Y-202994526D03*
G04 #@! TD*
D13*
G04 #@! TO.C,S42*
X307944942Y-175462602D03*
X313224376Y-174222611D03*
D19*
X305054604Y-177438948D03*
X316055935Y-172165363D03*
D15*
X311412875Y-180235802D03*
D16*
X306963282Y-183468621D03*
X315862468Y-177002983D03*
D17*
X310394884Y-187341166D03*
G04 #@! TD*
D13*
G04 #@! TO.C,S41*
X254302375Y-178188515D03*
X259581809Y-176948524D03*
D19*
X251412037Y-180164861D03*
X262413368Y-174891276D03*
D15*
X257770308Y-182961715D03*
D16*
X253320715Y-186194534D03*
X262219901Y-179728896D03*
D17*
X256752317Y-190067079D03*
G04 #@! TD*
D13*
G04 #@! TO.C,S40*
X253876157Y-146978447D03*
X259155591Y-145738456D03*
D19*
X250985819Y-148954793D03*
X261987150Y-143681208D03*
D15*
X257344090Y-151751647D03*
D16*
X252894497Y-154984466D03*
X261793683Y-148518828D03*
D17*
X256326099Y-158857011D03*
G04 #@! TD*
D13*
G04 #@! TO.C,S39*
X263868506Y-160731736D03*
X269147940Y-159491745D03*
D19*
X260978168Y-162708082D03*
X271979499Y-157434497D03*
D15*
X267336439Y-165504936D03*
D16*
X262886846Y-168737755D03*
X271786032Y-162272117D03*
D17*
X266318448Y-172610300D03*
G04 #@! TD*
D13*
G04 #@! TO.C,S38*
X273860855Y-174485025D03*
X279140289Y-173245034D03*
D19*
X270970517Y-176461371D03*
X281971848Y-171187786D03*
D15*
X277328788Y-179258225D03*
D16*
X272879195Y-182491044D03*
X281778381Y-176025406D03*
D17*
X276310797Y-186363589D03*
G04 #@! TD*
D13*
G04 #@! TO.C,S37*
X266439993Y-133647655D03*
X271719427Y-132407664D03*
D19*
X263549655Y-135624001D03*
X274550986Y-130350416D03*
D15*
X269907926Y-138420855D03*
D16*
X265458333Y-141653674D03*
X274357519Y-135188036D03*
D17*
X268889935Y-145526219D03*
G04 #@! TD*
D13*
G04 #@! TO.C,S36*
X276432342Y-147400944D03*
X281711776Y-146160953D03*
D19*
X273542004Y-149377290D03*
X284543335Y-144103705D03*
D15*
X279900275Y-152174144D03*
D16*
X275450682Y-155406963D03*
X284349868Y-148941325D03*
D17*
X278882284Y-159279508D03*
G04 #@! TD*
D13*
G04 #@! TO.C,S35*
X286424691Y-161154233D03*
X291704125Y-159914242D03*
D19*
X283534353Y-163130579D03*
X294535684Y-157856994D03*
D15*
X289892624Y-165927433D03*
D16*
X285443031Y-169160252D03*
X294342217Y-162694614D03*
D17*
X288874633Y-173032797D03*
G04 #@! TD*
D13*
G04 #@! TO.C,S34*
X280830276Y-114880948D03*
X286197693Y-114105809D03*
D20*
X277778687Y-116597864D03*
X289197778Y-112303176D03*
D15*
X283869001Y-119938235D03*
D16*
X279154581Y-122770944D03*
X288583421Y-117105526D03*
D17*
X282235611Y-126927837D03*
G04 #@! TD*
D13*
G04 #@! TO.C,S33*
X289585923Y-129452792D03*
X294953340Y-128677653D03*
D20*
X286534334Y-131169708D03*
X297953425Y-126875020D03*
D15*
X292624648Y-134510079D03*
D16*
X287910228Y-137342788D03*
X297339068Y-131677370D03*
D17*
X290991258Y-141499681D03*
G04 #@! TD*
D13*
G04 #@! TO.C,S32*
X298341570Y-144024636D03*
X303708987Y-143249497D03*
D20*
X295289981Y-145741552D03*
X306709072Y-141446864D03*
D15*
X301380295Y-149081923D03*
D16*
X296665875Y-151914632D03*
X306094715Y-146249214D03*
D17*
X299746905Y-156071525D03*
G04 #@! TD*
D13*
G04 #@! TO.C,S31*
X302850660Y-108649714D03*
X308265210Y-108345326D03*
D21*
X299661044Y-110094134D03*
X311410989Y-106811027D03*
D15*
X305437050Y-113952599D03*
D16*
X300493683Y-116363640D03*
X310380417Y-111541558D03*
D17*
X303200691Y-120773244D03*
G04 #@! TD*
D13*
G04 #@! TO.C,S30*
X310302969Y-123929213D03*
X315717519Y-123624825D03*
D21*
X307113353Y-125373633D03*
X318863298Y-122090526D03*
D15*
X312889359Y-129232098D03*
D16*
X307945992Y-131643139D03*
X317832726Y-126821057D03*
D17*
X310653000Y-136052743D03*
G04 #@! TD*
D13*
G04 #@! TO.C,S29*
X317755279Y-139208712D03*
X323169829Y-138904324D03*
D21*
X314565663Y-140653132D03*
X326315608Y-137370025D03*
D15*
X320341669Y-144511597D03*
D16*
X315398302Y-146922638D03*
X325285036Y-142100556D03*
D17*
X318105310Y-151332242D03*
G04 #@! TD*
D13*
G04 #@! TO.C,S28*
X334002431Y-110523941D03*
X339311266Y-111631313D03*
D22*
X330547655Y-111093609D03*
X342746961Y-110963481D03*
D15*
X335128204Y-116315541D03*
D16*
X329729254Y-117364990D03*
X340527154Y-115266092D03*
D17*
X331202734Y-122324966D03*
G04 #@! TD*
D13*
G04 #@! TO.C,S27*
X337246183Y-127211603D03*
X342555018Y-128318975D03*
D22*
X333791407Y-127781271D03*
X345990713Y-127651143D03*
D15*
X338371956Y-133003203D03*
D16*
X332973006Y-134052652D03*
X343770906Y-131953754D03*
D17*
X334446486Y-139012628D03*
G04 #@! TD*
D13*
G04 #@! TO.C,S26*
X340489936Y-143899266D03*
X345798771Y-145006638D03*
D22*
X337035160Y-144468934D03*
X349234466Y-144338806D03*
D15*
X341615709Y-149690866D03*
D16*
X336216759Y-150740315D03*
X347014659Y-148641417D03*
D17*
X337690239Y-155700291D03*
G04 #@! TD*
D13*
G04 #@! TO.C,S25*
X356567188Y-112238596D03*
X361759307Y-113804449D03*
D23*
X353075909Y-112504993D03*
X365240134Y-113438600D03*
D15*
X357183906Y-118106275D03*
D16*
X351714036Y-118681182D03*
X362653776Y-117531368D03*
D17*
X352749618Y-123750705D03*
G04 #@! TD*
D13*
G04 #@! TO.C,S24*
X358344172Y-129145468D03*
X363536291Y-130711321D03*
D23*
X354852893Y-129411865D03*
X367017118Y-130345472D03*
D15*
X358960890Y-135013147D03*
D16*
X353491020Y-135588054D03*
X364430760Y-134438240D03*
D17*
X354526602Y-140657577D03*
G04 #@! TD*
D13*
G04 #@! TO.C,S23*
X360121156Y-146052340D03*
X365313275Y-147618193D03*
D23*
X356629877Y-146318737D03*
X368794102Y-147252344D03*
D15*
X360737874Y-151920019D03*
D16*
X355268004Y-152494926D03*
X366207744Y-151345112D03*
D17*
X356303586Y-157564449D03*
G04 #@! TD*
D13*
G04 #@! TO.C,S22*
X168600254Y-208005575D03*
X174022128Y-207890337D03*
D24*
X165362171Y-209337799D03*
X177219537Y-206466759D03*
D15*
X171000000Y-213395493D03*
D16*
X165975500Y-215632545D03*
X176024500Y-211158441D03*
D17*
X168526966Y-220133935D03*
G04 #@! TD*
D13*
G04 #@! TO.C,S21*
X159626506Y-192154806D03*
X161141102Y-197362108D03*
D25*
X157501599Y-189371863D03*
X163343723Y-200082119D03*
D15*
X155041345Y-195867796D03*
D16*
X151580083Y-191593493D03*
X158502607Y-200142099D03*
D17*
X147892441Y-195223066D03*
G04 #@! TD*
D13*
G04 #@! TO.C,S20*
X142055057Y-175462602D03*
X144865793Y-180100464D03*
D26*
X139282276Y-173324452D03*
X147697352Y-182157712D03*
D15*
X138587124Y-180235802D03*
D16*
X134137531Y-177002983D03*
X143036717Y-183468621D03*
D17*
X131514945Y-181463313D03*
G04 #@! TD*
D13*
G04 #@! TO.C,S19*
X195697625Y-178188515D03*
X198508361Y-182826377D03*
D26*
X192924844Y-176050365D03*
X201339920Y-184883625D03*
D15*
X192229692Y-182961715D03*
D16*
X187780099Y-179728896D03*
X196679285Y-186194534D03*
D17*
X185157513Y-184189226D03*
G04 #@! TD*
D13*
G04 #@! TO.C,S18*
X196123843Y-146978447D03*
X198934579Y-151616309D03*
D26*
X193351062Y-144840297D03*
X201766138Y-153673557D03*
D15*
X192655910Y-151751647D03*
D16*
X188206317Y-148518828D03*
X197105503Y-154984466D03*
D17*
X185583731Y-152979158D03*
G04 #@! TD*
D13*
G04 #@! TO.C,S17*
X186131493Y-160731736D03*
X188942229Y-165369598D03*
D26*
X183358712Y-158593586D03*
X191773788Y-167426846D03*
D15*
X182663560Y-165504936D03*
D16*
X178213967Y-162272117D03*
X187113153Y-168737755D03*
D17*
X175591381Y-166732447D03*
G04 #@! TD*
D13*
G04 #@! TO.C,S16*
X176139144Y-174485025D03*
X178949880Y-179122887D03*
D26*
X173366363Y-172346875D03*
X181781439Y-181180135D03*
D15*
X172671211Y-179258225D03*
D16*
X168221618Y-176025406D03*
X177120804Y-182491044D03*
D17*
X165599032Y-180485736D03*
G04 #@! TD*
D13*
G04 #@! TO.C,S15*
X183560006Y-133647655D03*
X186370742Y-138285517D03*
D26*
X180787225Y-131509505D03*
X189202301Y-140342765D03*
D15*
X180092073Y-138420855D03*
D16*
X175642480Y-135188036D03*
X184541666Y-141653674D03*
D17*
X173019894Y-139648366D03*
G04 #@! TD*
D13*
G04 #@! TO.C,S14*
X173567657Y-147400944D03*
X176378393Y-152038806D03*
D26*
X170794876Y-145262794D03*
X179209952Y-154096054D03*
D15*
X170099724Y-152174144D03*
D16*
X165650131Y-148941325D03*
X174549317Y-155406963D03*
D17*
X163027545Y-153401655D03*
G04 #@! TD*
D13*
G04 #@! TO.C,S13*
X163575308Y-161154233D03*
X166386044Y-165792095D03*
D26*
X160802527Y-159016083D03*
X169217603Y-167849343D03*
D15*
X160107375Y-165927433D03*
D16*
X155657782Y-162694614D03*
X164556968Y-169160252D03*
D17*
X153035196Y-167154944D03*
G04 #@! TD*
D13*
G04 #@! TO.C,S12*
X169169723Y-114880948D03*
X172373979Y-119256190D03*
D27*
X166221141Y-112992598D03*
X175374065Y-121058823D03*
D15*
X166130998Y-119938235D03*
D16*
X161416578Y-117105526D03*
X170845418Y-122770944D03*
D17*
X159192715Y-121777456D03*
G04 #@! TD*
D13*
G04 #@! TO.C,S11*
X160414076Y-129452792D03*
X163618332Y-133828034D03*
D27*
X157465494Y-127564442D03*
X166618418Y-135630667D03*
D15*
X157375351Y-134510079D03*
D16*
X152660931Y-131677370D03*
X162089771Y-137342788D03*
D17*
X150437068Y-136349300D03*
G04 #@! TD*
D13*
G04 #@! TO.C,S10*
X151658429Y-144024636D03*
X154862685Y-148399878D03*
D27*
X148709847Y-142136286D03*
X157862771Y-150202511D03*
D15*
X148619704Y-149081923D03*
D16*
X143905284Y-146249214D03*
X153334124Y-151914632D03*
D17*
X141681421Y-150921144D03*
G04 #@! TD*
D13*
G04 #@! TO.C,S9*
X147149340Y-108649714D03*
X150722731Y-112729037D03*
D28*
X144047398Y-107025536D03*
X153868510Y-114263336D03*
D15*
X144562950Y-113952599D03*
D16*
X139619583Y-111541558D03*
X149506317Y-116363640D03*
D17*
X137811368Y-116389533D03*
G04 #@! TD*
D13*
G04 #@! TO.C,S8*
X139697030Y-123929213D03*
X143270421Y-128008536D03*
D28*
X136595088Y-122305035D03*
X146416200Y-129542835D03*
D15*
X137110640Y-129232098D03*
D16*
X132167273Y-126821057D03*
X142054007Y-131643139D03*
D17*
X130359058Y-131669032D03*
G04 #@! TD*
D13*
G04 #@! TO.C,S7*
X132244721Y-139208712D03*
X135818112Y-143288035D03*
D28*
X129142779Y-137584534D03*
X138963891Y-144822334D03*
D15*
X129658331Y-144511597D03*
D16*
X124714964Y-142100556D03*
X134601698Y-146922638D03*
D17*
X122906749Y-146948531D03*
G04 #@! TD*
D13*
G04 #@! TO.C,S6*
X115997569Y-110523941D03*
X120505006Y-113539403D03*
D29*
X112580955Y-109757946D03*
X123940701Y-114207234D03*
D15*
X114871796Y-116315541D03*
D16*
X109472846Y-115266092D03*
X120270746Y-117364990D03*
D17*
X108980994Y-120416876D03*
G04 #@! TD*
D13*
G04 #@! TO.C,S5*
X112753816Y-127211603D03*
X117261253Y-130227065D03*
D29*
X109337202Y-126445608D03*
X120696948Y-130894896D03*
D15*
X111628043Y-133003203D03*
D16*
X106229093Y-131953754D03*
X117026993Y-134052652D03*
D17*
X105737241Y-137104538D03*
G04 #@! TD*
D13*
G04 #@! TO.C,S4*
X109510063Y-143899266D03*
X114017500Y-146914728D03*
D29*
X106093449Y-143133271D03*
X117453195Y-147582559D03*
D15*
X108384290Y-149690866D03*
D16*
X102985340Y-148641417D03*
X113783240Y-150740315D03*
D17*
X102493488Y-153792201D03*
G04 #@! TD*
D13*
G04 #@! TO.C,S3*
X93432811Y-112238596D03*
X98185911Y-114849734D03*
D30*
X89962437Y-111773294D03*
X101666737Y-115215584D03*
D15*
X92816093Y-118106275D03*
D16*
X87346223Y-117531368D03*
X98285963Y-118681182D03*
D17*
X87305162Y-122705420D03*
G04 #@! TD*
D13*
G04 #@! TO.C,S2*
X91655827Y-129145468D03*
X96408927Y-131756606D03*
D30*
X88185453Y-128680166D03*
X99889753Y-132122456D03*
D15*
X91039109Y-135013147D03*
D16*
X85569239Y-134438240D03*
X96508979Y-135588054D03*
D17*
X85528178Y-139612292D03*
G04 #@! TD*
D13*
G04 #@! TO.C,S1*
X89878843Y-146052340D03*
X94631943Y-148663478D03*
D30*
X86408469Y-145587038D03*
X98112769Y-149029328D03*
D15*
X89262125Y-151920019D03*
D16*
X83792255Y-151345112D03*
X94731995Y-152494926D03*
D17*
X83751194Y-156519164D03*
G04 #@! TD*
D31*
G04 #@! TO.C,D22*
X181671115Y-216507350D03*
X180328885Y-213492650D03*
G04 #@! TD*
D32*
G04 #@! TO.C,D21*
X155217709Y-207038379D03*
X157782291Y-204961621D03*
G04 #@! TD*
D33*
G04 #@! TO.C,D20*
X141530154Y-190834878D03*
X143469846Y-188165122D03*
G04 #@! TD*
G04 #@! TO.C,D19*
X195030154Y-193334878D03*
X196969846Y-190665122D03*
G04 #@! TD*
G04 #@! TO.C,D18*
X195530154Y-162334878D03*
X197469846Y-159665122D03*
G04 #@! TD*
G04 #@! TO.C,D17*
X185530154Y-176334878D03*
X187469846Y-173665122D03*
G04 #@! TD*
G04 #@! TO.C,D16*
X175530154Y-189834878D03*
X177469846Y-187165122D03*
G04 #@! TD*
G04 #@! TO.C,D15*
X183030154Y-149334878D03*
X184969846Y-146665122D03*
G04 #@! TD*
G04 #@! TO.C,D14*
X173030154Y-162834878D03*
X174969846Y-160165122D03*
G04 #@! TD*
G04 #@! TO.C,D13*
X163030154Y-176334878D03*
X164969846Y-173665122D03*
G04 #@! TD*
D34*
G04 #@! TO.C,D12*
X170150187Y-130414326D03*
X171849813Y-127585674D03*
G04 #@! TD*
G04 #@! TO.C,D11*
X161150187Y-144914326D03*
X162849813Y-142085674D03*
G04 #@! TD*
G04 #@! TO.C,D10*
X152650187Y-159414326D03*
X154349813Y-156585674D03*
G04 #@! TD*
D35*
G04 #@! TO.C,D9*
X149276688Y-123983010D03*
X150723312Y-121016990D03*
G04 #@! TD*
G04 #@! TO.C,D8*
X141776688Y-139483010D03*
X143223312Y-136516990D03*
G04 #@! TD*
G04 #@! TO.C,D7*
X134776688Y-154483010D03*
X136223312Y-151516990D03*
G04 #@! TD*
D36*
G04 #@! TO.C,D6*
X122185165Y-124619685D03*
X122814835Y-121380315D03*
G04 #@! TD*
G04 #@! TO.C,D5*
X119185165Y-141619685D03*
X119814835Y-138380315D03*
G04 #@! TD*
G04 #@! TO.C,D4*
X115685165Y-158119685D03*
X116314835Y-154880315D03*
G04 #@! TD*
D37*
G04 #@! TO.C,D3*
X100827528Y-125640961D03*
X101172472Y-122359039D03*
G04 #@! TD*
G04 #@! TO.C,D2*
X98827528Y-142640961D03*
X99172472Y-139359039D03*
G04 #@! TD*
G04 #@! TO.C,D1*
X97327528Y-159640961D03*
X97672472Y-156359039D03*
G04 #@! TD*
%LPD*%
M02*
