G04 #@! TF.GenerationSoftware,KiCad,Pcbnew,8.0.3*
G04 #@! TF.CreationDate,2024-06-16T15:20:09+01:00*
G04 #@! TF.ProjectId,ykb,796b622e-6b69-4636-9164-5f7063625858,v1.0.0*
G04 #@! TF.SameCoordinates,Original*
G04 #@! TF.FileFunction,OtherDrawing,Comment*
%FSLAX46Y46*%
G04 Gerber Fmt 4.6, Leading zero omitted, Abs format (unit mm)*
G04 Created by KiCad (PCBNEW 8.0.3) date 2024-06-16 15:20:09*
%MOMM*%
%LPD*%
G01*
G04 APERTURE LIST*
%ADD10C,0.100000*%
G04 APERTURE END LIST*
D10*
G04 #@! TO.C,S44*
X274235352Y-201969727D02*
X267320829Y-217500000D01*
X267320829Y-217500000D02*
X283764648Y-224821259D01*
X283764648Y-224821259D02*
X290679171Y-209290986D01*
X290679171Y-209290986D02*
X274235352Y-201969727D01*
G04 #@! TO.C,S43*
X282689030Y-197512886D02*
X295900511Y-208211333D01*
X295900511Y-208211333D02*
X307228278Y-194222706D01*
X307228278Y-194222706D02*
X294016797Y-183524259D01*
X294016797Y-183524259D02*
X282689030Y-197512886D01*
G04 #@! TO.C,S42*
X299135547Y-178649225D02*
X309127897Y-192402514D01*
X309127897Y-192402514D02*
X323690203Y-181822379D01*
X323690203Y-181822379D02*
X313697853Y-168069090D01*
X313697853Y-168069090D02*
X299135547Y-178649225D01*
G04 #@! TO.C,S41*
X245492980Y-181375138D02*
X255485330Y-195128427D01*
X255485330Y-195128427D02*
X270047636Y-184548292D01*
X270047636Y-184548292D02*
X260055286Y-170795003D01*
X260055286Y-170795003D02*
X245492980Y-181375138D01*
G04 #@! TO.C,S40*
X245066762Y-150165070D02*
X255059112Y-163918359D01*
X255059112Y-163918359D02*
X269621418Y-153338224D01*
X269621418Y-153338224D02*
X259629068Y-139584935D01*
X259629068Y-139584935D02*
X245066762Y-150165070D01*
G04 #@! TO.C,S39*
X255059111Y-163918359D02*
X265051461Y-177671648D01*
X265051461Y-177671648D02*
X279613767Y-167091513D01*
X279613767Y-167091513D02*
X269621417Y-153338224D01*
X269621417Y-153338224D02*
X255059111Y-163918359D01*
G04 #@! TO.C,S38*
X265051460Y-177671648D02*
X275043810Y-191424937D01*
X275043810Y-191424937D02*
X289606116Y-180844802D01*
X289606116Y-180844802D02*
X279613766Y-167091513D01*
X279613766Y-167091513D02*
X265051460Y-177671648D01*
G04 #@! TO.C,S37*
X257630598Y-136834278D02*
X267622948Y-150587567D01*
X267622948Y-150587567D02*
X282185254Y-140007432D01*
X282185254Y-140007432D02*
X272192904Y-126254143D01*
X272192904Y-126254143D02*
X257630598Y-136834278D01*
G04 #@! TO.C,S36*
X267622947Y-150587567D02*
X277615297Y-164340856D01*
X277615297Y-164340856D02*
X292177603Y-153760721D01*
X292177603Y-153760721D02*
X282185253Y-140007432D01*
X282185253Y-140007432D02*
X267622947Y-150587567D01*
G04 #@! TO.C,S35*
X277615296Y-164340856D02*
X287607646Y-178094145D01*
X287607646Y-178094145D02*
X302169952Y-167514010D01*
X302169952Y-167514010D02*
X292177602Y-153760721D01*
X292177602Y-153760721D02*
X277615296Y-164340856D01*
G04 #@! TO.C,S34*
X271776672Y-117287656D02*
X280532319Y-131859500D01*
X280532319Y-131859500D02*
X295961330Y-122588814D01*
X295961330Y-122588814D02*
X287205683Y-108016970D01*
X287205683Y-108016970D02*
X271776672Y-117287656D01*
G04 #@! TO.C,S33*
X280532319Y-131859500D02*
X289287966Y-146431344D01*
X289287966Y-146431344D02*
X304716977Y-137160658D01*
X304716977Y-137160658D02*
X295961330Y-122588814D01*
X295961330Y-122588814D02*
X280532319Y-131859500D01*
G04 #@! TO.C,S32*
X289287966Y-146431344D02*
X298043613Y-161003188D01*
X298043613Y-161003188D02*
X313472624Y-151732502D01*
X313472624Y-151732502D02*
X304716977Y-137160658D01*
X304716977Y-137160658D02*
X289287966Y-146431344D01*
G04 #@! TO.C,S31*
X293621749Y-110258190D02*
X301074058Y-125537689D01*
X301074058Y-125537689D02*
X317252351Y-117647008D01*
X317252351Y-117647008D02*
X309800042Y-102367509D01*
X309800042Y-102367509D02*
X293621749Y-110258190D01*
G04 #@! TO.C,S30*
X301074058Y-125537689D02*
X308526367Y-140817188D01*
X308526367Y-140817188D02*
X324704660Y-132926507D01*
X324704660Y-132926507D02*
X317252351Y-117647008D01*
X317252351Y-117647008D02*
X301074058Y-125537689D01*
G04 #@! TO.C,S29*
X308526368Y-140817188D02*
X315978677Y-156096687D01*
X315978677Y-156096687D02*
X332156970Y-148206006D01*
X332156970Y-148206006D02*
X324704661Y-132926507D01*
X324704661Y-132926507D02*
X308526368Y-140817188D01*
G04 #@! TO.C,S28*
X324671683Y-109688991D02*
X327915436Y-126376653D01*
X327915436Y-126376653D02*
X345584725Y-122942091D01*
X345584725Y-122942091D02*
X342340972Y-106254429D01*
X342340972Y-106254429D02*
X324671683Y-109688991D01*
G04 #@! TO.C,S27*
X327915435Y-126376653D02*
X331159188Y-143064315D01*
X331159188Y-143064315D02*
X348828477Y-139629753D01*
X348828477Y-139629753D02*
X345584724Y-122942091D01*
X345584724Y-122942091D02*
X327915435Y-126376653D01*
G04 #@! TO.C,S26*
X331159188Y-143064316D02*
X334402941Y-159751978D01*
X334402941Y-159751978D02*
X352072230Y-156317416D01*
X352072230Y-156317416D02*
X348828477Y-139629754D01*
X348828477Y-139629754D02*
X331159188Y-143064316D01*
G04 #@! TO.C,S25*
X347344717Y-110593595D02*
X349121701Y-127500467D01*
X349121701Y-127500467D02*
X367023095Y-125618955D01*
X367023095Y-125618955D02*
X365246111Y-108712083D01*
X365246111Y-108712083D02*
X347344717Y-110593595D01*
G04 #@! TO.C,S24*
X349121701Y-127500467D02*
X350898685Y-144407339D01*
X350898685Y-144407339D02*
X368800079Y-142525827D01*
X368800079Y-142525827D02*
X367023095Y-125618955D01*
X367023095Y-125618955D02*
X349121701Y-127500467D01*
G04 #@! TO.C,S23*
X350898685Y-144407339D02*
X352675669Y-161314211D01*
X352675669Y-161314211D02*
X370577063Y-159432699D01*
X370577063Y-159432699D02*
X368800079Y-142525827D01*
X368800079Y-142525827D02*
X350898685Y-144407339D01*
G04 #@! TO.C,S22*
X159320829Y-209290986D02*
X166235352Y-224821259D01*
X166235352Y-224821259D02*
X182679171Y-217500000D01*
X182679171Y-217500000D02*
X175764648Y-201969727D01*
X175764648Y-201969727D02*
X159320829Y-209290986D01*
G04 #@! TO.C,S21*
X155983202Y-183524259D02*
X142771721Y-194222706D01*
X142771721Y-194222706D02*
X154099488Y-208211333D01*
X154099488Y-208211333D02*
X167310969Y-197512886D01*
X167310969Y-197512886D02*
X155983202Y-183524259D01*
G04 #@! TO.C,S20*
X136302146Y-168069090D02*
X126309796Y-181822379D01*
X126309796Y-181822379D02*
X140872102Y-192402514D01*
X140872102Y-192402514D02*
X150864452Y-178649225D01*
X150864452Y-178649225D02*
X136302146Y-168069090D01*
G04 #@! TO.C,S19*
X189944714Y-170795003D02*
X179952364Y-184548292D01*
X179952364Y-184548292D02*
X194514670Y-195128427D01*
X194514670Y-195128427D02*
X204507020Y-181375138D01*
X204507020Y-181375138D02*
X189944714Y-170795003D01*
G04 #@! TO.C,S18*
X190370932Y-139584935D02*
X180378582Y-153338224D01*
X180378582Y-153338224D02*
X194940888Y-163918359D01*
X194940888Y-163918359D02*
X204933238Y-150165070D01*
X204933238Y-150165070D02*
X190370932Y-139584935D01*
G04 #@! TO.C,S17*
X180378582Y-153338224D02*
X170386232Y-167091513D01*
X170386232Y-167091513D02*
X184948538Y-177671648D01*
X184948538Y-177671648D02*
X194940888Y-163918359D01*
X194940888Y-163918359D02*
X180378582Y-153338224D01*
G04 #@! TO.C,S16*
X170386233Y-167091513D02*
X160393883Y-180844802D01*
X160393883Y-180844802D02*
X174956189Y-191424937D01*
X174956189Y-191424937D02*
X184948539Y-177671648D01*
X184948539Y-177671648D02*
X170386233Y-167091513D01*
G04 #@! TO.C,S15*
X177807095Y-126254143D02*
X167814745Y-140007432D01*
X167814745Y-140007432D02*
X182377051Y-150587567D01*
X182377051Y-150587567D02*
X192369401Y-136834278D01*
X192369401Y-136834278D02*
X177807095Y-126254143D01*
G04 #@! TO.C,S14*
X167814746Y-140007432D02*
X157822396Y-153760721D01*
X157822396Y-153760721D02*
X172384702Y-164340856D01*
X172384702Y-164340856D02*
X182377052Y-150587567D01*
X182377052Y-150587567D02*
X167814746Y-140007432D01*
G04 #@! TO.C,S13*
X157822397Y-153760721D02*
X147830047Y-167514010D01*
X147830047Y-167514010D02*
X162392353Y-178094145D01*
X162392353Y-178094145D02*
X172384703Y-164340856D01*
X172384703Y-164340856D02*
X157822397Y-153760721D01*
G04 #@! TO.C,S12*
X162794316Y-108016970D02*
X154038669Y-122588814D01*
X154038669Y-122588814D02*
X169467680Y-131859500D01*
X169467680Y-131859500D02*
X178223327Y-117287656D01*
X178223327Y-117287656D02*
X162794316Y-108016970D01*
G04 #@! TO.C,S11*
X154038669Y-122588814D02*
X145283022Y-137160658D01*
X145283022Y-137160658D02*
X160712033Y-146431344D01*
X160712033Y-146431344D02*
X169467680Y-131859500D01*
X169467680Y-131859500D02*
X154038669Y-122588814D01*
G04 #@! TO.C,S10*
X145283022Y-137160658D02*
X136527375Y-151732502D01*
X136527375Y-151732502D02*
X151956386Y-161003188D01*
X151956386Y-161003188D02*
X160712033Y-146431344D01*
X160712033Y-146431344D02*
X145283022Y-137160658D01*
G04 #@! TO.C,S9*
X140199958Y-102367509D02*
X132747649Y-117647008D01*
X132747649Y-117647008D02*
X148925942Y-125537689D01*
X148925942Y-125537689D02*
X156378251Y-110258190D01*
X156378251Y-110258190D02*
X140199958Y-102367509D01*
G04 #@! TO.C,S8*
X132747648Y-117647008D02*
X125295339Y-132926507D01*
X125295339Y-132926507D02*
X141473632Y-140817188D01*
X141473632Y-140817188D02*
X148925941Y-125537689D01*
X148925941Y-125537689D02*
X132747648Y-117647008D01*
G04 #@! TO.C,S7*
X125295339Y-132926507D02*
X117843030Y-148206006D01*
X117843030Y-148206006D02*
X134021323Y-156096687D01*
X134021323Y-156096687D02*
X141473632Y-140817188D01*
X141473632Y-140817188D02*
X125295339Y-132926507D01*
G04 #@! TO.C,S6*
X107659028Y-106254429D02*
X104415275Y-122942091D01*
X104415275Y-122942091D02*
X122084564Y-126376653D01*
X122084564Y-126376653D02*
X125328317Y-109688991D01*
X125328317Y-109688991D02*
X107659028Y-106254429D01*
G04 #@! TO.C,S5*
X104415275Y-122942091D02*
X101171522Y-139629753D01*
X101171522Y-139629753D02*
X118840811Y-143064315D01*
X118840811Y-143064315D02*
X122084564Y-126376653D01*
X122084564Y-126376653D02*
X104415275Y-122942091D01*
G04 #@! TO.C,S4*
X101171522Y-139629754D02*
X97927769Y-156317416D01*
X97927769Y-156317416D02*
X115597058Y-159751978D01*
X115597058Y-159751978D02*
X118840811Y-143064316D01*
X118840811Y-143064316D02*
X101171522Y-139629754D01*
G04 #@! TO.C,S3*
X84753888Y-108712083D02*
X82976904Y-125618955D01*
X82976904Y-125618955D02*
X100878298Y-127500467D01*
X100878298Y-127500467D02*
X102655282Y-110593595D01*
X102655282Y-110593595D02*
X84753888Y-108712083D01*
G04 #@! TO.C,S2*
X82976904Y-125618955D02*
X81199920Y-142525827D01*
X81199920Y-142525827D02*
X99101314Y-144407339D01*
X99101314Y-144407339D02*
X100878298Y-127500467D01*
X100878298Y-127500467D02*
X82976904Y-125618955D01*
G04 #@! TO.C,S1*
X81199920Y-142525827D02*
X79422936Y-159432699D01*
X79422936Y-159432699D02*
X97324330Y-161314211D01*
X97324330Y-161314211D02*
X99101314Y-144407339D01*
X99101314Y-144407339D02*
X81199920Y-142525827D01*
G04 #@! TD*
M02*
