G04 #@! TF.GenerationSoftware,KiCad,Pcbnew,8.0.3*
G04 #@! TF.CreationDate,2024-06-16T15:20:09+01:00*
G04 #@! TF.ProjectId,ykb,796b622e-6b69-4636-9164-5f7063625858,v1.0.0*
G04 #@! TF.SameCoordinates,Original*
G04 #@! TF.FileFunction,AssemblyDrawing,Bot*
%FSLAX46Y46*%
G04 Gerber Fmt 4.6, Leading zero omitted, Abs format (unit mm)*
G04 Created by KiCad (PCBNEW 8.0.3) date 2024-06-16 15:20:09*
%MOMM*%
%LPD*%
G01*
G04 APERTURE LIST*
%ADD10C,0.150000*%
%ADD11C,0.100000*%
G04 APERTURE END LIST*
D10*
X179411740Y-217713971D02*
X180325286Y-217307234D01*
X180325286Y-217307234D02*
X180228444Y-217089723D01*
X180228444Y-217089723D02*
X180126836Y-216978585D01*
X180126836Y-216978585D02*
X180001095Y-216930318D01*
X180001095Y-216930318D02*
X179894722Y-216925552D01*
X179894722Y-216925552D02*
X179701345Y-216959524D01*
X179701345Y-216959524D02*
X179570839Y-217017629D01*
X179570839Y-217017629D02*
X179416199Y-217138605D01*
X179416199Y-217138605D02*
X179348563Y-217220844D01*
X179348563Y-217220844D02*
X179300295Y-217346585D01*
X179300295Y-217346585D02*
X179314898Y-217496460D01*
X179314898Y-217496460D02*
X179411740Y-217713971D01*
X179005004Y-216800425D02*
X179614034Y-216529268D01*
X179918549Y-216393689D02*
X179894415Y-216456559D01*
X179894415Y-216456559D02*
X179831545Y-216432426D01*
X179831545Y-216432426D02*
X179855678Y-216369555D01*
X179855678Y-216369555D02*
X179918549Y-216393689D01*
X179918549Y-216393689D02*
X179831545Y-216432426D01*
X178753214Y-216234898D02*
X178835453Y-216302534D01*
X178835453Y-216302534D02*
X178898324Y-216326667D01*
X178898324Y-216326667D02*
X179004697Y-216331433D01*
X179004697Y-216331433D02*
X179265710Y-216215222D01*
X179265710Y-216215222D02*
X179333346Y-216132983D01*
X179333346Y-216132983D02*
X179357479Y-216070113D01*
X179357479Y-216070113D02*
X179362245Y-215963740D01*
X179362245Y-215963740D02*
X179304140Y-215833233D01*
X179304140Y-215833233D02*
X179221901Y-215765598D01*
X179221901Y-215765598D02*
X179159030Y-215741464D01*
X179159030Y-215741464D02*
X179052657Y-215736698D01*
X179052657Y-215736698D02*
X178791644Y-215852909D01*
X178791644Y-215852909D02*
X178724008Y-215935148D01*
X178724008Y-215935148D02*
X178699875Y-215998018D01*
X178699875Y-215998018D02*
X178695109Y-216104391D01*
X178695109Y-216104391D02*
X178753214Y-216234898D01*
X178269004Y-215147344D02*
X179182550Y-214740607D01*
X178312506Y-215127975D02*
X178307741Y-215234348D01*
X178307741Y-215234348D02*
X178385215Y-215408357D01*
X178385215Y-215408357D02*
X178467454Y-215475992D01*
X178467454Y-215475992D02*
X178530324Y-215500126D01*
X178530324Y-215500126D02*
X178636697Y-215504892D01*
X178636697Y-215504892D02*
X178897710Y-215388681D01*
X178897710Y-215388681D02*
X178965346Y-215306442D01*
X178965346Y-215306442D02*
X178989480Y-215243571D01*
X178989480Y-215243571D02*
X178994245Y-215137199D01*
X178994245Y-215137199D02*
X178916771Y-214963190D01*
X178916771Y-214963190D02*
X178834532Y-214895554D01*
X177963875Y-214344936D02*
X177959109Y-214451309D01*
X177959109Y-214451309D02*
X178036583Y-214625317D01*
X178036583Y-214625317D02*
X178118822Y-214692953D01*
X178118822Y-214692953D02*
X178225195Y-214697719D01*
X178225195Y-214697719D02*
X178573212Y-214542771D01*
X178573212Y-214542771D02*
X178640848Y-214460532D01*
X178640848Y-214460532D02*
X178645613Y-214354160D01*
X178645613Y-214354160D02*
X178568140Y-214180151D01*
X178568140Y-214180151D02*
X178485901Y-214112515D01*
X178485901Y-214112515D02*
X178379528Y-214107750D01*
X178379528Y-214107750D02*
X178292524Y-214146487D01*
X178292524Y-214146487D02*
X178399204Y-214620245D01*
X182905487Y-215480822D02*
X183819033Y-215074086D01*
X183819033Y-215074086D02*
X183722191Y-214856575D01*
X183722191Y-214856575D02*
X183620583Y-214745437D01*
X183620583Y-214745437D02*
X183494842Y-214697169D01*
X183494842Y-214697169D02*
X183388469Y-214692404D01*
X183388469Y-214692404D02*
X183195092Y-214726375D01*
X183195092Y-214726375D02*
X183064586Y-214784481D01*
X183064586Y-214784481D02*
X182909945Y-214905456D01*
X182909945Y-214905456D02*
X182842310Y-214987695D01*
X182842310Y-214987695D02*
X182794042Y-215113437D01*
X182794042Y-215113437D02*
X182808645Y-215263311D01*
X182808645Y-215263311D02*
X182905487Y-215480822D01*
X183344660Y-214242779D02*
X183368794Y-214179909D01*
X183368794Y-214179909D02*
X183373559Y-214073536D01*
X183373559Y-214073536D02*
X183276717Y-213856025D01*
X183276717Y-213856025D02*
X183194478Y-213788389D01*
X183194478Y-213788389D02*
X183131608Y-213764255D01*
X183131608Y-213764255D02*
X183025235Y-213759490D01*
X183025235Y-213759490D02*
X182938230Y-213798227D01*
X182938230Y-213798227D02*
X182827092Y-213899834D01*
X182827092Y-213899834D02*
X182537487Y-214654281D01*
X182537487Y-214654281D02*
X182285698Y-214088753D01*
X182957292Y-213372736D02*
X182981426Y-213309865D01*
X182981426Y-213309865D02*
X182986191Y-213203493D01*
X182986191Y-213203493D02*
X182889349Y-212985982D01*
X182889349Y-212985982D02*
X182807110Y-212918346D01*
X182807110Y-212918346D02*
X182744239Y-212894212D01*
X182744239Y-212894212D02*
X182637867Y-212889447D01*
X182637867Y-212889447D02*
X182550862Y-212928184D01*
X182550862Y-212928184D02*
X182439724Y-213029791D01*
X182439724Y-213029791D02*
X182150119Y-213784238D01*
X182150119Y-213784238D02*
X181898330Y-213218710D01*
X156889421Y-203567700D02*
X156260100Y-202790554D01*
X156260100Y-202790554D02*
X156075065Y-202940392D01*
X156075065Y-202940392D02*
X155994012Y-203067302D01*
X155994012Y-203067302D02*
X155979934Y-203201251D01*
X155979934Y-203201251D02*
X156002862Y-203305232D01*
X156002862Y-203305232D02*
X156085725Y-203483228D01*
X156085725Y-203483228D02*
X156175628Y-203594249D01*
X156175628Y-203594249D02*
X156332506Y-203712309D01*
X156332506Y-203712309D02*
X156429448Y-203756355D01*
X156429448Y-203756355D02*
X156563397Y-203770434D01*
X156563397Y-203770434D02*
X156704386Y-203717538D01*
X156704386Y-203717538D02*
X156889421Y-203567700D01*
X156112275Y-204197020D02*
X155692728Y-203678923D01*
X155482954Y-203419874D02*
X155549929Y-203426913D01*
X155549929Y-203426913D02*
X155542889Y-203493888D01*
X155542889Y-203493888D02*
X155475915Y-203486849D01*
X155475915Y-203486849D02*
X155482954Y-203419874D01*
X155482954Y-203419874D02*
X155542889Y-203493888D01*
X155631185Y-204586599D02*
X155675231Y-204489657D01*
X155675231Y-204489657D02*
X155682270Y-204422682D01*
X155682270Y-204422682D02*
X155659342Y-204318701D01*
X155659342Y-204318701D02*
X155479536Y-204096659D01*
X155479536Y-204096659D02*
X155382594Y-204052613D01*
X155382594Y-204052613D02*
X155315619Y-204045573D01*
X155315619Y-204045573D02*
X155211638Y-204068502D01*
X155211638Y-204068502D02*
X155100617Y-204158405D01*
X155100617Y-204158405D02*
X155056571Y-204255347D01*
X155056571Y-204255347D02*
X155049531Y-204322321D01*
X155049531Y-204322321D02*
X155072460Y-204426303D01*
X155072460Y-204426303D02*
X155252265Y-204648345D01*
X155252265Y-204648345D02*
X155349208Y-204692391D01*
X155349208Y-204692391D02*
X155416182Y-204699430D01*
X155416182Y-204699430D02*
X155520164Y-204676502D01*
X155520164Y-204676502D02*
X155631185Y-204586599D01*
X154706011Y-205335790D02*
X154076690Y-204558644D01*
X154676043Y-205298783D02*
X154780025Y-205275855D01*
X154780025Y-205275855D02*
X154928052Y-205155984D01*
X154928052Y-205155984D02*
X154972099Y-205059042D01*
X154972099Y-205059042D02*
X154979138Y-204992067D01*
X154979138Y-204992067D02*
X154956210Y-204888086D01*
X154956210Y-204888086D02*
X154776404Y-204666044D01*
X154776404Y-204666044D02*
X154679462Y-204621998D01*
X154679462Y-204621998D02*
X154612487Y-204614959D01*
X154612487Y-204614959D02*
X154508506Y-204637887D01*
X154508506Y-204637887D02*
X154360478Y-204757757D01*
X154360478Y-204757757D02*
X154316431Y-204854700D01*
X154009918Y-205838201D02*
X154113899Y-205815272D01*
X154113899Y-205815272D02*
X154261927Y-205695402D01*
X154261927Y-205695402D02*
X154305974Y-205598459D01*
X154305974Y-205598459D02*
X154283045Y-205494478D01*
X154283045Y-205494478D02*
X154043304Y-205198422D01*
X154043304Y-205198422D02*
X153946362Y-205154376D01*
X153946362Y-205154376D02*
X153842380Y-205177304D01*
X153842380Y-205177304D02*
X153694353Y-205297175D01*
X153694353Y-205297175D02*
X153650306Y-205394117D01*
X153650306Y-205394117D02*
X153673235Y-205498099D01*
X153673235Y-205498099D02*
X153733170Y-205572113D01*
X153733170Y-205572113D02*
X154163175Y-205346450D01*
X158988545Y-207143577D02*
X158359224Y-206366432D01*
X158359224Y-206366432D02*
X158174190Y-206516270D01*
X158174190Y-206516270D02*
X158093136Y-206643180D01*
X158093136Y-206643180D02*
X158079058Y-206777129D01*
X158079058Y-206777129D02*
X158101986Y-206881110D01*
X158101986Y-206881110D02*
X158184850Y-207059106D01*
X158184850Y-207059106D02*
X158274753Y-207170127D01*
X158274753Y-207170127D02*
X158431630Y-207288187D01*
X158431630Y-207288187D02*
X158528572Y-207332233D01*
X158528572Y-207332233D02*
X158662521Y-207346312D01*
X158662521Y-207346312D02*
X158803510Y-207293416D01*
X158803510Y-207293416D02*
X158988545Y-207143577D01*
X157679021Y-207039798D02*
X157612046Y-207032759D01*
X157612046Y-207032759D02*
X157508064Y-207055687D01*
X157508064Y-207055687D02*
X157323030Y-207205525D01*
X157323030Y-207205525D02*
X157278983Y-207302468D01*
X157278983Y-207302468D02*
X157271944Y-207369442D01*
X157271944Y-207369442D02*
X157294872Y-207473424D01*
X157294872Y-207473424D02*
X157354808Y-207547438D01*
X157354808Y-207547438D02*
X157481718Y-207628491D01*
X157481718Y-207628491D02*
X158285413Y-207712963D01*
X158285413Y-207712963D02*
X157804322Y-208102542D01*
X157064183Y-208701895D02*
X157508267Y-208342283D01*
X157286225Y-208522089D02*
X156656905Y-207744943D01*
X156656905Y-207744943D02*
X156820821Y-207796028D01*
X156820821Y-207796028D02*
X156954771Y-207810107D01*
X156954771Y-207810107D02*
X157058752Y-207787179D01*
X142246626Y-187049789D02*
X141437609Y-186462004D01*
X141437609Y-186462004D02*
X141297660Y-186654627D01*
X141297660Y-186654627D02*
X141252215Y-186798191D01*
X141252215Y-186798191D02*
X141273285Y-186931219D01*
X141273285Y-186931219D02*
X141322344Y-187025723D01*
X141322344Y-187025723D02*
X141448453Y-187176207D01*
X141448453Y-187176207D02*
X141564027Y-187260177D01*
X141564027Y-187260177D02*
X141746115Y-187333611D01*
X141746115Y-187333611D02*
X141851154Y-187351066D01*
X141851154Y-187351066D02*
X141984183Y-187329996D01*
X141984183Y-187329996D02*
X142106677Y-187242412D01*
X142106677Y-187242412D02*
X142246626Y-187049789D01*
X141658841Y-187858806D02*
X141119496Y-187466949D01*
X140849824Y-187271021D02*
X140916338Y-187260486D01*
X140916338Y-187260486D02*
X140926873Y-187327000D01*
X140926873Y-187327000D02*
X140860358Y-187337535D01*
X140860358Y-187337535D02*
X140849824Y-187271021D01*
X140849824Y-187271021D02*
X140926873Y-187327000D01*
X141294974Y-188359626D02*
X141312429Y-188254587D01*
X141312429Y-188254587D02*
X141301894Y-188188072D01*
X141301894Y-188188072D02*
X141252834Y-188093568D01*
X141252834Y-188093568D02*
X141021687Y-187925630D01*
X141021687Y-187925630D02*
X140916648Y-187908175D01*
X140916648Y-187908175D02*
X140850133Y-187918709D01*
X140850133Y-187918709D02*
X140755629Y-187967769D01*
X140755629Y-187967769D02*
X140671660Y-188083343D01*
X140671660Y-188083343D02*
X140654205Y-188188382D01*
X140654205Y-188188382D02*
X140664740Y-188254896D01*
X140664740Y-188254896D02*
X140713799Y-188349400D01*
X140713799Y-188349400D02*
X140944947Y-188517339D01*
X140944947Y-188517339D02*
X141049986Y-188534794D01*
X141049986Y-188534794D02*
X141116500Y-188524259D01*
X141116500Y-188524259D02*
X141211004Y-188475200D01*
X141211004Y-188475200D02*
X141294974Y-188359626D01*
X140595229Y-189322741D02*
X139786212Y-188734956D01*
X140556705Y-189294751D02*
X140651209Y-189245692D01*
X140651209Y-189245692D02*
X140763168Y-189091594D01*
X140763168Y-189091594D02*
X140780623Y-188986555D01*
X140780623Y-188986555D02*
X140770088Y-188920040D01*
X140770088Y-188920040D02*
X140721029Y-188825536D01*
X140721029Y-188825536D02*
X140489881Y-188657597D01*
X140489881Y-188657597D02*
X140384842Y-188640142D01*
X140384842Y-188640142D02*
X140318328Y-188650677D01*
X140318328Y-188650677D02*
X140223823Y-188699737D01*
X140223823Y-188699737D02*
X140111864Y-188853835D01*
X140111864Y-188853835D02*
X140094409Y-188958874D01*
X140052889Y-189988195D02*
X140147393Y-189939135D01*
X140147393Y-189939135D02*
X140259352Y-189785037D01*
X140259352Y-189785037D02*
X140276807Y-189679998D01*
X140276807Y-189679998D02*
X140227747Y-189585494D01*
X140227747Y-189585494D02*
X139919551Y-189361575D01*
X139919551Y-189361575D02*
X139814512Y-189344120D01*
X139814512Y-189344120D02*
X139720007Y-189393180D01*
X139720007Y-189393180D02*
X139608048Y-189547278D01*
X139608048Y-189547278D02*
X139590593Y-189652317D01*
X139590593Y-189652317D02*
X139639653Y-189746822D01*
X139639653Y-189746822D02*
X139716702Y-189802801D01*
X139716702Y-189802801D02*
X140073649Y-189473534D01*
X145199729Y-189960529D02*
X144390712Y-189372743D01*
X144390712Y-189372743D02*
X144250763Y-189565366D01*
X144250763Y-189565366D02*
X144205319Y-189708930D01*
X144205319Y-189708930D02*
X144226388Y-189841959D01*
X144226388Y-189841959D02*
X144275448Y-189936463D01*
X144275448Y-189936463D02*
X144401556Y-190086947D01*
X144401556Y-190086947D02*
X144517130Y-190170916D01*
X144517130Y-190170916D02*
X144699218Y-190244351D01*
X144699218Y-190244351D02*
X144804258Y-190261805D01*
X144804258Y-190261805D02*
X144937286Y-190240736D01*
X144937286Y-190240736D02*
X145059780Y-190153152D01*
X145059780Y-190153152D02*
X145199729Y-189960529D01*
X143907966Y-190199215D02*
X143841451Y-190209750D01*
X143841451Y-190209750D02*
X143746947Y-190258810D01*
X143746947Y-190258810D02*
X143606998Y-190451433D01*
X143606998Y-190451433D02*
X143589544Y-190556472D01*
X143589544Y-190556472D02*
X143600078Y-190622986D01*
X143600078Y-190622986D02*
X143649138Y-190717490D01*
X143649138Y-190717490D02*
X143726187Y-190773470D01*
X143726187Y-190773470D02*
X143869751Y-190818915D01*
X143869751Y-190818915D02*
X144667923Y-190692496D01*
X144667923Y-190692496D02*
X144304056Y-191193316D01*
X143131172Y-191106351D02*
X143075193Y-191183400D01*
X143075193Y-191183400D02*
X143057738Y-191288439D01*
X143057738Y-191288439D02*
X143068273Y-191354954D01*
X143068273Y-191354954D02*
X143117332Y-191449458D01*
X143117332Y-191449458D02*
X143243441Y-191599942D01*
X143243441Y-191599942D02*
X143436064Y-191739891D01*
X143436064Y-191739891D02*
X143618152Y-191813325D01*
X143618152Y-191813325D02*
X143723191Y-191830780D01*
X143723191Y-191830780D02*
X143789706Y-191820245D01*
X143789706Y-191820245D02*
X143884210Y-191771186D01*
X143884210Y-191771186D02*
X143940189Y-191694136D01*
X143940189Y-191694136D02*
X143957644Y-191589097D01*
X143957644Y-191589097D02*
X143947109Y-191522583D01*
X143947109Y-191522583D02*
X143898050Y-191428079D01*
X143898050Y-191428079D02*
X143771941Y-191277595D01*
X143771941Y-191277595D02*
X143579318Y-191137646D01*
X143579318Y-191137646D02*
X143397230Y-191064212D01*
X143397230Y-191064212D02*
X143292191Y-191046757D01*
X143292191Y-191046757D02*
X143225676Y-191057292D01*
X143225676Y-191057292D02*
X143131172Y-191106351D01*
X195746626Y-189549789D02*
X194937609Y-188962004D01*
X194937609Y-188962004D02*
X194797660Y-189154627D01*
X194797660Y-189154627D02*
X194752215Y-189298191D01*
X194752215Y-189298191D02*
X194773285Y-189431219D01*
X194773285Y-189431219D02*
X194822344Y-189525723D01*
X194822344Y-189525723D02*
X194948453Y-189676207D01*
X194948453Y-189676207D02*
X195064027Y-189760177D01*
X195064027Y-189760177D02*
X195246115Y-189833611D01*
X195246115Y-189833611D02*
X195351154Y-189851066D01*
X195351154Y-189851066D02*
X195484183Y-189829996D01*
X195484183Y-189829996D02*
X195606677Y-189742412D01*
X195606677Y-189742412D02*
X195746626Y-189549789D01*
X195158841Y-190358806D02*
X194619496Y-189966949D01*
X194349824Y-189771021D02*
X194416338Y-189760486D01*
X194416338Y-189760486D02*
X194426873Y-189827000D01*
X194426873Y-189827000D02*
X194360358Y-189837535D01*
X194360358Y-189837535D02*
X194349824Y-189771021D01*
X194349824Y-189771021D02*
X194426873Y-189827000D01*
X194794974Y-190859626D02*
X194812429Y-190754587D01*
X194812429Y-190754587D02*
X194801894Y-190688072D01*
X194801894Y-190688072D02*
X194752834Y-190593568D01*
X194752834Y-190593568D02*
X194521687Y-190425630D01*
X194521687Y-190425630D02*
X194416648Y-190408175D01*
X194416648Y-190408175D02*
X194350133Y-190418709D01*
X194350133Y-190418709D02*
X194255629Y-190467769D01*
X194255629Y-190467769D02*
X194171660Y-190583343D01*
X194171660Y-190583343D02*
X194154205Y-190688382D01*
X194154205Y-190688382D02*
X194164740Y-190754896D01*
X194164740Y-190754896D02*
X194213799Y-190849400D01*
X194213799Y-190849400D02*
X194444947Y-191017339D01*
X194444947Y-191017339D02*
X194549986Y-191034794D01*
X194549986Y-191034794D02*
X194616500Y-191024259D01*
X194616500Y-191024259D02*
X194711004Y-190975200D01*
X194711004Y-190975200D02*
X194794974Y-190859626D01*
X194095229Y-191822741D02*
X193286212Y-191234956D01*
X194056705Y-191794751D02*
X194151209Y-191745692D01*
X194151209Y-191745692D02*
X194263168Y-191591594D01*
X194263168Y-191591594D02*
X194280623Y-191486555D01*
X194280623Y-191486555D02*
X194270088Y-191420040D01*
X194270088Y-191420040D02*
X194221029Y-191325536D01*
X194221029Y-191325536D02*
X193989881Y-191157597D01*
X193989881Y-191157597D02*
X193884842Y-191140142D01*
X193884842Y-191140142D02*
X193818328Y-191150677D01*
X193818328Y-191150677D02*
X193723823Y-191199737D01*
X193723823Y-191199737D02*
X193611864Y-191353835D01*
X193611864Y-191353835D02*
X193594409Y-191458874D01*
X193552889Y-192488195D02*
X193647393Y-192439135D01*
X193647393Y-192439135D02*
X193759352Y-192285037D01*
X193759352Y-192285037D02*
X193776807Y-192179998D01*
X193776807Y-192179998D02*
X193727747Y-192085494D01*
X193727747Y-192085494D02*
X193419551Y-191861575D01*
X193419551Y-191861575D02*
X193314512Y-191844120D01*
X193314512Y-191844120D02*
X193220007Y-191893180D01*
X193220007Y-191893180D02*
X193108048Y-192047278D01*
X193108048Y-192047278D02*
X193090593Y-192152317D01*
X193090593Y-192152317D02*
X193139653Y-192246822D01*
X193139653Y-192246822D02*
X193216702Y-192302801D01*
X193216702Y-192302801D02*
X193573649Y-191973534D01*
X198699729Y-192460529D02*
X197890712Y-191872743D01*
X197890712Y-191872743D02*
X197750763Y-192065366D01*
X197750763Y-192065366D02*
X197705319Y-192208930D01*
X197705319Y-192208930D02*
X197726388Y-192341959D01*
X197726388Y-192341959D02*
X197775448Y-192436463D01*
X197775448Y-192436463D02*
X197901556Y-192586947D01*
X197901556Y-192586947D02*
X198017130Y-192670916D01*
X198017130Y-192670916D02*
X198199218Y-192744351D01*
X198199218Y-192744351D02*
X198304258Y-192761805D01*
X198304258Y-192761805D02*
X198437286Y-192740736D01*
X198437286Y-192740736D02*
X198559780Y-192653152D01*
X198559780Y-192653152D02*
X198699729Y-192460529D01*
X197804056Y-193693316D02*
X198139934Y-193231021D01*
X197971995Y-193462169D02*
X197162978Y-192874383D01*
X197162978Y-192874383D02*
X197334531Y-192881304D01*
X197334531Y-192881304D02*
X197467560Y-192860234D01*
X197467560Y-192860234D02*
X197562064Y-192811174D01*
X197524159Y-194078563D02*
X197412199Y-194232661D01*
X197412199Y-194232661D02*
X197317695Y-194281721D01*
X197317695Y-194281721D02*
X197251181Y-194292255D01*
X197251181Y-194292255D02*
X197079628Y-194285335D01*
X197079628Y-194285335D02*
X196897539Y-194211901D01*
X196897539Y-194211901D02*
X196589342Y-193987983D01*
X196589342Y-193987983D02*
X196540283Y-193893479D01*
X196540283Y-193893479D02*
X196529748Y-193826964D01*
X196529748Y-193826964D02*
X196547203Y-193721925D01*
X196547203Y-193721925D02*
X196659162Y-193567827D01*
X196659162Y-193567827D02*
X196753666Y-193518767D01*
X196753666Y-193518767D02*
X196820181Y-193508232D01*
X196820181Y-193508232D02*
X196925220Y-193525687D01*
X196925220Y-193525687D02*
X197117843Y-193665636D01*
X197117843Y-193665636D02*
X197166902Y-193760140D01*
X197166902Y-193760140D02*
X197177437Y-193826655D01*
X197177437Y-193826655D02*
X197159982Y-193931694D01*
X197159982Y-193931694D02*
X197048023Y-194085792D01*
X197048023Y-194085792D02*
X196953519Y-194134852D01*
X196953519Y-194134852D02*
X196887004Y-194145386D01*
X196887004Y-194145386D02*
X196781965Y-194127932D01*
X196246626Y-158549789D02*
X195437609Y-157962004D01*
X195437609Y-157962004D02*
X195297660Y-158154627D01*
X195297660Y-158154627D02*
X195252215Y-158298191D01*
X195252215Y-158298191D02*
X195273285Y-158431219D01*
X195273285Y-158431219D02*
X195322344Y-158525723D01*
X195322344Y-158525723D02*
X195448453Y-158676207D01*
X195448453Y-158676207D02*
X195564027Y-158760177D01*
X195564027Y-158760177D02*
X195746115Y-158833611D01*
X195746115Y-158833611D02*
X195851154Y-158851066D01*
X195851154Y-158851066D02*
X195984183Y-158829996D01*
X195984183Y-158829996D02*
X196106677Y-158742412D01*
X196106677Y-158742412D02*
X196246626Y-158549789D01*
X195658841Y-159358806D02*
X195119496Y-158966949D01*
X194849824Y-158771021D02*
X194916338Y-158760486D01*
X194916338Y-158760486D02*
X194926873Y-158827000D01*
X194926873Y-158827000D02*
X194860358Y-158837535D01*
X194860358Y-158837535D02*
X194849824Y-158771021D01*
X194849824Y-158771021D02*
X194926873Y-158827000D01*
X195294974Y-159859626D02*
X195312429Y-159754587D01*
X195312429Y-159754587D02*
X195301894Y-159688072D01*
X195301894Y-159688072D02*
X195252834Y-159593568D01*
X195252834Y-159593568D02*
X195021687Y-159425630D01*
X195021687Y-159425630D02*
X194916648Y-159408175D01*
X194916648Y-159408175D02*
X194850133Y-159418709D01*
X194850133Y-159418709D02*
X194755629Y-159467769D01*
X194755629Y-159467769D02*
X194671660Y-159583343D01*
X194671660Y-159583343D02*
X194654205Y-159688382D01*
X194654205Y-159688382D02*
X194664740Y-159754896D01*
X194664740Y-159754896D02*
X194713799Y-159849400D01*
X194713799Y-159849400D02*
X194944947Y-160017339D01*
X194944947Y-160017339D02*
X195049986Y-160034794D01*
X195049986Y-160034794D02*
X195116500Y-160024259D01*
X195116500Y-160024259D02*
X195211004Y-159975200D01*
X195211004Y-159975200D02*
X195294974Y-159859626D01*
X194595229Y-160822741D02*
X193786212Y-160234956D01*
X194556705Y-160794751D02*
X194651209Y-160745692D01*
X194651209Y-160745692D02*
X194763168Y-160591594D01*
X194763168Y-160591594D02*
X194780623Y-160486555D01*
X194780623Y-160486555D02*
X194770088Y-160420040D01*
X194770088Y-160420040D02*
X194721029Y-160325536D01*
X194721029Y-160325536D02*
X194489881Y-160157597D01*
X194489881Y-160157597D02*
X194384842Y-160140142D01*
X194384842Y-160140142D02*
X194318328Y-160150677D01*
X194318328Y-160150677D02*
X194223823Y-160199737D01*
X194223823Y-160199737D02*
X194111864Y-160353835D01*
X194111864Y-160353835D02*
X194094409Y-160458874D01*
X194052889Y-161488195D02*
X194147393Y-161439135D01*
X194147393Y-161439135D02*
X194259352Y-161285037D01*
X194259352Y-161285037D02*
X194276807Y-161179998D01*
X194276807Y-161179998D02*
X194227747Y-161085494D01*
X194227747Y-161085494D02*
X193919551Y-160861575D01*
X193919551Y-160861575D02*
X193814512Y-160844120D01*
X193814512Y-160844120D02*
X193720007Y-160893180D01*
X193720007Y-160893180D02*
X193608048Y-161047278D01*
X193608048Y-161047278D02*
X193590593Y-161152317D01*
X193590593Y-161152317D02*
X193639653Y-161246822D01*
X193639653Y-161246822D02*
X193716702Y-161302801D01*
X193716702Y-161302801D02*
X194073649Y-160973534D01*
X199199729Y-161460529D02*
X198390712Y-160872743D01*
X198390712Y-160872743D02*
X198250763Y-161065366D01*
X198250763Y-161065366D02*
X198205319Y-161208930D01*
X198205319Y-161208930D02*
X198226388Y-161341959D01*
X198226388Y-161341959D02*
X198275448Y-161436463D01*
X198275448Y-161436463D02*
X198401556Y-161586947D01*
X198401556Y-161586947D02*
X198517130Y-161670916D01*
X198517130Y-161670916D02*
X198699218Y-161744351D01*
X198699218Y-161744351D02*
X198804258Y-161761805D01*
X198804258Y-161761805D02*
X198937286Y-161740736D01*
X198937286Y-161740736D02*
X199059780Y-161653152D01*
X199059780Y-161653152D02*
X199199729Y-161460529D01*
X198304056Y-162693316D02*
X198639934Y-162231021D01*
X198471995Y-162462169D02*
X197662978Y-161874383D01*
X197662978Y-161874383D02*
X197834531Y-161881304D01*
X197834531Y-161881304D02*
X197967560Y-161860234D01*
X197967560Y-161860234D02*
X198062064Y-161811174D01*
X197505884Y-162819735D02*
X197523339Y-162714696D01*
X197523339Y-162714696D02*
X197512804Y-162648181D01*
X197512804Y-162648181D02*
X197463744Y-162553677D01*
X197463744Y-162553677D02*
X197425220Y-162525687D01*
X197425220Y-162525687D02*
X197320181Y-162508232D01*
X197320181Y-162508232D02*
X197253666Y-162518767D01*
X197253666Y-162518767D02*
X197159162Y-162567827D01*
X197159162Y-162567827D02*
X197047203Y-162721925D01*
X197047203Y-162721925D02*
X197029748Y-162826964D01*
X197029748Y-162826964D02*
X197040283Y-162893479D01*
X197040283Y-162893479D02*
X197089342Y-162987983D01*
X197089342Y-162987983D02*
X197127867Y-163015972D01*
X197127867Y-163015972D02*
X197232906Y-163033427D01*
X197232906Y-163033427D02*
X197299420Y-163022893D01*
X197299420Y-163022893D02*
X197393925Y-162973833D01*
X197393925Y-162973833D02*
X197505884Y-162819735D01*
X197505884Y-162819735D02*
X197600388Y-162770675D01*
X197600388Y-162770675D02*
X197666902Y-162760140D01*
X197666902Y-162760140D02*
X197771941Y-162777595D01*
X197771941Y-162777595D02*
X197926040Y-162889554D01*
X197926040Y-162889554D02*
X197975099Y-162984058D01*
X197975099Y-162984058D02*
X197985634Y-163050573D01*
X197985634Y-163050573D02*
X197968179Y-163155612D01*
X197968179Y-163155612D02*
X197856220Y-163309710D01*
X197856220Y-163309710D02*
X197761716Y-163358770D01*
X197761716Y-163358770D02*
X197695201Y-163369305D01*
X197695201Y-163369305D02*
X197590162Y-163351850D01*
X197590162Y-163351850D02*
X197436064Y-163239891D01*
X197436064Y-163239891D02*
X197387004Y-163145386D01*
X197387004Y-163145386D02*
X197376470Y-163078872D01*
X197376470Y-163078872D02*
X197393925Y-162973833D01*
X186246626Y-172549789D02*
X185437609Y-171962004D01*
X185437609Y-171962004D02*
X185297660Y-172154627D01*
X185297660Y-172154627D02*
X185252215Y-172298191D01*
X185252215Y-172298191D02*
X185273285Y-172431219D01*
X185273285Y-172431219D02*
X185322344Y-172525723D01*
X185322344Y-172525723D02*
X185448453Y-172676207D01*
X185448453Y-172676207D02*
X185564027Y-172760177D01*
X185564027Y-172760177D02*
X185746115Y-172833611D01*
X185746115Y-172833611D02*
X185851154Y-172851066D01*
X185851154Y-172851066D02*
X185984183Y-172829996D01*
X185984183Y-172829996D02*
X186106677Y-172742412D01*
X186106677Y-172742412D02*
X186246626Y-172549789D01*
X185658841Y-173358806D02*
X185119496Y-172966949D01*
X184849824Y-172771021D02*
X184916338Y-172760486D01*
X184916338Y-172760486D02*
X184926873Y-172827000D01*
X184926873Y-172827000D02*
X184860358Y-172837535D01*
X184860358Y-172837535D02*
X184849824Y-172771021D01*
X184849824Y-172771021D02*
X184926873Y-172827000D01*
X185294974Y-173859626D02*
X185312429Y-173754587D01*
X185312429Y-173754587D02*
X185301894Y-173688072D01*
X185301894Y-173688072D02*
X185252834Y-173593568D01*
X185252834Y-173593568D02*
X185021687Y-173425630D01*
X185021687Y-173425630D02*
X184916648Y-173408175D01*
X184916648Y-173408175D02*
X184850133Y-173418709D01*
X184850133Y-173418709D02*
X184755629Y-173467769D01*
X184755629Y-173467769D02*
X184671660Y-173583343D01*
X184671660Y-173583343D02*
X184654205Y-173688382D01*
X184654205Y-173688382D02*
X184664740Y-173754896D01*
X184664740Y-173754896D02*
X184713799Y-173849400D01*
X184713799Y-173849400D02*
X184944947Y-174017339D01*
X184944947Y-174017339D02*
X185049986Y-174034794D01*
X185049986Y-174034794D02*
X185116500Y-174024259D01*
X185116500Y-174024259D02*
X185211004Y-173975200D01*
X185211004Y-173975200D02*
X185294974Y-173859626D01*
X184595229Y-174822741D02*
X183786212Y-174234956D01*
X184556705Y-174794751D02*
X184651209Y-174745692D01*
X184651209Y-174745692D02*
X184763168Y-174591594D01*
X184763168Y-174591594D02*
X184780623Y-174486555D01*
X184780623Y-174486555D02*
X184770088Y-174420040D01*
X184770088Y-174420040D02*
X184721029Y-174325536D01*
X184721029Y-174325536D02*
X184489881Y-174157597D01*
X184489881Y-174157597D02*
X184384842Y-174140142D01*
X184384842Y-174140142D02*
X184318328Y-174150677D01*
X184318328Y-174150677D02*
X184223823Y-174199737D01*
X184223823Y-174199737D02*
X184111864Y-174353835D01*
X184111864Y-174353835D02*
X184094409Y-174458874D01*
X184052889Y-175488195D02*
X184147393Y-175439135D01*
X184147393Y-175439135D02*
X184259352Y-175285037D01*
X184259352Y-175285037D02*
X184276807Y-175179998D01*
X184276807Y-175179998D02*
X184227747Y-175085494D01*
X184227747Y-175085494D02*
X183919551Y-174861575D01*
X183919551Y-174861575D02*
X183814512Y-174844120D01*
X183814512Y-174844120D02*
X183720007Y-174893180D01*
X183720007Y-174893180D02*
X183608048Y-175047278D01*
X183608048Y-175047278D02*
X183590593Y-175152317D01*
X183590593Y-175152317D02*
X183639653Y-175246822D01*
X183639653Y-175246822D02*
X183716702Y-175302801D01*
X183716702Y-175302801D02*
X184073649Y-174973534D01*
X189199729Y-175460529D02*
X188390712Y-174872743D01*
X188390712Y-174872743D02*
X188250763Y-175065366D01*
X188250763Y-175065366D02*
X188205319Y-175208930D01*
X188205319Y-175208930D02*
X188226388Y-175341959D01*
X188226388Y-175341959D02*
X188275448Y-175436463D01*
X188275448Y-175436463D02*
X188401556Y-175586947D01*
X188401556Y-175586947D02*
X188517130Y-175670916D01*
X188517130Y-175670916D02*
X188699218Y-175744351D01*
X188699218Y-175744351D02*
X188804258Y-175761805D01*
X188804258Y-175761805D02*
X188937286Y-175740736D01*
X188937286Y-175740736D02*
X189059780Y-175653152D01*
X189059780Y-175653152D02*
X189199729Y-175460529D01*
X188304056Y-176693316D02*
X188639934Y-176231021D01*
X188471995Y-176462169D02*
X187662978Y-175874383D01*
X187662978Y-175874383D02*
X187834531Y-175881304D01*
X187834531Y-175881304D02*
X187967560Y-175860234D01*
X187967560Y-175860234D02*
X188062064Y-175811174D01*
X187299111Y-176375204D02*
X186907254Y-176914548D01*
X186907254Y-176914548D02*
X187968179Y-177155612D01*
X176246626Y-186049789D02*
X175437609Y-185462004D01*
X175437609Y-185462004D02*
X175297660Y-185654627D01*
X175297660Y-185654627D02*
X175252215Y-185798191D01*
X175252215Y-185798191D02*
X175273285Y-185931219D01*
X175273285Y-185931219D02*
X175322344Y-186025723D01*
X175322344Y-186025723D02*
X175448453Y-186176207D01*
X175448453Y-186176207D02*
X175564027Y-186260177D01*
X175564027Y-186260177D02*
X175746115Y-186333611D01*
X175746115Y-186333611D02*
X175851154Y-186351066D01*
X175851154Y-186351066D02*
X175984183Y-186329996D01*
X175984183Y-186329996D02*
X176106677Y-186242412D01*
X176106677Y-186242412D02*
X176246626Y-186049789D01*
X175658841Y-186858806D02*
X175119496Y-186466949D01*
X174849824Y-186271021D02*
X174916338Y-186260486D01*
X174916338Y-186260486D02*
X174926873Y-186327000D01*
X174926873Y-186327000D02*
X174860358Y-186337535D01*
X174860358Y-186337535D02*
X174849824Y-186271021D01*
X174849824Y-186271021D02*
X174926873Y-186327000D01*
X175294974Y-187359626D02*
X175312429Y-187254587D01*
X175312429Y-187254587D02*
X175301894Y-187188072D01*
X175301894Y-187188072D02*
X175252834Y-187093568D01*
X175252834Y-187093568D02*
X175021687Y-186925630D01*
X175021687Y-186925630D02*
X174916648Y-186908175D01*
X174916648Y-186908175D02*
X174850133Y-186918709D01*
X174850133Y-186918709D02*
X174755629Y-186967769D01*
X174755629Y-186967769D02*
X174671660Y-187083343D01*
X174671660Y-187083343D02*
X174654205Y-187188382D01*
X174654205Y-187188382D02*
X174664740Y-187254896D01*
X174664740Y-187254896D02*
X174713799Y-187349400D01*
X174713799Y-187349400D02*
X174944947Y-187517339D01*
X174944947Y-187517339D02*
X175049986Y-187534794D01*
X175049986Y-187534794D02*
X175116500Y-187524259D01*
X175116500Y-187524259D02*
X175211004Y-187475200D01*
X175211004Y-187475200D02*
X175294974Y-187359626D01*
X174595229Y-188322741D02*
X173786212Y-187734956D01*
X174556705Y-188294751D02*
X174651209Y-188245692D01*
X174651209Y-188245692D02*
X174763168Y-188091594D01*
X174763168Y-188091594D02*
X174780623Y-187986555D01*
X174780623Y-187986555D02*
X174770088Y-187920040D01*
X174770088Y-187920040D02*
X174721029Y-187825536D01*
X174721029Y-187825536D02*
X174489881Y-187657597D01*
X174489881Y-187657597D02*
X174384842Y-187640142D01*
X174384842Y-187640142D02*
X174318328Y-187650677D01*
X174318328Y-187650677D02*
X174223823Y-187699737D01*
X174223823Y-187699737D02*
X174111864Y-187853835D01*
X174111864Y-187853835D02*
X174094409Y-187958874D01*
X174052889Y-188988195D02*
X174147393Y-188939135D01*
X174147393Y-188939135D02*
X174259352Y-188785037D01*
X174259352Y-188785037D02*
X174276807Y-188679998D01*
X174276807Y-188679998D02*
X174227747Y-188585494D01*
X174227747Y-188585494D02*
X173919551Y-188361575D01*
X173919551Y-188361575D02*
X173814512Y-188344120D01*
X173814512Y-188344120D02*
X173720007Y-188393180D01*
X173720007Y-188393180D02*
X173608048Y-188547278D01*
X173608048Y-188547278D02*
X173590593Y-188652317D01*
X173590593Y-188652317D02*
X173639653Y-188746822D01*
X173639653Y-188746822D02*
X173716702Y-188802801D01*
X173716702Y-188802801D02*
X174073649Y-188473534D01*
X179199729Y-188960529D02*
X178390712Y-188372743D01*
X178390712Y-188372743D02*
X178250763Y-188565366D01*
X178250763Y-188565366D02*
X178205319Y-188708930D01*
X178205319Y-188708930D02*
X178226388Y-188841959D01*
X178226388Y-188841959D02*
X178275448Y-188936463D01*
X178275448Y-188936463D02*
X178401556Y-189086947D01*
X178401556Y-189086947D02*
X178517130Y-189170916D01*
X178517130Y-189170916D02*
X178699218Y-189244351D01*
X178699218Y-189244351D02*
X178804258Y-189261805D01*
X178804258Y-189261805D02*
X178937286Y-189240736D01*
X178937286Y-189240736D02*
X179059780Y-189153152D01*
X179059780Y-189153152D02*
X179199729Y-188960529D01*
X178304056Y-190193316D02*
X178639934Y-189731021D01*
X178471995Y-189962169D02*
X177662978Y-189374383D01*
X177662978Y-189374383D02*
X177834531Y-189381304D01*
X177834531Y-189381304D02*
X177967560Y-189360234D01*
X177967560Y-189360234D02*
X178062064Y-189311174D01*
X176991223Y-190298974D02*
X177103182Y-190144876D01*
X177103182Y-190144876D02*
X177197687Y-190095816D01*
X177197687Y-190095816D02*
X177264201Y-190085282D01*
X177264201Y-190085282D02*
X177435754Y-190092202D01*
X177435754Y-190092202D02*
X177617843Y-190165636D01*
X177617843Y-190165636D02*
X177926040Y-190389554D01*
X177926040Y-190389554D02*
X177975099Y-190484058D01*
X177975099Y-190484058D02*
X177985634Y-190550573D01*
X177985634Y-190550573D02*
X177968179Y-190655612D01*
X177968179Y-190655612D02*
X177856220Y-190809710D01*
X177856220Y-190809710D02*
X177761716Y-190858770D01*
X177761716Y-190858770D02*
X177695201Y-190869305D01*
X177695201Y-190869305D02*
X177590162Y-190851850D01*
X177590162Y-190851850D02*
X177397539Y-190711901D01*
X177397539Y-190711901D02*
X177348480Y-190617397D01*
X177348480Y-190617397D02*
X177337945Y-190550882D01*
X177337945Y-190550882D02*
X177355400Y-190445843D01*
X177355400Y-190445843D02*
X177467359Y-190291745D01*
X177467359Y-190291745D02*
X177561863Y-190242685D01*
X177561863Y-190242685D02*
X177628378Y-190232151D01*
X177628378Y-190232151D02*
X177733417Y-190249605D01*
X183746626Y-145549789D02*
X182937609Y-144962004D01*
X182937609Y-144962004D02*
X182797660Y-145154627D01*
X182797660Y-145154627D02*
X182752215Y-145298191D01*
X182752215Y-145298191D02*
X182773285Y-145431219D01*
X182773285Y-145431219D02*
X182822344Y-145525723D01*
X182822344Y-145525723D02*
X182948453Y-145676207D01*
X182948453Y-145676207D02*
X183064027Y-145760177D01*
X183064027Y-145760177D02*
X183246115Y-145833611D01*
X183246115Y-145833611D02*
X183351154Y-145851066D01*
X183351154Y-145851066D02*
X183484183Y-145829996D01*
X183484183Y-145829996D02*
X183606677Y-145742412D01*
X183606677Y-145742412D02*
X183746626Y-145549789D01*
X183158841Y-146358806D02*
X182619496Y-145966949D01*
X182349824Y-145771021D02*
X182416338Y-145760486D01*
X182416338Y-145760486D02*
X182426873Y-145827000D01*
X182426873Y-145827000D02*
X182360358Y-145837535D01*
X182360358Y-145837535D02*
X182349824Y-145771021D01*
X182349824Y-145771021D02*
X182426873Y-145827000D01*
X182794974Y-146859626D02*
X182812429Y-146754587D01*
X182812429Y-146754587D02*
X182801894Y-146688072D01*
X182801894Y-146688072D02*
X182752834Y-146593568D01*
X182752834Y-146593568D02*
X182521687Y-146425630D01*
X182521687Y-146425630D02*
X182416648Y-146408175D01*
X182416648Y-146408175D02*
X182350133Y-146418709D01*
X182350133Y-146418709D02*
X182255629Y-146467769D01*
X182255629Y-146467769D02*
X182171660Y-146583343D01*
X182171660Y-146583343D02*
X182154205Y-146688382D01*
X182154205Y-146688382D02*
X182164740Y-146754896D01*
X182164740Y-146754896D02*
X182213799Y-146849400D01*
X182213799Y-146849400D02*
X182444947Y-147017339D01*
X182444947Y-147017339D02*
X182549986Y-147034794D01*
X182549986Y-147034794D02*
X182616500Y-147024259D01*
X182616500Y-147024259D02*
X182711004Y-146975200D01*
X182711004Y-146975200D02*
X182794974Y-146859626D01*
X182095229Y-147822741D02*
X181286212Y-147234956D01*
X182056705Y-147794751D02*
X182151209Y-147745692D01*
X182151209Y-147745692D02*
X182263168Y-147591594D01*
X182263168Y-147591594D02*
X182280623Y-147486555D01*
X182280623Y-147486555D02*
X182270088Y-147420040D01*
X182270088Y-147420040D02*
X182221029Y-147325536D01*
X182221029Y-147325536D02*
X181989881Y-147157597D01*
X181989881Y-147157597D02*
X181884842Y-147140142D01*
X181884842Y-147140142D02*
X181818328Y-147150677D01*
X181818328Y-147150677D02*
X181723823Y-147199737D01*
X181723823Y-147199737D02*
X181611864Y-147353835D01*
X181611864Y-147353835D02*
X181594409Y-147458874D01*
X181552889Y-148488195D02*
X181647393Y-148439135D01*
X181647393Y-148439135D02*
X181759352Y-148285037D01*
X181759352Y-148285037D02*
X181776807Y-148179998D01*
X181776807Y-148179998D02*
X181727747Y-148085494D01*
X181727747Y-148085494D02*
X181419551Y-147861575D01*
X181419551Y-147861575D02*
X181314512Y-147844120D01*
X181314512Y-147844120D02*
X181220007Y-147893180D01*
X181220007Y-147893180D02*
X181108048Y-148047278D01*
X181108048Y-148047278D02*
X181090593Y-148152317D01*
X181090593Y-148152317D02*
X181139653Y-148246822D01*
X181139653Y-148246822D02*
X181216702Y-148302801D01*
X181216702Y-148302801D02*
X181573649Y-147973534D01*
X186699729Y-148460529D02*
X185890712Y-147872743D01*
X185890712Y-147872743D02*
X185750763Y-148065366D01*
X185750763Y-148065366D02*
X185705319Y-148208930D01*
X185705319Y-148208930D02*
X185726388Y-148341959D01*
X185726388Y-148341959D02*
X185775448Y-148436463D01*
X185775448Y-148436463D02*
X185901556Y-148586947D01*
X185901556Y-148586947D02*
X186017130Y-148670916D01*
X186017130Y-148670916D02*
X186199218Y-148744351D01*
X186199218Y-148744351D02*
X186304258Y-148761805D01*
X186304258Y-148761805D02*
X186437286Y-148740736D01*
X186437286Y-148740736D02*
X186559780Y-148653152D01*
X186559780Y-148653152D02*
X186699729Y-148460529D01*
X185804056Y-149693316D02*
X186139934Y-149231021D01*
X185971995Y-149462169D02*
X185162978Y-148874383D01*
X185162978Y-148874383D02*
X185334531Y-148881304D01*
X185334531Y-148881304D02*
X185467560Y-148860234D01*
X185467560Y-148860234D02*
X185562064Y-148811174D01*
X184463234Y-149837499D02*
X184743131Y-149452253D01*
X184743131Y-149452253D02*
X185156367Y-149693626D01*
X185156367Y-149693626D02*
X185089853Y-149704161D01*
X185089853Y-149704161D02*
X184995349Y-149753220D01*
X184995349Y-149753220D02*
X184855400Y-149945843D01*
X184855400Y-149945843D02*
X184837945Y-150050882D01*
X184837945Y-150050882D02*
X184848480Y-150117397D01*
X184848480Y-150117397D02*
X184897539Y-150211901D01*
X184897539Y-150211901D02*
X185090162Y-150351850D01*
X185090162Y-150351850D02*
X185195201Y-150369305D01*
X185195201Y-150369305D02*
X185261716Y-150358770D01*
X185261716Y-150358770D02*
X185356220Y-150309710D01*
X185356220Y-150309710D02*
X185496169Y-150117087D01*
X185496169Y-150117087D02*
X185513624Y-150012048D01*
X185513624Y-150012048D02*
X185503089Y-149945534D01*
X173746626Y-159049789D02*
X172937609Y-158462004D01*
X172937609Y-158462004D02*
X172797660Y-158654627D01*
X172797660Y-158654627D02*
X172752215Y-158798191D01*
X172752215Y-158798191D02*
X172773285Y-158931219D01*
X172773285Y-158931219D02*
X172822344Y-159025723D01*
X172822344Y-159025723D02*
X172948453Y-159176207D01*
X172948453Y-159176207D02*
X173064027Y-159260177D01*
X173064027Y-159260177D02*
X173246115Y-159333611D01*
X173246115Y-159333611D02*
X173351154Y-159351066D01*
X173351154Y-159351066D02*
X173484183Y-159329996D01*
X173484183Y-159329996D02*
X173606677Y-159242412D01*
X173606677Y-159242412D02*
X173746626Y-159049789D01*
X173158841Y-159858806D02*
X172619496Y-159466949D01*
X172349824Y-159271021D02*
X172416338Y-159260486D01*
X172416338Y-159260486D02*
X172426873Y-159327000D01*
X172426873Y-159327000D02*
X172360358Y-159337535D01*
X172360358Y-159337535D02*
X172349824Y-159271021D01*
X172349824Y-159271021D02*
X172426873Y-159327000D01*
X172794974Y-160359626D02*
X172812429Y-160254587D01*
X172812429Y-160254587D02*
X172801894Y-160188072D01*
X172801894Y-160188072D02*
X172752834Y-160093568D01*
X172752834Y-160093568D02*
X172521687Y-159925630D01*
X172521687Y-159925630D02*
X172416648Y-159908175D01*
X172416648Y-159908175D02*
X172350133Y-159918709D01*
X172350133Y-159918709D02*
X172255629Y-159967769D01*
X172255629Y-159967769D02*
X172171660Y-160083343D01*
X172171660Y-160083343D02*
X172154205Y-160188382D01*
X172154205Y-160188382D02*
X172164740Y-160254896D01*
X172164740Y-160254896D02*
X172213799Y-160349400D01*
X172213799Y-160349400D02*
X172444947Y-160517339D01*
X172444947Y-160517339D02*
X172549986Y-160534794D01*
X172549986Y-160534794D02*
X172616500Y-160524259D01*
X172616500Y-160524259D02*
X172711004Y-160475200D01*
X172711004Y-160475200D02*
X172794974Y-160359626D01*
X172095229Y-161322741D02*
X171286212Y-160734956D01*
X172056705Y-161294751D02*
X172151209Y-161245692D01*
X172151209Y-161245692D02*
X172263168Y-161091594D01*
X172263168Y-161091594D02*
X172280623Y-160986555D01*
X172280623Y-160986555D02*
X172270088Y-160920040D01*
X172270088Y-160920040D02*
X172221029Y-160825536D01*
X172221029Y-160825536D02*
X171989881Y-160657597D01*
X171989881Y-160657597D02*
X171884842Y-160640142D01*
X171884842Y-160640142D02*
X171818328Y-160650677D01*
X171818328Y-160650677D02*
X171723823Y-160699737D01*
X171723823Y-160699737D02*
X171611864Y-160853835D01*
X171611864Y-160853835D02*
X171594409Y-160958874D01*
X171552889Y-161988195D02*
X171647393Y-161939135D01*
X171647393Y-161939135D02*
X171759352Y-161785037D01*
X171759352Y-161785037D02*
X171776807Y-161679998D01*
X171776807Y-161679998D02*
X171727747Y-161585494D01*
X171727747Y-161585494D02*
X171419551Y-161361575D01*
X171419551Y-161361575D02*
X171314512Y-161344120D01*
X171314512Y-161344120D02*
X171220007Y-161393180D01*
X171220007Y-161393180D02*
X171108048Y-161547278D01*
X171108048Y-161547278D02*
X171090593Y-161652317D01*
X171090593Y-161652317D02*
X171139653Y-161746822D01*
X171139653Y-161746822D02*
X171216702Y-161802801D01*
X171216702Y-161802801D02*
X171573649Y-161473534D01*
X176699729Y-161960529D02*
X175890712Y-161372743D01*
X175890712Y-161372743D02*
X175750763Y-161565366D01*
X175750763Y-161565366D02*
X175705319Y-161708930D01*
X175705319Y-161708930D02*
X175726388Y-161841959D01*
X175726388Y-161841959D02*
X175775448Y-161936463D01*
X175775448Y-161936463D02*
X175901556Y-162086947D01*
X175901556Y-162086947D02*
X176017130Y-162170916D01*
X176017130Y-162170916D02*
X176199218Y-162244351D01*
X176199218Y-162244351D02*
X176304258Y-162261805D01*
X176304258Y-162261805D02*
X176437286Y-162240736D01*
X176437286Y-162240736D02*
X176559780Y-162153152D01*
X176559780Y-162153152D02*
X176699729Y-161960529D01*
X175804056Y-163193316D02*
X176139934Y-162731021D01*
X175971995Y-162962169D02*
X175162978Y-162374383D01*
X175162978Y-162374383D02*
X175334531Y-162381304D01*
X175334531Y-162381304D02*
X175467560Y-162360234D01*
X175467560Y-162360234D02*
X175562064Y-162311174D01*
X174760896Y-163494903D02*
X175300240Y-163886760D01*
X174592648Y-163078361D02*
X175310466Y-163305585D01*
X175310466Y-163305585D02*
X174946599Y-163806405D01*
X163746626Y-172549789D02*
X162937609Y-171962004D01*
X162937609Y-171962004D02*
X162797660Y-172154627D01*
X162797660Y-172154627D02*
X162752215Y-172298191D01*
X162752215Y-172298191D02*
X162773285Y-172431219D01*
X162773285Y-172431219D02*
X162822344Y-172525723D01*
X162822344Y-172525723D02*
X162948453Y-172676207D01*
X162948453Y-172676207D02*
X163064027Y-172760177D01*
X163064027Y-172760177D02*
X163246115Y-172833611D01*
X163246115Y-172833611D02*
X163351154Y-172851066D01*
X163351154Y-172851066D02*
X163484183Y-172829996D01*
X163484183Y-172829996D02*
X163606677Y-172742412D01*
X163606677Y-172742412D02*
X163746626Y-172549789D01*
X163158841Y-173358806D02*
X162619496Y-172966949D01*
X162349824Y-172771021D02*
X162416338Y-172760486D01*
X162416338Y-172760486D02*
X162426873Y-172827000D01*
X162426873Y-172827000D02*
X162360358Y-172837535D01*
X162360358Y-172837535D02*
X162349824Y-172771021D01*
X162349824Y-172771021D02*
X162426873Y-172827000D01*
X162794974Y-173859626D02*
X162812429Y-173754587D01*
X162812429Y-173754587D02*
X162801894Y-173688072D01*
X162801894Y-173688072D02*
X162752834Y-173593568D01*
X162752834Y-173593568D02*
X162521687Y-173425630D01*
X162521687Y-173425630D02*
X162416648Y-173408175D01*
X162416648Y-173408175D02*
X162350133Y-173418709D01*
X162350133Y-173418709D02*
X162255629Y-173467769D01*
X162255629Y-173467769D02*
X162171660Y-173583343D01*
X162171660Y-173583343D02*
X162154205Y-173688382D01*
X162154205Y-173688382D02*
X162164740Y-173754896D01*
X162164740Y-173754896D02*
X162213799Y-173849400D01*
X162213799Y-173849400D02*
X162444947Y-174017339D01*
X162444947Y-174017339D02*
X162549986Y-174034794D01*
X162549986Y-174034794D02*
X162616500Y-174024259D01*
X162616500Y-174024259D02*
X162711004Y-173975200D01*
X162711004Y-173975200D02*
X162794974Y-173859626D01*
X162095229Y-174822741D02*
X161286212Y-174234956D01*
X162056705Y-174794751D02*
X162151209Y-174745692D01*
X162151209Y-174745692D02*
X162263168Y-174591594D01*
X162263168Y-174591594D02*
X162280623Y-174486555D01*
X162280623Y-174486555D02*
X162270088Y-174420040D01*
X162270088Y-174420040D02*
X162221029Y-174325536D01*
X162221029Y-174325536D02*
X161989881Y-174157597D01*
X161989881Y-174157597D02*
X161884842Y-174140142D01*
X161884842Y-174140142D02*
X161818328Y-174150677D01*
X161818328Y-174150677D02*
X161723823Y-174199737D01*
X161723823Y-174199737D02*
X161611864Y-174353835D01*
X161611864Y-174353835D02*
X161594409Y-174458874D01*
X161552889Y-175488195D02*
X161647393Y-175439135D01*
X161647393Y-175439135D02*
X161759352Y-175285037D01*
X161759352Y-175285037D02*
X161776807Y-175179998D01*
X161776807Y-175179998D02*
X161727747Y-175085494D01*
X161727747Y-175085494D02*
X161419551Y-174861575D01*
X161419551Y-174861575D02*
X161314512Y-174844120D01*
X161314512Y-174844120D02*
X161220007Y-174893180D01*
X161220007Y-174893180D02*
X161108048Y-175047278D01*
X161108048Y-175047278D02*
X161090593Y-175152317D01*
X161090593Y-175152317D02*
X161139653Y-175246822D01*
X161139653Y-175246822D02*
X161216702Y-175302801D01*
X161216702Y-175302801D02*
X161573649Y-174973534D01*
X166699729Y-175460529D02*
X165890712Y-174872743D01*
X165890712Y-174872743D02*
X165750763Y-175065366D01*
X165750763Y-175065366D02*
X165705319Y-175208930D01*
X165705319Y-175208930D02*
X165726388Y-175341959D01*
X165726388Y-175341959D02*
X165775448Y-175436463D01*
X165775448Y-175436463D02*
X165901556Y-175586947D01*
X165901556Y-175586947D02*
X166017130Y-175670916D01*
X166017130Y-175670916D02*
X166199218Y-175744351D01*
X166199218Y-175744351D02*
X166304258Y-175761805D01*
X166304258Y-175761805D02*
X166437286Y-175740736D01*
X166437286Y-175740736D02*
X166559780Y-175653152D01*
X166559780Y-175653152D02*
X166699729Y-175460529D01*
X165804056Y-176693316D02*
X166139934Y-176231021D01*
X165971995Y-176462169D02*
X165162978Y-175874383D01*
X165162978Y-175874383D02*
X165334531Y-175881304D01*
X165334531Y-175881304D02*
X165467560Y-175860234D01*
X165467560Y-175860234D02*
X165562064Y-175811174D01*
X164799111Y-176375204D02*
X164435244Y-176876024D01*
X164435244Y-176876024D02*
X164939369Y-176830269D01*
X164939369Y-176830269D02*
X164855400Y-176945843D01*
X164855400Y-176945843D02*
X164837945Y-177050882D01*
X164837945Y-177050882D02*
X164848480Y-177117397D01*
X164848480Y-177117397D02*
X164897539Y-177211901D01*
X164897539Y-177211901D02*
X165090162Y-177351850D01*
X165090162Y-177351850D02*
X165195201Y-177369305D01*
X165195201Y-177369305D02*
X165261716Y-177358770D01*
X165261716Y-177358770D02*
X165356220Y-177309710D01*
X165356220Y-177309710D02*
X165524159Y-177078563D01*
X165524159Y-177078563D02*
X165541613Y-176973524D01*
X165541613Y-176973524D02*
X165531079Y-176907009D01*
X170534041Y-126581196D02*
X169676873Y-126066158D01*
X169676873Y-126066158D02*
X169554245Y-126270245D01*
X169554245Y-126270245D02*
X169521486Y-126417223D01*
X169521486Y-126417223D02*
X169554070Y-126547909D01*
X169554070Y-126547909D02*
X169611179Y-126637778D01*
X169611179Y-126637778D02*
X169749923Y-126776698D01*
X169749923Y-126776698D02*
X169872376Y-126850275D01*
X169872376Y-126850275D02*
X170060171Y-126907560D01*
X170060171Y-126907560D02*
X170166332Y-126915794D01*
X170166332Y-126915794D02*
X170297018Y-126883210D01*
X170297018Y-126883210D02*
X170411413Y-126785283D01*
X170411413Y-126785283D02*
X170534041Y-126581196D01*
X170019003Y-127438363D02*
X169447558Y-127095004D01*
X169161835Y-126923325D02*
X169227178Y-126907033D01*
X169227178Y-126907033D02*
X169243470Y-126972376D01*
X169243470Y-126972376D02*
X169178127Y-126988668D01*
X169178127Y-126988668D02*
X169161835Y-126923325D01*
X169161835Y-126923325D02*
X169243470Y-126972376D01*
X169700170Y-127968990D02*
X169708404Y-127862829D01*
X169708404Y-127862829D02*
X169692112Y-127797486D01*
X169692112Y-127797486D02*
X169635002Y-127707618D01*
X169635002Y-127707618D02*
X169390097Y-127560464D01*
X169390097Y-127560464D02*
X169283937Y-127552230D01*
X169283937Y-127552230D02*
X169218594Y-127568522D01*
X169218594Y-127568522D02*
X169128725Y-127625631D01*
X169128725Y-127625631D02*
X169055148Y-127748084D01*
X169055148Y-127748084D02*
X169046914Y-127854244D01*
X169046914Y-127854244D02*
X169063206Y-127919587D01*
X169063206Y-127919587D02*
X169120316Y-128009456D01*
X169120316Y-128009456D02*
X169365220Y-128156610D01*
X169365220Y-128156610D02*
X169471381Y-128164844D01*
X169471381Y-128164844D02*
X169536724Y-128148552D01*
X169536724Y-128148552D02*
X169626593Y-128091442D01*
X169626593Y-128091442D02*
X169700170Y-127968990D01*
X169087029Y-128989427D02*
X168229862Y-128474389D01*
X169046212Y-128964902D02*
X169136080Y-128907792D01*
X169136080Y-128907792D02*
X169234183Y-128744522D01*
X169234183Y-128744522D02*
X169242417Y-128638362D01*
X169242417Y-128638362D02*
X169226125Y-128573019D01*
X169226125Y-128573019D02*
X169169015Y-128483150D01*
X169169015Y-128483150D02*
X168924110Y-128335996D01*
X168924110Y-128335996D02*
X168817950Y-128327762D01*
X168817950Y-128327762D02*
X168752607Y-128344054D01*
X168752607Y-128344054D02*
X168662738Y-128401164D01*
X168662738Y-128401164D02*
X168564636Y-128564434D01*
X168564636Y-128564434D02*
X168556402Y-128670594D01*
X168604750Y-129699617D02*
X168694619Y-129642507D01*
X168694619Y-129642507D02*
X168792722Y-129479237D01*
X168792722Y-129479237D02*
X168800955Y-129373077D01*
X168800955Y-129373077D02*
X168743846Y-129283208D01*
X168743846Y-129283208D02*
X168417306Y-129087003D01*
X168417306Y-129087003D02*
X168311146Y-129078769D01*
X168311146Y-129078769D02*
X168221277Y-129135879D01*
X168221277Y-129135879D02*
X168123174Y-129299149D01*
X168123174Y-129299149D02*
X168114941Y-129405309D01*
X168114941Y-129405309D02*
X168172050Y-129495178D01*
X168172050Y-129495178D02*
X168253685Y-129544229D01*
X168253685Y-129544229D02*
X168580576Y-129185105D01*
X173729594Y-129223481D02*
X172872427Y-128708443D01*
X172872427Y-128708443D02*
X172749799Y-128912530D01*
X172749799Y-128912530D02*
X172717039Y-129059508D01*
X172717039Y-129059508D02*
X172749623Y-129190194D01*
X172749623Y-129190194D02*
X172806732Y-129280063D01*
X172806732Y-129280063D02*
X172945477Y-129418983D01*
X172945477Y-129418983D02*
X173067929Y-129492560D01*
X173067929Y-129492560D02*
X173255725Y-129549845D01*
X173255725Y-129549845D02*
X173361885Y-129558079D01*
X173361885Y-129558079D02*
X173492571Y-129525495D01*
X173492571Y-129525495D02*
X173606966Y-129427568D01*
X173606966Y-129427568D02*
X173729594Y-129223481D01*
X172944774Y-130529640D02*
X173239081Y-130039830D01*
X173091928Y-130284735D02*
X172234760Y-129769697D01*
X172234760Y-129769697D02*
X172406264Y-129761639D01*
X172406264Y-129761639D02*
X172536950Y-129729055D01*
X172536950Y-129729055D02*
X172626819Y-129671946D01*
X171973037Y-130390193D02*
X171907694Y-130406485D01*
X171907694Y-130406485D02*
X171817825Y-130463595D01*
X171817825Y-130463595D02*
X171695197Y-130667682D01*
X171695197Y-130667682D02*
X171686963Y-130773843D01*
X171686963Y-130773843D02*
X171703255Y-130839186D01*
X171703255Y-130839186D02*
X171760364Y-130929055D01*
X171760364Y-130929055D02*
X171841999Y-130978106D01*
X171841999Y-130978106D02*
X171988977Y-131010865D01*
X171988977Y-131010865D02*
X172773095Y-130815363D01*
X172773095Y-130815363D02*
X172454262Y-131345990D01*
X161534041Y-141081196D02*
X160676873Y-140566158D01*
X160676873Y-140566158D02*
X160554245Y-140770245D01*
X160554245Y-140770245D02*
X160521486Y-140917223D01*
X160521486Y-140917223D02*
X160554070Y-141047909D01*
X160554070Y-141047909D02*
X160611179Y-141137778D01*
X160611179Y-141137778D02*
X160749923Y-141276698D01*
X160749923Y-141276698D02*
X160872376Y-141350275D01*
X160872376Y-141350275D02*
X161060171Y-141407560D01*
X161060171Y-141407560D02*
X161166332Y-141415794D01*
X161166332Y-141415794D02*
X161297018Y-141383210D01*
X161297018Y-141383210D02*
X161411413Y-141285283D01*
X161411413Y-141285283D02*
X161534041Y-141081196D01*
X161019003Y-141938363D02*
X160447558Y-141595004D01*
X160161835Y-141423325D02*
X160227178Y-141407033D01*
X160227178Y-141407033D02*
X160243470Y-141472376D01*
X160243470Y-141472376D02*
X160178127Y-141488668D01*
X160178127Y-141488668D02*
X160161835Y-141423325D01*
X160161835Y-141423325D02*
X160243470Y-141472376D01*
X160700170Y-142468990D02*
X160708404Y-142362829D01*
X160708404Y-142362829D02*
X160692112Y-142297486D01*
X160692112Y-142297486D02*
X160635002Y-142207618D01*
X160635002Y-142207618D02*
X160390097Y-142060464D01*
X160390097Y-142060464D02*
X160283937Y-142052230D01*
X160283937Y-142052230D02*
X160218594Y-142068522D01*
X160218594Y-142068522D02*
X160128725Y-142125631D01*
X160128725Y-142125631D02*
X160055148Y-142248084D01*
X160055148Y-142248084D02*
X160046914Y-142354244D01*
X160046914Y-142354244D02*
X160063206Y-142419587D01*
X160063206Y-142419587D02*
X160120316Y-142509456D01*
X160120316Y-142509456D02*
X160365220Y-142656610D01*
X160365220Y-142656610D02*
X160471381Y-142664844D01*
X160471381Y-142664844D02*
X160536724Y-142648552D01*
X160536724Y-142648552D02*
X160626593Y-142591442D01*
X160626593Y-142591442D02*
X160700170Y-142468990D01*
X160087029Y-143489427D02*
X159229862Y-142974389D01*
X160046212Y-143464902D02*
X160136080Y-143407792D01*
X160136080Y-143407792D02*
X160234183Y-143244522D01*
X160234183Y-143244522D02*
X160242417Y-143138362D01*
X160242417Y-143138362D02*
X160226125Y-143073019D01*
X160226125Y-143073019D02*
X160169015Y-142983150D01*
X160169015Y-142983150D02*
X159924110Y-142835996D01*
X159924110Y-142835996D02*
X159817950Y-142827762D01*
X159817950Y-142827762D02*
X159752607Y-142844054D01*
X159752607Y-142844054D02*
X159662738Y-142901164D01*
X159662738Y-142901164D02*
X159564636Y-143064434D01*
X159564636Y-143064434D02*
X159556402Y-143170594D01*
X159604750Y-144199617D02*
X159694619Y-144142507D01*
X159694619Y-144142507D02*
X159792722Y-143979237D01*
X159792722Y-143979237D02*
X159800955Y-143873077D01*
X159800955Y-143873077D02*
X159743846Y-143783208D01*
X159743846Y-143783208D02*
X159417306Y-143587003D01*
X159417306Y-143587003D02*
X159311146Y-143578769D01*
X159311146Y-143578769D02*
X159221277Y-143635879D01*
X159221277Y-143635879D02*
X159123174Y-143799149D01*
X159123174Y-143799149D02*
X159114941Y-143905309D01*
X159114941Y-143905309D02*
X159172050Y-143995178D01*
X159172050Y-143995178D02*
X159253685Y-144044229D01*
X159253685Y-144044229D02*
X159580576Y-143685105D01*
X164729594Y-143723481D02*
X163872427Y-143208443D01*
X163872427Y-143208443D02*
X163749799Y-143412530D01*
X163749799Y-143412530D02*
X163717039Y-143559508D01*
X163717039Y-143559508D02*
X163749623Y-143690194D01*
X163749623Y-143690194D02*
X163806732Y-143780063D01*
X163806732Y-143780063D02*
X163945477Y-143918983D01*
X163945477Y-143918983D02*
X164067929Y-143992560D01*
X164067929Y-143992560D02*
X164255725Y-144049845D01*
X164255725Y-144049845D02*
X164361885Y-144058079D01*
X164361885Y-144058079D02*
X164492571Y-144025495D01*
X164492571Y-144025495D02*
X164606966Y-143927568D01*
X164606966Y-143927568D02*
X164729594Y-143723481D01*
X163944774Y-145029640D02*
X164239081Y-144539830D01*
X164091928Y-144784735D02*
X163234760Y-144269697D01*
X163234760Y-144269697D02*
X163406264Y-144261639D01*
X163406264Y-144261639D02*
X163536950Y-144229055D01*
X163536950Y-144229055D02*
X163626819Y-144171946D01*
X163454262Y-145845990D02*
X163748569Y-145356180D01*
X163601415Y-145601085D02*
X162744248Y-145086047D01*
X162744248Y-145086047D02*
X162915752Y-145077989D01*
X162915752Y-145077989D02*
X163046438Y-145045405D01*
X163046438Y-145045405D02*
X163136307Y-144988296D01*
X153034041Y-155581196D02*
X152176873Y-155066158D01*
X152176873Y-155066158D02*
X152054245Y-155270245D01*
X152054245Y-155270245D02*
X152021486Y-155417223D01*
X152021486Y-155417223D02*
X152054070Y-155547909D01*
X152054070Y-155547909D02*
X152111179Y-155637778D01*
X152111179Y-155637778D02*
X152249923Y-155776698D01*
X152249923Y-155776698D02*
X152372376Y-155850275D01*
X152372376Y-155850275D02*
X152560171Y-155907560D01*
X152560171Y-155907560D02*
X152666332Y-155915794D01*
X152666332Y-155915794D02*
X152797018Y-155883210D01*
X152797018Y-155883210D02*
X152911413Y-155785283D01*
X152911413Y-155785283D02*
X153034041Y-155581196D01*
X152519003Y-156438363D02*
X151947558Y-156095004D01*
X151661835Y-155923325D02*
X151727178Y-155907033D01*
X151727178Y-155907033D02*
X151743470Y-155972376D01*
X151743470Y-155972376D02*
X151678127Y-155988668D01*
X151678127Y-155988668D02*
X151661835Y-155923325D01*
X151661835Y-155923325D02*
X151743470Y-155972376D01*
X152200170Y-156968990D02*
X152208404Y-156862829D01*
X152208404Y-156862829D02*
X152192112Y-156797486D01*
X152192112Y-156797486D02*
X152135002Y-156707618D01*
X152135002Y-156707618D02*
X151890097Y-156560464D01*
X151890097Y-156560464D02*
X151783937Y-156552230D01*
X151783937Y-156552230D02*
X151718594Y-156568522D01*
X151718594Y-156568522D02*
X151628725Y-156625631D01*
X151628725Y-156625631D02*
X151555148Y-156748084D01*
X151555148Y-156748084D02*
X151546914Y-156854244D01*
X151546914Y-156854244D02*
X151563206Y-156919587D01*
X151563206Y-156919587D02*
X151620316Y-157009456D01*
X151620316Y-157009456D02*
X151865220Y-157156610D01*
X151865220Y-157156610D02*
X151971381Y-157164844D01*
X151971381Y-157164844D02*
X152036724Y-157148552D01*
X152036724Y-157148552D02*
X152126593Y-157091442D01*
X152126593Y-157091442D02*
X152200170Y-156968990D01*
X151587029Y-157989427D02*
X150729862Y-157474389D01*
X151546212Y-157964902D02*
X151636080Y-157907792D01*
X151636080Y-157907792D02*
X151734183Y-157744522D01*
X151734183Y-157744522D02*
X151742417Y-157638362D01*
X151742417Y-157638362D02*
X151726125Y-157573019D01*
X151726125Y-157573019D02*
X151669015Y-157483150D01*
X151669015Y-157483150D02*
X151424110Y-157335996D01*
X151424110Y-157335996D02*
X151317950Y-157327762D01*
X151317950Y-157327762D02*
X151252607Y-157344054D01*
X151252607Y-157344054D02*
X151162738Y-157401164D01*
X151162738Y-157401164D02*
X151064636Y-157564434D01*
X151064636Y-157564434D02*
X151056402Y-157670594D01*
X151104750Y-158699617D02*
X151194619Y-158642507D01*
X151194619Y-158642507D02*
X151292722Y-158479237D01*
X151292722Y-158479237D02*
X151300955Y-158373077D01*
X151300955Y-158373077D02*
X151243846Y-158283208D01*
X151243846Y-158283208D02*
X150917306Y-158087003D01*
X150917306Y-158087003D02*
X150811146Y-158078769D01*
X150811146Y-158078769D02*
X150721277Y-158135879D01*
X150721277Y-158135879D02*
X150623174Y-158299149D01*
X150623174Y-158299149D02*
X150614941Y-158405309D01*
X150614941Y-158405309D02*
X150672050Y-158495178D01*
X150672050Y-158495178D02*
X150753685Y-158544229D01*
X150753685Y-158544229D02*
X151080576Y-158185105D01*
X156229594Y-158223481D02*
X155372427Y-157708443D01*
X155372427Y-157708443D02*
X155249799Y-157912530D01*
X155249799Y-157912530D02*
X155217039Y-158059508D01*
X155217039Y-158059508D02*
X155249623Y-158190194D01*
X155249623Y-158190194D02*
X155306732Y-158280063D01*
X155306732Y-158280063D02*
X155445477Y-158418983D01*
X155445477Y-158418983D02*
X155567929Y-158492560D01*
X155567929Y-158492560D02*
X155755725Y-158549845D01*
X155755725Y-158549845D02*
X155861885Y-158558079D01*
X155861885Y-158558079D02*
X155992571Y-158525495D01*
X155992571Y-158525495D02*
X156106966Y-158427568D01*
X156106966Y-158427568D02*
X156229594Y-158223481D01*
X155444774Y-159529640D02*
X155739081Y-159039830D01*
X155591928Y-159284735D02*
X154734760Y-158769697D01*
X154734760Y-158769697D02*
X154906264Y-158761639D01*
X154906264Y-158761639D02*
X155036950Y-158729055D01*
X155036950Y-158729055D02*
X155126819Y-158671946D01*
X154268774Y-159545230D02*
X154219722Y-159626865D01*
X154219722Y-159626865D02*
X154211489Y-159733025D01*
X154211489Y-159733025D02*
X154227780Y-159798368D01*
X154227780Y-159798368D02*
X154284890Y-159888237D01*
X154284890Y-159888237D02*
X154423634Y-160027157D01*
X154423634Y-160027157D02*
X154627722Y-160149785D01*
X154627722Y-160149785D02*
X154815517Y-160207070D01*
X154815517Y-160207070D02*
X154921678Y-160215304D01*
X154921678Y-160215304D02*
X154987021Y-160199012D01*
X154987021Y-160199012D02*
X155076890Y-160141903D01*
X155076890Y-160141903D02*
X155125941Y-160060268D01*
X155125941Y-160060268D02*
X155134175Y-159954107D01*
X155134175Y-159954107D02*
X155117883Y-159888764D01*
X155117883Y-159888764D02*
X155060773Y-159798895D01*
X155060773Y-159798895D02*
X154922029Y-159659975D01*
X154922029Y-159659975D02*
X154717942Y-159537347D01*
X154717942Y-159537347D02*
X154530146Y-159480062D01*
X154530146Y-159480062D02*
X154423985Y-159471828D01*
X154423985Y-159471828D02*
X154358642Y-159488120D01*
X154358642Y-159488120D02*
X154268774Y-159545230D01*
X149325001Y-120131011D02*
X148426207Y-119692640D01*
X148426207Y-119692640D02*
X148321833Y-119906639D01*
X148321833Y-119906639D02*
X148302008Y-120055913D01*
X148302008Y-120055913D02*
X148345858Y-120183262D01*
X148345858Y-120183262D02*
X148410583Y-120267811D01*
X148410583Y-120267811D02*
X148560907Y-120394110D01*
X148560907Y-120394110D02*
X148689306Y-120456735D01*
X148689306Y-120456735D02*
X148881380Y-120497434D01*
X148881380Y-120497434D02*
X148987854Y-120496384D01*
X148987854Y-120496384D02*
X149115203Y-120452534D01*
X149115203Y-120452534D02*
X149220627Y-120345010D01*
X149220627Y-120345010D02*
X149325001Y-120131011D01*
X148886630Y-121029806D02*
X148287434Y-120737558D01*
X147987836Y-120591434D02*
X148051511Y-120569509D01*
X148051511Y-120569509D02*
X148073436Y-120633184D01*
X148073436Y-120633184D02*
X148009761Y-120655109D01*
X148009761Y-120655109D02*
X147987836Y-120591434D01*
X147987836Y-120591434D02*
X148073436Y-120633184D01*
X148615258Y-121586201D02*
X148614208Y-121479727D01*
X148614208Y-121479727D02*
X148592283Y-121416053D01*
X148592283Y-121416053D02*
X148527558Y-121331503D01*
X148527558Y-121331503D02*
X148270760Y-121206254D01*
X148270760Y-121206254D02*
X148164286Y-121207304D01*
X148164286Y-121207304D02*
X148100611Y-121229229D01*
X148100611Y-121229229D02*
X148016062Y-121293954D01*
X148016062Y-121293954D02*
X147953437Y-121422353D01*
X147953437Y-121422353D02*
X147954487Y-121528827D01*
X147954487Y-121528827D02*
X147976412Y-121592502D01*
X147976412Y-121592502D02*
X148041137Y-121677051D01*
X148041137Y-121677051D02*
X148297935Y-121802300D01*
X148297935Y-121802300D02*
X148404409Y-121801250D01*
X148404409Y-121801250D02*
X148468084Y-121779325D01*
X148468084Y-121779325D02*
X148552633Y-121714601D01*
X148552633Y-121714601D02*
X148615258Y-121586201D01*
X148093387Y-122656194D02*
X147194593Y-122217823D01*
X148050588Y-122635320D02*
X148135137Y-122570595D01*
X148135137Y-122570595D02*
X148218636Y-122399396D01*
X148218636Y-122399396D02*
X148217586Y-122292922D01*
X148217586Y-122292922D02*
X148195661Y-122229247D01*
X148195661Y-122229247D02*
X148130937Y-122144698D01*
X148130937Y-122144698D02*
X147874138Y-122019449D01*
X147874138Y-122019449D02*
X147767664Y-122020499D01*
X147767664Y-122020499D02*
X147703990Y-122042424D01*
X147703990Y-122042424D02*
X147619440Y-122107149D01*
X147619440Y-122107149D02*
X147535941Y-122278348D01*
X147535941Y-122278348D02*
X147536991Y-122384822D01*
X147674841Y-123405715D02*
X147759390Y-123340990D01*
X147759390Y-123340990D02*
X147842889Y-123169791D01*
X147842889Y-123169791D02*
X147841839Y-123063317D01*
X147841839Y-123063317D02*
X147777115Y-122978767D01*
X147777115Y-122978767D02*
X147434717Y-122811769D01*
X147434717Y-122811769D02*
X147328243Y-122812819D01*
X147328243Y-122812819D02*
X147243693Y-122877544D01*
X147243693Y-122877544D02*
X147160194Y-123048743D01*
X147160194Y-123048743D02*
X147161244Y-123155217D01*
X147161244Y-123155217D02*
X147225969Y-123239766D01*
X147225969Y-123239766D02*
X147311568Y-123281516D01*
X147311568Y-123281516D02*
X147605916Y-122895268D01*
X152529936Y-122912726D02*
X151631142Y-122474355D01*
X151631142Y-122474355D02*
X151526767Y-122688353D01*
X151526767Y-122688353D02*
X151506943Y-122837627D01*
X151506943Y-122837627D02*
X151550793Y-122964976D01*
X151550793Y-122964976D02*
X151615517Y-123049526D01*
X151615517Y-123049526D02*
X151765841Y-123175825D01*
X151765841Y-123175825D02*
X151894240Y-123238449D01*
X151894240Y-123238449D02*
X152086314Y-123279149D01*
X152086314Y-123279149D02*
X152192788Y-123278099D01*
X152192788Y-123278099D02*
X152320137Y-123234249D01*
X152320137Y-123234249D02*
X152425562Y-123126724D01*
X152425562Y-123126724D02*
X152529936Y-122912726D01*
X152070690Y-123854320D02*
X151987190Y-124025518D01*
X151987190Y-124025518D02*
X151902641Y-124090243D01*
X151902641Y-124090243D02*
X151838966Y-124112168D01*
X151838966Y-124112168D02*
X151668818Y-124135143D01*
X151668818Y-124135143D02*
X151476744Y-124094443D01*
X151476744Y-124094443D02*
X151134346Y-123927445D01*
X151134346Y-123927445D02*
X151069622Y-123842896D01*
X151069622Y-123842896D02*
X151047697Y-123779221D01*
X151047697Y-123779221D02*
X151046647Y-123672747D01*
X151046647Y-123672747D02*
X151130146Y-123501548D01*
X151130146Y-123501548D02*
X151214695Y-123436823D01*
X151214695Y-123436823D02*
X151278370Y-123414898D01*
X151278370Y-123414898D02*
X151384844Y-123413848D01*
X151384844Y-123413848D02*
X151598843Y-123518222D01*
X151598843Y-123518222D02*
X151663567Y-123602772D01*
X151663567Y-123602772D02*
X151685492Y-123666446D01*
X151685492Y-123666446D02*
X151686542Y-123772921D01*
X151686542Y-123772921D02*
X151603043Y-123944119D01*
X151603043Y-123944119D02*
X151518494Y-124008844D01*
X151518494Y-124008844D02*
X151454819Y-124030769D01*
X151454819Y-124030769D02*
X151348345Y-124031819D01*
X141825001Y-135631011D02*
X140926207Y-135192640D01*
X140926207Y-135192640D02*
X140821833Y-135406639D01*
X140821833Y-135406639D02*
X140802008Y-135555913D01*
X140802008Y-135555913D02*
X140845858Y-135683262D01*
X140845858Y-135683262D02*
X140910583Y-135767811D01*
X140910583Y-135767811D02*
X141060907Y-135894110D01*
X141060907Y-135894110D02*
X141189306Y-135956735D01*
X141189306Y-135956735D02*
X141381380Y-135997434D01*
X141381380Y-135997434D02*
X141487854Y-135996384D01*
X141487854Y-135996384D02*
X141615203Y-135952534D01*
X141615203Y-135952534D02*
X141720627Y-135845010D01*
X141720627Y-135845010D02*
X141825001Y-135631011D01*
X141386630Y-136529806D02*
X140787434Y-136237558D01*
X140487836Y-136091434D02*
X140551511Y-136069509D01*
X140551511Y-136069509D02*
X140573436Y-136133184D01*
X140573436Y-136133184D02*
X140509761Y-136155109D01*
X140509761Y-136155109D02*
X140487836Y-136091434D01*
X140487836Y-136091434D02*
X140573436Y-136133184D01*
X141115258Y-137086201D02*
X141114208Y-136979727D01*
X141114208Y-136979727D02*
X141092283Y-136916053D01*
X141092283Y-136916053D02*
X141027558Y-136831503D01*
X141027558Y-136831503D02*
X140770760Y-136706254D01*
X140770760Y-136706254D02*
X140664286Y-136707304D01*
X140664286Y-136707304D02*
X140600611Y-136729229D01*
X140600611Y-136729229D02*
X140516062Y-136793954D01*
X140516062Y-136793954D02*
X140453437Y-136922353D01*
X140453437Y-136922353D02*
X140454487Y-137028827D01*
X140454487Y-137028827D02*
X140476412Y-137092502D01*
X140476412Y-137092502D02*
X140541137Y-137177051D01*
X140541137Y-137177051D02*
X140797935Y-137302300D01*
X140797935Y-137302300D02*
X140904409Y-137301250D01*
X140904409Y-137301250D02*
X140968084Y-137279325D01*
X140968084Y-137279325D02*
X141052633Y-137214601D01*
X141052633Y-137214601D02*
X141115258Y-137086201D01*
X140593387Y-138156194D02*
X139694593Y-137717823D01*
X140550588Y-138135320D02*
X140635137Y-138070595D01*
X140635137Y-138070595D02*
X140718636Y-137899396D01*
X140718636Y-137899396D02*
X140717586Y-137792922D01*
X140717586Y-137792922D02*
X140695661Y-137729247D01*
X140695661Y-137729247D02*
X140630937Y-137644698D01*
X140630937Y-137644698D02*
X140374138Y-137519449D01*
X140374138Y-137519449D02*
X140267664Y-137520499D01*
X140267664Y-137520499D02*
X140203990Y-137542424D01*
X140203990Y-137542424D02*
X140119440Y-137607149D01*
X140119440Y-137607149D02*
X140035941Y-137778348D01*
X140035941Y-137778348D02*
X140036991Y-137884822D01*
X140174841Y-138905715D02*
X140259390Y-138840990D01*
X140259390Y-138840990D02*
X140342889Y-138669791D01*
X140342889Y-138669791D02*
X140341839Y-138563317D01*
X140341839Y-138563317D02*
X140277115Y-138478767D01*
X140277115Y-138478767D02*
X139934717Y-138311769D01*
X139934717Y-138311769D02*
X139828243Y-138312819D01*
X139828243Y-138312819D02*
X139743693Y-138377544D01*
X139743693Y-138377544D02*
X139660194Y-138548743D01*
X139660194Y-138548743D02*
X139661244Y-138655217D01*
X139661244Y-138655217D02*
X139725969Y-138739766D01*
X139725969Y-138739766D02*
X139811568Y-138781516D01*
X139811568Y-138781516D02*
X140105916Y-138395268D01*
X145029936Y-138412726D02*
X144131142Y-137974355D01*
X144131142Y-137974355D02*
X144026767Y-138188353D01*
X144026767Y-138188353D02*
X144006943Y-138337627D01*
X144006943Y-138337627D02*
X144050793Y-138464976D01*
X144050793Y-138464976D02*
X144115517Y-138549526D01*
X144115517Y-138549526D02*
X144265841Y-138675825D01*
X144265841Y-138675825D02*
X144394240Y-138738449D01*
X144394240Y-138738449D02*
X144586314Y-138779149D01*
X144586314Y-138779149D02*
X144692788Y-138778099D01*
X144692788Y-138778099D02*
X144820137Y-138734249D01*
X144820137Y-138734249D02*
X144925562Y-138626724D01*
X144925562Y-138626724D02*
X145029936Y-138412726D01*
X144015343Y-139189421D02*
X144014293Y-139082947D01*
X144014293Y-139082947D02*
X143992368Y-139019272D01*
X143992368Y-139019272D02*
X143927644Y-138934723D01*
X143927644Y-138934723D02*
X143884844Y-138913848D01*
X143884844Y-138913848D02*
X143778370Y-138914898D01*
X143778370Y-138914898D02*
X143714695Y-138936823D01*
X143714695Y-138936823D02*
X143630146Y-139001548D01*
X143630146Y-139001548D02*
X143546647Y-139172747D01*
X143546647Y-139172747D02*
X143547697Y-139279221D01*
X143547697Y-139279221D02*
X143569622Y-139342896D01*
X143569622Y-139342896D02*
X143634346Y-139427445D01*
X143634346Y-139427445D02*
X143677146Y-139448320D01*
X143677146Y-139448320D02*
X143783620Y-139447270D01*
X143783620Y-139447270D02*
X143847295Y-139425345D01*
X143847295Y-139425345D02*
X143931844Y-139360620D01*
X143931844Y-139360620D02*
X144015343Y-139189421D01*
X144015343Y-139189421D02*
X144099893Y-139124697D01*
X144099893Y-139124697D02*
X144163567Y-139102772D01*
X144163567Y-139102772D02*
X144270042Y-139101722D01*
X144270042Y-139101722D02*
X144441240Y-139185221D01*
X144441240Y-139185221D02*
X144505965Y-139269770D01*
X144505965Y-139269770D02*
X144527890Y-139333445D01*
X144527890Y-139333445D02*
X144528940Y-139439919D01*
X144528940Y-139439919D02*
X144445441Y-139611118D01*
X144445441Y-139611118D02*
X144360891Y-139675843D01*
X144360891Y-139675843D02*
X144297217Y-139697767D01*
X144297217Y-139697767D02*
X144190743Y-139698818D01*
X144190743Y-139698818D02*
X144019544Y-139615318D01*
X144019544Y-139615318D02*
X143954819Y-139530769D01*
X143954819Y-139530769D02*
X143932894Y-139467094D01*
X143932894Y-139467094D02*
X143931844Y-139360620D01*
X134825001Y-150631011D02*
X133926207Y-150192640D01*
X133926207Y-150192640D02*
X133821833Y-150406639D01*
X133821833Y-150406639D02*
X133802008Y-150555913D01*
X133802008Y-150555913D02*
X133845858Y-150683262D01*
X133845858Y-150683262D02*
X133910583Y-150767811D01*
X133910583Y-150767811D02*
X134060907Y-150894110D01*
X134060907Y-150894110D02*
X134189306Y-150956735D01*
X134189306Y-150956735D02*
X134381380Y-150997434D01*
X134381380Y-150997434D02*
X134487854Y-150996384D01*
X134487854Y-150996384D02*
X134615203Y-150952534D01*
X134615203Y-150952534D02*
X134720627Y-150845010D01*
X134720627Y-150845010D02*
X134825001Y-150631011D01*
X134386630Y-151529806D02*
X133787434Y-151237558D01*
X133487836Y-151091434D02*
X133551511Y-151069509D01*
X133551511Y-151069509D02*
X133573436Y-151133184D01*
X133573436Y-151133184D02*
X133509761Y-151155109D01*
X133509761Y-151155109D02*
X133487836Y-151091434D01*
X133487836Y-151091434D02*
X133573436Y-151133184D01*
X134115258Y-152086201D02*
X134114208Y-151979727D01*
X134114208Y-151979727D02*
X134092283Y-151916053D01*
X134092283Y-151916053D02*
X134027558Y-151831503D01*
X134027558Y-151831503D02*
X133770760Y-151706254D01*
X133770760Y-151706254D02*
X133664286Y-151707304D01*
X133664286Y-151707304D02*
X133600611Y-151729229D01*
X133600611Y-151729229D02*
X133516062Y-151793954D01*
X133516062Y-151793954D02*
X133453437Y-151922353D01*
X133453437Y-151922353D02*
X133454487Y-152028827D01*
X133454487Y-152028827D02*
X133476412Y-152092502D01*
X133476412Y-152092502D02*
X133541137Y-152177051D01*
X133541137Y-152177051D02*
X133797935Y-152302300D01*
X133797935Y-152302300D02*
X133904409Y-152301250D01*
X133904409Y-152301250D02*
X133968084Y-152279325D01*
X133968084Y-152279325D02*
X134052633Y-152214601D01*
X134052633Y-152214601D02*
X134115258Y-152086201D01*
X133593387Y-153156194D02*
X132694593Y-152717823D01*
X133550588Y-153135320D02*
X133635137Y-153070595D01*
X133635137Y-153070595D02*
X133718636Y-152899396D01*
X133718636Y-152899396D02*
X133717586Y-152792922D01*
X133717586Y-152792922D02*
X133695661Y-152729247D01*
X133695661Y-152729247D02*
X133630937Y-152644698D01*
X133630937Y-152644698D02*
X133374138Y-152519449D01*
X133374138Y-152519449D02*
X133267664Y-152520499D01*
X133267664Y-152520499D02*
X133203990Y-152542424D01*
X133203990Y-152542424D02*
X133119440Y-152607149D01*
X133119440Y-152607149D02*
X133035941Y-152778348D01*
X133035941Y-152778348D02*
X133036991Y-152884822D01*
X133174841Y-153905715D02*
X133259390Y-153840990D01*
X133259390Y-153840990D02*
X133342889Y-153669791D01*
X133342889Y-153669791D02*
X133341839Y-153563317D01*
X133341839Y-153563317D02*
X133277115Y-153478767D01*
X133277115Y-153478767D02*
X132934717Y-153311769D01*
X132934717Y-153311769D02*
X132828243Y-153312819D01*
X132828243Y-153312819D02*
X132743693Y-153377544D01*
X132743693Y-153377544D02*
X132660194Y-153548743D01*
X132660194Y-153548743D02*
X132661244Y-153655217D01*
X132661244Y-153655217D02*
X132725969Y-153739766D01*
X132725969Y-153739766D02*
X132811568Y-153781516D01*
X132811568Y-153781516D02*
X133105916Y-153395268D01*
X138029936Y-153412726D02*
X137131142Y-152974355D01*
X137131142Y-152974355D02*
X137026767Y-153188353D01*
X137026767Y-153188353D02*
X137006943Y-153337627D01*
X137006943Y-153337627D02*
X137050793Y-153464976D01*
X137050793Y-153464976D02*
X137115517Y-153549526D01*
X137115517Y-153549526D02*
X137265841Y-153675825D01*
X137265841Y-153675825D02*
X137394240Y-153738449D01*
X137394240Y-153738449D02*
X137586314Y-153779149D01*
X137586314Y-153779149D02*
X137692788Y-153778099D01*
X137692788Y-153778099D02*
X137820137Y-153734249D01*
X137820137Y-153734249D02*
X137925562Y-153626724D01*
X137925562Y-153626724D02*
X138029936Y-153412726D01*
X136734520Y-153787549D02*
X136442273Y-154386745D01*
X136442273Y-154386745D02*
X137528940Y-154439919D01*
X121234862Y-120886435D02*
X120253234Y-120695626D01*
X120253234Y-120695626D02*
X120207804Y-120929347D01*
X120207804Y-120929347D02*
X120227289Y-121078665D01*
X120227289Y-121078665D02*
X120302605Y-121190326D01*
X120302605Y-121190326D02*
X120387008Y-121255242D01*
X120387008Y-121255242D02*
X120564898Y-121338331D01*
X120564898Y-121338331D02*
X120705131Y-121365589D01*
X120705131Y-121365589D02*
X120901193Y-121355190D01*
X120901193Y-121355190D02*
X121003768Y-121326618D01*
X121003768Y-121326618D02*
X121115428Y-121251302D01*
X121115428Y-121251302D02*
X121189431Y-121120156D01*
X121189431Y-121120156D02*
X121234862Y-120886435D01*
X121044053Y-121868062D02*
X120389635Y-121740856D01*
X120062425Y-121677253D02*
X120118256Y-121639595D01*
X120118256Y-121639595D02*
X120155914Y-121695425D01*
X120155914Y-121695425D02*
X120100083Y-121733083D01*
X120100083Y-121733083D02*
X120062425Y-121677253D01*
X120062425Y-121677253D02*
X120155914Y-121695425D01*
X120925933Y-122475735D02*
X120897361Y-122373161D01*
X120897361Y-122373161D02*
X120859703Y-122317331D01*
X120859703Y-122317331D02*
X120775301Y-122252414D01*
X120775301Y-122252414D02*
X120494836Y-122197897D01*
X120494836Y-122197897D02*
X120392261Y-122226469D01*
X120392261Y-122226469D02*
X120336431Y-122264127D01*
X120336431Y-122264127D02*
X120271515Y-122348529D01*
X120271515Y-122348529D02*
X120244256Y-122488762D01*
X120244256Y-122488762D02*
X120272828Y-122591336D01*
X120272828Y-122591336D02*
X120310486Y-122647167D01*
X120310486Y-122647167D02*
X120394888Y-122712083D01*
X120394888Y-122712083D02*
X120675353Y-122766600D01*
X120675353Y-122766600D02*
X120777928Y-122738028D01*
X120777928Y-122738028D02*
X120833758Y-122700370D01*
X120833758Y-122700370D02*
X120898674Y-122615968D01*
X120898674Y-122615968D02*
X120925933Y-122475735D01*
X120698779Y-123644339D02*
X119717152Y-123453530D01*
X120652035Y-123635253D02*
X120716952Y-123550851D01*
X120716952Y-123550851D02*
X120753296Y-123363874D01*
X120753296Y-123363874D02*
X120724724Y-123261300D01*
X120724724Y-123261300D02*
X120687066Y-123205470D01*
X120687066Y-123205470D02*
X120602664Y-123140553D01*
X120602664Y-123140553D02*
X120322199Y-123086036D01*
X120322199Y-123086036D02*
X120219625Y-123114608D01*
X120219625Y-123114608D02*
X120163794Y-123152266D01*
X120163794Y-123152266D02*
X120098878Y-123236668D01*
X120098878Y-123236668D02*
X120062533Y-123423645D01*
X120062533Y-123423645D02*
X120091105Y-123526220D01*
X120488485Y-124476648D02*
X120553401Y-124392246D01*
X120553401Y-124392246D02*
X120589746Y-124205269D01*
X120589746Y-124205269D02*
X120561174Y-124102695D01*
X120561174Y-124102695D02*
X120476772Y-124037778D01*
X120476772Y-124037778D02*
X120102818Y-123965089D01*
X120102818Y-123965089D02*
X120000244Y-123993661D01*
X120000244Y-123993661D02*
X119935327Y-124078063D01*
X119935327Y-124078063D02*
X119898983Y-124265040D01*
X119898983Y-124265040D02*
X119927555Y-124367614D01*
X119927555Y-124367614D02*
X120011957Y-124432531D01*
X120011957Y-124432531D02*
X120105445Y-124450703D01*
X120105445Y-124450703D02*
X120289795Y-124001434D01*
X125050551Y-122743867D02*
X124068924Y-122553058D01*
X124068924Y-122553058D02*
X124023493Y-122786779D01*
X124023493Y-122786779D02*
X124042979Y-122936098D01*
X124042979Y-122936098D02*
X124118295Y-123047758D01*
X124118295Y-123047758D02*
X124202697Y-123112675D01*
X124202697Y-123112675D02*
X124380588Y-123195763D01*
X124380588Y-123195763D02*
X124520820Y-123223022D01*
X124520820Y-123223022D02*
X124716883Y-123212622D01*
X124716883Y-123212622D02*
X124819457Y-123184050D01*
X124819457Y-123184050D02*
X124931118Y-123108734D01*
X124931118Y-123108734D02*
X125005121Y-122977588D01*
X125005121Y-122977588D02*
X125050551Y-122743867D01*
X123796340Y-123955383D02*
X123832684Y-123768406D01*
X123832684Y-123768406D02*
X123897601Y-123684004D01*
X123897601Y-123684004D02*
X123953431Y-123646346D01*
X123953431Y-123646346D02*
X124111836Y-123580116D01*
X124111836Y-123580116D02*
X124307899Y-123569717D01*
X124307899Y-123569717D02*
X124681852Y-123642406D01*
X124681852Y-123642406D02*
X124766254Y-123707322D01*
X124766254Y-123707322D02*
X124803912Y-123763152D01*
X124803912Y-123763152D02*
X124832484Y-123865727D01*
X124832484Y-123865727D02*
X124796139Y-124052703D01*
X124796139Y-124052703D02*
X124731223Y-124137106D01*
X124731223Y-124137106D02*
X124675393Y-124174764D01*
X124675393Y-124174764D02*
X124572818Y-124203335D01*
X124572818Y-124203335D02*
X124339097Y-124157905D01*
X124339097Y-124157905D02*
X124254695Y-124092988D01*
X124254695Y-124092988D02*
X124217037Y-124037158D01*
X124217037Y-124037158D02*
X124188465Y-123934584D01*
X124188465Y-123934584D02*
X124224810Y-123747607D01*
X124224810Y-123747607D02*
X124289726Y-123663205D01*
X124289726Y-123663205D02*
X124345557Y-123625547D01*
X124345557Y-123625547D02*
X124448131Y-123596975D01*
X118234862Y-137886435D02*
X117253234Y-137695626D01*
X117253234Y-137695626D02*
X117207804Y-137929347D01*
X117207804Y-137929347D02*
X117227289Y-138078665D01*
X117227289Y-138078665D02*
X117302605Y-138190326D01*
X117302605Y-138190326D02*
X117387008Y-138255242D01*
X117387008Y-138255242D02*
X117564898Y-138338331D01*
X117564898Y-138338331D02*
X117705131Y-138365589D01*
X117705131Y-138365589D02*
X117901193Y-138355190D01*
X117901193Y-138355190D02*
X118003768Y-138326618D01*
X118003768Y-138326618D02*
X118115428Y-138251302D01*
X118115428Y-138251302D02*
X118189431Y-138120156D01*
X118189431Y-138120156D02*
X118234862Y-137886435D01*
X118044053Y-138868062D02*
X117389635Y-138740856D01*
X117062425Y-138677253D02*
X117118256Y-138639595D01*
X117118256Y-138639595D02*
X117155914Y-138695425D01*
X117155914Y-138695425D02*
X117100083Y-138733083D01*
X117100083Y-138733083D02*
X117062425Y-138677253D01*
X117062425Y-138677253D02*
X117155914Y-138695425D01*
X117925933Y-139475735D02*
X117897361Y-139373161D01*
X117897361Y-139373161D02*
X117859703Y-139317331D01*
X117859703Y-139317331D02*
X117775301Y-139252414D01*
X117775301Y-139252414D02*
X117494836Y-139197897D01*
X117494836Y-139197897D02*
X117392261Y-139226469D01*
X117392261Y-139226469D02*
X117336431Y-139264127D01*
X117336431Y-139264127D02*
X117271515Y-139348529D01*
X117271515Y-139348529D02*
X117244256Y-139488762D01*
X117244256Y-139488762D02*
X117272828Y-139591336D01*
X117272828Y-139591336D02*
X117310486Y-139647167D01*
X117310486Y-139647167D02*
X117394888Y-139712083D01*
X117394888Y-139712083D02*
X117675353Y-139766600D01*
X117675353Y-139766600D02*
X117777928Y-139738028D01*
X117777928Y-139738028D02*
X117833758Y-139700370D01*
X117833758Y-139700370D02*
X117898674Y-139615968D01*
X117898674Y-139615968D02*
X117925933Y-139475735D01*
X117698779Y-140644339D02*
X116717152Y-140453530D01*
X117652035Y-140635253D02*
X117716952Y-140550851D01*
X117716952Y-140550851D02*
X117753296Y-140363874D01*
X117753296Y-140363874D02*
X117724724Y-140261300D01*
X117724724Y-140261300D02*
X117687066Y-140205470D01*
X117687066Y-140205470D02*
X117602664Y-140140553D01*
X117602664Y-140140553D02*
X117322199Y-140086036D01*
X117322199Y-140086036D02*
X117219625Y-140114608D01*
X117219625Y-140114608D02*
X117163794Y-140152266D01*
X117163794Y-140152266D02*
X117098878Y-140236668D01*
X117098878Y-140236668D02*
X117062533Y-140423645D01*
X117062533Y-140423645D02*
X117091105Y-140526220D01*
X117488485Y-141476648D02*
X117553401Y-141392246D01*
X117553401Y-141392246D02*
X117589746Y-141205269D01*
X117589746Y-141205269D02*
X117561174Y-141102695D01*
X117561174Y-141102695D02*
X117476772Y-141037778D01*
X117476772Y-141037778D02*
X117102818Y-140965089D01*
X117102818Y-140965089D02*
X117000244Y-140993661D01*
X117000244Y-140993661D02*
X116935327Y-141078063D01*
X116935327Y-141078063D02*
X116898983Y-141265040D01*
X116898983Y-141265040D02*
X116927555Y-141367614D01*
X116927555Y-141367614D02*
X117011957Y-141432531D01*
X117011957Y-141432531D02*
X117105445Y-141450703D01*
X117105445Y-141450703D02*
X117289795Y-141001434D01*
X122050551Y-139743867D02*
X121068924Y-139553058D01*
X121068924Y-139553058D02*
X121023493Y-139786779D01*
X121023493Y-139786779D02*
X121042979Y-139936098D01*
X121042979Y-139936098D02*
X121118295Y-140047758D01*
X121118295Y-140047758D02*
X121202697Y-140112675D01*
X121202697Y-140112675D02*
X121380588Y-140195763D01*
X121380588Y-140195763D02*
X121520820Y-140223022D01*
X121520820Y-140223022D02*
X121716883Y-140212622D01*
X121716883Y-140212622D02*
X121819457Y-140184050D01*
X121819457Y-140184050D02*
X121931118Y-140108734D01*
X121931118Y-140108734D02*
X122005121Y-139977588D01*
X122005121Y-139977588D02*
X122050551Y-139743867D01*
X120787254Y-141002127D02*
X120878115Y-140534685D01*
X120878115Y-140534685D02*
X121354643Y-140578803D01*
X121354643Y-140578803D02*
X121298813Y-140616461D01*
X121298813Y-140616461D02*
X121233896Y-140700863D01*
X121233896Y-140700863D02*
X121188465Y-140934584D01*
X121188465Y-140934584D02*
X121217037Y-141037158D01*
X121217037Y-141037158D02*
X121254695Y-141092988D01*
X121254695Y-141092988D02*
X121339097Y-141157905D01*
X121339097Y-141157905D02*
X121572818Y-141203335D01*
X121572818Y-141203335D02*
X121675393Y-141174764D01*
X121675393Y-141174764D02*
X121731223Y-141137106D01*
X121731223Y-141137106D02*
X121796139Y-141052703D01*
X121796139Y-141052703D02*
X121841570Y-140818983D01*
X121841570Y-140818983D02*
X121812998Y-140716408D01*
X121812998Y-140716408D02*
X121775340Y-140660578D01*
X114734862Y-154386435D02*
X113753234Y-154195626D01*
X113753234Y-154195626D02*
X113707804Y-154429347D01*
X113707804Y-154429347D02*
X113727289Y-154578665D01*
X113727289Y-154578665D02*
X113802605Y-154690326D01*
X113802605Y-154690326D02*
X113887008Y-154755242D01*
X113887008Y-154755242D02*
X114064898Y-154838331D01*
X114064898Y-154838331D02*
X114205131Y-154865589D01*
X114205131Y-154865589D02*
X114401193Y-154855190D01*
X114401193Y-154855190D02*
X114503768Y-154826618D01*
X114503768Y-154826618D02*
X114615428Y-154751302D01*
X114615428Y-154751302D02*
X114689431Y-154620156D01*
X114689431Y-154620156D02*
X114734862Y-154386435D01*
X114544053Y-155368062D02*
X113889635Y-155240856D01*
X113562425Y-155177253D02*
X113618256Y-155139595D01*
X113618256Y-155139595D02*
X113655914Y-155195425D01*
X113655914Y-155195425D02*
X113600083Y-155233083D01*
X113600083Y-155233083D02*
X113562425Y-155177253D01*
X113562425Y-155177253D02*
X113655914Y-155195425D01*
X114425933Y-155975735D02*
X114397361Y-155873161D01*
X114397361Y-155873161D02*
X114359703Y-155817331D01*
X114359703Y-155817331D02*
X114275301Y-155752414D01*
X114275301Y-155752414D02*
X113994836Y-155697897D01*
X113994836Y-155697897D02*
X113892261Y-155726469D01*
X113892261Y-155726469D02*
X113836431Y-155764127D01*
X113836431Y-155764127D02*
X113771515Y-155848529D01*
X113771515Y-155848529D02*
X113744256Y-155988762D01*
X113744256Y-155988762D02*
X113772828Y-156091336D01*
X113772828Y-156091336D02*
X113810486Y-156147167D01*
X113810486Y-156147167D02*
X113894888Y-156212083D01*
X113894888Y-156212083D02*
X114175353Y-156266600D01*
X114175353Y-156266600D02*
X114277928Y-156238028D01*
X114277928Y-156238028D02*
X114333758Y-156200370D01*
X114333758Y-156200370D02*
X114398674Y-156115968D01*
X114398674Y-156115968D02*
X114425933Y-155975735D01*
X114198779Y-157144339D02*
X113217152Y-156953530D01*
X114152035Y-157135253D02*
X114216952Y-157050851D01*
X114216952Y-157050851D02*
X114253296Y-156863874D01*
X114253296Y-156863874D02*
X114224724Y-156761300D01*
X114224724Y-156761300D02*
X114187066Y-156705470D01*
X114187066Y-156705470D02*
X114102664Y-156640553D01*
X114102664Y-156640553D02*
X113822199Y-156586036D01*
X113822199Y-156586036D02*
X113719625Y-156614608D01*
X113719625Y-156614608D02*
X113663794Y-156652266D01*
X113663794Y-156652266D02*
X113598878Y-156736668D01*
X113598878Y-156736668D02*
X113562533Y-156923645D01*
X113562533Y-156923645D02*
X113591105Y-157026220D01*
X113988485Y-157976648D02*
X114053401Y-157892246D01*
X114053401Y-157892246D02*
X114089746Y-157705269D01*
X114089746Y-157705269D02*
X114061174Y-157602695D01*
X114061174Y-157602695D02*
X113976772Y-157537778D01*
X113976772Y-157537778D02*
X113602818Y-157465089D01*
X113602818Y-157465089D02*
X113500244Y-157493661D01*
X113500244Y-157493661D02*
X113435327Y-157578063D01*
X113435327Y-157578063D02*
X113398983Y-157765040D01*
X113398983Y-157765040D02*
X113427555Y-157867614D01*
X113427555Y-157867614D02*
X113511957Y-157932531D01*
X113511957Y-157932531D02*
X113605445Y-157950703D01*
X113605445Y-157950703D02*
X113789795Y-157501434D01*
X118550551Y-156243867D02*
X117568924Y-156053058D01*
X117568924Y-156053058D02*
X117523493Y-156286779D01*
X117523493Y-156286779D02*
X117542979Y-156436098D01*
X117542979Y-156436098D02*
X117618295Y-156547758D01*
X117618295Y-156547758D02*
X117702697Y-156612675D01*
X117702697Y-156612675D02*
X117880588Y-156695763D01*
X117880588Y-156695763D02*
X118020820Y-156723022D01*
X118020820Y-156723022D02*
X118216883Y-156712622D01*
X118216883Y-156712622D02*
X118319457Y-156684050D01*
X118319457Y-156684050D02*
X118431118Y-156608734D01*
X118431118Y-156608734D02*
X118505121Y-156477588D01*
X118505121Y-156477588D02*
X118550551Y-156243867D01*
X117623549Y-157518986D02*
X118277967Y-157646192D01*
X117295026Y-157212576D02*
X118041619Y-157115147D01*
X118041619Y-157115147D02*
X117923500Y-157722821D01*
X99555466Y-122004741D02*
X98560945Y-121900213D01*
X98560945Y-121900213D02*
X98536057Y-122137004D01*
X98536057Y-122137004D02*
X98568482Y-122284056D01*
X98568482Y-122284056D02*
X98653244Y-122388727D01*
X98653244Y-122388727D02*
X98742982Y-122446041D01*
X98742982Y-122446041D02*
X98927438Y-122513309D01*
X98927438Y-122513309D02*
X99069512Y-122528242D01*
X99069512Y-122528242D02*
X99263923Y-122500794D01*
X99263923Y-122500794D02*
X99363616Y-122463391D01*
X99363616Y-122463391D02*
X99468288Y-122378629D01*
X99468288Y-122378629D02*
X99530579Y-122241532D01*
X99530579Y-122241532D02*
X99555466Y-122004741D01*
X99450938Y-122999263D02*
X98787923Y-122929578D01*
X98456416Y-122894735D02*
X98508752Y-122852354D01*
X98508752Y-122852354D02*
X98551132Y-122904690D01*
X98551132Y-122904690D02*
X98498797Y-122947071D01*
X98498797Y-122947071D02*
X98456416Y-122894735D01*
X98456416Y-122894735D02*
X98551132Y-122904690D01*
X99386230Y-123614919D02*
X99348827Y-123515225D01*
X99348827Y-123515225D02*
X99306446Y-123462890D01*
X99306446Y-123462890D02*
X99216707Y-123405576D01*
X99216707Y-123405576D02*
X98932558Y-123375711D01*
X98932558Y-123375711D02*
X98832864Y-123413114D01*
X98832864Y-123413114D02*
X98780529Y-123455495D01*
X98780529Y-123455495D02*
X98723215Y-123545234D01*
X98723215Y-123545234D02*
X98708283Y-123687308D01*
X98708283Y-123687308D02*
X98745686Y-123787002D01*
X98745686Y-123787002D02*
X98788066Y-123839338D01*
X98788066Y-123839338D02*
X98877805Y-123896651D01*
X98877805Y-123896651D02*
X99161954Y-123926516D01*
X99161954Y-123926516D02*
X99261648Y-123889113D01*
X99261648Y-123889113D02*
X99313984Y-123846733D01*
X99313984Y-123846733D02*
X99371297Y-123756994D01*
X99371297Y-123756994D02*
X99386230Y-123614919D01*
X99261791Y-124798874D02*
X98267269Y-124694346D01*
X99214433Y-124793896D02*
X99271746Y-124704158D01*
X99271746Y-124704158D02*
X99291657Y-124514725D01*
X99291657Y-124514725D02*
X99254253Y-124415031D01*
X99254253Y-124415031D02*
X99211873Y-124362695D01*
X99211873Y-124362695D02*
X99122134Y-124305382D01*
X99122134Y-124305382D02*
X98837985Y-124275517D01*
X98837985Y-124275517D02*
X98738291Y-124312920D01*
X98738291Y-124312920D02*
X98685955Y-124355300D01*
X98685955Y-124355300D02*
X98628642Y-124445039D01*
X98628642Y-124445039D02*
X98608732Y-124634472D01*
X98608732Y-124634472D02*
X98646135Y-124734166D01*
X99124837Y-125646344D02*
X99182151Y-125556605D01*
X99182151Y-125556605D02*
X99202061Y-125367172D01*
X99202061Y-125367172D02*
X99164658Y-125267478D01*
X99164658Y-125267478D02*
X99074919Y-125210165D01*
X99074919Y-125210165D02*
X98696053Y-125170345D01*
X98696053Y-125170345D02*
X98596359Y-125207748D01*
X98596359Y-125207748D02*
X98539046Y-125297487D01*
X98539046Y-125297487D02*
X98519136Y-125486919D01*
X98519136Y-125486919D02*
X98556539Y-125586613D01*
X98556539Y-125586613D02*
X98646278Y-125643927D01*
X98646278Y-125643927D02*
X98740994Y-125653882D01*
X98740994Y-125653882D02*
X98885486Y-125190255D01*
X103518523Y-123522547D02*
X102524001Y-123418018D01*
X102524001Y-123418018D02*
X102499113Y-123654809D01*
X102499113Y-123654809D02*
X102531539Y-123801861D01*
X102531539Y-123801861D02*
X102616300Y-123906533D01*
X102616300Y-123906533D02*
X102706039Y-123963846D01*
X102706039Y-123963846D02*
X102890494Y-124031114D01*
X102890494Y-124031114D02*
X103032569Y-124046047D01*
X103032569Y-124046047D02*
X103226979Y-124018599D01*
X103226979Y-124018599D02*
X103326673Y-123981196D01*
X103326673Y-123981196D02*
X103431344Y-123896435D01*
X103431344Y-123896435D02*
X103493635Y-123759338D01*
X103493635Y-123759338D02*
X103518523Y-123522547D01*
X102429428Y-124317824D02*
X102364720Y-124933480D01*
X102364720Y-124933480D02*
X102778428Y-124641793D01*
X102778428Y-124641793D02*
X102763495Y-124783868D01*
X102763495Y-124783868D02*
X102800898Y-124883562D01*
X102800898Y-124883562D02*
X102843279Y-124935897D01*
X102843279Y-124935897D02*
X102933018Y-124993211D01*
X102933018Y-124993211D02*
X103169809Y-125018098D01*
X103169809Y-125018098D02*
X103269503Y-124980695D01*
X103269503Y-124980695D02*
X103321838Y-124938315D01*
X103321838Y-124938315D02*
X103379152Y-124848576D01*
X103379152Y-124848576D02*
X103409017Y-124564427D01*
X103409017Y-124564427D02*
X103371614Y-124464733D01*
X103371614Y-124464733D02*
X103329233Y-124412397D01*
X97555466Y-139004741D02*
X96560945Y-138900213D01*
X96560945Y-138900213D02*
X96536057Y-139137004D01*
X96536057Y-139137004D02*
X96568482Y-139284056D01*
X96568482Y-139284056D02*
X96653244Y-139388727D01*
X96653244Y-139388727D02*
X96742982Y-139446041D01*
X96742982Y-139446041D02*
X96927438Y-139513309D01*
X96927438Y-139513309D02*
X97069512Y-139528242D01*
X97069512Y-139528242D02*
X97263923Y-139500794D01*
X97263923Y-139500794D02*
X97363616Y-139463391D01*
X97363616Y-139463391D02*
X97468288Y-139378629D01*
X97468288Y-139378629D02*
X97530579Y-139241532D01*
X97530579Y-139241532D02*
X97555466Y-139004741D01*
X97450938Y-139999263D02*
X96787923Y-139929578D01*
X96456416Y-139894735D02*
X96508752Y-139852354D01*
X96508752Y-139852354D02*
X96551132Y-139904690D01*
X96551132Y-139904690D02*
X96498797Y-139947071D01*
X96498797Y-139947071D02*
X96456416Y-139894735D01*
X96456416Y-139894735D02*
X96551132Y-139904690D01*
X97386230Y-140614919D02*
X97348827Y-140515225D01*
X97348827Y-140515225D02*
X97306446Y-140462890D01*
X97306446Y-140462890D02*
X97216707Y-140405576D01*
X97216707Y-140405576D02*
X96932558Y-140375711D01*
X96932558Y-140375711D02*
X96832864Y-140413114D01*
X96832864Y-140413114D02*
X96780529Y-140455495D01*
X96780529Y-140455495D02*
X96723215Y-140545234D01*
X96723215Y-140545234D02*
X96708283Y-140687308D01*
X96708283Y-140687308D02*
X96745686Y-140787002D01*
X96745686Y-140787002D02*
X96788066Y-140839338D01*
X96788066Y-140839338D02*
X96877805Y-140896651D01*
X96877805Y-140896651D02*
X97161954Y-140926516D01*
X97161954Y-140926516D02*
X97261648Y-140889113D01*
X97261648Y-140889113D02*
X97313984Y-140846733D01*
X97313984Y-140846733D02*
X97371297Y-140756994D01*
X97371297Y-140756994D02*
X97386230Y-140614919D01*
X97261791Y-141798874D02*
X96267269Y-141694346D01*
X97214433Y-141793896D02*
X97271746Y-141704158D01*
X97271746Y-141704158D02*
X97291657Y-141514725D01*
X97291657Y-141514725D02*
X97254253Y-141415031D01*
X97254253Y-141415031D02*
X97211873Y-141362695D01*
X97211873Y-141362695D02*
X97122134Y-141305382D01*
X97122134Y-141305382D02*
X96837985Y-141275517D01*
X96837985Y-141275517D02*
X96738291Y-141312920D01*
X96738291Y-141312920D02*
X96685955Y-141355300D01*
X96685955Y-141355300D02*
X96628642Y-141445039D01*
X96628642Y-141445039D02*
X96608732Y-141634472D01*
X96608732Y-141634472D02*
X96646135Y-141734166D01*
X97124837Y-142646344D02*
X97182151Y-142556605D01*
X97182151Y-142556605D02*
X97202061Y-142367172D01*
X97202061Y-142367172D02*
X97164658Y-142267478D01*
X97164658Y-142267478D02*
X97074919Y-142210165D01*
X97074919Y-142210165D02*
X96696053Y-142170345D01*
X96696053Y-142170345D02*
X96596359Y-142207748D01*
X96596359Y-142207748D02*
X96539046Y-142297487D01*
X96539046Y-142297487D02*
X96519136Y-142486919D01*
X96519136Y-142486919D02*
X96556539Y-142586613D01*
X96556539Y-142586613D02*
X96646278Y-142643927D01*
X96646278Y-142643927D02*
X96740994Y-142653882D01*
X96740994Y-142653882D02*
X96885486Y-142190255D01*
X101518523Y-140522547D02*
X100524001Y-140418018D01*
X100524001Y-140418018D02*
X100499113Y-140654809D01*
X100499113Y-140654809D02*
X100531539Y-140801861D01*
X100531539Y-140801861D02*
X100616300Y-140906533D01*
X100616300Y-140906533D02*
X100706039Y-140963846D01*
X100706039Y-140963846D02*
X100890494Y-141031114D01*
X100890494Y-141031114D02*
X101032569Y-141046047D01*
X101032569Y-141046047D02*
X101226979Y-141018599D01*
X101226979Y-141018599D02*
X101326673Y-140981196D01*
X101326673Y-140981196D02*
X101431344Y-140896435D01*
X101431344Y-140896435D02*
X101493635Y-140759338D01*
X101493635Y-140759338D02*
X101518523Y-140522547D01*
X100519166Y-141375137D02*
X100466831Y-141417518D01*
X100466831Y-141417518D02*
X100409517Y-141507256D01*
X100409517Y-141507256D02*
X100384630Y-141744047D01*
X100384630Y-141744047D02*
X100422033Y-141843741D01*
X100422033Y-141843741D02*
X100464413Y-141896077D01*
X100464413Y-141896077D02*
X100554152Y-141953390D01*
X100554152Y-141953390D02*
X100648869Y-141963345D01*
X100648869Y-141963345D02*
X100795921Y-141930920D01*
X100795921Y-141930920D02*
X101423950Y-141422352D01*
X101423950Y-141422352D02*
X101359241Y-142038009D01*
X96055466Y-156004741D02*
X95060945Y-155900213D01*
X95060945Y-155900213D02*
X95036057Y-156137004D01*
X95036057Y-156137004D02*
X95068482Y-156284056D01*
X95068482Y-156284056D02*
X95153244Y-156388727D01*
X95153244Y-156388727D02*
X95242982Y-156446041D01*
X95242982Y-156446041D02*
X95427438Y-156513309D01*
X95427438Y-156513309D02*
X95569512Y-156528242D01*
X95569512Y-156528242D02*
X95763923Y-156500794D01*
X95763923Y-156500794D02*
X95863616Y-156463391D01*
X95863616Y-156463391D02*
X95968288Y-156378629D01*
X95968288Y-156378629D02*
X96030579Y-156241532D01*
X96030579Y-156241532D02*
X96055466Y-156004741D01*
X95950938Y-156999263D02*
X95287923Y-156929578D01*
X94956416Y-156894735D02*
X95008752Y-156852354D01*
X95008752Y-156852354D02*
X95051132Y-156904690D01*
X95051132Y-156904690D02*
X94998797Y-156947071D01*
X94998797Y-156947071D02*
X94956416Y-156894735D01*
X94956416Y-156894735D02*
X95051132Y-156904690D01*
X95886230Y-157614919D02*
X95848827Y-157515225D01*
X95848827Y-157515225D02*
X95806446Y-157462890D01*
X95806446Y-157462890D02*
X95716707Y-157405576D01*
X95716707Y-157405576D02*
X95432558Y-157375711D01*
X95432558Y-157375711D02*
X95332864Y-157413114D01*
X95332864Y-157413114D02*
X95280529Y-157455495D01*
X95280529Y-157455495D02*
X95223215Y-157545234D01*
X95223215Y-157545234D02*
X95208283Y-157687308D01*
X95208283Y-157687308D02*
X95245686Y-157787002D01*
X95245686Y-157787002D02*
X95288066Y-157839338D01*
X95288066Y-157839338D02*
X95377805Y-157896651D01*
X95377805Y-157896651D02*
X95661954Y-157926516D01*
X95661954Y-157926516D02*
X95761648Y-157889113D01*
X95761648Y-157889113D02*
X95813984Y-157846733D01*
X95813984Y-157846733D02*
X95871297Y-157756994D01*
X95871297Y-157756994D02*
X95886230Y-157614919D01*
X95761791Y-158798874D02*
X94767269Y-158694346D01*
X95714433Y-158793896D02*
X95771746Y-158704158D01*
X95771746Y-158704158D02*
X95791657Y-158514725D01*
X95791657Y-158514725D02*
X95754253Y-158415031D01*
X95754253Y-158415031D02*
X95711873Y-158362695D01*
X95711873Y-158362695D02*
X95622134Y-158305382D01*
X95622134Y-158305382D02*
X95337985Y-158275517D01*
X95337985Y-158275517D02*
X95238291Y-158312920D01*
X95238291Y-158312920D02*
X95185955Y-158355300D01*
X95185955Y-158355300D02*
X95128642Y-158445039D01*
X95128642Y-158445039D02*
X95108732Y-158634472D01*
X95108732Y-158634472D02*
X95146135Y-158734166D01*
X95624837Y-159646344D02*
X95682151Y-159556605D01*
X95682151Y-159556605D02*
X95702061Y-159367172D01*
X95702061Y-159367172D02*
X95664658Y-159267478D01*
X95664658Y-159267478D02*
X95574919Y-159210165D01*
X95574919Y-159210165D02*
X95196053Y-159170345D01*
X95196053Y-159170345D02*
X95096359Y-159207748D01*
X95096359Y-159207748D02*
X95039046Y-159297487D01*
X95039046Y-159297487D02*
X95019136Y-159486919D01*
X95019136Y-159486919D02*
X95056539Y-159586613D01*
X95056539Y-159586613D02*
X95146278Y-159643927D01*
X95146278Y-159643927D02*
X95240994Y-159653882D01*
X95240994Y-159653882D02*
X95385486Y-159190255D01*
X100018523Y-157522547D02*
X99024001Y-157418018D01*
X99024001Y-157418018D02*
X98999113Y-157654809D01*
X98999113Y-157654809D02*
X99031539Y-157801861D01*
X99031539Y-157801861D02*
X99116300Y-157906533D01*
X99116300Y-157906533D02*
X99206039Y-157963846D01*
X99206039Y-157963846D02*
X99390494Y-158031114D01*
X99390494Y-158031114D02*
X99532569Y-158046047D01*
X99532569Y-158046047D02*
X99726979Y-158018599D01*
X99726979Y-158018599D02*
X99826673Y-157981196D01*
X99826673Y-157981196D02*
X99931344Y-157896435D01*
X99931344Y-157896435D02*
X99993635Y-157759338D01*
X99993635Y-157759338D02*
X100018523Y-157522547D01*
X99859241Y-159038009D02*
X99918972Y-158469710D01*
X99889107Y-158753859D02*
X98894585Y-158649331D01*
X98894585Y-158649331D02*
X99046614Y-158569547D01*
X99046614Y-158569547D02*
X99151286Y-158484786D01*
X99151286Y-158484786D02*
X99208599Y-158395047D01*
D11*
G04 #@! TO.C,S44*
X286551032Y-214321863D02*
X286825096Y-214443884D01*
X286825096Y-214443884D02*
X286499707Y-215174721D01*
X286499707Y-215174721D02*
X282838216Y-213544520D01*
X282838216Y-213544520D02*
X282594745Y-213375915D01*
X282594745Y-213375915D02*
X282428896Y-213131311D01*
X282428896Y-213131311D02*
X282363595Y-212842808D01*
X282363595Y-212842808D02*
X282407345Y-212550316D01*
X282407345Y-212550316D02*
X282496165Y-211964824D01*
X282496165Y-211964824D02*
X282365563Y-211387818D01*
X282365563Y-211387818D02*
X282034272Y-210897697D01*
X282034272Y-210897697D02*
X281547836Y-210561806D01*
X281547836Y-210561806D02*
X279149779Y-209494123D01*
X279149779Y-209494123D02*
X278731662Y-208404890D01*
X279951872Y-205664253D02*
X281041105Y-205246136D01*
X281041105Y-205246136D02*
X283517727Y-206348799D01*
X283517727Y-206348799D02*
X283835789Y-206573602D01*
X283835789Y-206573602D02*
X284044429Y-206904031D01*
X284044429Y-206904031D02*
X284301381Y-207573414D01*
X284301381Y-207573414D02*
X284220034Y-207756123D01*
X284220034Y-207756123D02*
X284116475Y-208212453D01*
X284116475Y-208212453D02*
X284195369Y-208674488D01*
X284195369Y-208674488D02*
X284445900Y-209070637D01*
X284445900Y-209070637D02*
X284828205Y-209340462D01*
X284828205Y-209340462D02*
X287386132Y-210479324D01*
X287386132Y-210479324D02*
X287640866Y-210659512D01*
X287640866Y-210659512D02*
X287808022Y-210923307D01*
X287808022Y-210923307D02*
X287860314Y-211231194D01*
X287860314Y-211231194D02*
X287791579Y-211535550D01*
G04 #@! TO.C,S43*
X297807810Y-188813821D02*
X297996606Y-188580677D01*
X297996606Y-188580677D02*
X298618323Y-189084134D01*
X298618323Y-189084134D02*
X296096007Y-192198935D01*
X296096007Y-192198935D02*
X295870132Y-192390472D01*
X295870132Y-192390472D02*
X295590937Y-192487361D01*
X295590937Y-192487361D02*
X295295364Y-192475767D01*
X295295364Y-192475767D02*
X295024161Y-192357805D01*
X295024161Y-192357805D02*
X294481608Y-192120475D01*
X294481608Y-192120475D02*
X293890461Y-192097287D01*
X293890461Y-192097287D02*
X293331295Y-192290437D01*
X293331295Y-192290437D02*
X292880951Y-192673363D01*
X292880951Y-192673363D02*
X291228985Y-194713371D01*
X291228985Y-194713371D02*
X290068651Y-194835327D01*
X287737213Y-192947366D02*
X287615257Y-191787031D01*
X287615257Y-191787031D02*
X289321344Y-189680189D01*
X289321344Y-189680189D02*
X289620808Y-189431147D01*
X289620808Y-189431147D02*
X289993977Y-189315137D01*
X289993977Y-189315137D02*
X290707056Y-189240190D01*
X290707056Y-189240190D02*
X290862485Y-189366054D01*
X290862485Y-189366054D02*
X291276463Y-189584192D01*
X291276463Y-189584192D02*
X291743173Y-189627569D01*
X291743173Y-189627569D02*
X292190666Y-189488105D01*
X292190666Y-189488105D02*
X292550245Y-189188663D01*
X292550245Y-189188663D02*
X294312342Y-187012655D01*
X294312342Y-187012655D02*
X294552320Y-186813236D01*
X294552320Y-186813236D02*
X294850389Y-186720051D01*
X294850389Y-186720051D02*
X295161320Y-186749228D01*
X295161320Y-186749228D02*
X295437515Y-186894394D01*
G04 #@! TO.C,S42*
X315990651Y-174159601D02*
X316233357Y-173983266D01*
X316233357Y-173983266D02*
X316703585Y-174630479D01*
X316703585Y-174630479D02*
X313461045Y-176986323D01*
X313461045Y-176986323D02*
X313193293Y-177112872D01*
X313193293Y-177112872D02*
X312898535Y-177134200D01*
X312898535Y-177134200D02*
X312616034Y-177046501D01*
X312616034Y-177046501D02*
X312384602Y-176862366D01*
X312384602Y-176862366D02*
X311921961Y-176492700D01*
X311921961Y-176492700D02*
X311356959Y-176317301D01*
X311356959Y-176317301D02*
X310766856Y-176359147D01*
X310766856Y-176359147D02*
X310232748Y-176612468D01*
X310232748Y-176612468D02*
X308109079Y-178155404D01*
X308109079Y-178155404D02*
X306956717Y-177972888D01*
X305193361Y-175545837D02*
X305375877Y-174393475D01*
X305375877Y-174393475D02*
X307569122Y-172799989D01*
X307569122Y-172799989D02*
X307922839Y-172636940D01*
X307922839Y-172636940D02*
X308313319Y-172621467D01*
X308313319Y-172621467D02*
X309021497Y-172733631D01*
X309021497Y-172733631D02*
X309139054Y-172895435D01*
X309139054Y-172895435D02*
X309482468Y-173213285D01*
X309482468Y-173213285D02*
X309922049Y-173375978D01*
X309922049Y-173375978D02*
X310390390Y-173357086D01*
X310390390Y-173357086D02*
X310815217Y-173160913D01*
X310815217Y-173160913D02*
X313080465Y-171515114D01*
X313080465Y-171515114D02*
X313363879Y-171384602D01*
X313363879Y-171384602D02*
X313675910Y-171371738D01*
X313675910Y-171371738D02*
X313968694Y-171480395D01*
X313968694Y-171480395D02*
X314197906Y-171692100D01*
G04 #@! TO.C,S41*
X262348084Y-176885514D02*
X262590790Y-176709179D01*
X262590790Y-176709179D02*
X263061018Y-177356392D01*
X263061018Y-177356392D02*
X259818478Y-179712236D01*
X259818478Y-179712236D02*
X259550726Y-179838785D01*
X259550726Y-179838785D02*
X259255968Y-179860113D01*
X259255968Y-179860113D02*
X258973467Y-179772414D01*
X258973467Y-179772414D02*
X258742035Y-179588279D01*
X258742035Y-179588279D02*
X258279394Y-179218613D01*
X258279394Y-179218613D02*
X257714392Y-179043214D01*
X257714392Y-179043214D02*
X257124289Y-179085060D01*
X257124289Y-179085060D02*
X256590181Y-179338381D01*
X256590181Y-179338381D02*
X254466512Y-180881317D01*
X254466512Y-180881317D02*
X253314150Y-180698801D01*
X251550794Y-178271750D02*
X251733310Y-177119388D01*
X251733310Y-177119388D02*
X253926555Y-175525902D01*
X253926555Y-175525902D02*
X254280272Y-175362853D01*
X254280272Y-175362853D02*
X254670752Y-175347380D01*
X254670752Y-175347380D02*
X255378930Y-175459544D01*
X255378930Y-175459544D02*
X255496487Y-175621348D01*
X255496487Y-175621348D02*
X255839901Y-175939198D01*
X255839901Y-175939198D02*
X256279482Y-176101891D01*
X256279482Y-176101891D02*
X256747823Y-176082999D01*
X256747823Y-176082999D02*
X257172650Y-175886826D01*
X257172650Y-175886826D02*
X259437898Y-174241027D01*
X259437898Y-174241027D02*
X259721312Y-174110515D01*
X259721312Y-174110515D02*
X260033343Y-174097651D01*
X260033343Y-174097651D02*
X260326127Y-174206308D01*
X260326127Y-174206308D02*
X260555339Y-174418013D01*
G04 #@! TO.C,S40*
X261921866Y-145675446D02*
X262164572Y-145499111D01*
X262164572Y-145499111D02*
X262634800Y-146146324D01*
X262634800Y-146146324D02*
X259392260Y-148502168D01*
X259392260Y-148502168D02*
X259124508Y-148628717D01*
X259124508Y-148628717D02*
X258829750Y-148650045D01*
X258829750Y-148650045D02*
X258547249Y-148562346D01*
X258547249Y-148562346D02*
X258315817Y-148378211D01*
X258315817Y-148378211D02*
X257853176Y-148008545D01*
X257853176Y-148008545D02*
X257288174Y-147833146D01*
X257288174Y-147833146D02*
X256698071Y-147874992D01*
X256698071Y-147874992D02*
X256163963Y-148128313D01*
X256163963Y-148128313D02*
X254040294Y-149671249D01*
X254040294Y-149671249D02*
X252887932Y-149488733D01*
X251124576Y-147061682D02*
X251307092Y-145909320D01*
X251307092Y-145909320D02*
X253500337Y-144315834D01*
X253500337Y-144315834D02*
X253854054Y-144152785D01*
X253854054Y-144152785D02*
X254244534Y-144137312D01*
X254244534Y-144137312D02*
X254952712Y-144249476D01*
X254952712Y-144249476D02*
X255070269Y-144411280D01*
X255070269Y-144411280D02*
X255413683Y-144729130D01*
X255413683Y-144729130D02*
X255853264Y-144891823D01*
X255853264Y-144891823D02*
X256321605Y-144872931D01*
X256321605Y-144872931D02*
X256746432Y-144676758D01*
X256746432Y-144676758D02*
X259011680Y-143030959D01*
X259011680Y-143030959D02*
X259295094Y-142900447D01*
X259295094Y-142900447D02*
X259607125Y-142887583D01*
X259607125Y-142887583D02*
X259899909Y-142996240D01*
X259899909Y-142996240D02*
X260129121Y-143207945D01*
G04 #@! TO.C,S39*
X271914215Y-159428735D02*
X272156921Y-159252400D01*
X272156921Y-159252400D02*
X272627149Y-159899613D01*
X272627149Y-159899613D02*
X269384609Y-162255457D01*
X269384609Y-162255457D02*
X269116857Y-162382006D01*
X269116857Y-162382006D02*
X268822099Y-162403334D01*
X268822099Y-162403334D02*
X268539598Y-162315635D01*
X268539598Y-162315635D02*
X268308166Y-162131500D01*
X268308166Y-162131500D02*
X267845525Y-161761834D01*
X267845525Y-161761834D02*
X267280523Y-161586435D01*
X267280523Y-161586435D02*
X266690420Y-161628281D01*
X266690420Y-161628281D02*
X266156312Y-161881602D01*
X266156312Y-161881602D02*
X264032643Y-163424538D01*
X264032643Y-163424538D02*
X262880281Y-163242022D01*
X261116925Y-160814971D02*
X261299441Y-159662609D01*
X261299441Y-159662609D02*
X263492686Y-158069123D01*
X263492686Y-158069123D02*
X263846403Y-157906074D01*
X263846403Y-157906074D02*
X264236883Y-157890601D01*
X264236883Y-157890601D02*
X264945061Y-158002765D01*
X264945061Y-158002765D02*
X265062618Y-158164569D01*
X265062618Y-158164569D02*
X265406032Y-158482419D01*
X265406032Y-158482419D02*
X265845613Y-158645112D01*
X265845613Y-158645112D02*
X266313954Y-158626220D01*
X266313954Y-158626220D02*
X266738781Y-158430047D01*
X266738781Y-158430047D02*
X269004029Y-156784248D01*
X269004029Y-156784248D02*
X269287443Y-156653736D01*
X269287443Y-156653736D02*
X269599474Y-156640872D01*
X269599474Y-156640872D02*
X269892258Y-156749529D01*
X269892258Y-156749529D02*
X270121470Y-156961234D01*
G04 #@! TO.C,S38*
X281906564Y-173182024D02*
X282149270Y-173005689D01*
X282149270Y-173005689D02*
X282619498Y-173652902D01*
X282619498Y-173652902D02*
X279376958Y-176008746D01*
X279376958Y-176008746D02*
X279109206Y-176135295D01*
X279109206Y-176135295D02*
X278814448Y-176156623D01*
X278814448Y-176156623D02*
X278531947Y-176068924D01*
X278531947Y-176068924D02*
X278300515Y-175884789D01*
X278300515Y-175884789D02*
X277837874Y-175515123D01*
X277837874Y-175515123D02*
X277272872Y-175339724D01*
X277272872Y-175339724D02*
X276682769Y-175381570D01*
X276682769Y-175381570D02*
X276148661Y-175634891D01*
X276148661Y-175634891D02*
X274024992Y-177177827D01*
X274024992Y-177177827D02*
X272872630Y-176995311D01*
X271109274Y-174568260D02*
X271291790Y-173415898D01*
X271291790Y-173415898D02*
X273485035Y-171822412D01*
X273485035Y-171822412D02*
X273838752Y-171659363D01*
X273838752Y-171659363D02*
X274229232Y-171643890D01*
X274229232Y-171643890D02*
X274937410Y-171756054D01*
X274937410Y-171756054D02*
X275054967Y-171917858D01*
X275054967Y-171917858D02*
X275398381Y-172235708D01*
X275398381Y-172235708D02*
X275837962Y-172398401D01*
X275837962Y-172398401D02*
X276306303Y-172379509D01*
X276306303Y-172379509D02*
X276731130Y-172183336D01*
X276731130Y-172183336D02*
X278996378Y-170537537D01*
X278996378Y-170537537D02*
X279279792Y-170407025D01*
X279279792Y-170407025D02*
X279591823Y-170394161D01*
X279591823Y-170394161D02*
X279884607Y-170502818D01*
X279884607Y-170502818D02*
X280113819Y-170714523D01*
G04 #@! TO.C,S37*
X274485702Y-132344654D02*
X274728408Y-132168319D01*
X274728408Y-132168319D02*
X275198636Y-132815532D01*
X275198636Y-132815532D02*
X271956096Y-135171376D01*
X271956096Y-135171376D02*
X271688344Y-135297925D01*
X271688344Y-135297925D02*
X271393586Y-135319253D01*
X271393586Y-135319253D02*
X271111085Y-135231554D01*
X271111085Y-135231554D02*
X270879653Y-135047419D01*
X270879653Y-135047419D02*
X270417012Y-134677753D01*
X270417012Y-134677753D02*
X269852010Y-134502354D01*
X269852010Y-134502354D02*
X269261907Y-134544200D01*
X269261907Y-134544200D02*
X268727799Y-134797521D01*
X268727799Y-134797521D02*
X266604130Y-136340457D01*
X266604130Y-136340457D02*
X265451768Y-136157941D01*
X263688412Y-133730890D02*
X263870928Y-132578528D01*
X263870928Y-132578528D02*
X266064173Y-130985042D01*
X266064173Y-130985042D02*
X266417890Y-130821993D01*
X266417890Y-130821993D02*
X266808370Y-130806520D01*
X266808370Y-130806520D02*
X267516548Y-130918684D01*
X267516548Y-130918684D02*
X267634105Y-131080488D01*
X267634105Y-131080488D02*
X267977519Y-131398338D01*
X267977519Y-131398338D02*
X268417100Y-131561031D01*
X268417100Y-131561031D02*
X268885441Y-131542139D01*
X268885441Y-131542139D02*
X269310268Y-131345966D01*
X269310268Y-131345966D02*
X271575516Y-129700167D01*
X271575516Y-129700167D02*
X271858930Y-129569655D01*
X271858930Y-129569655D02*
X272170961Y-129556791D01*
X272170961Y-129556791D02*
X272463745Y-129665448D01*
X272463745Y-129665448D02*
X272692957Y-129877153D01*
G04 #@! TO.C,S36*
X284478051Y-146097943D02*
X284720757Y-145921608D01*
X284720757Y-145921608D02*
X285190985Y-146568821D01*
X285190985Y-146568821D02*
X281948445Y-148924665D01*
X281948445Y-148924665D02*
X281680693Y-149051214D01*
X281680693Y-149051214D02*
X281385935Y-149072542D01*
X281385935Y-149072542D02*
X281103434Y-148984843D01*
X281103434Y-148984843D02*
X280872002Y-148800708D01*
X280872002Y-148800708D02*
X280409361Y-148431042D01*
X280409361Y-148431042D02*
X279844359Y-148255643D01*
X279844359Y-148255643D02*
X279254256Y-148297489D01*
X279254256Y-148297489D02*
X278720148Y-148550810D01*
X278720148Y-148550810D02*
X276596479Y-150093746D01*
X276596479Y-150093746D02*
X275444117Y-149911230D01*
X273680761Y-147484179D02*
X273863277Y-146331817D01*
X273863277Y-146331817D02*
X276056522Y-144738331D01*
X276056522Y-144738331D02*
X276410239Y-144575282D01*
X276410239Y-144575282D02*
X276800719Y-144559809D01*
X276800719Y-144559809D02*
X277508897Y-144671973D01*
X277508897Y-144671973D02*
X277626454Y-144833777D01*
X277626454Y-144833777D02*
X277969868Y-145151627D01*
X277969868Y-145151627D02*
X278409449Y-145314320D01*
X278409449Y-145314320D02*
X278877790Y-145295428D01*
X278877790Y-145295428D02*
X279302617Y-145099255D01*
X279302617Y-145099255D02*
X281567865Y-143453456D01*
X281567865Y-143453456D02*
X281851279Y-143322944D01*
X281851279Y-143322944D02*
X282163310Y-143310080D01*
X282163310Y-143310080D02*
X282456094Y-143418737D01*
X282456094Y-143418737D02*
X282685306Y-143630442D01*
G04 #@! TO.C,S35*
X294470400Y-159851232D02*
X294713106Y-159674897D01*
X294713106Y-159674897D02*
X295183334Y-160322110D01*
X295183334Y-160322110D02*
X291940794Y-162677954D01*
X291940794Y-162677954D02*
X291673042Y-162804503D01*
X291673042Y-162804503D02*
X291378284Y-162825831D01*
X291378284Y-162825831D02*
X291095783Y-162738132D01*
X291095783Y-162738132D02*
X290864351Y-162553997D01*
X290864351Y-162553997D02*
X290401710Y-162184331D01*
X290401710Y-162184331D02*
X289836708Y-162008932D01*
X289836708Y-162008932D02*
X289246605Y-162050778D01*
X289246605Y-162050778D02*
X288712497Y-162304099D01*
X288712497Y-162304099D02*
X286588828Y-163847035D01*
X286588828Y-163847035D02*
X285436466Y-163664519D01*
X283673110Y-161237468D02*
X283855626Y-160085106D01*
X283855626Y-160085106D02*
X286048871Y-158491620D01*
X286048871Y-158491620D02*
X286402588Y-158328571D01*
X286402588Y-158328571D02*
X286793068Y-158313098D01*
X286793068Y-158313098D02*
X287501246Y-158425262D01*
X287501246Y-158425262D02*
X287618803Y-158587066D01*
X287618803Y-158587066D02*
X287962217Y-158904916D01*
X287962217Y-158904916D02*
X288401798Y-159067609D01*
X288401798Y-159067609D02*
X288870139Y-159048717D01*
X288870139Y-159048717D02*
X289294966Y-158852544D01*
X289294966Y-158852544D02*
X291560214Y-157206745D01*
X291560214Y-157206745D02*
X291843628Y-157076233D01*
X291843628Y-157076233D02*
X292155659Y-157063369D01*
X292155659Y-157063369D02*
X292448443Y-157172026D01*
X292448443Y-157172026D02*
X292677655Y-157383731D01*
G04 #@! TO.C,S34*
X288958933Y-114284136D02*
X289216084Y-114129624D01*
X289216084Y-114129624D02*
X289628114Y-114815358D01*
X289628114Y-114815358D02*
X286192588Y-116879631D01*
X286192588Y-116879631D02*
X285914825Y-116982363D01*
X285914825Y-116982363D02*
X285619330Y-116977919D01*
X285619330Y-116977919D02*
X285345547Y-116865932D01*
X285345547Y-116865932D02*
X285131045Y-116662328D01*
X285131045Y-116662328D02*
X284702383Y-116253746D01*
X284702383Y-116253746D02*
X284154818Y-116029772D01*
X284154818Y-116029772D02*
X283563313Y-116020028D01*
X283563313Y-116020028D02*
X283009160Y-116225834D01*
X283009160Y-116225834D02*
X280759095Y-117577809D01*
X280759095Y-117577809D02*
X279627026Y-117295552D01*
X278081912Y-114724050D02*
X278364168Y-113591981D01*
X278364168Y-113591981D02*
X280687949Y-112195713D01*
X280687949Y-112195713D02*
X281054530Y-112064113D01*
X281054530Y-112064113D02*
X281444872Y-112082731D01*
X281444872Y-112082731D02*
X282140580Y-112256190D01*
X282140580Y-112256190D02*
X282243588Y-112427624D01*
X282243588Y-112427624D02*
X282557993Y-112774195D01*
X282557993Y-112774195D02*
X282981721Y-112974580D01*
X282981721Y-112974580D02*
X283449926Y-112996579D01*
X283449926Y-112996579D02*
X283890235Y-112838179D01*
X283890235Y-112838179D02*
X286290303Y-111396072D01*
X286290303Y-111396072D02*
X286584013Y-111290758D01*
X286584013Y-111290758D02*
X286895979Y-111305138D01*
X286895979Y-111305138D02*
X287178178Y-111438900D01*
X287178178Y-111438900D02*
X287388067Y-111669775D01*
G04 #@! TO.C,S33*
X297714580Y-128855980D02*
X297971731Y-128701468D01*
X297971731Y-128701468D02*
X298383761Y-129387202D01*
X298383761Y-129387202D02*
X294948235Y-131451475D01*
X294948235Y-131451475D02*
X294670472Y-131554207D01*
X294670472Y-131554207D02*
X294374977Y-131549763D01*
X294374977Y-131549763D02*
X294101194Y-131437776D01*
X294101194Y-131437776D02*
X293886692Y-131234172D01*
X293886692Y-131234172D02*
X293458030Y-130825590D01*
X293458030Y-130825590D02*
X292910465Y-130601616D01*
X292910465Y-130601616D02*
X292318960Y-130591872D01*
X292318960Y-130591872D02*
X291764807Y-130797678D01*
X291764807Y-130797678D02*
X289514742Y-132149653D01*
X289514742Y-132149653D02*
X288382673Y-131867396D01*
X286837559Y-129295894D02*
X287119815Y-128163825D01*
X287119815Y-128163825D02*
X289443596Y-126767557D01*
X289443596Y-126767557D02*
X289810177Y-126635957D01*
X289810177Y-126635957D02*
X290200519Y-126654575D01*
X290200519Y-126654575D02*
X290896227Y-126828034D01*
X290896227Y-126828034D02*
X290999235Y-126999468D01*
X290999235Y-126999468D02*
X291313640Y-127346039D01*
X291313640Y-127346039D02*
X291737368Y-127546424D01*
X291737368Y-127546424D02*
X292205573Y-127568423D01*
X292205573Y-127568423D02*
X292645882Y-127410023D01*
X292645882Y-127410023D02*
X295045950Y-125967916D01*
X295045950Y-125967916D02*
X295339660Y-125862602D01*
X295339660Y-125862602D02*
X295651626Y-125876982D01*
X295651626Y-125876982D02*
X295933825Y-126010744D01*
X295933825Y-126010744D02*
X296143714Y-126241619D01*
G04 #@! TO.C,S32*
X306470227Y-143427824D02*
X306727378Y-143273312D01*
X306727378Y-143273312D02*
X307139408Y-143959046D01*
X307139408Y-143959046D02*
X303703882Y-146023319D01*
X303703882Y-146023319D02*
X303426119Y-146126051D01*
X303426119Y-146126051D02*
X303130624Y-146121607D01*
X303130624Y-146121607D02*
X302856841Y-146009620D01*
X302856841Y-146009620D02*
X302642339Y-145806016D01*
X302642339Y-145806016D02*
X302213677Y-145397434D01*
X302213677Y-145397434D02*
X301666112Y-145173460D01*
X301666112Y-145173460D02*
X301074607Y-145163716D01*
X301074607Y-145163716D02*
X300520454Y-145369522D01*
X300520454Y-145369522D02*
X298270389Y-146721497D01*
X298270389Y-146721497D02*
X297138320Y-146439240D01*
X295593206Y-143867738D02*
X295875462Y-142735669D01*
X295875462Y-142735669D02*
X298199243Y-141339401D01*
X298199243Y-141339401D02*
X298565824Y-141207801D01*
X298565824Y-141207801D02*
X298956166Y-141226419D01*
X298956166Y-141226419D02*
X299651874Y-141399878D01*
X299651874Y-141399878D02*
X299754882Y-141571312D01*
X299754882Y-141571312D02*
X300069287Y-141917883D01*
X300069287Y-141917883D02*
X300493015Y-142118268D01*
X300493015Y-142118268D02*
X300961220Y-142140267D01*
X300961220Y-142140267D02*
X301401529Y-141981867D01*
X301401529Y-141981867D02*
X303801597Y-140539760D01*
X303801597Y-140539760D02*
X304095307Y-140434446D01*
X304095307Y-140434446D02*
X304407273Y-140448826D01*
X304407273Y-140448826D02*
X304689472Y-140582588D01*
X304689472Y-140582588D02*
X304899361Y-140813463D01*
G04 #@! TO.C,S31*
X311000401Y-108763632D02*
X311270039Y-108632121D01*
X311270039Y-108632121D02*
X311620736Y-109351156D01*
X311620736Y-109351156D02*
X308018369Y-111108148D01*
X308018369Y-111108148D02*
X307732710Y-111186280D01*
X307732710Y-111186280D02*
X307438727Y-111156099D01*
X307438727Y-111156099D02*
X307175746Y-111020677D01*
X307175746Y-111020677D02*
X306979806Y-110799152D01*
X306979806Y-110799152D02*
X306588385Y-110354765D01*
X306588385Y-110354765D02*
X306062424Y-110083920D01*
X306062424Y-110083920D02*
X305474019Y-110022659D01*
X305474019Y-110022659D02*
X304904038Y-110179384D01*
X304904038Y-110179384D02*
X302544703Y-111330109D01*
X302544703Y-111330109D02*
X301441542Y-110950260D01*
X300126429Y-108253878D02*
X300506277Y-107150716D01*
X300506277Y-107150716D02*
X302942908Y-105962292D01*
X302942908Y-105962292D02*
X303319564Y-105863143D01*
X303319564Y-105863143D02*
X303706798Y-105915711D01*
X303706798Y-105915711D02*
X304384741Y-106149145D01*
X304384741Y-106149145D02*
X304472415Y-106328904D01*
X304472415Y-106328904D02*
X304755418Y-106701558D01*
X304755418Y-106701558D02*
X305160069Y-106938112D01*
X305160069Y-106938112D02*
X305624575Y-107000833D01*
X305624575Y-107000833D02*
X306077013Y-106881411D01*
X306077013Y-106881411D02*
X308593637Y-105653972D01*
X308593637Y-105653972D02*
X308895408Y-105574657D01*
X308895408Y-105574657D02*
X309204933Y-105616172D01*
X309204933Y-105616172D02*
X309474401Y-105774020D01*
X309474401Y-105774020D02*
X309663369Y-106022310D01*
G04 #@! TO.C,S30*
X318452710Y-124043131D02*
X318722348Y-123911620D01*
X318722348Y-123911620D02*
X319073045Y-124630655D01*
X319073045Y-124630655D02*
X315470678Y-126387647D01*
X315470678Y-126387647D02*
X315185019Y-126465779D01*
X315185019Y-126465779D02*
X314891036Y-126435598D01*
X314891036Y-126435598D02*
X314628055Y-126300176D01*
X314628055Y-126300176D02*
X314432115Y-126078651D01*
X314432115Y-126078651D02*
X314040694Y-125634264D01*
X314040694Y-125634264D02*
X313514733Y-125363419D01*
X313514733Y-125363419D02*
X312926328Y-125302158D01*
X312926328Y-125302158D02*
X312356347Y-125458883D01*
X312356347Y-125458883D02*
X309997012Y-126609608D01*
X309997012Y-126609608D02*
X308893851Y-126229759D01*
X307578738Y-123533377D02*
X307958586Y-122430215D01*
X307958586Y-122430215D02*
X310395217Y-121241791D01*
X310395217Y-121241791D02*
X310771873Y-121142642D01*
X310771873Y-121142642D02*
X311159107Y-121195210D01*
X311159107Y-121195210D02*
X311837050Y-121428644D01*
X311837050Y-121428644D02*
X311924724Y-121608403D01*
X311924724Y-121608403D02*
X312207727Y-121981057D01*
X312207727Y-121981057D02*
X312612378Y-122217611D01*
X312612378Y-122217611D02*
X313076884Y-122280332D01*
X313076884Y-122280332D02*
X313529322Y-122160910D01*
X313529322Y-122160910D02*
X316045946Y-120933471D01*
X316045946Y-120933471D02*
X316347717Y-120854156D01*
X316347717Y-120854156D02*
X316657242Y-120895671D01*
X316657242Y-120895671D02*
X316926710Y-121053519D01*
X316926710Y-121053519D02*
X317115678Y-121301809D01*
G04 #@! TO.C,S29*
X325905020Y-139322630D02*
X326174658Y-139191119D01*
X326174658Y-139191119D02*
X326525355Y-139910154D01*
X326525355Y-139910154D02*
X322922988Y-141667146D01*
X322922988Y-141667146D02*
X322637329Y-141745278D01*
X322637329Y-141745278D02*
X322343346Y-141715097D01*
X322343346Y-141715097D02*
X322080365Y-141579675D01*
X322080365Y-141579675D02*
X321884425Y-141358150D01*
X321884425Y-141358150D02*
X321493004Y-140913763D01*
X321493004Y-140913763D02*
X320967043Y-140642918D01*
X320967043Y-140642918D02*
X320378638Y-140581657D01*
X320378638Y-140581657D02*
X319808657Y-140738382D01*
X319808657Y-140738382D02*
X317449322Y-141889107D01*
X317449322Y-141889107D02*
X316346161Y-141509258D01*
X315031048Y-138812876D02*
X315410896Y-137709714D01*
X315410896Y-137709714D02*
X317847527Y-136521290D01*
X317847527Y-136521290D02*
X318224183Y-136422141D01*
X318224183Y-136422141D02*
X318611417Y-136474709D01*
X318611417Y-136474709D02*
X319289360Y-136708143D01*
X319289360Y-136708143D02*
X319377034Y-136887902D01*
X319377034Y-136887902D02*
X319660037Y-137260556D01*
X319660037Y-137260556D02*
X320064688Y-137497110D01*
X320064688Y-137497110D02*
X320529194Y-137559831D01*
X320529194Y-137559831D02*
X320981632Y-137440409D01*
X320981632Y-137440409D02*
X323498256Y-136212970D01*
X323498256Y-136212970D02*
X323800027Y-136133655D01*
X323800027Y-136133655D02*
X324109552Y-136175170D01*
X324109552Y-136175170D02*
X324379020Y-136333018D01*
X324379020Y-136333018D02*
X324567988Y-136581308D01*
G04 #@! TO.C,S28*
X341844992Y-112743285D02*
X342139480Y-112686042D01*
X342139480Y-112686042D02*
X342292127Y-113471344D01*
X342292127Y-113471344D02*
X338357765Y-114236107D01*
X338357765Y-114236107D02*
X338061617Y-114237642D01*
X338061617Y-114237642D02*
X337785463Y-114132402D01*
X337785463Y-114132402D02*
X337566493Y-113933529D01*
X337566493Y-113933529D02*
X337434564Y-113668839D01*
X337434564Y-113668839D02*
X337171496Y-113138287D01*
X337171496Y-113138287D02*
X336733557Y-112740542D01*
X336733557Y-112740542D02*
X336181057Y-112529079D01*
X336181057Y-112529079D02*
X335589933Y-112532942D01*
X335589933Y-112532942D02*
X333013162Y-113033816D01*
X333013162Y-113033816D02*
X332045902Y-112381390D01*
X331473475Y-109436509D02*
X332125900Y-108469249D01*
X332125900Y-108469249D02*
X334787091Y-107951966D01*
X334787091Y-107951966D02*
X335176575Y-107953681D01*
X335176575Y-107953681D02*
X335537009Y-108104681D01*
X335537009Y-108104681D02*
X336131434Y-108505626D01*
X336131434Y-108505626D02*
X336169596Y-108701951D01*
X336169596Y-108701951D02*
X336346505Y-109135154D01*
X336346505Y-109135154D02*
X336676144Y-109468378D01*
X336676144Y-109468378D02*
X337108589Y-109649186D01*
X337108589Y-109649186D02*
X337576519Y-109650933D01*
X337576519Y-109650933D02*
X340325075Y-109116668D01*
X340325075Y-109116668D02*
X340637093Y-109118159D01*
X340637093Y-109118159D02*
X340925326Y-109238370D01*
X340925326Y-109238370D02*
X341144757Y-109460584D01*
X341144757Y-109460584D02*
X341263024Y-109749322D01*
G04 #@! TO.C,S27*
X345088744Y-129430947D02*
X345383232Y-129373704D01*
X345383232Y-129373704D02*
X345535879Y-130159006D01*
X345535879Y-130159006D02*
X341601517Y-130923769D01*
X341601517Y-130923769D02*
X341305369Y-130925304D01*
X341305369Y-130925304D02*
X341029215Y-130820064D01*
X341029215Y-130820064D02*
X340810245Y-130621191D01*
X340810245Y-130621191D02*
X340678316Y-130356501D01*
X340678316Y-130356501D02*
X340415248Y-129825949D01*
X340415248Y-129825949D02*
X339977309Y-129428204D01*
X339977309Y-129428204D02*
X339424809Y-129216741D01*
X339424809Y-129216741D02*
X338833685Y-129220604D01*
X338833685Y-129220604D02*
X336256914Y-129721478D01*
X336256914Y-129721478D02*
X335289654Y-129069052D01*
X334717227Y-126124171D02*
X335369652Y-125156911D01*
X335369652Y-125156911D02*
X338030843Y-124639628D01*
X338030843Y-124639628D02*
X338420327Y-124641343D01*
X338420327Y-124641343D02*
X338780761Y-124792343D01*
X338780761Y-124792343D02*
X339375186Y-125193288D01*
X339375186Y-125193288D02*
X339413348Y-125389613D01*
X339413348Y-125389613D02*
X339590257Y-125822816D01*
X339590257Y-125822816D02*
X339919896Y-126156040D01*
X339919896Y-126156040D02*
X340352341Y-126336848D01*
X340352341Y-126336848D02*
X340820271Y-126338595D01*
X340820271Y-126338595D02*
X343568827Y-125804330D01*
X343568827Y-125804330D02*
X343880845Y-125805821D01*
X343880845Y-125805821D02*
X344169078Y-125926032D01*
X344169078Y-125926032D02*
X344388509Y-126148246D01*
X344388509Y-126148246D02*
X344506776Y-126436984D01*
G04 #@! TO.C,S26*
X348332497Y-146118610D02*
X348626985Y-146061367D01*
X348626985Y-146061367D02*
X348779632Y-146846669D01*
X348779632Y-146846669D02*
X344845270Y-147611432D01*
X344845270Y-147611432D02*
X344549122Y-147612967D01*
X344549122Y-147612967D02*
X344272968Y-147507727D01*
X344272968Y-147507727D02*
X344053998Y-147308854D01*
X344053998Y-147308854D02*
X343922069Y-147044164D01*
X343922069Y-147044164D02*
X343659001Y-146513612D01*
X343659001Y-146513612D02*
X343221062Y-146115867D01*
X343221062Y-146115867D02*
X342668562Y-145904404D01*
X342668562Y-145904404D02*
X342077438Y-145908267D01*
X342077438Y-145908267D02*
X339500667Y-146409141D01*
X339500667Y-146409141D02*
X338533407Y-145756715D01*
X337960980Y-142811834D02*
X338613405Y-141844574D01*
X338613405Y-141844574D02*
X341274596Y-141327291D01*
X341274596Y-141327291D02*
X341664080Y-141329006D01*
X341664080Y-141329006D02*
X342024514Y-141480006D01*
X342024514Y-141480006D02*
X342618939Y-141880951D01*
X342618939Y-141880951D02*
X342657101Y-142077276D01*
X342657101Y-142077276D02*
X342834010Y-142510479D01*
X342834010Y-142510479D02*
X343163649Y-142843703D01*
X343163649Y-142843703D02*
X343596094Y-143024511D01*
X343596094Y-143024511D02*
X344064024Y-143026258D01*
X344064024Y-143026258D02*
X346812580Y-142491993D01*
X346812580Y-142491993D02*
X347124598Y-142493484D01*
X347124598Y-142493484D02*
X347412831Y-142613695D01*
X347412831Y-142613695D02*
X347632262Y-142835909D01*
X347632262Y-142835909D02*
X347750529Y-143124647D01*
G04 #@! TO.C,S25*
X364186477Y-115133019D02*
X364484834Y-115101661D01*
X364484834Y-115101661D02*
X364568456Y-115897278D01*
X364568456Y-115897278D02*
X360582413Y-116316228D01*
X360582413Y-116316228D02*
X360287258Y-116291947D01*
X360287258Y-116291947D02*
X360021326Y-116163039D01*
X360021326Y-116163039D02*
X359820523Y-115945838D01*
X359820523Y-115945838D02*
X359712165Y-115670657D01*
X359712165Y-115670657D02*
X359496339Y-115119196D01*
X359496339Y-115119196D02*
X359094732Y-114684796D01*
X359094732Y-114684796D02*
X358562764Y-114425984D01*
X358562764Y-114425984D02*
X357973554Y-114378312D01*
X357973554Y-114378312D02*
X355362934Y-114652699D01*
X355362934Y-114652699D02*
X354456217Y-113918455D01*
X354142632Y-110934889D02*
X354876876Y-110028173D01*
X354876876Y-110028173D02*
X357573025Y-109744796D01*
X357573025Y-109744796D02*
X357960877Y-109780450D01*
X357960877Y-109780450D02*
X358306779Y-109962289D01*
X358306779Y-109962289D02*
X358863997Y-110413516D01*
X358863997Y-110413516D02*
X358884903Y-110612420D01*
X358884903Y-110612420D02*
X359023383Y-111059394D01*
X359023383Y-111059394D02*
X359322725Y-111420080D01*
X359322725Y-111420080D02*
X359737766Y-111637889D01*
X359737766Y-111637889D02*
X360203764Y-111680412D01*
X360203764Y-111680412D02*
X362988425Y-111387733D01*
X362988425Y-111387733D02*
X363299125Y-111416413D01*
X363299125Y-111416413D02*
X363575784Y-111561288D01*
X363575784Y-111561288D02*
X363775014Y-111801780D01*
X363775014Y-111801780D02*
X363867665Y-112099727D01*
G04 #@! TO.C,S24*
X365963461Y-132039891D02*
X366261818Y-132008533D01*
X366261818Y-132008533D02*
X366345440Y-132804150D01*
X366345440Y-132804150D02*
X362359397Y-133223100D01*
X362359397Y-133223100D02*
X362064242Y-133198819D01*
X362064242Y-133198819D02*
X361798310Y-133069911D01*
X361798310Y-133069911D02*
X361597507Y-132852710D01*
X361597507Y-132852710D02*
X361489149Y-132577529D01*
X361489149Y-132577529D02*
X361273323Y-132026068D01*
X361273323Y-132026068D02*
X360871716Y-131591668D01*
X360871716Y-131591668D02*
X360339748Y-131332856D01*
X360339748Y-131332856D02*
X359750538Y-131285184D01*
X359750538Y-131285184D02*
X357139918Y-131559571D01*
X357139918Y-131559571D02*
X356233201Y-130825327D01*
X355919616Y-127841761D02*
X356653860Y-126935045D01*
X356653860Y-126935045D02*
X359350009Y-126651668D01*
X359350009Y-126651668D02*
X359737861Y-126687322D01*
X359737861Y-126687322D02*
X360083763Y-126869161D01*
X360083763Y-126869161D02*
X360640981Y-127320388D01*
X360640981Y-127320388D02*
X360661887Y-127519292D01*
X360661887Y-127519292D02*
X360800367Y-127966266D01*
X360800367Y-127966266D02*
X361099709Y-128326952D01*
X361099709Y-128326952D02*
X361514750Y-128544761D01*
X361514750Y-128544761D02*
X361980748Y-128587284D01*
X361980748Y-128587284D02*
X364765409Y-128294605D01*
X364765409Y-128294605D02*
X365076109Y-128323285D01*
X365076109Y-128323285D02*
X365352768Y-128468160D01*
X365352768Y-128468160D02*
X365551998Y-128708652D01*
X365551998Y-128708652D02*
X365644649Y-129006599D01*
G04 #@! TO.C,S23*
X367740445Y-148946763D02*
X368038802Y-148915405D01*
X368038802Y-148915405D02*
X368122424Y-149711022D01*
X368122424Y-149711022D02*
X364136381Y-150129972D01*
X364136381Y-150129972D02*
X363841226Y-150105691D01*
X363841226Y-150105691D02*
X363575294Y-149976783D01*
X363575294Y-149976783D02*
X363374491Y-149759582D01*
X363374491Y-149759582D02*
X363266133Y-149484401D01*
X363266133Y-149484401D02*
X363050307Y-148932940D01*
X363050307Y-148932940D02*
X362648700Y-148498540D01*
X362648700Y-148498540D02*
X362116732Y-148239728D01*
X362116732Y-148239728D02*
X361527522Y-148192056D01*
X361527522Y-148192056D02*
X358916902Y-148466443D01*
X358916902Y-148466443D02*
X358010185Y-147732199D01*
X357696600Y-144748633D02*
X358430844Y-143841917D01*
X358430844Y-143841917D02*
X361126993Y-143558540D01*
X361126993Y-143558540D02*
X361514845Y-143594194D01*
X361514845Y-143594194D02*
X361860747Y-143776033D01*
X361860747Y-143776033D02*
X362417965Y-144227260D01*
X362417965Y-144227260D02*
X362438871Y-144426164D01*
X362438871Y-144426164D02*
X362577351Y-144873138D01*
X362577351Y-144873138D02*
X362876693Y-145233824D01*
X362876693Y-145233824D02*
X363291734Y-145451633D01*
X363291734Y-145451633D02*
X363757732Y-145494156D01*
X363757732Y-145494156D02*
X366542393Y-145201477D01*
X366542393Y-145201477D02*
X366853093Y-145230157D01*
X366853093Y-145230157D02*
X367129752Y-145375032D01*
X367129752Y-145375032D02*
X367328982Y-145615524D01*
X367328982Y-145615524D02*
X367421633Y-145913471D01*
G04 #@! TO.C,S22*
X176741054Y-208403845D02*
X177015118Y-208281824D01*
X177015118Y-208281824D02*
X177340507Y-209012661D01*
X177340507Y-209012661D02*
X173679017Y-210642861D01*
X173679017Y-210642861D02*
X173390805Y-210710976D01*
X173390805Y-210710976D02*
X173098054Y-210670554D01*
X173098054Y-210670554D02*
X172839960Y-210526036D01*
X172839960Y-210526036D02*
X172651870Y-210297808D01*
X172651870Y-210297808D02*
X172276196Y-209840031D01*
X172276196Y-209840031D02*
X171760008Y-209550996D01*
X171760008Y-209550996D02*
X171174100Y-209469238D01*
X171174100Y-209469238D02*
X170598996Y-209605975D01*
X170598996Y-209605975D02*
X168200939Y-210673659D01*
X168200939Y-210673659D02*
X167111706Y-210255542D01*
X165891496Y-207514905D02*
X166309613Y-206425672D01*
X166309613Y-206425672D02*
X168786235Y-205323009D01*
X168786235Y-205323009D02*
X169166121Y-205237065D01*
X169166121Y-205237065D02*
X169551286Y-205303115D01*
X169551286Y-205303115D02*
X170220669Y-205560068D01*
X170220669Y-205560068D02*
X170302016Y-205742777D01*
X170302016Y-205742777D02*
X170571841Y-206125081D01*
X170571841Y-206125081D02*
X170967990Y-206375612D01*
X170967990Y-206375612D02*
X171430024Y-206454507D01*
X171430024Y-206454507D02*
X171886354Y-206350947D01*
X171886354Y-206350947D02*
X174444282Y-205212085D01*
X174444282Y-205212085D02*
X174748638Y-205143349D01*
X174748638Y-205143349D02*
X175056525Y-205195641D01*
X175056525Y-205195641D02*
X175320320Y-205362798D01*
X175320320Y-205362798D02*
X175500507Y-205617532D01*
G04 #@! TO.C,S21*
X161348801Y-200121295D02*
X161537597Y-200354439D01*
X161537597Y-200354439D02*
X160915880Y-200857895D01*
X160915880Y-200857895D02*
X158393564Y-197743094D01*
X158393564Y-197743094D02*
X158253175Y-197482332D01*
X158253175Y-197482332D02*
X158216450Y-197189094D01*
X158216450Y-197189094D02*
X158289244Y-196902391D01*
X158289244Y-196902391D02*
X158461014Y-196661640D01*
X158461014Y-196661640D02*
X158805961Y-196180286D01*
X158805961Y-196180286D02*
X158951549Y-195606878D01*
X158951549Y-195606878D02*
X158878877Y-195019774D01*
X158878877Y-195019774D02*
X158597951Y-194499656D01*
X158597951Y-194499656D02*
X156945985Y-192459648D01*
X156945985Y-192459648D02*
X157067941Y-191299313D01*
X159399379Y-189411352D02*
X160559713Y-189533308D01*
X160559713Y-189533308D02*
X162265801Y-191640151D01*
X162265801Y-191640151D02*
X162447138Y-191984849D01*
X162447138Y-191984849D02*
X162483027Y-192373984D01*
X162483027Y-192373984D02*
X162408079Y-193087062D01*
X162408079Y-193087062D02*
X162252650Y-193212926D01*
X162252650Y-193212926D02*
X161953208Y-193572505D01*
X161953208Y-193572505D02*
X161813744Y-194019998D01*
X161813744Y-194019998D02*
X161857121Y-194486708D01*
X161857121Y-194486708D02*
X162075259Y-194900686D01*
X162075259Y-194900686D02*
X163837356Y-197076695D01*
X163837356Y-197076695D02*
X163982522Y-197352890D01*
X163982522Y-197352890D02*
X164011699Y-197663820D01*
X164011699Y-197663820D02*
X163918514Y-197961890D01*
X163918514Y-197961890D02*
X163719096Y-198201868D01*
G04 #@! TO.C,S20*
X145780545Y-182711877D02*
X146023250Y-182888212D01*
X146023250Y-182888212D02*
X145553022Y-183535426D01*
X145553022Y-183535426D02*
X142310482Y-181179583D01*
X142310482Y-181179583D02*
X142107386Y-180964041D01*
X142107386Y-180964041D02*
X141996017Y-180690301D01*
X141996017Y-180690301D02*
X141992126Y-180394526D01*
X141992126Y-180394526D02*
X142095733Y-180117521D01*
X142095733Y-180117521D02*
X142304342Y-179563290D01*
X142304342Y-179563290D02*
X142296561Y-178971740D01*
X142296561Y-178971740D02*
X142074411Y-178423449D01*
X142074411Y-178423449D02*
X141668441Y-177993763D01*
X141668441Y-177993763D02*
X139544771Y-176450827D01*
X139544771Y-176450827D02*
X139362255Y-175298465D01*
X141125610Y-172871414D02*
X142277972Y-172688898D01*
X142277972Y-172688898D02*
X144471217Y-174282384D01*
X144471217Y-174282384D02*
X144735590Y-174568403D01*
X144735590Y-174568403D02*
X144870971Y-174934990D01*
X144870971Y-174934990D02*
X144983136Y-175643168D01*
X144983136Y-175643168D02*
X144865579Y-175804972D01*
X144865579Y-175804972D02*
X144669406Y-176229799D01*
X144669406Y-176229799D02*
X144650514Y-176698140D01*
X144650514Y-176698140D02*
X144813207Y-177137721D01*
X144813207Y-177137721D02*
X145131057Y-177481135D01*
X145131057Y-177481135D02*
X147396304Y-179126933D01*
X147396304Y-179126933D02*
X147608009Y-179356146D01*
X147608009Y-179356146D02*
X147716666Y-179648930D01*
X147716666Y-179648930D02*
X147703802Y-179960961D01*
X147703802Y-179960961D02*
X147573290Y-180244375D01*
G04 #@! TO.C,S19*
X199423113Y-185437790D02*
X199665818Y-185614125D01*
X199665818Y-185614125D02*
X199195590Y-186261339D01*
X199195590Y-186261339D02*
X195953050Y-183905496D01*
X195953050Y-183905496D02*
X195749954Y-183689954D01*
X195749954Y-183689954D02*
X195638585Y-183416214D01*
X195638585Y-183416214D02*
X195634694Y-183120439D01*
X195634694Y-183120439D02*
X195738301Y-182843434D01*
X195738301Y-182843434D02*
X195946910Y-182289203D01*
X195946910Y-182289203D02*
X195939129Y-181697653D01*
X195939129Y-181697653D02*
X195716979Y-181149362D01*
X195716979Y-181149362D02*
X195311009Y-180719676D01*
X195311009Y-180719676D02*
X193187339Y-179176740D01*
X193187339Y-179176740D02*
X193004823Y-178024378D01*
X194768178Y-175597327D02*
X195920540Y-175414811D01*
X195920540Y-175414811D02*
X198113785Y-177008297D01*
X198113785Y-177008297D02*
X198378158Y-177294316D01*
X198378158Y-177294316D02*
X198513539Y-177660903D01*
X198513539Y-177660903D02*
X198625704Y-178369081D01*
X198625704Y-178369081D02*
X198508147Y-178530885D01*
X198508147Y-178530885D02*
X198311974Y-178955712D01*
X198311974Y-178955712D02*
X198293082Y-179424053D01*
X198293082Y-179424053D02*
X198455775Y-179863634D01*
X198455775Y-179863634D02*
X198773625Y-180207048D01*
X198773625Y-180207048D02*
X201038872Y-181852846D01*
X201038872Y-181852846D02*
X201250577Y-182082059D01*
X201250577Y-182082059D02*
X201359234Y-182374843D01*
X201359234Y-182374843D02*
X201346370Y-182686874D01*
X201346370Y-182686874D02*
X201215858Y-182970288D01*
G04 #@! TO.C,S18*
X199849331Y-154227722D02*
X200092036Y-154404057D01*
X200092036Y-154404057D02*
X199621808Y-155051271D01*
X199621808Y-155051271D02*
X196379268Y-152695428D01*
X196379268Y-152695428D02*
X196176172Y-152479886D01*
X196176172Y-152479886D02*
X196064803Y-152206146D01*
X196064803Y-152206146D02*
X196060912Y-151910371D01*
X196060912Y-151910371D02*
X196164519Y-151633366D01*
X196164519Y-151633366D02*
X196373128Y-151079135D01*
X196373128Y-151079135D02*
X196365347Y-150487585D01*
X196365347Y-150487585D02*
X196143197Y-149939294D01*
X196143197Y-149939294D02*
X195737227Y-149509608D01*
X195737227Y-149509608D02*
X193613557Y-147966672D01*
X193613557Y-147966672D02*
X193431041Y-146814310D01*
X195194396Y-144387259D02*
X196346758Y-144204743D01*
X196346758Y-144204743D02*
X198540003Y-145798229D01*
X198540003Y-145798229D02*
X198804376Y-146084248D01*
X198804376Y-146084248D02*
X198939757Y-146450835D01*
X198939757Y-146450835D02*
X199051922Y-147159013D01*
X199051922Y-147159013D02*
X198934365Y-147320817D01*
X198934365Y-147320817D02*
X198738192Y-147745644D01*
X198738192Y-147745644D02*
X198719300Y-148213985D01*
X198719300Y-148213985D02*
X198881993Y-148653566D01*
X198881993Y-148653566D02*
X199199843Y-148996980D01*
X199199843Y-148996980D02*
X201465090Y-150642778D01*
X201465090Y-150642778D02*
X201676795Y-150871991D01*
X201676795Y-150871991D02*
X201785452Y-151164775D01*
X201785452Y-151164775D02*
X201772588Y-151476806D01*
X201772588Y-151476806D02*
X201642076Y-151760220D01*
G04 #@! TO.C,S17*
X189856981Y-167981011D02*
X190099686Y-168157346D01*
X190099686Y-168157346D02*
X189629458Y-168804560D01*
X189629458Y-168804560D02*
X186386918Y-166448717D01*
X186386918Y-166448717D02*
X186183822Y-166233175D01*
X186183822Y-166233175D02*
X186072453Y-165959435D01*
X186072453Y-165959435D02*
X186068562Y-165663660D01*
X186068562Y-165663660D02*
X186172169Y-165386655D01*
X186172169Y-165386655D02*
X186380778Y-164832424D01*
X186380778Y-164832424D02*
X186372997Y-164240874D01*
X186372997Y-164240874D02*
X186150847Y-163692583D01*
X186150847Y-163692583D02*
X185744877Y-163262897D01*
X185744877Y-163262897D02*
X183621207Y-161719961D01*
X183621207Y-161719961D02*
X183438691Y-160567599D01*
X185202046Y-158140548D02*
X186354408Y-157958032D01*
X186354408Y-157958032D02*
X188547653Y-159551518D01*
X188547653Y-159551518D02*
X188812026Y-159837537D01*
X188812026Y-159837537D02*
X188947407Y-160204124D01*
X188947407Y-160204124D02*
X189059572Y-160912302D01*
X189059572Y-160912302D02*
X188942015Y-161074106D01*
X188942015Y-161074106D02*
X188745842Y-161498933D01*
X188745842Y-161498933D02*
X188726950Y-161967274D01*
X188726950Y-161967274D02*
X188889643Y-162406855D01*
X188889643Y-162406855D02*
X189207493Y-162750269D01*
X189207493Y-162750269D02*
X191472740Y-164396067D01*
X191472740Y-164396067D02*
X191684445Y-164625280D01*
X191684445Y-164625280D02*
X191793102Y-164918064D01*
X191793102Y-164918064D02*
X191780238Y-165230095D01*
X191780238Y-165230095D02*
X191649726Y-165513509D01*
G04 #@! TO.C,S16*
X179864632Y-181734300D02*
X180107337Y-181910635D01*
X180107337Y-181910635D02*
X179637109Y-182557849D01*
X179637109Y-182557849D02*
X176394569Y-180202006D01*
X176394569Y-180202006D02*
X176191473Y-179986464D01*
X176191473Y-179986464D02*
X176080104Y-179712724D01*
X176080104Y-179712724D02*
X176076213Y-179416949D01*
X176076213Y-179416949D02*
X176179820Y-179139944D01*
X176179820Y-179139944D02*
X176388429Y-178585713D01*
X176388429Y-178585713D02*
X176380648Y-177994163D01*
X176380648Y-177994163D02*
X176158498Y-177445872D01*
X176158498Y-177445872D02*
X175752528Y-177016186D01*
X175752528Y-177016186D02*
X173628858Y-175473250D01*
X173628858Y-175473250D02*
X173446342Y-174320888D01*
X175209697Y-171893837D02*
X176362059Y-171711321D01*
X176362059Y-171711321D02*
X178555304Y-173304807D01*
X178555304Y-173304807D02*
X178819677Y-173590826D01*
X178819677Y-173590826D02*
X178955058Y-173957413D01*
X178955058Y-173957413D02*
X179067223Y-174665591D01*
X179067223Y-174665591D02*
X178949666Y-174827395D01*
X178949666Y-174827395D02*
X178753493Y-175252222D01*
X178753493Y-175252222D02*
X178734601Y-175720563D01*
X178734601Y-175720563D02*
X178897294Y-176160144D01*
X178897294Y-176160144D02*
X179215144Y-176503558D01*
X179215144Y-176503558D02*
X181480391Y-178149356D01*
X181480391Y-178149356D02*
X181692096Y-178378569D01*
X181692096Y-178378569D02*
X181800753Y-178671353D01*
X181800753Y-178671353D02*
X181787889Y-178983384D01*
X181787889Y-178983384D02*
X181657377Y-179266798D01*
G04 #@! TO.C,S15*
X187285494Y-140896930D02*
X187528199Y-141073265D01*
X187528199Y-141073265D02*
X187057971Y-141720479D01*
X187057971Y-141720479D02*
X183815431Y-139364636D01*
X183815431Y-139364636D02*
X183612335Y-139149094D01*
X183612335Y-139149094D02*
X183500966Y-138875354D01*
X183500966Y-138875354D02*
X183497075Y-138579579D01*
X183497075Y-138579579D02*
X183600682Y-138302574D01*
X183600682Y-138302574D02*
X183809291Y-137748343D01*
X183809291Y-137748343D02*
X183801510Y-137156793D01*
X183801510Y-137156793D02*
X183579360Y-136608502D01*
X183579360Y-136608502D02*
X183173390Y-136178816D01*
X183173390Y-136178816D02*
X181049720Y-134635880D01*
X181049720Y-134635880D02*
X180867204Y-133483518D01*
X182630559Y-131056467D02*
X183782921Y-130873951D01*
X183782921Y-130873951D02*
X185976166Y-132467437D01*
X185976166Y-132467437D02*
X186240539Y-132753456D01*
X186240539Y-132753456D02*
X186375920Y-133120043D01*
X186375920Y-133120043D02*
X186488085Y-133828221D01*
X186488085Y-133828221D02*
X186370528Y-133990025D01*
X186370528Y-133990025D02*
X186174355Y-134414852D01*
X186174355Y-134414852D02*
X186155463Y-134883193D01*
X186155463Y-134883193D02*
X186318156Y-135322774D01*
X186318156Y-135322774D02*
X186636006Y-135666188D01*
X186636006Y-135666188D02*
X188901253Y-137311986D01*
X188901253Y-137311986D02*
X189112958Y-137541199D01*
X189112958Y-137541199D02*
X189221615Y-137833983D01*
X189221615Y-137833983D02*
X189208751Y-138146014D01*
X189208751Y-138146014D02*
X189078239Y-138429428D01*
G04 #@! TO.C,S14*
X177293145Y-154650219D02*
X177535850Y-154826554D01*
X177535850Y-154826554D02*
X177065622Y-155473768D01*
X177065622Y-155473768D02*
X173823082Y-153117925D01*
X173823082Y-153117925D02*
X173619986Y-152902383D01*
X173619986Y-152902383D02*
X173508617Y-152628643D01*
X173508617Y-152628643D02*
X173504726Y-152332868D01*
X173504726Y-152332868D02*
X173608333Y-152055863D01*
X173608333Y-152055863D02*
X173816942Y-151501632D01*
X173816942Y-151501632D02*
X173809161Y-150910082D01*
X173809161Y-150910082D02*
X173587011Y-150361791D01*
X173587011Y-150361791D02*
X173181041Y-149932105D01*
X173181041Y-149932105D02*
X171057371Y-148389169D01*
X171057371Y-148389169D02*
X170874855Y-147236807D01*
X172638210Y-144809756D02*
X173790572Y-144627240D01*
X173790572Y-144627240D02*
X175983817Y-146220726D01*
X175983817Y-146220726D02*
X176248190Y-146506745D01*
X176248190Y-146506745D02*
X176383571Y-146873332D01*
X176383571Y-146873332D02*
X176495736Y-147581510D01*
X176495736Y-147581510D02*
X176378179Y-147743314D01*
X176378179Y-147743314D02*
X176182006Y-148168141D01*
X176182006Y-148168141D02*
X176163114Y-148636482D01*
X176163114Y-148636482D02*
X176325807Y-149076063D01*
X176325807Y-149076063D02*
X176643657Y-149419477D01*
X176643657Y-149419477D02*
X178908904Y-151065275D01*
X178908904Y-151065275D02*
X179120609Y-151294488D01*
X179120609Y-151294488D02*
X179229266Y-151587272D01*
X179229266Y-151587272D02*
X179216402Y-151899303D01*
X179216402Y-151899303D02*
X179085890Y-152182717D01*
G04 #@! TO.C,S13*
X167300796Y-168403508D02*
X167543501Y-168579843D01*
X167543501Y-168579843D02*
X167073273Y-169227057D01*
X167073273Y-169227057D02*
X163830733Y-166871214D01*
X163830733Y-166871214D02*
X163627637Y-166655672D01*
X163627637Y-166655672D02*
X163516268Y-166381932D01*
X163516268Y-166381932D02*
X163512377Y-166086157D01*
X163512377Y-166086157D02*
X163615984Y-165809152D01*
X163615984Y-165809152D02*
X163824593Y-165254921D01*
X163824593Y-165254921D02*
X163816812Y-164663371D01*
X163816812Y-164663371D02*
X163594662Y-164115080D01*
X163594662Y-164115080D02*
X163188692Y-163685394D01*
X163188692Y-163685394D02*
X161065022Y-162142458D01*
X161065022Y-162142458D02*
X160882506Y-160990096D01*
X162645861Y-158563045D02*
X163798223Y-158380529D01*
X163798223Y-158380529D02*
X165991468Y-159974015D01*
X165991468Y-159974015D02*
X166255841Y-160260034D01*
X166255841Y-160260034D02*
X166391222Y-160626621D01*
X166391222Y-160626621D02*
X166503387Y-161334799D01*
X166503387Y-161334799D02*
X166385830Y-161496603D01*
X166385830Y-161496603D02*
X166189657Y-161921430D01*
X166189657Y-161921430D02*
X166170765Y-162389771D01*
X166170765Y-162389771D02*
X166333458Y-162829352D01*
X166333458Y-162829352D02*
X166651308Y-163172766D01*
X166651308Y-163172766D02*
X168916555Y-164818564D01*
X168916555Y-164818564D02*
X169128260Y-165047777D01*
X169128260Y-165047777D02*
X169236917Y-165340561D01*
X169236917Y-165340561D02*
X169224053Y-165652592D01*
X169224053Y-165652592D02*
X169093541Y-165936006D01*
G04 #@! TO.C,S12*
X173512850Y-121777940D02*
X173770000Y-121932451D01*
X173770000Y-121932451D02*
X173357970Y-122618185D01*
X173357970Y-122618185D02*
X169922443Y-120553912D01*
X169922443Y-120553912D02*
X169701334Y-120356892D01*
X169701334Y-120356892D02*
X169566531Y-120093899D01*
X169566531Y-120093899D02*
X169536877Y-119799589D01*
X169536877Y-119799589D02*
X169615946Y-119514608D01*
X169615946Y-119514608D02*
X169775458Y-118944305D01*
X169775458Y-118944305D02*
X169716149Y-118355684D01*
X169716149Y-118355684D02*
X169447058Y-117828842D01*
X169447058Y-117828842D02*
X169005183Y-117436173D01*
X169005183Y-117436173D02*
X166755118Y-116084198D01*
X166755118Y-116084198D02*
X166472862Y-114952129D01*
X168017976Y-112380627D02*
X169150045Y-112098370D01*
X169150045Y-112098370D02*
X171473826Y-113494639D01*
X171473826Y-113494639D02*
X171762121Y-113756528D01*
X171762121Y-113756528D02*
X171928937Y-114109921D01*
X171928937Y-114109921D02*
X172102397Y-114805629D01*
X172102397Y-114805629D02*
X171999389Y-114977062D01*
X171999389Y-114977062D02*
X171840989Y-115417370D01*
X171840989Y-115417370D02*
X171862987Y-115885576D01*
X171862987Y-115885576D02*
X172063373Y-116309304D01*
X172063373Y-116309304D02*
X172409944Y-116623709D01*
X172409944Y-116623709D02*
X174810013Y-118065815D01*
X174810013Y-118065815D02*
X175040888Y-118275704D01*
X175040888Y-118275704D02*
X175174650Y-118557904D01*
X175174650Y-118557904D02*
X175189030Y-118869869D01*
X175189030Y-118869869D02*
X175083716Y-119163579D01*
G04 #@! TO.C,S11*
X164757203Y-136349784D02*
X165014353Y-136504295D01*
X165014353Y-136504295D02*
X164602323Y-137190029D01*
X164602323Y-137190029D02*
X161166796Y-135125756D01*
X161166796Y-135125756D02*
X160945687Y-134928736D01*
X160945687Y-134928736D02*
X160810884Y-134665743D01*
X160810884Y-134665743D02*
X160781230Y-134371433D01*
X160781230Y-134371433D02*
X160860299Y-134086452D01*
X160860299Y-134086452D02*
X161019811Y-133516149D01*
X161019811Y-133516149D02*
X160960502Y-132927528D01*
X160960502Y-132927528D02*
X160691411Y-132400686D01*
X160691411Y-132400686D02*
X160249536Y-132008017D01*
X160249536Y-132008017D02*
X157999471Y-130656042D01*
X157999471Y-130656042D02*
X157717215Y-129523973D01*
X159262329Y-126952471D02*
X160394398Y-126670214D01*
X160394398Y-126670214D02*
X162718179Y-128066483D01*
X162718179Y-128066483D02*
X163006474Y-128328372D01*
X163006474Y-128328372D02*
X163173290Y-128681765D01*
X163173290Y-128681765D02*
X163346750Y-129377473D01*
X163346750Y-129377473D02*
X163243742Y-129548906D01*
X163243742Y-129548906D02*
X163085342Y-129989214D01*
X163085342Y-129989214D02*
X163107340Y-130457420D01*
X163107340Y-130457420D02*
X163307726Y-130881148D01*
X163307726Y-130881148D02*
X163654297Y-131195553D01*
X163654297Y-131195553D02*
X166054366Y-132637659D01*
X166054366Y-132637659D02*
X166285241Y-132847548D01*
X166285241Y-132847548D02*
X166419003Y-133129748D01*
X166419003Y-133129748D02*
X166433383Y-133441713D01*
X166433383Y-133441713D02*
X166328069Y-133735423D01*
G04 #@! TO.C,S10*
X156001556Y-150921628D02*
X156258706Y-151076139D01*
X156258706Y-151076139D02*
X155846676Y-151761873D01*
X155846676Y-151761873D02*
X152411149Y-149697600D01*
X152411149Y-149697600D02*
X152190040Y-149500580D01*
X152190040Y-149500580D02*
X152055237Y-149237587D01*
X152055237Y-149237587D02*
X152025583Y-148943277D01*
X152025583Y-148943277D02*
X152104652Y-148658296D01*
X152104652Y-148658296D02*
X152264164Y-148087993D01*
X152264164Y-148087993D02*
X152204855Y-147499372D01*
X152204855Y-147499372D02*
X151935764Y-146972530D01*
X151935764Y-146972530D02*
X151493889Y-146579861D01*
X151493889Y-146579861D02*
X149243824Y-145227886D01*
X149243824Y-145227886D02*
X148961568Y-144095817D01*
X150506682Y-141524315D02*
X151638751Y-141242058D01*
X151638751Y-141242058D02*
X153962532Y-142638327D01*
X153962532Y-142638327D02*
X154250827Y-142900216D01*
X154250827Y-142900216D02*
X154417643Y-143253609D01*
X154417643Y-143253609D02*
X154591103Y-143949317D01*
X154591103Y-143949317D02*
X154488095Y-144120750D01*
X154488095Y-144120750D02*
X154329695Y-144561058D01*
X154329695Y-144561058D02*
X154351693Y-145029264D01*
X154351693Y-145029264D02*
X154552079Y-145452992D01*
X154552079Y-145452992D02*
X154898650Y-145767397D01*
X154898650Y-145767397D02*
X157298719Y-147209503D01*
X157298719Y-147209503D02*
X157529594Y-147419392D01*
X157529594Y-147419392D02*
X157663356Y-147701592D01*
X157663356Y-147701592D02*
X157677736Y-148013557D01*
X157677736Y-148013557D02*
X157572422Y-148307267D01*
G04 #@! TO.C,S9*
X152077052Y-115141932D02*
X152346691Y-115273444D01*
X152346691Y-115273444D02*
X151995994Y-115992479D01*
X151995994Y-115992479D02*
X148393627Y-114235487D01*
X148393627Y-114235487D02*
X148156189Y-114058488D01*
X148156189Y-114058488D02*
X147998977Y-113808245D01*
X147998977Y-113808245D02*
X147943785Y-113517639D01*
X147943785Y-113517639D02*
X147997716Y-113226851D01*
X147997716Y-113226851D02*
X148106915Y-112644815D01*
X148106915Y-112644815D02*
X147996530Y-112063604D01*
X147996530Y-112063604D02*
X147682545Y-111562219D01*
X147682545Y-111562219D02*
X147208128Y-111209557D01*
X147208128Y-111209557D02*
X144848794Y-110058832D01*
X144848794Y-110058832D02*
X144468945Y-108955671D01*
X145784059Y-106259289D02*
X146887220Y-105879440D01*
X146887220Y-105879440D02*
X149323851Y-107067864D01*
X149323851Y-107067864D02*
X149633874Y-107303630D01*
X149633874Y-107303630D02*
X149830855Y-107641139D01*
X149830855Y-107641139D02*
X150064290Y-108319082D01*
X150064290Y-108319082D02*
X149976615Y-108498841D01*
X149976615Y-108498841D02*
X149857193Y-108951279D01*
X149857193Y-108951279D02*
X149919915Y-109415785D01*
X149919915Y-109415785D02*
X150156468Y-109820437D01*
X150156468Y-109820437D02*
X150529123Y-110103439D01*
X150529123Y-110103439D02*
X153045746Y-111330878D01*
X153045746Y-111330878D02*
X153294037Y-111519846D01*
X153294037Y-111519846D02*
X153451885Y-111789314D01*
X153451885Y-111789314D02*
X153493400Y-112098839D01*
X153493400Y-112098839D02*
X153414084Y-112400610D01*
G04 #@! TO.C,S8*
X144624742Y-130421431D02*
X144894381Y-130552943D01*
X144894381Y-130552943D02*
X144543684Y-131271978D01*
X144543684Y-131271978D02*
X140941317Y-129514986D01*
X140941317Y-129514986D02*
X140703879Y-129337987D01*
X140703879Y-129337987D02*
X140546667Y-129087744D01*
X140546667Y-129087744D02*
X140491475Y-128797138D01*
X140491475Y-128797138D02*
X140545406Y-128506350D01*
X140545406Y-128506350D02*
X140654605Y-127924314D01*
X140654605Y-127924314D02*
X140544220Y-127343103D01*
X140544220Y-127343103D02*
X140230235Y-126841718D01*
X140230235Y-126841718D02*
X139755818Y-126489056D01*
X139755818Y-126489056D02*
X137396484Y-125338331D01*
X137396484Y-125338331D02*
X137016635Y-124235170D01*
X138331749Y-121538788D02*
X139434910Y-121158939D01*
X139434910Y-121158939D02*
X141871541Y-122347363D01*
X141871541Y-122347363D02*
X142181564Y-122583129D01*
X142181564Y-122583129D02*
X142378545Y-122920638D01*
X142378545Y-122920638D02*
X142611980Y-123598581D01*
X142611980Y-123598581D02*
X142524305Y-123778340D01*
X142524305Y-123778340D02*
X142404883Y-124230778D01*
X142404883Y-124230778D02*
X142467605Y-124695284D01*
X142467605Y-124695284D02*
X142704158Y-125099936D01*
X142704158Y-125099936D02*
X143076813Y-125382938D01*
X143076813Y-125382938D02*
X145593436Y-126610377D01*
X145593436Y-126610377D02*
X145841727Y-126799345D01*
X145841727Y-126799345D02*
X145999575Y-127068813D01*
X145999575Y-127068813D02*
X146041090Y-127378338D01*
X146041090Y-127378338D02*
X145961774Y-127680109D01*
G04 #@! TO.C,S7*
X137172433Y-145700930D02*
X137442072Y-145832442D01*
X137442072Y-145832442D02*
X137091375Y-146551477D01*
X137091375Y-146551477D02*
X133489008Y-144794485D01*
X133489008Y-144794485D02*
X133251570Y-144617486D01*
X133251570Y-144617486D02*
X133094358Y-144367243D01*
X133094358Y-144367243D02*
X133039166Y-144076637D01*
X133039166Y-144076637D02*
X133093097Y-143785849D01*
X133093097Y-143785849D02*
X133202296Y-143203813D01*
X133202296Y-143203813D02*
X133091911Y-142622602D01*
X133091911Y-142622602D02*
X132777926Y-142121217D01*
X132777926Y-142121217D02*
X132303509Y-141768555D01*
X132303509Y-141768555D02*
X129944175Y-140617830D01*
X129944175Y-140617830D02*
X129564326Y-139514669D01*
X130879440Y-136818287D02*
X131982601Y-136438438D01*
X131982601Y-136438438D02*
X134419232Y-137626862D01*
X134419232Y-137626862D02*
X134729255Y-137862628D01*
X134729255Y-137862628D02*
X134926236Y-138200137D01*
X134926236Y-138200137D02*
X135159671Y-138878080D01*
X135159671Y-138878080D02*
X135071996Y-139057839D01*
X135071996Y-139057839D02*
X134952574Y-139510277D01*
X134952574Y-139510277D02*
X135015296Y-139974783D01*
X135015296Y-139974783D02*
X135251849Y-140379435D01*
X135251849Y-140379435D02*
X135624504Y-140662437D01*
X135624504Y-140662437D02*
X138141127Y-141889876D01*
X138141127Y-141889876D02*
X138389418Y-142078844D01*
X138389418Y-142078844D02*
X138547266Y-142348312D01*
X138547266Y-142348312D02*
X138588781Y-142657837D01*
X138588781Y-142657837D02*
X138509465Y-142959608D01*
G04 #@! TO.C,S6*
X122437684Y-115519556D02*
X122732172Y-115576799D01*
X122732172Y-115576799D02*
X122579525Y-116362100D01*
X122579525Y-116362100D02*
X118645163Y-115597338D01*
X118645163Y-115597338D02*
X118370004Y-115487823D01*
X118370004Y-115487823D02*
X118153382Y-115286796D01*
X118153382Y-115286796D02*
X118024855Y-115020377D01*
X118024855Y-115020377D02*
X118001687Y-114725540D01*
X118001687Y-114725540D02*
X117956524Y-114135074D01*
X117956524Y-114135074D02*
X117699471Y-113602236D01*
X117699471Y-113602236D02*
X117266418Y-113199200D01*
X117266418Y-113199200D02*
X116716891Y-112981343D01*
X116716891Y-112981343D02*
X114140119Y-112480469D01*
X114140119Y-112480469D02*
X113487694Y-111513210D01*
X114060121Y-108568328D02*
X115027381Y-107915903D01*
X115027381Y-107915903D02*
X117688572Y-108433186D01*
X117688572Y-108433186D02*
X118049052Y-108580679D01*
X118049052Y-108580679D02*
X118326676Y-108855705D01*
X118326676Y-108855705D02*
X118727621Y-109450130D01*
X118727621Y-109450130D02*
X118689459Y-109646456D01*
X118689459Y-109646456D02*
X118691205Y-110114386D01*
X118691205Y-110114386D02*
X118872013Y-110546831D01*
X118872013Y-110546831D02*
X119205237Y-110876470D01*
X119205237Y-110876470D02*
X119638441Y-111053379D01*
X119638441Y-111053379D02*
X122386997Y-111587644D01*
X122386997Y-111587644D02*
X122675735Y-111705911D01*
X122675735Y-111705911D02*
X122897948Y-111925343D01*
X122897948Y-111925343D02*
X123018160Y-112213576D01*
X123018160Y-112213576D02*
X123019651Y-112525593D01*
G04 #@! TO.C,S5*
X119193931Y-132207218D02*
X119488419Y-132264461D01*
X119488419Y-132264461D02*
X119335772Y-133049762D01*
X119335772Y-133049762D02*
X115401410Y-132285000D01*
X115401410Y-132285000D02*
X115126251Y-132175485D01*
X115126251Y-132175485D02*
X114909629Y-131974458D01*
X114909629Y-131974458D02*
X114781102Y-131708039D01*
X114781102Y-131708039D02*
X114757934Y-131413202D01*
X114757934Y-131413202D02*
X114712771Y-130822736D01*
X114712771Y-130822736D02*
X114455718Y-130289898D01*
X114455718Y-130289898D02*
X114022665Y-129886862D01*
X114022665Y-129886862D02*
X113473138Y-129669005D01*
X113473138Y-129669005D02*
X110896366Y-129168131D01*
X110896366Y-129168131D02*
X110243941Y-128200872D01*
X110816368Y-125255990D02*
X111783628Y-124603565D01*
X111783628Y-124603565D02*
X114444819Y-125120848D01*
X114444819Y-125120848D02*
X114805299Y-125268341D01*
X114805299Y-125268341D02*
X115082923Y-125543367D01*
X115082923Y-125543367D02*
X115483868Y-126137792D01*
X115483868Y-126137792D02*
X115445706Y-126334118D01*
X115445706Y-126334118D02*
X115447452Y-126802048D01*
X115447452Y-126802048D02*
X115628260Y-127234493D01*
X115628260Y-127234493D02*
X115961484Y-127564132D01*
X115961484Y-127564132D02*
X116394688Y-127741041D01*
X116394688Y-127741041D02*
X119143244Y-128275306D01*
X119143244Y-128275306D02*
X119431982Y-128393573D01*
X119431982Y-128393573D02*
X119654195Y-128613005D01*
X119654195Y-128613005D02*
X119774407Y-128901238D01*
X119774407Y-128901238D02*
X119775898Y-129213255D01*
G04 #@! TO.C,S4*
X115950178Y-148894881D02*
X116244666Y-148952124D01*
X116244666Y-148952124D02*
X116092019Y-149737425D01*
X116092019Y-149737425D02*
X112157657Y-148972663D01*
X112157657Y-148972663D02*
X111882498Y-148863148D01*
X111882498Y-148863148D02*
X111665876Y-148662121D01*
X111665876Y-148662121D02*
X111537349Y-148395702D01*
X111537349Y-148395702D02*
X111514181Y-148100865D01*
X111514181Y-148100865D02*
X111469018Y-147510399D01*
X111469018Y-147510399D02*
X111211965Y-146977561D01*
X111211965Y-146977561D02*
X110778912Y-146574525D01*
X110778912Y-146574525D02*
X110229385Y-146356668D01*
X110229385Y-146356668D02*
X107652613Y-145855794D01*
X107652613Y-145855794D02*
X107000188Y-144888535D01*
X107572615Y-141943653D02*
X108539875Y-141291228D01*
X108539875Y-141291228D02*
X111201066Y-141808511D01*
X111201066Y-141808511D02*
X111561546Y-141956004D01*
X111561546Y-141956004D02*
X111839170Y-142231030D01*
X111839170Y-142231030D02*
X112240115Y-142825455D01*
X112240115Y-142825455D02*
X112201953Y-143021781D01*
X112201953Y-143021781D02*
X112203699Y-143489711D01*
X112203699Y-143489711D02*
X112384507Y-143922156D01*
X112384507Y-143922156D02*
X112717731Y-144251795D01*
X112717731Y-144251795D02*
X113150935Y-144428704D01*
X113150935Y-144428704D02*
X115899491Y-144962969D01*
X115899491Y-144962969D02*
X116188229Y-145081236D01*
X116188229Y-145081236D02*
X116410442Y-145300668D01*
X116410442Y-145300668D02*
X116530654Y-145588901D01*
X116530654Y-145588901D02*
X116532145Y-145900918D01*
G04 #@! TO.C,S3*
X100283816Y-116653908D02*
X100582172Y-116685267D01*
X100582172Y-116685267D02*
X100498549Y-117480884D01*
X100498549Y-117480884D02*
X96512506Y-117061934D01*
X96512506Y-117061934D02*
X96228849Y-116976818D01*
X96228849Y-116976818D02*
X95995530Y-116795436D01*
X95995530Y-116795436D02*
X95844273Y-116541233D01*
X95844273Y-116541233D02*
X95795497Y-116249536D01*
X95795497Y-116249536D02*
X95699042Y-115665253D01*
X95699042Y-115665253D02*
X95396528Y-115156847D01*
X95396528Y-115156847D02*
X94929996Y-114793088D01*
X94929996Y-114793088D02*
X94363572Y-114623954D01*
X94363572Y-114623954D02*
X91752952Y-114349567D01*
X91752952Y-114349567D02*
X91018707Y-113442850D01*
X91332293Y-110459285D02*
X92239009Y-109725040D01*
X92239009Y-109725040D02*
X94935158Y-110008417D01*
X94935158Y-110008417D02*
X95307121Y-110123930D01*
X95307121Y-110123930D02*
X95607658Y-110373713D01*
X95607658Y-110373713D02*
X96058885Y-110930932D01*
X96058885Y-110930932D02*
X96037979Y-111129836D01*
X96037979Y-111129836D02*
X96080502Y-111595834D01*
X96080502Y-111595834D02*
X96298312Y-112010875D01*
X96298312Y-112010875D02*
X96658998Y-112310217D01*
X96658998Y-112310217D02*
X97105971Y-112448697D01*
X97105971Y-112448697D02*
X99890633Y-112741376D01*
X99890633Y-112741376D02*
X100188580Y-112834028D01*
X100188580Y-112834028D02*
X100429072Y-113033258D01*
X100429072Y-113033258D02*
X100573947Y-113309917D01*
X100573947Y-113309917D02*
X100602627Y-113620617D01*
G04 #@! TO.C,S2*
X98506832Y-133560780D02*
X98805188Y-133592139D01*
X98805188Y-133592139D02*
X98721565Y-134387756D01*
X98721565Y-134387756D02*
X94735522Y-133968806D01*
X94735522Y-133968806D02*
X94451865Y-133883690D01*
X94451865Y-133883690D02*
X94218546Y-133702308D01*
X94218546Y-133702308D02*
X94067289Y-133448105D01*
X94067289Y-133448105D02*
X94018513Y-133156408D01*
X94018513Y-133156408D02*
X93922058Y-132572125D01*
X93922058Y-132572125D02*
X93619544Y-132063719D01*
X93619544Y-132063719D02*
X93153012Y-131699960D01*
X93153012Y-131699960D02*
X92586588Y-131530826D01*
X92586588Y-131530826D02*
X89975968Y-131256439D01*
X89975968Y-131256439D02*
X89241723Y-130349722D01*
X89555309Y-127366157D02*
X90462025Y-126631912D01*
X90462025Y-126631912D02*
X93158174Y-126915289D01*
X93158174Y-126915289D02*
X93530137Y-127030802D01*
X93530137Y-127030802D02*
X93830674Y-127280585D01*
X93830674Y-127280585D02*
X94281901Y-127837804D01*
X94281901Y-127837804D02*
X94260995Y-128036708D01*
X94260995Y-128036708D02*
X94303518Y-128502706D01*
X94303518Y-128502706D02*
X94521328Y-128917747D01*
X94521328Y-128917747D02*
X94882014Y-129217089D01*
X94882014Y-129217089D02*
X95328987Y-129355569D01*
X95328987Y-129355569D02*
X98113649Y-129648248D01*
X98113649Y-129648248D02*
X98411596Y-129740900D01*
X98411596Y-129740900D02*
X98652088Y-129940130D01*
X98652088Y-129940130D02*
X98796963Y-130216789D01*
X98796963Y-130216789D02*
X98825643Y-130527489D01*
G04 #@! TO.C,S1*
X96729848Y-150467652D02*
X97028204Y-150499011D01*
X97028204Y-150499011D02*
X96944581Y-151294628D01*
X96944581Y-151294628D02*
X92958538Y-150875678D01*
X92958538Y-150875678D02*
X92674881Y-150790562D01*
X92674881Y-150790562D02*
X92441562Y-150609180D01*
X92441562Y-150609180D02*
X92290305Y-150354977D01*
X92290305Y-150354977D02*
X92241529Y-150063280D01*
X92241529Y-150063280D02*
X92145074Y-149478997D01*
X92145074Y-149478997D02*
X91842560Y-148970591D01*
X91842560Y-148970591D02*
X91376028Y-148606832D01*
X91376028Y-148606832D02*
X90809604Y-148437698D01*
X90809604Y-148437698D02*
X88198984Y-148163311D01*
X88198984Y-148163311D02*
X87464739Y-147256594D01*
X87778325Y-144273029D02*
X88685041Y-143538784D01*
X88685041Y-143538784D02*
X91381190Y-143822161D01*
X91381190Y-143822161D02*
X91753153Y-143937674D01*
X91753153Y-143937674D02*
X92053690Y-144187457D01*
X92053690Y-144187457D02*
X92504917Y-144744676D01*
X92504917Y-144744676D02*
X92484011Y-144943580D01*
X92484011Y-144943580D02*
X92526534Y-145409578D01*
X92526534Y-145409578D02*
X92744344Y-145824619D01*
X92744344Y-145824619D02*
X93105030Y-146123961D01*
X93105030Y-146123961D02*
X93552003Y-146262441D01*
X93552003Y-146262441D02*
X96336665Y-146555120D01*
X96336665Y-146555120D02*
X96634612Y-146647772D01*
X96634612Y-146647772D02*
X96875104Y-146847002D01*
X96875104Y-146847002D02*
X97019979Y-147123661D01*
X97019979Y-147123661D02*
X97048659Y-147434361D01*
G04 #@! TO.C,D22*
X181252760Y-213354973D02*
X182391622Y-215912901D01*
X182391622Y-215912901D02*
X180747240Y-216645027D01*
X181142358Y-215319741D02*
X181305052Y-215685159D01*
X181644808Y-215096036D02*
X181142358Y-215319741D01*
X180639908Y-215543446D02*
X181142358Y-215319741D01*
X181263734Y-214608919D02*
X181142358Y-215319741D01*
X180532898Y-214934308D02*
X181263734Y-214608919D01*
X180694948Y-214314841D02*
X180898316Y-214771614D01*
X181142358Y-215319741D02*
X180532898Y-214934308D01*
X179608378Y-214087099D02*
X181252760Y-213354973D01*
X180747240Y-216645027D02*
X179608378Y-214087099D01*
G04 #@! TO.C,D21*
X158154393Y-205818383D02*
X155978384Y-207580480D01*
X155978384Y-207580480D02*
X154845607Y-206181617D01*
X156227999Y-206220262D02*
X155917141Y-206471990D01*
X156574125Y-206647692D02*
X156227999Y-206220262D01*
X155881873Y-205792832D02*
X156227999Y-206220262D01*
X156946015Y-206153528D02*
X156227999Y-206220262D01*
X156442558Y-205531812D02*
X156946015Y-206153528D01*
X157082859Y-205528010D02*
X156694286Y-205842670D01*
X156227999Y-206220262D02*
X156442558Y-205531812D01*
X157021616Y-204419520D02*
X158154393Y-205818383D01*
X154845607Y-206181617D02*
X157021616Y-204419520D01*
G04 #@! TO.C,D20*
X144051015Y-188896383D02*
X142405216Y-191161631D01*
X142405216Y-191161631D02*
X140948985Y-190103617D01*
X142294275Y-189783156D02*
X142059161Y-190106763D01*
X142739235Y-190106438D02*
X142294275Y-189783156D01*
X141849316Y-189459874D02*
X142294275Y-189783156D01*
X142970553Y-189532860D02*
X142294275Y-189783156D01*
X142323340Y-189062632D02*
X142970553Y-189532860D01*
X142940839Y-188893237D02*
X142646946Y-189297746D01*
X142294275Y-189783156D02*
X142323340Y-189062632D01*
X142594784Y-187838369D02*
X144051015Y-188896383D01*
X140948985Y-190103617D02*
X142594784Y-187838369D01*
G04 #@! TO.C,D19*
X197551015Y-191396383D02*
X195905216Y-193661631D01*
X195905216Y-193661631D02*
X194448985Y-192603617D01*
X195794275Y-192283156D02*
X195559161Y-192606763D01*
X196239235Y-192606438D02*
X195794275Y-192283156D01*
X195349316Y-191959874D02*
X195794275Y-192283156D01*
X196470553Y-192032860D02*
X195794275Y-192283156D01*
X195823340Y-191562632D02*
X196470553Y-192032860D01*
X196440839Y-191393237D02*
X196146946Y-191797746D01*
X195794275Y-192283156D02*
X195823340Y-191562632D01*
X196094784Y-190338369D02*
X197551015Y-191396383D01*
X194448985Y-192603617D02*
X196094784Y-190338369D01*
G04 #@! TO.C,D18*
X198051015Y-160396383D02*
X196405216Y-162661631D01*
X196405216Y-162661631D02*
X194948985Y-161603617D01*
X196294275Y-161283156D02*
X196059161Y-161606763D01*
X196739235Y-161606438D02*
X196294275Y-161283156D01*
X195849316Y-160959874D02*
X196294275Y-161283156D01*
X196970553Y-161032860D02*
X196294275Y-161283156D01*
X196323340Y-160562632D02*
X196970553Y-161032860D01*
X196940839Y-160393237D02*
X196646946Y-160797746D01*
X196294275Y-161283156D02*
X196323340Y-160562632D01*
X196594784Y-159338369D02*
X198051015Y-160396383D01*
X194948985Y-161603617D02*
X196594784Y-159338369D01*
G04 #@! TO.C,D17*
X188051015Y-174396383D02*
X186405216Y-176661631D01*
X186405216Y-176661631D02*
X184948985Y-175603617D01*
X186294275Y-175283156D02*
X186059161Y-175606763D01*
X186739235Y-175606438D02*
X186294275Y-175283156D01*
X185849316Y-174959874D02*
X186294275Y-175283156D01*
X186970553Y-175032860D02*
X186294275Y-175283156D01*
X186323340Y-174562632D02*
X186970553Y-175032860D01*
X186940839Y-174393237D02*
X186646946Y-174797746D01*
X186294275Y-175283156D02*
X186323340Y-174562632D01*
X186594784Y-173338369D02*
X188051015Y-174396383D01*
X184948985Y-175603617D02*
X186594784Y-173338369D01*
G04 #@! TO.C,D16*
X178051015Y-187896383D02*
X176405216Y-190161631D01*
X176405216Y-190161631D02*
X174948985Y-189103617D01*
X176294275Y-188783156D02*
X176059161Y-189106763D01*
X176739235Y-189106438D02*
X176294275Y-188783156D01*
X175849316Y-188459874D02*
X176294275Y-188783156D01*
X176970553Y-188532860D02*
X176294275Y-188783156D01*
X176323340Y-188062632D02*
X176970553Y-188532860D01*
X176940839Y-187893237D02*
X176646946Y-188297746D01*
X176294275Y-188783156D02*
X176323340Y-188062632D01*
X176594784Y-186838369D02*
X178051015Y-187896383D01*
X174948985Y-189103617D02*
X176594784Y-186838369D01*
G04 #@! TO.C,D15*
X185551015Y-147396383D02*
X183905216Y-149661631D01*
X183905216Y-149661631D02*
X182448985Y-148603617D01*
X183794275Y-148283156D02*
X183559161Y-148606763D01*
X184239235Y-148606438D02*
X183794275Y-148283156D01*
X183349316Y-147959874D02*
X183794275Y-148283156D01*
X184470553Y-148032860D02*
X183794275Y-148283156D01*
X183823340Y-147562632D02*
X184470553Y-148032860D01*
X184440839Y-147393237D02*
X184146946Y-147797746D01*
X183794275Y-148283156D02*
X183823340Y-147562632D01*
X184094784Y-146338369D02*
X185551015Y-147396383D01*
X182448985Y-148603617D02*
X184094784Y-146338369D01*
G04 #@! TO.C,D14*
X175551015Y-160896383D02*
X173905216Y-163161631D01*
X173905216Y-163161631D02*
X172448985Y-162103617D01*
X173794275Y-161783156D02*
X173559161Y-162106763D01*
X174239235Y-162106438D02*
X173794275Y-161783156D01*
X173349316Y-161459874D02*
X173794275Y-161783156D01*
X174470553Y-161532860D02*
X173794275Y-161783156D01*
X173823340Y-161062632D02*
X174470553Y-161532860D01*
X174440839Y-160893237D02*
X174146946Y-161297746D01*
X173794275Y-161783156D02*
X173823340Y-161062632D01*
X174094784Y-159838369D02*
X175551015Y-160896383D01*
X172448985Y-162103617D02*
X174094784Y-159838369D01*
G04 #@! TO.C,D13*
X165551015Y-174396383D02*
X163905216Y-176661631D01*
X163905216Y-176661631D02*
X162448985Y-175603617D01*
X163794275Y-175283156D02*
X163559161Y-175606763D01*
X164239235Y-175606438D02*
X163794275Y-175283156D01*
X163349316Y-174959874D02*
X163794275Y-175283156D01*
X164470553Y-175032860D02*
X163794275Y-175283156D01*
X163823340Y-174562632D02*
X164470553Y-175032860D01*
X164440839Y-174393237D02*
X164146946Y-174797746D01*
X163794275Y-175283156D02*
X163823340Y-174562632D01*
X164094784Y-173338369D02*
X165551015Y-174396383D01*
X162448985Y-175603617D02*
X164094784Y-173338369D01*
G04 #@! TO.C,D12*
X172492504Y-128263500D02*
X171050397Y-130663568D01*
X171050397Y-130663568D02*
X169507496Y-129736500D01*
X170819737Y-129300009D02*
X170613721Y-129642875D01*
X171291179Y-129583279D02*
X170819737Y-129300009D01*
X170348295Y-129016738D02*
X170819737Y-129300009D01*
X171471626Y-128991723D02*
X170819737Y-129300009D01*
X170785893Y-128579693D02*
X171471626Y-128991723D01*
X171386279Y-128357125D02*
X171128760Y-128785708D01*
X170819737Y-129300009D02*
X170785893Y-128579693D01*
X170949603Y-127336432D02*
X172492504Y-128263500D01*
X169507496Y-129736500D02*
X170949603Y-127336432D01*
G04 #@! TO.C,D11*
X163492504Y-142763500D02*
X162050397Y-145163568D01*
X162050397Y-145163568D02*
X160507496Y-144236500D01*
X161819737Y-143800009D02*
X161613721Y-144142875D01*
X162291179Y-144083279D02*
X161819737Y-143800009D01*
X161348295Y-143516738D02*
X161819737Y-143800009D01*
X162471626Y-143491723D02*
X161819737Y-143800009D01*
X161785893Y-143079693D02*
X162471626Y-143491723D01*
X162386279Y-142857125D02*
X162128760Y-143285708D01*
X161819737Y-143800009D02*
X161785893Y-143079693D01*
X161949603Y-141836432D02*
X163492504Y-142763500D01*
X160507496Y-144236500D02*
X161949603Y-141836432D01*
G04 #@! TO.C,D10*
X154992504Y-157263500D02*
X153550397Y-159663568D01*
X153550397Y-159663568D02*
X152007496Y-158736500D01*
X153319737Y-158300009D02*
X153113721Y-158642875D01*
X153791179Y-158583279D02*
X153319737Y-158300009D01*
X152848295Y-158016738D02*
X153319737Y-158300009D01*
X153971626Y-157991723D02*
X153319737Y-158300009D01*
X153285893Y-157579693D02*
X153971626Y-157991723D01*
X153886279Y-157357125D02*
X153628760Y-157785708D01*
X153319737Y-158300009D02*
X153285893Y-157579693D01*
X153449603Y-156336432D02*
X154992504Y-157263500D01*
X152007496Y-158736500D02*
X153449603Y-156336432D01*
G04 #@! TO.C,D9*
X151422634Y-121636222D02*
X150195195Y-124152846D01*
X150195195Y-124152846D02*
X148577366Y-123363778D01*
X149846570Y-122814578D02*
X149671222Y-123174096D01*
X150340907Y-123055682D02*
X149846570Y-122814578D01*
X149352233Y-122573474D02*
X149846570Y-122814578D01*
X150469110Y-122450650D02*
X149846570Y-122814578D01*
X149750075Y-122099953D02*
X150469110Y-122450650D01*
X150328778Y-121825904D02*
X150109593Y-122275301D01*
X149846570Y-122814578D02*
X149750075Y-122099953D01*
X149804805Y-120847154D02*
X151422634Y-121636222D01*
X148577366Y-123363778D02*
X149804805Y-120847154D01*
G04 #@! TO.C,D8*
X143922634Y-137136222D02*
X142695195Y-139652846D01*
X142695195Y-139652846D02*
X141077366Y-138863778D01*
X142346570Y-138314578D02*
X142171222Y-138674096D01*
X142840907Y-138555682D02*
X142346570Y-138314578D01*
X141852233Y-138073474D02*
X142346570Y-138314578D01*
X142969110Y-137950650D02*
X142346570Y-138314578D01*
X142250075Y-137599953D02*
X142969110Y-137950650D01*
X142828778Y-137325904D02*
X142609593Y-137775301D01*
X142346570Y-138314578D02*
X142250075Y-137599953D01*
X142304805Y-136347154D02*
X143922634Y-137136222D01*
X141077366Y-138863778D02*
X142304805Y-136347154D01*
G04 #@! TO.C,D7*
X136922634Y-152136222D02*
X135695195Y-154652846D01*
X135695195Y-154652846D02*
X134077366Y-153863778D01*
X135346570Y-153314578D02*
X135171222Y-153674096D01*
X135840907Y-153555682D02*
X135346570Y-153314578D01*
X134852233Y-153073474D02*
X135346570Y-153314578D01*
X135969110Y-152950650D02*
X135346570Y-153314578D01*
X135250075Y-152599953D02*
X135969110Y-152950650D01*
X135828778Y-152325904D02*
X135609593Y-152775301D01*
X135346570Y-153314578D02*
X135250075Y-152599953D01*
X135304805Y-151347154D02*
X136922634Y-152136222D01*
X134077366Y-153863778D02*
X135304805Y-151347154D01*
G04 #@! TO.C,D6*
X123650597Y-121797450D02*
X123116332Y-124546006D01*
X123116332Y-124546006D02*
X121349403Y-124202550D01*
X122433217Y-123343570D02*
X122356893Y-123736220D01*
X122973112Y-123448514D02*
X122433217Y-123343570D01*
X121893322Y-123238625D02*
X122433217Y-123343570D01*
X122940353Y-122830917D02*
X122433217Y-123343570D01*
X122155051Y-122678270D02*
X122940353Y-122830917D01*
X122643107Y-122263780D02*
X122547702Y-122754593D01*
X122433217Y-123343570D02*
X122155051Y-122678270D01*
X121883668Y-121453994D02*
X123650597Y-121797450D01*
X121349403Y-124202550D02*
X121883668Y-121453994D01*
G04 #@! TO.C,D5*
X120650597Y-138797450D02*
X120116332Y-141546006D01*
X120116332Y-141546006D02*
X118349403Y-141202550D01*
X119433217Y-140343570D02*
X119356893Y-140736220D01*
X119973112Y-140448514D02*
X119433217Y-140343570D01*
X118893322Y-140238625D02*
X119433217Y-140343570D01*
X119940353Y-139830917D02*
X119433217Y-140343570D01*
X119155051Y-139678270D02*
X119940353Y-139830917D01*
X119643107Y-139263780D02*
X119547702Y-139754593D01*
X119433217Y-140343570D02*
X119155051Y-139678270D01*
X118883668Y-138453994D02*
X120650597Y-138797450D01*
X118349403Y-141202550D02*
X118883668Y-138453994D01*
G04 #@! TO.C,D4*
X117150597Y-155297450D02*
X116616332Y-158046006D01*
X116616332Y-158046006D02*
X114849403Y-157702550D01*
X115933217Y-156843570D02*
X115856893Y-157236220D01*
X116473112Y-156948514D02*
X115933217Y-156843570D01*
X115393322Y-156738625D02*
X115933217Y-156843570D01*
X116440353Y-156330917D02*
X115933217Y-156843570D01*
X115655051Y-156178270D02*
X116440353Y-156330917D01*
X116143107Y-155763780D02*
X116047702Y-156254593D01*
X115933217Y-156843570D02*
X115655051Y-156178270D01*
X115383668Y-154953994D02*
X117150597Y-155297450D01*
X114849403Y-157702550D02*
X115383668Y-154953994D01*
G04 #@! TO.C,D3*
X102041410Y-122701745D02*
X101748730Y-125486406D01*
X101748730Y-125486406D02*
X99958590Y-125298255D01*
X100963415Y-124348083D02*
X100921604Y-124745891D01*
X101510402Y-124405573D02*
X100963415Y-124348083D01*
X100416428Y-124290592D02*
X100963415Y-124348083D01*
X101423941Y-123793181D02*
X100963415Y-124348083D01*
X100628323Y-123709558D02*
X101423941Y-123793181D01*
X101078396Y-123254109D02*
X101026132Y-123751370D01*
X100963415Y-124348083D02*
X100628323Y-123709558D01*
X100251270Y-122513594D02*
X102041410Y-122701745D01*
X99958590Y-125298255D02*
X100251270Y-122513594D01*
G04 #@! TO.C,D2*
X100041410Y-139701745D02*
X99748730Y-142486406D01*
X99748730Y-142486406D02*
X97958590Y-142298255D01*
X98963415Y-141348083D02*
X98921604Y-141745891D01*
X99510402Y-141405573D02*
X98963415Y-141348083D01*
X98416428Y-141290592D02*
X98963415Y-141348083D01*
X99423941Y-140793181D02*
X98963415Y-141348083D01*
X98628323Y-140709558D02*
X99423941Y-140793181D01*
X99078396Y-140254109D02*
X99026132Y-140751370D01*
X98963415Y-141348083D02*
X98628323Y-140709558D01*
X98251270Y-139513594D02*
X100041410Y-139701745D01*
X97958590Y-142298255D02*
X98251270Y-139513594D01*
G04 #@! TO.C,D1*
X98541410Y-156701745D02*
X98248730Y-159486406D01*
X98248730Y-159486406D02*
X96458590Y-159298255D01*
X97463415Y-158348083D02*
X97421604Y-158745891D01*
X98010402Y-158405573D02*
X97463415Y-158348083D01*
X96916428Y-158290592D02*
X97463415Y-158348083D01*
X97923941Y-157793181D02*
X97463415Y-158348083D01*
X97128323Y-157709558D02*
X97923941Y-157793181D01*
X97578396Y-157254109D02*
X97526132Y-157751370D01*
X97463415Y-158348083D02*
X97128323Y-157709558D01*
X96751270Y-156513594D02*
X98541410Y-156701745D01*
X96458590Y-159298255D02*
X96751270Y-156513594D01*
G04 #@! TD*
M02*
