G04 #@! TF.GenerationSoftware,KiCad,Pcbnew,8.0.3*
G04 #@! TF.CreationDate,2024-06-16T15:20:09+01:00*
G04 #@! TF.ProjectId,ykb,796b622e-6b69-4636-9164-5f7063625858,v1.0.0*
G04 #@! TF.SameCoordinates,Original*
G04 #@! TF.FileFunction,Other,User*
%FSLAX46Y46*%
G04 Gerber Fmt 4.6, Leading zero omitted, Abs format (unit mm)*
G04 Created by KiCad (PCBNEW 8.0.3) date 2024-06-16 15:20:09*
%MOMM*%
%LPD*%
G01*
G04 APERTURE LIST*
%ADD10C,0.050000*%
G04 APERTURE END LIST*
D10*
G04 #@! TO.C,S44*
X286784722Y-214232158D02*
X287058786Y-214354179D01*
X287058786Y-214354179D02*
X286589412Y-215408411D01*
X286589412Y-215408411D02*
X282750694Y-213699303D01*
X282750694Y-213699303D02*
X282467033Y-213502953D01*
X282467033Y-213502953D02*
X282263348Y-213203191D01*
X282263348Y-213203191D02*
X282184382Y-212849494D01*
X282184382Y-212849494D02*
X282232926Y-212524107D01*
X282232926Y-212524107D02*
X282316038Y-211971102D01*
X282316038Y-211971102D02*
X282200421Y-211458784D01*
X282200421Y-211458784D02*
X281906560Y-211024734D01*
X281906560Y-211024734D02*
X281461227Y-210716996D01*
X281461227Y-210716996D02*
X279011098Y-209626128D01*
X279011098Y-209626128D02*
X278540273Y-208399586D01*
X278540273Y-208399586D02*
X279819866Y-205525572D01*
X279819866Y-205525572D02*
X281046408Y-205054747D01*
X281046408Y-205054747D02*
X283605249Y-206194016D01*
X283605249Y-206194016D02*
X283966749Y-206449105D01*
X283966749Y-206449105D02*
X284203383Y-206824836D01*
X284203383Y-206824836D02*
X284492771Y-207578717D01*
X284492771Y-207578717D02*
X284388646Y-207812585D01*
X284388646Y-207812585D02*
X284297102Y-208217344D01*
X284297102Y-208217344D02*
X284363045Y-208610123D01*
X284363045Y-208610123D02*
X284576860Y-208946139D01*
X284576860Y-208946139D02*
X284915727Y-209185678D01*
X284915727Y-209185678D02*
X287473655Y-210324541D01*
X287473655Y-210324541D02*
X287771826Y-210535015D01*
X287771826Y-210535015D02*
X287975698Y-210858942D01*
X287975698Y-210858942D02*
X288040941Y-211236084D01*
X288040941Y-211236084D02*
X287960191Y-211592012D01*
X287960191Y-211592012D02*
X286784722Y-214232158D01*
G04 #@! TO.C,S43*
X297781645Y-188564877D02*
X297970441Y-188331733D01*
X297970441Y-188331733D02*
X298867268Y-189057969D01*
X298867268Y-189057969D02*
X296222863Y-192323536D01*
X296222863Y-192323536D02*
X295959786Y-192546712D01*
X295959786Y-192546712D02*
X295617521Y-192665873D01*
X295617521Y-192665873D02*
X295255438Y-192650604D01*
X295255438Y-192650604D02*
X294953703Y-192519498D01*
X294953703Y-192519498D02*
X294441052Y-192296089D01*
X294441052Y-192296089D02*
X293916267Y-192275169D01*
X293916267Y-192275169D02*
X293420950Y-192446678D01*
X293420950Y-192446678D02*
X293008437Y-192797187D01*
X293008437Y-192797187D02*
X291320600Y-194881493D01*
X291320600Y-194881493D02*
X290013993Y-195018823D01*
X290013993Y-195018823D02*
X287569091Y-193038981D01*
X287569091Y-193038981D02*
X287431761Y-191732373D01*
X287431761Y-191732373D02*
X289194488Y-189555588D01*
X289194488Y-189555588D02*
X289534447Y-189272428D01*
X289534447Y-189272428D02*
X289958622Y-189141103D01*
X289958622Y-189141103D02*
X290761714Y-189056695D01*
X290761714Y-189056695D02*
X290960663Y-189217801D01*
X290960663Y-189217801D02*
X291327937Y-189410985D01*
X291327937Y-189410985D02*
X291724400Y-189448947D01*
X291724400Y-189448947D02*
X292104306Y-189329385D01*
X292104306Y-189329385D02*
X292423388Y-189064062D01*
X292423388Y-189064062D02*
X294185485Y-186888053D01*
X294185485Y-186888053D02*
X294465959Y-186654517D01*
X294465959Y-186654517D02*
X294831615Y-186541430D01*
X294831615Y-186541430D02*
X295212793Y-186576021D01*
X295212793Y-186576021D02*
X295535693Y-186746141D01*
X295535693Y-186746141D02*
X297781645Y-188564877D01*
G04 #@! TO.C,S42*
X316029809Y-173912367D02*
X316272515Y-173736032D01*
X316272515Y-173736032D02*
X316950819Y-174669638D01*
X316950819Y-174669638D02*
X313551329Y-177139511D01*
X313551329Y-177139511D02*
X313239454Y-177286993D01*
X313239454Y-177286993D02*
X312878010Y-177313509D01*
X312878010Y-177313509D02*
X312532217Y-177205047D01*
X312532217Y-177205047D02*
X312274696Y-177000313D01*
X312274696Y-177000313D02*
X311837336Y-176651833D01*
X311837336Y-176651833D02*
X311335847Y-176495802D01*
X311335847Y-176495802D02*
X310813018Y-176533268D01*
X310813018Y-176533268D02*
X310323842Y-176765068D01*
X310323842Y-176765068D02*
X308154059Y-178341508D01*
X308154059Y-178341508D02*
X306856429Y-178135984D01*
X306856429Y-178135984D02*
X305007257Y-175590817D01*
X305007257Y-175590817D02*
X305212781Y-174293187D01*
X305212781Y-174293187D02*
X307478838Y-172646801D01*
X307478838Y-172646801D02*
X307880501Y-172461277D01*
X307880501Y-172461277D02*
X308324211Y-172444212D01*
X308324211Y-172444212D02*
X309121785Y-172570535D01*
X309121785Y-172570535D02*
X309272258Y-172777644D01*
X309272258Y-172777644D02*
X309577017Y-173059303D01*
X309577017Y-173059303D02*
X309950145Y-173198584D01*
X309950145Y-173198584D02*
X310348052Y-173181423D01*
X310348052Y-173181423D02*
X310724932Y-173007725D01*
X310724932Y-173007725D02*
X312990180Y-171361926D01*
X312990180Y-171361926D02*
X313321541Y-171208939D01*
X313321541Y-171208939D02*
X313704006Y-171194344D01*
X313704006Y-171194344D02*
X314063243Y-171326413D01*
X314063243Y-171326413D02*
X314331110Y-171574308D01*
X314331110Y-171574308D02*
X316029809Y-173912367D01*
G04 #@! TO.C,S41*
X262387242Y-176638280D02*
X262629948Y-176461945D01*
X262629948Y-176461945D02*
X263308252Y-177395551D01*
X263308252Y-177395551D02*
X259908762Y-179865424D01*
X259908762Y-179865424D02*
X259596887Y-180012906D01*
X259596887Y-180012906D02*
X259235443Y-180039422D01*
X259235443Y-180039422D02*
X258889650Y-179930960D01*
X258889650Y-179930960D02*
X258632129Y-179726226D01*
X258632129Y-179726226D02*
X258194769Y-179377746D01*
X258194769Y-179377746D02*
X257693280Y-179221715D01*
X257693280Y-179221715D02*
X257170451Y-179259181D01*
X257170451Y-179259181D02*
X256681275Y-179490981D01*
X256681275Y-179490981D02*
X254511492Y-181067421D01*
X254511492Y-181067421D02*
X253213862Y-180861897D01*
X253213862Y-180861897D02*
X251364690Y-178316730D01*
X251364690Y-178316730D02*
X251570214Y-177019100D01*
X251570214Y-177019100D02*
X253836271Y-175372714D01*
X253836271Y-175372714D02*
X254237934Y-175187190D01*
X254237934Y-175187190D02*
X254681644Y-175170125D01*
X254681644Y-175170125D02*
X255479218Y-175296448D01*
X255479218Y-175296448D02*
X255629691Y-175503557D01*
X255629691Y-175503557D02*
X255934450Y-175785216D01*
X255934450Y-175785216D02*
X256307578Y-175924497D01*
X256307578Y-175924497D02*
X256705485Y-175907336D01*
X256705485Y-175907336D02*
X257082365Y-175733638D01*
X257082365Y-175733638D02*
X259347613Y-174087839D01*
X259347613Y-174087839D02*
X259678974Y-173934852D01*
X259678974Y-173934852D02*
X260061439Y-173920257D01*
X260061439Y-173920257D02*
X260420676Y-174052326D01*
X260420676Y-174052326D02*
X260688543Y-174300221D01*
X260688543Y-174300221D02*
X262387242Y-176638280D01*
G04 #@! TO.C,S40*
X261961024Y-145428212D02*
X262203730Y-145251877D01*
X262203730Y-145251877D02*
X262882034Y-146185483D01*
X262882034Y-146185483D02*
X259482544Y-148655356D01*
X259482544Y-148655356D02*
X259170669Y-148802838D01*
X259170669Y-148802838D02*
X258809225Y-148829354D01*
X258809225Y-148829354D02*
X258463432Y-148720892D01*
X258463432Y-148720892D02*
X258205911Y-148516158D01*
X258205911Y-148516158D02*
X257768551Y-148167678D01*
X257768551Y-148167678D02*
X257267062Y-148011647D01*
X257267062Y-148011647D02*
X256744233Y-148049113D01*
X256744233Y-148049113D02*
X256255057Y-148280913D01*
X256255057Y-148280913D02*
X254085274Y-149857353D01*
X254085274Y-149857353D02*
X252787644Y-149651829D01*
X252787644Y-149651829D02*
X250938472Y-147106662D01*
X250938472Y-147106662D02*
X251143996Y-145809032D01*
X251143996Y-145809032D02*
X253410053Y-144162646D01*
X253410053Y-144162646D02*
X253811716Y-143977122D01*
X253811716Y-143977122D02*
X254255426Y-143960057D01*
X254255426Y-143960057D02*
X255053000Y-144086380D01*
X255053000Y-144086380D02*
X255203473Y-144293489D01*
X255203473Y-144293489D02*
X255508232Y-144575148D01*
X255508232Y-144575148D02*
X255881360Y-144714429D01*
X255881360Y-144714429D02*
X256279267Y-144697268D01*
X256279267Y-144697268D02*
X256656147Y-144523570D01*
X256656147Y-144523570D02*
X258921395Y-142877771D01*
X258921395Y-142877771D02*
X259252756Y-142724784D01*
X259252756Y-142724784D02*
X259635221Y-142710189D01*
X259635221Y-142710189D02*
X259994458Y-142842258D01*
X259994458Y-142842258D02*
X260262325Y-143090153D01*
X260262325Y-143090153D02*
X261961024Y-145428212D01*
G04 #@! TO.C,S39*
X271953373Y-159181501D02*
X272196079Y-159005166D01*
X272196079Y-159005166D02*
X272874383Y-159938772D01*
X272874383Y-159938772D02*
X269474893Y-162408645D01*
X269474893Y-162408645D02*
X269163018Y-162556127D01*
X269163018Y-162556127D02*
X268801574Y-162582643D01*
X268801574Y-162582643D02*
X268455781Y-162474181D01*
X268455781Y-162474181D02*
X268198260Y-162269447D01*
X268198260Y-162269447D02*
X267760900Y-161920967D01*
X267760900Y-161920967D02*
X267259411Y-161764936D01*
X267259411Y-161764936D02*
X266736582Y-161802402D01*
X266736582Y-161802402D02*
X266247406Y-162034202D01*
X266247406Y-162034202D02*
X264077623Y-163610642D01*
X264077623Y-163610642D02*
X262779993Y-163405118D01*
X262779993Y-163405118D02*
X260930821Y-160859951D01*
X260930821Y-160859951D02*
X261136345Y-159562321D01*
X261136345Y-159562321D02*
X263402402Y-157915935D01*
X263402402Y-157915935D02*
X263804065Y-157730411D01*
X263804065Y-157730411D02*
X264247775Y-157713346D01*
X264247775Y-157713346D02*
X265045349Y-157839669D01*
X265045349Y-157839669D02*
X265195822Y-158046778D01*
X265195822Y-158046778D02*
X265500581Y-158328437D01*
X265500581Y-158328437D02*
X265873709Y-158467718D01*
X265873709Y-158467718D02*
X266271616Y-158450557D01*
X266271616Y-158450557D02*
X266648496Y-158276859D01*
X266648496Y-158276859D02*
X268913744Y-156631060D01*
X268913744Y-156631060D02*
X269245105Y-156478073D01*
X269245105Y-156478073D02*
X269627570Y-156463478D01*
X269627570Y-156463478D02*
X269986807Y-156595547D01*
X269986807Y-156595547D02*
X270254674Y-156843442D01*
X270254674Y-156843442D02*
X271953373Y-159181501D01*
G04 #@! TO.C,S38*
X281945722Y-172934790D02*
X282188428Y-172758455D01*
X282188428Y-172758455D02*
X282866732Y-173692061D01*
X282866732Y-173692061D02*
X279467242Y-176161934D01*
X279467242Y-176161934D02*
X279155367Y-176309416D01*
X279155367Y-176309416D02*
X278793923Y-176335932D01*
X278793923Y-176335932D02*
X278448130Y-176227470D01*
X278448130Y-176227470D02*
X278190609Y-176022736D01*
X278190609Y-176022736D02*
X277753249Y-175674256D01*
X277753249Y-175674256D02*
X277251760Y-175518225D01*
X277251760Y-175518225D02*
X276728931Y-175555691D01*
X276728931Y-175555691D02*
X276239755Y-175787491D01*
X276239755Y-175787491D02*
X274069972Y-177363931D01*
X274069972Y-177363931D02*
X272772342Y-177158407D01*
X272772342Y-177158407D02*
X270923170Y-174613240D01*
X270923170Y-174613240D02*
X271128694Y-173315610D01*
X271128694Y-173315610D02*
X273394751Y-171669224D01*
X273394751Y-171669224D02*
X273796414Y-171483700D01*
X273796414Y-171483700D02*
X274240124Y-171466635D01*
X274240124Y-171466635D02*
X275037698Y-171592958D01*
X275037698Y-171592958D02*
X275188171Y-171800067D01*
X275188171Y-171800067D02*
X275492930Y-172081726D01*
X275492930Y-172081726D02*
X275866058Y-172221007D01*
X275866058Y-172221007D02*
X276263965Y-172203846D01*
X276263965Y-172203846D02*
X276640845Y-172030148D01*
X276640845Y-172030148D02*
X278906093Y-170384349D01*
X278906093Y-170384349D02*
X279237454Y-170231362D01*
X279237454Y-170231362D02*
X279619919Y-170216767D01*
X279619919Y-170216767D02*
X279979156Y-170348836D01*
X279979156Y-170348836D02*
X280247023Y-170596731D01*
X280247023Y-170596731D02*
X281945722Y-172934790D01*
G04 #@! TO.C,S37*
X274524860Y-132097420D02*
X274767566Y-131921085D01*
X274767566Y-131921085D02*
X275445870Y-132854691D01*
X275445870Y-132854691D02*
X272046380Y-135324564D01*
X272046380Y-135324564D02*
X271734505Y-135472046D01*
X271734505Y-135472046D02*
X271373061Y-135498562D01*
X271373061Y-135498562D02*
X271027268Y-135390100D01*
X271027268Y-135390100D02*
X270769747Y-135185366D01*
X270769747Y-135185366D02*
X270332387Y-134836886D01*
X270332387Y-134836886D02*
X269830898Y-134680855D01*
X269830898Y-134680855D02*
X269308069Y-134718321D01*
X269308069Y-134718321D02*
X268818893Y-134950121D01*
X268818893Y-134950121D02*
X266649110Y-136526561D01*
X266649110Y-136526561D02*
X265351480Y-136321037D01*
X265351480Y-136321037D02*
X263502308Y-133775870D01*
X263502308Y-133775870D02*
X263707832Y-132478240D01*
X263707832Y-132478240D02*
X265973889Y-130831854D01*
X265973889Y-130831854D02*
X266375552Y-130646330D01*
X266375552Y-130646330D02*
X266819262Y-130629265D01*
X266819262Y-130629265D02*
X267616836Y-130755588D01*
X267616836Y-130755588D02*
X267767309Y-130962697D01*
X267767309Y-130962697D02*
X268072068Y-131244356D01*
X268072068Y-131244356D02*
X268445196Y-131383637D01*
X268445196Y-131383637D02*
X268843103Y-131366476D01*
X268843103Y-131366476D02*
X269219983Y-131192778D01*
X269219983Y-131192778D02*
X271485231Y-129546979D01*
X271485231Y-129546979D02*
X271816592Y-129393992D01*
X271816592Y-129393992D02*
X272199057Y-129379397D01*
X272199057Y-129379397D02*
X272558294Y-129511466D01*
X272558294Y-129511466D02*
X272826161Y-129759361D01*
X272826161Y-129759361D02*
X274524860Y-132097420D01*
G04 #@! TO.C,S36*
X284517209Y-145850709D02*
X284759915Y-145674374D01*
X284759915Y-145674374D02*
X285438219Y-146607980D01*
X285438219Y-146607980D02*
X282038729Y-149077853D01*
X282038729Y-149077853D02*
X281726854Y-149225335D01*
X281726854Y-149225335D02*
X281365410Y-149251851D01*
X281365410Y-149251851D02*
X281019617Y-149143389D01*
X281019617Y-149143389D02*
X280762096Y-148938655D01*
X280762096Y-148938655D02*
X280324736Y-148590175D01*
X280324736Y-148590175D02*
X279823247Y-148434144D01*
X279823247Y-148434144D02*
X279300418Y-148471610D01*
X279300418Y-148471610D02*
X278811242Y-148703410D01*
X278811242Y-148703410D02*
X276641459Y-150279850D01*
X276641459Y-150279850D02*
X275343829Y-150074326D01*
X275343829Y-150074326D02*
X273494657Y-147529159D01*
X273494657Y-147529159D02*
X273700181Y-146231529D01*
X273700181Y-146231529D02*
X275966238Y-144585143D01*
X275966238Y-144585143D02*
X276367901Y-144399619D01*
X276367901Y-144399619D02*
X276811611Y-144382554D01*
X276811611Y-144382554D02*
X277609185Y-144508877D01*
X277609185Y-144508877D02*
X277759658Y-144715986D01*
X277759658Y-144715986D02*
X278064417Y-144997645D01*
X278064417Y-144997645D02*
X278437545Y-145136926D01*
X278437545Y-145136926D02*
X278835452Y-145119765D01*
X278835452Y-145119765D02*
X279212332Y-144946067D01*
X279212332Y-144946067D02*
X281477580Y-143300268D01*
X281477580Y-143300268D02*
X281808941Y-143147281D01*
X281808941Y-143147281D02*
X282191406Y-143132686D01*
X282191406Y-143132686D02*
X282550643Y-143264755D01*
X282550643Y-143264755D02*
X282818510Y-143512650D01*
X282818510Y-143512650D02*
X284517209Y-145850709D01*
G04 #@! TO.C,S35*
X294509558Y-159603998D02*
X294752264Y-159427663D01*
X294752264Y-159427663D02*
X295430568Y-160361269D01*
X295430568Y-160361269D02*
X292031078Y-162831142D01*
X292031078Y-162831142D02*
X291719203Y-162978624D01*
X291719203Y-162978624D02*
X291357759Y-163005140D01*
X291357759Y-163005140D02*
X291011966Y-162896678D01*
X291011966Y-162896678D02*
X290754445Y-162691944D01*
X290754445Y-162691944D02*
X290317085Y-162343464D01*
X290317085Y-162343464D02*
X289815596Y-162187433D01*
X289815596Y-162187433D02*
X289292767Y-162224899D01*
X289292767Y-162224899D02*
X288803591Y-162456699D01*
X288803591Y-162456699D02*
X286633808Y-164033139D01*
X286633808Y-164033139D02*
X285336178Y-163827615D01*
X285336178Y-163827615D02*
X283487006Y-161282448D01*
X283487006Y-161282448D02*
X283692530Y-159984818D01*
X283692530Y-159984818D02*
X285958587Y-158338432D01*
X285958587Y-158338432D02*
X286360250Y-158152908D01*
X286360250Y-158152908D02*
X286803960Y-158135843D01*
X286803960Y-158135843D02*
X287601534Y-158262166D01*
X287601534Y-158262166D02*
X287752007Y-158469275D01*
X287752007Y-158469275D02*
X288056766Y-158750934D01*
X288056766Y-158750934D02*
X288429894Y-158890215D01*
X288429894Y-158890215D02*
X288827801Y-158873054D01*
X288827801Y-158873054D02*
X289204681Y-158699356D01*
X289204681Y-158699356D02*
X291469929Y-157053557D01*
X291469929Y-157053557D02*
X291801290Y-156900570D01*
X291801290Y-156900570D02*
X292183755Y-156885975D01*
X292183755Y-156885975D02*
X292542992Y-157018044D01*
X292542992Y-157018044D02*
X292810859Y-157265939D01*
X292810859Y-157265939D02*
X294509558Y-159603998D01*
G04 #@! TO.C,S34*
X289019490Y-114041255D02*
X289276640Y-113886744D01*
X289276640Y-113886744D02*
X289870994Y-114875915D01*
X289870994Y-114875915D02*
X286269177Y-117040105D01*
X286269177Y-117040105D02*
X285945635Y-117159844D01*
X285945635Y-117159844D02*
X285583255Y-117154757D01*
X285583255Y-117154757D02*
X285248231Y-117016570D01*
X285248231Y-117016570D02*
X285009533Y-116790171D01*
X285009533Y-116790171D02*
X284604210Y-116404898D01*
X284604210Y-116404898D02*
X284118228Y-116205753D01*
X284118228Y-116205753D02*
X283594123Y-116197509D01*
X283594123Y-116197509D02*
X283086607Y-116385793D01*
X283086607Y-116385793D02*
X280787684Y-117767125D01*
X280787684Y-117767125D02*
X279512905Y-117449287D01*
X279512905Y-117449287D02*
X277892595Y-114752639D01*
X277892595Y-114752639D02*
X278210433Y-113477860D01*
X278210433Y-113477860D02*
X280611359Y-112035238D01*
X280611359Y-112035238D02*
X281027663Y-111885428D01*
X281027663Y-111885428D02*
X281471172Y-111907099D01*
X281471172Y-111907099D02*
X282254701Y-112102455D01*
X282254701Y-112102455D02*
X282386551Y-112321890D01*
X282386551Y-112321890D02*
X282665602Y-112629039D01*
X282665602Y-112629039D02*
X283025172Y-112800310D01*
X283025172Y-112800310D02*
X283423059Y-112817894D01*
X283423059Y-112817894D02*
X283813645Y-112677704D01*
X283813645Y-112677704D02*
X286213713Y-111235598D01*
X286213713Y-111235598D02*
X286557147Y-111112073D01*
X286557147Y-111112073D02*
X286939429Y-111130868D01*
X286939429Y-111130868D02*
X287285788Y-111293744D01*
X287285788Y-111293744D02*
X287531030Y-111564042D01*
X287531030Y-111564042D02*
X289019490Y-114041255D01*
G04 #@! TO.C,S33*
X297775137Y-128613099D02*
X298032287Y-128458588D01*
X298032287Y-128458588D02*
X298626641Y-129447759D01*
X298626641Y-129447759D02*
X295024824Y-131611949D01*
X295024824Y-131611949D02*
X294701282Y-131731688D01*
X294701282Y-131731688D02*
X294338902Y-131726601D01*
X294338902Y-131726601D02*
X294003878Y-131588414D01*
X294003878Y-131588414D02*
X293765180Y-131362015D01*
X293765180Y-131362015D02*
X293359857Y-130976742D01*
X293359857Y-130976742D02*
X292873875Y-130777597D01*
X292873875Y-130777597D02*
X292349770Y-130769353D01*
X292349770Y-130769353D02*
X291842254Y-130957637D01*
X291842254Y-130957637D02*
X289543331Y-132338969D01*
X289543331Y-132338969D02*
X288268552Y-132021131D01*
X288268552Y-132021131D02*
X286648242Y-129324483D01*
X286648242Y-129324483D02*
X286966080Y-128049704D01*
X286966080Y-128049704D02*
X289367006Y-126607082D01*
X289367006Y-126607082D02*
X289783310Y-126457272D01*
X289783310Y-126457272D02*
X290226819Y-126478943D01*
X290226819Y-126478943D02*
X291010348Y-126674299D01*
X291010348Y-126674299D02*
X291142198Y-126893734D01*
X291142198Y-126893734D02*
X291421249Y-127200883D01*
X291421249Y-127200883D02*
X291780819Y-127372154D01*
X291780819Y-127372154D02*
X292178706Y-127389738D01*
X292178706Y-127389738D02*
X292569292Y-127249548D01*
X292569292Y-127249548D02*
X294969360Y-125807442D01*
X294969360Y-125807442D02*
X295312794Y-125683917D01*
X295312794Y-125683917D02*
X295695076Y-125702712D01*
X295695076Y-125702712D02*
X296041435Y-125865588D01*
X296041435Y-125865588D02*
X296286677Y-126135886D01*
X296286677Y-126135886D02*
X297775137Y-128613099D01*
G04 #@! TO.C,S32*
X306530784Y-143184943D02*
X306787934Y-143030432D01*
X306787934Y-143030432D02*
X307382288Y-144019603D01*
X307382288Y-144019603D02*
X303780471Y-146183793D01*
X303780471Y-146183793D02*
X303456929Y-146303532D01*
X303456929Y-146303532D02*
X303094549Y-146298445D01*
X303094549Y-146298445D02*
X302759525Y-146160258D01*
X302759525Y-146160258D02*
X302520827Y-145933859D01*
X302520827Y-145933859D02*
X302115504Y-145548586D01*
X302115504Y-145548586D02*
X301629522Y-145349441D01*
X301629522Y-145349441D02*
X301105417Y-145341197D01*
X301105417Y-145341197D02*
X300597901Y-145529481D01*
X300597901Y-145529481D02*
X298298978Y-146910813D01*
X298298978Y-146910813D02*
X297024199Y-146592975D01*
X297024199Y-146592975D02*
X295403889Y-143896327D01*
X295403889Y-143896327D02*
X295721727Y-142621548D01*
X295721727Y-142621548D02*
X298122653Y-141178926D01*
X298122653Y-141178926D02*
X298538957Y-141029116D01*
X298538957Y-141029116D02*
X298982466Y-141050787D01*
X298982466Y-141050787D02*
X299765995Y-141246143D01*
X299765995Y-141246143D02*
X299897845Y-141465578D01*
X299897845Y-141465578D02*
X300176896Y-141772727D01*
X300176896Y-141772727D02*
X300536466Y-141943998D01*
X300536466Y-141943998D02*
X300934353Y-141961582D01*
X300934353Y-141961582D02*
X301324939Y-141821392D01*
X301324939Y-141821392D02*
X303725007Y-140379286D01*
X303725007Y-140379286D02*
X304068441Y-140255761D01*
X304068441Y-140255761D02*
X304450723Y-140274556D01*
X304450723Y-140274556D02*
X304797082Y-140437432D01*
X304797082Y-140437432D02*
X305042324Y-140707730D01*
X305042324Y-140707730D02*
X306530784Y-143184943D01*
G04 #@! TO.C,S31*
X311081896Y-108526954D02*
X311351534Y-108395443D01*
X311351534Y-108395443D02*
X311857414Y-109432651D01*
X311857414Y-109432651D02*
X308080682Y-111274686D01*
X308080682Y-111274686D02*
X307747935Y-111365771D01*
X307747935Y-111365771D02*
X307387377Y-111329120D01*
X307387377Y-111329120D02*
X307065672Y-111162259D01*
X307065672Y-111162259D02*
X306847614Y-110915918D01*
X306847614Y-110915918D02*
X306477412Y-110496785D01*
X306477412Y-110496785D02*
X306010636Y-110256042D01*
X306010636Y-110256042D02*
X305489244Y-110202151D01*
X305489244Y-110202151D02*
X304967249Y-110345485D01*
X304967249Y-110345485D02*
X302556683Y-111521196D01*
X302556683Y-111521196D02*
X301314456Y-111093464D01*
X301314456Y-111093464D02*
X299935341Y-108265857D01*
X299935341Y-108265857D02*
X300363074Y-107023631D01*
X300363074Y-107023631D02*
X302880596Y-105795753D01*
X302880596Y-105795753D02*
X303308372Y-105682797D01*
X303308372Y-105682797D02*
X303748305Y-105743040D01*
X303748305Y-105743040D02*
X304511826Y-106005941D01*
X304511826Y-106005941D02*
X304624049Y-106236033D01*
X304624049Y-106236033D02*
X304875269Y-106566334D01*
X304875269Y-106566334D02*
X305218543Y-106768292D01*
X305218543Y-106768292D02*
X305613384Y-106820487D01*
X305613384Y-106820487D02*
X306014701Y-106714872D01*
X306014701Y-106714872D02*
X308531325Y-105487433D01*
X308531325Y-105487433D02*
X308884217Y-105394311D01*
X308884217Y-105394311D02*
X309263407Y-105446352D01*
X309263407Y-105446352D02*
X309594252Y-105638795D01*
X309594252Y-105638795D02*
X309815003Y-105929439D01*
X309815003Y-105929439D02*
X311081896Y-108526954D01*
G04 #@! TO.C,S30*
X318534205Y-123806453D02*
X318803843Y-123674942D01*
X318803843Y-123674942D02*
X319309723Y-124712150D01*
X319309723Y-124712150D02*
X315532991Y-126554185D01*
X315532991Y-126554185D02*
X315200244Y-126645270D01*
X315200244Y-126645270D02*
X314839686Y-126608619D01*
X314839686Y-126608619D02*
X314517981Y-126441758D01*
X314517981Y-126441758D02*
X314299923Y-126195417D01*
X314299923Y-126195417D02*
X313929721Y-125776284D01*
X313929721Y-125776284D02*
X313462945Y-125535541D01*
X313462945Y-125535541D02*
X312941553Y-125481650D01*
X312941553Y-125481650D02*
X312419558Y-125624984D01*
X312419558Y-125624984D02*
X310008992Y-126800695D01*
X310008992Y-126800695D02*
X308766765Y-126372963D01*
X308766765Y-126372963D02*
X307387650Y-123545356D01*
X307387650Y-123545356D02*
X307815383Y-122303130D01*
X307815383Y-122303130D02*
X310332905Y-121075252D01*
X310332905Y-121075252D02*
X310760681Y-120962296D01*
X310760681Y-120962296D02*
X311200614Y-121022539D01*
X311200614Y-121022539D02*
X311964135Y-121285440D01*
X311964135Y-121285440D02*
X312076358Y-121515532D01*
X312076358Y-121515532D02*
X312327578Y-121845833D01*
X312327578Y-121845833D02*
X312670852Y-122047791D01*
X312670852Y-122047791D02*
X313065693Y-122099986D01*
X313065693Y-122099986D02*
X313467010Y-121994371D01*
X313467010Y-121994371D02*
X315983634Y-120766932D01*
X315983634Y-120766932D02*
X316336526Y-120673810D01*
X316336526Y-120673810D02*
X316715716Y-120725851D01*
X316715716Y-120725851D02*
X317046561Y-120918294D01*
X317046561Y-120918294D02*
X317267312Y-121208938D01*
X317267312Y-121208938D02*
X318534205Y-123806453D01*
G04 #@! TO.C,S29*
X325986515Y-139085952D02*
X326256153Y-138954441D01*
X326256153Y-138954441D02*
X326762033Y-139991649D01*
X326762033Y-139991649D02*
X322985301Y-141833684D01*
X322985301Y-141833684D02*
X322652554Y-141924769D01*
X322652554Y-141924769D02*
X322291996Y-141888118D01*
X322291996Y-141888118D02*
X321970291Y-141721257D01*
X321970291Y-141721257D02*
X321752233Y-141474916D01*
X321752233Y-141474916D02*
X321382031Y-141055783D01*
X321382031Y-141055783D02*
X320915255Y-140815040D01*
X320915255Y-140815040D02*
X320393863Y-140761149D01*
X320393863Y-140761149D02*
X319871868Y-140904483D01*
X319871868Y-140904483D02*
X317461302Y-142080194D01*
X317461302Y-142080194D02*
X316219075Y-141652462D01*
X316219075Y-141652462D02*
X314839960Y-138824855D01*
X314839960Y-138824855D02*
X315267693Y-137582629D01*
X315267693Y-137582629D02*
X317785215Y-136354751D01*
X317785215Y-136354751D02*
X318212991Y-136241795D01*
X318212991Y-136241795D02*
X318652924Y-136302038D01*
X318652924Y-136302038D02*
X319416445Y-136564939D01*
X319416445Y-136564939D02*
X319528668Y-136795031D01*
X319528668Y-136795031D02*
X319779888Y-137125332D01*
X319779888Y-137125332D02*
X320123162Y-137327290D01*
X320123162Y-137327290D02*
X320518003Y-137379485D01*
X320518003Y-137379485D02*
X320919320Y-137273870D01*
X320919320Y-137273870D02*
X323435944Y-136046431D01*
X323435944Y-136046431D02*
X323788836Y-135953309D01*
X323788836Y-135953309D02*
X324168026Y-136005350D01*
X324168026Y-136005350D02*
X324498871Y-136197793D01*
X324498871Y-136197793D02*
X324719622Y-136488437D01*
X324719622Y-136488437D02*
X325986515Y-139085952D01*
G04 #@! TO.C,S28*
X341984967Y-112535764D02*
X342279455Y-112478521D01*
X342279455Y-112478521D02*
X342499648Y-113611319D01*
X342499648Y-113611319D02*
X338374851Y-114413098D01*
X338374851Y-114413098D02*
X338029867Y-114414958D01*
X338029867Y-114414958D02*
X337691082Y-114286237D01*
X337691082Y-114286237D02*
X337423525Y-114041798D01*
X337423525Y-114041798D02*
X337276655Y-113747413D01*
X337276655Y-113747413D02*
X337027547Y-113246747D01*
X337027547Y-113246747D02*
X336638985Y-112893396D01*
X336638985Y-112893396D02*
X336149307Y-112706395D01*
X336149307Y-112706395D02*
X335608000Y-112709743D01*
X335608000Y-112709743D02*
X332975276Y-113221493D01*
X332975276Y-113221493D02*
X331886083Y-112486822D01*
X331886083Y-112486822D02*
X331285798Y-109398623D01*
X331285798Y-109398623D02*
X332020468Y-108309430D01*
X332020468Y-108309430D02*
X334770006Y-107774974D01*
X334770006Y-107774974D02*
X335212442Y-107776583D01*
X335212442Y-107776583D02*
X335621792Y-107948636D01*
X335621792Y-107948636D02*
X336291253Y-108400194D01*
X336291253Y-108400194D02*
X336340100Y-108651490D01*
X336340100Y-108651490D02*
X336497271Y-109035557D01*
X336497271Y-109035557D02*
X336776578Y-109319479D01*
X336776578Y-109319479D02*
X337144456Y-109472088D01*
X337144456Y-109472088D02*
X337559434Y-109473941D01*
X337559434Y-109473941D02*
X340307990Y-108939676D01*
X340307990Y-108939676D02*
X340672960Y-108941062D01*
X340672960Y-108941062D02*
X341025760Y-109089471D01*
X341025760Y-109089471D02*
X341295523Y-109360986D01*
X341295523Y-109360986D02*
X341433529Y-109698861D01*
X341433529Y-109698861D02*
X341984967Y-112535764D01*
G04 #@! TO.C,S27*
X345228719Y-129223426D02*
X345523207Y-129166183D01*
X345523207Y-129166183D02*
X345743400Y-130298981D01*
X345743400Y-130298981D02*
X341618603Y-131100760D01*
X341618603Y-131100760D02*
X341273619Y-131102620D01*
X341273619Y-131102620D02*
X340934834Y-130973899D01*
X340934834Y-130973899D02*
X340667277Y-130729460D01*
X340667277Y-130729460D02*
X340520407Y-130435075D01*
X340520407Y-130435075D02*
X340271299Y-129934409D01*
X340271299Y-129934409D02*
X339882737Y-129581058D01*
X339882737Y-129581058D02*
X339393059Y-129394057D01*
X339393059Y-129394057D02*
X338851752Y-129397405D01*
X338851752Y-129397405D02*
X336219028Y-129909155D01*
X336219028Y-129909155D02*
X335129835Y-129174484D01*
X335129835Y-129174484D02*
X334529550Y-126086285D01*
X334529550Y-126086285D02*
X335264220Y-124997092D01*
X335264220Y-124997092D02*
X338013758Y-124462636D01*
X338013758Y-124462636D02*
X338456194Y-124464245D01*
X338456194Y-124464245D02*
X338865544Y-124636298D01*
X338865544Y-124636298D02*
X339535005Y-125087856D01*
X339535005Y-125087856D02*
X339583852Y-125339152D01*
X339583852Y-125339152D02*
X339741023Y-125723219D01*
X339741023Y-125723219D02*
X340020330Y-126007141D01*
X340020330Y-126007141D02*
X340388208Y-126159750D01*
X340388208Y-126159750D02*
X340803186Y-126161603D01*
X340803186Y-126161603D02*
X343551742Y-125627338D01*
X343551742Y-125627338D02*
X343916712Y-125628724D01*
X343916712Y-125628724D02*
X344269512Y-125777133D01*
X344269512Y-125777133D02*
X344539275Y-126048648D01*
X344539275Y-126048648D02*
X344677281Y-126386523D01*
X344677281Y-126386523D02*
X345228719Y-129223426D01*
G04 #@! TO.C,S26*
X348472472Y-145911089D02*
X348766960Y-145853846D01*
X348766960Y-145853846D02*
X348987153Y-146986644D01*
X348987153Y-146986644D02*
X344862356Y-147788423D01*
X344862356Y-147788423D02*
X344517372Y-147790283D01*
X344517372Y-147790283D02*
X344178587Y-147661562D01*
X344178587Y-147661562D02*
X343911030Y-147417123D01*
X343911030Y-147417123D02*
X343764160Y-147122738D01*
X343764160Y-147122738D02*
X343515052Y-146622072D01*
X343515052Y-146622072D02*
X343126490Y-146268721D01*
X343126490Y-146268721D02*
X342636812Y-146081720D01*
X342636812Y-146081720D02*
X342095505Y-146085068D01*
X342095505Y-146085068D02*
X339462781Y-146596818D01*
X339462781Y-146596818D02*
X338373588Y-145862147D01*
X338373588Y-145862147D02*
X337773303Y-142773948D01*
X337773303Y-142773948D02*
X338507973Y-141684755D01*
X338507973Y-141684755D02*
X341257511Y-141150299D01*
X341257511Y-141150299D02*
X341699947Y-141151908D01*
X341699947Y-141151908D02*
X342109297Y-141323961D01*
X342109297Y-141323961D02*
X342778758Y-141775519D01*
X342778758Y-141775519D02*
X342827605Y-142026815D01*
X342827605Y-142026815D02*
X342984776Y-142410882D01*
X342984776Y-142410882D02*
X343264083Y-142694804D01*
X343264083Y-142694804D02*
X343631961Y-142847413D01*
X343631961Y-142847413D02*
X344046939Y-142849266D01*
X344046939Y-142849266D02*
X346795495Y-142315001D01*
X346795495Y-142315001D02*
X347160465Y-142316387D01*
X347160465Y-142316387D02*
X347513265Y-142464796D01*
X347513265Y-142464796D02*
X347783028Y-142736311D01*
X347783028Y-142736311D02*
X347921034Y-143074186D01*
X347921034Y-143074186D02*
X348472472Y-145911089D01*
G04 #@! TO.C,S25*
X364344006Y-114938487D02*
X364642362Y-114907129D01*
X364642362Y-114907129D02*
X364762988Y-116054807D01*
X364762988Y-116054807D02*
X360584007Y-116494036D01*
X360584007Y-116494036D02*
X360240174Y-116465821D01*
X360240174Y-116465821D02*
X359913897Y-116308062D01*
X359913897Y-116308062D02*
X359668662Y-116041235D01*
X359668662Y-116041235D02*
X359548009Y-115735170D01*
X359548009Y-115735170D02*
X359343484Y-115214697D01*
X359343484Y-115214697D02*
X358987198Y-114828825D01*
X358987198Y-114828825D02*
X358515681Y-114599858D01*
X358515681Y-114599858D02*
X357976143Y-114556015D01*
X357976143Y-114556015D02*
X355308835Y-114836360D01*
X355308835Y-114836360D02*
X354287817Y-114009556D01*
X354287817Y-114009556D02*
X353958971Y-110880791D01*
X353958971Y-110880791D02*
X354785775Y-109859773D01*
X354785775Y-109859773D02*
X357571430Y-109566989D01*
X357571430Y-109566989D02*
X358012042Y-109607152D01*
X358012042Y-109607152D02*
X358404839Y-109814228D01*
X358404839Y-109814228D02*
X359032397Y-110322414D01*
X359032397Y-110322414D02*
X359059157Y-110577012D01*
X359059157Y-110577012D02*
X359182256Y-110973315D01*
X359182256Y-110973315D02*
X359435754Y-111280500D01*
X359435754Y-111280500D02*
X359788932Y-111464592D01*
X359788932Y-111464592D02*
X360202169Y-111502605D01*
X360202169Y-111502605D02*
X362986830Y-111209925D01*
X362986830Y-111209925D02*
X363350291Y-111243115D01*
X363350291Y-111243115D02*
X363688813Y-111421708D01*
X363688813Y-111421708D02*
X363933886Y-111715702D01*
X363933886Y-111715702D02*
X364041919Y-112064319D01*
X364041919Y-112064319D02*
X364344006Y-114938487D01*
G04 #@! TO.C,S24*
X366120990Y-131845359D02*
X366419346Y-131814001D01*
X366419346Y-131814001D02*
X366539972Y-132961679D01*
X366539972Y-132961679D02*
X362360991Y-133400908D01*
X362360991Y-133400908D02*
X362017158Y-133372693D01*
X362017158Y-133372693D02*
X361690881Y-133214934D01*
X361690881Y-133214934D02*
X361445646Y-132948107D01*
X361445646Y-132948107D02*
X361324993Y-132642042D01*
X361324993Y-132642042D02*
X361120468Y-132121569D01*
X361120468Y-132121569D02*
X360764182Y-131735697D01*
X360764182Y-131735697D02*
X360292665Y-131506730D01*
X360292665Y-131506730D02*
X359753127Y-131462887D01*
X359753127Y-131462887D02*
X357085819Y-131743232D01*
X357085819Y-131743232D02*
X356064801Y-130916428D01*
X356064801Y-130916428D02*
X355735955Y-127787663D01*
X355735955Y-127787663D02*
X356562759Y-126766645D01*
X356562759Y-126766645D02*
X359348414Y-126473861D01*
X359348414Y-126473861D02*
X359789026Y-126514024D01*
X359789026Y-126514024D02*
X360181823Y-126721100D01*
X360181823Y-126721100D02*
X360809381Y-127229286D01*
X360809381Y-127229286D02*
X360836141Y-127483884D01*
X360836141Y-127483884D02*
X360959240Y-127880187D01*
X360959240Y-127880187D02*
X361212738Y-128187372D01*
X361212738Y-128187372D02*
X361565916Y-128371464D01*
X361565916Y-128371464D02*
X361979153Y-128409477D01*
X361979153Y-128409477D02*
X364763814Y-128116797D01*
X364763814Y-128116797D02*
X365127275Y-128149987D01*
X365127275Y-128149987D02*
X365465797Y-128328580D01*
X365465797Y-128328580D02*
X365710870Y-128622574D01*
X365710870Y-128622574D02*
X365818903Y-128971191D01*
X365818903Y-128971191D02*
X366120990Y-131845359D01*
G04 #@! TO.C,S23*
X367897974Y-148752231D02*
X368196330Y-148720873D01*
X368196330Y-148720873D02*
X368316956Y-149868551D01*
X368316956Y-149868551D02*
X364137975Y-150307780D01*
X364137975Y-150307780D02*
X363794142Y-150279565D01*
X363794142Y-150279565D02*
X363467865Y-150121806D01*
X363467865Y-150121806D02*
X363222630Y-149854979D01*
X363222630Y-149854979D02*
X363101977Y-149548914D01*
X363101977Y-149548914D02*
X362897452Y-149028441D01*
X362897452Y-149028441D02*
X362541166Y-148642569D01*
X362541166Y-148642569D02*
X362069649Y-148413602D01*
X362069649Y-148413602D02*
X361530111Y-148369759D01*
X361530111Y-148369759D02*
X358862803Y-148650104D01*
X358862803Y-148650104D02*
X357841785Y-147823300D01*
X357841785Y-147823300D02*
X357512939Y-144694535D01*
X357512939Y-144694535D02*
X358339743Y-143673517D01*
X358339743Y-143673517D02*
X361125398Y-143380733D01*
X361125398Y-143380733D02*
X361566010Y-143420896D01*
X361566010Y-143420896D02*
X361958807Y-143627972D01*
X361958807Y-143627972D02*
X362586365Y-144136158D01*
X362586365Y-144136158D02*
X362613125Y-144390756D01*
X362613125Y-144390756D02*
X362736224Y-144787059D01*
X362736224Y-144787059D02*
X362989722Y-145094244D01*
X362989722Y-145094244D02*
X363342900Y-145278336D01*
X363342900Y-145278336D02*
X363756137Y-145316349D01*
X363756137Y-145316349D02*
X366540798Y-145023669D01*
X366540798Y-145023669D02*
X366904259Y-145056859D01*
X366904259Y-145056859D02*
X367242781Y-145235452D01*
X367242781Y-145235452D02*
X367487854Y-145529446D01*
X367487854Y-145529446D02*
X367595887Y-145878063D01*
X367595887Y-145878063D02*
X367897974Y-148752231D01*
G04 #@! TO.C,S22*
X176830759Y-208170155D02*
X177104823Y-208048134D01*
X177104823Y-208048134D02*
X177574197Y-209102366D01*
X177574197Y-209102366D02*
X173735479Y-210811473D01*
X173735479Y-210811473D02*
X173399756Y-210890890D01*
X173399756Y-210890890D02*
X173040697Y-210841678D01*
X173040697Y-210841678D02*
X172725011Y-210663691D01*
X172725011Y-210663691D02*
X172515684Y-210409890D01*
X172515684Y-210409890D02*
X172160334Y-209978093D01*
X172160334Y-209978093D02*
X171702245Y-209721205D01*
X171702245Y-209721205D02*
X171183051Y-209649151D01*
X171183051Y-209649151D02*
X170656371Y-209774180D01*
X170656371Y-209774180D02*
X168206242Y-210865048D01*
X168206242Y-210865048D02*
X166979700Y-210394223D01*
X166979700Y-210394223D02*
X165700107Y-207520209D01*
X165700107Y-207520209D02*
X166170932Y-206293667D01*
X166170932Y-206293667D02*
X168729773Y-205154397D01*
X168729773Y-205154397D02*
X169161231Y-205056439D01*
X169161231Y-205056439D02*
X169598793Y-205131998D01*
X169598793Y-205131998D02*
X170352674Y-205421386D01*
X170352674Y-205421386D02*
X170456799Y-205655254D01*
X170456799Y-205655254D02*
X170696338Y-205994121D01*
X170696338Y-205994121D02*
X171032355Y-206207936D01*
X171032355Y-206207936D02*
X171425134Y-206273880D01*
X171425134Y-206273880D02*
X171829892Y-206182335D01*
X171829892Y-206182335D02*
X174387820Y-205043473D01*
X174387820Y-205043473D02*
X174743747Y-204962723D01*
X174743747Y-204962723D02*
X175120890Y-205027965D01*
X175120890Y-205027965D02*
X175444817Y-205231838D01*
X175444817Y-205231838D02*
X175655290Y-205530009D01*
X175655290Y-205530009D02*
X176830759Y-208170155D01*
G04 #@! TO.C,S21*
X161597745Y-200147460D02*
X161786541Y-200380604D01*
X161786541Y-200380604D02*
X160889715Y-201106840D01*
X160889715Y-201106840D02*
X158245311Y-197841272D01*
X158245311Y-197841272D02*
X158081708Y-197537543D01*
X158081708Y-197537543D02*
X158036312Y-197177982D01*
X158036312Y-197177982D02*
X158126529Y-196826986D01*
X158126529Y-196826986D02*
X158317504Y-196559103D01*
X158317504Y-196559103D02*
X158642617Y-196104105D01*
X158642617Y-196104105D02*
X158772189Y-195595137D01*
X158772189Y-195595137D02*
X158707410Y-195074985D01*
X158707410Y-195074985D02*
X158450327Y-194598611D01*
X158450327Y-194598611D02*
X156762489Y-192514306D01*
X156762489Y-192514306D02*
X156899819Y-191207699D01*
X156899819Y-191207699D02*
X159344720Y-189227857D01*
X159344720Y-189227857D02*
X160651328Y-189365187D01*
X160651328Y-189365187D02*
X162414054Y-191541973D01*
X162414054Y-191541973D02*
X162620345Y-191933375D01*
X162620345Y-191933375D02*
X162660609Y-192375584D01*
X162660609Y-192375584D02*
X162576200Y-193178677D01*
X162576200Y-193178677D02*
X162377251Y-193339783D01*
X162377251Y-193339783D02*
X162111928Y-193658865D01*
X162111928Y-193658865D02*
X161992366Y-194038772D01*
X161992366Y-194038772D02*
X162030328Y-194435234D01*
X162030328Y-194435234D02*
X162223512Y-194802508D01*
X162223512Y-194802508D02*
X163985610Y-196978516D01*
X163985610Y-196978516D02*
X164155729Y-197301416D01*
X164155729Y-197301416D02*
X164190321Y-197682594D01*
X164190321Y-197682594D02*
X164077233Y-198048250D01*
X164077233Y-198048250D02*
X163843697Y-198328724D01*
X163843697Y-198328724D02*
X161597745Y-200147460D01*
G04 #@! TO.C,S20*
X146027779Y-182672719D02*
X146270484Y-182849054D01*
X146270484Y-182849054D02*
X145592180Y-183782660D01*
X145592180Y-183782660D02*
X142192690Y-181312786D01*
X142192690Y-181312786D02*
X141956052Y-181061750D01*
X141956052Y-181061750D02*
X141819142Y-180726190D01*
X141819142Y-180726190D02*
X141815439Y-180363804D01*
X141815439Y-180363804D02*
X141930574Y-180055621D01*
X141930574Y-180055621D02*
X142126847Y-179531981D01*
X142126847Y-179531981D02*
X142120273Y-179006820D01*
X142120273Y-179006820D02*
X141923077Y-178521158D01*
X141923077Y-178521158D02*
X141551458Y-178127555D01*
X141551458Y-178127555D02*
X139381675Y-176551114D01*
X139381675Y-176551114D02*
X139176150Y-175253485D01*
X139176150Y-175253485D02*
X141025323Y-172708318D01*
X141025323Y-172708318D02*
X142322952Y-172502793D01*
X142322952Y-172502793D02*
X144589009Y-174149180D01*
X144589009Y-174149180D02*
X144889573Y-174473854D01*
X144889573Y-174473854D02*
X145042917Y-174890574D01*
X145042917Y-174890574D02*
X145169240Y-175688148D01*
X145169240Y-175688148D02*
X145018767Y-175895257D01*
X145018767Y-175895257D02*
X144845069Y-176272137D01*
X144845069Y-176272137D02*
X144827908Y-176670043D01*
X144827908Y-176670043D02*
X144967189Y-177043172D01*
X144967189Y-177043172D02*
X145248848Y-177347931D01*
X145248848Y-177347931D02*
X147514096Y-178993730D01*
X147514096Y-178993730D02*
X147761991Y-179261597D01*
X147761991Y-179261597D02*
X147894060Y-179620833D01*
X147894060Y-179620833D02*
X147879465Y-180003299D01*
X147879465Y-180003299D02*
X147726478Y-180334660D01*
X147726478Y-180334660D02*
X146027779Y-182672719D01*
G04 #@! TO.C,S19*
X199670347Y-185398632D02*
X199913052Y-185574967D01*
X199913052Y-185574967D02*
X199234748Y-186508573D01*
X199234748Y-186508573D02*
X195835258Y-184038699D01*
X195835258Y-184038699D02*
X195598620Y-183787663D01*
X195598620Y-183787663D02*
X195461710Y-183452103D01*
X195461710Y-183452103D02*
X195458007Y-183089717D01*
X195458007Y-183089717D02*
X195573142Y-182781534D01*
X195573142Y-182781534D02*
X195769415Y-182257894D01*
X195769415Y-182257894D02*
X195762841Y-181732733D01*
X195762841Y-181732733D02*
X195565645Y-181247071D01*
X195565645Y-181247071D02*
X195194026Y-180853468D01*
X195194026Y-180853468D02*
X193024243Y-179277027D01*
X193024243Y-179277027D02*
X192818718Y-177979398D01*
X192818718Y-177979398D02*
X194667891Y-175434231D01*
X194667891Y-175434231D02*
X195965520Y-175228706D01*
X195965520Y-175228706D02*
X198231577Y-176875093D01*
X198231577Y-176875093D02*
X198532141Y-177199767D01*
X198532141Y-177199767D02*
X198685485Y-177616487D01*
X198685485Y-177616487D02*
X198811808Y-178414061D01*
X198811808Y-178414061D02*
X198661335Y-178621170D01*
X198661335Y-178621170D02*
X198487637Y-178998050D01*
X198487637Y-178998050D02*
X198470476Y-179395956D01*
X198470476Y-179395956D02*
X198609757Y-179769085D01*
X198609757Y-179769085D02*
X198891416Y-180073844D01*
X198891416Y-180073844D02*
X201156664Y-181719643D01*
X201156664Y-181719643D02*
X201404559Y-181987510D01*
X201404559Y-181987510D02*
X201536628Y-182346746D01*
X201536628Y-182346746D02*
X201522033Y-182729212D01*
X201522033Y-182729212D02*
X201369046Y-183060573D01*
X201369046Y-183060573D02*
X199670347Y-185398632D01*
G04 #@! TO.C,S18*
X200096565Y-154188564D02*
X200339270Y-154364899D01*
X200339270Y-154364899D02*
X199660966Y-155298505D01*
X199660966Y-155298505D02*
X196261476Y-152828631D01*
X196261476Y-152828631D02*
X196024838Y-152577595D01*
X196024838Y-152577595D02*
X195887928Y-152242035D01*
X195887928Y-152242035D02*
X195884225Y-151879649D01*
X195884225Y-151879649D02*
X195999360Y-151571466D01*
X195999360Y-151571466D02*
X196195633Y-151047826D01*
X196195633Y-151047826D02*
X196189059Y-150522665D01*
X196189059Y-150522665D02*
X195991863Y-150037003D01*
X195991863Y-150037003D02*
X195620244Y-149643400D01*
X195620244Y-149643400D02*
X193450461Y-148066959D01*
X193450461Y-148066959D02*
X193244936Y-146769330D01*
X193244936Y-146769330D02*
X195094109Y-144224163D01*
X195094109Y-144224163D02*
X196391738Y-144018638D01*
X196391738Y-144018638D02*
X198657795Y-145665025D01*
X198657795Y-145665025D02*
X198958359Y-145989699D01*
X198958359Y-145989699D02*
X199111703Y-146406419D01*
X199111703Y-146406419D02*
X199238026Y-147203993D01*
X199238026Y-147203993D02*
X199087553Y-147411102D01*
X199087553Y-147411102D02*
X198913855Y-147787982D01*
X198913855Y-147787982D02*
X198896694Y-148185888D01*
X198896694Y-148185888D02*
X199035975Y-148559017D01*
X199035975Y-148559017D02*
X199317634Y-148863776D01*
X199317634Y-148863776D02*
X201582882Y-150509575D01*
X201582882Y-150509575D02*
X201830777Y-150777442D01*
X201830777Y-150777442D02*
X201962846Y-151136678D01*
X201962846Y-151136678D02*
X201948251Y-151519144D01*
X201948251Y-151519144D02*
X201795264Y-151850505D01*
X201795264Y-151850505D02*
X200096565Y-154188564D01*
G04 #@! TO.C,S17*
X190104215Y-167941853D02*
X190346920Y-168118188D01*
X190346920Y-168118188D02*
X189668616Y-169051794D01*
X189668616Y-169051794D02*
X186269126Y-166581920D01*
X186269126Y-166581920D02*
X186032488Y-166330884D01*
X186032488Y-166330884D02*
X185895578Y-165995324D01*
X185895578Y-165995324D02*
X185891875Y-165632938D01*
X185891875Y-165632938D02*
X186007010Y-165324755D01*
X186007010Y-165324755D02*
X186203283Y-164801115D01*
X186203283Y-164801115D02*
X186196709Y-164275954D01*
X186196709Y-164275954D02*
X185999513Y-163790292D01*
X185999513Y-163790292D02*
X185627894Y-163396689D01*
X185627894Y-163396689D02*
X183458111Y-161820248D01*
X183458111Y-161820248D02*
X183252586Y-160522619D01*
X183252586Y-160522619D02*
X185101759Y-157977452D01*
X185101759Y-157977452D02*
X186399388Y-157771927D01*
X186399388Y-157771927D02*
X188665445Y-159418314D01*
X188665445Y-159418314D02*
X188966009Y-159742988D01*
X188966009Y-159742988D02*
X189119353Y-160159708D01*
X189119353Y-160159708D02*
X189245676Y-160957282D01*
X189245676Y-160957282D02*
X189095203Y-161164391D01*
X189095203Y-161164391D02*
X188921505Y-161541271D01*
X188921505Y-161541271D02*
X188904344Y-161939177D01*
X188904344Y-161939177D02*
X189043625Y-162312306D01*
X189043625Y-162312306D02*
X189325284Y-162617065D01*
X189325284Y-162617065D02*
X191590532Y-164262864D01*
X191590532Y-164262864D02*
X191838427Y-164530731D01*
X191838427Y-164530731D02*
X191970496Y-164889967D01*
X191970496Y-164889967D02*
X191955901Y-165272433D01*
X191955901Y-165272433D02*
X191802914Y-165603794D01*
X191802914Y-165603794D02*
X190104215Y-167941853D01*
G04 #@! TO.C,S16*
X180111866Y-181695142D02*
X180354571Y-181871477D01*
X180354571Y-181871477D02*
X179676267Y-182805083D01*
X179676267Y-182805083D02*
X176276777Y-180335209D01*
X176276777Y-180335209D02*
X176040139Y-180084173D01*
X176040139Y-180084173D02*
X175903229Y-179748613D01*
X175903229Y-179748613D02*
X175899526Y-179386227D01*
X175899526Y-179386227D02*
X176014661Y-179078044D01*
X176014661Y-179078044D02*
X176210934Y-178554404D01*
X176210934Y-178554404D02*
X176204360Y-178029243D01*
X176204360Y-178029243D02*
X176007164Y-177543581D01*
X176007164Y-177543581D02*
X175635545Y-177149978D01*
X175635545Y-177149978D02*
X173465762Y-175573537D01*
X173465762Y-175573537D02*
X173260237Y-174275908D01*
X173260237Y-174275908D02*
X175109410Y-171730741D01*
X175109410Y-171730741D02*
X176407039Y-171525216D01*
X176407039Y-171525216D02*
X178673096Y-173171603D01*
X178673096Y-173171603D02*
X178973660Y-173496277D01*
X178973660Y-173496277D02*
X179127004Y-173912997D01*
X179127004Y-173912997D02*
X179253327Y-174710571D01*
X179253327Y-174710571D02*
X179102854Y-174917680D01*
X179102854Y-174917680D02*
X178929156Y-175294560D01*
X178929156Y-175294560D02*
X178911995Y-175692466D01*
X178911995Y-175692466D02*
X179051276Y-176065595D01*
X179051276Y-176065595D02*
X179332935Y-176370354D01*
X179332935Y-176370354D02*
X181598183Y-178016153D01*
X181598183Y-178016153D02*
X181846078Y-178284020D01*
X181846078Y-178284020D02*
X181978147Y-178643256D01*
X181978147Y-178643256D02*
X181963552Y-179025722D01*
X181963552Y-179025722D02*
X181810565Y-179357083D01*
X181810565Y-179357083D02*
X180111866Y-181695142D01*
G04 #@! TO.C,S15*
X187532728Y-140857772D02*
X187775433Y-141034107D01*
X187775433Y-141034107D02*
X187097129Y-141967713D01*
X187097129Y-141967713D02*
X183697639Y-139497839D01*
X183697639Y-139497839D02*
X183461001Y-139246803D01*
X183461001Y-139246803D02*
X183324091Y-138911243D01*
X183324091Y-138911243D02*
X183320388Y-138548857D01*
X183320388Y-138548857D02*
X183435523Y-138240674D01*
X183435523Y-138240674D02*
X183631796Y-137717034D01*
X183631796Y-137717034D02*
X183625222Y-137191873D01*
X183625222Y-137191873D02*
X183428026Y-136706211D01*
X183428026Y-136706211D02*
X183056407Y-136312608D01*
X183056407Y-136312608D02*
X180886624Y-134736167D01*
X180886624Y-134736167D02*
X180681099Y-133438538D01*
X180681099Y-133438538D02*
X182530272Y-130893371D01*
X182530272Y-130893371D02*
X183827901Y-130687846D01*
X183827901Y-130687846D02*
X186093958Y-132334233D01*
X186093958Y-132334233D02*
X186394522Y-132658907D01*
X186394522Y-132658907D02*
X186547866Y-133075627D01*
X186547866Y-133075627D02*
X186674189Y-133873201D01*
X186674189Y-133873201D02*
X186523716Y-134080310D01*
X186523716Y-134080310D02*
X186350018Y-134457190D01*
X186350018Y-134457190D02*
X186332857Y-134855096D01*
X186332857Y-134855096D02*
X186472138Y-135228225D01*
X186472138Y-135228225D02*
X186753797Y-135532984D01*
X186753797Y-135532984D02*
X189019045Y-137178783D01*
X189019045Y-137178783D02*
X189266940Y-137446650D01*
X189266940Y-137446650D02*
X189399009Y-137805886D01*
X189399009Y-137805886D02*
X189384414Y-138188352D01*
X189384414Y-138188352D02*
X189231427Y-138519713D01*
X189231427Y-138519713D02*
X187532728Y-140857772D01*
G04 #@! TO.C,S14*
X177540379Y-154611061D02*
X177783084Y-154787396D01*
X177783084Y-154787396D02*
X177104780Y-155721002D01*
X177104780Y-155721002D02*
X173705290Y-153251128D01*
X173705290Y-153251128D02*
X173468652Y-153000092D01*
X173468652Y-153000092D02*
X173331742Y-152664532D01*
X173331742Y-152664532D02*
X173328039Y-152302146D01*
X173328039Y-152302146D02*
X173443174Y-151993963D01*
X173443174Y-151993963D02*
X173639447Y-151470323D01*
X173639447Y-151470323D02*
X173632873Y-150945162D01*
X173632873Y-150945162D02*
X173435677Y-150459500D01*
X173435677Y-150459500D02*
X173064058Y-150065897D01*
X173064058Y-150065897D02*
X170894275Y-148489456D01*
X170894275Y-148489456D02*
X170688750Y-147191827D01*
X170688750Y-147191827D02*
X172537923Y-144646660D01*
X172537923Y-144646660D02*
X173835552Y-144441135D01*
X173835552Y-144441135D02*
X176101609Y-146087522D01*
X176101609Y-146087522D02*
X176402173Y-146412196D01*
X176402173Y-146412196D02*
X176555517Y-146828916D01*
X176555517Y-146828916D02*
X176681840Y-147626490D01*
X176681840Y-147626490D02*
X176531367Y-147833599D01*
X176531367Y-147833599D02*
X176357669Y-148210479D01*
X176357669Y-148210479D02*
X176340508Y-148608385D01*
X176340508Y-148608385D02*
X176479789Y-148981514D01*
X176479789Y-148981514D02*
X176761448Y-149286273D01*
X176761448Y-149286273D02*
X179026696Y-150932072D01*
X179026696Y-150932072D02*
X179274591Y-151199939D01*
X179274591Y-151199939D02*
X179406660Y-151559175D01*
X179406660Y-151559175D02*
X179392065Y-151941641D01*
X179392065Y-151941641D02*
X179239078Y-152273002D01*
X179239078Y-152273002D02*
X177540379Y-154611061D01*
G04 #@! TO.C,S13*
X167548030Y-168364350D02*
X167790735Y-168540685D01*
X167790735Y-168540685D02*
X167112431Y-169474291D01*
X167112431Y-169474291D02*
X163712941Y-167004417D01*
X163712941Y-167004417D02*
X163476303Y-166753381D01*
X163476303Y-166753381D02*
X163339393Y-166417821D01*
X163339393Y-166417821D02*
X163335690Y-166055435D01*
X163335690Y-166055435D02*
X163450825Y-165747252D01*
X163450825Y-165747252D02*
X163647098Y-165223612D01*
X163647098Y-165223612D02*
X163640524Y-164698451D01*
X163640524Y-164698451D02*
X163443328Y-164212789D01*
X163443328Y-164212789D02*
X163071709Y-163819186D01*
X163071709Y-163819186D02*
X160901926Y-162242745D01*
X160901926Y-162242745D02*
X160696401Y-160945116D01*
X160696401Y-160945116D02*
X162545574Y-158399949D01*
X162545574Y-158399949D02*
X163843203Y-158194424D01*
X163843203Y-158194424D02*
X166109260Y-159840811D01*
X166109260Y-159840811D02*
X166409824Y-160165485D01*
X166409824Y-160165485D02*
X166563168Y-160582205D01*
X166563168Y-160582205D02*
X166689491Y-161379779D01*
X166689491Y-161379779D02*
X166539018Y-161586888D01*
X166539018Y-161586888D02*
X166365320Y-161963768D01*
X166365320Y-161963768D02*
X166348159Y-162361674D01*
X166348159Y-162361674D02*
X166487440Y-162734803D01*
X166487440Y-162734803D02*
X166769099Y-163039562D01*
X166769099Y-163039562D02*
X169034347Y-164685361D01*
X169034347Y-164685361D02*
X169282242Y-164953228D01*
X169282242Y-164953228D02*
X169414311Y-165312464D01*
X169414311Y-165312464D02*
X169399716Y-165694930D01*
X169399716Y-165694930D02*
X169246729Y-166026291D01*
X169246729Y-166026291D02*
X167548030Y-168364350D01*
G04 #@! TO.C,S12*
X173755730Y-121717383D02*
X174012880Y-121871894D01*
X174012880Y-121871894D02*
X173418526Y-122861065D01*
X173418526Y-122861065D02*
X169816709Y-120696875D01*
X169816709Y-120696875D02*
X169559092Y-120467419D01*
X169559092Y-120467419D02*
X169393457Y-120145068D01*
X169393457Y-120145068D02*
X169358185Y-119784384D01*
X169358185Y-119784384D02*
X169446021Y-119467339D01*
X169446021Y-119467339D02*
X169595909Y-118928585D01*
X169595909Y-118928585D02*
X169543589Y-118405996D01*
X169543589Y-118405996D02*
X169304815Y-117939368D01*
X169304815Y-117939368D02*
X168900306Y-117579651D01*
X168900306Y-117579651D02*
X166601383Y-116198319D01*
X166601383Y-116198319D02*
X166283545Y-114923540D01*
X166283545Y-114923540D02*
X167903855Y-112226892D01*
X167903855Y-112226892D02*
X169178634Y-111909054D01*
X169178634Y-111909054D02*
X171579560Y-113351676D01*
X171579560Y-113351676D02*
X171907277Y-113648919D01*
X171907277Y-113648919D02*
X172096357Y-114050688D01*
X172096357Y-114050688D02*
X172291713Y-114834217D01*
X172291713Y-114834217D02*
X172159863Y-115053652D01*
X172159863Y-115053652D02*
X172019673Y-115444237D01*
X172019673Y-115444237D02*
X172037258Y-115842125D01*
X172037258Y-115842125D02*
X172208529Y-116201695D01*
X172208529Y-116201695D02*
X172515678Y-116480746D01*
X172515678Y-116480746D02*
X174915746Y-117922852D01*
X174915746Y-117922852D02*
X175186044Y-118168095D01*
X175186044Y-118168095D02*
X175348920Y-118514453D01*
X175348920Y-118514453D02*
X175367715Y-118896736D01*
X175367715Y-118896736D02*
X175244190Y-119240169D01*
X175244190Y-119240169D02*
X173755730Y-121717383D01*
G04 #@! TO.C,S11*
X165000083Y-136289227D02*
X165257233Y-136443738D01*
X165257233Y-136443738D02*
X164662879Y-137432909D01*
X164662879Y-137432909D02*
X161061062Y-135268719D01*
X161061062Y-135268719D02*
X160803445Y-135039263D01*
X160803445Y-135039263D02*
X160637810Y-134716912D01*
X160637810Y-134716912D02*
X160602538Y-134356228D01*
X160602538Y-134356228D02*
X160690374Y-134039183D01*
X160690374Y-134039183D02*
X160840262Y-133500429D01*
X160840262Y-133500429D02*
X160787942Y-132977840D01*
X160787942Y-132977840D02*
X160549168Y-132511212D01*
X160549168Y-132511212D02*
X160144659Y-132151495D01*
X160144659Y-132151495D02*
X157845736Y-130770163D01*
X157845736Y-130770163D02*
X157527898Y-129495384D01*
X157527898Y-129495384D02*
X159148208Y-126798736D01*
X159148208Y-126798736D02*
X160422987Y-126480898D01*
X160422987Y-126480898D02*
X162823913Y-127923520D01*
X162823913Y-127923520D02*
X163151630Y-128220763D01*
X163151630Y-128220763D02*
X163340710Y-128622532D01*
X163340710Y-128622532D02*
X163536066Y-129406061D01*
X163536066Y-129406061D02*
X163404216Y-129625496D01*
X163404216Y-129625496D02*
X163264026Y-130016081D01*
X163264026Y-130016081D02*
X163281611Y-130413969D01*
X163281611Y-130413969D02*
X163452882Y-130773539D01*
X163452882Y-130773539D02*
X163760031Y-131052590D01*
X163760031Y-131052590D02*
X166160099Y-132494696D01*
X166160099Y-132494696D02*
X166430397Y-132739939D01*
X166430397Y-132739939D02*
X166593273Y-133086297D01*
X166593273Y-133086297D02*
X166612068Y-133468580D01*
X166612068Y-133468580D02*
X166488543Y-133812013D01*
X166488543Y-133812013D02*
X165000083Y-136289227D01*
G04 #@! TO.C,S10*
X156244436Y-150861071D02*
X156501586Y-151015582D01*
X156501586Y-151015582D02*
X155907232Y-152004753D01*
X155907232Y-152004753D02*
X152305415Y-149840563D01*
X152305415Y-149840563D02*
X152047798Y-149611107D01*
X152047798Y-149611107D02*
X151882163Y-149288756D01*
X151882163Y-149288756D02*
X151846891Y-148928072D01*
X151846891Y-148928072D02*
X151934727Y-148611027D01*
X151934727Y-148611027D02*
X152084615Y-148072273D01*
X152084615Y-148072273D02*
X152032295Y-147549684D01*
X152032295Y-147549684D02*
X151793521Y-147083056D01*
X151793521Y-147083056D02*
X151389012Y-146723339D01*
X151389012Y-146723339D02*
X149090089Y-145342007D01*
X149090089Y-145342007D02*
X148772251Y-144067228D01*
X148772251Y-144067228D02*
X150392561Y-141370580D01*
X150392561Y-141370580D02*
X151667340Y-141052742D01*
X151667340Y-141052742D02*
X154068266Y-142495364D01*
X154068266Y-142495364D02*
X154395983Y-142792607D01*
X154395983Y-142792607D02*
X154585063Y-143194376D01*
X154585063Y-143194376D02*
X154780419Y-143977905D01*
X154780419Y-143977905D02*
X154648569Y-144197340D01*
X154648569Y-144197340D02*
X154508379Y-144587925D01*
X154508379Y-144587925D02*
X154525964Y-144985813D01*
X154525964Y-144985813D02*
X154697235Y-145345383D01*
X154697235Y-145345383D02*
X155004384Y-145624434D01*
X155004384Y-145624434D02*
X157404452Y-147066540D01*
X157404452Y-147066540D02*
X157674750Y-147311783D01*
X157674750Y-147311783D02*
X157837626Y-147658141D01*
X157837626Y-147658141D02*
X157856421Y-148040424D01*
X157856421Y-148040424D02*
X157732896Y-148383857D01*
X157732896Y-148383857D02*
X156244436Y-150861071D01*
G04 #@! TO.C,S9*
X152313731Y-115060437D02*
X152583369Y-115191949D01*
X152583369Y-115191949D02*
X152077489Y-116229157D01*
X152077489Y-116229157D02*
X148300756Y-114387122D01*
X148300756Y-114387122D02*
X148024121Y-114180991D01*
X148024121Y-114180991D02*
X147831021Y-113874303D01*
X147831021Y-113874303D02*
X147764447Y-113518066D01*
X147764447Y-113518066D02*
X147824317Y-113194571D01*
X147824317Y-113194571D02*
X147926679Y-112644804D01*
X147926679Y-112644804D02*
X147829012Y-112128763D01*
X147829012Y-112128763D02*
X147550477Y-111684722D01*
X147550477Y-111684722D02*
X147116156Y-111361629D01*
X147116156Y-111361629D02*
X144705590Y-110185918D01*
X144705590Y-110185918D02*
X144277858Y-108943691D01*
X144277858Y-108943691D02*
X145656973Y-106116085D01*
X145656973Y-106116085D02*
X146899200Y-105688352D01*
X146899200Y-105688352D02*
X149416722Y-106916230D01*
X149416722Y-106916230D02*
X149769098Y-107183779D01*
X149769098Y-107183779D02*
X149992476Y-107567540D01*
X149992476Y-107567540D02*
X150255377Y-108331062D01*
X150255377Y-108331062D02*
X150143154Y-108561153D01*
X150143154Y-108561153D02*
X150037539Y-108962470D01*
X150037539Y-108962470D02*
X150089735Y-109357312D01*
X150089735Y-109357312D02*
X150291693Y-109700586D01*
X150291693Y-109700586D02*
X150621994Y-109951805D01*
X150621994Y-109951805D02*
X153138617Y-111179244D01*
X153138617Y-111179244D02*
X153429261Y-111399995D01*
X153429261Y-111399995D02*
X153621705Y-111730841D01*
X153621705Y-111730841D02*
X153673746Y-112110030D01*
X153673746Y-112110030D02*
X153580623Y-112462923D01*
X153580623Y-112462923D02*
X152313731Y-115060437D01*
G04 #@! TO.C,S8*
X144861421Y-130339936D02*
X145131059Y-130471448D01*
X145131059Y-130471448D02*
X144625179Y-131508656D01*
X144625179Y-131508656D02*
X140848446Y-129666621D01*
X140848446Y-129666621D02*
X140571811Y-129460490D01*
X140571811Y-129460490D02*
X140378711Y-129153802D01*
X140378711Y-129153802D02*
X140312137Y-128797565D01*
X140312137Y-128797565D02*
X140372007Y-128474070D01*
X140372007Y-128474070D02*
X140474369Y-127924303D01*
X140474369Y-127924303D02*
X140376702Y-127408262D01*
X140376702Y-127408262D02*
X140098167Y-126964221D01*
X140098167Y-126964221D02*
X139663846Y-126641128D01*
X139663846Y-126641128D02*
X137253280Y-125465417D01*
X137253280Y-125465417D02*
X136825548Y-124223190D01*
X136825548Y-124223190D02*
X138204663Y-121395584D01*
X138204663Y-121395584D02*
X139446890Y-120967851D01*
X139446890Y-120967851D02*
X141964412Y-122195729D01*
X141964412Y-122195729D02*
X142316788Y-122463278D01*
X142316788Y-122463278D02*
X142540166Y-122847039D01*
X142540166Y-122847039D02*
X142803067Y-123610561D01*
X142803067Y-123610561D02*
X142690844Y-123840652D01*
X142690844Y-123840652D02*
X142585229Y-124241969D01*
X142585229Y-124241969D02*
X142637425Y-124636811D01*
X142637425Y-124636811D02*
X142839383Y-124980085D01*
X142839383Y-124980085D02*
X143169684Y-125231304D01*
X143169684Y-125231304D02*
X145686307Y-126458743D01*
X145686307Y-126458743D02*
X145976951Y-126679494D01*
X145976951Y-126679494D02*
X146169395Y-127010340D01*
X146169395Y-127010340D02*
X146221436Y-127389529D01*
X146221436Y-127389529D02*
X146128313Y-127742422D01*
X146128313Y-127742422D02*
X144861421Y-130339936D01*
G04 #@! TO.C,S7*
X137409112Y-145619435D02*
X137678750Y-145750947D01*
X137678750Y-145750947D02*
X137172870Y-146788155D01*
X137172870Y-146788155D02*
X133396137Y-144946120D01*
X133396137Y-144946120D02*
X133119502Y-144739989D01*
X133119502Y-144739989D02*
X132926402Y-144433301D01*
X132926402Y-144433301D02*
X132859828Y-144077064D01*
X132859828Y-144077064D02*
X132919698Y-143753569D01*
X132919698Y-143753569D02*
X133022060Y-143203802D01*
X133022060Y-143203802D02*
X132924393Y-142687761D01*
X132924393Y-142687761D02*
X132645858Y-142243720D01*
X132645858Y-142243720D02*
X132211537Y-141920627D01*
X132211537Y-141920627D02*
X129800971Y-140744916D01*
X129800971Y-140744916D02*
X129373239Y-139502689D01*
X129373239Y-139502689D02*
X130752354Y-136675083D01*
X130752354Y-136675083D02*
X131994581Y-136247350D01*
X131994581Y-136247350D02*
X134512103Y-137475228D01*
X134512103Y-137475228D02*
X134864479Y-137742777D01*
X134864479Y-137742777D02*
X135087857Y-138126538D01*
X135087857Y-138126538D02*
X135350758Y-138890060D01*
X135350758Y-138890060D02*
X135238535Y-139120151D01*
X135238535Y-139120151D02*
X135132920Y-139521468D01*
X135132920Y-139521468D02*
X135185116Y-139916310D01*
X135185116Y-139916310D02*
X135387074Y-140259584D01*
X135387074Y-140259584D02*
X135717375Y-140510803D01*
X135717375Y-140510803D02*
X138233998Y-141738242D01*
X138233998Y-141738242D02*
X138524642Y-141958993D01*
X138524642Y-141958993D02*
X138717086Y-142289839D01*
X138717086Y-142289839D02*
X138769127Y-142669028D01*
X138769127Y-142669028D02*
X138676004Y-143021921D01*
X138676004Y-143021921D02*
X137409112Y-145619435D01*
G04 #@! TO.C,S6*
X122645205Y-115379581D02*
X122939693Y-115436824D01*
X122939693Y-115436824D02*
X122719500Y-116569622D01*
X122719500Y-116569622D02*
X118594702Y-115767842D01*
X118594702Y-115767842D02*
X118274142Y-115640334D01*
X118274142Y-115640334D02*
X118008246Y-115394074D01*
X118008246Y-115394074D02*
X117851740Y-115067206D01*
X117851740Y-115067206D02*
X117825843Y-114739239D01*
X117825843Y-114739239D02*
X117782426Y-114181711D01*
X117782426Y-114181711D02*
X117554526Y-113708532D01*
X117554526Y-113708532D02*
X117170556Y-113351711D01*
X117170556Y-113351711D02*
X116667411Y-113152038D01*
X116667411Y-113152038D02*
X114034687Y-112640288D01*
X114034687Y-112640288D02*
X113300017Y-111551095D01*
X113300017Y-111551095D02*
X113900302Y-108462896D01*
X113900302Y-108462896D02*
X114989495Y-107728226D01*
X114989495Y-107728226D02*
X117739033Y-108262682D01*
X117739033Y-108262682D02*
X118148650Y-108429913D01*
X118148650Y-108429913D02*
X118463740Y-108742783D01*
X118463740Y-108742783D02*
X118915298Y-109412244D01*
X118915298Y-109412244D02*
X118866450Y-109663541D01*
X118866450Y-109663541D02*
X118868303Y-110078519D01*
X118868303Y-110078519D02*
X119020912Y-110446397D01*
X119020912Y-110446397D02*
X119304835Y-110725704D01*
X119304835Y-110725704D02*
X119688901Y-110882875D01*
X119688901Y-110882875D02*
X122437458Y-111417140D01*
X122437458Y-111417140D02*
X122775333Y-111555145D01*
X122775333Y-111555145D02*
X123046848Y-111824909D01*
X123046848Y-111824909D02*
X123195257Y-112177709D01*
X123195257Y-112177709D02*
X123196643Y-112542679D01*
X123196643Y-112542679D02*
X122645205Y-115379581D01*
G04 #@! TO.C,S5*
X119401452Y-132067243D02*
X119695940Y-132124486D01*
X119695940Y-132124486D02*
X119475747Y-133257284D01*
X119475747Y-133257284D02*
X115350949Y-132455504D01*
X115350949Y-132455504D02*
X115030389Y-132327996D01*
X115030389Y-132327996D02*
X114764493Y-132081736D01*
X114764493Y-132081736D02*
X114607987Y-131754868D01*
X114607987Y-131754868D02*
X114582090Y-131426901D01*
X114582090Y-131426901D02*
X114538673Y-130869373D01*
X114538673Y-130869373D02*
X114310773Y-130396194D01*
X114310773Y-130396194D02*
X113926803Y-130039373D01*
X113926803Y-130039373D02*
X113423658Y-129839700D01*
X113423658Y-129839700D02*
X110790934Y-129327950D01*
X110790934Y-129327950D02*
X110056264Y-128238757D01*
X110056264Y-128238757D02*
X110656549Y-125150558D01*
X110656549Y-125150558D02*
X111745742Y-124415888D01*
X111745742Y-124415888D02*
X114495280Y-124950344D01*
X114495280Y-124950344D02*
X114904897Y-125117575D01*
X114904897Y-125117575D02*
X115219987Y-125430445D01*
X115219987Y-125430445D02*
X115671545Y-126099906D01*
X115671545Y-126099906D02*
X115622697Y-126351203D01*
X115622697Y-126351203D02*
X115624550Y-126766181D01*
X115624550Y-126766181D02*
X115777159Y-127134059D01*
X115777159Y-127134059D02*
X116061082Y-127413366D01*
X116061082Y-127413366D02*
X116445148Y-127570537D01*
X116445148Y-127570537D02*
X119193705Y-128104802D01*
X119193705Y-128104802D02*
X119531580Y-128242807D01*
X119531580Y-128242807D02*
X119803095Y-128512571D01*
X119803095Y-128512571D02*
X119951504Y-128865371D01*
X119951504Y-128865371D02*
X119952890Y-129230341D01*
X119952890Y-129230341D02*
X119401452Y-132067243D01*
G04 #@! TO.C,S4*
X116157699Y-148754906D02*
X116452187Y-148812149D01*
X116452187Y-148812149D02*
X116231994Y-149944947D01*
X116231994Y-149944947D02*
X112107196Y-149143167D01*
X112107196Y-149143167D02*
X111786636Y-149015659D01*
X111786636Y-149015659D02*
X111520740Y-148769399D01*
X111520740Y-148769399D02*
X111364234Y-148442531D01*
X111364234Y-148442531D02*
X111338337Y-148114564D01*
X111338337Y-148114564D02*
X111294920Y-147557036D01*
X111294920Y-147557036D02*
X111067020Y-147083857D01*
X111067020Y-147083857D02*
X110683050Y-146727036D01*
X110683050Y-146727036D02*
X110179905Y-146527363D01*
X110179905Y-146527363D02*
X107547181Y-146015613D01*
X107547181Y-146015613D02*
X106812511Y-144926420D01*
X106812511Y-144926420D02*
X107412796Y-141838221D01*
X107412796Y-141838221D02*
X108501989Y-141103551D01*
X108501989Y-141103551D02*
X111251527Y-141638007D01*
X111251527Y-141638007D02*
X111661144Y-141805238D01*
X111661144Y-141805238D02*
X111976234Y-142118108D01*
X111976234Y-142118108D02*
X112427792Y-142787569D01*
X112427792Y-142787569D02*
X112378944Y-143038866D01*
X112378944Y-143038866D02*
X112380797Y-143453844D01*
X112380797Y-143453844D02*
X112533406Y-143821722D01*
X112533406Y-143821722D02*
X112817329Y-144101029D01*
X112817329Y-144101029D02*
X113201395Y-144258200D01*
X113201395Y-144258200D02*
X115949952Y-144792465D01*
X115949952Y-144792465D02*
X116287827Y-144930470D01*
X116287827Y-144930470D02*
X116559342Y-145200234D01*
X116559342Y-145200234D02*
X116707751Y-145553034D01*
X116707751Y-145553034D02*
X116709137Y-145918004D01*
X116709137Y-145918004D02*
X116157699Y-148754906D01*
G04 #@! TO.C,S3*
X100478348Y-116496380D02*
X100776704Y-116527738D01*
X100776704Y-116527738D02*
X100656078Y-117675416D01*
X100656078Y-117675416D02*
X96477097Y-117236188D01*
X96477097Y-117236188D02*
X96146644Y-117137103D01*
X96146644Y-117137103D02*
X95860296Y-116914955D01*
X95860296Y-116914955D02*
X95675897Y-116602971D01*
X95675897Y-116602971D02*
X95621515Y-116278509D01*
X95621515Y-116278509D02*
X95529672Y-115726887D01*
X95529672Y-115726887D02*
X95261399Y-115275371D01*
X95261399Y-115275371D02*
X94847791Y-114953373D01*
X94847791Y-114953373D02*
X94329158Y-114798312D01*
X94329158Y-114798312D02*
X91661850Y-114517967D01*
X91661850Y-114517967D02*
X90835046Y-113496949D01*
X90835046Y-113496949D02*
X91163893Y-110368183D01*
X91163893Y-110368183D02*
X92184911Y-109541379D01*
X92184911Y-109541379D02*
X94970567Y-109834163D01*
X94970567Y-109834163D02*
X95393200Y-109965058D01*
X95393200Y-109965058D02*
X95734360Y-110249275D01*
X95734360Y-110249275D02*
X96242546Y-110876833D01*
X96242546Y-110876833D02*
X96215787Y-111131431D01*
X96215787Y-111131431D02*
X96253800Y-111544668D01*
X96253800Y-111544668D02*
X96437891Y-111897846D01*
X96437891Y-111897846D02*
X96745076Y-112151344D01*
X96745076Y-112151344D02*
X97141380Y-112274443D01*
X97141380Y-112274443D02*
X99926041Y-112567123D01*
X99926041Y-112567123D02*
X100274658Y-112675155D01*
X100274658Y-112675155D02*
X100568652Y-112920228D01*
X100568652Y-112920228D02*
X100747245Y-113258751D01*
X100747245Y-113258751D02*
X100780435Y-113622211D01*
X100780435Y-113622211D02*
X100478348Y-116496380D01*
G04 #@! TO.C,S2*
X98701364Y-133403252D02*
X98999720Y-133434610D01*
X98999720Y-133434610D02*
X98879094Y-134582288D01*
X98879094Y-134582288D02*
X94700113Y-134143060D01*
X94700113Y-134143060D02*
X94369660Y-134043975D01*
X94369660Y-134043975D02*
X94083312Y-133821827D01*
X94083312Y-133821827D02*
X93898913Y-133509843D01*
X93898913Y-133509843D02*
X93844531Y-133185381D01*
X93844531Y-133185381D02*
X93752688Y-132633759D01*
X93752688Y-132633759D02*
X93484415Y-132182243D01*
X93484415Y-132182243D02*
X93070807Y-131860245D01*
X93070807Y-131860245D02*
X92552174Y-131705184D01*
X92552174Y-131705184D02*
X89884866Y-131424839D01*
X89884866Y-131424839D02*
X89058062Y-130403821D01*
X89058062Y-130403821D02*
X89386909Y-127275055D01*
X89386909Y-127275055D02*
X90407927Y-126448251D01*
X90407927Y-126448251D02*
X93193583Y-126741035D01*
X93193583Y-126741035D02*
X93616216Y-126871930D01*
X93616216Y-126871930D02*
X93957376Y-127156147D01*
X93957376Y-127156147D02*
X94465562Y-127783705D01*
X94465562Y-127783705D02*
X94438803Y-128038303D01*
X94438803Y-128038303D02*
X94476816Y-128451540D01*
X94476816Y-128451540D02*
X94660907Y-128804718D01*
X94660907Y-128804718D02*
X94968092Y-129058216D01*
X94968092Y-129058216D02*
X95364396Y-129181315D01*
X95364396Y-129181315D02*
X98149057Y-129473995D01*
X98149057Y-129473995D02*
X98497674Y-129582027D01*
X98497674Y-129582027D02*
X98791668Y-129827100D01*
X98791668Y-129827100D02*
X98970261Y-130165623D01*
X98970261Y-130165623D02*
X99003451Y-130529083D01*
X99003451Y-130529083D02*
X98701364Y-133403252D01*
G04 #@! TO.C,S1*
X96924380Y-150310124D02*
X97222736Y-150341482D01*
X97222736Y-150341482D02*
X97102110Y-151489160D01*
X97102110Y-151489160D02*
X92923129Y-151049932D01*
X92923129Y-151049932D02*
X92592676Y-150950847D01*
X92592676Y-150950847D02*
X92306328Y-150728699D01*
X92306328Y-150728699D02*
X92121929Y-150416715D01*
X92121929Y-150416715D02*
X92067547Y-150092253D01*
X92067547Y-150092253D02*
X91975704Y-149540631D01*
X91975704Y-149540631D02*
X91707431Y-149089115D01*
X91707431Y-149089115D02*
X91293823Y-148767117D01*
X91293823Y-148767117D02*
X90775190Y-148612056D01*
X90775190Y-148612056D02*
X88107882Y-148331711D01*
X88107882Y-148331711D02*
X87281078Y-147310693D01*
X87281078Y-147310693D02*
X87609925Y-144181927D01*
X87609925Y-144181927D02*
X88630943Y-143355123D01*
X88630943Y-143355123D02*
X91416599Y-143647907D01*
X91416599Y-143647907D02*
X91839232Y-143778802D01*
X91839232Y-143778802D02*
X92180392Y-144063019D01*
X92180392Y-144063019D02*
X92688578Y-144690577D01*
X92688578Y-144690577D02*
X92661819Y-144945175D01*
X92661819Y-144945175D02*
X92699832Y-145358412D01*
X92699832Y-145358412D02*
X92883923Y-145711590D01*
X92883923Y-145711590D02*
X93191108Y-145965088D01*
X93191108Y-145965088D02*
X93587412Y-146088187D01*
X93587412Y-146088187D02*
X96372073Y-146380867D01*
X96372073Y-146380867D02*
X96720690Y-146488899D01*
X96720690Y-146488899D02*
X97014684Y-146733972D01*
X97014684Y-146733972D02*
X97193277Y-147072495D01*
X97193277Y-147072495D02*
X97226467Y-147435955D01*
X97226467Y-147435955D02*
X96924380Y-150310124D01*
G04 #@! TO.C,D22*
X180905254Y-217614579D02*
X183006408Y-216679085D01*
X181094746Y-212385421D02*
X183006408Y-216679085D01*
X178993592Y-213320915D02*
X181094746Y-212385421D01*
X180905254Y-217614579D02*
X178993592Y-213320915D01*
G04 #@! TO.C,D21*
X153949989Y-206585185D02*
X155397425Y-208372621D01*
X159050011Y-205414815D02*
X155397425Y-208372621D01*
X157602575Y-203627379D02*
X159050011Y-205414815D01*
X153949989Y-206585185D02*
X157602575Y-203627379D01*
G04 #@! TO.C,D20*
X140188335Y-190725237D02*
X142049074Y-192077143D01*
X144811665Y-188274763D02*
X142049074Y-192077143D01*
X142950926Y-186922857D02*
X144811665Y-188274763D01*
X140188335Y-190725237D02*
X142950926Y-186922857D01*
G04 #@! TO.C,D19*
X193688335Y-193225237D02*
X195549074Y-194577143D01*
X198311665Y-190774763D02*
X195549074Y-194577143D01*
X196450926Y-189422857D02*
X198311665Y-190774763D01*
X193688335Y-193225237D02*
X196450926Y-189422857D01*
G04 #@! TO.C,D18*
X194188335Y-162225237D02*
X196049074Y-163577143D01*
X198811665Y-159774763D02*
X196049074Y-163577143D01*
X196950926Y-158422857D02*
X198811665Y-159774763D01*
X194188335Y-162225237D02*
X196950926Y-158422857D01*
G04 #@! TO.C,D17*
X184188335Y-176225237D02*
X186049074Y-177577143D01*
X188811665Y-173774763D02*
X186049074Y-177577143D01*
X186950926Y-172422857D02*
X188811665Y-173774763D01*
X184188335Y-176225237D02*
X186950926Y-172422857D01*
G04 #@! TO.C,D16*
X174188335Y-189725237D02*
X176049074Y-191077143D01*
X178811665Y-187274763D02*
X176049074Y-191077143D01*
X176950926Y-185922857D02*
X178811665Y-187274763D01*
X174188335Y-189725237D02*
X176950926Y-185922857D01*
G04 #@! TO.C,D15*
X181688335Y-149225237D02*
X183549074Y-150577143D01*
X186311665Y-146774763D02*
X183549074Y-150577143D01*
X184450926Y-145422857D02*
X186311665Y-146774763D01*
X181688335Y-149225237D02*
X184450926Y-145422857D01*
G04 #@! TO.C,D14*
X171688335Y-162725237D02*
X173549074Y-164077143D01*
X176311665Y-160274763D02*
X173549074Y-164077143D01*
X174450926Y-158922857D02*
X176311665Y-160274763D01*
X171688335Y-162725237D02*
X174450926Y-158922857D01*
G04 #@! TO.C,D13*
X161688335Y-176225237D02*
X163549074Y-177577143D01*
X166311665Y-173774763D02*
X163549074Y-177577143D01*
X164450926Y-172422857D02*
X166311665Y-173774763D01*
X161688335Y-176225237D02*
X164450926Y-172422857D01*
G04 #@! TO.C,D12*
X168803918Y-130422049D02*
X170775403Y-131606637D01*
X173196082Y-127577951D02*
X170775403Y-131606637D01*
X171224597Y-126393363D02*
X173196082Y-127577951D01*
X168803918Y-130422049D02*
X171224597Y-126393363D01*
G04 #@! TO.C,D11*
X159803918Y-144922049D02*
X161775403Y-146106637D01*
X164196082Y-142077951D02*
X161775403Y-146106637D01*
X162224597Y-140893363D02*
X164196082Y-142077951D01*
X159803918Y-144922049D02*
X162224597Y-140893363D01*
G04 #@! TO.C,D10*
X151303918Y-159422049D02*
X153275403Y-160606637D01*
X155696082Y-156577951D02*
X153275403Y-160606637D01*
X153724597Y-155393363D02*
X155696082Y-156577951D01*
X151303918Y-159422049D02*
X153724597Y-155393363D01*
G04 #@! TO.C,D9*
X147936215Y-124108039D02*
X150003441Y-125116293D01*
X152063785Y-120891961D02*
X150003441Y-125116293D01*
X149996559Y-119883707D02*
X152063785Y-120891961D01*
X147936215Y-124108039D02*
X149996559Y-119883707D01*
G04 #@! TO.C,D8*
X140436215Y-139608039D02*
X142503441Y-140616293D01*
X144563785Y-136391961D02*
X142503441Y-140616293D01*
X142496559Y-135383707D02*
X144563785Y-136391961D01*
X140436215Y-139608039D02*
X142496559Y-135383707D01*
G04 #@! TO.C,D7*
X133436215Y-154608039D02*
X135503441Y-155616293D01*
X137563785Y-151391961D02*
X135503441Y-155616293D01*
X135496559Y-150383707D02*
X137563785Y-151391961D01*
X133436215Y-154608039D02*
X135496559Y-150383707D01*
G04 #@! TO.C,D6*
X120922728Y-125087394D02*
X123180470Y-125526254D01*
X124077272Y-120912606D02*
X123180470Y-125526254D01*
X121819530Y-120473746D02*
X124077272Y-120912606D01*
X120922728Y-125087394D02*
X121819530Y-120473746D01*
G04 #@! TO.C,D5*
X117922728Y-142087394D02*
X120180470Y-142526254D01*
X121077272Y-137912606D02*
X120180470Y-142526254D01*
X118819530Y-137473746D02*
X121077272Y-137912606D01*
X117922728Y-142087394D02*
X118819530Y-137473746D01*
G04 #@! TO.C,D4*
X114422728Y-158587394D02*
X116680470Y-159026254D01*
X117577272Y-154412606D02*
X116680470Y-159026254D01*
X115319530Y-153973746D02*
X117577272Y-154412606D01*
X114422728Y-158587394D02*
X115319530Y-153973746D01*
G04 #@! TO.C,D3*
X99610658Y-126216919D02*
X101898058Y-126457334D01*
X102389342Y-121783081D02*
X101898058Y-126457334D01*
X100101942Y-121542666D02*
X102389342Y-121783081D01*
X99610658Y-126216919D02*
X100101942Y-121542666D01*
G04 #@! TO.C,D2*
X97610658Y-143216919D02*
X99898058Y-143457334D01*
X100389342Y-138783081D02*
X99898058Y-143457334D01*
X98101942Y-138542666D02*
X100389342Y-138783081D01*
X97610658Y-143216919D02*
X98101942Y-138542666D01*
G04 #@! TO.C,D1*
X96110658Y-160216919D02*
X98398058Y-160457334D01*
X98889342Y-155783081D02*
X98398058Y-160457334D01*
X96601942Y-155542666D02*
X98889342Y-155783081D01*
X96110658Y-160216919D02*
X96601942Y-155542666D01*
G04 #@! TD*
M02*
