G04 #@! TF.GenerationSoftware,KiCad,Pcbnew,8.0.3*
G04 #@! TF.CreationDate,2024-06-16T15:20:09+01:00*
G04 #@! TF.ProjectId,ykb,796b622e-6b69-4636-9164-5f7063625858,v1.0.0*
G04 #@! TF.SameCoordinates,Original*
G04 #@! TF.FileFunction,Copper,L2,Bot*
G04 #@! TF.FilePolarity,Positive*
%FSLAX46Y46*%
G04 Gerber Fmt 4.6, Leading zero omitted, Abs format (unit mm)*
G04 Created by KiCad (PCBNEW 8.0.3) date 2024-06-16 15:20:09*
%MOMM*%
%LPD*%
G01*
G04 APERTURE LIST*
G04 Aperture macros list*
%AMRoundRect*
0 Rectangle with rounded corners*
0 $1 Rounding radius*
0 $2 $3 $4 $5 $6 $7 $8 $9 X,Y pos of 4 corners*
0 Add a 4 corners polygon primitive as box body*
4,1,4,$2,$3,$4,$5,$6,$7,$8,$9,$2,$3,0*
0 Add four circle primitives for the rounded corners*
1,1,$1+$1,$2,$3*
1,1,$1+$1,$4,$5*
1,1,$1+$1,$6,$7*
1,1,$1+$1,$8,$9*
0 Add four rect primitives between the rounded corners*
20,1,$1+$1,$2,$3,$4,$5,0*
20,1,$1+$1,$4,$5,$6,$7,0*
20,1,$1+$1,$6,$7,$8,$9,0*
20,1,$1+$1,$8,$9,$2,$3,0*%
G04 Aperture macros list end*
G04 #@! TA.AperFunction,ComponentPad*
%ADD10C,1.800000*%
G04 #@! TD*
G04 #@! TA.AperFunction,SMDPad,CuDef*
%ADD11RoundRect,0.250000X-1.343121X-0.496640X0.529647X-1.330451X1.343121X0.496640X-0.529647X1.330451X0*%
G04 #@! TD*
G04 #@! TA.AperFunction,SMDPad,CuDef*
%ADD12RoundRect,0.250000X0.132093X-1.425895X1.422199X0.167254X-0.132093X1.425895X-1.422199X-0.167254X0*%
G04 #@! TD*
G04 #@! TA.AperFunction,SMDPad,CuDef*
%ADD13RoundRect,0.250000X-0.241457X-1.411497X1.417028X-0.206537X0.241457X1.411497X-1.417028X0.206537X0*%
G04 #@! TD*
G04 #@! TA.AperFunction,SMDPad,CuDef*
%ADD14RoundRect,0.250000X-0.363558X-1.385081X1.393635X-0.329253X0.363558X1.385081X-1.393635X0.329253X0*%
G04 #@! TD*
G04 #@! TA.AperFunction,SMDPad,CuDef*
%ADD15RoundRect,0.250000X-0.482893X-1.348124X1.359635X-0.449464X0.482893X1.348124X-1.359635X0.449464X0*%
G04 #@! TD*
G04 #@! TA.AperFunction,SMDPad,CuDef*
%ADD16RoundRect,0.250000X-0.815359X-1.177206X1.196977X-0.786048X0.815359X1.177206X-1.196977X0.786048X0*%
G04 #@! TD*
G04 #@! TA.AperFunction,SMDPad,CuDef*
%ADD17RoundRect,0.250000X-0.914856X-1.101664X1.123913X-0.887380X0.914856X1.101664X-1.123913X0.887380X0*%
G04 #@! TD*
G04 #@! TA.AperFunction,SMDPad,CuDef*
%ADD18RoundRect,0.250000X-0.529647X-1.330451X1.343121X-0.496640X0.529647X1.330451X-1.343121X0.496640X0*%
G04 #@! TD*
G04 #@! TA.AperFunction,SMDPad,CuDef*
%ADD19RoundRect,0.250000X-1.422199X0.167254X-0.132093X-1.425895X1.422199X-0.167254X0.132093X1.425895X0*%
G04 #@! TD*
G04 #@! TA.AperFunction,SMDPad,CuDef*
%ADD20RoundRect,0.250000X-1.417028X-0.206537X0.241457X-1.411497X1.417028X0.206537X-0.241457X1.411497X0*%
G04 #@! TD*
G04 #@! TA.AperFunction,SMDPad,CuDef*
%ADD21RoundRect,0.250000X-1.393635X-0.329253X0.363558X-1.385081X1.393635X0.329253X-0.363558X1.385081X0*%
G04 #@! TD*
G04 #@! TA.AperFunction,SMDPad,CuDef*
%ADD22RoundRect,0.250000X-1.359635X-0.449464X0.482893X-1.348124X1.359635X0.449464X-0.482893X1.348124X0*%
G04 #@! TD*
G04 #@! TA.AperFunction,SMDPad,CuDef*
%ADD23RoundRect,0.250000X-1.196977X-0.786048X0.815359X-1.177206X1.196977X0.786048X-0.815359X1.177206X0*%
G04 #@! TD*
G04 #@! TA.AperFunction,SMDPad,CuDef*
%ADD24RoundRect,0.250000X-1.123913X-0.887380X0.914856X-1.101664X1.123913X0.887380X-0.914856X1.101664X0*%
G04 #@! TD*
G04 #@! TA.AperFunction,SMDPad,CuDef*
%ADD25RoundRect,0.225000X0.434095X-0.053021X0.251064X0.358074X-0.434095X0.053021X-0.251064X-0.358074X0*%
G04 #@! TD*
G04 #@! TA.AperFunction,SMDPad,CuDef*
%ADD26RoundRect,0.225000X0.061137X-0.433027X0.410853X-0.149833X-0.061137X0.433027X-0.410853X0.149833X0*%
G04 #@! TD*
G04 #@! TA.AperFunction,SMDPad,CuDef*
%ADD27RoundRect,0.225000X0.171130X-0.402448X0.435633X-0.038391X-0.171130X0.402448X-0.435633X0.038391X0*%
G04 #@! TD*
G04 #@! TA.AperFunction,SMDPad,CuDef*
%ADD28RoundRect,0.225000X0.205554X-0.386002X0.437321X-0.000277X-0.205554X0.386002X-0.437321X0.000277X0*%
G04 #@! TD*
G04 #@! TA.AperFunction,SMDPad,CuDef*
%ADD29RoundRect,0.225000X0.238414X-0.366618X0.435681X0.037839X-0.238414X0.366618X-0.435681X-0.037839X0*%
G04 #@! TD*
G04 #@! TA.AperFunction,SMDPad,CuDef*
%ADD30RoundRect,0.225000X0.325178X-0.292419X0.411042X0.149313X-0.325178X0.292419X-0.411042X-0.149313X0*%
G04 #@! TD*
G04 #@! TA.AperFunction,SMDPad,CuDef*
%ADD31RoundRect,0.225000X0.349427X-0.262966X0.396465X0.184569X-0.349427X0.262966X-0.396465X-0.184569X0*%
G04 #@! TD*
G04 APERTURE END LIST*
D10*
G04 #@! TO.P,U1,32,D+*
G04 #@! TO.N,unconnected-(U1-D+-Pad32)*
X223810000Y-155640000D03*
G04 #@! TO.P,U1,33,D-*
G04 #@! TO.N,unconnected-(U1-D--Pad33)*
X226350000Y-155640000D03*
G04 #@! TO.P,U1,34,P25*
G04 #@! TO.N,unconnected-(U1-P25-Pad34)*
X220000000Y-175960000D03*
G04 #@! TD*
D11*
G04 #@! TO.P,S44,1,1*
G04 #@! TO.N,col 7*
X278243011Y-206490642D03*
G04 #@! TO.P,S44,2,2*
G04 #@! TO.N,Net-(D44-A)*
X288310736Y-213381282D03*
G04 #@! TD*
D12*
G04 #@! TO.P,S43,1,1*
G04 #@! TO.N,col 8*
X288093157Y-194811885D03*
G04 #@! TO.P,S43,2,2*
G04 #@! TO.N,Net-(D43-A)*
X297354723Y-186870638D03*
G04 #@! TD*
D13*
G04 #@! TO.P,S42,1,1*
G04 #@! TO.N,col 9*
X305054604Y-177438948D03*
G04 #@! TO.P,S42,2,2*
G04 #@! TO.N,Net-(D42-A)*
X316055935Y-172165363D03*
G04 #@! TD*
G04 #@! TO.P,S41,1,1*
G04 #@! TO.N,col 6*
X251412037Y-180164861D03*
G04 #@! TO.P,S41,2,2*
G04 #@! TO.N,Net-(D41-A)*
X262413368Y-174891276D03*
G04 #@! TD*
G04 #@! TO.P,S40,1,1*
G04 #@! TO.N,col 6*
X250985819Y-148954793D03*
G04 #@! TO.P,S40,2,2*
G04 #@! TO.N,Net-(D40-A)*
X261987150Y-143681208D03*
G04 #@! TD*
G04 #@! TO.P,S39,1,1*
G04 #@! TO.N,col 6*
X260978168Y-162708082D03*
G04 #@! TO.P,S39,2,2*
G04 #@! TO.N,Net-(D39-A)*
X271979499Y-157434497D03*
G04 #@! TD*
G04 #@! TO.P,S38,1,1*
G04 #@! TO.N,col 6*
X270970517Y-176461371D03*
G04 #@! TO.P,S38,2,2*
G04 #@! TO.N,Net-(D38-A)*
X281971848Y-171187786D03*
G04 #@! TD*
G04 #@! TO.P,S37,1,1*
G04 #@! TO.N,col 7*
X263549655Y-135624001D03*
G04 #@! TO.P,S37,2,2*
G04 #@! TO.N,Net-(D37-A)*
X274550986Y-130350416D03*
G04 #@! TD*
G04 #@! TO.P,S36,1,1*
G04 #@! TO.N,col 7*
X273542004Y-149377290D03*
G04 #@! TO.P,S36,2,2*
G04 #@! TO.N,Net-(D36-A)*
X284543335Y-144103705D03*
G04 #@! TD*
G04 #@! TO.P,S35,1,1*
G04 #@! TO.N,col 7*
X283534353Y-163130579D03*
G04 #@! TO.P,S35,2,2*
G04 #@! TO.N,Net-(D35-A)*
X294535684Y-157856994D03*
G04 #@! TD*
D14*
G04 #@! TO.P,S34,1,1*
G04 #@! TO.N,col 8*
X277778687Y-116597864D03*
G04 #@! TO.P,S34,2,2*
G04 #@! TO.N,Net-(D34-A)*
X289197778Y-112303176D03*
G04 #@! TD*
G04 #@! TO.P,S33,1,1*
G04 #@! TO.N,col 8*
X286534334Y-131169708D03*
G04 #@! TO.P,S33,2,2*
G04 #@! TO.N,Net-(D33-A)*
X297953425Y-126875020D03*
G04 #@! TD*
G04 #@! TO.P,S32,1,1*
G04 #@! TO.N,col 8*
X295289981Y-145741552D03*
G04 #@! TO.P,S32,2,2*
G04 #@! TO.N,Net-(D32-A)*
X306709072Y-141446864D03*
G04 #@! TD*
D15*
G04 #@! TO.P,S31,1,1*
G04 #@! TO.N,col 9*
X299661044Y-110094134D03*
G04 #@! TO.P,S31,2,2*
G04 #@! TO.N,Net-(D31-A)*
X311410989Y-106811027D03*
G04 #@! TD*
G04 #@! TO.P,S30,1,1*
G04 #@! TO.N,col 9*
X307113353Y-125373633D03*
G04 #@! TO.P,S30,2,2*
G04 #@! TO.N,Net-(D30-A)*
X318863298Y-122090526D03*
G04 #@! TD*
G04 #@! TO.P,S29,1,1*
G04 #@! TO.N,col 9*
X314565663Y-140653132D03*
G04 #@! TO.P,S29,2,2*
G04 #@! TO.N,Net-(D29-A)*
X326315608Y-137370025D03*
G04 #@! TD*
D16*
G04 #@! TO.P,S28,1,1*
G04 #@! TO.N,col 10*
X330547655Y-111093609D03*
G04 #@! TO.P,S28,2,2*
G04 #@! TO.N,Net-(D28-A)*
X342746961Y-110963481D03*
G04 #@! TD*
G04 #@! TO.P,S27,1,1*
G04 #@! TO.N,col 10*
X333791407Y-127781271D03*
G04 #@! TO.P,S27,2,2*
G04 #@! TO.N,Net-(D27-A)*
X345990713Y-127651143D03*
G04 #@! TD*
G04 #@! TO.P,S26,1,1*
G04 #@! TO.N,col 10*
X337035160Y-144468934D03*
G04 #@! TO.P,S26,2,2*
G04 #@! TO.N,Net-(D26-A)*
X349234466Y-144338806D03*
G04 #@! TD*
D17*
G04 #@! TO.P,S25,1,1*
G04 #@! TO.N,col 11*
X353075909Y-112504993D03*
G04 #@! TO.P,S25,2,2*
G04 #@! TO.N,Net-(D25-A)*
X365240134Y-113438600D03*
G04 #@! TD*
G04 #@! TO.P,S24,1,1*
G04 #@! TO.N,col 11*
X354852893Y-129411865D03*
G04 #@! TO.P,S24,2,2*
G04 #@! TO.N,Net-(D24-A)*
X367017118Y-130345472D03*
G04 #@! TD*
G04 #@! TO.P,S23,1,1*
G04 #@! TO.N,col 11*
X356629877Y-146318737D03*
G04 #@! TO.P,S23,2,2*
G04 #@! TO.N,Net-(D23-A)*
X368794102Y-147252344D03*
G04 #@! TD*
D18*
G04 #@! TO.P,S22,1,1*
G04 #@! TO.N,col 4*
X165362171Y-209337799D03*
G04 #@! TO.P,S22,2,2*
G04 #@! TO.N,Net-(D22-A)*
X177219537Y-206466759D03*
G04 #@! TD*
D19*
G04 #@! TO.P,S21,1,1*
G04 #@! TO.N,col 3*
X157501599Y-189371863D03*
G04 #@! TO.P,S21,2,2*
G04 #@! TO.N,Net-(D21-A)*
X163343723Y-200082119D03*
G04 #@! TD*
D20*
G04 #@! TO.P,S20,1,1*
G04 #@! TO.N,col 2*
X139282276Y-173324452D03*
G04 #@! TO.P,S20,2,2*
G04 #@! TO.N,Net-(D20-A)*
X147697352Y-182157712D03*
G04 #@! TD*
G04 #@! TO.P,S19,1,1*
G04 #@! TO.N,col 5*
X192924844Y-176050365D03*
G04 #@! TO.P,S19,2,2*
G04 #@! TO.N,Net-(D19-A)*
X201339920Y-184883625D03*
G04 #@! TD*
G04 #@! TO.P,S18,1,1*
G04 #@! TO.N,col 5*
X193351062Y-144840297D03*
G04 #@! TO.P,S18,2,2*
G04 #@! TO.N,Net-(D18-A)*
X201766138Y-153673557D03*
G04 #@! TD*
G04 #@! TO.P,S17,1,1*
G04 #@! TO.N,col 5*
X183358712Y-158593586D03*
G04 #@! TO.P,S17,2,2*
G04 #@! TO.N,Net-(D17-A)*
X191773788Y-167426846D03*
G04 #@! TD*
G04 #@! TO.P,S16,1,1*
G04 #@! TO.N,col 5*
X173366363Y-172346875D03*
G04 #@! TO.P,S16,2,2*
G04 #@! TO.N,Net-(D16-A)*
X181781439Y-181180135D03*
G04 #@! TD*
G04 #@! TO.P,S15,1,1*
G04 #@! TO.N,col 4*
X180787225Y-131509505D03*
G04 #@! TO.P,S15,2,2*
G04 #@! TO.N,Net-(D15-A)*
X189202301Y-140342765D03*
G04 #@! TD*
G04 #@! TO.P,S14,1,1*
G04 #@! TO.N,col 4*
X170794876Y-145262794D03*
G04 #@! TO.P,S14,2,2*
G04 #@! TO.N,Net-(D14-A)*
X179209952Y-154096054D03*
G04 #@! TD*
G04 #@! TO.P,S13,1,1*
G04 #@! TO.N,col 4*
X160802527Y-159016083D03*
G04 #@! TO.P,S13,2,2*
G04 #@! TO.N,Net-(D13-A)*
X169217603Y-167849343D03*
G04 #@! TD*
D21*
G04 #@! TO.P,S12,1,1*
G04 #@! TO.N,col 3*
X166221141Y-112992598D03*
G04 #@! TO.P,S12,2,2*
G04 #@! TO.N,Net-(D12-A)*
X175374065Y-121058823D03*
G04 #@! TD*
G04 #@! TO.P,S11,1,1*
G04 #@! TO.N,col 3*
X157465494Y-127564442D03*
G04 #@! TO.P,S11,2,2*
G04 #@! TO.N,Net-(D11-A)*
X166618418Y-135630667D03*
G04 #@! TD*
G04 #@! TO.P,S10,1,1*
G04 #@! TO.N,col 3*
X148709847Y-142136286D03*
G04 #@! TO.P,S10,2,2*
G04 #@! TO.N,Net-(D10-A)*
X157862771Y-150202511D03*
G04 #@! TD*
D22*
G04 #@! TO.P,S9,1,1*
G04 #@! TO.N,col 2*
X144047398Y-107025536D03*
G04 #@! TO.P,S9,2,2*
G04 #@! TO.N,Net-(D9-A)*
X153868510Y-114263336D03*
G04 #@! TD*
G04 #@! TO.P,S8,1,1*
G04 #@! TO.N,col 2*
X136595088Y-122305035D03*
G04 #@! TO.P,S8,2,2*
G04 #@! TO.N,Net-(D8-A)*
X146416200Y-129542835D03*
G04 #@! TD*
G04 #@! TO.P,S7,1,1*
G04 #@! TO.N,col 2*
X129142779Y-137584534D03*
G04 #@! TO.P,S7,2,2*
G04 #@! TO.N,Net-(D7-A)*
X138963891Y-144822334D03*
G04 #@! TD*
D23*
G04 #@! TO.P,S6,1,1*
G04 #@! TO.N,col 1*
X112580955Y-109757946D03*
G04 #@! TO.P,S6,2,2*
G04 #@! TO.N,Net-(D6-A)*
X123940701Y-114207234D03*
G04 #@! TD*
G04 #@! TO.P,S5,1,1*
G04 #@! TO.N,col 1*
X109337202Y-126445608D03*
G04 #@! TO.P,S5,2,2*
G04 #@! TO.N,Net-(D5-A)*
X120696948Y-130894896D03*
G04 #@! TD*
G04 #@! TO.P,S4,1,1*
G04 #@! TO.N,col 1*
X106093449Y-143133271D03*
G04 #@! TO.P,S4,2,2*
G04 #@! TO.N,Net-(D4-A)*
X117453195Y-147582559D03*
G04 #@! TD*
D24*
G04 #@! TO.P,S3,1,1*
G04 #@! TO.N,col 0*
X89962437Y-111773294D03*
G04 #@! TO.P,S3,2,2*
G04 #@! TO.N,Net-(D3-A)*
X101666737Y-115215584D03*
G04 #@! TD*
G04 #@! TO.P,S2,1,1*
G04 #@! TO.N,col 0*
X88185453Y-128680166D03*
G04 #@! TO.P,S2,2,2*
G04 #@! TO.N,Net-(D2-A)*
X99889753Y-132122456D03*
G04 #@! TD*
G04 #@! TO.P,S1,1,1*
G04 #@! TO.N,col 0*
X86408469Y-145587038D03*
G04 #@! TO.P,S1,2,2*
G04 #@! TO.N,Net-(D1-A)*
X98112769Y-149029328D03*
G04 #@! TD*
D25*
G04 #@! TO.P,D22,1,K*
G04 #@! TO.N,row 3*
X181671115Y-216507350D03*
G04 #@! TO.P,D22,2,A*
G04 #@! TO.N,Net-(D22-A)*
X180328885Y-213492650D03*
G04 #@! TD*
D26*
G04 #@! TO.P,D21,1,K*
G04 #@! TO.N,row 3*
X155217709Y-207038379D03*
G04 #@! TO.P,D21,2,A*
G04 #@! TO.N,Net-(D21-A)*
X157782291Y-204961621D03*
G04 #@! TD*
D27*
G04 #@! TO.P,D20,1,K*
G04 #@! TO.N,row 3*
X141530154Y-190834878D03*
G04 #@! TO.P,D20,2,A*
G04 #@! TO.N,Net-(D20-A)*
X143469846Y-188165122D03*
G04 #@! TD*
G04 #@! TO.P,D19,1,K*
G04 #@! TO.N,row 3*
X195030154Y-193334878D03*
G04 #@! TO.P,D19,2,A*
G04 #@! TO.N,Net-(D19-A)*
X196969846Y-190665122D03*
G04 #@! TD*
G04 #@! TO.P,D18,1,K*
G04 #@! TO.N,row 0*
X195530154Y-162334878D03*
G04 #@! TO.P,D18,2,A*
G04 #@! TO.N,Net-(D18-A)*
X197469846Y-159665122D03*
G04 #@! TD*
G04 #@! TO.P,D17,1,K*
G04 #@! TO.N,row 1*
X185530154Y-176334878D03*
G04 #@! TO.P,D17,2,A*
G04 #@! TO.N,Net-(D17-A)*
X187469846Y-173665122D03*
G04 #@! TD*
G04 #@! TO.P,D16,1,K*
G04 #@! TO.N,Net-(D1-K)*
X175530154Y-189834878D03*
G04 #@! TO.P,D16,2,A*
G04 #@! TO.N,Net-(D16-A)*
X177469846Y-187165122D03*
G04 #@! TD*
G04 #@! TO.P,D15,1,K*
G04 #@! TO.N,row 0*
X183030154Y-149334878D03*
G04 #@! TO.P,D15,2,A*
G04 #@! TO.N,Net-(D15-A)*
X184969846Y-146665122D03*
G04 #@! TD*
G04 #@! TO.P,D14,1,K*
G04 #@! TO.N,row 1*
X173030154Y-162834878D03*
G04 #@! TO.P,D14,2,A*
G04 #@! TO.N,Net-(D14-A)*
X174969846Y-160165122D03*
G04 #@! TD*
G04 #@! TO.P,D13,1,K*
G04 #@! TO.N,Net-(D1-K)*
X163030154Y-176334878D03*
G04 #@! TO.P,D13,2,A*
G04 #@! TO.N,Net-(D13-A)*
X164969846Y-173665122D03*
G04 #@! TD*
D28*
G04 #@! TO.P,D12,1,K*
G04 #@! TO.N,row 0*
X170150187Y-130414326D03*
G04 #@! TO.P,D12,2,A*
G04 #@! TO.N,Net-(D12-A)*
X171849813Y-127585674D03*
G04 #@! TD*
G04 #@! TO.P,D11,1,K*
G04 #@! TO.N,row 1*
X161150187Y-144914326D03*
G04 #@! TO.P,D11,2,A*
G04 #@! TO.N,Net-(D11-A)*
X162849813Y-142085674D03*
G04 #@! TD*
G04 #@! TO.P,D10,1,K*
G04 #@! TO.N,Net-(D1-K)*
X152650187Y-159414326D03*
G04 #@! TO.P,D10,2,A*
G04 #@! TO.N,Net-(D10-A)*
X154349813Y-156585674D03*
G04 #@! TD*
D29*
G04 #@! TO.P,D9,1,K*
G04 #@! TO.N,row 0*
X149276688Y-123983010D03*
G04 #@! TO.P,D9,2,A*
G04 #@! TO.N,Net-(D9-A)*
X150723312Y-121016990D03*
G04 #@! TD*
G04 #@! TO.P,D8,1,K*
G04 #@! TO.N,row 1*
X141776688Y-139483010D03*
G04 #@! TO.P,D8,2,A*
G04 #@! TO.N,Net-(D8-A)*
X143223312Y-136516990D03*
G04 #@! TD*
G04 #@! TO.P,D7,1,K*
G04 #@! TO.N,Net-(D1-K)*
X134776688Y-154483010D03*
G04 #@! TO.P,D7,2,A*
G04 #@! TO.N,Net-(D7-A)*
X136223312Y-151516990D03*
G04 #@! TD*
D30*
G04 #@! TO.P,D6,1,K*
G04 #@! TO.N,row 0*
X122185165Y-124619685D03*
G04 #@! TO.P,D6,2,A*
G04 #@! TO.N,Net-(D6-A)*
X122814835Y-121380315D03*
G04 #@! TD*
G04 #@! TO.P,D5,1,K*
G04 #@! TO.N,row 1*
X119185165Y-141619685D03*
G04 #@! TO.P,D5,2,A*
G04 #@! TO.N,Net-(D5-A)*
X119814835Y-138380315D03*
G04 #@! TD*
G04 #@! TO.P,D4,1,K*
G04 #@! TO.N,Net-(D1-K)*
X115685165Y-158119685D03*
G04 #@! TO.P,D4,2,A*
G04 #@! TO.N,Net-(D4-A)*
X116314835Y-154880315D03*
G04 #@! TD*
D31*
G04 #@! TO.P,D3,1,K*
G04 #@! TO.N,row 0*
X100827528Y-125640961D03*
G04 #@! TO.P,D3,2,A*
G04 #@! TO.N,Net-(D3-A)*
X101172472Y-122359039D03*
G04 #@! TD*
G04 #@! TO.P,D2,1,K*
G04 #@! TO.N,row 1*
X98827528Y-142640961D03*
G04 #@! TO.P,D2,2,A*
G04 #@! TO.N,Net-(D2-A)*
X99172472Y-139359039D03*
G04 #@! TD*
G04 #@! TO.P,D1,1,K*
G04 #@! TO.N,Net-(D1-K)*
X97327528Y-159640961D03*
G04 #@! TO.P,D1,2,A*
G04 #@! TO.N,Net-(D1-A)*
X97672472Y-156359039D03*
G04 #@! TD*
M02*
