G04 #@! TF.GenerationSoftware,KiCad,Pcbnew,8.0.3*
G04 #@! TF.CreationDate,2024-06-16T15:20:09+01:00*
G04 #@! TF.ProjectId,ykb,796b622e-6b69-4636-9164-5f7063625858,v1.0.0*
G04 #@! TF.SameCoordinates,Original*
G04 #@! TF.FileFunction,Other,User*
%FSLAX46Y46*%
G04 Gerber Fmt 4.6, Leading zero omitted, Abs format (unit mm)*
G04 Created by KiCad (PCBNEW 8.0.3) date 2024-06-16 15:20:09*
%MOMM*%
%LPD*%
G01*
G04 APERTURE LIST*
%ADD10C,0.050000*%
G04 APERTURE END LIST*
D10*
G04 #@! TO.C,S44*
X275072232Y-203163307D02*
X268767814Y-217323261D01*
X268767814Y-217323261D02*
X282927768Y-223627679D01*
X282927768Y-223627679D02*
X289232186Y-209467725D01*
X289232186Y-209467725D02*
X275072232Y-203163307D01*
G04 #@! TO.C,S43*
X284058540Y-197013444D02*
X296104302Y-206767910D01*
X296104302Y-206767910D02*
X305858768Y-194722148D01*
X305858768Y-194722148D02*
X293813006Y-184967682D01*
X293813006Y-184967682D02*
X284058540Y-197013444D01*
G04 #@! TO.C,S42*
X300587658Y-178521256D02*
X309698329Y-191061019D01*
X309698329Y-191061019D02*
X322238092Y-181950348D01*
X322238092Y-181950348D02*
X313127421Y-169410585D01*
X313127421Y-169410585D02*
X300587658Y-178521256D01*
G04 #@! TO.C,S41*
X246945091Y-181247169D02*
X256055762Y-193786932D01*
X256055762Y-193786932D02*
X268595525Y-184676261D01*
X268595525Y-184676261D02*
X259484854Y-172136498D01*
X259484854Y-172136498D02*
X246945091Y-181247169D01*
G04 #@! TO.C,S40*
X246518873Y-150037101D02*
X255629544Y-162576864D01*
X255629544Y-162576864D02*
X268169307Y-153466193D01*
X268169307Y-153466193D02*
X259058636Y-140926430D01*
X259058636Y-140926430D02*
X246518873Y-150037101D01*
G04 #@! TO.C,S39*
X256511222Y-163790390D02*
X265621893Y-176330153D01*
X265621893Y-176330153D02*
X278161656Y-167219482D01*
X278161656Y-167219482D02*
X269050985Y-154679719D01*
X269050985Y-154679719D02*
X256511222Y-163790390D01*
G04 #@! TO.C,S38*
X266503571Y-177543679D02*
X275614242Y-190083442D01*
X275614242Y-190083442D02*
X288154005Y-180972771D01*
X288154005Y-180972771D02*
X279043334Y-168433008D01*
X279043334Y-168433008D02*
X266503571Y-177543679D01*
G04 #@! TO.C,S37*
X259082709Y-136706309D02*
X268193380Y-149246072D01*
X268193380Y-149246072D02*
X280733143Y-140135401D01*
X280733143Y-140135401D02*
X271622472Y-127595638D01*
X271622472Y-127595638D02*
X259082709Y-136706309D01*
G04 #@! TO.C,S36*
X269075058Y-150459598D02*
X278185729Y-162999361D01*
X278185729Y-162999361D02*
X290725492Y-153888690D01*
X290725492Y-153888690D02*
X281614821Y-141348927D01*
X281614821Y-141348927D02*
X269075058Y-150459598D01*
G04 #@! TO.C,S35*
X279067407Y-164212887D02*
X288178078Y-176752650D01*
X288178078Y-176752650D02*
X300717841Y-167641979D01*
X300717841Y-167641979D02*
X291607170Y-155102216D01*
X291607170Y-155102216D02*
X279067407Y-164212887D01*
G04 #@! TO.C,S34*
X273234409Y-117286734D02*
X281217500Y-130572827D01*
X281217500Y-130572827D02*
X294503593Y-122589736D01*
X294503593Y-122589736D02*
X286520502Y-109303643D01*
X286520502Y-109303643D02*
X273234409Y-117286734D01*
G04 #@! TO.C,S33*
X281990056Y-131858578D02*
X289973147Y-145144671D01*
X289973147Y-145144671D02*
X303259240Y-137161580D01*
X303259240Y-137161580D02*
X295276149Y-123875487D01*
X295276149Y-123875487D02*
X281990056Y-131858578D01*
G04 #@! TO.C,S32*
X290745703Y-146430422D02*
X298728794Y-159716515D01*
X298728794Y-159716515D02*
X312014887Y-151733424D01*
X312014887Y-151733424D02*
X304031796Y-138447331D01*
X304031796Y-138447331D02*
X290745703Y-146430422D01*
G04 #@! TO.C,S31*
X295074020Y-110384322D02*
X301868773Y-124315629D01*
X301868773Y-124315629D02*
X315800080Y-117520876D01*
X315800080Y-117520876D02*
X309005327Y-103589569D01*
X309005327Y-103589569D02*
X295074020Y-110384322D01*
G04 #@! TO.C,S30*
X302526329Y-125663821D02*
X309321082Y-139595128D01*
X309321082Y-139595128D02*
X323252389Y-132800375D01*
X323252389Y-132800375D02*
X316457636Y-118869068D01*
X316457636Y-118869068D02*
X302526329Y-125663821D01*
G04 #@! TO.C,S29*
X309978639Y-140943320D02*
X316773392Y-154874627D01*
X316773392Y-154874627D02*
X330704699Y-148079874D01*
X330704699Y-148079874D02*
X323909946Y-134148567D01*
X323909946Y-134148567D02*
X309978639Y-140943320D01*
G04 #@! TO.C,S28*
X326041824Y-110186700D02*
X328999363Y-125401921D01*
X328999363Y-125401921D02*
X344214584Y-122444382D01*
X344214584Y-122444382D02*
X341257045Y-107229161D01*
X341257045Y-107229161D02*
X326041824Y-110186700D01*
G04 #@! TO.C,S27*
X329285576Y-126874362D02*
X332243115Y-142089583D01*
X332243115Y-142089583D02*
X347458336Y-139132044D01*
X347458336Y-139132044D02*
X344500797Y-123916823D01*
X344500797Y-123916823D02*
X329285576Y-126874362D01*
G04 #@! TO.C,S26*
X332529329Y-143562025D02*
X335486868Y-158777246D01*
X335486868Y-158777246D02*
X350702089Y-155819707D01*
X350702089Y-155819707D02*
X347744550Y-140604486D01*
X347744550Y-140604486D02*
X332529329Y-143562025D01*
G04 #@! TO.C,S25*
X348666266Y-111208826D02*
X350286457Y-126623915D01*
X350286457Y-126623915D02*
X365701546Y-125003724D01*
X365701546Y-125003724D02*
X364081355Y-109588635D01*
X364081355Y-109588635D02*
X348666266Y-111208826D01*
G04 #@! TO.C,S24*
X350443250Y-128115698D02*
X352063441Y-143530787D01*
X352063441Y-143530787D02*
X367478530Y-141910596D01*
X367478530Y-141910596D02*
X365858339Y-126495507D01*
X365858339Y-126495507D02*
X350443250Y-128115698D01*
G04 #@! TO.C,S23*
X352220234Y-145022570D02*
X353840425Y-160437659D01*
X353840425Y-160437659D02*
X369255514Y-158817468D01*
X369255514Y-158817468D02*
X367635323Y-143402379D01*
X367635323Y-143402379D02*
X352220234Y-145022570D01*
G04 #@! TO.C,S22*
X160767814Y-209467725D02*
X167072232Y-223627679D01*
X167072232Y-223627679D02*
X181232186Y-217323261D01*
X181232186Y-217323261D02*
X174927768Y-203163307D01*
X174927768Y-203163307D02*
X160767814Y-209467725D01*
G04 #@! TO.C,S21*
X156186993Y-184967682D02*
X144141231Y-194722148D01*
X144141231Y-194722148D02*
X153895697Y-206767910D01*
X153895697Y-206767910D02*
X165941459Y-197013444D01*
X165941459Y-197013444D02*
X156186993Y-184967682D01*
G04 #@! TO.C,S20*
X136872578Y-169410585D02*
X127761907Y-181950348D01*
X127761907Y-181950348D02*
X140301670Y-191061019D01*
X140301670Y-191061019D02*
X149412341Y-178521256D01*
X149412341Y-178521256D02*
X136872578Y-169410585D01*
G04 #@! TO.C,S19*
X190515146Y-172136498D02*
X181404475Y-184676261D01*
X181404475Y-184676261D02*
X193944238Y-193786932D01*
X193944238Y-193786932D02*
X203054909Y-181247169D01*
X203054909Y-181247169D02*
X190515146Y-172136498D01*
G04 #@! TO.C,S18*
X190941364Y-140926430D02*
X181830693Y-153466193D01*
X181830693Y-153466193D02*
X194370456Y-162576864D01*
X194370456Y-162576864D02*
X203481127Y-150037101D01*
X203481127Y-150037101D02*
X190941364Y-140926430D01*
G04 #@! TO.C,S17*
X180949014Y-154679719D02*
X171838343Y-167219482D01*
X171838343Y-167219482D02*
X184378106Y-176330153D01*
X184378106Y-176330153D02*
X193488777Y-163790390D01*
X193488777Y-163790390D02*
X180949014Y-154679719D01*
G04 #@! TO.C,S16*
X170956665Y-168433008D02*
X161845994Y-180972771D01*
X161845994Y-180972771D02*
X174385757Y-190083442D01*
X174385757Y-190083442D02*
X183496428Y-177543679D01*
X183496428Y-177543679D02*
X170956665Y-168433008D01*
G04 #@! TO.C,S15*
X178377527Y-127595638D02*
X169266856Y-140135401D01*
X169266856Y-140135401D02*
X181806619Y-149246072D01*
X181806619Y-149246072D02*
X190917290Y-136706309D01*
X190917290Y-136706309D02*
X178377527Y-127595638D01*
G04 #@! TO.C,S14*
X168385178Y-141348927D02*
X159274507Y-153888690D01*
X159274507Y-153888690D02*
X171814270Y-162999361D01*
X171814270Y-162999361D02*
X180924941Y-150459598D01*
X180924941Y-150459598D02*
X168385178Y-141348927D01*
G04 #@! TO.C,S13*
X158392829Y-155102216D02*
X149282158Y-167641979D01*
X149282158Y-167641979D02*
X161821921Y-176752650D01*
X161821921Y-176752650D02*
X170932592Y-164212887D01*
X170932592Y-164212887D02*
X158392829Y-155102216D01*
G04 #@! TO.C,S12*
X163479497Y-109303643D02*
X155496406Y-122589736D01*
X155496406Y-122589736D02*
X168782499Y-130572827D01*
X168782499Y-130572827D02*
X176765590Y-117286734D01*
X176765590Y-117286734D02*
X163479497Y-109303643D01*
G04 #@! TO.C,S11*
X154723850Y-123875487D02*
X146740759Y-137161580D01*
X146740759Y-137161580D02*
X160026852Y-145144671D01*
X160026852Y-145144671D02*
X168009943Y-131858578D01*
X168009943Y-131858578D02*
X154723850Y-123875487D01*
G04 #@! TO.C,S10*
X145968203Y-138447331D02*
X137985112Y-151733424D01*
X137985112Y-151733424D02*
X151271205Y-159716515D01*
X151271205Y-159716515D02*
X159254296Y-146430422D01*
X159254296Y-146430422D02*
X145968203Y-138447331D01*
G04 #@! TO.C,S9*
X140994673Y-103589569D02*
X134199920Y-117520876D01*
X134199920Y-117520876D02*
X148131227Y-124315629D01*
X148131227Y-124315629D02*
X154925980Y-110384322D01*
X154925980Y-110384322D02*
X140994673Y-103589569D01*
G04 #@! TO.C,S8*
X133542363Y-118869068D02*
X126747610Y-132800375D01*
X126747610Y-132800375D02*
X140678917Y-139595128D01*
X140678917Y-139595128D02*
X147473670Y-125663821D01*
X147473670Y-125663821D02*
X133542363Y-118869068D01*
G04 #@! TO.C,S7*
X126090054Y-134148567D02*
X119295301Y-148079874D01*
X119295301Y-148079874D02*
X133226608Y-154874627D01*
X133226608Y-154874627D02*
X140021361Y-140943320D01*
X140021361Y-140943320D02*
X126090054Y-134148567D01*
G04 #@! TO.C,S6*
X108742955Y-107229161D02*
X105785416Y-122444382D01*
X105785416Y-122444382D02*
X121000637Y-125401921D01*
X121000637Y-125401921D02*
X123958176Y-110186700D01*
X123958176Y-110186700D02*
X108742955Y-107229161D01*
G04 #@! TO.C,S5*
X105499202Y-123916823D02*
X102541663Y-139132044D01*
X102541663Y-139132044D02*
X117756884Y-142089583D01*
X117756884Y-142089583D02*
X120714423Y-126874362D01*
X120714423Y-126874362D02*
X105499202Y-123916823D01*
G04 #@! TO.C,S4*
X102255449Y-140604486D02*
X99297910Y-155819707D01*
X99297910Y-155819707D02*
X114513131Y-158777246D01*
X114513131Y-158777246D02*
X117470670Y-143562025D01*
X117470670Y-143562025D02*
X102255449Y-140604486D01*
G04 #@! TO.C,S3*
X85918644Y-109588635D02*
X84298453Y-125003724D01*
X84298453Y-125003724D02*
X99713542Y-126623915D01*
X99713542Y-126623915D02*
X101333733Y-111208826D01*
X101333733Y-111208826D02*
X85918644Y-109588635D01*
G04 #@! TO.C,S2*
X84141660Y-126495507D02*
X82521469Y-141910596D01*
X82521469Y-141910596D02*
X97936558Y-143530787D01*
X97936558Y-143530787D02*
X99556749Y-128115698D01*
X99556749Y-128115698D02*
X84141660Y-126495507D01*
G04 #@! TO.C,S1*
X82364676Y-143402379D02*
X80744485Y-158817468D01*
X80744485Y-158817468D02*
X96159574Y-160437659D01*
X96159574Y-160437659D02*
X97779765Y-145022570D01*
X97779765Y-145022570D02*
X82364676Y-143402379D01*
G04 #@! TO.C,D44*
X275287231Y-215956813D02*
X274351737Y-218057967D01*
X275287231Y-215956813D02*
X279580895Y-217868475D01*
X279580895Y-217868475D02*
X278645401Y-219969629D01*
X278645401Y-219969629D02*
X274351737Y-218057967D01*
G04 #@! TO.C,D43*
X296471763Y-200116973D02*
X298259199Y-201564409D01*
X296471763Y-200116973D02*
X299429569Y-196464387D01*
X299429569Y-196464387D02*
X301217005Y-197911823D01*
X301217005Y-197911823D02*
X298259199Y-201564409D01*
G04 #@! TO.C,D42*
X311774658Y-184731813D02*
X313126564Y-186592552D01*
X311774658Y-184731813D02*
X315577038Y-181969222D01*
X315577038Y-181969222D02*
X316928944Y-183829961D01*
X316928944Y-183829961D02*
X313126564Y-186592552D01*
G04 #@! TO.C,D41*
X258132091Y-187457726D02*
X259483997Y-189318465D01*
X258132091Y-187457726D02*
X261934471Y-184695135D01*
X261934471Y-184695135D02*
X263286377Y-186555874D01*
X263286377Y-186555874D02*
X259483997Y-189318465D01*
G04 #@! TO.C,D40*
X257705873Y-156247658D02*
X259057779Y-158108397D01*
X257705873Y-156247658D02*
X261508253Y-153485067D01*
X261508253Y-153485067D02*
X262860159Y-155345806D01*
X262860159Y-155345806D02*
X259057779Y-158108397D01*
G04 #@! TO.C,D39*
X267698222Y-170000947D02*
X269050128Y-171861686D01*
X267698222Y-170000947D02*
X271500602Y-167238356D01*
X271500602Y-167238356D02*
X272852508Y-169099095D01*
X272852508Y-169099095D02*
X269050128Y-171861686D01*
G04 #@! TO.C,D38*
X277690572Y-183754236D02*
X279042478Y-185614975D01*
X277690572Y-183754236D02*
X281492952Y-180991645D01*
X281492952Y-180991645D02*
X282844858Y-182852384D01*
X282844858Y-182852384D02*
X279042478Y-185614975D01*
G04 #@! TO.C,D37*
X270269709Y-142916866D02*
X271621615Y-144777605D01*
X270269709Y-142916866D02*
X274072089Y-140154275D01*
X274072089Y-140154275D02*
X275423995Y-142015014D01*
X275423995Y-142015014D02*
X271621615Y-144777605D01*
G04 #@! TO.C,D36*
X280262058Y-156670155D02*
X281613964Y-158530894D01*
X280262058Y-156670155D02*
X284064438Y-153907564D01*
X284064438Y-153907564D02*
X285416344Y-155768303D01*
X285416344Y-155768303D02*
X281613964Y-158530894D01*
G04 #@! TO.C,D35*
X290254408Y-170423444D02*
X291606314Y-172284183D01*
X290254408Y-170423444D02*
X294056788Y-167660853D01*
X294056788Y-167660853D02*
X295408694Y-169521592D01*
X295408694Y-169521592D02*
X291606314Y-172284183D01*
G04 #@! TO.C,D34*
X283837554Y-124448669D02*
X285022142Y-126420154D01*
X283837554Y-124448669D02*
X287866240Y-122027990D01*
X287866240Y-122027990D02*
X289050828Y-123999475D01*
X289050828Y-123999475D02*
X285022142Y-126420154D01*
G04 #@! TO.C,D33*
X292593201Y-139020513D02*
X293777789Y-140991998D01*
X292593201Y-139020513D02*
X296621887Y-136599834D01*
X296621887Y-136599834D02*
X297806475Y-138571319D01*
X297806475Y-138571319D02*
X293777789Y-140991998D01*
G04 #@! TO.C,D32*
X301348849Y-153592357D02*
X302533437Y-155563842D01*
X301348849Y-153592357D02*
X305377535Y-151171678D01*
X305377535Y-151171678D02*
X306562123Y-153143163D01*
X306562123Y-153143163D02*
X302533437Y-155563842D01*
G04 #@! TO.C,D31*
X305012612Y-118443128D02*
X306020866Y-120510354D01*
X305012612Y-118443128D02*
X309236944Y-116382784D01*
X309236944Y-116382784D02*
X310245198Y-118450010D01*
X310245198Y-118450010D02*
X306020866Y-120510354D01*
G04 #@! TO.C,D30*
X312464922Y-133722627D02*
X313473176Y-135789853D01*
X312464922Y-133722627D02*
X316689254Y-131662283D01*
X316689254Y-131662283D02*
X317697508Y-133729509D01*
X317697508Y-133729509D02*
X313473176Y-135789853D01*
G04 #@! TO.C,D29*
X319917231Y-149002126D02*
X320925485Y-151069352D01*
X319917231Y-149002126D02*
X324141563Y-146941782D01*
X324141563Y-146941782D02*
X325149817Y-149009008D01*
X325149817Y-149009008D02*
X320925485Y-151069352D01*
G04 #@! TO.C,D28*
X333555995Y-120543207D02*
X333994855Y-122800949D01*
X333555995Y-120543207D02*
X338169643Y-119646405D01*
X338169643Y-119646405D02*
X338608503Y-121904147D01*
X338608503Y-121904147D02*
X333994855Y-122800949D01*
G04 #@! TO.C,D27*
X336799747Y-137230869D02*
X337238607Y-139488611D01*
X336799747Y-137230869D02*
X341413395Y-136334067D01*
X341413395Y-136334067D02*
X341852255Y-138591809D01*
X341852255Y-138591809D02*
X337238607Y-139488611D01*
G04 #@! TO.C,D26*
X340043500Y-153918532D02*
X340482360Y-156176274D01*
X340043500Y-153918532D02*
X344657148Y-153021730D01*
X344657148Y-153021730D02*
X345096008Y-155279472D01*
X345096008Y-155279472D02*
X340482360Y-156176274D01*
G04 #@! TO.C,D25*
X355249215Y-122180826D02*
X355489630Y-124468226D01*
X355249215Y-122180826D02*
X359923468Y-121689542D01*
X359923468Y-121689542D02*
X360163883Y-123976942D01*
X360163883Y-123976942D02*
X355489630Y-124468226D01*
G04 #@! TO.C,D24*
X357026199Y-139087698D02*
X357266614Y-141375098D01*
X357026199Y-139087698D02*
X361700452Y-138596414D01*
X361700452Y-138596414D02*
X361940867Y-140883814D01*
X361940867Y-140883814D02*
X357266614Y-141375098D01*
G04 #@! TO.C,D23*
X358803182Y-155994571D02*
X359043597Y-158281971D01*
X358803182Y-155994571D02*
X363477435Y-155503287D01*
X363477435Y-155503287D02*
X363717850Y-157790687D01*
X363717850Y-157790687D02*
X359043597Y-158281971D01*
G04 #@! TD*
M02*
