M48
; DRILL file {KiCad 8.0.3} date 2024-06-16T15:20:09+0100
; FORMAT={-:-/ absolute / metric / decimal}
; #@! TF.CreationDate,2024-06-16T15:20:09+01:00
; #@! TF.GenerationSoftware,Kicad,Pcbnew,8.0.3
; #@! TF.FileFunction,NonPlated,1,2,NPTH
FMAT,2
METRIC
; #@! TA.AperFunction,NonPlated,NPTH,ComponentDrill
T1C1.600
; #@! TA.AperFunction,NonPlated,NPTH,ComponentDrill
T2C1.900
; #@! TA.AperFunction,NonPlated,NPTH,ComponentDrill
T3C3.050
; #@! TA.AperFunction,NonPlated,NPTH,ComponentDrill
T4C5.050
%
G90
G05
T1
X83.751Y-156.519
X85.528Y-139.612
X87.305Y-122.705
X102.493Y-153.792
X105.737Y-137.105
X108.981Y-120.417
X122.907Y-146.949
X130.359Y-131.669
X131.515Y-181.463
X137.811Y-116.39
X141.681Y-150.921
X147.892Y-195.223
X150.437Y-136.349
X153.035Y-167.155
X159.193Y-121.777
X163.028Y-153.402
X165.599Y-180.486
X168.527Y-220.134
X173.02Y-139.648
X175.591Y-166.732
X185.158Y-184.189
X185.584Y-152.979
X256.326Y-158.857
X256.752Y-190.067
X266.318Y-172.61
X268.89Y-145.526
X272.338Y-216.067
X276.311Y-186.364
X278.882Y-159.28
X282.236Y-126.928
X288.875Y-173.033
X290.991Y-141.5
X295.814Y-202.995
X299.747Y-156.072
X303.201Y-120.773
X310.395Y-187.341
X310.653Y-136.053
X318.105Y-151.332
X331.203Y-122.325
X334.446Y-139.013
X337.69Y-155.7
X352.75Y-123.751
X354.527Y-140.658
X356.304Y-157.564
T2
X83.792Y-151.345
X85.569Y-134.438
X87.346Y-117.531
X94.732Y-152.495
X96.509Y-135.588
X98.286Y-118.681
X102.985Y-148.641
X106.229Y-131.954
X109.473Y-115.266
X113.783Y-150.74
X117.027Y-134.053
X120.271Y-117.365
X124.715Y-142.101
X132.167Y-126.821
X134.138Y-177.003
X134.602Y-146.923
X139.62Y-111.542
X142.054Y-131.643
X143.037Y-183.469
X143.905Y-146.249
X149.506Y-116.364
X151.58Y-191.593
X152.661Y-131.677
X153.334Y-151.915
X155.658Y-162.695
X158.503Y-200.142
X161.417Y-117.106
X162.09Y-137.343
X164.557Y-169.16
X165.65Y-148.941
X165.975Y-215.633
X168.222Y-176.025
X170.845Y-122.771
X174.549Y-155.407
X175.642Y-135.188
X176.024Y-211.158
X177.121Y-182.491
X178.214Y-162.272
X184.542Y-141.654
X187.113Y-168.738
X187.78Y-179.729
X188.206Y-148.519
X196.679Y-186.195
X197.106Y-154.984
X252.894Y-154.984
X253.321Y-186.195
X261.794Y-148.519
X262.22Y-179.729
X262.887Y-168.738
X265.458Y-141.654
X271.786Y-162.272
X272.879Y-182.491
X273.976Y-211.158
X274.358Y-135.188
X275.451Y-155.407
X279.155Y-122.771
X281.778Y-176.025
X284.024Y-215.633
X284.35Y-148.941
X285.443Y-169.16
X287.91Y-137.343
X288.583Y-117.106
X291.497Y-200.142
X294.342Y-162.695
X296.666Y-151.915
X297.339Y-131.677
X298.42Y-191.593
X300.494Y-116.364
X306.095Y-146.249
X306.963Y-183.469
X307.946Y-131.643
X310.38Y-111.542
X315.398Y-146.923
X315.862Y-177.003
X317.833Y-126.821
X325.285Y-142.101
X329.729Y-117.365
X332.973Y-134.053
X336.217Y-150.74
X340.527Y-115.266
X343.771Y-131.954
X347.015Y-148.641
X351.714Y-118.681
X353.491Y-135.588
X355.268Y-152.495
X362.654Y-117.531
X364.431Y-134.438
X366.208Y-151.345
T3
X89.879Y-146.052
X91.656Y-129.145
X93.433Y-112.239
X94.632Y-148.663
X96.409Y-131.757
X98.186Y-114.85
X109.51Y-143.899
X112.754Y-127.212
X114.017Y-146.915
X115.998Y-110.524
X117.261Y-130.227
X120.505Y-113.539
X132.245Y-139.209
X135.818Y-143.288
X139.697Y-123.929
X142.055Y-175.463
X143.27Y-128.009
X144.866Y-180.1
X147.149Y-108.65
X150.723Y-112.729
X151.658Y-144.025
X154.863Y-148.4
X159.627Y-192.155
X160.414Y-129.453
X161.141Y-197.362
X163.575Y-161.154
X163.618Y-133.828
X166.386Y-165.792
X168.6Y-208.006
X169.17Y-114.881
X172.374Y-119.256
X173.568Y-147.401
X174.022Y-207.89
X176.139Y-174.485
X176.378Y-152.039
X178.95Y-179.123
X183.56Y-133.648
X186.131Y-160.732
X186.371Y-138.286
X188.942Y-165.37
X195.698Y-178.189
X196.124Y-146.978
X198.508Y-182.826
X198.935Y-151.616
X253.876Y-146.978
X254.302Y-178.189
X259.156Y-145.738
X259.582Y-176.949
X263.869Y-160.732
X266.44Y-133.648
X269.148Y-159.492
X271.719Y-132.408
X273.861Y-174.485
X276.432Y-147.401
X279.14Y-173.245
X280.83Y-114.881
X281.4Y-208.006
X281.712Y-146.161
X285.113Y-211.958
X286.198Y-114.106
X286.425Y-161.154
X289.586Y-129.453
X290.373Y-192.155
X291.704Y-159.914
X294.953Y-128.678
X295.152Y-189.591
X298.342Y-144.025
X302.851Y-108.65
X303.709Y-143.249
X307.945Y-175.463
X308.265Y-108.345
X310.303Y-123.929
X313.224Y-174.223
X315.718Y-123.625
X317.755Y-139.209
X323.17Y-138.904
X334.002Y-110.524
X337.246Y-127.212
X339.311Y-111.631
X340.49Y-143.899
X342.555Y-128.319
X345.799Y-145.007
X356.567Y-112.239
X358.344Y-129.145
X360.121Y-146.052
X361.759Y-113.804
X363.536Y-130.711
X365.313Y-147.618
T4
X89.262Y-151.92
X91.039Y-135.013
X92.816Y-118.106
X108.384Y-149.691
X111.628Y-133.003
X114.872Y-116.316
X129.658Y-144.512
X137.111Y-129.232
X138.587Y-180.236
X144.563Y-113.953
X148.62Y-149.082
X155.041Y-195.868
X157.375Y-134.51
X160.107Y-165.927
X166.131Y-119.938
X170.1Y-152.174
X171.0Y-213.395
X172.671Y-179.258
X180.092Y-138.421
X182.664Y-165.505
X192.23Y-182.962
X192.656Y-151.752
X257.344Y-151.752
X257.77Y-182.962
X267.336Y-165.505
X269.908Y-138.421
X277.329Y-179.258
X279.0Y-213.395
X279.9Y-152.174
X283.869Y-119.938
X289.893Y-165.927
X292.625Y-134.51
X294.959Y-195.868
X301.38Y-149.082
X305.437Y-113.953
X311.413Y-180.236
X312.889Y-129.232
X320.342Y-144.512
X335.128Y-116.316
X338.372Y-133.003
X341.616Y-149.691
X357.184Y-118.106
X358.961Y-135.013
X360.738Y-151.92
M30
