%TF.GenerationSoftware,KiCad,Pcbnew,8.0.3*%
%TF.CreationDate,2024-06-16T15:20:09+01:00*%
%TF.ProjectId,ykb,796b622e-6b69-4636-9164-5f7063625858,v1.0.0*%
%TF.SameCoordinates,Original*%
%TF.FileFunction,Drillmap*%
%TF.FilePolarity,Positive*%
%FSLAX45Y45*%
G04 Gerber Fmt 4.5, Leading zero omitted, Abs format (unit mm)*
G04 Created by KiCad (PCBNEW 8.0.3) date 2024-06-16 15:20:09*
%MOMM*%
%LPD*%
G01*
G04 APERTURE LIST*
%ADD10C,0.150000*%
%ADD11C,0.200000*%
%ADD12C,0.160000*%
%ADD13C,0.190000*%
%ADD14C,0.305000*%
%ADD15C,0.505000*%
G04 APERTURE END LIST*
D10*
X24311724Y-14616507D02*
X20688276Y-14616507D01*
X20570719Y-14578310D02*
X19774240Y-13999635D01*
X19697434Y-13884980D02*
X19625666Y-13589130D01*
X19472054Y-13359821D02*
G75*
G02*
X19625666Y-13589130I-235114J-323607D01*
G01*
X19472054Y-13359821D02*
X18277506Y-12491931D01*
X18195278Y-12320853D02*
X18221898Y-11747403D01*
X18028348Y-11385899D02*
G75*
G02*
X18221903Y-11747314I-206015J-342867D01*
G01*
X18028348Y-11385899D02*
X16485447Y-10458830D01*
X16147522Y-10424073D02*
G75*
G02*
X16485447Y-10458830I131909J-377624D01*
G01*
X16147522Y-10424073D02*
X15742019Y-10565721D01*
X15588391Y-10556667D02*
X14195344Y-9877233D01*
X13843321Y-9877883D02*
G75*
G02*
X14195344Y-9877233I176675J-358868D01*
G01*
X13843321Y-9877883D02*
X12537376Y-10520815D01*
X12410877Y-10537707D02*
X10842226Y-10232792D01*
X10503842Y-10323245D02*
G75*
G02*
X10842226Y-10232792I262061J-302198D01*
G01*
X10503841Y-10323245D02*
X10200243Y-10586520D01*
X10048307Y-10634325D02*
X8517200Y-10473400D01*
X8077580Y-10829397D02*
G75*
G02*
X8517200Y-10473400I397809J-41811D01*
G01*
X8077580Y-10829397D02*
X7544485Y-15901458D01*
X7900482Y-16341079D02*
G75*
G02*
X7544485Y-15901458I41811J397809D01*
G01*
X7900482Y-16341079D02*
X9534741Y-16512846D01*
X9629352Y-16548484D02*
X12396872Y-18506595D01*
X12398912Y-18508059D02*
X13781501Y-19512568D01*
X13822720Y-19552756D02*
X15160413Y-21299192D01*
X15184347Y-21339460D02*
X15847022Y-22827852D01*
X16375134Y-23030576D02*
G75*
G02*
X15847022Y-22827852I-162695J365418D01*
G01*
X16375134Y-23030576D02*
X18314104Y-22167291D01*
X18395451Y-22150000D02*
X26604549Y-22150000D01*
X26685896Y-22167291D02*
X28624865Y-23030576D01*
X29152978Y-22827852D02*
G75*
G02*
X28624865Y-23030576I-365418J162695D01*
G01*
X29152978Y-22827852D02*
X29815653Y-21339460D01*
X29839587Y-21299192D02*
X31177280Y-19552756D01*
X31218499Y-19512568D02*
X32601087Y-18508059D01*
X32603128Y-18506595D02*
X35370648Y-16548484D01*
X35465259Y-16512846D02*
X37099518Y-16341079D01*
X37455515Y-15901458D02*
X36922420Y-10829397D01*
X36482800Y-10473399D02*
G75*
G02*
X36922420Y-10829397I41811J-397809D01*
G01*
X36482800Y-10473400D02*
X34951693Y-10634325D01*
X34799757Y-10586520D02*
X34496159Y-10323245D01*
X34157774Y-10232792D02*
G75*
G02*
X34496159Y-10323245I76324J-392651D01*
G01*
X34157774Y-10232792D02*
X32589123Y-10537707D01*
X32462624Y-10520815D02*
X31156679Y-9877883D01*
X30804656Y-9877233D02*
G75*
G02*
X31156679Y-9877883I175348J-359518D01*
G01*
X30804656Y-9877233D02*
X29411609Y-10556667D01*
X29257980Y-10565721D02*
X28852477Y-10424073D01*
X28514553Y-10458830D02*
G75*
G02*
X28852477Y-10424073I206015J-342867D01*
G01*
X28514553Y-10458830D02*
X26971652Y-11385899D01*
X26778102Y-11747403D02*
X26804722Y-12320853D01*
X26722494Y-12491931D02*
X25527946Y-13359821D01*
X25374334Y-13589130D02*
G75*
G02*
X25527946Y-13359821I388726J-94298D01*
G01*
X25374334Y-13589130D02*
X25302566Y-13884980D01*
X25225760Y-13999635D02*
X24429281Y-14578310D01*
X20688276Y-14616507D02*
G75*
G02*
X20570719Y-14578310I0J200000D01*
G01*
X19774240Y-13999635D02*
G75*
G02*
X19697434Y-13884980I117557J161803D01*
G01*
X18277506Y-12491931D02*
G75*
G02*
X18195278Y-12320853I117557J161803D01*
G01*
X15742019Y-10565721D02*
G75*
G02*
X15588391Y-10556667I-65955J188812D01*
G01*
X12537376Y-10520815D02*
G75*
G02*
X12410877Y-10537707I-88337J179434D01*
G01*
X10200243Y-10586520D02*
G75*
G02*
X10048307Y-10634325I-131031J151099D01*
G01*
X9534741Y-16512846D02*
G75*
G02*
X9629352Y-16548484I-20906J-198904D01*
G01*
X12396872Y-18506595D02*
G75*
G02*
X12398912Y-18508059I-115516J-163267D01*
G01*
X13781501Y-19512568D02*
G75*
G02*
X13822720Y-19552756I-117557J-161803D01*
G01*
X15160413Y-21299192D02*
G75*
G02*
X15184347Y-21339460I-158776J-121615D01*
G01*
X18314104Y-22167291D02*
G75*
G02*
X18395451Y-22150000I81347J-182709D01*
G01*
X26604549Y-22150000D02*
G75*
G02*
X26685896Y-22167291I0J-200000D01*
G01*
X29815653Y-21339460D02*
G75*
G02*
X29839587Y-21299192I182709J-81347D01*
G01*
X31177280Y-19552756D02*
G75*
G02*
X31218499Y-19512568I158776J-121615D01*
G01*
X32601087Y-18508059D02*
G75*
G02*
X32603128Y-18506595I117557J-161803D01*
G01*
X35370648Y-16548484D02*
G75*
G02*
X35465259Y-16512846I115516J-163267D01*
G01*
X34951693Y-10634325D02*
G75*
G02*
X34799757Y-10586520I-20906J198904D01*
G01*
X32589123Y-10537707D02*
G75*
G02*
X32462624Y-10520815I-38162J196325D01*
G01*
X29411609Y-10556667D02*
G75*
G02*
X29257980Y-10565721I-87674J179759D01*
G01*
X26804722Y-12320853D02*
G75*
G02*
X26722494Y-12491931I-199785J-9274D01*
G01*
X25302566Y-13884980D02*
G75*
G02*
X25225760Y-13999635I-194363J47149D01*
G01*
X24429281Y-14578310D02*
G75*
G02*
X24311724Y-14616507I-117557J161803D01*
G01*
X37455515Y-15901458D02*
G75*
G02*
X37099518Y-16341079I-397809J-41811D01*
G01*
X26778097Y-11747314D02*
G75*
G02*
X26971652Y-11385899I399570J18549D01*
G01*
D11*
D12*
X8295119Y-15571916D02*
X8455119Y-15731916D01*
X8455119Y-15571916D02*
X8295119Y-15731916D01*
X8472818Y-13881229D02*
X8632818Y-14041229D01*
X8632818Y-13881229D02*
X8472818Y-14041229D01*
X8650516Y-12190542D02*
X8810516Y-12350542D01*
X8810516Y-12190542D02*
X8650516Y-12350542D01*
X10169349Y-15299220D02*
X10329349Y-15459220D01*
X10329349Y-15299220D02*
X10169349Y-15459220D01*
X10493724Y-13630454D02*
X10653724Y-13790454D01*
X10653724Y-13630454D02*
X10493724Y-13790454D01*
X10818099Y-11961688D02*
X10978099Y-12121688D01*
X10978099Y-11961688D02*
X10818099Y-12121688D01*
X12210675Y-14614853D02*
X12370675Y-14774853D01*
X12370675Y-14614853D02*
X12210675Y-14774853D01*
X12955906Y-13086903D02*
X13115906Y-13246903D01*
X13115906Y-13086903D02*
X12955906Y-13246903D01*
X13071494Y-18066331D02*
X13231494Y-18226331D01*
X13231494Y-18066331D02*
X13071494Y-18226331D01*
X13701137Y-11558953D02*
X13861137Y-11718953D01*
X13861137Y-11558953D02*
X13701137Y-11718953D01*
X14088142Y-15012114D02*
X14248142Y-15172114D01*
X14248142Y-15012114D02*
X14088142Y-15172114D01*
X14709244Y-19442307D02*
X14869244Y-19602307D01*
X14869244Y-19442307D02*
X14709244Y-19602307D01*
X14963707Y-13554930D02*
X15123707Y-13714930D01*
X15123707Y-13554930D02*
X14963707Y-13714930D01*
X15223520Y-16635494D02*
X15383520Y-16795494D01*
X15383520Y-16635494D02*
X15223520Y-16795494D01*
X15839271Y-12097746D02*
X15999271Y-12257746D01*
X15999271Y-12097746D02*
X15839271Y-12257746D01*
X16222754Y-15260165D02*
X16382754Y-15420165D01*
X16382754Y-15260165D02*
X16222754Y-15420165D01*
X16479903Y-17968574D02*
X16639903Y-18128574D01*
X16639903Y-17968574D02*
X16479903Y-18128574D01*
X16772697Y-21933394D02*
X16932697Y-22093394D01*
X16932697Y-21933394D02*
X16772697Y-22093394D01*
X17221989Y-13884837D02*
X17381989Y-14044837D01*
X17381989Y-13884837D02*
X17221989Y-14044837D01*
X17479138Y-16593245D02*
X17639138Y-16753245D01*
X17639138Y-16593245D02*
X17479138Y-16753245D01*
X18435751Y-18338923D02*
X18595751Y-18498923D01*
X18595751Y-18338923D02*
X18435751Y-18498923D01*
X18478373Y-15217916D02*
X18638373Y-15377916D01*
X18638373Y-15217916D02*
X18478373Y-15377916D01*
X25552610Y-15805701D02*
X25712610Y-15965701D01*
X25712610Y-15805701D02*
X25552610Y-15965701D01*
X25595232Y-18926708D02*
X25755232Y-19086708D01*
X25755232Y-18926708D02*
X25595232Y-19086708D01*
X26551845Y-17181030D02*
X26711845Y-17341030D01*
X26711845Y-17181030D02*
X26551845Y-17341030D01*
X26808993Y-14472622D02*
X26968993Y-14632622D01*
X26968993Y-14472622D02*
X26808993Y-14632622D01*
X27153758Y-21526657D02*
X27313758Y-21686657D01*
X27313758Y-21526657D02*
X27153758Y-21686657D01*
X27551080Y-18556359D02*
X27711080Y-18716359D01*
X27711080Y-18556359D02*
X27551080Y-18716359D01*
X27808228Y-15847951D02*
X27968228Y-16007951D01*
X27968228Y-15847951D02*
X27808228Y-16007951D01*
X28143561Y-12612784D02*
X28303561Y-12772784D01*
X28303561Y-12612784D02*
X28143561Y-12772784D01*
X28807463Y-17223280D02*
X28967463Y-17383280D01*
X28967463Y-17223280D02*
X28807463Y-17383280D01*
X29019126Y-14069968D02*
X29179126Y-14229968D01*
X29179126Y-14069968D02*
X29019126Y-14229968D01*
X29501435Y-20219453D02*
X29661435Y-20379453D01*
X29661435Y-20219453D02*
X29501435Y-20379453D01*
X29894690Y-15527152D02*
X30054690Y-15687152D01*
X30054690Y-15527152D02*
X29894690Y-15687152D01*
X30240069Y-11997324D02*
X30400069Y-12157324D01*
X30400069Y-11997324D02*
X30240069Y-12157324D01*
X30959488Y-18654117D02*
X31119488Y-18814117D01*
X31119488Y-18654117D02*
X30959488Y-18814117D01*
X30985300Y-13525274D02*
X31145300Y-13685274D01*
X31145300Y-13525274D02*
X30985300Y-13685274D01*
X31730531Y-15053224D02*
X31890531Y-15213224D01*
X31890531Y-15053224D02*
X31730531Y-15213224D01*
X33040273Y-12152497D02*
X33200273Y-12312497D01*
X33200273Y-12152497D02*
X33040273Y-12312497D01*
X33364649Y-13821263D02*
X33524649Y-13981263D01*
X33524649Y-13821263D02*
X33364649Y-13981263D01*
X33689024Y-15490029D02*
X33849024Y-15650029D01*
X33849024Y-15490029D02*
X33689024Y-15650029D01*
X35194962Y-12295070D02*
X35354962Y-12455070D01*
X35354962Y-12295070D02*
X35194962Y-12455070D01*
X35372660Y-13985758D02*
X35532660Y-14145758D01*
X35532660Y-13985758D02*
X35372660Y-14145758D01*
X35550359Y-15676445D02*
X35710359Y-15836445D01*
X35710359Y-15676445D02*
X35550359Y-15836445D01*
D13*
X8474226Y-15134511D02*
G75*
G02*
X8284225Y-15134511I-95000J0D01*
G01*
X8284225Y-15134511D02*
G75*
G02*
X8474226Y-15134511I95000J0D01*
G01*
X8651924Y-13443824D02*
G75*
G02*
X8461924Y-13443824I-95000J0D01*
G01*
X8461924Y-13443824D02*
G75*
G02*
X8651924Y-13443824I95000J0D01*
G01*
X8829622Y-11753137D02*
G75*
G02*
X8639622Y-11753137I-95000J0D01*
G01*
X8639622Y-11753137D02*
G75*
G02*
X8829622Y-11753137I95000J0D01*
G01*
X9568200Y-15249493D02*
G75*
G02*
X9378200Y-15249493I-95000J0D01*
G01*
X9378200Y-15249493D02*
G75*
G02*
X9568200Y-15249493I95000J0D01*
G01*
X9745898Y-13558805D02*
G75*
G02*
X9555898Y-13558805I-95000J0D01*
G01*
X9555898Y-13558805D02*
G75*
G02*
X9745898Y-13558805I95000J0D01*
G01*
X9923596Y-11868118D02*
G75*
G02*
X9733596Y-11868118I-95000J0D01*
G01*
X9733596Y-11868118D02*
G75*
G02*
X9923596Y-11868118I95000J0D01*
G01*
X10393534Y-14864142D02*
G75*
G02*
X10203534Y-14864142I-95000J0D01*
G01*
X10203534Y-14864142D02*
G75*
G02*
X10393534Y-14864142I95000J0D01*
G01*
X10717909Y-13195375D02*
G75*
G02*
X10527909Y-13195375I-95000J0D01*
G01*
X10527909Y-13195375D02*
G75*
G02*
X10717909Y-13195375I95000J0D01*
G01*
X11042285Y-11526609D02*
G75*
G02*
X10852285Y-11526609I-95000J0D01*
G01*
X10852285Y-11526609D02*
G75*
G02*
X11042285Y-11526609I95000J0D01*
G01*
X11473324Y-15074031D02*
G75*
G02*
X11283324Y-15074031I-95000J0D01*
G01*
X11283324Y-15074031D02*
G75*
G02*
X11473324Y-15074031I95000J0D01*
G01*
X11797699Y-13405265D02*
G75*
G02*
X11607699Y-13405265I-95000J0D01*
G01*
X11607699Y-13405265D02*
G75*
G02*
X11797699Y-13405265I95000J0D01*
G01*
X12122075Y-11736499D02*
G75*
G02*
X11932075Y-11736499I-95000J0D01*
G01*
X11932075Y-11736499D02*
G75*
G02*
X12122075Y-11736499I95000J0D01*
G01*
X12566496Y-14210056D02*
G75*
G02*
X12376496Y-14210056I-95000J0D01*
G01*
X12376496Y-14210056D02*
G75*
G02*
X12566496Y-14210056I95000J0D01*
G01*
X13311727Y-12682106D02*
G75*
G02*
X13121727Y-12682106I-95000J0D01*
G01*
X13121727Y-12682106D02*
G75*
G02*
X13311727Y-12682106I95000J0D01*
G01*
X13508753Y-17700298D02*
G75*
G02*
X13318753Y-17700298I-95000J0D01*
G01*
X13318753Y-17700298D02*
G75*
G02*
X13508753Y-17700298I95000J0D01*
G01*
X13555170Y-14692264D02*
G75*
G02*
X13365170Y-14692264I-95000J0D01*
G01*
X13365170Y-14692264D02*
G75*
G02*
X13555170Y-14692264I95000J0D01*
G01*
X14056958Y-11154156D02*
G75*
G02*
X13866958Y-11154156I-95000J0D01*
G01*
X13866958Y-11154156D02*
G75*
G02*
X14056958Y-11154156I95000J0D01*
G01*
X14300401Y-13164314D02*
G75*
G02*
X14110401Y-13164314I-95000J0D01*
G01*
X14110401Y-13164314D02*
G75*
G02*
X14300401Y-13164314I95000J0D01*
G01*
X14398672Y-18346862D02*
G75*
G02*
X14208672Y-18346862I-95000J0D01*
G01*
X14208672Y-18346862D02*
G75*
G02*
X14398672Y-18346862I95000J0D01*
G01*
X14485528Y-14624921D02*
G75*
G02*
X14295528Y-14624921I-95000J0D01*
G01*
X14295528Y-14624921D02*
G75*
G02*
X14485528Y-14624921I95000J0D01*
G01*
X15045632Y-11636364D02*
G75*
G02*
X14855632Y-11636364I-95000J0D01*
G01*
X14855632Y-11636364D02*
G75*
G02*
X15045632Y-11636364I95000J0D01*
G01*
X15253008Y-19159349D02*
G75*
G02*
X15063008Y-19159349I-95000J0D01*
G01*
X15063008Y-19159349D02*
G75*
G02*
X15253008Y-19159349I95000J0D01*
G01*
X15361093Y-13167737D02*
G75*
G02*
X15171093Y-13167737I-95000J0D01*
G01*
X15171093Y-13167737D02*
G75*
G02*
X15361093Y-13167737I95000J0D01*
G01*
X15428412Y-15191463D02*
G75*
G02*
X15238412Y-15191463I-95000J0D01*
G01*
X15238412Y-15191463D02*
G75*
G02*
X15428412Y-15191463I95000J0D01*
G01*
X15660778Y-16269461D02*
G75*
G02*
X15470778Y-16269461I-95000J0D01*
G01*
X15470778Y-16269461D02*
G75*
G02*
X15660778Y-16269461I95000J0D01*
G01*
X15945261Y-20014210D02*
G75*
G02*
X15755261Y-20014210I-95000J0D01*
G01*
X15755261Y-20014210D02*
G75*
G02*
X15945261Y-20014210I95000J0D01*
G01*
X16236658Y-11710553D02*
G75*
G02*
X16046658Y-11710553I-95000J0D01*
G01*
X16046658Y-11710553D02*
G75*
G02*
X16236658Y-11710553I95000J0D01*
G01*
X16303977Y-13734279D02*
G75*
G02*
X16113977Y-13734279I-95000J0D01*
G01*
X16113977Y-13734279D02*
G75*
G02*
X16303977Y-13734279I95000J0D01*
G01*
X16550697Y-16916025D02*
G75*
G02*
X16360697Y-16916025I-95000J0D01*
G01*
X16360697Y-16916025D02*
G75*
G02*
X16550697Y-16916025I95000J0D01*
G01*
X16660013Y-14894132D02*
G75*
G02*
X16470013Y-14894132I-95000J0D01*
G01*
X16470013Y-14894132D02*
G75*
G02*
X16660013Y-14894132I95000J0D01*
G01*
X16692550Y-21563255D02*
G75*
G02*
X16502550Y-21563255I-95000J0D01*
G01*
X16502550Y-21563255D02*
G75*
G02*
X16692550Y-21563255I95000J0D01*
G01*
X16917162Y-17602541D02*
G75*
G02*
X16727162Y-17602541I-95000J0D01*
G01*
X16727162Y-17602541D02*
G75*
G02*
X16917162Y-17602541I95000J0D01*
G01*
X17179542Y-12277094D02*
G75*
G02*
X16989542Y-12277094I-95000J0D01*
G01*
X16989542Y-12277094D02*
G75*
G02*
X17179542Y-12277094I95000J0D01*
G01*
X17549932Y-15540696D02*
G75*
G02*
X17359932Y-15540696I-95000J0D01*
G01*
X17359932Y-15540696D02*
G75*
G02*
X17549932Y-15540696I95000J0D01*
G01*
X17659248Y-13518804D02*
G75*
G02*
X17469248Y-13518804I-95000J0D01*
G01*
X17469248Y-13518804D02*
G75*
G02*
X17659248Y-13518804I95000J0D01*
G01*
X17697450Y-21115844D02*
G75*
G02*
X17507450Y-21115844I-95000J0D01*
G01*
X17507450Y-21115844D02*
G75*
G02*
X17697450Y-21115844I95000J0D01*
G01*
X17807080Y-18249104D02*
G75*
G02*
X17617080Y-18249104I-95000J0D01*
G01*
X17617080Y-18249104D02*
G75*
G02*
X17807080Y-18249104I95000J0D01*
G01*
X17916397Y-16227212D02*
G75*
G02*
X17726397Y-16227212I-95000J0D01*
G01*
X17726397Y-16227212D02*
G75*
G02*
X17916397Y-16227212I95000J0D01*
G01*
X18549167Y-14165367D02*
G75*
G02*
X18359167Y-14165367I-95000J0D01*
G01*
X18359167Y-14165367D02*
G75*
G02*
X18549167Y-14165367I95000J0D01*
G01*
X18806315Y-16873776D02*
G75*
G02*
X18616315Y-16873776I-95000J0D01*
G01*
X18616315Y-16873776D02*
G75*
G02*
X18806315Y-16873776I95000J0D01*
G01*
X18873010Y-17972890D02*
G75*
G02*
X18683010Y-17972890I-95000J0D01*
G01*
X18683010Y-17972890D02*
G75*
G02*
X18873010Y-17972890I95000J0D01*
G01*
X18915632Y-14851883D02*
G75*
G02*
X18725632Y-14851883I-95000J0D01*
G01*
X18725632Y-14851883D02*
G75*
G02*
X18915632Y-14851883I95000J0D01*
G01*
X19762929Y-18619453D02*
G75*
G02*
X19572929Y-18619453I-95000J0D01*
G01*
X19572929Y-18619453D02*
G75*
G02*
X19762929Y-18619453I95000J0D01*
G01*
X19805550Y-15498447D02*
G75*
G02*
X19615550Y-15498447I-95000J0D01*
G01*
X19615550Y-15498447D02*
G75*
G02*
X19805550Y-15498447I95000J0D01*
G01*
X25384450Y-15498447D02*
G75*
G02*
X25194450Y-15498447I-95000J0D01*
G01*
X25194450Y-15498447D02*
G75*
G02*
X25384450Y-15498447I95000J0D01*
G01*
X25427071Y-18619453D02*
G75*
G02*
X25237071Y-18619453I-95000J0D01*
G01*
X25237071Y-18619453D02*
G75*
G02*
X25427071Y-18619453I95000J0D01*
G01*
X26274368Y-14851883D02*
G75*
G02*
X26084368Y-14851883I-95000J0D01*
G01*
X26084368Y-14851883D02*
G75*
G02*
X26274368Y-14851883I95000J0D01*
G01*
X26316990Y-17972890D02*
G75*
G02*
X26126990Y-17972890I-95000J0D01*
G01*
X26126990Y-17972890D02*
G75*
G02*
X26316990Y-17972890I95000J0D01*
G01*
X26383685Y-16873776D02*
G75*
G02*
X26193685Y-16873776I-95000J0D01*
G01*
X26193685Y-16873776D02*
G75*
G02*
X26383685Y-16873776I95000J0D01*
G01*
X26640833Y-14165367D02*
G75*
G02*
X26450833Y-14165367I-95000J0D01*
G01*
X26450833Y-14165367D02*
G75*
G02*
X26640833Y-14165367I95000J0D01*
G01*
X27273603Y-16227212D02*
G75*
G02*
X27083603Y-16227212I-95000J0D01*
G01*
X27083603Y-16227212D02*
G75*
G02*
X27273603Y-16227212I95000J0D01*
G01*
X27382919Y-18249104D02*
G75*
G02*
X27192919Y-18249104I-95000J0D01*
G01*
X27192919Y-18249104D02*
G75*
G02*
X27382919Y-18249104I95000J0D01*
G01*
X27492550Y-21115844D02*
G75*
G02*
X27302550Y-21115844I-95000J0D01*
G01*
X27302550Y-21115844D02*
G75*
G02*
X27492550Y-21115844I95000J0D01*
G01*
X27530752Y-13518804D02*
G75*
G02*
X27340752Y-13518804I-95000J0D01*
G01*
X27340752Y-13518804D02*
G75*
G02*
X27530752Y-13518804I95000J0D01*
G01*
X27640068Y-15540696D02*
G75*
G02*
X27450068Y-15540696I-95000J0D01*
G01*
X27450068Y-15540696D02*
G75*
G02*
X27640068Y-15540696I95000J0D01*
G01*
X28010458Y-12277094D02*
G75*
G02*
X27820458Y-12277094I-95000J0D01*
G01*
X27820458Y-12277094D02*
G75*
G02*
X28010458Y-12277094I95000J0D01*
G01*
X28272838Y-17602541D02*
G75*
G02*
X28082838Y-17602541I-95000J0D01*
G01*
X28082838Y-17602541D02*
G75*
G02*
X28272838Y-17602541I95000J0D01*
G01*
X28497450Y-21563255D02*
G75*
G02*
X28307450Y-21563255I-95000J0D01*
G01*
X28307450Y-21563255D02*
G75*
G02*
X28497450Y-21563255I95000J0D01*
G01*
X28529987Y-14894132D02*
G75*
G02*
X28339987Y-14894132I-95000J0D01*
G01*
X28339987Y-14894132D02*
G75*
G02*
X28529987Y-14894132I95000J0D01*
G01*
X28639303Y-16916025D02*
G75*
G02*
X28449303Y-16916025I-95000J0D01*
G01*
X28449303Y-16916025D02*
G75*
G02*
X28639303Y-16916025I95000J0D01*
G01*
X28886023Y-13734279D02*
G75*
G02*
X28696023Y-13734279I-95000J0D01*
G01*
X28696023Y-13734279D02*
G75*
G02*
X28886023Y-13734279I95000J0D01*
G01*
X28953342Y-11710553D02*
G75*
G02*
X28763342Y-11710553I-95000J0D01*
G01*
X28763342Y-11710553D02*
G75*
G02*
X28953342Y-11710553I95000J0D01*
G01*
X29244739Y-20014210D02*
G75*
G02*
X29054739Y-20014210I-95000J0D01*
G01*
X29054739Y-20014210D02*
G75*
G02*
X29244739Y-20014210I95000J0D01*
G01*
X29529222Y-16269461D02*
G75*
G02*
X29339222Y-16269461I-95000J0D01*
G01*
X29339222Y-16269461D02*
G75*
G02*
X29529222Y-16269461I95000J0D01*
G01*
X29761587Y-15191463D02*
G75*
G02*
X29571587Y-15191463I-95000J0D01*
G01*
X29571587Y-15191463D02*
G75*
G02*
X29761587Y-15191463I95000J0D01*
G01*
X29828907Y-13167737D02*
G75*
G02*
X29638907Y-13167737I-95000J0D01*
G01*
X29638907Y-13167737D02*
G75*
G02*
X29828907Y-13167737I95000J0D01*
G01*
X29936992Y-19159349D02*
G75*
G02*
X29746992Y-19159349I-95000J0D01*
G01*
X29746992Y-19159349D02*
G75*
G02*
X29936992Y-19159349I95000J0D01*
G01*
X30144368Y-11636364D02*
G75*
G02*
X29954368Y-11636364I-95000J0D01*
G01*
X29954368Y-11636364D02*
G75*
G02*
X30144368Y-11636364I95000J0D01*
G01*
X30704471Y-14624921D02*
G75*
G02*
X30514471Y-14624921I-95000J0D01*
G01*
X30514471Y-14624921D02*
G75*
G02*
X30704471Y-14624921I95000J0D01*
G01*
X30791328Y-18346862D02*
G75*
G02*
X30601328Y-18346862I-95000J0D01*
G01*
X30601328Y-18346862D02*
G75*
G02*
X30791328Y-18346862I95000J0D01*
G01*
X30889599Y-13164314D02*
G75*
G02*
X30699599Y-13164314I-95000J0D01*
G01*
X30699599Y-13164314D02*
G75*
G02*
X30889599Y-13164314I95000J0D01*
G01*
X31133042Y-11154156D02*
G75*
G02*
X30943042Y-11154156I-95000J0D01*
G01*
X30943042Y-11154156D02*
G75*
G02*
X31133042Y-11154156I95000J0D01*
G01*
X31634830Y-14692264D02*
G75*
G02*
X31444830Y-14692264I-95000J0D01*
G01*
X31444830Y-14692264D02*
G75*
G02*
X31634830Y-14692264I95000J0D01*
G01*
X31681247Y-17700298D02*
G75*
G02*
X31491247Y-17700298I-95000J0D01*
G01*
X31491247Y-17700298D02*
G75*
G02*
X31681247Y-17700298I95000J0D01*
G01*
X31878273Y-12682106D02*
G75*
G02*
X31688273Y-12682106I-95000J0D01*
G01*
X31688273Y-12682106D02*
G75*
G02*
X31878273Y-12682106I95000J0D01*
G01*
X32623504Y-14210056D02*
G75*
G02*
X32433504Y-14210056I-95000J0D01*
G01*
X32433504Y-14210056D02*
G75*
G02*
X32623504Y-14210056I95000J0D01*
G01*
X33067925Y-11736499D02*
G75*
G02*
X32877925Y-11736499I-95000J0D01*
G01*
X32877925Y-11736499D02*
G75*
G02*
X33067925Y-11736499I95000J0D01*
G01*
X33392301Y-13405265D02*
G75*
G02*
X33202301Y-13405265I-95000J0D01*
G01*
X33202301Y-13405265D02*
G75*
G02*
X33392301Y-13405265I95000J0D01*
G01*
X33716676Y-15074031D02*
G75*
G02*
X33526676Y-15074031I-95000J0D01*
G01*
X33526676Y-15074031D02*
G75*
G02*
X33716676Y-15074031I95000J0D01*
G01*
X34147715Y-11526609D02*
G75*
G02*
X33957715Y-11526609I-95000J0D01*
G01*
X33957715Y-11526609D02*
G75*
G02*
X34147715Y-11526609I95000J0D01*
G01*
X34472091Y-13195375D02*
G75*
G02*
X34282091Y-13195375I-95000J0D01*
G01*
X34282091Y-13195375D02*
G75*
G02*
X34472091Y-13195375I95000J0D01*
G01*
X34796466Y-14864142D02*
G75*
G02*
X34606466Y-14864142I-95000J0D01*
G01*
X34606466Y-14864142D02*
G75*
G02*
X34796466Y-14864142I95000J0D01*
G01*
X35266404Y-11868118D02*
G75*
G02*
X35076404Y-11868118I-95000J0D01*
G01*
X35076404Y-11868118D02*
G75*
G02*
X35266404Y-11868118I95000J0D01*
G01*
X35444102Y-13558805D02*
G75*
G02*
X35254102Y-13558805I-95000J0D01*
G01*
X35254102Y-13558805D02*
G75*
G02*
X35444102Y-13558805I95000J0D01*
G01*
X35621800Y-15249493D02*
G75*
G02*
X35431800Y-15249493I-95000J0D01*
G01*
X35431800Y-15249493D02*
G75*
G02*
X35621800Y-15249493I95000J0D01*
G01*
X36360378Y-11753137D02*
G75*
G02*
X36170378Y-11753137I-95000J0D01*
G01*
X36170378Y-11753137D02*
G75*
G02*
X36360378Y-11753137I95000J0D01*
G01*
X36538076Y-13443824D02*
G75*
G02*
X36348076Y-13443824I-95000J0D01*
G01*
X36348076Y-13443824D02*
G75*
G02*
X36538076Y-13443824I95000J0D01*
G01*
X36715774Y-15134511D02*
G75*
G02*
X36525774Y-15134511I-95000J0D01*
G01*
X36525774Y-15134511D02*
G75*
G02*
X36715774Y-15134511I95000J0D01*
G01*
D14*
X8987884Y-14452734D02*
X8987884Y-14757734D01*
X8835384Y-14605234D02*
X9140384Y-14605234D01*
X9165583Y-12762047D02*
X9165583Y-13067047D01*
X9013083Y-12914547D02*
X9318083Y-12914547D01*
X9343281Y-11071360D02*
X9343281Y-11376360D01*
X9190781Y-11223860D02*
X9495781Y-11223860D01*
X9463194Y-14713848D02*
X9463194Y-15018848D01*
X9310694Y-14866348D02*
X9615694Y-14866348D01*
X9640893Y-13023161D02*
X9640893Y-13328161D01*
X9488393Y-13175661D02*
X9793393Y-13175661D01*
X9818591Y-11332473D02*
X9818591Y-11637473D01*
X9666091Y-11484973D02*
X9971091Y-11484973D01*
X10951006Y-14237427D02*
X10951006Y-14542427D01*
X10798506Y-14389927D02*
X11103506Y-14389927D01*
X11275382Y-12568660D02*
X11275382Y-12873660D01*
X11122882Y-12721160D02*
X11427882Y-12721160D01*
X11401750Y-14538973D02*
X11401750Y-14843973D01*
X11249250Y-14691473D02*
X11554250Y-14691473D01*
X11599757Y-10899894D02*
X11599757Y-11204894D01*
X11447257Y-11052394D02*
X11752257Y-11052394D01*
X11726125Y-12870206D02*
X11726125Y-13175206D01*
X11573625Y-13022706D02*
X11878625Y-13022706D01*
X12050501Y-11201440D02*
X12050501Y-11506440D01*
X11898001Y-11353940D02*
X12203001Y-11353940D01*
X13224472Y-13768371D02*
X13224472Y-14073371D01*
X13071972Y-13920871D02*
X13376972Y-13920871D01*
X13581811Y-14176303D02*
X13581811Y-14481303D01*
X13429311Y-14328803D02*
X13734311Y-14328803D01*
X13969703Y-12240421D02*
X13969703Y-12545421D01*
X13817203Y-12392921D02*
X14122203Y-12392921D01*
X14205506Y-17393760D02*
X14205506Y-17698760D01*
X14053006Y-17546260D02*
X14358006Y-17546260D01*
X14327042Y-12648354D02*
X14327042Y-12953354D01*
X14174542Y-12800854D02*
X14479542Y-12800854D01*
X14486579Y-17857546D02*
X14486579Y-18162546D01*
X14334079Y-18010046D02*
X14639079Y-18010046D01*
X14714934Y-10712471D02*
X14714934Y-11017471D01*
X14562434Y-10864971D02*
X14867434Y-10864971D01*
X15072273Y-11120404D02*
X15072273Y-11425404D01*
X14919773Y-11272904D02*
X15224773Y-11272904D01*
X15165843Y-14249964D02*
X15165843Y-14554964D01*
X15013343Y-14402464D02*
X15318343Y-14402464D01*
X15486268Y-14687488D02*
X15486268Y-14992488D01*
X15333768Y-14839988D02*
X15638768Y-14839988D01*
X15962651Y-19062981D02*
X15962651Y-19367981D01*
X15810151Y-19215481D02*
X16115151Y-19215481D01*
X16041408Y-12792779D02*
X16041408Y-13097779D01*
X15888908Y-12945279D02*
X16193908Y-12945279D01*
X16114110Y-19583711D02*
X16114110Y-19888711D01*
X15961610Y-19736211D02*
X16266610Y-19736211D01*
X16357531Y-15962923D02*
X16357531Y-16267923D01*
X16205031Y-16115423D02*
X16510031Y-16115423D01*
X16361833Y-13230303D02*
X16361833Y-13535303D01*
X16209333Y-13382803D02*
X16514333Y-13382803D01*
X16638604Y-16426709D02*
X16638604Y-16731709D01*
X16486104Y-16579209D02*
X16791104Y-16579209D01*
X16860025Y-20648058D02*
X16860025Y-20953058D01*
X16707525Y-20800558D02*
X17012525Y-20800558D01*
X16916972Y-11335595D02*
X16916972Y-11640595D01*
X16764472Y-11488095D02*
X17069472Y-11488095D01*
X17237398Y-11773119D02*
X17237398Y-12078119D01*
X17084898Y-11925619D02*
X17389898Y-11925619D01*
X17356766Y-14587594D02*
X17356766Y-14892594D01*
X17204266Y-14740094D02*
X17509266Y-14740094D01*
X17402213Y-20636534D02*
X17402213Y-20941534D01*
X17249713Y-20789034D02*
X17554713Y-20789034D01*
X17613914Y-17296003D02*
X17613914Y-17601003D01*
X17461414Y-17448503D02*
X17766414Y-17448503D01*
X17637839Y-15051381D02*
X17637839Y-15356381D01*
X17485339Y-15203881D02*
X17790339Y-15203881D01*
X17894988Y-17759789D02*
X17894988Y-18064789D01*
X17742488Y-17912289D02*
X18047488Y-17912289D01*
X18356001Y-13212265D02*
X18356001Y-13517265D01*
X18203501Y-13364765D02*
X18508501Y-13364765D01*
X18613149Y-15920674D02*
X18613149Y-16225674D01*
X18460649Y-16073174D02*
X18765649Y-16073174D01*
X18637074Y-13676052D02*
X18637074Y-13981052D01*
X18484574Y-13828552D02*
X18789574Y-13828552D01*
X18894223Y-16384460D02*
X18894223Y-16689460D01*
X18741723Y-16536960D02*
X19046723Y-16536960D01*
X19569763Y-17666352D02*
X19569763Y-17971352D01*
X19417263Y-17818852D02*
X19722263Y-17818852D01*
X19612384Y-14545345D02*
X19612384Y-14850345D01*
X19459884Y-14697845D02*
X19764884Y-14697845D01*
X19850836Y-18130138D02*
X19850836Y-18435138D01*
X19698336Y-18282638D02*
X20003336Y-18282638D01*
X19893458Y-15009131D02*
X19893458Y-15314131D01*
X19740958Y-15161631D02*
X20045958Y-15161631D01*
X25387616Y-14545345D02*
X25387616Y-14850345D01*
X25235116Y-14697845D02*
X25540116Y-14697845D01*
X25430237Y-17666352D02*
X25430237Y-17971352D01*
X25277737Y-17818852D02*
X25582737Y-17818852D01*
X25915559Y-14421346D02*
X25915559Y-14726346D01*
X25763059Y-14573846D02*
X26068059Y-14573846D01*
X25958181Y-17542352D02*
X25958181Y-17847352D01*
X25805681Y-17694852D02*
X26110681Y-17694852D01*
X26386851Y-15920674D02*
X26386851Y-16225674D01*
X26234351Y-16073174D02*
X26539351Y-16073174D01*
X26643999Y-13212265D02*
X26643999Y-13517265D01*
X26491499Y-13364765D02*
X26796499Y-13364765D01*
X26914794Y-15796674D02*
X26914794Y-16101674D01*
X26762294Y-15949174D02*
X27067294Y-15949174D01*
X27171943Y-13088266D02*
X27171943Y-13393266D01*
X27019443Y-13240766D02*
X27324443Y-13240766D01*
X27386085Y-17296003D02*
X27386085Y-17601003D01*
X27233585Y-17448503D02*
X27538585Y-17448503D01*
X27643234Y-14587594D02*
X27643234Y-14892594D01*
X27490734Y-14740094D02*
X27795734Y-14740094D01*
X27914029Y-17172003D02*
X27914029Y-17477003D01*
X27761529Y-17324503D02*
X28066529Y-17324503D01*
X28083028Y-11335595D02*
X28083028Y-11640595D01*
X27930528Y-11488095D02*
X28235528Y-11488095D01*
X28139975Y-20648058D02*
X28139975Y-20953058D01*
X27987475Y-20800558D02*
X28292475Y-20800558D01*
X28171178Y-14463595D02*
X28171178Y-14768595D01*
X28018678Y-14616095D02*
X28323678Y-14616095D01*
X28511333Y-21043270D02*
X28511333Y-21348270D01*
X28358833Y-21195770D02*
X28663833Y-21195770D01*
X28619769Y-11258081D02*
X28619769Y-11563081D01*
X28467269Y-11410581D02*
X28772269Y-11410581D01*
X28642469Y-15962923D02*
X28642469Y-16267923D01*
X28489969Y-16115423D02*
X28794969Y-16115423D01*
X28958592Y-12792779D02*
X28958592Y-13097779D01*
X28806092Y-12945279D02*
X29111092Y-12945279D01*
X29037349Y-19062981D02*
X29037349Y-19367981D01*
X28884849Y-19215481D02*
X29189849Y-19215481D01*
X29170412Y-15838924D02*
X29170412Y-16143924D01*
X29017912Y-15991424D02*
X29322912Y-15991424D01*
X29495334Y-12715265D02*
X29495334Y-13020265D01*
X29342834Y-12867765D02*
X29647834Y-12867765D01*
X29515210Y-18806565D02*
X29515210Y-19111565D01*
X29362710Y-18959065D02*
X29667710Y-18959065D01*
X29834157Y-14249964D02*
X29834157Y-14554964D01*
X29681657Y-14402464D02*
X29986657Y-14402464D01*
X30285066Y-10712471D02*
X30285066Y-11017471D01*
X30132566Y-10864971D02*
X30437566Y-10864971D01*
X30370899Y-14172450D02*
X30370899Y-14477450D01*
X30218399Y-14324950D02*
X30523399Y-14324950D01*
X30794494Y-17393760D02*
X30794494Y-17698760D01*
X30641994Y-17546260D02*
X30946994Y-17546260D01*
X30826521Y-10682033D02*
X30826521Y-10987033D01*
X30674021Y-10834533D02*
X30979021Y-10834533D01*
X31030297Y-12240421D02*
X31030297Y-12545421D01*
X30877797Y-12392921D02*
X31182797Y-12392921D01*
X31322438Y-17269761D02*
X31322438Y-17574761D01*
X31169938Y-17422261D02*
X31474938Y-17422261D01*
X31571752Y-12209982D02*
X31571752Y-12514982D01*
X31419252Y-12362482D02*
X31724252Y-12362482D01*
X31775528Y-13768371D02*
X31775528Y-14073371D01*
X31623028Y-13920871D02*
X31928028Y-13920871D01*
X32316983Y-13737932D02*
X32316983Y-14042932D01*
X32164483Y-13890432D02*
X32469483Y-13890432D01*
X33400243Y-10899894D02*
X33400243Y-11204894D01*
X33247743Y-11052394D02*
X33552743Y-11052394D01*
X33724618Y-12568660D02*
X33724618Y-12873660D01*
X33572118Y-12721160D02*
X33877118Y-12721160D01*
X33931127Y-11010631D02*
X33931127Y-11315631D01*
X33778627Y-11163131D02*
X34083627Y-11163131D01*
X34048994Y-14237427D02*
X34048994Y-14542427D01*
X33896494Y-14389927D02*
X34201494Y-14389927D01*
X34255502Y-12679397D02*
X34255502Y-12984397D01*
X34103002Y-12831897D02*
X34408002Y-12831897D01*
X34579877Y-14348164D02*
X34579877Y-14653164D01*
X34427377Y-14500664D02*
X34732377Y-14500664D01*
X35656719Y-11071360D02*
X35656719Y-11376360D01*
X35504219Y-11223860D02*
X35809219Y-11223860D01*
X35834417Y-12762047D02*
X35834417Y-13067047D01*
X35681917Y-12914547D02*
X35986917Y-12914547D01*
X36012116Y-14452734D02*
X36012116Y-14757734D01*
X35859616Y-14605234D02*
X36164616Y-14605234D01*
X36175931Y-11227945D02*
X36175931Y-11532945D01*
X36023431Y-11380445D02*
X36328431Y-11380445D01*
X36353629Y-12918632D02*
X36353629Y-13223632D01*
X36201129Y-13071132D02*
X36506129Y-13071132D01*
X36531328Y-14609319D02*
X36531328Y-14914319D01*
X36378828Y-14761819D02*
X36683828Y-14761819D01*
D15*
X9104759Y-15370548D02*
X9104759Y-15013456D01*
X8747666Y-15013456D01*
X8747666Y-15370548D01*
X9104759Y-15370548D01*
X9282457Y-13679861D02*
X9282457Y-13322768D01*
X8925365Y-13322768D01*
X8925365Y-13679861D01*
X9282457Y-13679861D01*
X9460156Y-11989174D02*
X9460156Y-11632081D01*
X9103063Y-11632081D01*
X9103063Y-11989174D01*
X9460156Y-11989174D01*
X11016975Y-15147633D02*
X11016975Y-14790540D01*
X10659883Y-14790540D01*
X10659883Y-15147633D01*
X11016975Y-15147633D01*
X11341350Y-13478866D02*
X11341350Y-13121774D01*
X10984258Y-13121774D01*
X10984258Y-13478866D01*
X11341350Y-13478866D01*
X11665726Y-11810100D02*
X11665726Y-11453008D01*
X11308633Y-11453008D01*
X11308633Y-11810100D01*
X11665726Y-11810100D01*
X13144379Y-14629706D02*
X13144379Y-14272613D01*
X12787287Y-14272613D01*
X12787287Y-14629706D01*
X13144379Y-14629706D01*
X13889610Y-13101756D02*
X13889610Y-12744664D01*
X13532518Y-12744664D01*
X13532518Y-13101756D01*
X13889610Y-13101756D01*
X14037259Y-18202126D02*
X14037259Y-17845034D01*
X13680166Y-17845034D01*
X13680166Y-18202126D01*
X14037259Y-18202126D01*
X14634841Y-11573806D02*
X14634841Y-11216714D01*
X14277749Y-11216714D01*
X14277749Y-11573806D01*
X14634841Y-11573806D01*
X15040517Y-15086738D02*
X15040517Y-14729646D01*
X14683424Y-14729646D01*
X14683424Y-15086738D01*
X15040517Y-15086738D01*
X15682681Y-19765326D02*
X15682681Y-19408233D01*
X15325588Y-19408233D01*
X15325588Y-19765326D01*
X15682681Y-19765326D01*
X15916081Y-13629554D02*
X15916081Y-13272462D01*
X15558989Y-13272462D01*
X15558989Y-13629554D01*
X15916081Y-13629554D01*
X16189284Y-16771289D02*
X16189284Y-16414197D01*
X15832191Y-16414197D01*
X15832191Y-16771289D01*
X16189284Y-16771289D01*
X16791646Y-12172370D02*
X16791646Y-11815277D01*
X16434554Y-11815277D01*
X16434554Y-12172370D01*
X16791646Y-12172370D01*
X17188519Y-15395961D02*
X17188519Y-15038868D01*
X16831426Y-15038868D01*
X16831426Y-15395961D01*
X17188519Y-15395961D01*
X17278546Y-21518096D02*
X17278546Y-21161003D01*
X16921454Y-21161003D01*
X16921454Y-21518096D01*
X17278546Y-21518096D01*
X17445667Y-18104369D02*
X17445667Y-17747276D01*
X17088575Y-17747276D01*
X17088575Y-18104369D01*
X17445667Y-18104369D01*
X18187754Y-14020632D02*
X18187754Y-13663539D01*
X17830661Y-13663539D01*
X17830661Y-14020632D01*
X18187754Y-14020632D01*
X18444902Y-16729040D02*
X18444902Y-16371947D01*
X18087810Y-16371947D01*
X18087810Y-16729040D01*
X18444902Y-16729040D01*
X19401515Y-18474718D02*
X19401515Y-18117625D01*
X19044423Y-18117625D01*
X19044423Y-18474718D01*
X19401515Y-18474718D01*
X19444137Y-15353711D02*
X19444137Y-14996618D01*
X19087045Y-14996618D01*
X19087045Y-15353711D01*
X19444137Y-15353711D01*
X25912955Y-15353711D02*
X25912955Y-14996618D01*
X25555863Y-14996618D01*
X25555863Y-15353711D01*
X25912955Y-15353711D01*
X25955577Y-18474718D02*
X25955577Y-18117625D01*
X25598485Y-18117625D01*
X25598485Y-18474718D01*
X25955577Y-18474718D01*
X26912190Y-16729040D02*
X26912190Y-16371947D01*
X26555098Y-16371947D01*
X26555098Y-16729040D01*
X26912190Y-16729040D01*
X27169339Y-14020632D02*
X27169339Y-13663539D01*
X26812246Y-13663539D01*
X26812246Y-14020632D01*
X27169339Y-14020632D01*
X27911425Y-18104369D02*
X27911425Y-17747276D01*
X27554333Y-17747276D01*
X27554333Y-18104369D01*
X27911425Y-18104369D01*
X28078546Y-21518096D02*
X28078546Y-21161003D01*
X27721454Y-21161003D01*
X27721454Y-21518096D01*
X28078546Y-21518096D01*
X28168574Y-15395961D02*
X28168574Y-15038868D01*
X27811481Y-15038868D01*
X27811481Y-15395961D01*
X28168574Y-15395961D01*
X28565446Y-12172370D02*
X28565446Y-11815277D01*
X28208354Y-11815277D01*
X28208354Y-12172370D01*
X28565446Y-12172370D01*
X29167809Y-16771289D02*
X29167809Y-16414197D01*
X28810716Y-16414197D01*
X28810716Y-16771289D01*
X29167809Y-16771289D01*
X29441011Y-13629554D02*
X29441011Y-13272462D01*
X29083919Y-13272462D01*
X29083919Y-13629554D01*
X29441011Y-13629554D01*
X29674412Y-19765326D02*
X29674412Y-19408233D01*
X29317319Y-19408233D01*
X29317319Y-19765326D01*
X29674412Y-19765326D01*
X30316576Y-15086738D02*
X30316576Y-14729646D01*
X29959483Y-14729646D01*
X29959483Y-15086738D01*
X30316576Y-15086738D01*
X30722251Y-11573806D02*
X30722251Y-11216714D01*
X30365159Y-11216714D01*
X30365159Y-11573806D01*
X30722251Y-11573806D01*
X31319834Y-18202126D02*
X31319834Y-17845034D01*
X30962741Y-17845034D01*
X30962741Y-18202126D01*
X31319834Y-18202126D01*
X31467482Y-13101756D02*
X31467482Y-12744664D01*
X31110390Y-12744664D01*
X31110390Y-13101756D01*
X31467482Y-13101756D01*
X32212713Y-14629706D02*
X32212713Y-14272613D01*
X31855621Y-14272613D01*
X31855621Y-14629706D01*
X32212713Y-14629706D01*
X33691367Y-11810100D02*
X33691367Y-11453008D01*
X33334274Y-11453008D01*
X33334274Y-11810100D01*
X33691367Y-11810100D01*
X34015742Y-13478866D02*
X34015742Y-13121774D01*
X33658649Y-13121774D01*
X33658649Y-13478866D01*
X34015742Y-13478866D01*
X34340117Y-15147633D02*
X34340117Y-14790540D01*
X33983025Y-14790540D01*
X33983025Y-15147633D01*
X34340117Y-15147633D01*
X35896937Y-11989174D02*
X35896937Y-11632081D01*
X35539844Y-11632081D01*
X35539844Y-11989174D01*
X35896937Y-11989174D01*
X36074635Y-13679861D02*
X36074635Y-13322768D01*
X35717543Y-13322768D01*
X35717543Y-13679861D01*
X36074635Y-13679861D01*
X36252334Y-15370548D02*
X36252334Y-15013456D01*
X35895241Y-15013456D01*
X35895241Y-15370548D01*
X36252334Y-15370548D01*
D11*
X7795570Y-23384141D02*
X7795570Y-23184141D01*
X7795570Y-23184141D02*
X7843189Y-23184141D01*
X7843189Y-23184141D02*
X7871761Y-23193665D01*
X7871761Y-23193665D02*
X7890808Y-23212713D01*
X7890808Y-23212713D02*
X7900332Y-23231760D01*
X7900332Y-23231760D02*
X7909856Y-23269855D01*
X7909856Y-23269855D02*
X7909856Y-23298427D01*
X7909856Y-23298427D02*
X7900332Y-23336522D01*
X7900332Y-23336522D02*
X7890808Y-23355570D01*
X7890808Y-23355570D02*
X7871761Y-23374617D01*
X7871761Y-23374617D02*
X7843189Y-23384141D01*
X7843189Y-23384141D02*
X7795570Y-23384141D01*
X7995570Y-23384141D02*
X7995570Y-23250808D01*
X7995570Y-23288903D02*
X8005094Y-23269855D01*
X8005094Y-23269855D02*
X8014618Y-23260332D01*
X8014618Y-23260332D02*
X8033666Y-23250808D01*
X8033666Y-23250808D02*
X8052713Y-23250808D01*
X8119380Y-23384141D02*
X8119380Y-23250808D01*
X8119380Y-23184141D02*
X8109856Y-23193665D01*
X8109856Y-23193665D02*
X8119380Y-23203189D01*
X8119380Y-23203189D02*
X8128904Y-23193665D01*
X8128904Y-23193665D02*
X8119380Y-23184141D01*
X8119380Y-23184141D02*
X8119380Y-23203189D01*
X8243189Y-23384141D02*
X8224142Y-23374617D01*
X8224142Y-23374617D02*
X8214618Y-23355570D01*
X8214618Y-23355570D02*
X8214618Y-23184141D01*
X8347951Y-23384141D02*
X8328904Y-23374617D01*
X8328904Y-23374617D02*
X8319380Y-23355570D01*
X8319380Y-23355570D02*
X8319380Y-23184141D01*
X8576523Y-23384141D02*
X8576523Y-23184141D01*
X8576523Y-23184141D02*
X8643190Y-23326998D01*
X8643190Y-23326998D02*
X8709856Y-23184141D01*
X8709856Y-23184141D02*
X8709856Y-23384141D01*
X8890809Y-23384141D02*
X8890809Y-23279379D01*
X8890809Y-23279379D02*
X8881285Y-23260332D01*
X8881285Y-23260332D02*
X8862237Y-23250808D01*
X8862237Y-23250808D02*
X8824142Y-23250808D01*
X8824142Y-23250808D02*
X8805094Y-23260332D01*
X8890809Y-23374617D02*
X8871761Y-23384141D01*
X8871761Y-23384141D02*
X8824142Y-23384141D01*
X8824142Y-23384141D02*
X8805094Y-23374617D01*
X8805094Y-23374617D02*
X8795570Y-23355570D01*
X8795570Y-23355570D02*
X8795570Y-23336522D01*
X8795570Y-23336522D02*
X8805094Y-23317474D01*
X8805094Y-23317474D02*
X8824142Y-23307951D01*
X8824142Y-23307951D02*
X8871761Y-23307951D01*
X8871761Y-23307951D02*
X8890809Y-23298427D01*
X8986047Y-23250808D02*
X8986047Y-23450808D01*
X8986047Y-23260332D02*
X9005094Y-23250808D01*
X9005094Y-23250808D02*
X9043190Y-23250808D01*
X9043190Y-23250808D02*
X9062237Y-23260332D01*
X9062237Y-23260332D02*
X9071761Y-23269855D01*
X9071761Y-23269855D02*
X9081285Y-23288903D01*
X9081285Y-23288903D02*
X9081285Y-23346046D01*
X9081285Y-23346046D02*
X9071761Y-23365093D01*
X9071761Y-23365093D02*
X9062237Y-23374617D01*
X9062237Y-23374617D02*
X9043190Y-23384141D01*
X9043190Y-23384141D02*
X9005094Y-23384141D01*
X9005094Y-23384141D02*
X8986047Y-23374617D01*
X9166999Y-23365093D02*
X9176523Y-23374617D01*
X9176523Y-23374617D02*
X9166999Y-23384141D01*
X9166999Y-23384141D02*
X9157475Y-23374617D01*
X9157475Y-23374617D02*
X9166999Y-23365093D01*
X9166999Y-23365093D02*
X9166999Y-23384141D01*
X9166999Y-23260332D02*
X9176523Y-23269855D01*
X9176523Y-23269855D02*
X9166999Y-23279379D01*
X9166999Y-23279379D02*
X9157475Y-23269855D01*
X9157475Y-23269855D02*
X9166999Y-23260332D01*
X9166999Y-23260332D02*
X9166999Y-23279379D01*
D12*
X7374794Y-23632657D02*
X7534794Y-23792657D01*
X7534794Y-23632657D02*
X7374794Y-23792657D01*
D11*
X7900332Y-23804141D02*
X7786047Y-23804141D01*
X7843189Y-23804141D02*
X7843189Y-23604141D01*
X7843189Y-23604141D02*
X7824142Y-23632713D01*
X7824142Y-23632713D02*
X7805094Y-23651760D01*
X7805094Y-23651760D02*
X7786047Y-23661284D01*
X7986047Y-23785093D02*
X7995570Y-23794617D01*
X7995570Y-23794617D02*
X7986047Y-23804141D01*
X7986047Y-23804141D02*
X7976523Y-23794617D01*
X7976523Y-23794617D02*
X7986047Y-23785093D01*
X7986047Y-23785093D02*
X7986047Y-23804141D01*
X8166999Y-23604141D02*
X8128904Y-23604141D01*
X8128904Y-23604141D02*
X8109856Y-23613665D01*
X8109856Y-23613665D02*
X8100332Y-23623189D01*
X8100332Y-23623189D02*
X8081285Y-23651760D01*
X8081285Y-23651760D02*
X8071761Y-23689855D01*
X8071761Y-23689855D02*
X8071761Y-23766046D01*
X8071761Y-23766046D02*
X8081285Y-23785093D01*
X8081285Y-23785093D02*
X8090808Y-23794617D01*
X8090808Y-23794617D02*
X8109856Y-23804141D01*
X8109856Y-23804141D02*
X8147951Y-23804141D01*
X8147951Y-23804141D02*
X8166999Y-23794617D01*
X8166999Y-23794617D02*
X8176523Y-23785093D01*
X8176523Y-23785093D02*
X8186047Y-23766046D01*
X8186047Y-23766046D02*
X8186047Y-23718427D01*
X8186047Y-23718427D02*
X8176523Y-23699379D01*
X8176523Y-23699379D02*
X8166999Y-23689855D01*
X8166999Y-23689855D02*
X8147951Y-23680332D01*
X8147951Y-23680332D02*
X8109856Y-23680332D01*
X8109856Y-23680332D02*
X8090808Y-23689855D01*
X8090808Y-23689855D02*
X8081285Y-23699379D01*
X8081285Y-23699379D02*
X8071761Y-23718427D01*
X8309856Y-23604141D02*
X8328904Y-23604141D01*
X8328904Y-23604141D02*
X8347951Y-23613665D01*
X8347951Y-23613665D02*
X8357475Y-23623189D01*
X8357475Y-23623189D02*
X8366999Y-23642236D01*
X8366999Y-23642236D02*
X8376523Y-23680332D01*
X8376523Y-23680332D02*
X8376523Y-23727951D01*
X8376523Y-23727951D02*
X8366999Y-23766046D01*
X8366999Y-23766046D02*
X8357475Y-23785093D01*
X8357475Y-23785093D02*
X8347951Y-23794617D01*
X8347951Y-23794617D02*
X8328904Y-23804141D01*
X8328904Y-23804141D02*
X8309856Y-23804141D01*
X8309856Y-23804141D02*
X8290808Y-23794617D01*
X8290808Y-23794617D02*
X8281285Y-23785093D01*
X8281285Y-23785093D02*
X8271761Y-23766046D01*
X8271761Y-23766046D02*
X8262237Y-23727951D01*
X8262237Y-23727951D02*
X8262237Y-23680332D01*
X8262237Y-23680332D02*
X8271761Y-23642236D01*
X8271761Y-23642236D02*
X8281285Y-23623189D01*
X8281285Y-23623189D02*
X8290808Y-23613665D01*
X8290808Y-23613665D02*
X8309856Y-23604141D01*
X8500332Y-23604141D02*
X8519380Y-23604141D01*
X8519380Y-23604141D02*
X8538428Y-23613665D01*
X8538428Y-23613665D02*
X8547951Y-23623189D01*
X8547951Y-23623189D02*
X8557475Y-23642236D01*
X8557475Y-23642236D02*
X8566999Y-23680332D01*
X8566999Y-23680332D02*
X8566999Y-23727951D01*
X8566999Y-23727951D02*
X8557475Y-23766046D01*
X8557475Y-23766046D02*
X8547951Y-23785093D01*
X8547951Y-23785093D02*
X8538428Y-23794617D01*
X8538428Y-23794617D02*
X8519380Y-23804141D01*
X8519380Y-23804141D02*
X8500332Y-23804141D01*
X8500332Y-23804141D02*
X8481285Y-23794617D01*
X8481285Y-23794617D02*
X8471761Y-23785093D01*
X8471761Y-23785093D02*
X8462237Y-23766046D01*
X8462237Y-23766046D02*
X8452713Y-23727951D01*
X8452713Y-23727951D02*
X8452713Y-23680332D01*
X8452713Y-23680332D02*
X8462237Y-23642236D01*
X8462237Y-23642236D02*
X8471761Y-23623189D01*
X8471761Y-23623189D02*
X8481285Y-23613665D01*
X8481285Y-23613665D02*
X8500332Y-23604141D01*
X8652713Y-23804141D02*
X8652713Y-23670808D01*
X8652713Y-23689855D02*
X8662237Y-23680332D01*
X8662237Y-23680332D02*
X8681285Y-23670808D01*
X8681285Y-23670808D02*
X8709856Y-23670808D01*
X8709856Y-23670808D02*
X8728904Y-23680332D01*
X8728904Y-23680332D02*
X8738428Y-23699379D01*
X8738428Y-23699379D02*
X8738428Y-23804141D01*
X8738428Y-23699379D02*
X8747951Y-23680332D01*
X8747951Y-23680332D02*
X8766999Y-23670808D01*
X8766999Y-23670808D02*
X8795570Y-23670808D01*
X8795570Y-23670808D02*
X8814618Y-23680332D01*
X8814618Y-23680332D02*
X8824142Y-23699379D01*
X8824142Y-23699379D02*
X8824142Y-23804141D01*
X8919380Y-23804141D02*
X8919380Y-23670808D01*
X8919380Y-23689855D02*
X8928904Y-23680332D01*
X8928904Y-23680332D02*
X8947951Y-23670808D01*
X8947951Y-23670808D02*
X8976523Y-23670808D01*
X8976523Y-23670808D02*
X8995571Y-23680332D01*
X8995571Y-23680332D02*
X9005094Y-23699379D01*
X9005094Y-23699379D02*
X9005094Y-23804141D01*
X9005094Y-23699379D02*
X9014618Y-23680332D01*
X9014618Y-23680332D02*
X9033666Y-23670808D01*
X9033666Y-23670808D02*
X9062237Y-23670808D01*
X9062237Y-23670808D02*
X9081285Y-23680332D01*
X9081285Y-23680332D02*
X9090809Y-23699379D01*
X9090809Y-23699379D02*
X9090809Y-23804141D01*
X9481285Y-23594617D02*
X9309856Y-23851760D01*
X9738428Y-23604141D02*
X9757475Y-23604141D01*
X9757475Y-23604141D02*
X9776523Y-23613665D01*
X9776523Y-23613665D02*
X9786047Y-23623189D01*
X9786047Y-23623189D02*
X9795571Y-23642236D01*
X9795571Y-23642236D02*
X9805094Y-23680332D01*
X9805094Y-23680332D02*
X9805094Y-23727951D01*
X9805094Y-23727951D02*
X9795571Y-23766046D01*
X9795571Y-23766046D02*
X9786047Y-23785093D01*
X9786047Y-23785093D02*
X9776523Y-23794617D01*
X9776523Y-23794617D02*
X9757475Y-23804141D01*
X9757475Y-23804141D02*
X9738428Y-23804141D01*
X9738428Y-23804141D02*
X9719380Y-23794617D01*
X9719380Y-23794617D02*
X9709856Y-23785093D01*
X9709856Y-23785093D02*
X9700333Y-23766046D01*
X9700333Y-23766046D02*
X9690809Y-23727951D01*
X9690809Y-23727951D02*
X9690809Y-23680332D01*
X9690809Y-23680332D02*
X9700333Y-23642236D01*
X9700333Y-23642236D02*
X9709856Y-23623189D01*
X9709856Y-23623189D02*
X9719380Y-23613665D01*
X9719380Y-23613665D02*
X9738428Y-23604141D01*
X9890809Y-23785093D02*
X9900333Y-23794617D01*
X9900333Y-23794617D02*
X9890809Y-23804141D01*
X9890809Y-23804141D02*
X9881285Y-23794617D01*
X9881285Y-23794617D02*
X9890809Y-23785093D01*
X9890809Y-23785093D02*
X9890809Y-23804141D01*
X10024142Y-23604141D02*
X10043190Y-23604141D01*
X10043190Y-23604141D02*
X10062237Y-23613665D01*
X10062237Y-23613665D02*
X10071761Y-23623189D01*
X10071761Y-23623189D02*
X10081285Y-23642236D01*
X10081285Y-23642236D02*
X10090809Y-23680332D01*
X10090809Y-23680332D02*
X10090809Y-23727951D01*
X10090809Y-23727951D02*
X10081285Y-23766046D01*
X10081285Y-23766046D02*
X10071761Y-23785093D01*
X10071761Y-23785093D02*
X10062237Y-23794617D01*
X10062237Y-23794617D02*
X10043190Y-23804141D01*
X10043190Y-23804141D02*
X10024142Y-23804141D01*
X10024142Y-23804141D02*
X10005094Y-23794617D01*
X10005094Y-23794617D02*
X9995571Y-23785093D01*
X9995571Y-23785093D02*
X9986047Y-23766046D01*
X9986047Y-23766046D02*
X9976523Y-23727951D01*
X9976523Y-23727951D02*
X9976523Y-23680332D01*
X9976523Y-23680332D02*
X9986047Y-23642236D01*
X9986047Y-23642236D02*
X9995571Y-23623189D01*
X9995571Y-23623189D02*
X10005094Y-23613665D01*
X10005094Y-23613665D02*
X10024142Y-23604141D01*
X10262237Y-23604141D02*
X10224142Y-23604141D01*
X10224142Y-23604141D02*
X10205094Y-23613665D01*
X10205094Y-23613665D02*
X10195571Y-23623189D01*
X10195571Y-23623189D02*
X10176523Y-23651760D01*
X10176523Y-23651760D02*
X10166999Y-23689855D01*
X10166999Y-23689855D02*
X10166999Y-23766046D01*
X10166999Y-23766046D02*
X10176523Y-23785093D01*
X10176523Y-23785093D02*
X10186047Y-23794617D01*
X10186047Y-23794617D02*
X10205094Y-23804141D01*
X10205094Y-23804141D02*
X10243190Y-23804141D01*
X10243190Y-23804141D02*
X10262237Y-23794617D01*
X10262237Y-23794617D02*
X10271761Y-23785093D01*
X10271761Y-23785093D02*
X10281285Y-23766046D01*
X10281285Y-23766046D02*
X10281285Y-23718427D01*
X10281285Y-23718427D02*
X10271761Y-23699379D01*
X10271761Y-23699379D02*
X10262237Y-23689855D01*
X10262237Y-23689855D02*
X10243190Y-23680332D01*
X10243190Y-23680332D02*
X10205094Y-23680332D01*
X10205094Y-23680332D02*
X10186047Y-23689855D01*
X10186047Y-23689855D02*
X10176523Y-23699379D01*
X10176523Y-23699379D02*
X10166999Y-23718427D01*
X10347952Y-23604141D02*
X10471761Y-23604141D01*
X10471761Y-23604141D02*
X10405094Y-23680332D01*
X10405094Y-23680332D02*
X10433666Y-23680332D01*
X10433666Y-23680332D02*
X10452714Y-23689855D01*
X10452714Y-23689855D02*
X10462237Y-23699379D01*
X10462237Y-23699379D02*
X10471761Y-23718427D01*
X10471761Y-23718427D02*
X10471761Y-23766046D01*
X10471761Y-23766046D02*
X10462237Y-23785093D01*
X10462237Y-23785093D02*
X10452714Y-23794617D01*
X10452714Y-23794617D02*
X10433666Y-23804141D01*
X10433666Y-23804141D02*
X10376523Y-23804141D01*
X10376523Y-23804141D02*
X10357475Y-23794617D01*
X10357475Y-23794617D02*
X10347952Y-23785093D01*
X10595571Y-23604141D02*
X10614618Y-23604141D01*
X10614618Y-23604141D02*
X10633666Y-23613665D01*
X10633666Y-23613665D02*
X10643190Y-23623189D01*
X10643190Y-23623189D02*
X10652714Y-23642236D01*
X10652714Y-23642236D02*
X10662237Y-23680332D01*
X10662237Y-23680332D02*
X10662237Y-23727951D01*
X10662237Y-23727951D02*
X10652714Y-23766046D01*
X10652714Y-23766046D02*
X10643190Y-23785093D01*
X10643190Y-23785093D02*
X10633666Y-23794617D01*
X10633666Y-23794617D02*
X10614618Y-23804141D01*
X10614618Y-23804141D02*
X10595571Y-23804141D01*
X10595571Y-23804141D02*
X10576523Y-23794617D01*
X10576523Y-23794617D02*
X10566999Y-23785093D01*
X10566999Y-23785093D02*
X10557475Y-23766046D01*
X10557475Y-23766046D02*
X10547952Y-23727951D01*
X10547952Y-23727951D02*
X10547952Y-23680332D01*
X10547952Y-23680332D02*
X10557475Y-23642236D01*
X10557475Y-23642236D02*
X10566999Y-23623189D01*
X10566999Y-23623189D02*
X10576523Y-23613665D01*
X10576523Y-23613665D02*
X10595571Y-23604141D01*
X10738428Y-23604141D02*
X10738428Y-23642236D01*
X10814618Y-23604141D02*
X10814618Y-23642236D01*
X11109857Y-23880332D02*
X11100333Y-23870808D01*
X11100333Y-23870808D02*
X11081285Y-23842236D01*
X11081285Y-23842236D02*
X11071761Y-23823189D01*
X11071761Y-23823189D02*
X11062237Y-23794617D01*
X11062237Y-23794617D02*
X11052714Y-23746998D01*
X11052714Y-23746998D02*
X11052714Y-23708903D01*
X11052714Y-23708903D02*
X11062237Y-23661284D01*
X11062237Y-23661284D02*
X11071761Y-23632713D01*
X11071761Y-23632713D02*
X11081285Y-23613665D01*
X11081285Y-23613665D02*
X11100333Y-23585093D01*
X11100333Y-23585093D02*
X11109857Y-23575570D01*
X11271761Y-23670808D02*
X11271761Y-23804141D01*
X11224142Y-23594617D02*
X11176523Y-23737474D01*
X11176523Y-23737474D02*
X11300333Y-23737474D01*
X11462237Y-23670808D02*
X11462237Y-23804141D01*
X11414618Y-23594617D02*
X11366999Y-23737474D01*
X11366999Y-23737474D02*
X11490809Y-23737474D01*
X11719380Y-23804141D02*
X11719380Y-23604141D01*
X11805095Y-23804141D02*
X11805095Y-23699379D01*
X11805095Y-23699379D02*
X11795571Y-23680332D01*
X11795571Y-23680332D02*
X11776523Y-23670808D01*
X11776523Y-23670808D02*
X11747952Y-23670808D01*
X11747952Y-23670808D02*
X11728904Y-23680332D01*
X11728904Y-23680332D02*
X11719380Y-23689855D01*
X11928904Y-23804141D02*
X11909856Y-23794617D01*
X11909856Y-23794617D02*
X11900333Y-23785093D01*
X11900333Y-23785093D02*
X11890809Y-23766046D01*
X11890809Y-23766046D02*
X11890809Y-23708903D01*
X11890809Y-23708903D02*
X11900333Y-23689855D01*
X11900333Y-23689855D02*
X11909856Y-23680332D01*
X11909856Y-23680332D02*
X11928904Y-23670808D01*
X11928904Y-23670808D02*
X11957476Y-23670808D01*
X11957476Y-23670808D02*
X11976523Y-23680332D01*
X11976523Y-23680332D02*
X11986047Y-23689855D01*
X11986047Y-23689855D02*
X11995571Y-23708903D01*
X11995571Y-23708903D02*
X11995571Y-23766046D01*
X11995571Y-23766046D02*
X11986047Y-23785093D01*
X11986047Y-23785093D02*
X11976523Y-23794617D01*
X11976523Y-23794617D02*
X11957476Y-23804141D01*
X11957476Y-23804141D02*
X11928904Y-23804141D01*
X12109856Y-23804141D02*
X12090809Y-23794617D01*
X12090809Y-23794617D02*
X12081285Y-23775570D01*
X12081285Y-23775570D02*
X12081285Y-23604141D01*
X12262237Y-23794617D02*
X12243190Y-23804141D01*
X12243190Y-23804141D02*
X12205095Y-23804141D01*
X12205095Y-23804141D02*
X12186047Y-23794617D01*
X12186047Y-23794617D02*
X12176523Y-23775570D01*
X12176523Y-23775570D02*
X12176523Y-23699379D01*
X12176523Y-23699379D02*
X12186047Y-23680332D01*
X12186047Y-23680332D02*
X12205095Y-23670808D01*
X12205095Y-23670808D02*
X12243190Y-23670808D01*
X12243190Y-23670808D02*
X12262237Y-23680332D01*
X12262237Y-23680332D02*
X12271761Y-23699379D01*
X12271761Y-23699379D02*
X12271761Y-23718427D01*
X12271761Y-23718427D02*
X12176523Y-23737474D01*
X12347952Y-23794617D02*
X12366999Y-23804141D01*
X12366999Y-23804141D02*
X12405095Y-23804141D01*
X12405095Y-23804141D02*
X12424142Y-23794617D01*
X12424142Y-23794617D02*
X12433666Y-23775570D01*
X12433666Y-23775570D02*
X12433666Y-23766046D01*
X12433666Y-23766046D02*
X12424142Y-23746998D01*
X12424142Y-23746998D02*
X12405095Y-23737474D01*
X12405095Y-23737474D02*
X12376523Y-23737474D01*
X12376523Y-23737474D02*
X12357476Y-23727951D01*
X12357476Y-23727951D02*
X12347952Y-23708903D01*
X12347952Y-23708903D02*
X12347952Y-23699379D01*
X12347952Y-23699379D02*
X12357476Y-23680332D01*
X12357476Y-23680332D02*
X12376523Y-23670808D01*
X12376523Y-23670808D02*
X12405095Y-23670808D01*
X12405095Y-23670808D02*
X12424142Y-23680332D01*
X12500333Y-23880332D02*
X12509857Y-23870808D01*
X12509857Y-23870808D02*
X12528904Y-23842236D01*
X12528904Y-23842236D02*
X12538428Y-23823189D01*
X12538428Y-23823189D02*
X12547952Y-23794617D01*
X12547952Y-23794617D02*
X12557476Y-23746998D01*
X12557476Y-23746998D02*
X12557476Y-23708903D01*
X12557476Y-23708903D02*
X12547952Y-23661284D01*
X12547952Y-23661284D02*
X12538428Y-23632713D01*
X12538428Y-23632713D02*
X12528904Y-23613665D01*
X12528904Y-23613665D02*
X12509857Y-23585093D01*
X12509857Y-23585093D02*
X12500333Y-23575570D01*
X12862238Y-23880332D02*
X12852714Y-23870808D01*
X12852714Y-23870808D02*
X12833666Y-23842236D01*
X12833666Y-23842236D02*
X12824142Y-23823189D01*
X12824142Y-23823189D02*
X12814618Y-23794617D01*
X12814618Y-23794617D02*
X12805095Y-23746998D01*
X12805095Y-23746998D02*
X12805095Y-23708903D01*
X12805095Y-23708903D02*
X12814618Y-23661284D01*
X12814618Y-23661284D02*
X12824142Y-23632713D01*
X12824142Y-23632713D02*
X12833666Y-23613665D01*
X12833666Y-23613665D02*
X12852714Y-23585093D01*
X12852714Y-23585093D02*
X12862238Y-23575570D01*
X12938428Y-23670808D02*
X12938428Y-23804141D01*
X12938428Y-23689855D02*
X12947952Y-23680332D01*
X12947952Y-23680332D02*
X12966999Y-23670808D01*
X12966999Y-23670808D02*
X12995571Y-23670808D01*
X12995571Y-23670808D02*
X13014618Y-23680332D01*
X13014618Y-23680332D02*
X13024142Y-23699379D01*
X13024142Y-23699379D02*
X13024142Y-23804141D01*
X13147952Y-23804141D02*
X13128904Y-23794617D01*
X13128904Y-23794617D02*
X13119380Y-23785093D01*
X13119380Y-23785093D02*
X13109857Y-23766046D01*
X13109857Y-23766046D02*
X13109857Y-23708903D01*
X13109857Y-23708903D02*
X13119380Y-23689855D01*
X13119380Y-23689855D02*
X13128904Y-23680332D01*
X13128904Y-23680332D02*
X13147952Y-23670808D01*
X13147952Y-23670808D02*
X13176523Y-23670808D01*
X13176523Y-23670808D02*
X13195571Y-23680332D01*
X13195571Y-23680332D02*
X13205095Y-23689855D01*
X13205095Y-23689855D02*
X13214618Y-23708903D01*
X13214618Y-23708903D02*
X13214618Y-23766046D01*
X13214618Y-23766046D02*
X13205095Y-23785093D01*
X13205095Y-23785093D02*
X13195571Y-23794617D01*
X13195571Y-23794617D02*
X13176523Y-23804141D01*
X13176523Y-23804141D02*
X13147952Y-23804141D01*
X13271761Y-23670808D02*
X13347952Y-23670808D01*
X13300333Y-23604141D02*
X13300333Y-23775570D01*
X13300333Y-23775570D02*
X13309857Y-23794617D01*
X13309857Y-23794617D02*
X13328904Y-23804141D01*
X13328904Y-23804141D02*
X13347952Y-23804141D01*
X13566999Y-23670808D02*
X13566999Y-23870808D01*
X13566999Y-23680332D02*
X13586047Y-23670808D01*
X13586047Y-23670808D02*
X13624142Y-23670808D01*
X13624142Y-23670808D02*
X13643190Y-23680332D01*
X13643190Y-23680332D02*
X13652714Y-23689855D01*
X13652714Y-23689855D02*
X13662238Y-23708903D01*
X13662238Y-23708903D02*
X13662238Y-23766046D01*
X13662238Y-23766046D02*
X13652714Y-23785093D01*
X13652714Y-23785093D02*
X13643190Y-23794617D01*
X13643190Y-23794617D02*
X13624142Y-23804141D01*
X13624142Y-23804141D02*
X13586047Y-23804141D01*
X13586047Y-23804141D02*
X13566999Y-23794617D01*
X13776523Y-23804141D02*
X13757476Y-23794617D01*
X13757476Y-23794617D02*
X13747952Y-23775570D01*
X13747952Y-23775570D02*
X13747952Y-23604141D01*
X13938428Y-23804141D02*
X13938428Y-23699379D01*
X13938428Y-23699379D02*
X13928904Y-23680332D01*
X13928904Y-23680332D02*
X13909857Y-23670808D01*
X13909857Y-23670808D02*
X13871761Y-23670808D01*
X13871761Y-23670808D02*
X13852714Y-23680332D01*
X13938428Y-23794617D02*
X13919380Y-23804141D01*
X13919380Y-23804141D02*
X13871761Y-23804141D01*
X13871761Y-23804141D02*
X13852714Y-23794617D01*
X13852714Y-23794617D02*
X13843190Y-23775570D01*
X13843190Y-23775570D02*
X13843190Y-23756522D01*
X13843190Y-23756522D02*
X13852714Y-23737474D01*
X13852714Y-23737474D02*
X13871761Y-23727951D01*
X13871761Y-23727951D02*
X13919380Y-23727951D01*
X13919380Y-23727951D02*
X13938428Y-23718427D01*
X14005095Y-23670808D02*
X14081285Y-23670808D01*
X14033666Y-23604141D02*
X14033666Y-23775570D01*
X14033666Y-23775570D02*
X14043190Y-23794617D01*
X14043190Y-23794617D02*
X14062238Y-23804141D01*
X14062238Y-23804141D02*
X14081285Y-23804141D01*
X14224142Y-23794617D02*
X14205095Y-23804141D01*
X14205095Y-23804141D02*
X14166999Y-23804141D01*
X14166999Y-23804141D02*
X14147952Y-23794617D01*
X14147952Y-23794617D02*
X14138428Y-23775570D01*
X14138428Y-23775570D02*
X14138428Y-23699379D01*
X14138428Y-23699379D02*
X14147952Y-23680332D01*
X14147952Y-23680332D02*
X14166999Y-23670808D01*
X14166999Y-23670808D02*
X14205095Y-23670808D01*
X14205095Y-23670808D02*
X14224142Y-23680332D01*
X14224142Y-23680332D02*
X14233666Y-23699379D01*
X14233666Y-23699379D02*
X14233666Y-23718427D01*
X14233666Y-23718427D02*
X14138428Y-23737474D01*
X14405095Y-23804141D02*
X14405095Y-23604141D01*
X14405095Y-23794617D02*
X14386047Y-23804141D01*
X14386047Y-23804141D02*
X14347952Y-23804141D01*
X14347952Y-23804141D02*
X14328904Y-23794617D01*
X14328904Y-23794617D02*
X14319380Y-23785093D01*
X14319380Y-23785093D02*
X14309857Y-23766046D01*
X14309857Y-23766046D02*
X14309857Y-23708903D01*
X14309857Y-23708903D02*
X14319380Y-23689855D01*
X14319380Y-23689855D02*
X14328904Y-23680332D01*
X14328904Y-23680332D02*
X14347952Y-23670808D01*
X14347952Y-23670808D02*
X14386047Y-23670808D01*
X14386047Y-23670808D02*
X14405095Y-23680332D01*
X14481285Y-23880332D02*
X14490809Y-23870808D01*
X14490809Y-23870808D02*
X14509857Y-23842236D01*
X14509857Y-23842236D02*
X14519380Y-23823189D01*
X14519380Y-23823189D02*
X14528904Y-23794617D01*
X14528904Y-23794617D02*
X14538428Y-23746998D01*
X14538428Y-23746998D02*
X14538428Y-23708903D01*
X14538428Y-23708903D02*
X14528904Y-23661284D01*
X14528904Y-23661284D02*
X14519380Y-23632713D01*
X14519380Y-23632713D02*
X14509857Y-23613665D01*
X14509857Y-23613665D02*
X14490809Y-23585093D01*
X14490809Y-23585093D02*
X14481285Y-23575570D01*
D13*
X7534794Y-23992657D02*
G75*
G02*
X7344794Y-23992657I-95000J0D01*
G01*
X7344794Y-23992657D02*
G75*
G02*
X7534794Y-23992657I95000J0D01*
G01*
D11*
X7900332Y-24084141D02*
X7786047Y-24084141D01*
X7843189Y-24084141D02*
X7843189Y-23884141D01*
X7843189Y-23884141D02*
X7824142Y-23912713D01*
X7824142Y-23912713D02*
X7805094Y-23931760D01*
X7805094Y-23931760D02*
X7786047Y-23941284D01*
X7986047Y-24065093D02*
X7995570Y-24074617D01*
X7995570Y-24074617D02*
X7986047Y-24084141D01*
X7986047Y-24084141D02*
X7976523Y-24074617D01*
X7976523Y-24074617D02*
X7986047Y-24065093D01*
X7986047Y-24065093D02*
X7986047Y-24084141D01*
X8090808Y-24084141D02*
X8128904Y-24084141D01*
X8128904Y-24084141D02*
X8147951Y-24074617D01*
X8147951Y-24074617D02*
X8157475Y-24065093D01*
X8157475Y-24065093D02*
X8176523Y-24036522D01*
X8176523Y-24036522D02*
X8186047Y-23998427D01*
X8186047Y-23998427D02*
X8186047Y-23922236D01*
X8186047Y-23922236D02*
X8176523Y-23903189D01*
X8176523Y-23903189D02*
X8166999Y-23893665D01*
X8166999Y-23893665D02*
X8147951Y-23884141D01*
X8147951Y-23884141D02*
X8109856Y-23884141D01*
X8109856Y-23884141D02*
X8090808Y-23893665D01*
X8090808Y-23893665D02*
X8081285Y-23903189D01*
X8081285Y-23903189D02*
X8071761Y-23922236D01*
X8071761Y-23922236D02*
X8071761Y-23969855D01*
X8071761Y-23969855D02*
X8081285Y-23988903D01*
X8081285Y-23988903D02*
X8090808Y-23998427D01*
X8090808Y-23998427D02*
X8109856Y-24007951D01*
X8109856Y-24007951D02*
X8147951Y-24007951D01*
X8147951Y-24007951D02*
X8166999Y-23998427D01*
X8166999Y-23998427D02*
X8176523Y-23988903D01*
X8176523Y-23988903D02*
X8186047Y-23969855D01*
X8309856Y-23884141D02*
X8328904Y-23884141D01*
X8328904Y-23884141D02*
X8347951Y-23893665D01*
X8347951Y-23893665D02*
X8357475Y-23903189D01*
X8357475Y-23903189D02*
X8366999Y-23922236D01*
X8366999Y-23922236D02*
X8376523Y-23960332D01*
X8376523Y-23960332D02*
X8376523Y-24007951D01*
X8376523Y-24007951D02*
X8366999Y-24046046D01*
X8366999Y-24046046D02*
X8357475Y-24065093D01*
X8357475Y-24065093D02*
X8347951Y-24074617D01*
X8347951Y-24074617D02*
X8328904Y-24084141D01*
X8328904Y-24084141D02*
X8309856Y-24084141D01*
X8309856Y-24084141D02*
X8290808Y-24074617D01*
X8290808Y-24074617D02*
X8281285Y-24065093D01*
X8281285Y-24065093D02*
X8271761Y-24046046D01*
X8271761Y-24046046D02*
X8262237Y-24007951D01*
X8262237Y-24007951D02*
X8262237Y-23960332D01*
X8262237Y-23960332D02*
X8271761Y-23922236D01*
X8271761Y-23922236D02*
X8281285Y-23903189D01*
X8281285Y-23903189D02*
X8290808Y-23893665D01*
X8290808Y-23893665D02*
X8309856Y-23884141D01*
X8500332Y-23884141D02*
X8519380Y-23884141D01*
X8519380Y-23884141D02*
X8538428Y-23893665D01*
X8538428Y-23893665D02*
X8547951Y-23903189D01*
X8547951Y-23903189D02*
X8557475Y-23922236D01*
X8557475Y-23922236D02*
X8566999Y-23960332D01*
X8566999Y-23960332D02*
X8566999Y-24007951D01*
X8566999Y-24007951D02*
X8557475Y-24046046D01*
X8557475Y-24046046D02*
X8547951Y-24065093D01*
X8547951Y-24065093D02*
X8538428Y-24074617D01*
X8538428Y-24074617D02*
X8519380Y-24084141D01*
X8519380Y-24084141D02*
X8500332Y-24084141D01*
X8500332Y-24084141D02*
X8481285Y-24074617D01*
X8481285Y-24074617D02*
X8471761Y-24065093D01*
X8471761Y-24065093D02*
X8462237Y-24046046D01*
X8462237Y-24046046D02*
X8452713Y-24007951D01*
X8452713Y-24007951D02*
X8452713Y-23960332D01*
X8452713Y-23960332D02*
X8462237Y-23922236D01*
X8462237Y-23922236D02*
X8471761Y-23903189D01*
X8471761Y-23903189D02*
X8481285Y-23893665D01*
X8481285Y-23893665D02*
X8500332Y-23884141D01*
X8652713Y-24084141D02*
X8652713Y-23950808D01*
X8652713Y-23969855D02*
X8662237Y-23960332D01*
X8662237Y-23960332D02*
X8681285Y-23950808D01*
X8681285Y-23950808D02*
X8709856Y-23950808D01*
X8709856Y-23950808D02*
X8728904Y-23960332D01*
X8728904Y-23960332D02*
X8738428Y-23979379D01*
X8738428Y-23979379D02*
X8738428Y-24084141D01*
X8738428Y-23979379D02*
X8747951Y-23960332D01*
X8747951Y-23960332D02*
X8766999Y-23950808D01*
X8766999Y-23950808D02*
X8795570Y-23950808D01*
X8795570Y-23950808D02*
X8814618Y-23960332D01*
X8814618Y-23960332D02*
X8824142Y-23979379D01*
X8824142Y-23979379D02*
X8824142Y-24084141D01*
X8919380Y-24084141D02*
X8919380Y-23950808D01*
X8919380Y-23969855D02*
X8928904Y-23960332D01*
X8928904Y-23960332D02*
X8947951Y-23950808D01*
X8947951Y-23950808D02*
X8976523Y-23950808D01*
X8976523Y-23950808D02*
X8995571Y-23960332D01*
X8995571Y-23960332D02*
X9005094Y-23979379D01*
X9005094Y-23979379D02*
X9005094Y-24084141D01*
X9005094Y-23979379D02*
X9014618Y-23960332D01*
X9014618Y-23960332D02*
X9033666Y-23950808D01*
X9033666Y-23950808D02*
X9062237Y-23950808D01*
X9062237Y-23950808D02*
X9081285Y-23960332D01*
X9081285Y-23960332D02*
X9090809Y-23979379D01*
X9090809Y-23979379D02*
X9090809Y-24084141D01*
X9481285Y-23874617D02*
X9309856Y-24131760D01*
X9738428Y-23884141D02*
X9757475Y-23884141D01*
X9757475Y-23884141D02*
X9776523Y-23893665D01*
X9776523Y-23893665D02*
X9786047Y-23903189D01*
X9786047Y-23903189D02*
X9795571Y-23922236D01*
X9795571Y-23922236D02*
X9805094Y-23960332D01*
X9805094Y-23960332D02*
X9805094Y-24007951D01*
X9805094Y-24007951D02*
X9795571Y-24046046D01*
X9795571Y-24046046D02*
X9786047Y-24065093D01*
X9786047Y-24065093D02*
X9776523Y-24074617D01*
X9776523Y-24074617D02*
X9757475Y-24084141D01*
X9757475Y-24084141D02*
X9738428Y-24084141D01*
X9738428Y-24084141D02*
X9719380Y-24074617D01*
X9719380Y-24074617D02*
X9709856Y-24065093D01*
X9709856Y-24065093D02*
X9700333Y-24046046D01*
X9700333Y-24046046D02*
X9690809Y-24007951D01*
X9690809Y-24007951D02*
X9690809Y-23960332D01*
X9690809Y-23960332D02*
X9700333Y-23922236D01*
X9700333Y-23922236D02*
X9709856Y-23903189D01*
X9709856Y-23903189D02*
X9719380Y-23893665D01*
X9719380Y-23893665D02*
X9738428Y-23884141D01*
X9890809Y-24065093D02*
X9900333Y-24074617D01*
X9900333Y-24074617D02*
X9890809Y-24084141D01*
X9890809Y-24084141D02*
X9881285Y-24074617D01*
X9881285Y-24074617D02*
X9890809Y-24065093D01*
X9890809Y-24065093D02*
X9890809Y-24084141D01*
X10024142Y-23884141D02*
X10043190Y-23884141D01*
X10043190Y-23884141D02*
X10062237Y-23893665D01*
X10062237Y-23893665D02*
X10071761Y-23903189D01*
X10071761Y-23903189D02*
X10081285Y-23922236D01*
X10081285Y-23922236D02*
X10090809Y-23960332D01*
X10090809Y-23960332D02*
X10090809Y-24007951D01*
X10090809Y-24007951D02*
X10081285Y-24046046D01*
X10081285Y-24046046D02*
X10071761Y-24065093D01*
X10071761Y-24065093D02*
X10062237Y-24074617D01*
X10062237Y-24074617D02*
X10043190Y-24084141D01*
X10043190Y-24084141D02*
X10024142Y-24084141D01*
X10024142Y-24084141D02*
X10005094Y-24074617D01*
X10005094Y-24074617D02*
X9995571Y-24065093D01*
X9995571Y-24065093D02*
X9986047Y-24046046D01*
X9986047Y-24046046D02*
X9976523Y-24007951D01*
X9976523Y-24007951D02*
X9976523Y-23960332D01*
X9976523Y-23960332D02*
X9986047Y-23922236D01*
X9986047Y-23922236D02*
X9995571Y-23903189D01*
X9995571Y-23903189D02*
X10005094Y-23893665D01*
X10005094Y-23893665D02*
X10024142Y-23884141D01*
X10157475Y-23884141D02*
X10290809Y-23884141D01*
X10290809Y-23884141D02*
X10205094Y-24084141D01*
X10452714Y-23950808D02*
X10452714Y-24084141D01*
X10405094Y-23874617D02*
X10357475Y-24017474D01*
X10357475Y-24017474D02*
X10481285Y-24017474D01*
X10586047Y-23969855D02*
X10566999Y-23960332D01*
X10566999Y-23960332D02*
X10557475Y-23950808D01*
X10557475Y-23950808D02*
X10547952Y-23931760D01*
X10547952Y-23931760D02*
X10547952Y-23922236D01*
X10547952Y-23922236D02*
X10557475Y-23903189D01*
X10557475Y-23903189D02*
X10566999Y-23893665D01*
X10566999Y-23893665D02*
X10586047Y-23884141D01*
X10586047Y-23884141D02*
X10624142Y-23884141D01*
X10624142Y-23884141D02*
X10643190Y-23893665D01*
X10643190Y-23893665D02*
X10652714Y-23903189D01*
X10652714Y-23903189D02*
X10662237Y-23922236D01*
X10662237Y-23922236D02*
X10662237Y-23931760D01*
X10662237Y-23931760D02*
X10652714Y-23950808D01*
X10652714Y-23950808D02*
X10643190Y-23960332D01*
X10643190Y-23960332D02*
X10624142Y-23969855D01*
X10624142Y-23969855D02*
X10586047Y-23969855D01*
X10586047Y-23969855D02*
X10566999Y-23979379D01*
X10566999Y-23979379D02*
X10557475Y-23988903D01*
X10557475Y-23988903D02*
X10547952Y-24007951D01*
X10547952Y-24007951D02*
X10547952Y-24046046D01*
X10547952Y-24046046D02*
X10557475Y-24065093D01*
X10557475Y-24065093D02*
X10566999Y-24074617D01*
X10566999Y-24074617D02*
X10586047Y-24084141D01*
X10586047Y-24084141D02*
X10624142Y-24084141D01*
X10624142Y-24084141D02*
X10643190Y-24074617D01*
X10643190Y-24074617D02*
X10652714Y-24065093D01*
X10652714Y-24065093D02*
X10662237Y-24046046D01*
X10662237Y-24046046D02*
X10662237Y-24007951D01*
X10662237Y-24007951D02*
X10652714Y-23988903D01*
X10652714Y-23988903D02*
X10643190Y-23979379D01*
X10643190Y-23979379D02*
X10624142Y-23969855D01*
X10738428Y-23884141D02*
X10738428Y-23922236D01*
X10814618Y-23884141D02*
X10814618Y-23922236D01*
X11109857Y-24160332D02*
X11100333Y-24150808D01*
X11100333Y-24150808D02*
X11081285Y-24122236D01*
X11081285Y-24122236D02*
X11071761Y-24103189D01*
X11071761Y-24103189D02*
X11062237Y-24074617D01*
X11062237Y-24074617D02*
X11052714Y-24026998D01*
X11052714Y-24026998D02*
X11052714Y-23988903D01*
X11052714Y-23988903D02*
X11062237Y-23941284D01*
X11062237Y-23941284D02*
X11071761Y-23912713D01*
X11071761Y-23912713D02*
X11081285Y-23893665D01*
X11081285Y-23893665D02*
X11100333Y-23865093D01*
X11100333Y-23865093D02*
X11109857Y-23855570D01*
X11214618Y-23969855D02*
X11195571Y-23960332D01*
X11195571Y-23960332D02*
X11186047Y-23950808D01*
X11186047Y-23950808D02*
X11176523Y-23931760D01*
X11176523Y-23931760D02*
X11176523Y-23922236D01*
X11176523Y-23922236D02*
X11186047Y-23903189D01*
X11186047Y-23903189D02*
X11195571Y-23893665D01*
X11195571Y-23893665D02*
X11214618Y-23884141D01*
X11214618Y-23884141D02*
X11252714Y-23884141D01*
X11252714Y-23884141D02*
X11271761Y-23893665D01*
X11271761Y-23893665D02*
X11281285Y-23903189D01*
X11281285Y-23903189D02*
X11290809Y-23922236D01*
X11290809Y-23922236D02*
X11290809Y-23931760D01*
X11290809Y-23931760D02*
X11281285Y-23950808D01*
X11281285Y-23950808D02*
X11271761Y-23960332D01*
X11271761Y-23960332D02*
X11252714Y-23969855D01*
X11252714Y-23969855D02*
X11214618Y-23969855D01*
X11214618Y-23969855D02*
X11195571Y-23979379D01*
X11195571Y-23979379D02*
X11186047Y-23988903D01*
X11186047Y-23988903D02*
X11176523Y-24007951D01*
X11176523Y-24007951D02*
X11176523Y-24046046D01*
X11176523Y-24046046D02*
X11186047Y-24065093D01*
X11186047Y-24065093D02*
X11195571Y-24074617D01*
X11195571Y-24074617D02*
X11214618Y-24084141D01*
X11214618Y-24084141D02*
X11252714Y-24084141D01*
X11252714Y-24084141D02*
X11271761Y-24074617D01*
X11271761Y-24074617D02*
X11281285Y-24065093D01*
X11281285Y-24065093D02*
X11290809Y-24046046D01*
X11290809Y-24046046D02*
X11290809Y-24007951D01*
X11290809Y-24007951D02*
X11281285Y-23988903D01*
X11281285Y-23988903D02*
X11271761Y-23979379D01*
X11271761Y-23979379D02*
X11252714Y-23969855D01*
X11405094Y-23969855D02*
X11386047Y-23960332D01*
X11386047Y-23960332D02*
X11376523Y-23950808D01*
X11376523Y-23950808D02*
X11366999Y-23931760D01*
X11366999Y-23931760D02*
X11366999Y-23922236D01*
X11366999Y-23922236D02*
X11376523Y-23903189D01*
X11376523Y-23903189D02*
X11386047Y-23893665D01*
X11386047Y-23893665D02*
X11405094Y-23884141D01*
X11405094Y-23884141D02*
X11443190Y-23884141D01*
X11443190Y-23884141D02*
X11462237Y-23893665D01*
X11462237Y-23893665D02*
X11471761Y-23903189D01*
X11471761Y-23903189D02*
X11481285Y-23922236D01*
X11481285Y-23922236D02*
X11481285Y-23931760D01*
X11481285Y-23931760D02*
X11471761Y-23950808D01*
X11471761Y-23950808D02*
X11462237Y-23960332D01*
X11462237Y-23960332D02*
X11443190Y-23969855D01*
X11443190Y-23969855D02*
X11405094Y-23969855D01*
X11405094Y-23969855D02*
X11386047Y-23979379D01*
X11386047Y-23979379D02*
X11376523Y-23988903D01*
X11376523Y-23988903D02*
X11366999Y-24007951D01*
X11366999Y-24007951D02*
X11366999Y-24046046D01*
X11366999Y-24046046D02*
X11376523Y-24065093D01*
X11376523Y-24065093D02*
X11386047Y-24074617D01*
X11386047Y-24074617D02*
X11405094Y-24084141D01*
X11405094Y-24084141D02*
X11443190Y-24084141D01*
X11443190Y-24084141D02*
X11462237Y-24074617D01*
X11462237Y-24074617D02*
X11471761Y-24065093D01*
X11471761Y-24065093D02*
X11481285Y-24046046D01*
X11481285Y-24046046D02*
X11481285Y-24007951D01*
X11481285Y-24007951D02*
X11471761Y-23988903D01*
X11471761Y-23988903D02*
X11462237Y-23979379D01*
X11462237Y-23979379D02*
X11443190Y-23969855D01*
X11719380Y-24084141D02*
X11719380Y-23884141D01*
X11805095Y-24084141D02*
X11805095Y-23979379D01*
X11805095Y-23979379D02*
X11795571Y-23960332D01*
X11795571Y-23960332D02*
X11776523Y-23950808D01*
X11776523Y-23950808D02*
X11747952Y-23950808D01*
X11747952Y-23950808D02*
X11728904Y-23960332D01*
X11728904Y-23960332D02*
X11719380Y-23969855D01*
X11928904Y-24084141D02*
X11909856Y-24074617D01*
X11909856Y-24074617D02*
X11900333Y-24065093D01*
X11900333Y-24065093D02*
X11890809Y-24046046D01*
X11890809Y-24046046D02*
X11890809Y-23988903D01*
X11890809Y-23988903D02*
X11900333Y-23969855D01*
X11900333Y-23969855D02*
X11909856Y-23960332D01*
X11909856Y-23960332D02*
X11928904Y-23950808D01*
X11928904Y-23950808D02*
X11957476Y-23950808D01*
X11957476Y-23950808D02*
X11976523Y-23960332D01*
X11976523Y-23960332D02*
X11986047Y-23969855D01*
X11986047Y-23969855D02*
X11995571Y-23988903D01*
X11995571Y-23988903D02*
X11995571Y-24046046D01*
X11995571Y-24046046D02*
X11986047Y-24065093D01*
X11986047Y-24065093D02*
X11976523Y-24074617D01*
X11976523Y-24074617D02*
X11957476Y-24084141D01*
X11957476Y-24084141D02*
X11928904Y-24084141D01*
X12109856Y-24084141D02*
X12090809Y-24074617D01*
X12090809Y-24074617D02*
X12081285Y-24055570D01*
X12081285Y-24055570D02*
X12081285Y-23884141D01*
X12262237Y-24074617D02*
X12243190Y-24084141D01*
X12243190Y-24084141D02*
X12205095Y-24084141D01*
X12205095Y-24084141D02*
X12186047Y-24074617D01*
X12186047Y-24074617D02*
X12176523Y-24055570D01*
X12176523Y-24055570D02*
X12176523Y-23979379D01*
X12176523Y-23979379D02*
X12186047Y-23960332D01*
X12186047Y-23960332D02*
X12205095Y-23950808D01*
X12205095Y-23950808D02*
X12243190Y-23950808D01*
X12243190Y-23950808D02*
X12262237Y-23960332D01*
X12262237Y-23960332D02*
X12271761Y-23979379D01*
X12271761Y-23979379D02*
X12271761Y-23998427D01*
X12271761Y-23998427D02*
X12176523Y-24017474D01*
X12347952Y-24074617D02*
X12366999Y-24084141D01*
X12366999Y-24084141D02*
X12405095Y-24084141D01*
X12405095Y-24084141D02*
X12424142Y-24074617D01*
X12424142Y-24074617D02*
X12433666Y-24055570D01*
X12433666Y-24055570D02*
X12433666Y-24046046D01*
X12433666Y-24046046D02*
X12424142Y-24026998D01*
X12424142Y-24026998D02*
X12405095Y-24017474D01*
X12405095Y-24017474D02*
X12376523Y-24017474D01*
X12376523Y-24017474D02*
X12357476Y-24007951D01*
X12357476Y-24007951D02*
X12347952Y-23988903D01*
X12347952Y-23988903D02*
X12347952Y-23979379D01*
X12347952Y-23979379D02*
X12357476Y-23960332D01*
X12357476Y-23960332D02*
X12376523Y-23950808D01*
X12376523Y-23950808D02*
X12405095Y-23950808D01*
X12405095Y-23950808D02*
X12424142Y-23960332D01*
X12500333Y-24160332D02*
X12509857Y-24150808D01*
X12509857Y-24150808D02*
X12528904Y-24122236D01*
X12528904Y-24122236D02*
X12538428Y-24103189D01*
X12538428Y-24103189D02*
X12547952Y-24074617D01*
X12547952Y-24074617D02*
X12557476Y-24026998D01*
X12557476Y-24026998D02*
X12557476Y-23988903D01*
X12557476Y-23988903D02*
X12547952Y-23941284D01*
X12547952Y-23941284D02*
X12538428Y-23912713D01*
X12538428Y-23912713D02*
X12528904Y-23893665D01*
X12528904Y-23893665D02*
X12509857Y-23865093D01*
X12509857Y-23865093D02*
X12500333Y-23855570D01*
X12862238Y-24160332D02*
X12852714Y-24150808D01*
X12852714Y-24150808D02*
X12833666Y-24122236D01*
X12833666Y-24122236D02*
X12824142Y-24103189D01*
X12824142Y-24103189D02*
X12814618Y-24074617D01*
X12814618Y-24074617D02*
X12805095Y-24026998D01*
X12805095Y-24026998D02*
X12805095Y-23988903D01*
X12805095Y-23988903D02*
X12814618Y-23941284D01*
X12814618Y-23941284D02*
X12824142Y-23912713D01*
X12824142Y-23912713D02*
X12833666Y-23893665D01*
X12833666Y-23893665D02*
X12852714Y-23865093D01*
X12852714Y-23865093D02*
X12862238Y-23855570D01*
X12938428Y-23950808D02*
X12938428Y-24084141D01*
X12938428Y-23969855D02*
X12947952Y-23960332D01*
X12947952Y-23960332D02*
X12966999Y-23950808D01*
X12966999Y-23950808D02*
X12995571Y-23950808D01*
X12995571Y-23950808D02*
X13014618Y-23960332D01*
X13014618Y-23960332D02*
X13024142Y-23979379D01*
X13024142Y-23979379D02*
X13024142Y-24084141D01*
X13147952Y-24084141D02*
X13128904Y-24074617D01*
X13128904Y-24074617D02*
X13119380Y-24065093D01*
X13119380Y-24065093D02*
X13109857Y-24046046D01*
X13109857Y-24046046D02*
X13109857Y-23988903D01*
X13109857Y-23988903D02*
X13119380Y-23969855D01*
X13119380Y-23969855D02*
X13128904Y-23960332D01*
X13128904Y-23960332D02*
X13147952Y-23950808D01*
X13147952Y-23950808D02*
X13176523Y-23950808D01*
X13176523Y-23950808D02*
X13195571Y-23960332D01*
X13195571Y-23960332D02*
X13205095Y-23969855D01*
X13205095Y-23969855D02*
X13214618Y-23988903D01*
X13214618Y-23988903D02*
X13214618Y-24046046D01*
X13214618Y-24046046D02*
X13205095Y-24065093D01*
X13205095Y-24065093D02*
X13195571Y-24074617D01*
X13195571Y-24074617D02*
X13176523Y-24084141D01*
X13176523Y-24084141D02*
X13147952Y-24084141D01*
X13271761Y-23950808D02*
X13347952Y-23950808D01*
X13300333Y-23884141D02*
X13300333Y-24055570D01*
X13300333Y-24055570D02*
X13309857Y-24074617D01*
X13309857Y-24074617D02*
X13328904Y-24084141D01*
X13328904Y-24084141D02*
X13347952Y-24084141D01*
X13566999Y-23950808D02*
X13566999Y-24150808D01*
X13566999Y-23960332D02*
X13586047Y-23950808D01*
X13586047Y-23950808D02*
X13624142Y-23950808D01*
X13624142Y-23950808D02*
X13643190Y-23960332D01*
X13643190Y-23960332D02*
X13652714Y-23969855D01*
X13652714Y-23969855D02*
X13662238Y-23988903D01*
X13662238Y-23988903D02*
X13662238Y-24046046D01*
X13662238Y-24046046D02*
X13652714Y-24065093D01*
X13652714Y-24065093D02*
X13643190Y-24074617D01*
X13643190Y-24074617D02*
X13624142Y-24084141D01*
X13624142Y-24084141D02*
X13586047Y-24084141D01*
X13586047Y-24084141D02*
X13566999Y-24074617D01*
X13776523Y-24084141D02*
X13757476Y-24074617D01*
X13757476Y-24074617D02*
X13747952Y-24055570D01*
X13747952Y-24055570D02*
X13747952Y-23884141D01*
X13938428Y-24084141D02*
X13938428Y-23979379D01*
X13938428Y-23979379D02*
X13928904Y-23960332D01*
X13928904Y-23960332D02*
X13909857Y-23950808D01*
X13909857Y-23950808D02*
X13871761Y-23950808D01*
X13871761Y-23950808D02*
X13852714Y-23960332D01*
X13938428Y-24074617D02*
X13919380Y-24084141D01*
X13919380Y-24084141D02*
X13871761Y-24084141D01*
X13871761Y-24084141D02*
X13852714Y-24074617D01*
X13852714Y-24074617D02*
X13843190Y-24055570D01*
X13843190Y-24055570D02*
X13843190Y-24036522D01*
X13843190Y-24036522D02*
X13852714Y-24017474D01*
X13852714Y-24017474D02*
X13871761Y-24007951D01*
X13871761Y-24007951D02*
X13919380Y-24007951D01*
X13919380Y-24007951D02*
X13938428Y-23998427D01*
X14005095Y-23950808D02*
X14081285Y-23950808D01*
X14033666Y-23884141D02*
X14033666Y-24055570D01*
X14033666Y-24055570D02*
X14043190Y-24074617D01*
X14043190Y-24074617D02*
X14062238Y-24084141D01*
X14062238Y-24084141D02*
X14081285Y-24084141D01*
X14224142Y-24074617D02*
X14205095Y-24084141D01*
X14205095Y-24084141D02*
X14166999Y-24084141D01*
X14166999Y-24084141D02*
X14147952Y-24074617D01*
X14147952Y-24074617D02*
X14138428Y-24055570D01*
X14138428Y-24055570D02*
X14138428Y-23979379D01*
X14138428Y-23979379D02*
X14147952Y-23960332D01*
X14147952Y-23960332D02*
X14166999Y-23950808D01*
X14166999Y-23950808D02*
X14205095Y-23950808D01*
X14205095Y-23950808D02*
X14224142Y-23960332D01*
X14224142Y-23960332D02*
X14233666Y-23979379D01*
X14233666Y-23979379D02*
X14233666Y-23998427D01*
X14233666Y-23998427D02*
X14138428Y-24017474D01*
X14405095Y-24084141D02*
X14405095Y-23884141D01*
X14405095Y-24074617D02*
X14386047Y-24084141D01*
X14386047Y-24084141D02*
X14347952Y-24084141D01*
X14347952Y-24084141D02*
X14328904Y-24074617D01*
X14328904Y-24074617D02*
X14319380Y-24065093D01*
X14319380Y-24065093D02*
X14309857Y-24046046D01*
X14309857Y-24046046D02*
X14309857Y-23988903D01*
X14309857Y-23988903D02*
X14319380Y-23969855D01*
X14319380Y-23969855D02*
X14328904Y-23960332D01*
X14328904Y-23960332D02*
X14347952Y-23950808D01*
X14347952Y-23950808D02*
X14386047Y-23950808D01*
X14386047Y-23950808D02*
X14405095Y-23960332D01*
X14481285Y-24160332D02*
X14490809Y-24150808D01*
X14490809Y-24150808D02*
X14509857Y-24122236D01*
X14509857Y-24122236D02*
X14519380Y-24103189D01*
X14519380Y-24103189D02*
X14528904Y-24074617D01*
X14528904Y-24074617D02*
X14538428Y-24026998D01*
X14538428Y-24026998D02*
X14538428Y-23988903D01*
X14538428Y-23988903D02*
X14528904Y-23941284D01*
X14528904Y-23941284D02*
X14519380Y-23912713D01*
X14519380Y-23912713D02*
X14509857Y-23893665D01*
X14509857Y-23893665D02*
X14490809Y-23865093D01*
X14490809Y-23865093D02*
X14481285Y-23855570D01*
X7434794Y-24202657D02*
X7434794Y-24402657D01*
X7334794Y-24302657D02*
X7534794Y-24302657D01*
X7776523Y-24194141D02*
X7900332Y-24194141D01*
X7900332Y-24194141D02*
X7833666Y-24270332D01*
X7833666Y-24270332D02*
X7862237Y-24270332D01*
X7862237Y-24270332D02*
X7881285Y-24279855D01*
X7881285Y-24279855D02*
X7890808Y-24289379D01*
X7890808Y-24289379D02*
X7900332Y-24308427D01*
X7900332Y-24308427D02*
X7900332Y-24356046D01*
X7900332Y-24356046D02*
X7890808Y-24375093D01*
X7890808Y-24375093D02*
X7881285Y-24384617D01*
X7881285Y-24384617D02*
X7862237Y-24394141D01*
X7862237Y-24394141D02*
X7805094Y-24394141D01*
X7805094Y-24394141D02*
X7786047Y-24384617D01*
X7786047Y-24384617D02*
X7776523Y-24375093D01*
X7986047Y-24375093D02*
X7995570Y-24384617D01*
X7995570Y-24384617D02*
X7986047Y-24394141D01*
X7986047Y-24394141D02*
X7976523Y-24384617D01*
X7976523Y-24384617D02*
X7986047Y-24375093D01*
X7986047Y-24375093D02*
X7986047Y-24394141D01*
X8119380Y-24194141D02*
X8138428Y-24194141D01*
X8138428Y-24194141D02*
X8157475Y-24203665D01*
X8157475Y-24203665D02*
X8166999Y-24213189D01*
X8166999Y-24213189D02*
X8176523Y-24232236D01*
X8176523Y-24232236D02*
X8186047Y-24270332D01*
X8186047Y-24270332D02*
X8186047Y-24317951D01*
X8186047Y-24317951D02*
X8176523Y-24356046D01*
X8176523Y-24356046D02*
X8166999Y-24375093D01*
X8166999Y-24375093D02*
X8157475Y-24384617D01*
X8157475Y-24384617D02*
X8138428Y-24394141D01*
X8138428Y-24394141D02*
X8119380Y-24394141D01*
X8119380Y-24394141D02*
X8100332Y-24384617D01*
X8100332Y-24384617D02*
X8090808Y-24375093D01*
X8090808Y-24375093D02*
X8081285Y-24356046D01*
X8081285Y-24356046D02*
X8071761Y-24317951D01*
X8071761Y-24317951D02*
X8071761Y-24270332D01*
X8071761Y-24270332D02*
X8081285Y-24232236D01*
X8081285Y-24232236D02*
X8090808Y-24213189D01*
X8090808Y-24213189D02*
X8100332Y-24203665D01*
X8100332Y-24203665D02*
X8119380Y-24194141D01*
X8366999Y-24194141D02*
X8271761Y-24194141D01*
X8271761Y-24194141D02*
X8262237Y-24289379D01*
X8262237Y-24289379D02*
X8271761Y-24279855D01*
X8271761Y-24279855D02*
X8290808Y-24270332D01*
X8290808Y-24270332D02*
X8338428Y-24270332D01*
X8338428Y-24270332D02*
X8357475Y-24279855D01*
X8357475Y-24279855D02*
X8366999Y-24289379D01*
X8366999Y-24289379D02*
X8376523Y-24308427D01*
X8376523Y-24308427D02*
X8376523Y-24356046D01*
X8376523Y-24356046D02*
X8366999Y-24375093D01*
X8366999Y-24375093D02*
X8357475Y-24384617D01*
X8357475Y-24384617D02*
X8338428Y-24394141D01*
X8338428Y-24394141D02*
X8290808Y-24394141D01*
X8290808Y-24394141D02*
X8271761Y-24384617D01*
X8271761Y-24384617D02*
X8262237Y-24375093D01*
X8500332Y-24194141D02*
X8519380Y-24194141D01*
X8519380Y-24194141D02*
X8538428Y-24203665D01*
X8538428Y-24203665D02*
X8547951Y-24213189D01*
X8547951Y-24213189D02*
X8557475Y-24232236D01*
X8557475Y-24232236D02*
X8566999Y-24270332D01*
X8566999Y-24270332D02*
X8566999Y-24317951D01*
X8566999Y-24317951D02*
X8557475Y-24356046D01*
X8557475Y-24356046D02*
X8547951Y-24375093D01*
X8547951Y-24375093D02*
X8538428Y-24384617D01*
X8538428Y-24384617D02*
X8519380Y-24394141D01*
X8519380Y-24394141D02*
X8500332Y-24394141D01*
X8500332Y-24394141D02*
X8481285Y-24384617D01*
X8481285Y-24384617D02*
X8471761Y-24375093D01*
X8471761Y-24375093D02*
X8462237Y-24356046D01*
X8462237Y-24356046D02*
X8452713Y-24317951D01*
X8452713Y-24317951D02*
X8452713Y-24270332D01*
X8452713Y-24270332D02*
X8462237Y-24232236D01*
X8462237Y-24232236D02*
X8471761Y-24213189D01*
X8471761Y-24213189D02*
X8481285Y-24203665D01*
X8481285Y-24203665D02*
X8500332Y-24194141D01*
X8652713Y-24394141D02*
X8652713Y-24260808D01*
X8652713Y-24279855D02*
X8662237Y-24270332D01*
X8662237Y-24270332D02*
X8681285Y-24260808D01*
X8681285Y-24260808D02*
X8709856Y-24260808D01*
X8709856Y-24260808D02*
X8728904Y-24270332D01*
X8728904Y-24270332D02*
X8738428Y-24289379D01*
X8738428Y-24289379D02*
X8738428Y-24394141D01*
X8738428Y-24289379D02*
X8747951Y-24270332D01*
X8747951Y-24270332D02*
X8766999Y-24260808D01*
X8766999Y-24260808D02*
X8795570Y-24260808D01*
X8795570Y-24260808D02*
X8814618Y-24270332D01*
X8814618Y-24270332D02*
X8824142Y-24289379D01*
X8824142Y-24289379D02*
X8824142Y-24394141D01*
X8919380Y-24394141D02*
X8919380Y-24260808D01*
X8919380Y-24279855D02*
X8928904Y-24270332D01*
X8928904Y-24270332D02*
X8947951Y-24260808D01*
X8947951Y-24260808D02*
X8976523Y-24260808D01*
X8976523Y-24260808D02*
X8995571Y-24270332D01*
X8995571Y-24270332D02*
X9005094Y-24289379D01*
X9005094Y-24289379D02*
X9005094Y-24394141D01*
X9005094Y-24289379D02*
X9014618Y-24270332D01*
X9014618Y-24270332D02*
X9033666Y-24260808D01*
X9033666Y-24260808D02*
X9062237Y-24260808D01*
X9062237Y-24260808D02*
X9081285Y-24270332D01*
X9081285Y-24270332D02*
X9090809Y-24289379D01*
X9090809Y-24289379D02*
X9090809Y-24394141D01*
X9481285Y-24184617D02*
X9309856Y-24441760D01*
X9738428Y-24194141D02*
X9757475Y-24194141D01*
X9757475Y-24194141D02*
X9776523Y-24203665D01*
X9776523Y-24203665D02*
X9786047Y-24213189D01*
X9786047Y-24213189D02*
X9795571Y-24232236D01*
X9795571Y-24232236D02*
X9805094Y-24270332D01*
X9805094Y-24270332D02*
X9805094Y-24317951D01*
X9805094Y-24317951D02*
X9795571Y-24356046D01*
X9795571Y-24356046D02*
X9786047Y-24375093D01*
X9786047Y-24375093D02*
X9776523Y-24384617D01*
X9776523Y-24384617D02*
X9757475Y-24394141D01*
X9757475Y-24394141D02*
X9738428Y-24394141D01*
X9738428Y-24394141D02*
X9719380Y-24384617D01*
X9719380Y-24384617D02*
X9709856Y-24375093D01*
X9709856Y-24375093D02*
X9700333Y-24356046D01*
X9700333Y-24356046D02*
X9690809Y-24317951D01*
X9690809Y-24317951D02*
X9690809Y-24270332D01*
X9690809Y-24270332D02*
X9700333Y-24232236D01*
X9700333Y-24232236D02*
X9709856Y-24213189D01*
X9709856Y-24213189D02*
X9719380Y-24203665D01*
X9719380Y-24203665D02*
X9738428Y-24194141D01*
X9890809Y-24375093D02*
X9900333Y-24384617D01*
X9900333Y-24384617D02*
X9890809Y-24394141D01*
X9890809Y-24394141D02*
X9881285Y-24384617D01*
X9881285Y-24384617D02*
X9890809Y-24375093D01*
X9890809Y-24375093D02*
X9890809Y-24394141D01*
X10090809Y-24394141D02*
X9976523Y-24394141D01*
X10033666Y-24394141D02*
X10033666Y-24194141D01*
X10033666Y-24194141D02*
X10014618Y-24222713D01*
X10014618Y-24222713D02*
X9995571Y-24241760D01*
X9995571Y-24241760D02*
X9976523Y-24251284D01*
X10166999Y-24213189D02*
X10176523Y-24203665D01*
X10176523Y-24203665D02*
X10195571Y-24194141D01*
X10195571Y-24194141D02*
X10243190Y-24194141D01*
X10243190Y-24194141D02*
X10262237Y-24203665D01*
X10262237Y-24203665D02*
X10271761Y-24213189D01*
X10271761Y-24213189D02*
X10281285Y-24232236D01*
X10281285Y-24232236D02*
X10281285Y-24251284D01*
X10281285Y-24251284D02*
X10271761Y-24279855D01*
X10271761Y-24279855D02*
X10157475Y-24394141D01*
X10157475Y-24394141D02*
X10281285Y-24394141D01*
X10405094Y-24194141D02*
X10424142Y-24194141D01*
X10424142Y-24194141D02*
X10443190Y-24203665D01*
X10443190Y-24203665D02*
X10452714Y-24213189D01*
X10452714Y-24213189D02*
X10462237Y-24232236D01*
X10462237Y-24232236D02*
X10471761Y-24270332D01*
X10471761Y-24270332D02*
X10471761Y-24317951D01*
X10471761Y-24317951D02*
X10462237Y-24356046D01*
X10462237Y-24356046D02*
X10452714Y-24375093D01*
X10452714Y-24375093D02*
X10443190Y-24384617D01*
X10443190Y-24384617D02*
X10424142Y-24394141D01*
X10424142Y-24394141D02*
X10405094Y-24394141D01*
X10405094Y-24394141D02*
X10386047Y-24384617D01*
X10386047Y-24384617D02*
X10376523Y-24375093D01*
X10376523Y-24375093D02*
X10366999Y-24356046D01*
X10366999Y-24356046D02*
X10357475Y-24317951D01*
X10357475Y-24317951D02*
X10357475Y-24270332D01*
X10357475Y-24270332D02*
X10366999Y-24232236D01*
X10366999Y-24232236D02*
X10376523Y-24213189D01*
X10376523Y-24213189D02*
X10386047Y-24203665D01*
X10386047Y-24203665D02*
X10405094Y-24194141D01*
X10662237Y-24394141D02*
X10547952Y-24394141D01*
X10605094Y-24394141D02*
X10605094Y-24194141D01*
X10605094Y-24194141D02*
X10586047Y-24222713D01*
X10586047Y-24222713D02*
X10566999Y-24241760D01*
X10566999Y-24241760D02*
X10547952Y-24251284D01*
X10738428Y-24194141D02*
X10738428Y-24232236D01*
X10814618Y-24194141D02*
X10814618Y-24232236D01*
X11109857Y-24470332D02*
X11100333Y-24460808D01*
X11100333Y-24460808D02*
X11081285Y-24432236D01*
X11081285Y-24432236D02*
X11071761Y-24413189D01*
X11071761Y-24413189D02*
X11062237Y-24384617D01*
X11062237Y-24384617D02*
X11052714Y-24336998D01*
X11052714Y-24336998D02*
X11052714Y-24298903D01*
X11052714Y-24298903D02*
X11062237Y-24251284D01*
X11062237Y-24251284D02*
X11071761Y-24222713D01*
X11071761Y-24222713D02*
X11081285Y-24203665D01*
X11081285Y-24203665D02*
X11100333Y-24175093D01*
X11100333Y-24175093D02*
X11109857Y-24165570D01*
X11214618Y-24279855D02*
X11195571Y-24270332D01*
X11195571Y-24270332D02*
X11186047Y-24260808D01*
X11186047Y-24260808D02*
X11176523Y-24241760D01*
X11176523Y-24241760D02*
X11176523Y-24232236D01*
X11176523Y-24232236D02*
X11186047Y-24213189D01*
X11186047Y-24213189D02*
X11195571Y-24203665D01*
X11195571Y-24203665D02*
X11214618Y-24194141D01*
X11214618Y-24194141D02*
X11252714Y-24194141D01*
X11252714Y-24194141D02*
X11271761Y-24203665D01*
X11271761Y-24203665D02*
X11281285Y-24213189D01*
X11281285Y-24213189D02*
X11290809Y-24232236D01*
X11290809Y-24232236D02*
X11290809Y-24241760D01*
X11290809Y-24241760D02*
X11281285Y-24260808D01*
X11281285Y-24260808D02*
X11271761Y-24270332D01*
X11271761Y-24270332D02*
X11252714Y-24279855D01*
X11252714Y-24279855D02*
X11214618Y-24279855D01*
X11214618Y-24279855D02*
X11195571Y-24289379D01*
X11195571Y-24289379D02*
X11186047Y-24298903D01*
X11186047Y-24298903D02*
X11176523Y-24317951D01*
X11176523Y-24317951D02*
X11176523Y-24356046D01*
X11176523Y-24356046D02*
X11186047Y-24375093D01*
X11186047Y-24375093D02*
X11195571Y-24384617D01*
X11195571Y-24384617D02*
X11214618Y-24394141D01*
X11214618Y-24394141D02*
X11252714Y-24394141D01*
X11252714Y-24394141D02*
X11271761Y-24384617D01*
X11271761Y-24384617D02*
X11281285Y-24375093D01*
X11281285Y-24375093D02*
X11290809Y-24356046D01*
X11290809Y-24356046D02*
X11290809Y-24317951D01*
X11290809Y-24317951D02*
X11281285Y-24298903D01*
X11281285Y-24298903D02*
X11271761Y-24289379D01*
X11271761Y-24289379D02*
X11252714Y-24279855D01*
X11405094Y-24279855D02*
X11386047Y-24270332D01*
X11386047Y-24270332D02*
X11376523Y-24260808D01*
X11376523Y-24260808D02*
X11366999Y-24241760D01*
X11366999Y-24241760D02*
X11366999Y-24232236D01*
X11366999Y-24232236D02*
X11376523Y-24213189D01*
X11376523Y-24213189D02*
X11386047Y-24203665D01*
X11386047Y-24203665D02*
X11405094Y-24194141D01*
X11405094Y-24194141D02*
X11443190Y-24194141D01*
X11443190Y-24194141D02*
X11462237Y-24203665D01*
X11462237Y-24203665D02*
X11471761Y-24213189D01*
X11471761Y-24213189D02*
X11481285Y-24232236D01*
X11481285Y-24232236D02*
X11481285Y-24241760D01*
X11481285Y-24241760D02*
X11471761Y-24260808D01*
X11471761Y-24260808D02*
X11462237Y-24270332D01*
X11462237Y-24270332D02*
X11443190Y-24279855D01*
X11443190Y-24279855D02*
X11405094Y-24279855D01*
X11405094Y-24279855D02*
X11386047Y-24289379D01*
X11386047Y-24289379D02*
X11376523Y-24298903D01*
X11376523Y-24298903D02*
X11366999Y-24317951D01*
X11366999Y-24317951D02*
X11366999Y-24356046D01*
X11366999Y-24356046D02*
X11376523Y-24375093D01*
X11376523Y-24375093D02*
X11386047Y-24384617D01*
X11386047Y-24384617D02*
X11405094Y-24394141D01*
X11405094Y-24394141D02*
X11443190Y-24394141D01*
X11443190Y-24394141D02*
X11462237Y-24384617D01*
X11462237Y-24384617D02*
X11471761Y-24375093D01*
X11471761Y-24375093D02*
X11481285Y-24356046D01*
X11481285Y-24356046D02*
X11481285Y-24317951D01*
X11481285Y-24317951D02*
X11471761Y-24298903D01*
X11471761Y-24298903D02*
X11462237Y-24289379D01*
X11462237Y-24289379D02*
X11443190Y-24279855D01*
X11719380Y-24394141D02*
X11719380Y-24194141D01*
X11805095Y-24394141D02*
X11805095Y-24289379D01*
X11805095Y-24289379D02*
X11795571Y-24270332D01*
X11795571Y-24270332D02*
X11776523Y-24260808D01*
X11776523Y-24260808D02*
X11747952Y-24260808D01*
X11747952Y-24260808D02*
X11728904Y-24270332D01*
X11728904Y-24270332D02*
X11719380Y-24279855D01*
X11928904Y-24394141D02*
X11909856Y-24384617D01*
X11909856Y-24384617D02*
X11900333Y-24375093D01*
X11900333Y-24375093D02*
X11890809Y-24356046D01*
X11890809Y-24356046D02*
X11890809Y-24298903D01*
X11890809Y-24298903D02*
X11900333Y-24279855D01*
X11900333Y-24279855D02*
X11909856Y-24270332D01*
X11909856Y-24270332D02*
X11928904Y-24260808D01*
X11928904Y-24260808D02*
X11957476Y-24260808D01*
X11957476Y-24260808D02*
X11976523Y-24270332D01*
X11976523Y-24270332D02*
X11986047Y-24279855D01*
X11986047Y-24279855D02*
X11995571Y-24298903D01*
X11995571Y-24298903D02*
X11995571Y-24356046D01*
X11995571Y-24356046D02*
X11986047Y-24375093D01*
X11986047Y-24375093D02*
X11976523Y-24384617D01*
X11976523Y-24384617D02*
X11957476Y-24394141D01*
X11957476Y-24394141D02*
X11928904Y-24394141D01*
X12109856Y-24394141D02*
X12090809Y-24384617D01*
X12090809Y-24384617D02*
X12081285Y-24365570D01*
X12081285Y-24365570D02*
X12081285Y-24194141D01*
X12262237Y-24384617D02*
X12243190Y-24394141D01*
X12243190Y-24394141D02*
X12205095Y-24394141D01*
X12205095Y-24394141D02*
X12186047Y-24384617D01*
X12186047Y-24384617D02*
X12176523Y-24365570D01*
X12176523Y-24365570D02*
X12176523Y-24289379D01*
X12176523Y-24289379D02*
X12186047Y-24270332D01*
X12186047Y-24270332D02*
X12205095Y-24260808D01*
X12205095Y-24260808D02*
X12243190Y-24260808D01*
X12243190Y-24260808D02*
X12262237Y-24270332D01*
X12262237Y-24270332D02*
X12271761Y-24289379D01*
X12271761Y-24289379D02*
X12271761Y-24308427D01*
X12271761Y-24308427D02*
X12176523Y-24327474D01*
X12347952Y-24384617D02*
X12366999Y-24394141D01*
X12366999Y-24394141D02*
X12405095Y-24394141D01*
X12405095Y-24394141D02*
X12424142Y-24384617D01*
X12424142Y-24384617D02*
X12433666Y-24365570D01*
X12433666Y-24365570D02*
X12433666Y-24356046D01*
X12433666Y-24356046D02*
X12424142Y-24336998D01*
X12424142Y-24336998D02*
X12405095Y-24327474D01*
X12405095Y-24327474D02*
X12376523Y-24327474D01*
X12376523Y-24327474D02*
X12357476Y-24317951D01*
X12357476Y-24317951D02*
X12347952Y-24298903D01*
X12347952Y-24298903D02*
X12347952Y-24289379D01*
X12347952Y-24289379D02*
X12357476Y-24270332D01*
X12357476Y-24270332D02*
X12376523Y-24260808D01*
X12376523Y-24260808D02*
X12405095Y-24260808D01*
X12405095Y-24260808D02*
X12424142Y-24270332D01*
X12500333Y-24470332D02*
X12509857Y-24460808D01*
X12509857Y-24460808D02*
X12528904Y-24432236D01*
X12528904Y-24432236D02*
X12538428Y-24413189D01*
X12538428Y-24413189D02*
X12547952Y-24384617D01*
X12547952Y-24384617D02*
X12557476Y-24336998D01*
X12557476Y-24336998D02*
X12557476Y-24298903D01*
X12557476Y-24298903D02*
X12547952Y-24251284D01*
X12547952Y-24251284D02*
X12538428Y-24222713D01*
X12538428Y-24222713D02*
X12528904Y-24203665D01*
X12528904Y-24203665D02*
X12509857Y-24175093D01*
X12509857Y-24175093D02*
X12500333Y-24165570D01*
X12862238Y-24470332D02*
X12852714Y-24460808D01*
X12852714Y-24460808D02*
X12833666Y-24432236D01*
X12833666Y-24432236D02*
X12824142Y-24413189D01*
X12824142Y-24413189D02*
X12814618Y-24384617D01*
X12814618Y-24384617D02*
X12805095Y-24336998D01*
X12805095Y-24336998D02*
X12805095Y-24298903D01*
X12805095Y-24298903D02*
X12814618Y-24251284D01*
X12814618Y-24251284D02*
X12824142Y-24222713D01*
X12824142Y-24222713D02*
X12833666Y-24203665D01*
X12833666Y-24203665D02*
X12852714Y-24175093D01*
X12852714Y-24175093D02*
X12862238Y-24165570D01*
X12938428Y-24260808D02*
X12938428Y-24394141D01*
X12938428Y-24279855D02*
X12947952Y-24270332D01*
X12947952Y-24270332D02*
X12966999Y-24260808D01*
X12966999Y-24260808D02*
X12995571Y-24260808D01*
X12995571Y-24260808D02*
X13014618Y-24270332D01*
X13014618Y-24270332D02*
X13024142Y-24289379D01*
X13024142Y-24289379D02*
X13024142Y-24394141D01*
X13147952Y-24394141D02*
X13128904Y-24384617D01*
X13128904Y-24384617D02*
X13119380Y-24375093D01*
X13119380Y-24375093D02*
X13109857Y-24356046D01*
X13109857Y-24356046D02*
X13109857Y-24298903D01*
X13109857Y-24298903D02*
X13119380Y-24279855D01*
X13119380Y-24279855D02*
X13128904Y-24270332D01*
X13128904Y-24270332D02*
X13147952Y-24260808D01*
X13147952Y-24260808D02*
X13176523Y-24260808D01*
X13176523Y-24260808D02*
X13195571Y-24270332D01*
X13195571Y-24270332D02*
X13205095Y-24279855D01*
X13205095Y-24279855D02*
X13214618Y-24298903D01*
X13214618Y-24298903D02*
X13214618Y-24356046D01*
X13214618Y-24356046D02*
X13205095Y-24375093D01*
X13205095Y-24375093D02*
X13195571Y-24384617D01*
X13195571Y-24384617D02*
X13176523Y-24394141D01*
X13176523Y-24394141D02*
X13147952Y-24394141D01*
X13271761Y-24260808D02*
X13347952Y-24260808D01*
X13300333Y-24194141D02*
X13300333Y-24365570D01*
X13300333Y-24365570D02*
X13309857Y-24384617D01*
X13309857Y-24384617D02*
X13328904Y-24394141D01*
X13328904Y-24394141D02*
X13347952Y-24394141D01*
X13566999Y-24260808D02*
X13566999Y-24460808D01*
X13566999Y-24270332D02*
X13586047Y-24260808D01*
X13586047Y-24260808D02*
X13624142Y-24260808D01*
X13624142Y-24260808D02*
X13643190Y-24270332D01*
X13643190Y-24270332D02*
X13652714Y-24279855D01*
X13652714Y-24279855D02*
X13662238Y-24298903D01*
X13662238Y-24298903D02*
X13662238Y-24356046D01*
X13662238Y-24356046D02*
X13652714Y-24375093D01*
X13652714Y-24375093D02*
X13643190Y-24384617D01*
X13643190Y-24384617D02*
X13624142Y-24394141D01*
X13624142Y-24394141D02*
X13586047Y-24394141D01*
X13586047Y-24394141D02*
X13566999Y-24384617D01*
X13776523Y-24394141D02*
X13757476Y-24384617D01*
X13757476Y-24384617D02*
X13747952Y-24365570D01*
X13747952Y-24365570D02*
X13747952Y-24194141D01*
X13938428Y-24394141D02*
X13938428Y-24289379D01*
X13938428Y-24289379D02*
X13928904Y-24270332D01*
X13928904Y-24270332D02*
X13909857Y-24260808D01*
X13909857Y-24260808D02*
X13871761Y-24260808D01*
X13871761Y-24260808D02*
X13852714Y-24270332D01*
X13938428Y-24384617D02*
X13919380Y-24394141D01*
X13919380Y-24394141D02*
X13871761Y-24394141D01*
X13871761Y-24394141D02*
X13852714Y-24384617D01*
X13852714Y-24384617D02*
X13843190Y-24365570D01*
X13843190Y-24365570D02*
X13843190Y-24346522D01*
X13843190Y-24346522D02*
X13852714Y-24327474D01*
X13852714Y-24327474D02*
X13871761Y-24317951D01*
X13871761Y-24317951D02*
X13919380Y-24317951D01*
X13919380Y-24317951D02*
X13938428Y-24308427D01*
X14005095Y-24260808D02*
X14081285Y-24260808D01*
X14033666Y-24194141D02*
X14033666Y-24365570D01*
X14033666Y-24365570D02*
X14043190Y-24384617D01*
X14043190Y-24384617D02*
X14062238Y-24394141D01*
X14062238Y-24394141D02*
X14081285Y-24394141D01*
X14224142Y-24384617D02*
X14205095Y-24394141D01*
X14205095Y-24394141D02*
X14166999Y-24394141D01*
X14166999Y-24394141D02*
X14147952Y-24384617D01*
X14147952Y-24384617D02*
X14138428Y-24365570D01*
X14138428Y-24365570D02*
X14138428Y-24289379D01*
X14138428Y-24289379D02*
X14147952Y-24270332D01*
X14147952Y-24270332D02*
X14166999Y-24260808D01*
X14166999Y-24260808D02*
X14205095Y-24260808D01*
X14205095Y-24260808D02*
X14224142Y-24270332D01*
X14224142Y-24270332D02*
X14233666Y-24289379D01*
X14233666Y-24289379D02*
X14233666Y-24308427D01*
X14233666Y-24308427D02*
X14138428Y-24327474D01*
X14405095Y-24394141D02*
X14405095Y-24194141D01*
X14405095Y-24384617D02*
X14386047Y-24394141D01*
X14386047Y-24394141D02*
X14347952Y-24394141D01*
X14347952Y-24394141D02*
X14328904Y-24384617D01*
X14328904Y-24384617D02*
X14319380Y-24375093D01*
X14319380Y-24375093D02*
X14309857Y-24356046D01*
X14309857Y-24356046D02*
X14309857Y-24298903D01*
X14309857Y-24298903D02*
X14319380Y-24279855D01*
X14319380Y-24279855D02*
X14328904Y-24270332D01*
X14328904Y-24270332D02*
X14347952Y-24260808D01*
X14347952Y-24260808D02*
X14386047Y-24260808D01*
X14386047Y-24260808D02*
X14405095Y-24270332D01*
X14481285Y-24470332D02*
X14490809Y-24460808D01*
X14490809Y-24460808D02*
X14509857Y-24432236D01*
X14509857Y-24432236D02*
X14519380Y-24413189D01*
X14519380Y-24413189D02*
X14528904Y-24384617D01*
X14528904Y-24384617D02*
X14538428Y-24336998D01*
X14538428Y-24336998D02*
X14538428Y-24298903D01*
X14538428Y-24298903D02*
X14528904Y-24251284D01*
X14528904Y-24251284D02*
X14519380Y-24222713D01*
X14519380Y-24222713D02*
X14509857Y-24203665D01*
X14509857Y-24203665D02*
X14490809Y-24175093D01*
X14490809Y-24175093D02*
X14481285Y-24165570D01*
X7505505Y-24693369D02*
X7505505Y-24551946D01*
X7364082Y-24551946D01*
X7364082Y-24693369D01*
X7505505Y-24693369D01*
X7890808Y-24514141D02*
X7795570Y-24514141D01*
X7795570Y-24514141D02*
X7786047Y-24609379D01*
X7786047Y-24609379D02*
X7795570Y-24599855D01*
X7795570Y-24599855D02*
X7814618Y-24590332D01*
X7814618Y-24590332D02*
X7862237Y-24590332D01*
X7862237Y-24590332D02*
X7881285Y-24599855D01*
X7881285Y-24599855D02*
X7890808Y-24609379D01*
X7890808Y-24609379D02*
X7900332Y-24628427D01*
X7900332Y-24628427D02*
X7900332Y-24676046D01*
X7900332Y-24676046D02*
X7890808Y-24695093D01*
X7890808Y-24695093D02*
X7881285Y-24704617D01*
X7881285Y-24704617D02*
X7862237Y-24714141D01*
X7862237Y-24714141D02*
X7814618Y-24714141D01*
X7814618Y-24714141D02*
X7795570Y-24704617D01*
X7795570Y-24704617D02*
X7786047Y-24695093D01*
X7986047Y-24695093D02*
X7995570Y-24704617D01*
X7995570Y-24704617D02*
X7986047Y-24714141D01*
X7986047Y-24714141D02*
X7976523Y-24704617D01*
X7976523Y-24704617D02*
X7986047Y-24695093D01*
X7986047Y-24695093D02*
X7986047Y-24714141D01*
X8119380Y-24514141D02*
X8138428Y-24514141D01*
X8138428Y-24514141D02*
X8157475Y-24523665D01*
X8157475Y-24523665D02*
X8166999Y-24533189D01*
X8166999Y-24533189D02*
X8176523Y-24552236D01*
X8176523Y-24552236D02*
X8186047Y-24590332D01*
X8186047Y-24590332D02*
X8186047Y-24637951D01*
X8186047Y-24637951D02*
X8176523Y-24676046D01*
X8176523Y-24676046D02*
X8166999Y-24695093D01*
X8166999Y-24695093D02*
X8157475Y-24704617D01*
X8157475Y-24704617D02*
X8138428Y-24714141D01*
X8138428Y-24714141D02*
X8119380Y-24714141D01*
X8119380Y-24714141D02*
X8100332Y-24704617D01*
X8100332Y-24704617D02*
X8090808Y-24695093D01*
X8090808Y-24695093D02*
X8081285Y-24676046D01*
X8081285Y-24676046D02*
X8071761Y-24637951D01*
X8071761Y-24637951D02*
X8071761Y-24590332D01*
X8071761Y-24590332D02*
X8081285Y-24552236D01*
X8081285Y-24552236D02*
X8090808Y-24533189D01*
X8090808Y-24533189D02*
X8100332Y-24523665D01*
X8100332Y-24523665D02*
X8119380Y-24514141D01*
X8366999Y-24514141D02*
X8271761Y-24514141D01*
X8271761Y-24514141D02*
X8262237Y-24609379D01*
X8262237Y-24609379D02*
X8271761Y-24599855D01*
X8271761Y-24599855D02*
X8290808Y-24590332D01*
X8290808Y-24590332D02*
X8338428Y-24590332D01*
X8338428Y-24590332D02*
X8357475Y-24599855D01*
X8357475Y-24599855D02*
X8366999Y-24609379D01*
X8366999Y-24609379D02*
X8376523Y-24628427D01*
X8376523Y-24628427D02*
X8376523Y-24676046D01*
X8376523Y-24676046D02*
X8366999Y-24695093D01*
X8366999Y-24695093D02*
X8357475Y-24704617D01*
X8357475Y-24704617D02*
X8338428Y-24714141D01*
X8338428Y-24714141D02*
X8290808Y-24714141D01*
X8290808Y-24714141D02*
X8271761Y-24704617D01*
X8271761Y-24704617D02*
X8262237Y-24695093D01*
X8500332Y-24514141D02*
X8519380Y-24514141D01*
X8519380Y-24514141D02*
X8538428Y-24523665D01*
X8538428Y-24523665D02*
X8547951Y-24533189D01*
X8547951Y-24533189D02*
X8557475Y-24552236D01*
X8557475Y-24552236D02*
X8566999Y-24590332D01*
X8566999Y-24590332D02*
X8566999Y-24637951D01*
X8566999Y-24637951D02*
X8557475Y-24676046D01*
X8557475Y-24676046D02*
X8547951Y-24695093D01*
X8547951Y-24695093D02*
X8538428Y-24704617D01*
X8538428Y-24704617D02*
X8519380Y-24714141D01*
X8519380Y-24714141D02*
X8500332Y-24714141D01*
X8500332Y-24714141D02*
X8481285Y-24704617D01*
X8481285Y-24704617D02*
X8471761Y-24695093D01*
X8471761Y-24695093D02*
X8462237Y-24676046D01*
X8462237Y-24676046D02*
X8452713Y-24637951D01*
X8452713Y-24637951D02*
X8452713Y-24590332D01*
X8452713Y-24590332D02*
X8462237Y-24552236D01*
X8462237Y-24552236D02*
X8471761Y-24533189D01*
X8471761Y-24533189D02*
X8481285Y-24523665D01*
X8481285Y-24523665D02*
X8500332Y-24514141D01*
X8652713Y-24714141D02*
X8652713Y-24580808D01*
X8652713Y-24599855D02*
X8662237Y-24590332D01*
X8662237Y-24590332D02*
X8681285Y-24580808D01*
X8681285Y-24580808D02*
X8709856Y-24580808D01*
X8709856Y-24580808D02*
X8728904Y-24590332D01*
X8728904Y-24590332D02*
X8738428Y-24609379D01*
X8738428Y-24609379D02*
X8738428Y-24714141D01*
X8738428Y-24609379D02*
X8747951Y-24590332D01*
X8747951Y-24590332D02*
X8766999Y-24580808D01*
X8766999Y-24580808D02*
X8795570Y-24580808D01*
X8795570Y-24580808D02*
X8814618Y-24590332D01*
X8814618Y-24590332D02*
X8824142Y-24609379D01*
X8824142Y-24609379D02*
X8824142Y-24714141D01*
X8919380Y-24714141D02*
X8919380Y-24580808D01*
X8919380Y-24599855D02*
X8928904Y-24590332D01*
X8928904Y-24590332D02*
X8947951Y-24580808D01*
X8947951Y-24580808D02*
X8976523Y-24580808D01*
X8976523Y-24580808D02*
X8995571Y-24590332D01*
X8995571Y-24590332D02*
X9005094Y-24609379D01*
X9005094Y-24609379D02*
X9005094Y-24714141D01*
X9005094Y-24609379D02*
X9014618Y-24590332D01*
X9014618Y-24590332D02*
X9033666Y-24580808D01*
X9033666Y-24580808D02*
X9062237Y-24580808D01*
X9062237Y-24580808D02*
X9081285Y-24590332D01*
X9081285Y-24590332D02*
X9090809Y-24609379D01*
X9090809Y-24609379D02*
X9090809Y-24714141D01*
X9481285Y-24504617D02*
X9309856Y-24761760D01*
X9738428Y-24514141D02*
X9757475Y-24514141D01*
X9757475Y-24514141D02*
X9776523Y-24523665D01*
X9776523Y-24523665D02*
X9786047Y-24533189D01*
X9786047Y-24533189D02*
X9795571Y-24552236D01*
X9795571Y-24552236D02*
X9805094Y-24590332D01*
X9805094Y-24590332D02*
X9805094Y-24637951D01*
X9805094Y-24637951D02*
X9795571Y-24676046D01*
X9795571Y-24676046D02*
X9786047Y-24695093D01*
X9786047Y-24695093D02*
X9776523Y-24704617D01*
X9776523Y-24704617D02*
X9757475Y-24714141D01*
X9757475Y-24714141D02*
X9738428Y-24714141D01*
X9738428Y-24714141D02*
X9719380Y-24704617D01*
X9719380Y-24704617D02*
X9709856Y-24695093D01*
X9709856Y-24695093D02*
X9700333Y-24676046D01*
X9700333Y-24676046D02*
X9690809Y-24637951D01*
X9690809Y-24637951D02*
X9690809Y-24590332D01*
X9690809Y-24590332D02*
X9700333Y-24552236D01*
X9700333Y-24552236D02*
X9709856Y-24533189D01*
X9709856Y-24533189D02*
X9719380Y-24523665D01*
X9719380Y-24523665D02*
X9738428Y-24514141D01*
X9890809Y-24695093D02*
X9900333Y-24704617D01*
X9900333Y-24704617D02*
X9890809Y-24714141D01*
X9890809Y-24714141D02*
X9881285Y-24704617D01*
X9881285Y-24704617D02*
X9890809Y-24695093D01*
X9890809Y-24695093D02*
X9890809Y-24714141D01*
X10090809Y-24714141D02*
X9976523Y-24714141D01*
X10033666Y-24714141D02*
X10033666Y-24514141D01*
X10033666Y-24514141D02*
X10014618Y-24542713D01*
X10014618Y-24542713D02*
X9995571Y-24561760D01*
X9995571Y-24561760D02*
X9976523Y-24571284D01*
X10186047Y-24714141D02*
X10224142Y-24714141D01*
X10224142Y-24714141D02*
X10243190Y-24704617D01*
X10243190Y-24704617D02*
X10252714Y-24695093D01*
X10252714Y-24695093D02*
X10271761Y-24666522D01*
X10271761Y-24666522D02*
X10281285Y-24628427D01*
X10281285Y-24628427D02*
X10281285Y-24552236D01*
X10281285Y-24552236D02*
X10271761Y-24533189D01*
X10271761Y-24533189D02*
X10262237Y-24523665D01*
X10262237Y-24523665D02*
X10243190Y-24514141D01*
X10243190Y-24514141D02*
X10205094Y-24514141D01*
X10205094Y-24514141D02*
X10186047Y-24523665D01*
X10186047Y-24523665D02*
X10176523Y-24533189D01*
X10176523Y-24533189D02*
X10166999Y-24552236D01*
X10166999Y-24552236D02*
X10166999Y-24599855D01*
X10166999Y-24599855D02*
X10176523Y-24618903D01*
X10176523Y-24618903D02*
X10186047Y-24628427D01*
X10186047Y-24628427D02*
X10205094Y-24637951D01*
X10205094Y-24637951D02*
X10243190Y-24637951D01*
X10243190Y-24637951D02*
X10262237Y-24628427D01*
X10262237Y-24628427D02*
X10271761Y-24618903D01*
X10271761Y-24618903D02*
X10281285Y-24599855D01*
X10395571Y-24599855D02*
X10376523Y-24590332D01*
X10376523Y-24590332D02*
X10366999Y-24580808D01*
X10366999Y-24580808D02*
X10357475Y-24561760D01*
X10357475Y-24561760D02*
X10357475Y-24552236D01*
X10357475Y-24552236D02*
X10366999Y-24533189D01*
X10366999Y-24533189D02*
X10376523Y-24523665D01*
X10376523Y-24523665D02*
X10395571Y-24514141D01*
X10395571Y-24514141D02*
X10433666Y-24514141D01*
X10433666Y-24514141D02*
X10452714Y-24523665D01*
X10452714Y-24523665D02*
X10462237Y-24533189D01*
X10462237Y-24533189D02*
X10471761Y-24552236D01*
X10471761Y-24552236D02*
X10471761Y-24561760D01*
X10471761Y-24561760D02*
X10462237Y-24580808D01*
X10462237Y-24580808D02*
X10452714Y-24590332D01*
X10452714Y-24590332D02*
X10433666Y-24599855D01*
X10433666Y-24599855D02*
X10395571Y-24599855D01*
X10395571Y-24599855D02*
X10376523Y-24609379D01*
X10376523Y-24609379D02*
X10366999Y-24618903D01*
X10366999Y-24618903D02*
X10357475Y-24637951D01*
X10357475Y-24637951D02*
X10357475Y-24676046D01*
X10357475Y-24676046D02*
X10366999Y-24695093D01*
X10366999Y-24695093D02*
X10376523Y-24704617D01*
X10376523Y-24704617D02*
X10395571Y-24714141D01*
X10395571Y-24714141D02*
X10433666Y-24714141D01*
X10433666Y-24714141D02*
X10452714Y-24704617D01*
X10452714Y-24704617D02*
X10462237Y-24695093D01*
X10462237Y-24695093D02*
X10471761Y-24676046D01*
X10471761Y-24676046D02*
X10471761Y-24637951D01*
X10471761Y-24637951D02*
X10462237Y-24618903D01*
X10462237Y-24618903D02*
X10452714Y-24609379D01*
X10452714Y-24609379D02*
X10433666Y-24599855D01*
X10586047Y-24599855D02*
X10566999Y-24590332D01*
X10566999Y-24590332D02*
X10557475Y-24580808D01*
X10557475Y-24580808D02*
X10547952Y-24561760D01*
X10547952Y-24561760D02*
X10547952Y-24552236D01*
X10547952Y-24552236D02*
X10557475Y-24533189D01*
X10557475Y-24533189D02*
X10566999Y-24523665D01*
X10566999Y-24523665D02*
X10586047Y-24514141D01*
X10586047Y-24514141D02*
X10624142Y-24514141D01*
X10624142Y-24514141D02*
X10643190Y-24523665D01*
X10643190Y-24523665D02*
X10652714Y-24533189D01*
X10652714Y-24533189D02*
X10662237Y-24552236D01*
X10662237Y-24552236D02*
X10662237Y-24561760D01*
X10662237Y-24561760D02*
X10652714Y-24580808D01*
X10652714Y-24580808D02*
X10643190Y-24590332D01*
X10643190Y-24590332D02*
X10624142Y-24599855D01*
X10624142Y-24599855D02*
X10586047Y-24599855D01*
X10586047Y-24599855D02*
X10566999Y-24609379D01*
X10566999Y-24609379D02*
X10557475Y-24618903D01*
X10557475Y-24618903D02*
X10547952Y-24637951D01*
X10547952Y-24637951D02*
X10547952Y-24676046D01*
X10547952Y-24676046D02*
X10557475Y-24695093D01*
X10557475Y-24695093D02*
X10566999Y-24704617D01*
X10566999Y-24704617D02*
X10586047Y-24714141D01*
X10586047Y-24714141D02*
X10624142Y-24714141D01*
X10624142Y-24714141D02*
X10643190Y-24704617D01*
X10643190Y-24704617D02*
X10652714Y-24695093D01*
X10652714Y-24695093D02*
X10662237Y-24676046D01*
X10662237Y-24676046D02*
X10662237Y-24637951D01*
X10662237Y-24637951D02*
X10652714Y-24618903D01*
X10652714Y-24618903D02*
X10643190Y-24609379D01*
X10643190Y-24609379D02*
X10624142Y-24599855D01*
X10738428Y-24514141D02*
X10738428Y-24552236D01*
X10814618Y-24514141D02*
X10814618Y-24552236D01*
X11109857Y-24790332D02*
X11100333Y-24780808D01*
X11100333Y-24780808D02*
X11081285Y-24752236D01*
X11081285Y-24752236D02*
X11071761Y-24733189D01*
X11071761Y-24733189D02*
X11062237Y-24704617D01*
X11062237Y-24704617D02*
X11052714Y-24656998D01*
X11052714Y-24656998D02*
X11052714Y-24618903D01*
X11052714Y-24618903D02*
X11062237Y-24571284D01*
X11062237Y-24571284D02*
X11071761Y-24542713D01*
X11071761Y-24542713D02*
X11081285Y-24523665D01*
X11081285Y-24523665D02*
X11100333Y-24495093D01*
X11100333Y-24495093D02*
X11109857Y-24485570D01*
X11271761Y-24580808D02*
X11271761Y-24714141D01*
X11224142Y-24504617D02*
X11176523Y-24647474D01*
X11176523Y-24647474D02*
X11300333Y-24647474D01*
X11462237Y-24580808D02*
X11462237Y-24714141D01*
X11414618Y-24504617D02*
X11366999Y-24647474D01*
X11366999Y-24647474D02*
X11490809Y-24647474D01*
X11719380Y-24714141D02*
X11719380Y-24514141D01*
X11805095Y-24714141D02*
X11805095Y-24609379D01*
X11805095Y-24609379D02*
X11795571Y-24590332D01*
X11795571Y-24590332D02*
X11776523Y-24580808D01*
X11776523Y-24580808D02*
X11747952Y-24580808D01*
X11747952Y-24580808D02*
X11728904Y-24590332D01*
X11728904Y-24590332D02*
X11719380Y-24599855D01*
X11928904Y-24714141D02*
X11909856Y-24704617D01*
X11909856Y-24704617D02*
X11900333Y-24695093D01*
X11900333Y-24695093D02*
X11890809Y-24676046D01*
X11890809Y-24676046D02*
X11890809Y-24618903D01*
X11890809Y-24618903D02*
X11900333Y-24599855D01*
X11900333Y-24599855D02*
X11909856Y-24590332D01*
X11909856Y-24590332D02*
X11928904Y-24580808D01*
X11928904Y-24580808D02*
X11957476Y-24580808D01*
X11957476Y-24580808D02*
X11976523Y-24590332D01*
X11976523Y-24590332D02*
X11986047Y-24599855D01*
X11986047Y-24599855D02*
X11995571Y-24618903D01*
X11995571Y-24618903D02*
X11995571Y-24676046D01*
X11995571Y-24676046D02*
X11986047Y-24695093D01*
X11986047Y-24695093D02*
X11976523Y-24704617D01*
X11976523Y-24704617D02*
X11957476Y-24714141D01*
X11957476Y-24714141D02*
X11928904Y-24714141D01*
X12109856Y-24714141D02*
X12090809Y-24704617D01*
X12090809Y-24704617D02*
X12081285Y-24685570D01*
X12081285Y-24685570D02*
X12081285Y-24514141D01*
X12262237Y-24704617D02*
X12243190Y-24714141D01*
X12243190Y-24714141D02*
X12205095Y-24714141D01*
X12205095Y-24714141D02*
X12186047Y-24704617D01*
X12186047Y-24704617D02*
X12176523Y-24685570D01*
X12176523Y-24685570D02*
X12176523Y-24609379D01*
X12176523Y-24609379D02*
X12186047Y-24590332D01*
X12186047Y-24590332D02*
X12205095Y-24580808D01*
X12205095Y-24580808D02*
X12243190Y-24580808D01*
X12243190Y-24580808D02*
X12262237Y-24590332D01*
X12262237Y-24590332D02*
X12271761Y-24609379D01*
X12271761Y-24609379D02*
X12271761Y-24628427D01*
X12271761Y-24628427D02*
X12176523Y-24647474D01*
X12347952Y-24704617D02*
X12366999Y-24714141D01*
X12366999Y-24714141D02*
X12405095Y-24714141D01*
X12405095Y-24714141D02*
X12424142Y-24704617D01*
X12424142Y-24704617D02*
X12433666Y-24685570D01*
X12433666Y-24685570D02*
X12433666Y-24676046D01*
X12433666Y-24676046D02*
X12424142Y-24656998D01*
X12424142Y-24656998D02*
X12405095Y-24647474D01*
X12405095Y-24647474D02*
X12376523Y-24647474D01*
X12376523Y-24647474D02*
X12357476Y-24637951D01*
X12357476Y-24637951D02*
X12347952Y-24618903D01*
X12347952Y-24618903D02*
X12347952Y-24609379D01*
X12347952Y-24609379D02*
X12357476Y-24590332D01*
X12357476Y-24590332D02*
X12376523Y-24580808D01*
X12376523Y-24580808D02*
X12405095Y-24580808D01*
X12405095Y-24580808D02*
X12424142Y-24590332D01*
X12500333Y-24790332D02*
X12509857Y-24780808D01*
X12509857Y-24780808D02*
X12528904Y-24752236D01*
X12528904Y-24752236D02*
X12538428Y-24733189D01*
X12538428Y-24733189D02*
X12547952Y-24704617D01*
X12547952Y-24704617D02*
X12557476Y-24656998D01*
X12557476Y-24656998D02*
X12557476Y-24618903D01*
X12557476Y-24618903D02*
X12547952Y-24571284D01*
X12547952Y-24571284D02*
X12538428Y-24542713D01*
X12538428Y-24542713D02*
X12528904Y-24523665D01*
X12528904Y-24523665D02*
X12509857Y-24495093D01*
X12509857Y-24495093D02*
X12500333Y-24485570D01*
X12862238Y-24790332D02*
X12852714Y-24780808D01*
X12852714Y-24780808D02*
X12833666Y-24752236D01*
X12833666Y-24752236D02*
X12824142Y-24733189D01*
X12824142Y-24733189D02*
X12814618Y-24704617D01*
X12814618Y-24704617D02*
X12805095Y-24656998D01*
X12805095Y-24656998D02*
X12805095Y-24618903D01*
X12805095Y-24618903D02*
X12814618Y-24571284D01*
X12814618Y-24571284D02*
X12824142Y-24542713D01*
X12824142Y-24542713D02*
X12833666Y-24523665D01*
X12833666Y-24523665D02*
X12852714Y-24495093D01*
X12852714Y-24495093D02*
X12862238Y-24485570D01*
X12938428Y-24580808D02*
X12938428Y-24714141D01*
X12938428Y-24599855D02*
X12947952Y-24590332D01*
X12947952Y-24590332D02*
X12966999Y-24580808D01*
X12966999Y-24580808D02*
X12995571Y-24580808D01*
X12995571Y-24580808D02*
X13014618Y-24590332D01*
X13014618Y-24590332D02*
X13024142Y-24609379D01*
X13024142Y-24609379D02*
X13024142Y-24714141D01*
X13147952Y-24714141D02*
X13128904Y-24704617D01*
X13128904Y-24704617D02*
X13119380Y-24695093D01*
X13119380Y-24695093D02*
X13109857Y-24676046D01*
X13109857Y-24676046D02*
X13109857Y-24618903D01*
X13109857Y-24618903D02*
X13119380Y-24599855D01*
X13119380Y-24599855D02*
X13128904Y-24590332D01*
X13128904Y-24590332D02*
X13147952Y-24580808D01*
X13147952Y-24580808D02*
X13176523Y-24580808D01*
X13176523Y-24580808D02*
X13195571Y-24590332D01*
X13195571Y-24590332D02*
X13205095Y-24599855D01*
X13205095Y-24599855D02*
X13214618Y-24618903D01*
X13214618Y-24618903D02*
X13214618Y-24676046D01*
X13214618Y-24676046D02*
X13205095Y-24695093D01*
X13205095Y-24695093D02*
X13195571Y-24704617D01*
X13195571Y-24704617D02*
X13176523Y-24714141D01*
X13176523Y-24714141D02*
X13147952Y-24714141D01*
X13271761Y-24580808D02*
X13347952Y-24580808D01*
X13300333Y-24514141D02*
X13300333Y-24685570D01*
X13300333Y-24685570D02*
X13309857Y-24704617D01*
X13309857Y-24704617D02*
X13328904Y-24714141D01*
X13328904Y-24714141D02*
X13347952Y-24714141D01*
X13566999Y-24580808D02*
X13566999Y-24780808D01*
X13566999Y-24590332D02*
X13586047Y-24580808D01*
X13586047Y-24580808D02*
X13624142Y-24580808D01*
X13624142Y-24580808D02*
X13643190Y-24590332D01*
X13643190Y-24590332D02*
X13652714Y-24599855D01*
X13652714Y-24599855D02*
X13662238Y-24618903D01*
X13662238Y-24618903D02*
X13662238Y-24676046D01*
X13662238Y-24676046D02*
X13652714Y-24695093D01*
X13652714Y-24695093D02*
X13643190Y-24704617D01*
X13643190Y-24704617D02*
X13624142Y-24714141D01*
X13624142Y-24714141D02*
X13586047Y-24714141D01*
X13586047Y-24714141D02*
X13566999Y-24704617D01*
X13776523Y-24714141D02*
X13757476Y-24704617D01*
X13757476Y-24704617D02*
X13747952Y-24685570D01*
X13747952Y-24685570D02*
X13747952Y-24514141D01*
X13938428Y-24714141D02*
X13938428Y-24609379D01*
X13938428Y-24609379D02*
X13928904Y-24590332D01*
X13928904Y-24590332D02*
X13909857Y-24580808D01*
X13909857Y-24580808D02*
X13871761Y-24580808D01*
X13871761Y-24580808D02*
X13852714Y-24590332D01*
X13938428Y-24704617D02*
X13919380Y-24714141D01*
X13919380Y-24714141D02*
X13871761Y-24714141D01*
X13871761Y-24714141D02*
X13852714Y-24704617D01*
X13852714Y-24704617D02*
X13843190Y-24685570D01*
X13843190Y-24685570D02*
X13843190Y-24666522D01*
X13843190Y-24666522D02*
X13852714Y-24647474D01*
X13852714Y-24647474D02*
X13871761Y-24637951D01*
X13871761Y-24637951D02*
X13919380Y-24637951D01*
X13919380Y-24637951D02*
X13938428Y-24628427D01*
X14005095Y-24580808D02*
X14081285Y-24580808D01*
X14033666Y-24514141D02*
X14033666Y-24685570D01*
X14033666Y-24685570D02*
X14043190Y-24704617D01*
X14043190Y-24704617D02*
X14062238Y-24714141D01*
X14062238Y-24714141D02*
X14081285Y-24714141D01*
X14224142Y-24704617D02*
X14205095Y-24714141D01*
X14205095Y-24714141D02*
X14166999Y-24714141D01*
X14166999Y-24714141D02*
X14147952Y-24704617D01*
X14147952Y-24704617D02*
X14138428Y-24685570D01*
X14138428Y-24685570D02*
X14138428Y-24609379D01*
X14138428Y-24609379D02*
X14147952Y-24590332D01*
X14147952Y-24590332D02*
X14166999Y-24580808D01*
X14166999Y-24580808D02*
X14205095Y-24580808D01*
X14205095Y-24580808D02*
X14224142Y-24590332D01*
X14224142Y-24590332D02*
X14233666Y-24609379D01*
X14233666Y-24609379D02*
X14233666Y-24628427D01*
X14233666Y-24628427D02*
X14138428Y-24647474D01*
X14405095Y-24714141D02*
X14405095Y-24514141D01*
X14405095Y-24704617D02*
X14386047Y-24714141D01*
X14386047Y-24714141D02*
X14347952Y-24714141D01*
X14347952Y-24714141D02*
X14328904Y-24704617D01*
X14328904Y-24704617D02*
X14319380Y-24695093D01*
X14319380Y-24695093D02*
X14309857Y-24676046D01*
X14309857Y-24676046D02*
X14309857Y-24618903D01*
X14309857Y-24618903D02*
X14319380Y-24599855D01*
X14319380Y-24599855D02*
X14328904Y-24590332D01*
X14328904Y-24590332D02*
X14347952Y-24580808D01*
X14347952Y-24580808D02*
X14386047Y-24580808D01*
X14386047Y-24580808D02*
X14405095Y-24590332D01*
X14481285Y-24790332D02*
X14490809Y-24780808D01*
X14490809Y-24780808D02*
X14509857Y-24752236D01*
X14509857Y-24752236D02*
X14519380Y-24733189D01*
X14519380Y-24733189D02*
X14528904Y-24704617D01*
X14528904Y-24704617D02*
X14538428Y-24656998D01*
X14538428Y-24656998D02*
X14538428Y-24618903D01*
X14538428Y-24618903D02*
X14528904Y-24571284D01*
X14528904Y-24571284D02*
X14519380Y-24542713D01*
X14519380Y-24542713D02*
X14509857Y-24523665D01*
X14509857Y-24523665D02*
X14490809Y-24495093D01*
X14490809Y-24495093D02*
X14481285Y-24485570D01*
M02*
