G04 #@! TF.GenerationSoftware,KiCad,Pcbnew,8.0.3*
G04 #@! TF.CreationDate,2024-06-16T15:20:09+01:00*
G04 #@! TF.ProjectId,ykb,796b622e-6b69-4636-9164-5f7063625858,v1.0.0*
G04 #@! TF.SameCoordinates,Original*
G04 #@! TF.FileFunction,Other,ECO1*
%FSLAX46Y46*%
G04 Gerber Fmt 4.6, Leading zero omitted, Abs format (unit mm)*
G04 Created by KiCad (PCBNEW 8.0.3) date 2024-06-16 15:20:09*
%MOMM*%
%LPD*%
G01*
G04 APERTURE LIST*
%ADD10C,0.100000*%
G04 APERTURE END LIST*
D10*
G04 #@! TO.C,S44*
X275325636Y-203823448D02*
X269427955Y-217069857D01*
X269427955Y-217069857D02*
X282674364Y-222967538D01*
X282674364Y-222967538D02*
X288572045Y-209721129D01*
X288572045Y-209721129D02*
X275325636Y-203823448D01*
G04 #@! TO.C,S43*
X284761773Y-196939531D02*
X296030389Y-206064677D01*
X296030389Y-206064677D02*
X305155535Y-194796061D01*
X305155535Y-194796061D02*
X293886919Y-185670915D01*
X293886919Y-185670915D02*
X284761773Y-196939531D01*
G04 #@! TO.C,S42*
X301286059Y-178631872D02*
X309808945Y-190362618D01*
X309808945Y-190362618D02*
X321539691Y-181839732D01*
X321539691Y-181839732D02*
X313016805Y-170108986D01*
X313016805Y-170108986D02*
X301286059Y-178631872D01*
G04 #@! TO.C,S41*
X247643492Y-181357785D02*
X256166378Y-193088531D01*
X256166378Y-193088531D02*
X267897124Y-184565645D01*
X267897124Y-184565645D02*
X259374238Y-172834899D01*
X259374238Y-172834899D02*
X247643492Y-181357785D01*
G04 #@! TO.C,S40*
X247217274Y-150147717D02*
X255740160Y-161878463D01*
X255740160Y-161878463D02*
X267470906Y-153355577D01*
X267470906Y-153355577D02*
X258948020Y-141624831D01*
X258948020Y-141624831D02*
X247217274Y-150147717D01*
G04 #@! TO.C,S39*
X257209623Y-163901006D02*
X265732509Y-175631752D01*
X265732509Y-175631752D02*
X277463255Y-167108866D01*
X277463255Y-167108866D02*
X268940369Y-155378120D01*
X268940369Y-155378120D02*
X257209623Y-163901006D01*
G04 #@! TO.C,S38*
X267201972Y-177654295D02*
X275724858Y-189385041D01*
X275724858Y-189385041D02*
X287455604Y-180862155D01*
X287455604Y-180862155D02*
X278932718Y-169131409D01*
X278932718Y-169131409D02*
X267201972Y-177654295D01*
G04 #@! TO.C,S37*
X259781110Y-136816925D02*
X268303996Y-148547671D01*
X268303996Y-148547671D02*
X280034742Y-140024785D01*
X280034742Y-140024785D02*
X271511856Y-128294039D01*
X271511856Y-128294039D02*
X259781110Y-136816925D01*
G04 #@! TO.C,S36*
X269773459Y-150570214D02*
X278296345Y-162300960D01*
X278296345Y-162300960D02*
X290027091Y-153778074D01*
X290027091Y-153778074D02*
X281504205Y-142047328D01*
X281504205Y-142047328D02*
X269773459Y-150570214D01*
G04 #@! TO.C,S35*
X279765808Y-164323503D02*
X288288694Y-176054249D01*
X288288694Y-176054249D02*
X300019440Y-167531363D01*
X300019440Y-167531363D02*
X291496554Y-155800617D01*
X291496554Y-155800617D02*
X279765808Y-164323503D01*
G04 #@! TO.C,S34*
X273920512Y-117457798D02*
X281388564Y-129886724D01*
X281388564Y-129886724D02*
X293817490Y-122418672D01*
X293817490Y-122418672D02*
X286349438Y-109989746D01*
X286349438Y-109989746D02*
X273920512Y-117457798D01*
G04 #@! TO.C,S33*
X282676159Y-132029642D02*
X290144211Y-144458568D01*
X290144211Y-144458568D02*
X302573137Y-136990516D01*
X302573137Y-136990516D02*
X295105085Y-124561590D01*
X295105085Y-124561590D02*
X282676159Y-132029642D01*
G04 #@! TO.C,S32*
X291431806Y-146601486D02*
X298899858Y-159030412D01*
X298899858Y-159030412D02*
X311328784Y-151562360D01*
X311328784Y-151562360D02*
X303860732Y-139133434D01*
X303860732Y-139133434D02*
X291431806Y-146601486D01*
G04 #@! TO.C,S31*
X295742602Y-110614533D02*
X302098984Y-123647047D01*
X302098984Y-123647047D02*
X315131498Y-117290665D01*
X315131498Y-117290665D02*
X308775116Y-104258151D01*
X308775116Y-104258151D02*
X295742602Y-110614533D01*
G04 #@! TO.C,S30*
X303194911Y-125894032D02*
X309551293Y-138926546D01*
X309551293Y-138926546D02*
X322583807Y-132570164D01*
X322583807Y-132570164D02*
X316227425Y-119537650D01*
X316227425Y-119537650D02*
X303194911Y-125894032D01*
G04 #@! TO.C,S29*
X310647221Y-141173531D02*
X317003603Y-154206045D01*
X317003603Y-154206045D02*
X330036117Y-147849663D01*
X330036117Y-147849663D02*
X323679735Y-134817149D01*
X323679735Y-134817149D02*
X310647221Y-141173531D01*
G04 #@! TO.C,S28*
X326628042Y-110582109D02*
X329394772Y-124815703D01*
X329394772Y-124815703D02*
X343628366Y-122048973D01*
X343628366Y-122048973D02*
X340861636Y-107815379D01*
X340861636Y-107815379D02*
X326628042Y-110582109D01*
G04 #@! TO.C,S27*
X329871794Y-127269771D02*
X332638524Y-141503365D01*
X332638524Y-141503365D02*
X346872118Y-138736635D01*
X346872118Y-138736635D02*
X344105388Y-124503041D01*
X344105388Y-124503041D02*
X329871794Y-127269771D01*
G04 #@! TO.C,S26*
X333115547Y-143957434D02*
X335882277Y-158191028D01*
X335882277Y-158191028D02*
X350115871Y-155424298D01*
X350115871Y-155424298D02*
X347349141Y-141190704D01*
X347349141Y-141190704D02*
X333115547Y-143957434D01*
G04 #@! TO.C,S25*
X349215791Y-111653823D02*
X350731454Y-126074390D01*
X350731454Y-126074390D02*
X365152021Y-124558727D01*
X365152021Y-124558727D02*
X363636358Y-110138160D01*
X363636358Y-110138160D02*
X349215791Y-111653823D01*
G04 #@! TO.C,S24*
X350992775Y-128560695D02*
X352508438Y-142981262D01*
X352508438Y-142981262D02*
X366929005Y-141465599D01*
X366929005Y-141465599D02*
X365413342Y-127045032D01*
X365413342Y-127045032D02*
X350992775Y-128560695D01*
G04 #@! TO.C,S23*
X352769759Y-145467567D02*
X354285422Y-159888134D01*
X354285422Y-159888134D02*
X368705989Y-158372471D01*
X368705989Y-158372471D02*
X367190326Y-143951904D01*
X367190326Y-143951904D02*
X352769759Y-145467567D01*
G04 #@! TO.C,S22*
X161427955Y-209721129D02*
X167325636Y-222967538D01*
X167325636Y-222967538D02*
X180572045Y-217069857D01*
X180572045Y-217069857D02*
X174674364Y-203823448D01*
X174674364Y-203823448D02*
X161427955Y-209721129D01*
G04 #@! TO.C,S21*
X156113080Y-185670915D02*
X144844464Y-194796061D01*
X144844464Y-194796061D02*
X153969610Y-206064677D01*
X153969610Y-206064677D02*
X165238226Y-196939531D01*
X165238226Y-196939531D02*
X156113080Y-185670915D01*
G04 #@! TO.C,S20*
X136983194Y-170108986D02*
X128460308Y-181839732D01*
X128460308Y-181839732D02*
X140191054Y-190362618D01*
X140191054Y-190362618D02*
X148713940Y-178631872D01*
X148713940Y-178631872D02*
X136983194Y-170108986D01*
G04 #@! TO.C,S19*
X190625762Y-172834899D02*
X182102876Y-184565645D01*
X182102876Y-184565645D02*
X193833622Y-193088531D01*
X193833622Y-193088531D02*
X202356508Y-181357785D01*
X202356508Y-181357785D02*
X190625762Y-172834899D01*
G04 #@! TO.C,S18*
X191051980Y-141624831D02*
X182529094Y-153355577D01*
X182529094Y-153355577D02*
X194259840Y-161878463D01*
X194259840Y-161878463D02*
X202782726Y-150147717D01*
X202782726Y-150147717D02*
X191051980Y-141624831D01*
G04 #@! TO.C,S17*
X181059630Y-155378120D02*
X172536744Y-167108866D01*
X172536744Y-167108866D02*
X184267490Y-175631752D01*
X184267490Y-175631752D02*
X192790376Y-163901006D01*
X192790376Y-163901006D02*
X181059630Y-155378120D01*
G04 #@! TO.C,S16*
X171067281Y-169131409D02*
X162544395Y-180862155D01*
X162544395Y-180862155D02*
X174275141Y-189385041D01*
X174275141Y-189385041D02*
X182798027Y-177654295D01*
X182798027Y-177654295D02*
X171067281Y-169131409D01*
G04 #@! TO.C,S15*
X178488143Y-128294039D02*
X169965257Y-140024785D01*
X169965257Y-140024785D02*
X181696003Y-148547671D01*
X181696003Y-148547671D02*
X190218889Y-136816925D01*
X190218889Y-136816925D02*
X178488143Y-128294039D01*
G04 #@! TO.C,S14*
X168495794Y-142047328D02*
X159972908Y-153778074D01*
X159972908Y-153778074D02*
X171703654Y-162300960D01*
X171703654Y-162300960D02*
X180226540Y-150570214D01*
X180226540Y-150570214D02*
X168495794Y-142047328D01*
G04 #@! TO.C,S13*
X158503445Y-155800617D02*
X149980559Y-167531363D01*
X149980559Y-167531363D02*
X161711305Y-176054249D01*
X161711305Y-176054249D02*
X170234191Y-164323503D01*
X170234191Y-164323503D02*
X158503445Y-155800617D01*
G04 #@! TO.C,S12*
X163650561Y-109989746D02*
X156182509Y-122418672D01*
X156182509Y-122418672D02*
X168611435Y-129886724D01*
X168611435Y-129886724D02*
X176079487Y-117457798D01*
X176079487Y-117457798D02*
X163650561Y-109989746D01*
G04 #@! TO.C,S11*
X154894914Y-124561590D02*
X147426862Y-136990516D01*
X147426862Y-136990516D02*
X159855788Y-144458568D01*
X159855788Y-144458568D02*
X167323840Y-132029642D01*
X167323840Y-132029642D02*
X154894914Y-124561590D01*
G04 #@! TO.C,S10*
X146139267Y-139133434D02*
X138671215Y-151562360D01*
X138671215Y-151562360D02*
X151100141Y-159030412D01*
X151100141Y-159030412D02*
X158568193Y-146601486D01*
X158568193Y-146601486D02*
X146139267Y-139133434D01*
G04 #@! TO.C,S9*
X141224884Y-104258151D02*
X134868502Y-117290665D01*
X134868502Y-117290665D02*
X147901016Y-123647047D01*
X147901016Y-123647047D02*
X154257398Y-110614533D01*
X154257398Y-110614533D02*
X141224884Y-104258151D01*
G04 #@! TO.C,S8*
X133772574Y-119537650D02*
X127416192Y-132570164D01*
X127416192Y-132570164D02*
X140448706Y-138926546D01*
X140448706Y-138926546D02*
X146805088Y-125894032D01*
X146805088Y-125894032D02*
X133772574Y-119537650D01*
G04 #@! TO.C,S7*
X126320265Y-134817149D02*
X119963883Y-147849663D01*
X119963883Y-147849663D02*
X132996397Y-154206045D01*
X132996397Y-154206045D02*
X139352779Y-141173531D01*
X139352779Y-141173531D02*
X126320265Y-134817149D01*
G04 #@! TO.C,S6*
X109138364Y-107815379D02*
X106371634Y-122048973D01*
X106371634Y-122048973D02*
X120605228Y-124815703D01*
X120605228Y-124815703D02*
X123371958Y-110582109D01*
X123371958Y-110582109D02*
X109138364Y-107815379D01*
G04 #@! TO.C,S5*
X105894611Y-124503041D02*
X103127881Y-138736635D01*
X103127881Y-138736635D02*
X117361475Y-141503365D01*
X117361475Y-141503365D02*
X120128205Y-127269771D01*
X120128205Y-127269771D02*
X105894611Y-124503041D01*
G04 #@! TO.C,S4*
X102650858Y-141190704D02*
X99884128Y-155424298D01*
X99884128Y-155424298D02*
X114117722Y-158191028D01*
X114117722Y-158191028D02*
X116884452Y-143957434D01*
X116884452Y-143957434D02*
X102650858Y-141190704D01*
G04 #@! TO.C,S3*
X86363641Y-110138160D02*
X84847978Y-124558727D01*
X84847978Y-124558727D02*
X99268545Y-126074390D01*
X99268545Y-126074390D02*
X100784208Y-111653823D01*
X100784208Y-111653823D02*
X86363641Y-110138160D01*
G04 #@! TO.C,S2*
X84586657Y-127045032D02*
X83070994Y-141465599D01*
X83070994Y-141465599D02*
X97491561Y-142981262D01*
X97491561Y-142981262D02*
X99007224Y-128560695D01*
X99007224Y-128560695D02*
X84586657Y-127045032D01*
G04 #@! TO.C,S1*
X82809673Y-143951904D02*
X81294010Y-158372471D01*
X81294010Y-158372471D02*
X95714577Y-159888134D01*
X95714577Y-159888134D02*
X97230240Y-145467567D01*
X97230240Y-145467567D02*
X82809673Y-143951904D01*
G04 #@! TD*
M02*
