  0
SECTION
  2
HEADER
  9
$ANGBASE
  50
0.0
  9
$ANGDIR
  70
1
  9
$MEASUREMENT
  70
0
  0
ENDSEC
  0
SECTION
  2
TABLES
  0
TABLE
  2
LTYPE
  70
4
  0
LTYPE
  5
40F
  2
CONTINUOUS
  70
0
  3
Solid line
  72
65
  73
0
  40
0.0
  0
LTYPE
  5
410
  2
DASHDOT
 70
0
  3
Dash Dot ____ _ ____ _
 72
65
 73
4
 40
2.0
 49
1.25
 49
-0.25
 49
0.25
 49
-0.25
  0
LTYPE
  5
411
  2
DASHED
 70
0
  3
Dashed __ __ __ __ __
 72
65
 73
2
 40
0.75
 49
0.5
 49
-0.25
  0
LTYPE
  5
43B
  2
DOTTED
 70
0
  3
Dotted .  .  .  .
 72
65
 73
2
 40
0.2
 49
0.0
 49
-0.2
  0
ENDTAB
  0
TABLE
  2
STYLE
  70
4
  0
STYLE
  2
KICAD
  70
0
  40
0
  41
1
  42
1
  50
0
  71
0
  3
isocp.shx
  0
STYLE
  2
KICADB
  70
0
  40
0
  41
1
  42
1
  50
0
  71
0
  3
isocp.shx
  0
STYLE
  2
KICADI
  70
0
  40
0
  41
1
  42
1
  50
15
  71
0
  3
isocp.shx
  0
STYLE
  2
KICADBI
  70
0
  40
0
  41
1
  42
1
  50
15
  71
0
  3
isocp.shx
  0
ENDTAB
  0
TABLE
  2
LAYER
  70
1
  0
LAYER
  2
BLACK
  70
0
  62
7
  6
CONTINUOUS
  0
ENDTAB
  0
ENDSEC
  0
SECTION
  2
ENTITIES
0
LINE
8
BLACK
6
CONTINUOUS
10
6.8523914566929136
20
-8.0637696850393699
11
6.8610088976377952
21
-8.0660787401574794
0
LINE
8
BLACK
6
CONTINUOUS
10
6.8610088976377952
20
-8.0660787401574794
11
6.8690944881889759
21
-8.0698490944881893
0
LINE
8
BLACK
6
CONTINUOUS
10
6.8690944881889759
20
-8.0698490944881893
11
6.8764025196850396
21
-8.0749662204724402
0
LINE
8
BLACK
6
CONTINUOUS
10
6.8764025196850396
20
-8.0749662204724402
11
6.8827109448818895
21
-8.081274645669291
0
LINE
8
BLACK
6
CONTINUOUS
10
6.8827109448818895
20
-8.081274645669291
11
6.8878280708661412
21
-8.0885826771653537
0
LINE
8
BLACK
6
CONTINUOUS
10
6.8878280708661412
20
-8.0885826771653537
11
6.8915984251968503
21
-8.0966682677165345
0
LINE
8
BLACK
6
CONTINUOUS
10
6.8915984251968503
20
-8.0966682677165345
11
6.8939074803149607
21
-8.1052857086614178
0
LINE
8
BLACK
6
CONTINUOUS
10
6.8939074803149607
20
-8.1052857086614178
11
6.8946850393700787
21
-8.1141732283464574
0
LINE
8
BLACK
6
CONTINUOUS
10
6.8946850393700787
20
-8.1141732283464574
11
6.8939074803149607
21
-8.1230607480314951
0
LINE
8
BLACK
6
CONTINUOUS
10
6.8939074803149607
20
-8.1230607480314951
11
6.8915984251968503
21
-8.1316781889763785
0
LINE
8
BLACK
6
CONTINUOUS
10
6.8915984251968503
20
-8.1316781889763785
11
6.8878280708661412
21
-8.1397637795275593
0
LINE
8
BLACK
6
CONTINUOUS
10
6.8878280708661412
20
-8.1397637795275593
11
6.8827109448818895
21
-8.147071811023622
0
LINE
8
BLACK
6
CONTINUOUS
10
6.8827109448818895
20
-8.147071811023622
11
6.8764025196850396
21
-8.1533802362204728
0
LINE
8
BLACK
6
CONTINUOUS
10
6.8764025196850396
20
-8.1533802362204728
11
6.8690944881889759
21
-8.1584973622047237
0
LINE
8
BLACK
6
CONTINUOUS
10
6.8690944881889759
20
-8.1584973622047237
11
6.8610088976377952
21
-8.1622677165354336
0
LINE
8
BLACK
6
CONTINUOUS
10
6.8610088976377952
20
-8.1622677165354336
11
6.8523914566929136
21
-8.1645767716535431
0
LINE
8
BLACK
6
CONTINUOUS
10
6.8523914566929136
20
-8.1645767716535431
11
6.8435039370078741
21
-8.1653543307086611
0
LINE
8
BLACK
6
CONTINUOUS
10
6.8435039370078741
20
-8.1653543307086611
11
6.8346164173228345
21
-8.1645767716535431
0
LINE
8
BLACK
6
CONTINUOUS
10
6.8346164173228345
20
-8.1645767716535431
11
6.8259989763779529
21
-8.1622677165354336
0
LINE
8
BLACK
6
CONTINUOUS
10
6.8259989763779529
20
-8.1622677165354336
11
6.8179133858267713
21
-8.1584973622047237
0
LINE
8
BLACK
6
CONTINUOUS
10
6.8179133858267713
20
-8.1584973622047237
11
6.8106053543307086
21
-8.1533802362204728
0
LINE
8
BLACK
6
CONTINUOUS
10
6.8106053543307086
20
-8.1533802362204728
11
6.8042969291338578
21
-8.147071811023622
0
LINE
8
BLACK
6
CONTINUOUS
10
6.8042969291338578
20
-8.147071811023622
11
6.799179803149606
21
-8.1397637795275593
0
LINE
8
BLACK
6
CONTINUOUS
10
6.799179803149606
20
-8.1397637795275593
11
6.7954094488188979
21
-8.1316781889763785
0
LINE
8
BLACK
6
CONTINUOUS
10
6.7954094488188979
20
-8.1316781889763785
11
6.7931003937007874
21
-8.1230607480314951
0
LINE
8
BLACK
6
CONTINUOUS
10
6.7931003937007874
20
-8.1230607480314951
11
6.7923228346456694
21
-8.1141732283464574
0
LINE
8
BLACK
6
CONTINUOUS
10
6.7923228346456694
20
-8.1141732283464574
11
6.7931003937007874
21
-8.1052857086614178
0
LINE
8
BLACK
6
CONTINUOUS
10
6.7931003937007874
20
-8.1052857086614178
11
6.7954094488188979
21
-8.0966682677165345
0
LINE
8
BLACK
6
CONTINUOUS
10
6.7954094488188979
20
-8.0966682677165345
11
6.799179803149606
21
-8.0885826771653537
0
LINE
8
BLACK
6
CONTINUOUS
10
6.799179803149606
20
-8.0885826771653537
11
6.8042969291338578
21
-8.081274645669291
0
LINE
8
BLACK
6
CONTINUOUS
10
6.8042969291338578
20
-8.081274645669291
11
6.8106053543307086
21
-8.0749662204724402
0
LINE
8
BLACK
6
CONTINUOUS
10
6.8106053543307086
20
-8.0749662204724402
11
6.8179133858267713
21
-8.0698490944881893
0
LINE
8
BLACK
6
CONTINUOUS
10
6.8179133858267713
20
-8.0698490944881893
11
6.8259989763779529
21
-8.0660787401574794
0
LINE
8
BLACK
6
CONTINUOUS
10
6.8259989763779529
20
-8.0660787401574794
11
6.8346164173228345
21
-8.0637696850393699
0
LINE
8
BLACK
6
CONTINUOUS
10
6.8346164173228345
20
-8.0637696850393699
11
6.8435039370078741
21
-8.0629921259842519
0
LINE
8
BLACK
6
CONTINUOUS
10
6.8435039370078741
20
-8.0629921259842519
11
6.8523914566929136
21
-8.0637696850393699
0
LINE
8
BLACK
6
CONTINUOUS
10
4.4114465748031497
20
-6.4495964566929134
11
4.4200640157480313
21
-6.4519055118110238
0
LINE
8
BLACK
6
CONTINUOUS
10
4.4200640157480313
20
-6.4519055118110238
11
4.4281496062992121
21
-6.4556758661417319
0
LINE
8
BLACK
6
CONTINUOUS
10
4.4281496062992121
20
-6.4556758661417319
11
4.4354576377952757
21
-6.4607929921259837
0
LINE
8
BLACK
6
CONTINUOUS
10
4.4354576377952757
20
-6.4607929921259837
11
4.4417660629921256
21
-6.4671014173228345
0
LINE
8
BLACK
6
CONTINUOUS
10
4.4417660629921256
20
-6.4671014173228345
11
4.4468831889763782
21
-6.4744094488188972
0
LINE
8
BLACK
6
CONTINUOUS
10
4.4468831889763782
20
-6.4744094488188972
11
4.4506535433070864
21
-6.4824950393700789
0
LINE
8
BLACK
6
CONTINUOUS
10
4.4506535433070864
20
-6.4824950393700789
11
4.4529625984251968
21
-6.4911124803149605
0
LINE
8
BLACK
6
CONTINUOUS
10
4.4529625984251968
20
-6.4911124803149605
11
4.4537401574803148
21
-6.5
0
LINE
8
BLACK
6
CONTINUOUS
10
4.4537401574803148
20
-6.5
11
4.4529625984251968
21
-6.5088875196850395
0
LINE
8
BLACK
6
CONTINUOUS
10
4.4529625984251968
20
-6.5088875196850395
11
4.4506535433070864
21
-6.5175049606299211
0
LINE
8
BLACK
6
CONTINUOUS
10
4.4506535433070864
20
-6.5175049606299211
11
4.4468831889763782
21
-6.5255905511811019
0
LINE
8
BLACK
6
CONTINUOUS
10
4.4468831889763782
20
-6.5255905511811019
11
4.4417660629921256
21
-6.5328985826771655
0
LINE
8
BLACK
6
CONTINUOUS
10
4.4417660629921256
20
-6.5328985826771655
11
4.4354576377952757
21
-6.5392070078740154
0
LINE
8
BLACK
6
CONTINUOUS
10
4.4354576377952757
20
-6.5392070078740154
11
4.4281496062992121
21
-6.5443241338582672
0
LINE
8
BLACK
6
CONTINUOUS
10
4.4281496062992121
20
-6.5443241338582672
11
4.4200640157480313
21
-6.5480944881889762
0
LINE
8
BLACK
6
CONTINUOUS
10
4.4200640157480313
20
-6.5480944881889762
11
4.4114465748031497
21
-6.5504035433070866
0
LINE
8
BLACK
6
CONTINUOUS
10
4.4114465748031497
20
-6.5504035433070866
11
4.4025590551181102
21
-6.5511811023622046
0
LINE
8
BLACK
6
CONTINUOUS
10
4.4025590551181102
20
-6.5511811023622046
11
4.3936715354330707
21
-6.5504035433070866
0
LINE
8
BLACK
6
CONTINUOUS
10
4.3936715354330707
20
-6.5504035433070866
11
4.3850540944881891
21
-6.5480944881889762
0
LINE
8
BLACK
6
CONTINUOUS
10
4.3850540944881891
20
-6.5480944881889762
11
4.3769685039370074
21
-6.5443241338582672
0
LINE
8
BLACK
6
CONTINUOUS
10
4.3769685039370074
20
-6.5443241338582672
11
4.3696604724409447
21
-6.5392070078740154
0
LINE
8
BLACK
6
CONTINUOUS
10
4.3696604724409447
20
-6.5392070078740154
11
4.3633520472440948
21
-6.5328985826771655
0
LINE
8
BLACK
6
CONTINUOUS
10
4.3633520472440948
20
-6.5328985826771655
11
4.3582349212598421
21
-6.5255905511811019
0
LINE
8
BLACK
6
CONTINUOUS
10
4.3582349212598421
20
-6.5255905511811019
11
4.354464566929134
21
-6.5175049606299211
0
LINE
8
BLACK
6
CONTINUOUS
10
4.354464566929134
20
-6.5175049606299211
11
4.3521555118110236
21
-6.5088875196850395
0
LINE
8
BLACK
6
CONTINUOUS
10
4.3521555118110236
20
-6.5088875196850395
11
4.3513779527559056
21
-6.5
0
LINE
8
BLACK
6
CONTINUOUS
10
4.3513779527559056
20
-6.5
11
4.3521555118110236
21
-6.4911124803149605
0
LINE
8
BLACK
6
CONTINUOUS
10
4.3521555118110236
20
-6.4911124803149605
11
4.354464566929134
21
-6.4824950393700789
0
LINE
8
BLACK
6
CONTINUOUS
10
4.354464566929134
20
-6.4824950393700789
11
4.3582349212598421
21
-6.4744094488188972
0
LINE
8
BLACK
6
CONTINUOUS
10
4.3582349212598421
20
-6.4744094488188972
11
4.3633520472440948
21
-6.4671014173228345
0
LINE
8
BLACK
6
CONTINUOUS
10
4.3633520472440948
20
-6.4671014173228345
11
4.3696604724409447
21
-6.4607929921259837
0
LINE
8
BLACK
6
CONTINUOUS
10
4.3696604724409447
20
-6.4607929921259837
11
4.3769685039370074
21
-6.4556758661417319
0
LINE
8
BLACK
6
CONTINUOUS
10
4.3769685039370074
20
-6.4556758661417319
11
4.3850540944881891
21
-6.4519055118110238
0
LINE
8
BLACK
6
CONTINUOUS
10
4.3850540944881891
20
-6.4519055118110238
11
4.3936715354330707
21
-6.4495964566929134
0
LINE
8
BLACK
6
CONTINUOUS
10
4.3936715354330707
20
-6.4495964566929134
11
4.4025590551181102
21
-6.4488188976377954
0
LINE
8
BLACK
6
CONTINUOUS
10
4.4025590551181102
20
-6.4488188976377954
11
4.4114465748031497
21
-6.4495964566929134
0
LINE
8
BLACK
6
CONTINUOUS
10
8.545304842519684
20
-6.1936909448818893
11
8.5539222834645674
21
-6.1959999999999997
0
LINE
8
BLACK
6
CONTINUOUS
10
8.5539222834645674
20
-6.1959999999999997
11
8.5620078740157481
21
-6.1997703543307088
0
LINE
8
BLACK
6
CONTINUOUS
10
8.5620078740157481
20
-6.1997703543307088
11
8.5693159055118109
21
-6.2048874803149605
0
LINE
8
BLACK
6
CONTINUOUS
10
8.5693159055118109
20
-6.2048874803149605
11
8.5756243307086617
21
-6.2111959055118104
0
LINE
8
BLACK
6
CONTINUOUS
10
8.5756243307086617
20
-6.2111959055118104
11
8.5807414566929125
21
-6.2185039370078741
0
LINE
8
BLACK
6
CONTINUOUS
10
8.5807414566929125
20
-6.2185039370078741
11
8.5845118110236225
21
-6.2265895275590548
0
LINE
8
BLACK
6
CONTINUOUS
10
8.5845118110236225
20
-6.2265895275590548
11
8.586820866141732
21
-6.2352069685039373
0
LINE
8
BLACK
6
CONTINUOUS
10
8.586820866141732
20
-6.2352069685039373
11
8.58759842519685
21
-6.2440944881889759
0
LINE
8
BLACK
6
CONTINUOUS
10
8.58759842519685
20
-6.2440944881889759
11
8.586820866141732
21
-6.2529820078740155
0
LINE
8
BLACK
6
CONTINUOUS
10
8.586820866141732
20
-6.2529820078740155
11
8.5845118110236225
21
-6.2615994488188971
0
LINE
8
BLACK
6
CONTINUOUS
10
8.5845118110236225
20
-6.2615994488188971
11
8.5807414566929125
21
-6.2696850393700787
0
LINE
8
BLACK
6
CONTINUOUS
10
8.5807414566929125
20
-6.2696850393700787
11
8.5756243307086617
21
-6.2769930708661414
0
LINE
8
BLACK
6
CONTINUOUS
10
8.5756243307086617
20
-6.2769930708661414
11
8.5693159055118109
21
-6.2833014960629923
0
LINE
8
BLACK
6
CONTINUOUS
10
8.5693159055118109
20
-6.2833014960629923
11
8.5620078740157481
21
-6.288418622047244
0
LINE
8
BLACK
6
CONTINUOUS
10
8.5620078740157481
20
-6.288418622047244
11
8.5539222834645674
21
-6.292188976377953
0
LINE
8
BLACK
6
CONTINUOUS
10
8.5539222834645674
20
-6.292188976377953
11
8.545304842519684
21
-6.2944980314960626
0
LINE
8
BLACK
6
CONTINUOUS
10
8.545304842519684
20
-6.2944980314960626
11
8.5364173228346463
21
-6.2952755905511806
0
LINE
8
BLACK
6
CONTINUOUS
10
8.5364173228346463
20
-6.2952755905511806
11
8.5275298031496067
21
-6.2944980314960626
0
LINE
8
BLACK
6
CONTINUOUS
10
8.5275298031496067
20
-6.2944980314960626
11
8.5189123622047234
21
-6.292188976377953
0
LINE
8
BLACK
6
CONTINUOUS
10
8.5189123622047234
20
-6.292188976377953
11
8.5108267716535426
21
-6.288418622047244
0
LINE
8
BLACK
6
CONTINUOUS
10
8.5108267716535426
20
-6.288418622047244
11
8.5035187401574799
21
-6.2833014960629923
0
LINE
8
BLACK
6
CONTINUOUS
10
8.5035187401574799
20
-6.2833014960629923
11
8.4972103149606291
21
-6.2769930708661414
0
LINE
8
BLACK
6
CONTINUOUS
10
8.4972103149606291
20
-6.2769930708661414
11
8.4920931889763782
21
-6.2696850393700787
0
LINE
8
BLACK
6
CONTINUOUS
10
8.4920931889763782
20
-6.2696850393700787
11
8.4883228346456683
21
-6.2615994488188971
0
LINE
8
BLACK
6
CONTINUOUS
10
8.4883228346456683
20
-6.2615994488188971
11
8.4860137795275588
21
-6.2529820078740155
0
LINE
8
BLACK
6
CONTINUOUS
10
8.4860137795275588
20
-6.2529820078740155
11
8.4852362204724407
21
-6.2440944881889759
0
LINE
8
BLACK
6
CONTINUOUS
10
8.4852362204724407
20
-6.2440944881889759
11
8.4860137795275588
21
-6.2352069685039373
0
LINE
8
BLACK
6
CONTINUOUS
10
8.4860137795275588
20
-6.2352069685039373
11
8.4883228346456683
21
-6.2265895275590548
0
LINE
8
BLACK
6
CONTINUOUS
10
8.4883228346456683
20
-6.2265895275590548
11
8.4920931889763782
21
-6.2185039370078741
0
LINE
8
BLACK
6
CONTINUOUS
10
8.4920931889763782
20
-6.2185039370078741
11
8.4972103149606291
21
-6.2111959055118104
0
LINE
8
BLACK
6
CONTINUOUS
10
8.4972103149606291
20
-6.2111959055118104
11
8.5035187401574799
21
-6.2048874803149605
0
LINE
8
BLACK
6
CONTINUOUS
10
8.5035187401574799
20
-6.2048874803149605
11
8.5108267716535426
21
-6.1997703543307088
0
LINE
8
BLACK
6
CONTINUOUS
10
8.5108267716535426
20
-6.1997703543307088
11
8.5189123622047234
21
-6.1959999999999997
0
LINE
8
BLACK
6
CONTINUOUS
10
8.5189123622047234
20
-6.1959999999999997
11
8.5275298031496067
21
-6.1936909448818893
0
LINE
8
BLACK
6
CONTINUOUS
10
8.5275298031496067
20
-6.1936909448818893
11
8.5364173228346463
21
-6.1929133858267713
0
LINE
8
BLACK
6
CONTINUOUS
10
8.5364173228346463
20
-6.1929133858267713
11
8.545304842519684
21
-6.1936909448818893
0
LINE
8
BLACK
6
CONTINUOUS
10
7.5019977559055118
20
-4.8551082677165356
11
7.5106151968503934
21
-4.857417322834646
0
LINE
8
BLACK
6
CONTINUOUS
10
7.5106151968503934
20
-4.857417322834646
11
7.518700787401575
21
-4.8611876771653542
0
LINE
8
BLACK
6
CONTINUOUS
10
7.518700787401575
20
-4.8611876771653542
11
7.5260088188976377
21
-4.8663048031496059
0
LINE
8
BLACK
6
CONTINUOUS
10
7.5260088188976377
20
-4.8663048031496059
11
7.5323172440944877
21
-4.8726132283464567
0
LINE
8
BLACK
6
CONTINUOUS
10
7.5323172440944877
20
-4.8726132283464567
11
7.5374343700787403
21
-4.8799212598425195
0
LINE
8
BLACK
6
CONTINUOUS
10
7.5374343700787403
20
-4.8799212598425195
11
7.5412047244094484
21
-4.8880068503937011
0
LINE
8
BLACK
6
CONTINUOUS
10
7.5412047244094484
20
-4.8880068503937011
11
7.5435137795275589
21
-4.8966242913385827
0
LINE
8
BLACK
6
CONTINUOUS
10
7.5435137795275589
20
-4.8966242913385827
11
7.5442913385826769
21
-4.9055118110236222
0
LINE
8
BLACK
6
CONTINUOUS
10
7.5442913385826769
20
-4.9055118110236222
11
7.5435137795275589
21
-4.9143993307086609
0
LINE
8
BLACK
6
CONTINUOUS
10
7.5435137795275589
20
-4.9143993307086609
11
7.5412047244094484
21
-4.9230167716535433
0
LINE
8
BLACK
6
CONTINUOUS
10
7.5412047244094484
20
-4.9230167716535433
11
7.5374343700787403
21
-4.9311023622047241
0
LINE
8
BLACK
6
CONTINUOUS
10
7.5374343700787403
20
-4.9311023622047241
11
7.5323172440944877
21
-4.9384103937007877
0
LINE
8
BLACK
6
CONTINUOUS
10
7.5323172440944877
20
-4.9384103937007877
11
7.5260088188976377
21
-4.9447188188976376
0
LINE
8
BLACK
6
CONTINUOUS
10
7.5260088188976377
20
-4.9447188188976376
11
7.518700787401575
21
-4.9498359448818894
0
LINE
8
BLACK
6
CONTINUOUS
10
7.518700787401575
20
-4.9498359448818894
11
7.5106151968503934
21
-4.9536062992125984
0
LINE
8
BLACK
6
CONTINUOUS
10
7.5106151968503934
20
-4.9536062992125984
11
7.5019977559055118
21
-4.9559153543307088
0
LINE
8
BLACK
6
CONTINUOUS
10
7.5019977559055118
20
-4.9559153543307088
11
7.4931102362204722
21
-4.9566929133858268
0
LINE
8
BLACK
6
CONTINUOUS
10
7.4931102362204722
20
-4.9566929133858268
11
7.4842227165354327
21
-4.9559153543307088
0
LINE
8
BLACK
6
CONTINUOUS
10
7.4842227165354327
20
-4.9559153543307088
11
7.4756052755905511
21
-4.9536062992125984
0
LINE
8
BLACK
6
CONTINUOUS
10
7.4756052755905511
20
-4.9536062992125984
11
7.4675196850393695
21
-4.9498359448818894
0
LINE
8
BLACK
6
CONTINUOUS
10
7.4675196850393695
20
-4.9498359448818894
11
7.4602116535433067
21
-4.9447188188976376
0
LINE
8
BLACK
6
CONTINUOUS
10
7.4602116535433067
20
-4.9447188188976376
11
7.4539032283464568
21
-4.9384103937007877
0
LINE
8
BLACK
6
CONTINUOUS
10
7.4539032283464568
20
-4.9384103937007877
11
7.4487861023622042
21
-4.9311023622047241
0
LINE
8
BLACK
6
CONTINUOUS
10
7.4487861023622042
20
-4.9311023622047241
11
7.445015748031496
21
-4.9230167716535433
0
LINE
8
BLACK
6
CONTINUOUS
10
7.445015748031496
20
-4.9230167716535433
11
7.4427066929133856
21
-4.9143993307086609
0
LINE
8
BLACK
6
CONTINUOUS
10
7.4427066929133856
20
-4.9143993307086609
11
7.4419291338582676
21
-4.9055118110236222
0
LINE
8
BLACK
6
CONTINUOUS
10
7.4419291338582676
20
-4.9055118110236222
11
7.4427066929133856
21
-4.8966242913385827
0
LINE
8
BLACK
6
CONTINUOUS
10
7.4427066929133856
20
-4.8966242913385827
11
7.445015748031496
21
-4.8880068503937011
0
LINE
8
BLACK
6
CONTINUOUS
10
7.445015748031496
20
-4.8880068503937011
11
7.4487861023622042
21
-4.8799212598425195
0
LINE
8
BLACK
6
CONTINUOUS
10
7.4487861023622042
20
-4.8799212598425195
11
7.4539032283464568
21
-4.8726132283464567
0
LINE
8
BLACK
6
CONTINUOUS
10
7.4539032283464568
20
-4.8726132283464567
11
7.4602116535433067
21
-4.8663048031496059
0
LINE
8
BLACK
6
CONTINUOUS
10
7.4602116535433067
20
-4.8663048031496059
11
7.4675196850393695
21
-4.8611876771653542
0
LINE
8
BLACK
6
CONTINUOUS
10
7.4675196850393695
20
-4.8611876771653542
11
7.4756052755905511
21
-4.857417322834646
0
LINE
8
BLACK
6
CONTINUOUS
10
7.4756052755905511
20
-4.857417322834646
11
7.4842227165354327
21
-4.8551082677165356
0
LINE
8
BLACK
6
CONTINUOUS
10
7.4842227165354327
20
-4.8551082677165356
11
7.4931102362204722
21
-4.8543307086614176
0
LINE
8
BLACK
6
CONTINUOUS
10
7.4931102362204722
20
-4.8543307086614176
11
7.5019977559055118
21
-4.8551082677165356
0
LINE
8
BLACK
6
CONTINUOUS
10
4.6082969685039368
20
-4.2251870078740152
11
4.6169144094488184
21
-4.2274960629921257
0
LINE
8
BLACK
6
CONTINUOUS
10
4.6169144094488184
20
-4.2274960629921257
11
4.625
21
-4.2312664173228347
0
LINE
8
BLACK
6
CONTINUOUS
10
4.625
20
-4.2312664173228347
11
4.6323080314960627
21
-4.2363835433070864
0
LINE
8
BLACK
6
CONTINUOUS
10
4.6323080314960627
20
-4.2363835433070864
11
4.6386164566929136
21
-4.2426919685039373
0
LINE
8
BLACK
6
CONTINUOUS
10
4.6386164566929136
20
-4.2426919685039373
11
4.6437335826771653
21
-4.25
0
LINE
8
BLACK
6
CONTINUOUS
10
4.6437335826771653
20
-4.25
11
4.6475039370078743
21
-4.2580855905511807
0
LINE
8
BLACK
6
CONTINUOUS
10
4.6475039370078743
20
-4.2580855905511807
11
4.6498129921259839
21
-4.2667030314960632
0
LINE
8
BLACK
6
CONTINUOUS
10
4.6498129921259839
20
-4.2667030314960632
11
4.6505905511811019
21
-4.2755905511811019
0
LINE
8
BLACK
6
CONTINUOUS
10
4.6505905511811019
20
-4.2755905511811019
11
4.6498129921259839
21
-4.2844780708661414
0
LINE
8
BLACK
6
CONTINUOUS
10
4.6498129921259839
20
-4.2844780708661414
11
4.6475039370078743
21
-4.2930955118110239
0
LINE
8
BLACK
6
CONTINUOUS
10
4.6475039370078743
20
-4.2930955118110239
11
4.6437335826771653
21
-4.3011811023622046
0
LINE
8
BLACK
6
CONTINUOUS
10
4.6437335826771653
20
-4.3011811023622046
11
4.6386164566929136
21
-4.3084891338582674
0
LINE
8
BLACK
6
CONTINUOUS
10
4.6386164566929136
20
-4.3084891338582674
11
4.6323080314960627
21
-4.3147975590551182
0
LINE
8
BLACK
6
CONTINUOUS
10
4.6323080314960627
20
-4.3147975590551182
11
4.625
21
-4.3199146850393699
0
LINE
8
BLACK
6
CONTINUOUS
10
4.625
20
-4.3199146850393699
11
4.6169144094488184
21
-4.323685039370079
0
LINE
8
BLACK
6
CONTINUOUS
10
4.6169144094488184
20
-4.323685039370079
11
4.6082969685039368
21
-4.3259940944881885
0
LINE
8
BLACK
6
CONTINUOUS
10
4.6082969685039368
20
-4.3259940944881885
11
4.5994094488188972
21
-4.3267716535433074
0
LINE
8
BLACK
6
CONTINUOUS
10
4.5994094488188972
20
-4.3267716535433074
11
4.5905219291338586
21
-4.3259940944881885
0
LINE
8
BLACK
6
CONTINUOUS
10
4.5905219291338586
20
-4.3259940944881885
11
4.5819044881889761
21
-4.323685039370079
0
LINE
8
BLACK
6
CONTINUOUS
10
4.5819044881889761
20
-4.323685039370079
11
4.5738188976377954
21
-4.3199146850393699
0
LINE
8
BLACK
6
CONTINUOUS
10
4.5738188976377954
20
-4.3199146850393699
11
4.5665108661417317
21
-4.3147975590551182
0
LINE
8
BLACK
6
CONTINUOUS
10
4.5665108661417317
20
-4.3147975590551182
11
4.5602024409448818
21
-4.3084891338582674
0
LINE
8
BLACK
6
CONTINUOUS
10
4.5602024409448818
20
-4.3084891338582674
11
4.5550853149606301
21
-4.3011811023622046
0
LINE
8
BLACK
6
CONTINUOUS
10
4.5550853149606301
20
-4.3011811023622046
11
4.551314960629921
21
-4.2930955118110239
0
LINE
8
BLACK
6
CONTINUOUS
10
4.551314960629921
20
-4.2930955118110239
11
4.5490059055118106
21
-4.2844780708661414
0
LINE
8
BLACK
6
CONTINUOUS
10
4.5490059055118106
20
-4.2844780708661414
11
4.5482283464566926
21
-4.2755905511811019
0
LINE
8
BLACK
6
CONTINUOUS
10
4.5482283464566926
20
-4.2755905511811019
11
4.5490059055118106
21
-4.2667030314960632
0
LINE
8
BLACK
6
CONTINUOUS
10
4.5490059055118106
20
-4.2667030314960632
11
4.551314960629921
21
-4.2580855905511807
0
LINE
8
BLACK
6
CONTINUOUS
10
4.551314960629921
20
-4.2580855905511807
11
4.5550853149606301
21
-4.25
0
LINE
8
BLACK
6
CONTINUOUS
10
4.5550853149606301
20
-4.25
11
4.5602024409448818
21
-4.2426919685039373
0
LINE
8
BLACK
6
CONTINUOUS
10
4.5602024409448818
20
-4.2426919685039373
11
4.5665108661417317
21
-4.2363835433070864
0
LINE
8
BLACK
6
CONTINUOUS
10
4.5665108661417317
20
-4.2363835433070864
11
4.5738188976377954
21
-4.2312664173228347
0
LINE
8
BLACK
6
CONTINUOUS
10
4.5738188976377954
20
-4.2312664173228347
11
4.5819044881889761
21
-4.2274960629921257
0
LINE
8
BLACK
6
CONTINUOUS
10
4.5819044881889761
20
-4.2274960629921257
11
4.5905219291338586
21
-4.2251870078740152
0
LINE
8
BLACK
6
CONTINUOUS
10
4.5905219291338586
20
-4.2251870078740152
11
4.5994094488188972
21
-4.2244094488188972
0
LINE
8
BLACK
6
CONTINUOUS
10
4.5994094488188972
20
-4.2244094488188972
11
4.6082969685039368
21
-4.2251870078740152
  0
ENDSEC
  0
EOF
