  0
SECTION
  2
HEADER
  9
$ANGBASE
  50
0.0
  9
$ANGDIR
  70
1
  9
$MEASUREMENT
  70
0
  0
ENDSEC
  0
SECTION
  2
TABLES
  0
TABLE
  2
LTYPE
  70
4
  0
LTYPE
  5
40F
  2
CONTINUOUS
  70
0
  3
Solid line
  72
65
  73
0
  40
0.0
  0
LTYPE
  5
410
  2
DASHDOT
 70
0
  3
Dash Dot ____ _ ____ _
 72
65
 73
4
 40
2.0
 49
1.25
 49
-0.25
 49
0.25
 49
-0.25
  0
LTYPE
  5
411
  2
DASHED
 70
0
  3
Dashed __ __ __ __ __
 72
65
 73
2
 40
0.75
 49
0.5
 49
-0.25
  0
LTYPE
  5
43B
  2
DOTTED
 70
0
  3
Dotted .  .  .  .
 72
65
 73
2
 40
0.2
 49
0.0
 49
-0.2
  0
ENDTAB
  0
TABLE
  2
STYLE
  70
4
  0
STYLE
  2
KICAD
  70
0
  40
0
  41
1
  42
1
  50
0
  71
0
  3
isocp.shx
  0
STYLE
  2
KICADB
  70
0
  40
0
  41
1
  42
1
  50
0
  71
0
  3
isocp.shx
  0
STYLE
  2
KICADI
  70
0
  40
0
  41
1
  42
1
  50
15
  71
0
  3
isocp.shx
  0
STYLE
  2
KICADBI
  70
0
  40
0
  41
1
  42
1
  50
15
  71
0
  3
isocp.shx
  0
ENDTAB
  0
TABLE
  2
LAYER
  70
1
  0
LAYER
  2
BLACK
  70
0
  62
7
  6
CONTINUOUS
  0
ENDTAB
  0
ENDSEC
  0
SECTION
  2
ENTITIES
0
LINE
8
BLACK
6
CONTINUOUS
10
7.3366466141732278
20
-8.0698494488188981
11
7.338080748031496
21
-8.0703999606299206
0
LINE
8
BLACK
6
CONTINUOUS
10
7.338080748031496
20
-8.0703999606299206
11
7.338201377952756
21
-8.0705144488188978
0
LINE
8
BLACK
6
CONTINUOUS
10
7.338201377952756
20
-8.0705144488188978
11
7.3391950393700789
21
-8.0714573622047237
0
LINE
8
BLACK
6
CONTINUOUS
10
7.3391950393700789
20
-8.0714573622047237
11
7.5637620866141733
21
-8.575657283464567
0
LINE
8
BLACK
6
CONTINUOUS
10
7.5637620866141733
20
-8.575657283464567
11
7.5640053937007874
21
-8.5763896850393699
0
LINE
8
BLACK
6
CONTINUOUS
10
7.5640053937007874
20
-8.5763896850393699
11
7.5640455905511805
21
-8.5779253149606305
0
LINE
8
BLACK
6
CONTINUOUS
10
7.5640455905511805
20
-8.5779253149606305
11
7.5634950787401571
21
-8.5793594488188969
0
LINE
8
BLACK
6
CONTINUOUS
10
7.5634950787401571
20
-8.5793594488188969
11
7.5624376771653541
21
-8.5804737401574798
0
LINE
8
BLACK
6
CONTINUOUS
10
7.5624376771653541
20
-8.5804737401574798
11
7.5622050393700784
21
-8.5805772834645673
0
LINE
8
BLACK
6
CONTINUOUS
10
7.5622050393700784
20
-8.5805772834645673
11
7.0582377952755904
21
-8.805040787401575
0
LINE
8
BLACK
6
CONTINUOUS
10
7.0582377952755904
20
-8.805040787401575
11
7.0575053543307087
21
-8.8052840944881883
0
LINE
8
BLACK
6
CONTINUOUS
10
7.0575053543307087
20
-8.8052840944881883
11
7.055969724409449
21
-8.8053242913385823
0
LINE
8
BLACK
6
CONTINUOUS
10
7.055969724409449
20
-8.8053242913385823
11
7.0545356299212596
21
-8.804773779527558
0
LINE
8
BLACK
6
CONTINUOUS
10
7.0545356299212596
20
-8.804773779527558
11
7.053421299212598
21
-8.803716377952755
0
LINE
8
BLACK
6
CONTINUOUS
10
7.053421299212598
20
-8.803716377952755
11
7.0533177165354326
21
-8.8034837401574801
0
LINE
8
BLACK
6
CONTINUOUS
10
7.0533177165354326
20
-8.8034837401574801
11
6.8288542519685036
21
-8.2995164960629921
0
LINE
8
BLACK
6
CONTINUOUS
10
6.8288542519685036
20
-8.2995164960629921
11
6.8286109448818895
21
-8.2987840551181105
0
LINE
8
BLACK
6
CONTINUOUS
10
6.8286109448818895
20
-8.2987840551181105
11
6.8285707480314963
21
-8.2972484251968499
0
LINE
8
BLACK
6
CONTINUOUS
10
6.8285707480314963
20
-8.2972484251968499
11
6.8291212598425197
21
-8.2958143307086605
0
LINE
8
BLACK
6
CONTINUOUS
10
6.8291212598425197
20
-8.2958143307086605
11
6.8301786614173228
21
-8.2947000000000006
0
LINE
8
BLACK
6
CONTINUOUS
10
6.8301786614173228
20
-8.2947000000000006
11
7.3343785826771652
21
-8.0701329527559054
0
LINE
8
BLACK
6
CONTINUOUS
10
7.3343785826771652
20
-8.0701329527559054
11
7.3351109842519682
21
-8.0698896456692903
0
LINE
8
BLACK
6
CONTINUOUS
10
7.3351109842519682
20
-8.0698896456692903
11
7.3366466141732278
21
-8.0698494488188981
0
LINE
8
BLACK
6
CONTINUOUS
10
6.837580157480315
20
-8.2999404724409445
11
7.0586617716535436
21
-8.7963148425196849
0
LINE
8
BLACK
6
CONTINUOUS
10
7.0586617716535436
20
-8.7963148425196849
11
7.5550361811023619
21
-8.5752332283464572
0
LINE
8
BLACK
6
CONTINUOUS
10
7.5550361811023619
20
-8.5752332283464572
11
7.3339545275590545
21
-8.078858818897638
0
LINE
8
BLACK
6
CONTINUOUS
10
7.3339545275590545
20
-8.078858818897638
11
6.837580157480315
21
-8.2999404724409445
0
LINE
8
BLACK
6
CONTINUOUS
10
6.6099214960629924
20
-7.3561512992125984
11
6.6112714960629919
21
-7.3568842913385826
0
LINE
8
BLACK
6
CONTINUOUS
10
6.6112714960629919
20
-7.3568842913385826
11
6.9586831889763774
21
-7.7857817322834642
0
LINE
8
BLACK
6
CONTINUOUS
10
6.9586831889763774
20
-7.7857817322834642
11
6.9591077559055119
21
-7.7864262204724408
0
LINE
8
BLACK
6
CONTINUOUS
10
6.9591077559055119
20
-7.7864262204724408
11
6.9595440551181103
21
-7.7878991338582679
0
LINE
8
BLACK
6
CONTINUOUS
10
6.9595440551181103
20
-7.7878991338582679
11
6.9593834645669288
21
-7.789426850393701
0
LINE
8
BLACK
6
CONTINUOUS
10
6.9593834645669288
20
-7.789426850393701
11
6.9586505118110233
21
-7.7907768503937005
0
LINE
8
BLACK
6
CONTINUOUS
10
6.9586505118110233
20
-7.7907768503937005
11
6.5297529921259843
21
-8.138188543307086
0
LINE
8
BLACK
6
CONTINUOUS
10
6.5297529921259843
20
-8.138188543307086
11
6.5291085039370076
21
-8.1386131102362196
0
LINE
8
BLACK
6
CONTINUOUS
10
6.5291085039370076
20
-8.1386131102362196
11
6.5276355905511814
21
-8.1390494094488179
0
LINE
8
BLACK
6
CONTINUOUS
10
6.5276355905511814
20
-8.1390494094488179
11
6.5261078740157483
21
-8.1388888188976374
0
LINE
8
BLACK
6
CONTINUOUS
10
6.5261078740157483
20
-8.1388888188976374
11
6.5247578740157479
21
-8.1381558267716532
0
LINE
8
BLACK
6
CONTINUOUS
10
6.5247578740157479
20
-8.1381558267716532
11
6.1773462204724412
21
-7.7092583464566928
0
LINE
8
BLACK
6
CONTINUOUS
10
6.1773462204724412
20
-7.7092583464566928
11
6.1769216535433067
21
-7.7086138582677162
0
LINE
8
BLACK
6
CONTINUOUS
10
6.1769216535433067
20
-7.7086138582677162
11
6.1764853543307083
21
-7.7071409448818899
0
LINE
8
BLACK
6
CONTINUOUS
10
6.1764853543307083
20
-7.7071409448818899
11
6.1766459448818898
21
-7.7056132283464569
0
LINE
8
BLACK
6
CONTINUOUS
10
6.1766459448818898
20
-7.7056132283464569
11
6.177378937007874
21
-7.7042632283464565
0
LINE
8
BLACK
6
CONTINUOUS
10
6.177378937007874
20
-7.7042632283464565
11
6.6062763779527556
21
-7.3568516141732285
0
LINE
8
BLACK
6
CONTINUOUS
10
6.6062763779527556
20
-7.3568516141732285
11
6.6069208661417322
21
-7.3564270078740153
0
LINE
8
BLACK
6
CONTINUOUS
10
6.6069208661417322
20
-7.3564270078740153
11
6.6083937795275585
21
-7.3559907086614169
0
LINE
8
BLACK
6
CONTINUOUS
10
6.6083937795275585
20
-7.3559907086614169
11
6.6099214960629924
21
-7.3561512992125984
0
LINE
8
BLACK
6
CONTINUOUS
10
6.1858844881889761
20
-7.7074094881889765
11
6.527904133858268
21
-8.1296502362204723
0
LINE
8
BLACK
6
CONTINUOUS
10
6.527904133858268
20
-8.1296502362204723
11
6.9501448818897638
21
-7.7876305511811026
0
LINE
8
BLACK
6
CONTINUOUS
10
6.9501448818897638
20
-7.7876305511811026
11
6.6081252362204719
21
-7.3653898818897634
0
LINE
8
BLACK
6
CONTINUOUS
10
6.6081252362204719
20
-7.3653898818897634
11
6.1858844881889761
21
-7.7074094881889765
0
LINE
8
BLACK
6
CONTINUOUS
10
7.9728016929133858
20
-6.8508857480314962
11
8.4193824409448812
21
-7.1752521259842519
0
LINE
8
BLACK
6
CONTINUOUS
10
8.4193824409448812
20
-7.1752521259842519
11
8.4199590944881884
21
-7.1757645669291339
0
LINE
8
BLACK
6
CONTINUOUS
10
8.4199590944881884
20
-7.1757645669291339
11
8.4199593700787396
21
-7.1757647637795277
0
LINE
8
BLACK
6
CONTINUOUS
10
8.4199593700787396
20
-7.1757647637795277
11
8.4207619685039372
21
-7.177074566929134
0
LINE
8
BLACK
6
CONTINUOUS
10
8.4207619685039372
20
-7.177074566929134
11
8.421002283464567
21
-7.1785918110236215
0
LINE
8
BLACK
6
CONTINUOUS
10
8.421002283464567
20
-7.1785918110236215
11
8.4206437007874015
21
-7.1800855118110238
0
LINE
8
BLACK
6
CONTINUOUS
10
8.4206437007874015
20
-7.1800855118110238
11
8.096277322834645
21
-7.6266662598425192
0
LINE
8
BLACK
6
CONTINUOUS
10
8.096277322834645
20
-7.6266662598425192
11
8.0957650000000001
21
-7.6272427165354326
0
LINE
8
BLACK
6
CONTINUOUS
10
8.0957650000000001
20
-7.6272427165354326
11
8.0957646850393701
21
-7.6272431889763777
0
LINE
8
BLACK
6
CONTINUOUS
10
8.0957646850393701
20
-7.6272431889763777
11
8.094647874015747
21
-7.6279275196850396
0
LINE
8
BLACK
6
CONTINUOUS
10
8.094647874015747
20
-7.6279275196850396
11
8.0944548818897637
21
-7.6280457874015744
0
LINE
8
BLACK
6
CONTINUOUS
10
8.0944548818897637
20
-7.6280457874015744
11
8.0929376377952753
21
-7.6282861023622042
0
LINE
8
BLACK
6
CONTINUOUS
10
8.0929376377952753
20
-7.6282861023622042
11
8.0914439370078739
21
-7.6279275196850396
0
LINE
8
BLACK
6
CONTINUOUS
10
8.0914439370078739
20
-7.6279275196850396
11
7.6448631889763776
21
-7.303561141732283
0
LINE
8
BLACK
6
CONTINUOUS
10
7.6448631889763776
20
-7.303561141732283
11
7.6442862992125979
21
-7.3030484645669294
0
LINE
8
BLACK
6
CONTINUOUS
10
7.6442862992125979
20
-7.3030484645669294
11
7.6434836614173225
21
-7.3017387007874017
0
LINE
8
BLACK
6
CONTINUOUS
10
7.6434836614173225
20
-7.3017387007874017
11
7.6432433464566927
21
-7.3002214566929133
0
LINE
8
BLACK
6
CONTINUOUS
10
7.6432433464566927
20
-7.3002214566929133
11
7.6436019291338582
21
-7.2987277559055119
0
LINE
8
BLACK
6
CONTINUOUS
10
7.6436019291338582
20
-7.2987277559055119
11
7.9679683070866139
21
-6.8521470078740156
0
LINE
8
BLACK
6
CONTINUOUS
10
7.9679683070866139
20
-6.8521470078740156
11
7.9684809842519684
21
-6.8515700787401572
0
LINE
8
BLACK
6
CONTINUOUS
10
7.9684809842519684
20
-6.8515700787401572
11
7.969790748031496
21
-6.8507674803149605
0
LINE
8
BLACK
6
CONTINUOUS
10
7.969790748031496
20
-6.8507674803149605
11
7.9713079921259844
21
-6.8505271653543307
0
LINE
8
BLACK
6
CONTINUOUS
10
7.9713079921259844
20
-6.8505271653543307
11
7.9728016929133858
21
-6.8508857480314962
0
LINE
8
BLACK
6
CONTINUOUS
10
7.6526320472440945
20
-7.2995653937007869
11
8.0922815748031489
21
-7.6188973622047245
0
LINE
8
BLACK
6
CONTINUOUS
10
8.0922815748031489
20
-7.6188973622047245
11
8.4116135433070855
21
-7.1792478346456692
0
LINE
8
BLACK
6
CONTINUOUS
10
8.4116135433070855
20
-7.1792478346456692
11
7.9719640157480312
21
-6.8599158661417325
0
LINE
8
BLACK
6
CONTINUOUS
10
7.9719640157480312
20
-6.8599158661417325
11
7.6526320472440945
21
-7.2995653937007869
0
LINE
8
BLACK
6
CONTINUOUS
10
5.8608896062992129
20
-6.743566338582677
11
6.3074703543307082
21
-7.0679327165354326
0
LINE
8
BLACK
6
CONTINUOUS
10
6.3074703543307082
20
-7.0679327165354326
11
6.3080472834645667
21
-7.0684453937007872
0
LINE
8
BLACK
6
CONTINUOUS
10
6.3080472834645667
20
-7.0684453937007872
11
6.3088498818897634
21
-7.0697551574803148
0
LINE
8
BLACK
6
CONTINUOUS
10
6.3088498818897634
20
-7.0697551574803148
11
6.3090901968503932
21
-7.0712724015748032
0
LINE
8
BLACK
6
CONTINUOUS
10
6.3090901968503932
20
-7.0712724015748032
11
6.3087316141732286
21
-7.0727661023622046
0
LINE
8
BLACK
6
CONTINUOUS
10
6.3087316141732286
20
-7.0727661023622046
11
6.3087315354330711
21
-7.0727661417322834
0
LINE
8
BLACK
6
CONTINUOUS
10
6.3087315354330711
20
-7.0727661417322834
11
6.3087315748031498
21
-7.0727661417322834
0
LINE
8
BLACK
6
CONTINUOUS
10
6.3087315748031498
20
-7.0727661417322834
11
5.9843651968503933
21
-7.5193468503937009
0
LINE
8
BLACK
6
CONTINUOUS
10
5.9843651968503933
20
-7.5193468503937009
11
5.9838527165354325
21
-7.519923503937008
0
LINE
8
BLACK
6
CONTINUOUS
10
5.9838527165354325
20
-7.519923503937008
11
5.9838525590551184
21
-7.5199237795275593
0
LINE
8
BLACK
6
CONTINUOUS
10
5.9838525590551184
20
-7.5199237795275593
11
5.982542755905512
21
-7.520726377952756
0
LINE
8
BLACK
6
CONTINUOUS
10
5.982542755905512
20
-7.520726377952756
11
5.9810255118110236
21
-7.5209666929133858
0
LINE
8
BLACK
6
CONTINUOUS
10
5.9810255118110236
20
-7.5209666929133858
11
5.9795318110236222
21
-7.5206081102362203
0
LINE
8
BLACK
6
CONTINUOUS
10
5.9795318110236222
20
-7.5206081102362203
11
5.5329511023622047
21
-7.1962417322834646
0
LINE
8
BLACK
6
CONTINUOUS
10
5.5329511023622047
20
-7.1962417322834646
11
5.5323741732283462
21
-7.1957290551181101
0
LINE
8
BLACK
6
CONTINUOUS
10
5.5323741732283462
20
-7.1957290551181101
11
5.5315715748031495
21
-7.1944192913385825
0
LINE
8
BLACK
6
CONTINUOUS
10
5.5315715748031495
20
-7.1944192913385825
11
5.5313312598425197
21
-7.1929020472440941
0
LINE
8
BLACK
6
CONTINUOUS
10
5.5313312598425197
20
-7.1929020472440941
11
5.5316898425196852
21
-7.1914083464566927
0
LINE
8
BLACK
6
CONTINUOUS
10
5.5316898425196852
20
-7.1914083464566927
11
5.8560562204724409
21
-6.7448275984251964
0
LINE
8
BLACK
6
CONTINUOUS
10
5.8560562204724409
20
-6.7448275984251964
11
5.8565688976377954
21
-6.7442506692913389
0
LINE
8
BLACK
6
CONTINUOUS
10
5.8565688976377954
20
-6.7442506692913389
11
5.8578786614173231
21
-6.7434480708661413
0
LINE
8
BLACK
6
CONTINUOUS
10
5.8578786614173231
20
-6.7434480708661413
11
5.8593959055118106
21
-6.7432077559055115
0
LINE
8
BLACK
6
CONTINUOUS
10
5.8593959055118106
20
-6.7432077559055115
11
5.8608896062992129
21
-6.743566338582677
0
LINE
8
BLACK
6
CONTINUOUS
10
5.5407199606299216
20
-7.1922459842519686
11
5.9803694488188972
21
-7.5115779527559052
0
LINE
8
BLACK
6
CONTINUOUS
10
5.9803694488188972
20
-7.5115779527559052
11
6.2997014960629922
21
-7.0719284645669287
0
LINE
8
BLACK
6
CONTINUOUS
10
6.2997014960629922
20
-7.0719284645669287
11
5.8600519291338582
21
-6.7525964566929133
0
LINE
8
BLACK
6
CONTINUOUS
10
5.8600519291338582
20
-6.7525964566929133
11
5.5407199606299216
21
-7.1922459842519686
0
LINE
8
BLACK
6
CONTINUOUS
10
7.2012890944881889
20
-6.7047204330708663
11
7.2027827952755903
21
-6.7050790157480318
0
LINE
8
BLACK
6
CONTINUOUS
10
7.2027827952755903
20
-6.7050790157480318
11
7.6493635039370078
21
-7.0294454330708662
0
LINE
8
BLACK
6
CONTINUOUS
10
7.6493635039370078
20
-7.0294454330708662
11
7.6499404330708662
21
-7.029958070866142
0
LINE
8
BLACK
6
CONTINUOUS
10
7.6499404330708662
20
-7.029958070866142
11
7.6507430708661417
21
-7.0312678740157475
0
LINE
8
BLACK
6
CONTINUOUS
10
7.6507430708661417
20
-7.0312678740157475
11
7.6507430708661417
21
-7.0312679133858262
0
LINE
8
BLACK
6
CONTINUOUS
10
7.6507430708661417
20
-7.0312679133858262
11
7.6509833858267715
21
-7.0327851181102359
0
LINE
8
BLACK
6
CONTINUOUS
10
7.6509833858267715
20
-7.0327851181102359
11
7.6506247637795273
21
-7.034278858267716
0
LINE
8
BLACK
6
CONTINUOUS
10
7.6506247637795273
20
-7.034278858267716
11
7.3262583858267716
21
-7.4808595669291336
0
LINE
8
BLACK
6
CONTINUOUS
10
7.3262583858267716
20
-7.4808595669291336
11
7.3257457086614171
21
-7.481436496062992
0
LINE
8
BLACK
6
CONTINUOUS
10
7.3257457086614171
20
-7.481436496062992
11
7.3244359448818894
21
-7.4822390944881887
0
LINE
8
BLACK
6
CONTINUOUS
10
7.3244359448818894
20
-7.4822390944881887
11
7.322918700787401
21
-7.4824794094488185
0
LINE
8
BLACK
6
CONTINUOUS
10
7.322918700787401
20
-7.4824794094488185
11
7.3214249999999996
21
-7.482120826771653
0
LINE
8
BLACK
6
CONTINUOUS
10
7.3214249999999996
20
-7.482120826771653
11
7.321375275590551
21
-7.4820846850393696
0
LINE
8
BLACK
6
CONTINUOUS
10
7.321375275590551
20
-7.4820846850393696
11
6.8748442519685034
21
-7.1577544094488186
0
LINE
8
BLACK
6
CONTINUOUS
10
6.8748442519685034
20
-7.1577544094488186
11
6.8742673228346458
21
-7.1572417322834641
0
LINE
8
BLACK
6
CONTINUOUS
10
6.8742673228346458
20
-7.1572417322834641
11
6.8734647244094482
21
-7.1559319685039364
0
LINE
8
BLACK
6
CONTINUOUS
10
6.8734647244094482
20
-7.1559319685039364
11
6.8732244094488184
21
-7.1544147244094489
0
LINE
8
BLACK
6
CONTINUOUS
10
6.8732244094488184
20
-7.1544147244094489
11
6.8735829921259839
21
-7.1529210236220475
0
LINE
8
BLACK
6
CONTINUOUS
10
6.8735829921259839
20
-7.1529210236220475
11
7.1979494094488183
21
-6.70634031496063
0
LINE
8
BLACK
6
CONTINUOUS
10
7.1979494094488183
20
-6.70634031496063
11
7.1984620472440941
21
-6.7057633858267716
0
LINE
8
BLACK
6
CONTINUOUS
10
7.1984620472440941
20
-6.7057633858267716
11
7.1984620472440941
21
-6.7057633464566928
0
LINE
8
BLACK
6
CONTINUOUS
10
7.1984620472440941
20
-6.7057633464566928
11
7.1984620866141729
21
-6.7057633464566928
0
LINE
8
BLACK
6
CONTINUOUS
10
7.1984620866141729
20
-6.7057633464566928
11
7.1997718503937005
21
-6.7049607480314961
0
LINE
8
BLACK
6
CONTINUOUS
10
7.1997718503937005
20
-6.7049607480314961
11
7.2012890944881889
21
-6.7047204330708663
0
LINE
8
BLACK
6
CONTINUOUS
10
6.8826131102362202
20
-7.1537586614173225
11
7.3222625984251968
21
-7.4730907086614176
0
LINE
8
BLACK
6
CONTINUOUS
10
7.3222625984251968
20
-7.4730907086614176
11
7.6415946850393697
21
-7.0334411811023623
0
LINE
8
BLACK
6
CONTINUOUS
10
7.6415946850393697
20
-7.0334411811023623
11
7.2019451181102356
21
-6.7141091338582672
0
LINE
8
BLACK
6
CONTINUOUS
10
7.2019451181102356
20
-6.7141091338582672
11
6.8826131102362202
21
-7.1537586614173225
0
LINE
8
BLACK
6
CONTINUOUS
10
6.7066498818897635
20
-6.1798861023622047
11
6.7081435826771649
21
-6.1802446850393702
0
LINE
8
BLACK
6
CONTINUOUS
10
6.7081435826771649
20
-6.1802446850393702
11
7.1547242913385825
21
-6.5046111023622046
0
LINE
8
BLACK
6
CONTINUOUS
10
7.1547242913385825
20
-6.5046111023622046
11
7.1553012204724409
21
-6.5051237401574804
0
LINE
8
BLACK
6
CONTINUOUS
10
7.1553012204724409
20
-6.5051237401574804
11
7.1561038582677163
21
-6.5064335433070868
0
LINE
8
BLACK
6
CONTINUOUS
10
7.1561038582677163
20
-6.5064335433070868
11
7.1561038582677163
21
-6.5064335826771655
0
LINE
8
BLACK
6
CONTINUOUS
10
7.1561038582677163
20
-6.5064335826771655
11
7.1563441732283462
21
-6.5079507874015743
0
LINE
8
BLACK
6
CONTINUOUS
10
7.1563441732283462
20
-6.5079507874015743
11
7.1559855511811019
21
-6.5094445275590553
0
LINE
8
BLACK
6
CONTINUOUS
10
7.1559855511811019
20
-6.5094445275590553
11
6.8316191732283462
21
-6.956025236220472
0
LINE
8
BLACK
6
CONTINUOUS
10
6.8316191732283462
20
-6.956025236220472
11
6.8311064960629917
21
-6.9566021653543304
0
LINE
8
BLACK
6
CONTINUOUS
10
6.8311064960629917
20
-6.9566021653543304
11
6.8297967322834641
21
-6.9574047637795271
0
LINE
8
BLACK
6
CONTINUOUS
10
6.8297967322834641
20
-6.9574047637795271
11
6.8282794881889766
21
-6.9576450787401569
0
LINE
8
BLACK
6
CONTINUOUS
10
6.8282794881889766
20
-6.9576450787401569
11
6.8267857874015743
21
-6.9572864960629923
0
LINE
8
BLACK
6
CONTINUOUS
10
6.8267857874015743
20
-6.9572864960629923
11
6.8267360629921257
21
-6.9572503543307089
0
LINE
8
BLACK
6
CONTINUOUS
10
6.8267360629921257
20
-6.9572503543307089
11
6.3802050393700789
21
-6.632920078740157
0
LINE
8
BLACK
6
CONTINUOUS
10
6.3802050393700789
20
-6.632920078740157
11
6.3796281102362205
21
-6.6324074015748034
0
LINE
8
BLACK
6
CONTINUOUS
10
6.3796281102362205
20
-6.6324074015748034
11
6.3788255118110238
21
-6.6310976377952757
0
LINE
8
BLACK
6
CONTINUOUS
10
6.3788255118110238
20
-6.6310976377952757
11
6.3785851968503939
21
-6.6295803937007873
0
LINE
8
BLACK
6
CONTINUOUS
10
6.3785851968503939
20
-6.6295803937007873
11
6.3789437795275585
21
-6.6280866929133859
0
LINE
8
BLACK
6
CONTINUOUS
10
6.3789437795275585
20
-6.6280866929133859
11
6.7033101968503939
21
-6.1815059842519684
0
LINE
8
BLACK
6
CONTINUOUS
10
6.7033101968503939
20
-6.1815059842519684
11
6.7038228346456687
21
-6.18092905511811
0
LINE
8
BLACK
6
CONTINUOUS
10
6.7038228346456687
20
-6.18092905511811
11
6.7038228346456687
21
-6.1809290157480312
0
LINE
8
BLACK
6
CONTINUOUS
10
6.7038228346456687
20
-6.1809290157480312
11
6.7038228740157475
21
-6.1809290157480312
0
LINE
8
BLACK
6
CONTINUOUS
10
6.7038228740157475
20
-6.1809290157480312
11
6.7051326377952751
21
-6.1801264173228345
0
LINE
8
BLACK
6
CONTINUOUS
10
6.7051326377952751
20
-6.1801264173228345
11
6.7066498818897635
21
-6.1798861023622047
0
LINE
8
BLACK
6
CONTINUOUS
10
6.3879738976377949
20
-6.6289243307086609
11
6.8276233858267714
21
-6.948256377952756
0
LINE
8
BLACK
6
CONTINUOUS
10
6.8276233858267714
20
-6.948256377952756
11
7.1469554724409443
21
-6.5086068503937007
0
LINE
8
BLACK
6
CONTINUOUS
10
7.1469554724409443
20
-6.5086068503937007
11
6.7073059055118112
21
-6.1892748031496065
0
LINE
8
BLACK
6
CONTINUOUS
10
6.7073059055118112
20
-6.1892748031496065
11
6.3879738976377949
21
-6.6289243307086609
0
LINE
8
BLACK
6
CONTINUOUS
10
7.5961823622047246
20
-6.1636109448818894
11
8.0427630708661422
21
-6.4879773622047239
0
LINE
8
BLACK
6
CONTINUOUS
10
8.0427630708661422
20
-6.4879773622047239
11
8.0433400000000006
21
-6.4884899999999996
0
LINE
8
BLACK
6
CONTINUOUS
10
8.0433400000000006
20
-6.4884899999999996
11
8.0441426377952752
21
-6.489799803149606
0
LINE
8
BLACK
6
CONTINUOUS
10
8.0441426377952752
20
-6.489799803149606
11
8.0441426377952752
21
-6.4897998425196848
0
LINE
8
BLACK
6
CONTINUOUS
10
8.0441426377952752
20
-6.4897998425196848
11
8.044382952755905
21
-6.4913170472440944
0
LINE
8
BLACK
6
CONTINUOUS
10
8.044382952755905
20
-6.4913170472440944
11
8.0440243307086607
21
-6.4928107874015746
0
LINE
8
BLACK
6
CONTINUOUS
10
8.0440243307086607
20
-6.4928107874015746
11
7.7196579527559051
21
-6.9393914960629921
0
LINE
8
BLACK
6
CONTINUOUS
10
7.7196579527559051
20
-6.9393914960629921
11
7.7191454724409443
21
-6.9399681496062993
0
LINE
8
BLACK
6
CONTINUOUS
10
7.7191454724409443
20
-6.9399681496062993
11
7.7191453149606302
21
-6.9399684251968505
0
LINE
8
BLACK
6
CONTINUOUS
10
7.7191453149606302
20
-6.9399684251968505
11
7.7178355118110238
21
-6.9407710236220472
0
LINE
8
BLACK
6
CONTINUOUS
10
7.7178355118110238
20
-6.9407710236220472
11
7.7163182677165354
21
-6.941011338582677
0
LINE
8
BLACK
6
CONTINUOUS
10
7.7163182677165354
20
-6.941011338582677
11
7.714824566929134
21
-6.9406527559055116
0
LINE
8
BLACK
6
CONTINUOUS
10
7.714824566929134
20
-6.9406527559055116
11
7.2682438582677165
21
-6.6162863385826771
0
LINE
8
BLACK
6
CONTINUOUS
10
7.2682438582677165
20
-6.6162863385826771
11
7.267666929133858
21
-6.6157736614173226
0
LINE
8
BLACK
6
CONTINUOUS
10
7.267666929133858
20
-6.6157736614173226
11
7.2668643307086613
21
-6.614463897637795
0
LINE
8
BLACK
6
CONTINUOUS
10
7.2668643307086613
20
-6.614463897637795
11
7.2666240157480315
21
-6.6129466535433066
0
LINE
8
BLACK
6
CONTINUOUS
10
7.2666240157480315
20
-6.6129466535433066
11
7.266982598425197
21
-6.6114529527559052
0
LINE
8
BLACK
6
CONTINUOUS
10
7.266982598425197
20
-6.6114529527559052
11
7.5913489763779527
21
-6.1648722047244089
0
LINE
8
BLACK
6
CONTINUOUS
10
7.5913489763779527
20
-6.1648722047244089
11
7.5918616535433072
21
-6.1642952755905513
0
LINE
8
BLACK
6
CONTINUOUS
10
7.5918616535433072
20
-6.1642952755905513
11
7.5931714173228348
21
-6.1634926771653538
0
LINE
8
BLACK
6
CONTINUOUS
10
7.5931714173228348
20
-6.1634926771653538
11
7.5946886614173224
21
-6.1632523622047239
0
LINE
8
BLACK
6
CONTINUOUS
10
7.5946886614173224
20
-6.1632523622047239
11
7.5961823622047246
21
-6.1636109448818894
0
LINE
8
BLACK
6
CONTINUOUS
10
7.2760127165354325
20
-6.6122905905511811
11
7.7156621653543302
21
-6.9316226377952752
0
LINE
8
BLACK
6
CONTINUOUS
10
7.7156621653543302
20
-6.9316226377952752
11
8.034994251968504
21
-6.4919731102362199
0
LINE
8
BLACK
6
CONTINUOUS
10
8.034994251968504
20
-6.4919731102362199
11
7.59534468503937
21
-6.1726410629921258
0
LINE
8
BLACK
6
CONTINUOUS
10
7.59534468503937
20
-6.1726410629921258
11
7.2760127165354325
21
-6.6122905905511811
0
LINE
8
BLACK
6
CONTINUOUS
10
7.1000494488188979
20
-5.6384180314960632
11
7.1015431496062993
21
-5.6387766141732278
0
LINE
8
BLACK
6
CONTINUOUS
10
7.1015431496062993
20
-5.6387766141732278
11
7.5481238582677159
21
-5.9631430314960632
0
LINE
8
BLACK
6
CONTINUOUS
10
7.5481238582677159
20
-5.9631430314960632
11
7.5487007874015744
21
-5.9636556692913381
0
LINE
8
BLACK
6
CONTINUOUS
10
7.5487007874015744
20
-5.9636556692913381
11
7.5495034251968498
21
-5.9649654724409444
0
LINE
8
BLACK
6
CONTINUOUS
10
7.5495034251968498
20
-5.9649654724409444
11
7.5495034251968498
21
-5.9649655118110232
0
LINE
8
BLACK
6
CONTINUOUS
10
7.5495034251968498
20
-5.9649655118110232
11
7.5497437401574805
21
-5.9664827165354328
0
LINE
8
BLACK
6
CONTINUOUS
10
7.5497437401574805
20
-5.9664827165354328
11
7.5493851181102363
21
-5.967976456692913
0
LINE
8
BLACK
6
CONTINUOUS
10
7.5493851181102363
20
-5.967976456692913
11
7.2250187401574806
21
-6.4145571653543305
0
LINE
8
BLACK
6
CONTINUOUS
10
7.2250187401574806
20
-6.4145571653543305
11
7.2245060629921261
21
-6.4151340944881889
0
LINE
8
BLACK
6
CONTINUOUS
10
7.2245060629921261
20
-6.4151340944881889
11
7.2231962992125984
21
-6.4159366929133856
0
LINE
8
BLACK
6
CONTINUOUS
10
7.2231962992125984
20
-6.4159366929133856
11
7.22167905511811
21
-6.4161770078740155
0
LINE
8
BLACK
6
CONTINUOUS
10
7.22167905511811
20
-6.4161770078740155
11
7.2201853543307086
21
-6.41581842519685
0
LINE
8
BLACK
6
CONTINUOUS
10
7.2201853543307086
20
-6.41581842519685
11
7.22013562992126
21
-6.4157822834645666
0
LINE
8
BLACK
6
CONTINUOUS
10
7.22013562992126
20
-6.4157822834645666
11
6.7736046062992123
21
-6.0914520078740155
0
LINE
8
BLACK
6
CONTINUOUS
10
6.7736046062992123
20
-6.0914520078740155
11
6.7730276771653539
21
-6.090939330708661
0
LINE
8
BLACK
6
CONTINUOUS
10
6.7730276771653539
20
-6.090939330708661
11
6.7722250787401572
21
-6.0896295669291334
0
LINE
8
BLACK
6
CONTINUOUS
10
6.7722250787401572
20
-6.0896295669291334
11
6.7719847637795274
21
-6.0881123228346459
0
LINE
8
BLACK
6
CONTINUOUS
10
6.7719847637795274
20
-6.0881123228346459
11
6.7723433464566929
21
-6.0866186220472436
0
LINE
8
BLACK
6
CONTINUOUS
10
6.7723433464566929
20
-6.0866186220472436
11
7.0967097637795273
21
-5.6400379133858269
0
LINE
8
BLACK
6
CONTINUOUS
10
7.0967097637795273
20
-5.6400379133858269
11
7.0972224015748031
21
-5.6394609842519685
0
LINE
8
BLACK
6
CONTINUOUS
10
7.0972224015748031
20
-5.6394609842519685
11
7.0972224015748031
21
-5.6394609448818898
0
LINE
8
BLACK
6
CONTINUOUS
10
7.0972224015748031
20
-5.6394609448818898
11
7.0972224409448819
21
-5.6394609448818898
0
LINE
8
BLACK
6
CONTINUOUS
10
7.0972224409448819
20
-5.6394609448818898
11
7.0985322047244095
21
-5.6386583464566931
0
LINE
8
BLACK
6
CONTINUOUS
10
7.0985322047244095
20
-5.6386583464566931
11
7.1000494488188979
21
-5.6384180314960632
0
LINE
8
BLACK
6
CONTINUOUS
10
6.7813734645669292
20
-6.0874562598425195
11
7.2210229527559058
21
-6.4067883070866136
0
LINE
8
BLACK
6
CONTINUOUS
10
7.2210229527559058
20
-6.4067883070866136
11
7.5403550393700787
21
-5.9671387795275592
0
LINE
8
BLACK
6
CONTINUOUS
10
7.5403550393700787
20
-5.9671387795275592
11
7.1007054724409446
21
-5.6478067322834642
0
LINE
8
BLACK
6
CONTINUOUS
10
7.1007054724409446
20
-5.6478067322834642
11
6.7813734645669292
21
-6.0874562598425195
0
LINE
8
BLACK
6
CONTINUOUS
10
7.9895819291338581
20
-5.622142874015748
11
8.4361626377952756
21
-5.9465092913385824
0
LINE
8
BLACK
6
CONTINUOUS
10
8.4361626377952756
20
-5.9465092913385824
11
8.4367393700787403
21
-5.9470217716535432
0
LINE
8
BLACK
6
CONTINUOUS
10
8.4367393700787403
20
-5.9470217716535432
11
8.4367396062992128
21
-5.9470219291338582
0
LINE
8
BLACK
6
CONTINUOUS
10
8.4367396062992128
20
-5.9470219291338582
11
8.4375422047244086
21
-5.9483317322834646
0
LINE
8
BLACK
6
CONTINUOUS
10
8.4375422047244086
20
-5.9483317322834646
11
8.4377825196850385
21
-5.949848976377953
0
LINE
8
BLACK
6
CONTINUOUS
10
8.4377825196850385
20
-5.949848976377953
11
8.437423937007873
21
-5.9513426771653544
0
LINE
8
BLACK
6
CONTINUOUS
10
8.437423937007873
20
-5.9513426771653544
11
8.1130575590551182
21
-6.3979234251968506
0
LINE
8
BLACK
6
CONTINUOUS
10
8.1130575590551182
20
-6.3979234251968506
11
8.1125448818897627
21
-6.3985003149606294
0
LINE
8
BLACK
6
CONTINUOUS
10
8.1125448818897627
20
-6.3985003149606294
11
8.1112351181102369
21
-6.3993029527559058
0
LINE
8
BLACK
6
CONTINUOUS
10
8.1112351181102369
20
-6.3993029527559058
11
8.1097178740157485
21
-6.3995432677165356
0
LINE
8
BLACK
6
CONTINUOUS
10
8.1097178740157485
20
-6.3995432677165356
11
8.1082241732283471
21
-6.3991846850393701
0
LINE
8
BLACK
6
CONTINUOUS
10
8.1082241732283471
20
-6.3991846850393701
11
8.1081792125984258
21
-6.3991520078740152
0
LINE
8
BLACK
6
CONTINUOUS
10
8.1081792125984258
20
-6.3991520078740152
11
7.6616434251968499
21
-6.0748182677165357
0
LINE
8
BLACK
6
CONTINUOUS
10
7.6616434251968499
20
-6.0748182677165357
11
7.6610664960629924
21
-6.0743055905511811
0
LINE
8
BLACK
6
CONTINUOUS
10
7.6610664960629924
20
-6.0743055905511811
11
7.6602638976377948
21
-6.0729958267716535
0
LINE
8
BLACK
6
CONTINUOUS
10
7.6602638976377948
20
-6.0729958267716535
11
7.660023582677165
21
-6.0714785826771651
0
LINE
8
BLACK
6
CONTINUOUS
10
7.660023582677165
20
-6.0714785826771651
11
7.6603821653543305
21
-6.0699848818897637
0
LINE
8
BLACK
6
CONTINUOUS
10
7.6603821653543305
20
-6.0699848818897637
11
7.9847485433070862
21
-5.6234041338582674
0
LINE
8
BLACK
6
CONTINUOUS
10
7.9847485433070862
20
-5.6234041338582674
11
7.9852612204724407
21
-5.622827204724409
0
LINE
8
BLACK
6
CONTINUOUS
10
7.9852612204724407
20
-5.622827204724409
11
7.9865709842519683
21
-5.6220246062992123
0
LINE
8
BLACK
6
CONTINUOUS
10
7.9865709842519683
20
-5.6220246062992123
11
7.9880882283464567
21
-5.6217842913385825
0
LINE
8
BLACK
6
CONTINUOUS
10
7.9880882283464567
20
-5.6217842913385825
11
7.9895819291338581
21
-5.622142874015748
0
LINE
8
BLACK
6
CONTINUOUS
10
7.6694122834645668
20
-6.0708225196850396
11
8.1090617716535434
21
-6.3901545669291338
0
LINE
8
BLACK
6
CONTINUOUS
10
8.1090617716535434
20
-6.3901545669291338
11
8.4283937795275587
21
-5.9505049999999997
0
LINE
8
BLACK
6
CONTINUOUS
10
8.4283937795275587
20
-5.9505049999999997
11
7.9887442519685035
21
-5.6311729921259843
0
LINE
8
BLACK
6
CONTINUOUS
10
7.9887442519685035
20
-5.6311729921259843
11
7.6694122834645668
21
-6.0708225196850396
0
LINE
8
BLACK
6
CONTINUOUS
10
4.2815810629921263
20
-5.7681033858267714
11
4.2823366929133861
21
-5.768258818897638
0
LINE
8
BLACK
6
CONTINUOUS
10
4.2823366929133861
20
-5.768258818897638
11
4.2823370078740153
21
-5.7682588582677168
0
LINE
8
BLACK
6
CONTINUOUS
10
4.2823370078740153
20
-5.7682588582677168
11
4.2836870078740157
21
-5.768991850393701
0
LINE
8
BLACK
6
CONTINUOUS
10
4.2836870078740157
20
-5.768991850393701
11
4.2846537401574798
21
-5.7701856692913385
0
LINE
8
BLACK
6
CONTINUOUS
10
4.2846537401574798
20
-5.7701856692913385
11
4.285090039370079
21
-5.7716585433070868
0
LINE
8
BLACK
6
CONTINUOUS
10
4.285090039370079
20
-5.7716585433070868
11
4.2274708267716532
21
-6.3205920472440944
0
LINE
8
BLACK
6
CONTINUOUS
10
4.2274708267716532
20
-6.3205920472440944
11
4.2273153937007875
21
-6.3213475984251968
0
LINE
8
BLACK
6
CONTINUOUS
10
4.2273153937007875
20
-6.3213475984251968
11
4.2273153543307087
21
-6.3213479921259843
0
LINE
8
BLACK
6
CONTINUOUS
10
4.2273153543307087
20
-6.3213479921259843
11
4.2265823622047245
21
-6.3226979921259838
0
LINE
8
BLACK
6
CONTINUOUS
10
4.2265823622047245
20
-6.3226979921259838
11
4.2253885433070861
21
-6.3236647244094488
0
LINE
8
BLACK
6
CONTINUOUS
10
4.2253885433070861
20
-6.3236647244094488
11
4.2239156692913387
21
-6.3241010236220472
0
LINE
8
BLACK
6
CONTINUOUS
10
4.2239156692913387
20
-6.3241010236220472
11
4.2239156299212599
21
-6.3241009842519684
0
LINE
8
BLACK
6
CONTINUOUS
10
4.2239156299212599
20
-6.3241009842519684
11
4.2239156299212599
21
-6.3241010236220472
0
LINE
8
BLACK
6
CONTINUOUS
10
4.2239156299212599
20
-6.3241010236220472
11
4.2238884645669295
21
-6.3240981496062991
0
LINE
8
BLACK
6
CONTINUOUS
10
4.2238884645669295
20
-6.3240981496062991
11
3.6749821653543306
21
-6.2664818110236222
0
LINE
8
BLACK
6
CONTINUOUS
10
3.6749821653543306
20
-6.2664818110236222
11
3.6742262204724407
21
-6.2663262992125981
0
LINE
8
BLACK
6
CONTINUOUS
10
3.6742262204724407
20
-6.2663262992125981
11
3.6728762204724408
21
-6.2655933070866139
0
LINE
8
BLACK
6
CONTINUOUS
10
3.6728762204724408
20
-6.2655933070866139
11
3.6719094881889762
21
-6.2643994881889764
0
LINE
8
BLACK
6
CONTINUOUS
10
3.6719094881889762
20
-6.2643994881889764
11
3.6714731889763779
21
-6.262926614173228
0
LINE
8
BLACK
6
CONTINUOUS
10
3.6714731889763779
20
-6.262926614173228
11
3.7290924015748033
21
-5.7139931496062992
0
LINE
8
BLACK
6
CONTINUOUS
10
3.7290924015748033
20
-5.7139931496062992
11
3.7292479133858265
21
-5.7132371653543306
0
LINE
8
BLACK
6
CONTINUOUS
10
3.7292479133858265
20
-5.7132371653543306
11
3.7299809055118107
21
-5.7118872047244089
0
LINE
8
BLACK
6
CONTINUOUS
10
3.7299809055118107
20
-5.7118872047244089
11
3.7311747244094486
21
-5.7109204724409448
0
LINE
8
BLACK
6
CONTINUOUS
10
3.7311747244094486
20
-5.7109204724409448
11
3.7326475984251966
21
-5.7104841732283464
0
LINE
8
BLACK
6
CONTINUOUS
10
3.7326475984251966
20
-5.7104841732283464
11
4.2815810629921263
21
-5.7681033858267714
0
LINE
8
BLACK
6
CONTINUOUS
10
3.6797122834645668
20
-6.2591369685039373
11
4.2201259842519683
21
-6.315861889763779
0
LINE
8
BLACK
6
CONTINUOUS
10
4.2201259842519683
20
-6.315861889763779
11
4.2768509055118109
21
-5.7754481889763776
0
LINE
8
BLACK
6
CONTINUOUS
10
4.2768509055118109
20
-5.7754481889763776
11
3.7364372047244094
21
-5.7187232677165349
0
LINE
8
BLACK
6
CONTINUOUS
10
3.7364372047244094
20
-5.7187232677165349
11
3.6797122834645668
21
-6.2591369685039373
0
LINE
8
BLACK
6
CONTINUOUS
10
6.2222369685039371
20
-5.5236842913385829
11
6.6953887401574805
21
-5.8078942913385827
0
LINE
8
BLACK
6
CONTINUOUS
10
6.6953887401574805
20
-5.8078942913385827
11
6.6960081496062989
21
-5.8083547244094484
0
LINE
8
BLACK
6
CONTINUOUS
10
6.6960081496062989
20
-5.8083547244094484
11
6.6969218897637797
21
-5.8095895669291338
0
LINE
8
BLACK
6
CONTINUOUS
10
6.6969218897637797
20
-5.8095895669291338
11
6.6972935039370078
21
-5.8110800787401571
0
LINE
8
BLACK
6
CONTINUOUS
10
6.6972935039370078
20
-5.8110800787401571
11
6.6970664566929132
21
-5.8125993700787397
0
LINE
8
BLACK
6
CONTINUOUS
10
6.6970664566929132
20
-5.8125993700787397
11
6.4128564566929134
21
-6.2857511023622044
0
LINE
8
BLACK
6
CONTINUOUS
10
6.4128564566929134
20
-6.2857511023622044
11
6.4123962204724405
21
-6.2863701968503936
0
LINE
8
BLACK
6
CONTINUOUS
10
6.4123962204724405
20
-6.2863701968503936
11
6.4123960629921255
21
-6.2863705118110236
0
LINE
8
BLACK
6
CONTINUOUS
10
6.4123960629921255
20
-6.2863705118110236
11
6.4120350393700782
21
-6.2866376377952751
0
LINE
8
BLACK
6
CONTINUOUS
10
6.4120350393700782
20
-6.2866376377952751
11
6.4111611811023623
21
-6.2872842519685035
0
LINE
8
BLACK
6
CONTINUOUS
10
6.4111611811023623
20
-6.2872842519685035
11
6.4096706692913381
21
-6.2876558661417326
0
LINE
8
BLACK
6
CONTINUOUS
10
6.4096706692913381
20
-6.2876558661417326
11
6.4081513779527555
21
-6.2874288188976379
0
LINE
8
BLACK
6
CONTINUOUS
10
6.4081513779527555
20
-6.2874288188976379
11
5.9349996062992121
21
-6.0032188188976381
0
LINE
8
BLACK
6
CONTINUOUS
10
5.9349996062992121
20
-6.0032188188976381
11
5.9343801968503938
21
-6.0027583858267715
0
LINE
8
BLACK
6
CONTINUOUS
10
5.9343801968503938
20
-6.0027583858267715
11
5.9334664566929129
21
-6.0015235433070862
0
LINE
8
BLACK
6
CONTINUOUS
10
5.9334664566929129
20
-6.0015235433070862
11
5.9330948425196848
21
-6.0000330314960628
0
LINE
8
BLACK
6
CONTINUOUS
10
5.9330948425196848
20
-6.0000330314960628
11
5.9333218897637794
21
-5.9985137401574802
0
LINE
8
BLACK
6
CONTINUOUS
10
5.9333218897637794
20
-5.9985137401574802
11
6.2175318897637792
21
-5.5253620078740155
0
LINE
8
BLACK
6
CONTINUOUS
10
6.2175318897637792
20
-5.5253620078740155
11
6.2179923228346459
21
-5.5247425984251963
0
LINE
8
BLACK
6
CONTINUOUS
10
6.2179923228346459
20
-5.5247425984251963
11
6.2192271653543303
21
-5.5238288582677164
0
LINE
8
BLACK
6
CONTINUOUS
10
6.2192271653543303
20
-5.5238288582677164
11
6.2207176771653545
21
-5.5234572440944882
0
LINE
8
BLACK
6
CONTINUOUS
10
6.2207176771653545
20
-5.5234572440944882
11
6.2222369685039371
21
-5.5236842913385829
0
LINE
8
BLACK
6
CONTINUOUS
10
5.9423906299212597
20
-5.9985611417322833
11
6.4081987795275586
21
-6.2783600393700789
0
LINE
8
BLACK
6
CONTINUOUS
10
6.4081987795275586
20
-6.2783600393700789
11
6.6879976771653542
21
-5.8125519291338579
0
LINE
8
BLACK
6
CONTINUOUS
10
6.6879976771653542
20
-5.8125519291338579
11
6.2221895275590553
21
-5.5327530314960631
0
LINE
8
BLACK
6
CONTINUOUS
10
6.2221895275590553
20
-5.5327530314960631
11
5.9423906299212597
21
-5.9985611417322833
0
LINE
8
BLACK
6
CONTINUOUS
10
5.0549862598425195
20
-5.7077239370078736
11
5.0557257874015749
21
-5.7079447244094483
0
LINE
8
BLACK
6
CONTINUOUS
10
5.0557257874015749
20
-5.7079447244094483
11
5.0570067716535432
21
-5.7087925984251964
0
LINE
8
BLACK
6
CONTINUOUS
10
5.0570067716535432
20
-5.7087925984251964
11
5.0577131496062995
21
-5.7098398425196848
0
LINE
8
BLACK
6
CONTINUOUS
10
5.0577131496062995
20
-5.7098398425196848
11
5.0578657874015747
21
-5.7100661417322831
0
LINE
8
BLACK
6
CONTINUOUS
10
5.0578657874015747
20
-5.7100661417322831
11
5.0581720472440947
21
-5.711571456692913
0
LINE
8
BLACK
6
CONTINUOUS
10
5.0581720472440947
20
-5.711571456692913
11
4.9529294488188977
21
-6.2533942125984252
0
LINE
8
BLACK
6
CONTINUOUS
10
4.9529294488188977
20
-6.2533942125984252
11
4.952708661417323
21
-6.2541337401574806
0
LINE
8
BLACK
6
CONTINUOUS
10
4.952708661417323
20
-6.2541337401574806
11
4.951860787401575
21
-6.2554146850393701
0
LINE
8
BLACK
6
CONTINUOUS
10
4.951860787401575
20
-6.2554146850393701
11
4.9505872440944882
21
-6.2562737007874016
0
LINE
8
BLACK
6
CONTINUOUS
10
4.9505872440944882
20
-6.2562737007874016
11
4.9490819291338584
21
-6.2565799999999996
0
LINE
8
BLACK
6
CONTINUOUS
10
4.9490819291338584
20
-6.2565799999999996
11
4.9488071259842519
21
-6.2565265748031491
0
LINE
8
BLACK
6
CONTINUOUS
10
4.9488071259842519
20
-6.2565265748031491
11
4.4072592125984249
21
-6.1513373622047247
0
LINE
8
BLACK
6
CONTINUOUS
10
4.4072592125984249
20
-6.1513373622047247
11
4.4065196850393704
21
-6.1511165748031491
0
LINE
8
BLACK
6
CONTINUOUS
10
4.4065196850393704
20
-6.1511165748031491
11
4.40523874015748
21
-6.1502687007874011
0
LINE
8
BLACK
6
CONTINUOUS
10
4.40523874015748
20
-6.1502687007874011
11
4.4043797244094485
21
-6.1489951574803152
0
LINE
8
BLACK
6
CONTINUOUS
10
4.4043797244094485
20
-6.1489951574803152
11
4.4040734251968505
21
-6.1474898425196853
0
LINE
8
BLACK
6
CONTINUOUS
10
4.4040734251968505
20
-6.1474898425196853
11
4.5093160629921263
21
-5.6056671259842519
0
LINE
8
BLACK
6
CONTINUOUS
10
4.5093160629921263
20
-5.6056671259842519
11
4.509536850393701
21
-5.6049275984251965
0
LINE
8
BLACK
6
CONTINUOUS
10
4.509536850393701
20
-5.6049275984251965
11
4.509536850393701
21
-5.6049275590551177
0
LINE
8
BLACK
6
CONTINUOUS
10
4.509536850393701
20
-5.6049275590551177
11
4.510384724409449
21
-5.6036466141732282
0
LINE
8
BLACK
6
CONTINUOUS
10
4.510384724409449
20
-5.6036466141732282
11
4.5116582677165349
21
-5.6027875984251967
0
LINE
8
BLACK
6
CONTINUOUS
10
4.5116582677165349
20
-5.6027875984251967
11
4.5131635826771657
21
-5.6024812992125979
0
LINE
8
BLACK
6
CONTINUOUS
10
4.5131635826771657
20
-5.6024812992125979
11
5.0549862598425195
21
-5.7077239370078736
0
LINE
8
BLACK
6
CONTINUOUS
10
4.4126114960629916
20
-6.1444326771653541
11
4.9460247637795272
21
-6.2480418897637797
0
LINE
8
BLACK
6
CONTINUOUS
10
4.9460247637795272
20
-6.2480418897637797
11
5.0496339763779527
21
-5.7146285433070867
0
LINE
8
BLACK
6
CONTINUOUS
10
5.0496339763779527
20
-5.7146285433070867
11
4.5162206692913385
21
-5.6110193700787399
0
LINE
8
BLACK
6
CONTINUOUS
10
4.5162206692913385
20
-5.6110193700787399
11
4.4126114960629916
21
-6.1444326771653541
0
LINE
8
BLACK
6
CONTINUOUS
10
5.4427975590551183
20
-5.3533050393700785
11
5.9389193700787404
21
-5.5951956299212595
0
LINE
8
BLACK
6
CONTINUOUS
10
5.9389193700787404
20
-5.5951956299212595
11
5.939576535433071
21
-5.5956003149606302
0
LINE
8
BLACK
6
CONTINUOUS
10
5.939576535433071
20
-5.5956003149606302
11
5.9405944094488188
21
-5.596750826771653
0
LINE
8
BLACK
6
CONTINUOUS
10
5.9405944094488188
20
-5.596750826771653
11
5.9405944094488188
21
-5.5967508661417318
0
LINE
8
BLACK
6
CONTINUOUS
10
5.9405944094488188
20
-5.5967508661417318
11
5.9410945275590548
21
-5.5982033070866137
0
LINE
8
BLACK
6
CONTINUOUS
10
5.9410945275590548
20
-5.5982033070866137
11
5.9410007874015749
21
-5.5997366141732279
0
LINE
8
BLACK
6
CONTINUOUS
10
5.9410007874015749
20
-5.5997366141732279
11
5.6991101574803151
21
-6.0958583858267712
0
LINE
8
BLACK
6
CONTINUOUS
10
5.6991101574803151
20
-6.0958583858267712
11
5.6987055118110232
21
-6.0965155905511805
0
LINE
8
BLACK
6
CONTINUOUS
10
5.6987055118110232
20
-6.0965155905511805
11
5.6975549606299207
21
-6.0975334645669292
0
LINE
8
BLACK
6
CONTINUOUS
10
5.6975549606299207
20
-6.0975334645669292
11
5.6961025196850397
21
-6.0980335826771652
0
LINE
8
BLACK
6
CONTINUOUS
10
5.6961025196850397
20
-6.0980335826771652
11
5.6946575590551181
21
-6.0979451968503939
0
LINE
8
BLACK
6
CONTINUOUS
10
5.6946575590551181
20
-6.0979451968503939
11
5.6945692125984246
21
-6.0979398031496066
0
LINE
8
BLACK
6
CONTINUOUS
10
5.6945692125984246
20
-6.0979398031496066
11
5.1984474409448822
21
-5.8560491732283459
0
LINE
8
BLACK
6
CONTINUOUS
10
5.1984474409448822
20
-5.8560491732283459
11
5.197790236220472
21
-5.855644527559055
0
LINE
8
BLACK
6
CONTINUOUS
10
5.197790236220472
20
-5.855644527559055
11
5.1967723622047242
21
-5.8544939763779524
0
LINE
8
BLACK
6
CONTINUOUS
10
5.1967723622047242
20
-5.8544939763779524
11
5.1962722440944882
21
-5.8530415354330705
0
LINE
8
BLACK
6
CONTINUOUS
10
5.1962722440944882
20
-5.8530415354330705
11
5.1963660236220468
21
-5.8515082677165351
0
LINE
8
BLACK
6
CONTINUOUS
10
5.1963660236220468
20
-5.8515082677165351
11
5.4382566141732278
21
-5.355386456692913
0
LINE
8
BLACK
6
CONTINUOUS
10
5.4382566141732278
20
-5.355386456692913
11
5.4386612992125984
21
-5.3547292913385824
0
LINE
8
BLACK
6
CONTINUOUS
10
5.4386612992125984
20
-5.3547292913385824
11
5.4386612992125984
21
-5.3547292519685037
0
LINE
8
BLACK
6
CONTINUOUS
10
5.4386612992125984
20
-5.3547292519685037
11
5.439811850393701
21
-5.3537113779527559
0
LINE
8
BLACK
6
CONTINUOUS
10
5.439811850393701
20
-5.3537113779527559
11
5.4412642913385829
21
-5.3532112598425199
0
LINE
8
BLACK
6
CONTINUOUS
10
5.4412642913385829
20
-5.3532112598425199
11
5.4427975590551183
21
-5.3533050393700785
0
LINE
8
BLACK
6
CONTINUOUS
10
5.2054043700787398
20
-5.8507650787401575
11
5.6938261023622045
21
-6.0889014173228349
0
LINE
8
BLACK
6
CONTINUOUS
10
5.6938261023622045
20
-6.0889014173228349
11
5.9319623622047244
21
-5.6004797244094489
0
LINE
8
BLACK
6
CONTINUOUS
10
5.9319623622047244
20
-5.6004797244094489
11
5.4435407086614171
21
-5.3623433858267715
0
LINE
8
BLACK
6
CONTINUOUS
10
5.4435407086614171
20
-5.3623433858267715
11
5.2054043700787398
21
-5.8507650787401575
0
LINE
8
BLACK
6
CONTINUOUS
10
7.4949427165354328
20
-5.0973085433070864
11
7.9415234251968503
21
-5.4216749606299208
0
LINE
8
BLACK
6
CONTINUOUS
10
7.9415234251968503
20
-5.4216749606299208
11
7.9421001574803149
21
-5.4221874409448816
0
LINE
8
BLACK
6
CONTINUOUS
10
7.9421001574803149
20
-5.4221874409448816
11
7.9421003937007875
21
-5.4221875984251966
0
LINE
8
BLACK
6
CONTINUOUS
10
7.9421003937007875
20
-5.4221875984251966
11
7.9429029921259842
21
-5.423497401574803
0
LINE
8
BLACK
6
CONTINUOUS
10
7.9429029921259842
20
-5.423497401574803
11
7.943143307086614
21
-5.4250146456692914
0
LINE
8
BLACK
6
CONTINUOUS
10
7.943143307086614
20
-5.4250146456692914
11
7.9427847244094485
21
-5.4265083464566928
0
LINE
8
BLACK
6
CONTINUOUS
10
7.9427847244094485
20
-5.4265083464566928
11
7.6184183464566928
21
-5.8730890944881891
0
LINE
8
BLACK
6
CONTINUOUS
10
7.6184183464566928
20
-5.8730890944881891
11
7.6179056692913383
21
-5.8736659842519687
0
LINE
8
BLACK
6
CONTINUOUS
10
7.6179056692913383
20
-5.8736659842519687
11
7.6165959055118106
21
-5.8744686220472442
0
LINE
8
BLACK
6
CONTINUOUS
10
7.6165959055118106
20
-5.8744686220472442
11
7.6150786614173223
21
-5.874708937007874
0
LINE
8
BLACK
6
CONTINUOUS
10
7.6150786614173223
20
-5.874708937007874
11
7.6135849606299209
21
-5.8743503543307085
0
LINE
8
BLACK
6
CONTINUOUS
10
7.6135849606299209
20
-5.8743503543307085
11
7.6135399999999995
21
-5.8743176771653545
0
LINE
8
BLACK
6
CONTINUOUS
10
7.6135399999999995
20
-5.8743176771653545
11
7.1670042125984255
21
-5.5499839370078741
0
LINE
8
BLACK
6
CONTINUOUS
10
7.1670042125984255
20
-5.5499839370078741
11
7.166427283464567
21
-5.5494712598425195
0
LINE
8
BLACK
6
CONTINUOUS
10
7.166427283464567
20
-5.5494712598425195
11
7.1656246850393703
21
-5.5481614960629919
0
LINE
8
BLACK
6
CONTINUOUS
10
7.1656246850393703
20
-5.5481614960629919
11
7.1653843700787396
21
-5.5466442519685035
0
LINE
8
BLACK
6
CONTINUOUS
10
7.1653843700787396
20
-5.5466442519685035
11
7.1657429527559051
21
-5.5451505511811021
0
LINE
8
BLACK
6
CONTINUOUS
10
7.1657429527559051
20
-5.5451505511811021
11
7.4901093307086608
21
-5.0985698031496058
0
LINE
8
BLACK
6
CONTINUOUS
10
7.4901093307086608
20
-5.0985698031496058
11
7.4906220078740153
21
-5.0979928740157483
0
LINE
8
BLACK
6
CONTINUOUS
10
7.4906220078740153
20
-5.0979928740157483
11
7.491931771653543
21
-5.0971902755905507
0
LINE
8
BLACK
6
CONTINUOUS
10
7.491931771653543
20
-5.0971902755905507
11
7.4934490157480313
21
-5.0969499606299209
0
LINE
8
BLACK
6
CONTINUOUS
10
7.4934490157480313
20
-5.0969499606299209
11
7.4949427165354328
21
-5.0973085433070864
0
LINE
8
BLACK
6
CONTINUOUS
10
7.1747730708661415
20
-5.545988188976378
11
7.614422559055118
21
-5.8653202362204722
0
LINE
8
BLACK
6
CONTINUOUS
10
7.614422559055118
20
-5.8653202362204722
11
7.9337545669291334
21
-5.4256706692913381
0
LINE
8
BLACK
6
CONTINUOUS
10
7.9337545669291334
20
-5.4256706692913381
11
7.494105039370079
21
-5.1063386614173227
0
LINE
8
BLACK
6
CONTINUOUS
10
7.494105039370079
20
-5.1063386614173227
11
7.1747730708661415
21
-5.545988188976378
0
LINE
8
BLACK
6
CONTINUOUS
10
6.5669475196850389
20
-4.9499896456692909
11
7.0400992519685035
21
-5.2341996456692916
0
LINE
8
BLACK
6
CONTINUOUS
10
7.0400992519685035
20
-5.2341996456692916
11
7.0407186614173227
21
-5.2346600787401574
0
LINE
8
BLACK
6
CONTINUOUS
10
7.0407186614173227
20
-5.2346600787401574
11
7.0416324015748026
21
-5.2358949212598427
0
LINE
8
BLACK
6
CONTINUOUS
10
7.0416324015748026
20
-5.2358949212598427
11
7.0420040157480317
21
-5.237385433070866
0
LINE
8
BLACK
6
CONTINUOUS
10
7.0420040157480317
20
-5.237385433070866
11
7.0417769685039371
21
-5.2389047244094487
0
LINE
8
BLACK
6
CONTINUOUS
10
7.0417769685039371
20
-5.2389047244094487
11
6.7575669685039372
21
-5.7120564566929133
0
LINE
8
BLACK
6
CONTINUOUS
10
6.7575669685039372
20
-5.7120564566929133
11
6.7571065354330706
21
-5.7126758661417325
0
LINE
8
BLACK
6
CONTINUOUS
10
6.7571065354330706
20
-5.7126758661417325
11
6.7558716929133853
21
-5.7135896062992124
0
LINE
8
BLACK
6
CONTINUOUS
10
6.7558716929133853
20
-5.7135896062992124
11
6.754381181102362
21
-5.7139612204724406
0
LINE
8
BLACK
6
CONTINUOUS
10
6.754381181102362
20
-5.7139612204724406
11
6.7528618897637793
21
-5.713734173228346
0
LINE
8
BLACK
6
CONTINUOUS
10
6.7528618897637793
20
-5.713734173228346
11
6.2797101574803147
21
-5.4295241732283461
0
LINE
8
BLACK
6
CONTINUOUS
10
6.2797101574803147
20
-5.4295241732283461
11
6.2790907480314964
21
-5.4290637401574804
0
LINE
8
BLACK
6
CONTINUOUS
10
6.2790907480314964
20
-5.4290637401574804
11
6.2781770078740156
21
-5.4278288976377951
0
LINE
8
BLACK
6
CONTINUOUS
10
6.2781770078740156
20
-5.4278288976377951
11
6.2778053937007874
21
-5.4263383858267717
0
LINE
8
BLACK
6
CONTINUOUS
10
6.2778053937007874
20
-5.4263383858267717
11
6.278032440944882
21
-5.4248190944881891
0
LINE
8
BLACK
6
CONTINUOUS
10
6.278032440944882
20
-5.4248190944881891
11
6.5622424409448818
21
-4.9516673622047245
0
LINE
8
BLACK
6
CONTINUOUS
10
6.5622424409448818
20
-4.9516673622047245
11
6.5627028740157476
21
-4.9510479527559053
0
LINE
8
BLACK
6
CONTINUOUS
10
6.5627028740157476
20
-4.9510479527559053
11
6.5639377165354329
21
-4.9501342125984253
0
LINE
8
BLACK
6
CONTINUOUS
10
6.5639377165354329
20
-4.9501342125984253
11
6.5654282283464562
21
-4.9497625984251972
0
LINE
8
BLACK
6
CONTINUOUS
10
6.5654282283464562
20
-4.9497625984251972
11
6.5669475196850389
21
-4.9499896456692909
0
LINE
8
BLACK
6
CONTINUOUS
10
6.2871011811023623
20
-5.4248664960629922
11
6.7529092913385824
21
-5.704665393700787
0
LINE
8
BLACK
6
CONTINUOUS
10
6.7529092913385824
20
-5.704665393700787
11
7.0327081889763781
21
-5.2388572834645668
0
LINE
8
BLACK
6
CONTINUOUS
10
7.0327081889763781
20
-5.2388572834645668
11
6.566900078740157
21
-4.9590583858267712
0
LINE
8
BLACK
6
CONTINUOUS
10
6.566900078740157
20
-4.9590583858267712
11
6.2871011811023623
21
-5.4248664960629922
0
LINE
8
BLACK
6
CONTINUOUS
10
4.3515410236220475
20
-5.1024785039370082
11
4.3522970078740153
21
-5.1026340157480314
0
LINE
8
BLACK
6
CONTINUOUS
10
4.3522970078740153
20
-5.1026340157480314
11
4.352804842519685
21
-5.1029097637795271
0
LINE
8
BLACK
6
CONTINUOUS
10
4.352804842519685
20
-5.1029097637795271
11
4.353646968503937
21
-5.1033670078740156
0
LINE
8
BLACK
6
CONTINUOUS
10
4.353646968503937
20
-5.1033670078740156
11
4.3546137007874011
21
-5.1045608267716531
0
LINE
8
BLACK
6
CONTINUOUS
10
4.3546137007874011
20
-5.1045608267716531
11
4.3550500000000003
21
-5.1060337007874015
0
LINE
8
BLACK
6
CONTINUOUS
10
4.3550500000000003
20
-5.1060337007874015
11
4.2974308267716532
21
-5.6549671259842516
0
LINE
8
BLACK
6
CONTINUOUS
10
4.2974308267716532
20
-5.6549671259842516
11
4.29727531496063
21
-5.6557230708661415
0
LINE
8
BLACK
6
CONTINUOUS
10
4.29727531496063
20
-5.6557230708661415
11
4.2965423228346458
21
-5.6570730708661419
0
LINE
8
BLACK
6
CONTINUOUS
10
4.2965423228346458
20
-5.6570730708661419
11
4.2953485039370074
21
-5.658039803149606
0
LINE
8
BLACK
6
CONTINUOUS
10
4.2953485039370074
20
-5.658039803149606
11
4.2938756299212599
21
-5.6584761023622043
0
LINE
8
BLACK
6
CONTINUOUS
10
4.2938756299212599
20
-5.6584761023622043
11
3.7449421653543307
21
-5.6008569291338581
0
LINE
8
BLACK
6
CONTINUOUS
10
3.7449421653543307
20
-5.6008569291338581
11
3.7441862204724408
21
-5.6007014173228349
0
LINE
8
BLACK
6
CONTINUOUS
10
3.7441862204724408
20
-5.6007014173228349
11
3.7428362204724408
21
-5.5999684251968507
0
LINE
8
BLACK
6
CONTINUOUS
10
3.7428362204724408
20
-5.5999684251968507
11
3.7418694881889762
21
-5.5987746062992123
0
LINE
8
BLACK
6
CONTINUOUS
10
3.7418694881889762
20
-5.5987746062992123
11
3.7414331889763779
21
-5.5973017322834648
0
LINE
8
BLACK
6
CONTINUOUS
10
3.7414331889763779
20
-5.5973017322834648
11
3.7414469291338581
21
-5.5971709055118106
0
LINE
8
BLACK
6
CONTINUOUS
10
3.7414469291338581
20
-5.5971709055118106
11
3.7990524015748033
21
-5.0483682677165351
0
LINE
8
BLACK
6
CONTINUOUS
10
3.7990524015748033
20
-5.0483682677165351
11
3.7992079133858265
21
-5.0476122834645665
0
LINE
8
BLACK
6
CONTINUOUS
10
3.7992079133858265
20
-5.0476122834645665
11
3.7999409055118107
21
-5.0462623228346457
0
LINE
8
BLACK
6
CONTINUOUS
10
3.7999409055118107
20
-5.0462623228346457
11
3.8011347244094487
21
-5.0452955905511807
0
LINE
8
BLACK
6
CONTINUOUS
10
3.8011347244094487
20
-5.0452955905511807
11
3.8026075984251966
21
-5.0448592913385824
0
LINE
8
BLACK
6
CONTINUOUS
10
3.8026075984251966
20
-5.0448592913385824
11
4.3515410236220475
21
-5.1024785039370082
0
LINE
8
BLACK
6
CONTINUOUS
10
3.7496722834645668
20
-5.5935120866141732
11
4.2900859842519683
21
-5.6502369685039371
0
LINE
8
BLACK
6
CONTINUOUS
10
4.2900859842519683
20
-5.6502369685039371
11
4.3468108661417322
21
-5.1098233070866144
0
LINE
8
BLACK
6
CONTINUOUS
10
4.3468108661417322
20
-5.1098233070866144
11
3.8063972047244095
21
-5.0530983858267717
0
LINE
8
BLACK
6
CONTINUOUS
10
3.8063972047244095
20
-5.0530983858267717
11
3.7496722834645668
21
-5.5935120866141732
0
LINE
8
BLACK
6
CONTINUOUS
10
5.1826930708661418
20
-5.0507293700787397
11
5.1834325984251963
21
-5.0509501574803153
0
LINE
8
BLACK
6
CONTINUOUS
10
5.1834325984251963
20
-5.0509501574803153
11
5.1847135826771655
21
-5.0517980314960624
0
LINE
8
BLACK
6
CONTINUOUS
10
5.1847135826771655
20
-5.0517980314960624
11
5.1852138582677165
21
-5.0525397244094483
0
LINE
8
BLACK
6
CONTINUOUS
10
5.1852138582677165
20
-5.0525397244094483
11
5.185572598425197
21
-5.0530715748031492
0
LINE
8
BLACK
6
CONTINUOUS
10
5.185572598425197
20
-5.0530715748031492
11
5.1858788582677162
21
-5.0545768897637791
0
LINE
8
BLACK
6
CONTINUOUS
10
5.1858788582677162
20
-5.0545768897637791
11
5.0806362598425192
21
-5.5963996456692913
0
LINE
8
BLACK
6
CONTINUOUS
10
5.0806362598425192
20
-5.5963996456692913
11
5.0804154724409445
21
-5.5971391732283466
0
LINE
8
BLACK
6
CONTINUOUS
10
5.0804154724409445
20
-5.5971391732283466
11
5.0795675984251965
21
-5.5984201181102362
0
LINE
8
BLACK
6
CONTINUOUS
10
5.0795675984251965
20
-5.5984201181102362
11
5.0782940551181097
21
-5.5992791338582677
0
LINE
8
BLACK
6
CONTINUOUS
10
5.0782940551181097
20
-5.5992791338582677
11
5.0767887401574798
21
-5.5995854330708656
0
LINE
8
BLACK
6
CONTINUOUS
10
5.0767887401574798
20
-5.5995854330708656
11
5.0765139370078742
21
-5.5995320078740161
0
LINE
8
BLACK
6
CONTINUOUS
10
5.0765139370078742
20
-5.5995320078740161
11
4.5349660236220473
21
-5.4943427952755908
0
LINE
8
BLACK
6
CONTINUOUS
10
4.5349660236220473
20
-5.4943427952755908
11
4.5342264960629919
21
-5.4941220078740161
0
LINE
8
BLACK
6
CONTINUOUS
10
4.5342264960629919
20
-5.4941220078740161
11
4.5329455511811023
21
-5.493274133858268
0
LINE
8
BLACK
6
CONTINUOUS
10
4.5329455511811023
20
-5.493274133858268
11
4.5320865354330708
21
-5.4920005905511813
0
LINE
8
BLACK
6
CONTINUOUS
10
4.5320865354330708
20
-5.4920005905511813
11
4.531780236220472
21
-5.4904952755905514
0
LINE
8
BLACK
6
CONTINUOUS
10
4.531780236220472
20
-5.4904952755905514
11
4.6370228740157478
21
-4.9486725590551179
0
LINE
8
BLACK
6
CONTINUOUS
10
4.6370228740157478
20
-4.9486725590551179
11
4.6372436614173225
21
-4.9479330314960626
0
LINE
8
BLACK
6
CONTINUOUS
10
4.6372436614173225
20
-4.9479330314960626
11
4.6372436614173225
21
-4.9479329921259838
0
LINE
8
BLACK
6
CONTINUOUS
10
4.6372436614173225
20
-4.9479329921259838
11
4.6380915354330705
21
-4.9466520472440942
0
LINE
8
BLACK
6
CONTINUOUS
10
4.6380915354330705
20
-4.9466520472440942
11
4.6393650787401572
21
-4.9457930314960628
0
LINE
8
BLACK
6
CONTINUOUS
10
4.6393650787401572
20
-4.9457930314960628
11
4.6408703937007871
21
-4.9454867322834648
0
LINE
8
BLACK
6
CONTINUOUS
10
4.6408703937007871
20
-4.9454867322834648
11
5.1826930708661418
21
-5.0507293700787397
0
LINE
8
BLACK
6
CONTINUOUS
10
4.540318307086614
20
-5.4874381102362202
11
5.0737315748031495
21
-5.5910473228346458
0
LINE
8
BLACK
6
CONTINUOUS
10
5.0737315748031495
20
-5.5910473228346458
11
5.1773407874015751
21
-5.0576339763779528
0
LINE
8
BLACK
6
CONTINUOUS
10
5.1773407874015751
20
-5.0576339763779528
11
4.6439274803149608
21
-4.9540248031496059
0
LINE
8
BLACK
6
CONTINUOUS
10
4.6439274803149608
20
-4.9540248031496059
11
4.540318307086614
21
-5.4874381102362202
0
LINE
8
BLACK
6
CONTINUOUS
10
5.7361955905511808
20
-4.7517499999999995
11
6.2323174015748029
21
-4.9936405905511814
0
LINE
8
BLACK
6
CONTINUOUS
10
6.2323174015748029
20
-4.9936405905511814
11
6.2329745669291334
21
-4.9940452755905511
0
LINE
8
BLACK
6
CONTINUOUS
10
6.2329745669291334
20
-4.9940452755905511
11
6.2339924409448821
21
-4.9951957874015749
0
LINE
8
BLACK
6
CONTINUOUS
10
6.2339924409448821
20
-4.9951957874015749
11
6.2339924409448821
21
-4.9951958267716536
0
LINE
8
BLACK
6
CONTINUOUS
10
6.2339924409448821
20
-4.9951958267716536
11
6.2344925590551181
21
-4.9966482677165356
0
LINE
8
BLACK
6
CONTINUOUS
10
6.2344925590551181
20
-4.9966482677165356
11
6.2343988188976374
21
-4.9981815748031497
0
LINE
8
BLACK
6
CONTINUOUS
10
6.2343988188976374
20
-4.9981815748031497
11
5.9925081889763776
21
-5.4943033070866143
0
LINE
8
BLACK
6
CONTINUOUS
10
5.9925081889763776
20
-5.4943033070866143
11
5.9921035433070866
21
-5.4949605118110236
0
LINE
8
BLACK
6
CONTINUOUS
10
5.9921035433070866
20
-5.4949605118110236
11
5.9909529921259841
21
-5.4959783858267715
0
LINE
8
BLACK
6
CONTINUOUS
10
5.9909529921259841
20
-5.4959783858267715
11
5.9895005511811021
21
-5.4964785039370074
0
LINE
8
BLACK
6
CONTINUOUS
10
5.9895005511811021
20
-5.4964785039370074
11
5.9880555905511805
21
-5.4963901181102361
0
LINE
8
BLACK
6
CONTINUOUS
10
5.9880555905511805
20
-5.4963901181102361
11
5.987967244094488
21
-5.4963847244094488
0
LINE
8
BLACK
6
CONTINUOUS
10
5.987967244094488
20
-5.4963847244094488
11
5.4918454724409447
21
-5.254494094488189
0
LINE
8
BLACK
6
CONTINUOUS
10
5.4918454724409447
20
-5.254494094488189
11
5.4911882677165353
21
-5.2540894488188972
0
LINE
8
BLACK
6
CONTINUOUS
10
5.4911882677165353
20
-5.2540894488188972
11
5.4901703937007875
21
-5.2529388976377955
0
LINE
8
BLACK
6
CONTINUOUS
10
5.4901703937007875
20
-5.2529388976377955
11
5.4896702755905507
21
-5.2514864566929136
0
LINE
8
BLACK
6
CONTINUOUS
10
5.4896702755905507
20
-5.2514864566929136
11
5.4897640551181102
21
-5.2499531889763782
0
LINE
8
BLACK
6
CONTINUOUS
10
5.4897640551181102
20
-5.2499531889763782
11
5.7316546456692912
21
-4.7538314173228349
0
LINE
8
BLACK
6
CONTINUOUS
10
5.7316546456692912
20
-4.7538314173228349
11
5.7320593307086609
21
-4.7531742519685034
0
LINE
8
BLACK
6
CONTINUOUS
10
5.7320593307086609
20
-4.7531742519685034
11
5.7320593307086609
21
-4.7531742125984247
0
LINE
8
BLACK
6
CONTINUOUS
10
5.7320593307086609
20
-4.7531742125984247
11
5.7332098818897634
21
-4.7521563385826768
0
LINE
8
BLACK
6
CONTINUOUS
10
5.7332098818897634
20
-4.7521563385826768
11
5.7346623228346454
21
-4.7516562204724409
0
LINE
8
BLACK
6
CONTINUOUS
10
5.7346623228346454
20
-4.7516562204724409
11
5.7361955905511808
21
-4.7517499999999995
0
LINE
8
BLACK
6
CONTINUOUS
10
5.4988024015748032
20
-5.2492099999999997
11
5.9872241338582679
21
-5.4873463385826771
0
LINE
8
BLACK
6
CONTINUOUS
10
5.9872241338582679
20
-5.4873463385826771
11
6.2253603937007869
21
-4.9989246850393698
0
LINE
8
BLACK
6
CONTINUOUS
10
6.2253603937007869
20
-4.9989246850393698
11
5.7369387401574805
21
-4.7607883464566925
0
LINE
8
BLACK
6
CONTINUOUS
10
5.7369387401574805
20
-4.7607883464566925
11
5.4988024015748032
21
-5.2492099999999997
0
LINE
8
BLACK
6
CONTINUOUS
10
6.9116580314960627
20
-4.3762949999999998
11
7.3848097637795274
21
-4.6605049999999997
0
LINE
8
BLACK
6
CONTINUOUS
10
7.3848097637795274
20
-4.6605049999999997
11
7.3854291732283466
21
-4.6609654330708663
0
LINE
8
BLACK
6
CONTINUOUS
10
7.3854291732283466
20
-4.6609654330708663
11
7.3863429133858265
21
-4.6622002755905507
0
LINE
8
BLACK
6
CONTINUOUS
10
7.3863429133858265
20
-4.6622002755905507
11
7.3867145275590547
21
-4.6636907874015749
0
LINE
8
BLACK
6
CONTINUOUS
10
7.3867145275590547
20
-4.6636907874015749
11
7.3864874803149601
21
-4.6652100787401576
0
LINE
8
BLACK
6
CONTINUOUS
10
7.3864874803149601
20
-4.6652100787401576
11
7.1022774803149602
21
-5.1383618110236222
0
LINE
8
BLACK
6
CONTINUOUS
10
7.1022774803149602
20
-5.1383618110236222
11
7.1018170472440945
21
-5.1389812204724405
0
LINE
8
BLACK
6
CONTINUOUS
10
7.1018170472440945
20
-5.1389812204724405
11
7.1005822047244092
21
-5.1398949606299213
0
LINE
8
BLACK
6
CONTINUOUS
10
7.1005822047244092
20
-5.1398949606299213
11
7.0990916929133858
21
-5.1402665748031495
0
LINE
8
BLACK
6
CONTINUOUS
10
7.0990916929133858
20
-5.1402665748031495
11
7.0975724015748032
21
-5.1400395275590549
0
LINE
8
BLACK
6
CONTINUOUS
10
7.0975724015748032
20
-5.1400395275590549
11
6.6244206692913385
21
-4.8558295275590551
0
LINE
8
BLACK
6
CONTINUOUS
10
6.6244206692913385
20
-4.8558295275590551
11
6.6238012598425193
21
-4.8553690944881884
0
LINE
8
BLACK
6
CONTINUOUS
10
6.6238012598425193
20
-4.8553690944881884
11
6.6228875196850394
21
-4.854134251968504
0
LINE
8
BLACK
6
CONTINUOUS
10
6.6228875196850394
20
-4.854134251968504
11
6.6225159055118112
21
-4.8526437401574798
0
LINE
8
BLACK
6
CONTINUOUS
10
6.6225159055118112
20
-4.8526437401574798
11
6.622742952755905
21
-4.8511244488188972
0
LINE
8
BLACK
6
CONTINUOUS
10
6.622742952755905
20
-4.8511244488188972
11
6.9069529527559057
21
-4.3779727165354334
0
LINE
8
BLACK
6
CONTINUOUS
10
6.9069529527559057
20
-4.3779727165354334
11
6.9074133858267714
21
-4.3773533070866142
0
LINE
8
BLACK
6
CONTINUOUS
10
6.9074133858267714
20
-4.3773533070866142
11
6.9086482283464568
21
-4.3764395669291334
0
LINE
8
BLACK
6
CONTINUOUS
10
6.9086482283464568
20
-4.3764395669291334
11
6.9101387401574801
21
-4.3760679527559052
0
LINE
8
BLACK
6
CONTINUOUS
10
6.9101387401574801
20
-4.3760679527559052
11
6.9116580314960627
21
-4.3762949999999998
0
LINE
8
BLACK
6
CONTINUOUS
10
6.6318116929133852
20
-4.8511718503937002
11
7.0976198031496063
21
-5.1309707480314959
0
LINE
8
BLACK
6
CONTINUOUS
10
7.0976198031496063
20
-5.1309707480314959
11
7.377418700787401
21
-4.6651626377952757
0
LINE
8
BLACK
6
CONTINUOUS
10
7.377418700787401
20
-4.6651626377952757
11
6.9116105905511809
21
-4.3853637401574801
0
LINE
8
BLACK
6
CONTINUOUS
10
6.9116105905511809
20
-4.3853637401574801
11
6.6318116929133852
21
-4.8511718503937002
0
LINE
8
BLACK
6
CONTINUOUS
10
4.4215010236220476
20
-4.4368536220472441
11
4.4222570078740153
21
-4.4370091338582673
0
LINE
8
BLACK
6
CONTINUOUS
10
4.4222570078740153
20
-4.4370091338582673
11
4.422764842519685
21
-4.4372848818897639
0
LINE
8
BLACK
6
CONTINUOUS
10
4.422764842519685
20
-4.4372848818897639
11
4.423606968503937
21
-4.4377421259842516
0
LINE
8
BLACK
6
CONTINUOUS
10
4.423606968503937
20
-4.4377421259842516
11
4.4245737007874011
21
-4.4389359448818899
0
LINE
8
BLACK
6
CONTINUOUS
10
4.4245737007874011
20
-4.4389359448818899
11
4.4250100000000003
21
-4.4404088188976374
0
LINE
8
BLACK
6
CONTINUOUS
10
4.4250100000000003
20
-4.4404088188976374
11
4.3673908267716532
21
-4.9893422440944883
0
LINE
8
BLACK
6
CONTINUOUS
10
4.3673908267716532
20
-4.9893422440944883
11
4.36723531496063
21
-4.9900981889763782
0
LINE
8
BLACK
6
CONTINUOUS
10
4.36723531496063
20
-4.9900981889763782
11
4.3665023228346458
21
-4.9914481889763778
0
LINE
8
BLACK
6
CONTINUOUS
10
4.3665023228346458
20
-4.9914481889763778
11
4.3653085039370074
21
-4.9924149212598428
0
LINE
8
BLACK
6
CONTINUOUS
10
4.3653085039370074
20
-4.9924149212598428
11
4.36383562992126
21
-4.9928512204724411
0
LINE
8
BLACK
6
CONTINUOUS
10
4.36383562992126
20
-4.9928512204724411
11
3.8149021653543307
21
-4.935232047244094
0
LINE
8
BLACK
6
CONTINUOUS
10
3.8149021653543307
20
-4.935232047244094
11
3.8141462204724408
21
-4.9350765354330708
0
LINE
8
BLACK
6
CONTINUOUS
10
3.8141462204724408
20
-4.9350765354330708
11
3.8127962204724408
21
-4.9343435433070866
0
LINE
8
BLACK
6
CONTINUOUS
10
3.8127962204724408
20
-4.9343435433070866
11
3.8118294881889763
21
-4.9331497244094491
0
LINE
8
BLACK
6
CONTINUOUS
10
3.8118294881889763
20
-4.9331497244094491
11
3.8113931889763779
21
-4.9316768503937007
0
LINE
8
BLACK
6
CONTINUOUS
10
3.8113931889763779
20
-4.9316768503937007
11
3.8690124015748029
21
-4.3827433858267719
0
LINE
8
BLACK
6
CONTINUOUS
10
3.8690124015748029
20
-4.3827433858267719
11
3.8691679133858266
21
-4.3819874015748033
0
LINE
8
BLACK
6
CONTINUOUS
10
3.8691679133858266
20
-4.3819874015748033
11
3.8699009055118108
21
-4.3806374409448816
0
LINE
8
BLACK
6
CONTINUOUS
10
3.8699009055118108
20
-4.3806374409448816
11
3.8710947244094487
21
-4.3796707086614175
0
LINE
8
BLACK
6
CONTINUOUS
10
3.8710947244094487
20
-4.3796707086614175
11
3.8725675984251966
21
-4.3792344094488191
0
LINE
8
BLACK
6
CONTINUOUS
10
3.8725675984251966
20
-4.3792344094488191
11
4.4215010236220476
21
-4.4368536220472441
0
LINE
8
BLACK
6
CONTINUOUS
10
3.8196322834645668
20
-4.9278872047244091
11
4.3600459842519683
21
-4.984612086614173
0
LINE
8
BLACK
6
CONTINUOUS
10
4.3600459842519683
20
-4.984612086614173
11
4.4167708661417322
21
-4.4441984251968503
0
LINE
8
BLACK
6
CONTINUOUS
10
4.4167708661417322
20
-4.4441984251968503
11
3.8763572047244095
21
-4.3874735039370076
0
LINE
8
BLACK
6
CONTINUOUS
10
3.8763572047244095
20
-4.3874735039370076
11
3.8196322834645668
21
-4.9278872047244091
0
LINE
8
BLACK
6
CONTINUOUS
10
5.3103998818897633
20
-4.3937348031496066
11
5.3111394094488187
21
-4.3939555905511813
0
LINE
8
BLACK
6
CONTINUOUS
10
5.3111394094488187
20
-4.3939555905511813
11
5.312420393700787
21
-4.3948034645669294
0
LINE
8
BLACK
6
CONTINUOUS
10
5.312420393700787
20
-4.3948034645669294
11
5.3132794094488185
21
-4.3960770078740152
0
LINE
8
BLACK
6
CONTINUOUS
10
5.3132794094488185
20
-4.3960770078740152
11
5.3135856692913386
21
-4.397582322834646
0
LINE
8
BLACK
6
CONTINUOUS
10
5.3135856692913386
20
-4.397582322834646
11
5.2083430708661416
21
-4.9394050787401573
0
LINE
8
BLACK
6
CONTINUOUS
10
5.2083430708661416
20
-4.9394050787401573
11
5.2081222834645668
21
-4.9401446062992127
0
LINE
8
BLACK
6
CONTINUOUS
10
5.2081222834645668
20
-4.9401446062992127
11
5.2072744094488188
21
-4.9414255511811023
0
LINE
8
BLACK
6
CONTINUOUS
10
5.2072744094488188
20
-4.9414255511811023
11
5.2060008661417321
21
-4.9422845669291338
0
LINE
8
BLACK
6
CONTINUOUS
10
5.2060008661417321
20
-4.9422845669291338
11
5.2044955511811022
21
-4.9425908661417326
0
LINE
8
BLACK
6
CONTINUOUS
10
5.2044955511811022
20
-4.9425908661417326
11
5.2042207874015745
21
-4.9425374409448821
0
LINE
8
BLACK
6
CONTINUOUS
10
5.2042207874015745
20
-4.9425374409448821
11
4.6626727952755909
21
-4.8373482283464568
0
LINE
8
BLACK
6
CONTINUOUS
10
4.6626727952755909
20
-4.8373482283464568
11
4.6619332677165355
21
-4.8371274409448821
0
LINE
8
BLACK
6
CONTINUOUS
10
4.6619332677165355
20
-4.8371274409448821
11
4.6606523228346459
21
-4.8362795669291341
0
LINE
8
BLACK
6
CONTINUOUS
10
4.6606523228346459
20
-4.8362795669291341
11
4.6597933070866144
21
-4.8350060236220473
0
LINE
8
BLACK
6
CONTINUOUS
10
4.6597933070866144
20
-4.8350060236220473
11
4.6594870078740156
21
-4.8335007086614175
0
LINE
8
BLACK
6
CONTINUOUS
10
4.6594870078740156
20
-4.8335007086614175
11
4.7647296456692914
21
-4.291677992125984
0
LINE
8
BLACK
6
CONTINUOUS
10
4.7647296456692914
20
-4.291677992125984
11
4.7649504330708661
21
-4.2909384645669286
0
LINE
8
BLACK
6
CONTINUOUS
10
4.7649504330708661
20
-4.2909384645669286
11
4.7649504330708661
21
-4.2909384251968499
0
LINE
8
BLACK
6
CONTINUOUS
10
4.7649504330708661
20
-4.2909384251968499
11
4.7657983070866141
21
-4.2896574803149603
0
LINE
8
BLACK
6
CONTINUOUS
10
4.7657983070866141
20
-4.2896574803149603
11
4.7670718503937008
21
-4.2887984645669288
0
LINE
8
BLACK
6
CONTINUOUS
10
4.7670718503937008
20
-4.2887984645669288
11
4.7685771653543307
21
-4.2884921653543309
0
LINE
8
BLACK
6
CONTINUOUS
10
4.7685771653543307
20
-4.2884921653543309
11
5.3103998818897633
21
-4.3937348031496066
0
LINE
8
BLACK
6
CONTINUOUS
10
4.6680250787401576
20
-4.8304435433070863
11
5.2014383858267719
21
-4.9340527559055118
0
LINE
8
BLACK
6
CONTINUOUS
10
5.2014383858267719
20
-4.9340527559055118
11
5.3050475984251966
21
-4.4006394094488188
0
LINE
8
BLACK
6
CONTINUOUS
10
5.3050475984251966
20
-4.4006394094488188
11
4.7716342519685035
21
-4.297030236220472
0
LINE
8
BLACK
6
CONTINUOUS
10
4.7716342519685035
20
-4.297030236220472
11
4.6680250787401576
21
-4.8304435433070863
0
LINE
8
BLACK
6
CONTINUOUS
10
6.0295935826771654
20
-4.1501949212598426
11
6.5257153937007875
21
-4.3920855118110236
0
LINE
8
BLACK
6
CONTINUOUS
10
6.5257153937007875
20
-4.3920855118110236
11
6.526372559055118
21
-4.3924901968503933
0
LINE
8
BLACK
6
CONTINUOUS
10
6.526372559055118
20
-4.3924901968503933
11
6.5273904330708659
21
-4.3936407086614171
0
LINE
8
BLACK
6
CONTINUOUS
10
6.5273904330708659
20
-4.3936407086614171
11
6.5274228346456695
21
-4.3937348031496066
0
LINE
8
BLACK
6
CONTINUOUS
10
6.5274228346456695
20
-4.3937348031496066
11
6.5278905511811018
21
-4.3950931889763778
0
LINE
8
BLACK
6
CONTINUOUS
10
6.5278905511811018
20
-4.3950931889763778
11
6.527796811023622
21
-4.3966264960629919
0
LINE
8
BLACK
6
CONTINUOUS
10
6.527796811023622
20
-4.3966264960629919
11
6.2859061811023622
21
-4.8927482283464565
0
LINE
8
BLACK
6
CONTINUOUS
10
6.2859061811023622
20
-4.8927482283464565
11
6.2855015354330703
21
-4.8934054330708658
0
LINE
8
BLACK
6
CONTINUOUS
10
6.2855015354330703
20
-4.8934054330708658
11
6.2843509842519687
21
-4.8944233070866137
0
LINE
8
BLACK
6
CONTINUOUS
10
6.2843509842519687
20
-4.8944233070866137
11
6.2828985433070867
21
-4.8949234251968505
0
LINE
8
BLACK
6
CONTINUOUS
10
6.2828985433070867
20
-4.8949234251968505
11
6.2814535826771651
21
-4.8948350393700784
0
LINE
8
BLACK
6
CONTINUOUS
10
6.2814535826771651
20
-4.8948350393700784
11
6.2813652362204726
21
-4.894829645669291
0
LINE
8
BLACK
6
CONTINUOUS
10
6.2813652362204726
20
-4.894829645669291
11
5.7852434645669293
21
-4.6529390157480313
0
LINE
8
BLACK
6
CONTINUOUS
10
5.7852434645669293
20
-4.6529390157480313
11
5.78458625984252
21
-4.6525343700787403
0
LINE
8
BLACK
6
CONTINUOUS
10
5.78458625984252
20
-4.6525343700787403
11
5.7835683858267712
21
-4.6513838188976377
0
LINE
8
BLACK
6
CONTINUOUS
10
5.7835683858267712
20
-4.6513838188976377
11
5.7830682677165353
21
-4.6499313779527558
0
LINE
8
BLACK
6
CONTINUOUS
10
5.7830682677165353
20
-4.6499313779527558
11
5.7831620472440948
21
-4.6483981102362204
0
LINE
8
BLACK
6
CONTINUOUS
10
5.7831620472440948
20
-4.6483981102362204
11
6.0250526377952758
21
-4.1522763385826771
0
LINE
8
BLACK
6
CONTINUOUS
10
6.0250526377952758
20
-4.1522763385826771
11
6.0254573228346455
21
-4.1516191732283465
0
LINE
8
BLACK
6
CONTINUOUS
10
6.0254573228346455
20
-4.1516191732283465
11
6.0254573228346455
21
-4.1516191338582678
0
LINE
8
BLACK
6
CONTINUOUS
10
6.0254573228346455
20
-4.1516191338582678
11
6.026607874015748
21
-4.1506012598425199
0
LINE
8
BLACK
6
CONTINUOUS
10
6.026607874015748
20
-4.1506012598425199
11
6.02806031496063
21
-4.1501011417322831
0
LINE
8
BLACK
6
CONTINUOUS
10
6.02806031496063
20
-4.1501011417322831
11
6.0295935826771654
21
-4.1501949212598426
0
LINE
8
BLACK
6
CONTINUOUS
10
5.7922003937007869
20
-4.6476549212598428
11
6.2806221259842516
21
-4.8857912598425193
0
LINE
8
BLACK
6
CONTINUOUS
10
6.2806221259842516
20
-4.8857912598425193
11
6.5187583858267715
21
-4.3973696062992129
0
LINE
8
BLACK
6
CONTINUOUS
10
6.5187583858267715
20
-4.3973696062992129
11
6.0303367322834642
21
-4.1592332677165356
0
LINE
8
BLACK
6
CONTINUOUS
10
6.0303367322834642
20
-4.1592332677165356
11
5.7922003937007869
21
-4.6476549212598428
0
LINE
8
BLACK
6
CONTINUOUS
10
5.99810031496063
20
-3.9056315748031496
11
6.0126713385826767
21
-3.9076083464566929
0
LINE
8
BLACK
6
CONTINUOUS
10
6.0126713385826767
20
-3.9076083464566929
11
6.0270020472440944
21
-3.9109029133858266
0
LINE
8
BLACK
6
CONTINUOUS
10
6.0270020472440944
20
-3.9109029133858266
11
6.0409734645669291
21
-3.9154879527559054
0
LINE
8
BLACK
6
CONTINUOUS
10
6.0409734645669291
20
-3.9154879527559054
11
6.0544696850393702
21
-3.9213253543307087
0
LINE
8
BLACK
6
CONTINUOUS
10
6.0544696850393702
20
-3.9213253543307087
11
6.0544689370078739
21
-3.9213268503937009
0
LINE
8
BLACK
6
CONTINUOUS
10
6.0544689370078739
20
-3.9213268503937009
11
6.0546817716535433
21
-3.9215118897637793
0
LINE
8
BLACK
6
CONTINUOUS
10
6.0546817716535433
20
-3.9215118897637793
11
6.0551107480314963
21
-3.9217184251968504
0
LINE
8
BLACK
6
CONTINUOUS
10
6.0551107480314963
20
-3.9217184251968504
11
6.0551171653543303
21
-3.9217256299212599
0
LINE
8
BLACK
6
CONTINUOUS
10
6.0551171653543303
20
-3.9217256299212599
11
6.6026487795275592
21
-4.1886907086614169
0
LINE
8
BLACK
6
CONTINUOUS
10
6.6026487795275592
20
-4.1886907086614169
11
6.6026580314960626
21
-4.1886963779527555
0
LINE
8
BLACK
6
CONTINUOUS
10
6.6026580314960626
20
-4.1886963779527555
11
6.6026620472440944
21
-4.1886972047244093
0
LINE
8
BLACK
6
CONTINUOUS
10
6.6026620472440944
20
-4.1886972047244093
11
6.6026627165354332
21
-4.1886959055118114
0
LINE
8
BLACK
6
CONTINUOUS
10
6.6026627165354332
20
-4.1886959055118114
11
6.6071082283464566
21
-4.190881102362205
0
LINE
8
BLACK
6
CONTINUOUS
10
6.6071082283464566
20
-4.190881102362205
11
6.6164958661417321
21
-4.1940471653543305
0
LINE
8
BLACK
6
CONTINUOUS
10
6.6164958661417321
20
-4.1940471653543305
11
6.6262190551181099
21
-4.1959475590551181
0
LINE
8
BLACK
6
CONTINUOUS
10
6.6262190551181099
20
-4.1959475590551181
11
6.6361079133858265
21
-4.1965490551181102
0
LINE
8
BLACK
6
CONTINUOUS
10
6.6361079133858265
20
-4.1965490551181102
11
6.645989724409449
21
-4.1958412204724409
0
LINE
8
BLACK
6
CONTINUOUS
10
6.645989724409449
20
-4.1958412204724409
11
6.6556918897637791
21
-4.1938363385826767
0
LINE
8
BLACK
6
CONTINUOUS
10
6.6556918897637791
20
-4.1938363385826767
11
6.6603695275590553
21
-4.1922060629921258
0
LINE
8
BLACK
6
CONTINUOUS
10
6.6603695275590553
20
-4.1922060629921258
11
6.6603695275590553
21
-4.1922061023622046
0
LINE
8
BLACK
6
CONTINUOUS
10
6.6603695275590553
20
-4.1922061023622046
11
6.6606591338582675
21
-4.1921845275590552
0
LINE
8
BLACK
6
CONTINUOUS
10
6.6606591338582675
20
-4.1921845275590552
11
6.8200194094488191
21
-4.1364381889763777
0
LINE
8
BLACK
6
CONTINUOUS
10
6.8200194094488191
20
-4.1364381889763777
11
6.8200195275590554
21
-4.136438149606299
0
LINE
8
BLACK
6
CONTINUOUS
10
6.8200195275590554
20
-4.136438149606299
11
6.820019606299212
21
-4.136438149606299
0
LINE
8
BLACK
6
CONTINUOUS
10
6.820019606299212
20
-4.136438149606299
11
6.8200198425196845
21
-4.1364380708661415
0
LINE
8
BLACK
6
CONTINUOUS
10
6.8200198425196845
20
-4.1364380708661415
11
6.8335730708661417
21
-4.1323608267716532
0
LINE
8
BLACK
6
CONTINUOUS
10
6.8335730708661417
20
-4.1323608267716532
11
6.8474316535433069
21
-4.1294864173228349
0
LINE
8
BLACK
6
CONTINUOUS
10
6.8474316535433069
20
-4.1294864173228349
11
6.8614887795275585
21
-4.1278371259842519
0
LINE
8
BLACK
6
CONTINUOUS
10
6.8614887795275585
20
-4.1278371259842519
11
6.8756363385826766
21
-4.1274255118110235
0
LINE
8
BLACK
6
CONTINUOUS
10
6.8756363385826766
20
-4.1274255118110235
11
6.8897655511811022
21
-4.1282548425196852
0
LINE
8
BLACK
6
CONTINUOUS
10
6.8897655511811022
20
-4.1282548425196852
11
6.9037678346456692
21
-4.1303187007874014
0
LINE
8
BLACK
6
CONTINUOUS
10
6.9037678346456692
20
-4.1303187007874014
11
6.917535472440945
21
-4.1336012204724408
0
LINE
8
BLACK
6
CONTINUOUS
10
6.917535472440945
20
-4.1336012204724408
11
6.9309625984251966
21
-4.1380771653543302
0
LINE
8
BLACK
6
CONTINUOUS
10
6.9309625984251966
20
-4.1380771653543302
11
6.9439460629921257
21
-4.1437121259842522
0
LINE
8
BLACK
6
CONTINUOUS
10
6.9439460629921257
20
-4.1437121259842522
11
6.956385984251968
21
-4.1504627559055116
0
LINE
8
BLACK
6
CONTINUOUS
10
6.956385984251968
20
-4.1504627559055116
11
6.9563851968503938
21
-4.1504640551181105
0
LINE
8
BLACK
6
CONTINUOUS
10
6.9563851968503938
20
-4.1504640551181105
11
6.9565878346456689
21
-4.1506738976377955
0
LINE
8
BLACK
6
CONTINUOUS
10
6.9565878346456689
20
-4.1506738976377955
11
7.5638253543307084
21
-4.5154509448818896
0
LINE
8
BLACK
6
CONTINUOUS
10
7.5638253543307084
20
-4.5154509448818896
11
7.5638256692913384
21
-4.5154511811023621
0
LINE
8
BLACK
6
CONTINUOUS
10
7.5638256692913384
20
-4.5154511811023621
11
7.5758626377952751
21
-4.5234377165354331
0
LINE
8
BLACK
6
CONTINUOUS
10
7.5758626377952751
20
-4.5234377165354331
11
7.5871376771653543
21
-4.5324686614173224
0
LINE
8
BLACK
6
CONTINUOUS
10
7.5871376771653543
20
-4.5324686614173224
11
7.5975601574803147
21
-4.5424714566929136
0
LINE
8
BLACK
6
CONTINUOUS
10
7.5975601574803147
20
-4.5424714566929136
11
7.607046653543307
21
-4.553366023622047
0
LINE
8
BLACK
6
CONTINUOUS
10
7.607046653543307
20
-4.553366023622047
11
7.615521141732283
21
-4.5650650787401572
0
LINE
8
BLACK
6
CONTINUOUS
10
7.615521141732283
20
-4.5650650787401572
11
7.6229157480314962
21
-4.577474960629921
0
LINE
8
BLACK
6
CONTINUOUS
10
7.6229157480314962
20
-4.577474960629921
11
7.6291712598425194
21
-4.5904962204724411
0
LINE
8
BLACK
6
CONTINUOUS
10
7.6291712598425194
20
-4.5904962204724411
11
7.6342375590551184
21
-4.6040246062992125
0
LINE
8
BLACK
6
CONTINUOUS
10
7.6342375590551184
20
-4.6040246062992125
11
7.6380740944881884
21
-4.6179517322834647
0
LINE
8
BLACK
6
CONTINUOUS
10
7.6380740944881884
20
-4.6179517322834647
11
7.640650157480315
21
-4.6321661417322835
0
LINE
8
BLACK
6
CONTINUOUS
10
7.640650157480315
20
-4.6321661417322835
11
7.6419450787401573
21
-4.6465538976377951
0
LINE
8
BLACK
6
CONTINUOUS
10
7.6419450787401573
20
-4.6465538976377951
11
7.6419484645669291
21
-4.6609998425196846
0
LINE
8
BLACK
6
CONTINUOUS
10
7.6419484645669291
20
-4.6609998425196846
11
7.6419487007874016
21
-4.6609998425196846
0
LINE
8
BLACK
6
CONTINUOUS
10
7.6419487007874016
20
-4.6609998425196846
11
7.6418603543307082
21
-4.6612790944881892
0
LINE
8
BLACK
6
CONTINUOUS
10
7.6418603543307082
20
-4.6612790944881892
11
7.6314651181102358
21
-4.8868384645669289
0
LINE
8
BLACK
6
CONTINUOUS
10
7.6314651181102358
20
-4.8868384645669289
11
7.6314637401574803
21
-4.8868478346456694
0
LINE
8
BLACK
6
CONTINUOUS
10
7.6314637401574803
20
-4.8868478346456694
11
7.6314645275590554
21
-4.8868514566929129
0
LINE
8
BLACK
6
CONTINUOUS
10
7.6314645275590554
20
-4.8868514566929129
11
7.6314642125984253
21
-4.8868514173228341
0
LINE
8
BLACK
6
CONTINUOUS
10
7.6314642125984253
20
-4.8868514173228341
11
7.6312354330708656
21
-4.8914905118110239
0
LINE
8
BLACK
6
CONTINUOUS
10
7.6312354330708656
20
-4.8914905118110239
11
7.6319252755905511
21
-4.9007543307086614
0
LINE
8
BLACK
6
CONTINUOUS
10
7.6319252755905511
20
-4.9007543307086614
11
7.6337558267716537
21
-4.9098616535433068
0
LINE
8
BLACK
6
CONTINUOUS
10
7.6337558267716537
20
-4.9098616535433068
11
7.6366988582677164
21
-4.9186725984251964
0
LINE
8
BLACK
6
CONTINUOUS
10
7.6366988582677164
20
-4.9186725984251964
11
7.640709251968504
21
-4.9270518110236221
0
LINE
8
BLACK
6
CONTINUOUS
10
7.640709251968504
20
-4.9270518110236221
11
7.6457253543307084
21
-4.9348705511811026
0
LINE
8
BLACK
6
CONTINUOUS
10
7.6457253543307084
20
-4.9348705511811026
11
7.6516701181102365
21
-4.9420087795275593
0
LINE
8
BLACK
6
CONTINUOUS
10
7.6516701181102365
20
-4.9420087795275593
11
7.6584522440944882
21
-4.9483567716535433
0
LINE
8
BLACK
6
CONTINUOUS
10
7.6584522440944882
20
-4.9483567716535433
11
7.6622087795275586
21
-4.9510884251968506
0
LINE
8
BLACK
6
CONTINUOUS
10
7.6622087795275586
20
-4.9510884251968506
11
7.6622087401574799
21
-4.9510884645669293
0
LINE
8
BLACK
6
CONTINUOUS
10
7.6622087401574799
20
-4.9510884645669293
11
7.6623922440944883
21
-4.9513150787401576
0
LINE
8
BLACK
6
CONTINUOUS
10
7.6623922440944883
20
-4.9513150787401576
11
8.1325046062992126
21
-5.2927784251968504
0
LINE
8
BLACK
6
CONTINUOUS
10
8.1325046062992126
20
-5.2927784251968504
11
8.1325047244094488
21
-5.2927784645669291
0
LINE
8
BLACK
6
CONTINUOUS
10
8.1325047244094488
20
-5.2927784645669291
11
8.1325046850393701
21
-5.2927784645669291
0
LINE
8
BLACK
6
CONTINUOUS
10
8.1325046850393701
20
-5.2927784645669291
11
8.1325050787401576
21
-5.2927788188976379
0
LINE
8
BLACK
6
CONTINUOUS
10
8.1325050787401576
20
-5.2927788188976379
11
8.1436218110236211
21
-5.3016287007874014
0
LINE
8
BLACK
6
CONTINUOUS
10
8.1436218110236211
20
-5.3016287007874014
11
8.153917480314961
21
-5.3114223228346455
0
LINE
8
BLACK
6
CONTINUOUS
10
8.153917480314961
20
-5.3114223228346455
11
8.1633118897637793
21
-5.3220835433070866
0
LINE
8
BLACK
6
CONTINUOUS
10
8.1633118897637793
20
-5.3220835433070866
11
8.1717322440944873
21
-5.3335296456692909
0
LINE
8
BLACK
6
CONTINUOUS
10
8.1717322440944873
20
-5.3335296456692909
11
8.1791133070866131
21
-5.3456719685039369
0
LINE
8
BLACK
6
CONTINUOUS
10
8.1791133070866131
20
-5.3456719685039369
11
8.1853978740157487
21
-5.3584163779527554
0
LINE
8
BLACK
6
CONTINUOUS
10
8.1853978740157487
20
-5.3584163779527554
11
8.1905372047244089
21
-5.3716641732283463
0
LINE
8
BLACK
6
CONTINUOUS
10
8.1905372047244089
20
-5.3716641732283463
11
8.1944914960629927
21
-5.3853125984251964
0
LINE
8
BLACK
6
CONTINUOUS
10
8.1944914960629927
20
-5.3853125984251964
11
8.1944910236220476
21
-5.3853127165354326
0
LINE
8
BLACK
6
CONTINUOUS
10
8.1944910236220476
20
-5.3853127165354326
11
8.1944840944881889
21
-5.3856022047244094
0
LINE
8
BLACK
6
CONTINUOUS
10
8.1944840944881889
20
-5.3856022047244094
11
8.2227459448818898
21
-5.5017889370078743
0
LINE
8
BLACK
6
CONTINUOUS
10
8.2227459448818898
20
-5.5017889370078743
11
8.2227459448818898
21
-5.5017889763779531
0
LINE
8
BLACK
6
CONTINUOUS
10
8.2227459448818898
20
-5.5017889763779531
11
8.2227461811023623
21
-5.5017889370078743
0
LINE
8
BLACK
6
CONTINUOUS
10
8.2227461811023623
20
-5.5017889370078743
11
8.2237847244094482
21
-5.5060607874015748
0
LINE
8
BLACK
6
CONTINUOUS
10
8.2237847244094482
20
-5.5060607874015748
11
8.2268440551181108
21
-5.5143039370078739
0
LINE
8
BLACK
6
CONTINUOUS
10
8.2268440551181108
20
-5.5143039370078739
11
8.2308479527559051
21
-5.5221319291338578
0
LINE
8
BLACK
6
CONTINUOUS
10
8.2308479527559051
20
-5.5221319291338578
11
8.2357413385826774
21
-5.5294369685039371
0
LINE
8
BLACK
6
CONTINUOUS
10
8.2357413385826774
20
-5.5294369685039371
11
8.241456811023621
21
-5.536118464566929
0
LINE
8
BLACK
6
CONTINUOUS
10
8.241456811023621
20
-5.536118464566929
11
8.2479156692913378
21
-5.5420843700787401
0
LINE
8
BLACK
6
CONTINUOUS
10
8.2479156692913378
20
-5.5420843700787401
11
8.2514709448818895
21
-5.5446703543307088
0
LINE
8
BLACK
6
CONTINUOUS
10
8.2514709448818895
20
-5.5446703543307088
11
8.2514709055118107
21
-5.5446703543307088
0
LINE
8
BLACK
6
CONTINUOUS
10
8.2514709055118107
20
-5.5446703543307088
11
8.2516543307086607
21
-5.5448968503937008
0
LINE
8
BLACK
6
CONTINUOUS
10
8.2516543307086607
20
-5.5448968503937008
11
8.6271398425196857
21
-5.8176098425196852
0
LINE
8
BLACK
6
CONTINUOUS
10
8.6271398425196857
20
-5.8176098425196852
11
8.6381185826771656
21
-5.8263395669291338
0
LINE
8
BLACK
6
CONTINUOUS
10
8.6381185826771656
20
-5.8263395669291338
11
8.6482979921259844
21
-5.835989488188976
0
LINE
8
BLACK
6
CONTINUOUS
10
8.6482979921259844
20
-5.835989488188976
11
8.65760122047244
21
-5.8464866535433071
0
LINE
8
BLACK
6
CONTINUOUS
10
8.65760122047244
20
-5.8464866535433071
11
8.6659579921259837
21
-5.8577518897637795
0
LINE
8
BLACK
6
CONTINUOUS
10
8.6659579921259837
20
-5.8577518897637795
11
8.6733052362204717
21
-5.8697000787401574
0
LINE
8
BLACK
6
CONTINUOUS
10
8.6733052362204717
20
-5.8697000787401574
11
8.6795874409448821
21
-5.882241023622047
0
LINE
8
BLACK
6
CONTINUOUS
10
8.6795874409448821
20
-5.882241023622047
11
8.6847571653543305
21
-5.8952799606299209
0
LINE
8
BLACK
6
CONTINUOUS
10
8.6847571653543305
20
-5.8952799606299209
11
8.688775433070866
21
-5.9087185433070868
0
LINE
8
BLACK
6
CONTINUOUS
10
8.688775433070866
20
-5.9087185433070868
11
8.6916118110236216
21
-5.9224551968503931
0
LINE
8
BLACK
6
CONTINUOUS
10
8.6916118110236216
20
-5.9224551968503931
11
8.6932449606299205
21
-5.9363862204724409
0
LINE
8
BLACK
6
CONTINUOUS
10
8.6932449606299205
20
-5.9363862204724409
11
8.6936625196850397
21
-5.9504064566929129
0
LINE
8
BLACK
6
CONTINUOUS
10
8.6936625196850397
20
-5.9504064566929129
11
8.6936627952755909
21
-5.9504064566929129
0
LINE
8
BLACK
6
CONTINUOUS
10
8.6936627952755909
20
-5.9504064566929129
11
8.6935852755905518
21
-5.9506805511811018
0
LINE
8
BLACK
6
CONTINUOUS
10
8.6935852755905518
20
-5.9506805511811018
11
8.6768844488188979
21
-7.1791464566929131
0
LINE
8
BLACK
6
CONTINUOUS
10
8.6768844488188979
20
-7.1791464566929131
11
8.6768843307086616
21
-7.1791471653543306
0
LINE
8
BLACK
6
CONTINUOUS
10
8.6768843307086616
20
-7.1791471653543306
11
8.676060905511811
21
-7.1933733858267717
0
LINE
8
BLACK
6
CONTINUOUS
10
8.676060905511811
20
-7.1933733858267717
11
8.6739858267716539
21
-7.2074722047244091
0
LINE
8
BLACK
6
CONTINUOUS
10
8.6739858267716539
20
-7.2074722047244091
11
8.6706753149606293
21
-7.2213330708661418
0
LINE
8
BLACK
6
CONTINUOUS
10
8.6706753149606293
20
-7.2213330708661418
11
8.6661552362204723
21
-7.2348479527559055
0
LINE
8
BLACK
6
CONTINUOUS
10
8.6661552362204723
20
-7.2348479527559055
11
8.6604607874015738
21
-7.2479114960629918
0
LINE
8
BLACK
6
CONTINUOUS
10
8.6604607874015738
20
-7.2479114960629918
11
8.6536363385826771
21
-7.2604218897637791
0
LINE
8
BLACK
6
CONTINUOUS
10
8.6536363385826771
20
-7.2604218897637791
11
8.6536369685039372
21
-7.2604222834645666
0
LINE
8
BLACK
6
CONTINUOUS
10
8.6536369685039372
20
-7.2604222834645666
11
8.6535816929133862
21
-7.2604753543307083
0
LINE
8
BLACK
6
CONTINUOUS
10
8.6535816929133862
20
-7.2604753543307083
11
8.6535415354330709
21
-7.2605723622047247
0
LINE
8
BLACK
6
CONTINUOUS
10
8.6535415354330709
20
-7.2605723622047247
11
8.6533304330708667
21
-7.2607834251968502
0
LINE
8
BLACK
6
CONTINUOUS
10
8.6533304330708667
20
-7.2607834251968502
11
7.7942720472440943
21
-8.6826622834645661
0
LINE
8
BLACK
6
CONTINUOUS
10
7.7942720472440943
20
-8.6826622834645661
11
7.794271771653543
21
-8.6826625984251962
0
LINE
8
BLACK
6
CONTINUOUS
10
7.794271771653543
20
-8.6826625984251962
11
7.7865432677165352
21
-8.6942863779527553
0
LINE
8
BLACK
6
CONTINUOUS
10
7.7865432677165352
20
-8.6942863779527553
11
7.7778390551181102
21
-8.7051992913385821
0
LINE
8
BLACK
6
CONTINUOUS
10
7.7778390551181102
20
-8.7051992913385821
11
7.7682244881889764
21
-8.7153193307086614
0
LINE
8
BLACK
6
CONTINUOUS
10
7.7682244881889764
20
-8.7153193307086614
11
7.7577714960629915
21
-8.7245708267716537
0
LINE
8
BLACK
6
CONTINUOUS
10
7.7577714960629915
20
-8.7245708267716537
11
7.7465582677165354
21
-8.7328845669291333
0
LINE
8
BLACK
6
CONTINUOUS
10
7.7465582677165354
20
-8.7328845669291333
11
7.734668622047244
21
-8.7401983858267709
0
LINE
8
BLACK
6
CONTINUOUS
10
7.734668622047244
20
-8.7401983858267709
11
7.7221915354330708
21
-8.7464575590551181
0
LINE
8
BLACK
6
CONTINUOUS
10
7.7221915354330708
20
-8.7464575590551181
11
7.7221913779527558
21
-8.7464571653543306
0
LINE
8
BLACK
6
CONTINUOUS
10
7.7221913779527558
20
-8.7464571653543306
11
7.7219246850393697
21
-8.7465001574803143
0
LINE
8
BLACK
6
CONTINUOUS
10
7.7219246850393697
20
-8.7465001574803143
11
7.721700039370079
21
-8.7465932283464571
0
LINE
8
BLACK
6
CONTINUOUS
10
7.721700039370079
20
-8.7465932283464571
11
6.9125296062992128
21
-9.1069417716535437
0
LINE
8
BLACK
6
CONTINUOUS
10
6.9125296062992128
20
-9.1069417716535437
11
6.9125294881889765
21
-9.1069417716535437
0
LINE
8
BLACK
6
CONTINUOUS
10
6.9125294881889765
20
-9.1069417716535437
11
6.9125294881889765
21
-9.1069418110236224
0
LINE
8
BLACK
6
CONTINUOUS
10
6.9125294881889765
20
-9.1069418110236224
11
6.8986433858267713
21
-9.1123701968503941
0
LINE
8
BLACK
6
CONTINUOUS
10
6.8986433858267713
20
-9.1123701968503941
11
6.88431562992126
21
-9.1164942125984254
0
LINE
8
BLACK
6
CONTINUOUS
10
6.88431562992126
20
-9.1164942125984254
11
6.8696685039370076
21
-9.1192786614173222
0
LINE
8
BLACK
6
CONTINUOUS
10
6.8696685039370076
20
-9.1192786614173222
11
6.8548269291338579
21
-9.1206998031496056
0
LINE
8
BLACK
6
CONTINUOUS
10
6.8548269291338579
20
-9.1206998031496056
11
6.8399175590551176
21
-9.1207455118110232
0
LINE
8
BLACK
6
CONTINUOUS
10
6.8399175590551176
20
-9.1207455118110232
11
6.8250675590551175
21
-9.1194153543307088
0
LINE
8
BLACK
6
CONTINUOUS
10
6.8250675590551175
20
-9.1194153543307088
11
6.8104036220472439
21
-9.1167207874015741
0
LINE
8
BLACK
6
CONTINUOUS
10
6.8104036220472439
20
-9.1167207874015741
11
6.7960508661417318
21
-9.112684685039369
0
LINE
8
BLACK
6
CONTINUOUS
10
6.7960508661417318
20
-9.112684685039369
11
6.7821317322834647
21
-9.1073415354330702
0
LINE
8
BLACK
6
CONTINUOUS
10
6.7821317322834647
20
-9.1073415354330702
11
6.7687649606299214
21
-9.1007368897637786
0
LINE
8
BLACK
6
CONTINUOUS
10
6.7687649606299214
20
-9.1007368897637786
11
6.7560645669291333
21
-9.0929271259842519
0
LINE
8
BLACK
6
CONTINUOUS
10
6.7560645669291333
20
-9.0929271259842519
11
6.7441389763779522
21
-9.0839788976377953
0
LINE
8
BLACK
6
CONTINUOUS
10
6.7441389763779522
20
-9.0839788976377953
11
6.7330898425196848
21
-9.0739684645669296
0
LINE
8
BLACK
6
CONTINUOUS
10
6.7330898425196848
20
-9.0739684645669296
11
6.7230114566929133
21
-9.0629812992125984
0
LINE
8
BLACK
6
CONTINUOUS
10
6.7230114566929133
20
-9.0629812992125984
11
6.7139898031496061
21
-9.0511111023622046
0
LINE
8
BLACK
6
CONTINUOUS
10
6.7139898031496061
20
-9.0511111023622046
11
6.7061018897637794
21
-9.038459133858268
0
LINE
8
BLACK
6
CONTINUOUS
10
6.7061018897637794
20
-9.038459133858268
11
6.6994149606299214
21
-9.025133346456693
0
LINE
8
BLACK
6
CONTINUOUS
10
6.6994149606299214
20
-9.025133346456693
11
6.6994129921259837
21
-9.0251342125984255
0
LINE
8
BLACK
6
CONTINUOUS
10
6.6994129921259837
20
-9.0251342125984255
11
6.6993673622047245
21
-9.0248461023622042
0
LINE
8
BLACK
6
CONTINUOUS
10
6.6993673622047245
20
-9.0248461023622042
11
6.4385166535433074
21
-8.4391516141732286
0
LINE
8
BLACK
6
CONTINUOUS
10
6.4385166535433074
20
-8.4391516141732286
11
6.4385166535433074
21
-8.4391515748031498
0
LINE
8
BLACK
6
CONTINUOUS
10
6.4385166535433074
20
-8.4391515748031498
11
6.4385166141732286
21
-8.4391516141732286
0
LINE
8
BLACK
6
CONTINUOUS
10
6.4385166141732286
20
-8.4391516141732286
11
6.4373261811023621
21
-8.4364767322834648
0
LINE
8
BLACK
6
CONTINUOUS
10
6.4373261811023621
20
-8.4364767322834648
11
6.434533622047244
21
-8.4313298818897628
0
LINE
8
BLACK
6
CONTINUOUS
10
6.434533622047244
20
-8.4313298818897628
11
6.4313472440944883
21
-8.4264171259842513
0
LINE
8
BLACK
6
CONTINUOUS
10
6.4313472440944883
20
-8.4264171259842513
11
6.4295665748031494
21
-8.4240930708661423
0
LINE
8
BLACK
6
CONTINUOUS
10
6.4295665748031494
20
-8.4240930708661423
11
6.4294550787401574
21
-8.4238232677165357
0
LINE
8
BLACK
6
CONTINUOUS
10
6.4294550787401574
20
-8.4238232677165357
11
5.9029147637795276
21
-7.7365188188976379
0
LINE
8
BLACK
6
CONTINUOUS
10
5.9029147637795276
20
-7.7365188188976379
11
5.9029145669291339
21
-7.7365185433070867
0
LINE
8
BLACK
6
CONTINUOUS
10
5.9029145669291339
20
-7.7365185433070867
11
5.9007238582677166
21
-7.733657362204724
0
LINE
8
BLACK
6
CONTINUOUS
10
5.9007238582677166
20
-7.733657362204724
11
5.8958111417322829
21
-7.7283831102362202
0
LINE
8
BLACK
6
CONTINUOUS
10
5.8958111417322829
20
-7.7283831102362202
11
5.8904141732283462
21
-7.7236055118110238
0
LINE
8
BLACK
6
CONTINUOUS
10
5.8904141732283462
20
-7.7236055118110238
11
5.8874981496062988
21
-7.7214877559055113
0
LINE
8
BLACK
6
CONTINUOUS
10
5.8874981496062988
20
-7.7214877559055113
11
5.8873144488188975
21
-7.7212609055118104
0
LINE
8
BLACK
6
CONTINUOUS
10
5.8873144488188975
20
-7.7212609055118104
11
5.3431681496062993
21
-7.3260088188976376
0
LINE
8
BLACK
6
CONTINUOUS
10
5.3431681496062993
20
-7.3260088188976376
11
5.3431681496062993
21
-7.3260088582677163
0
LINE
8
BLACK
6
CONTINUOUS
10
5.3431681496062993
20
-7.3260088582677163
11
5.3430428740157483
21
-7.3259178740157482
0
LINE
8
BLACK
6
CONTINUOUS
10
5.3430428740157483
20
-7.3259178740157482
11
5.3427915748031491
21
-7.3257368897637791
0
LINE
8
BLACK
6
CONTINUOUS
10
5.3427915748031491
20
-7.3257368897637791
11
5.3425395275590546
21
-7.3255569685039372
0
LINE
8
BLACK
6
CONTINUOUS
10
5.3425395275590546
20
-7.3255569685039372
11
5.3424131102362207
21
-7.3254675590551184
0
LINE
8
BLACK
6
CONTINUOUS
10
5.3424131102362207
20
-7.3254675590551184
11
5.3424131496062994
21
-7.3254675196850396
0
LINE
8
BLACK
6
CONTINUOUS
10
5.3424131496062994
20
-7.3254675196850396
11
5.3422264960629917
21
-7.325242874015748
0
LINE
8
BLACK
6
CONTINUOUS
10
5.3422264960629917
20
-7.325242874015748
11
4.2531587401574802
21
-6.5547842913385823
0
LINE
8
BLACK
6
CONTINUOUS
10
4.2531587401574802
20
-6.5547842913385823
11
4.2531477952755905
21
-6.5547748425196852
0
LINE
8
BLACK
6
CONTINUOUS
10
4.2531477952755905
20
-6.5547748425196852
11
4.2531427952755907
21
-6.5547729527559051
0
LINE
8
BLACK
6
CONTINUOUS
10
4.2531427952755907
20
-6.5547729527559051
11
4.2531428740157482
21
-6.5547728346456688
0
LINE
8
BLACK
6
CONTINUOUS
10
4.2531428740157482
20
-6.5547728346456688
11
4.2499994488188975
21
-6.5525256692913381
0
LINE
8
BLACK
6
CONTINUOUS
10
4.2499994488188975
20
-6.5525256692913381
11
4.2432834645669288
21
-6.5487023228346457
0
LINE
8
BLACK
6
CONTINUOUS
10
4.2432834645669288
20
-6.5487023228346457
11
4.236209330708661
21
-6.5455911417322836
0
LINE
8
BLACK
6
CONTINUOUS
10
4.236209330708661
20
-6.5455911417322836
11
4.228852322834646
21
-6.5432252362204721
0
LINE
8
BLACK
6
CONTINUOUS
10
4.228852322834646
20
-6.5432252362204721
11
4.2212907480314961
21
-6.5416298425196846
0
LINE
8
BLACK
6
CONTINUOUS
10
4.2212907480314961
20
-6.5416298425196846
11
4.2174479133858265
21
-6.5412255118110236
0
LINE
8
BLACK
6
CONTINUOUS
10
4.2174479133858265
20
-6.5412255118110236
11
4.2174479133858265
21
-6.5412254724409449
0
LINE
8
BLACK
6
CONTINUOUS
10
4.2174479133858265
20
-6.5412254724409449
11
4.2171755511811027
21
-6.5411209055118107
0
LINE
8
BLACK
6
CONTINUOUS
10
4.2171755511811027
20
-6.5411209055118107
11
3.5740392519685038
21
-6.4736004724409444
0
LINE
8
BLACK
6
CONTINUOUS
10
3.5740392519685038
20
-6.4736004724409444
11
3.5740392125984251
21
-6.4736004330708656
0
LINE
8
BLACK
6
CONTINUOUS
10
3.5740392125984251
20
-6.4736004330708656
11
3.5740392125984251
21
-6.4736004724409444
0
LINE
8
BLACK
6
CONTINUOUS
10
3.5740392125984251
20
-6.4736004724409444
11
3.5592991732283465
21
-6.4713587401574806
0
LINE
8
BLACK
6
CONTINUOUS
10
3.5592991732283465
20
-6.4713587401574806
11
3.5448288188976376
21
-6.4677665354330705
0
LINE
8
BLACK
6
CONTINUOUS
10
3.5448288188976376
20
-6.4677665354330705
11
3.5307516141732282
21
-6.4628544881889765
0
LINE
8
BLACK
6
CONTINUOUS
10
3.5307516141732282
20
-6.4628544881889765
11
3.5171877165354331
21
-6.4566645669291338
0
LINE
8
BLACK
6
CONTINUOUS
10
3.5171877165354331
20
-6.4566645669291338
11
3.5042527952755904
21
-6.4492495275590551
0
LINE
8
BLACK
6
CONTINUOUS
10
3.5042527952755904
20
-6.4492495275590551
11
3.4920572047244094
21
-6.4406726377952754
0
LINE
8
BLACK
6
CONTINUOUS
10
3.4920572047244094
20
-6.4406726377952754
11
3.4807050393700787
21
-6.4310070472440941
0
LINE
8
BLACK
6
CONTINUOUS
10
3.4807050393700787
20
-6.4310070472440941
11
3.4702931102362204
21
-6.4203353149606297
0
LINE
8
BLACK
6
CONTINUOUS
10
3.4702931102362204
20
-6.4203353149606297
11
3.4609102362204722
21
-6.4087483858267715
0
LINE
8
BLACK
6
CONTINUOUS
10
3.4609102362204722
20
-6.4087483858267715
11
3.4526364960629921
21
-6.3963451181102364
0
LINE
8
BLACK
6
CONTINUOUS
10
3.4526364960629921
20
-6.3963451181102364
11
3.4455424803149604
21
-6.3832314173228344
0
LINE
8
BLACK
6
CONTINUOUS
10
3.4455424803149604
20
-6.3832314173228344
11
3.4396887007874013
21
-6.3695190551181105
0
LINE
8
BLACK
6
CONTINUOUS
10
3.4396887007874013
20
-6.3695190551181105
11
3.4351250787401573
21
-6.3553251181102359
0
LINE
8
BLACK
6
CONTINUOUS
10
3.4351250787401573
20
-6.3553251181102359
11
3.4318905511811022
21
-6.3407706299212601
0
LINE
8
BLACK
6
CONTINUOUS
10
3.4318905511811022
20
-6.3407706299212601
11
3.4300127559055116
21
-6.3259798031496057
0
LINE
8
BLACK
6
CONTINUOUS
10
3.4300127559055116
20
-6.3259798031496057
11
3.4295076771653541
21
-6.3110787795275591
0
LINE
8
BLACK
6
CONTINUOUS
10
3.4295076771653541
20
-6.3110787795275591
11
3.4303796456692912
21
-6.2961947637795275
0
LINE
8
BLACK
6
CONTINUOUS
10
3.4303796456692912
20
-6.2961947637795275
11
3.4303788976377954
21
-6.29619468503937
0
LINE
8
BLACK
6
CONTINUOUS
10
3.4303788976377954
20
-6.29619468503937
11
3.4304835433070866
21
-6.295922047244094
0
LINE
8
BLACK
6
CONTINUOUS
10
3.4304835433070866
20
-6.295922047244094
11
3.640258897637795
21
-4.2993199999999998
0
LINE
8
BLACK
6
CONTINUOUS
10
3.640258897637795
20
-4.2993199999999998
11
3.640258897637795
21
-4.2993199606299211
0
LINE
8
BLACK
6
CONTINUOUS
10
3.640258897637795
20
-4.2993199606299211
11
3.6425005511811022
21
-4.284579842519685
0
LINE
8
BLACK
6
CONTINUOUS
10
3.6425005511811022
20
-4.284579842519685
11
3.6460926771653543
21
-4.2701094881889761
0
LINE
8
BLACK
6
CONTINUOUS
10
3.6460926771653543
20
-4.2701094881889761
11
3.6510046456692913
21
-4.256032244094488
0
LINE
8
BLACK
6
CONTINUOUS
10
3.6510046456692913
20
-4.256032244094488
11
3.6571945275590552
21
-4.2424683070866145
0
LINE
8
BLACK
6
CONTINUOUS
10
3.6571945275590552
20
-4.2424683070866145
11
3.6646095275590551
21
-4.2295333464566927
0
LINE
8
BLACK
6
CONTINUOUS
10
3.6646095275590551
20
-4.2295333464566927
11
3.6731864173228344
21
-4.2173377559055121
0
LINE
8
BLACK
6
CONTINUOUS
10
3.6731864173228344
20
-4.2173377559055121
11
3.6828519685039369
21
-4.2059855511811026
0
LINE
8
BLACK
6
CONTINUOUS
10
3.6828519685039369
20
-4.2059855511811026
11
3.6935237401574801
21
-4.1955735826771656
0
LINE
8
BLACK
6
CONTINUOUS
10
3.6935237401574801
20
-4.1955735826771656
11
3.7051106692913387
21
-4.1861907086614174
0
LINE
8
BLACK
6
CONTINUOUS
10
3.7051106692913387
20
-4.1861907086614174
11
3.7175139370078738
21
-4.1779169685039372
0
LINE
8
BLACK
6
CONTINUOUS
10
3.7175139370078738
20
-4.1779169685039372
11
3.7306276771653542
21
-4.1708229527559055
0
LINE
8
BLACK
6
CONTINUOUS
10
3.7306276771653542
20
-4.1708229527559055
11
3.7443400393700785
21
-4.1649692125984252
0
LINE
8
BLACK
6
CONTINUOUS
10
3.7443400393700785
20
-4.1649692125984252
11
3.7585340551181101
21
-4.16040562992126
0
LINE
8
BLACK
6
CONTINUOUS
10
3.7585340551181101
20
-4.16040562992126
11
3.7730885433070864
21
-4.1571711811023624
0
LINE
8
BLACK
6
CONTINUOUS
10
3.7730885433070864
20
-4.1571711811023624
11
3.7878794094488186
21
-4.1552934251968505
0
LINE
8
BLACK
6
CONTINUOUS
10
3.7878794094488186
20
-4.1552934251968505
11
3.8027804330708661
21
-4.1547884251968501
0
LINE
8
BLACK
6
CONTINUOUS
10
3.8027804330708661
20
-4.1547884251968501
11
3.8176644881889761
21
-4.1556604724409452
0
LINE
8
BLACK
6
CONTINUOUS
10
3.8176644881889761
20
-4.1556604724409452
11
3.8176645669291336
21
-4.1556596850393701
0
LINE
8
BLACK
6
CONTINUOUS
10
3.8176645669291336
20
-4.1556596850393701
11
3.8179368503937008
21
-4.1557641732283468
0
LINE
8
BLACK
6
CONTINUOUS
10
3.8179368503937008
20
-4.1557641732283468
11
4.4204625984251971
21
-4.2190162598425198
0
LINE
8
BLACK
6
CONTINUOUS
10
4.4204625984251971
20
-4.2190162598425198
11
4.4204626771653546
21
-4.2190162598425198
0
LINE
8
BLACK
6
CONTINUOUS
10
4.4204626771653546
20
-4.2190162598425198
11
4.4204628346456696
21
-4.2190146062992122
0
LINE
8
BLACK
6
CONTINUOUS
10
4.4204628346456696
20
-4.2190146062992122
11
4.4248203937007871
21
-4.2194712598425195
0
LINE
8
BLACK
6
CONTINUOUS
10
4.4248203937007871
20
-4.2194712598425195
11
4.4335825196850394
21
-4.2193637401574806
0
LINE
8
BLACK
6
CONTINUOUS
10
4.4335825196850394
20
-4.2193637401574806
11
4.4422721653543302
21
-4.2182339763779524
0
LINE
8
BLACK
6
CONTINUOUS
10
4.4422721653543302
20
-4.2182339763779524
11
4.4507704724409445
21
-4.2160974409448819
0
LINE
8
BLACK
6
CONTINUOUS
10
4.4507704724409445
20
-4.2160974409448819
11
4.4589612598425195
21
-4.2129833858267718
0
LINE
8
BLACK
6
CONTINUOUS
10
4.4589612598425195
20
-4.2129833858267718
11
4.4667324803149606
21
-4.2089343307086615
0
LINE
8
BLACK
6
CONTINUOUS
10
4.4667324803149606
20
-4.2089343307086615
11
4.4739778346456696
21
-4.2040057480314958
0
LINE
8
BLACK
6
CONTINUOUS
10
4.4739778346456696
20
-4.2040057480314958
11
4.4772889763779524
21
-4.2011364173228349
0
LINE
8
BLACK
6
CONTINUOUS
10
4.4772889763779524
20
-4.2011364173228349
11
4.4772890157480312
21
-4.2011364566929137
0
LINE
8
BLACK
6
CONTINUOUS
10
4.4772890157480312
20
-4.2011364566929137
11
4.4775499212598424
21
-4.2010095669291339
0
LINE
8
BLACK
6
CONTINUOUS
10
4.4775499212598424
20
-4.2010095669291339
11
4.596816181102362
21
-4.097484488188976
0
LINE
8
BLACK
6
CONTINUOUS
10
4.596816181102362
20
-4.097484488188976
11
4.5968167322834645
21
-4.0974840551181098
0
LINE
8
BLACK
6
CONTINUOUS
10
4.5968167322834645
20
-4.0974840551181098
11
4.6082882283464563
21
-4.0884129133858265
0
LINE
8
BLACK
6
CONTINUOUS
10
4.6082882283464563
20
-4.0884129133858265
11
4.6205343307086615
21
-4.0804168503937008
0
LINE
8
BLACK
6
CONTINUOUS
10
4.6205343307086615
20
-4.0804168503937008
11
4.6334539370078742
21
-4.0735620472440948
0
LINE
8
BLACK
6
CONTINUOUS
10
4.6334539370078742
20
-4.0735620472440948
11
4.6469409448818899
21
-4.0679048031496059
0
LINE
8
BLACK
6
CONTINUOUS
10
4.6469409448818899
20
-4.0679048031496059
11
4.6608846456692916
21
-4.0634915354330712
0
LINE
8
BLACK
6
CONTINUOUS
10
4.6608846456692916
20
-4.0634915354330712
11
4.6751705905511809
21
-4.0603584645669288
0
LINE
8
BLACK
6
CONTINUOUS
10
4.6751705905511809
20
-4.0603584645669288
11
4.689681456692913
21
-4.0585313385826769
0
LINE
8
BLACK
6
CONTINUOUS
10
4.689681456692913
20
-4.0585313385826769
11
4.7042981496062994
21
-4.0580251574803148
0
LINE
8
BLACK
6
CONTINUOUS
10
4.7042981496062994
20
-4.0580251574803148
11
4.7189006692913384
21
-4.058844015748031
0
LINE
8
BLACK
6
CONTINUOUS
10
4.7189006692913384
20
-4.058844015748031
11
4.7333691338582673
21
-4.0609812992125986
0
LINE
8
BLACK
6
CONTINUOUS
10
4.7333691338582673
20
-4.0609812992125986
11
4.7333687795275585
21
-4.0609830708661416
0
LINE
8
BLACK
6
CONTINUOUS
10
4.7333687795275585
20
-4.0609830708661416
11
4.7336309055118111
21
-4.0611109055118106
0
LINE
8
BLACK
6
CONTINUOUS
10
4.7336309055118111
20
-4.0611109055118106
11
5.3505815748031491
21
-4.180957086614173
0
LINE
8
BLACK
6
CONTINUOUS
10
5.3505815748031491
20
-4.180957086614173
11
5.3505944881889764
21
-4.1809609448818899
0
LINE
8
BLACK
6
CONTINUOUS
10
5.3505944881889764
20
-4.1809609448818899
11
5.3505994881889762
21
-4.1809606299212598
0
LINE
8
BLACK
6
CONTINUOUS
10
5.3505994881889762
20
-4.1809606299212598
11
5.3505994488188975
21
-4.1809607874015748
0
LINE
8
BLACK
6
CONTINUOUS
10
5.3505994488188975
20
-4.1809607874015748
11
5.3546032283464564
21
-4.1817568897637791
0
LINE
8
BLACK
6
CONTINUOUS
10
5.3546032283464564
20
-4.1817568897637791
11
5.3627362204724411
21
-4.1824712598425196
0
LINE
8
BLACK
6
CONTINUOUS
10
5.3627362204724411
20
-4.1824712598425196
11
5.3708986614173231
21
-4.1822965748031491
0
LINE
8
BLACK
6
CONTINUOUS
10
5.3708986614173231
20
-4.1822965748031491
11
5.3789936220472443
21
-4.1812349212598425
0
LINE
8
BLACK
6
CONTINUOUS
10
5.3789936220472443
20
-4.1812349212598425
11
5.3869250393700785
21
-4.1792988976377954
0
LINE
8
BLACK
6
CONTINUOUS
10
5.3869250393700785
20
-4.1792988976377954
11
5.3945987795275592
21
-4.1765114960629921
0
LINE
8
BLACK
6
CONTINUOUS
10
5.3945987795275592
20
-4.1765114960629921
11
5.398261850393701
21
-4.1747098818897639
0
LINE
8
BLACK
6
CONTINUOUS
10
5.398261850393701
20
-4.1747098818897639
11
5.3982618897637797
21
-4.1747099212598426
0
LINE
8
BLACK
6
CONTINUOUS
10
5.3982618897637797
20
-4.1747099212598426
11
5.3985478346456688
21
-4.1746532283464566
0
LINE
8
BLACK
6
CONTINUOUS
10
5.3985478346456688
20
-4.1746532283464566
11
5.9124110236220471
21
-3.9215883070866142
0
LINE
8
BLACK
6
CONTINUOUS
10
5.9124110236220471
20
-3.9215883070866142
11
5.9124111023622046
21
-3.9215882677165355
0
LINE
8
BLACK
6
CONTINUOUS
10
5.9124111023622046
20
-3.9215882677165355
11
5.9258854724409451
21
-3.9157009842519686
0
LINE
8
BLACK
6
CONTINUOUS
10
5.9258854724409451
20
-3.9157009842519686
11
5.9398398031496065
21
-3.9110642913385827
0
LINE
8
BLACK
6
CONTINUOUS
10
5.9398398031496065
20
-3.9110642913385827
11
5.9541581889763782
21
-3.9077166929133855
0
LINE
8
BLACK
6
CONTINUOUS
10
5.9541581889763782
20
-3.9077166929133855
11
5.9687218503937007
21
-3.9056859842519684
0
LINE
8
BLACK
6
CONTINUOUS
10
5.9687218503937007
20
-3.9056859842519684
11
5.9834098425196851
21
-3.9049890157480314
0
LINE
8
BLACK
6
CONTINUOUS
10
5.9834098425196851
20
-3.9049890157480314
11
5.99810031496063
21
-3.9056315748031496
0
LINE
8
BLACK
6
CONTINUOUS
10
5.9764235433070869
20
-3.912876220472441
11
5.962482283464567
21
-3.9141762204724411
0
LINE
8
BLACK
6
CONTINUOUS
10
5.962482283464567
20
-3.9141762204724411
11
5.9487171653543305
21
-3.9167394881889761
0
LINE
8
BLACK
6
CONTINUOUS
10
5.9487171653543305
20
-3.9167394881889761
11
5.9352424409448821
21
-3.9205448031496064
0
LINE
8
BLACK
6
CONTINUOUS
10
5.9352424409448821
20
-3.9205448031496064
11
5.922169921259842
21
-3.9255605511811025
0
LINE
8
BLACK
6
CONTINUOUS
10
5.922169921259842
20
-3.9255605511811025
11
5.915888897637795
21
-3.9286526377952753
0
LINE
8
BLACK
6
CONTINUOUS
10
5.915888897637795
20
-3.9286526377952753
11
5.915888897637795
21
-3.9286525984251965
0
LINE
8
BLACK
6
CONTINUOUS
10
5.915888897637795
20
-3.9286525984251965
11
5.9156026771653538
21
-3.9287093307086614
0
LINE
8
BLACK
6
CONTINUOUS
10
5.9156026771653538
20
-3.9287093307086614
11
5.4017395669291339
21
-4.1817743307086612
0
LINE
8
BLACK
6
CONTINUOUS
10
5.4017395669291339
20
-4.1817743307086612
11
5.4017393700787402
21
-4.18177437007874
0
LINE
8
BLACK
6
CONTINUOUS
10
5.4017393700787402
20
-4.18177437007874
11
5.4017393700787402
21
-4.1817744094488187
0
LINE
8
BLACK
6
CONTINUOUS
10
5.4017393700787402
20
-4.1817744094488187
11
5.3934507086614172
21
-4.1853074015748026
0
LINE
8
BLACK
6
CONTINUOUS
10
5.3934507086614172
20
-4.1853074015748026
11
5.3848268503937007
21
-4.1879176771653546
0
LINE
8
BLACK
6
CONTINUOUS
10
5.3848268503937007
20
-4.1879176771653546
11
5.3759702362204722
21
-4.1895742913385829
0
LINE
8
BLACK
6
CONTINUOUS
10
5.3759702362204722
20
-4.1895742913385829
11
5.3669859448818897
21
-4.1902575196850389
0
LINE
8
BLACK
6
CONTINUOUS
10
5.3669859448818897
20
-4.1902575196850389
11
5.3579806299212596
21
-4.1899592913385826
0
LINE
8
BLACK
6
CONTINUOUS
10
5.3579806299212596
20
-4.1899592913385826
11
5.3490612598425198
21
-4.1886831102362203
0
LINE
8
BLACK
6
CONTINUOUS
10
5.3490612598425198
20
-4.1886831102362203
11
5.3490612992125985
21
-4.1886829133858265
0
LINE
8
BLACK
6
CONTINUOUS
10
5.3490612992125985
20
-4.1886829133858265
11
5.3488042519685042
21
-4.1885560629921255
0
LINE
8
BLACK
6
CONTINUOUS
10
5.3488042519685042
20
-4.1885560629921255
11
4.7318663779527554
21
-4.068712440944882
0
LINE
8
BLACK
6
CONTINUOUS
10
4.7318663779527554
20
-4.068712440944882
11
4.7318481889763779
21
-4.068707007874016
0
LINE
8
BLACK
6
CONTINUOUS
10
4.7318481889763779
20
-4.068707007874016
11
4.7250317322834645
21
-4.06738062992126
0
LINE
8
BLACK
6
CONTINUOUS
10
4.7250317322834645
20
-4.06738062992126
11
4.7111767322834641
21
-4.0659717322834643
0
LINE
8
BLACK
6
CONTINUOUS
10
4.7111767322834641
20
-4.0659717322834643
11
4.6972511023622046
21
-4.0658227165354326
0
LINE
8
BLACK
6
CONTINUOUS
10
4.6972511023622046
20
-4.0658227165354326
11
4.6833690944881887
21
-4.0669347637795275
0
LINE
8
BLACK
6
CONTINUOUS
10
4.6833690944881887
20
-4.0669347637795275
11
4.6696447637795275
21
-4.0692987401574801
0
LINE
8
BLACK
6
CONTINUOUS
10
4.6696447637795275
20
-4.0692987401574801
11
4.6561907480314959
21
-4.0728952755905512
0
LINE
8
BLACK
6
CONTINUOUS
10
4.6561907480314959
20
-4.0728952755905512
11
4.6431174409448817
21
-4.0776948031496065
0
LINE
8
BLACK
6
CONTINUOUS
10
4.6431174409448817
20
-4.0776948031496065
11
4.630532283464567
21
-4.0836579527559058
0
LINE
8
BLACK
6
CONTINUOUS
10
4.630532283464567
20
-4.0836579527559058
11
4.618538464566929
21
-4.0907357480314959
0
LINE
8
BLACK
6
CONTINUOUS
10
4.618538464566929
20
-4.0907357480314959
11
4.6072345669291339
21
-4.0988700787401573
0
LINE
8
BLACK
6
CONTINUOUS
10
4.6072345669291339
20
-4.0988700787401573
11
4.601974921259842
21
-4.103433267716535
0
LINE
8
BLACK
6
CONTINUOUS
10
4.601974921259842
20
-4.103433267716535
11
4.6019748818897641
21
-4.103433267716535
0
LINE
8
BLACK
6
CONTINUOUS
10
4.6019748818897641
20
-4.103433267716535
11
4.6017138188976379
21
-4.1035601968503936
0
LINE
8
BLACK
6
CONTINUOUS
10
4.6017138188976379
20
-4.1035601968503936
11
4.482447598425197
21
-4.2070853149606302
0
LINE
8
BLACK
6
CONTINUOUS
10
4.482447598425197
20
-4.2070853149606302
11
4.4824472440944882
21
-4.2070855511811018
0
LINE
8
BLACK
6
CONTINUOUS
10
4.4824472440944882
20
-4.2070855511811018
11
4.4747846850393698
21
-4.2129817322834642
0
LINE
8
BLACK
6
CONTINUOUS
10
4.4747846850393698
20
-4.2129817322834642
11
4.4664859055118109
21
-4.2179431496062989
0
LINE
8
BLACK
6
CONTINUOUS
10
4.4664859055118109
20
-4.2179431496062989
11
4.4576646062992129
21
-4.2219017716535436
0
LINE
8
BLACK
6
CONTINUOUS
10
4.4576646062992129
20
-4.2219017716535436
11
4.4484414960629923
21
-4.2248035039370082
0
LINE
8
BLACK
6
CONTINUOUS
10
4.4484414960629923
20
-4.2248035039370082
11
4.438942677165354
21
-4.2266085826771649
0
LINE
8
BLACK
6
CONTINUOUS
10
4.438942677165354
20
-4.2266085826771649
11
4.4292981102362203
21
-4.2272923622047243
0
LINE
8
BLACK
6
CONTINUOUS
10
4.4292981102362203
20
-4.2272923622047243
11
4.4196396062992127
21
-4.226845472440945
0
LINE
8
BLACK
6
CONTINUOUS
10
4.4196396062992127
20
-4.226845472440945
11
4.4196394488188977
21
-4.2268471259842517
0
LINE
8
BLACK
6
CONTINUOUS
10
4.4196394488188977
20
-4.2268471259842517
11
4.4193671259842517
21
-4.2267425590551184
0
LINE
8
BLACK
6
CONTINUOUS
10
4.4193671259842517
20
-4.2267425590551184
11
3.8168414960629922
21
-4.163490551181102
0
LINE
8
BLACK
6
CONTINUOUS
10
3.8168414960629922
20
-4.163490551181102
11
3.8168414173228347
21
-4.1634913779527558
0
LINE
8
BLACK
6
CONTINUOUS
10
3.8168414173228347
20
-4.1634913779527558
11
3.8097815748031496
21
-4.1627493307086612
0
LINE
8
BLACK
6
CONTINUOUS
10
3.8097815748031496
20
-4.1627493307086612
11
3.7955852362204725
21
-4.1625743700787403
0
LINE
8
BLACK
6
CONTINUOUS
10
3.7955852362204725
20
-4.1625743700787403
11
3.7814333070866142
21
-4.1637100393700788
0
LINE
8
BLACK
6
CONTINUOUS
10
3.7814333070866142
20
-4.1637100393700788
11
3.7674465354330708
21
-4.1661466535433069
0
LINE
8
BLACK
6
CONTINUOUS
10
3.7674465354330708
20
-4.1661466535433069
11
3.7537442125984253
21
-4.1698633858267717
0
LINE
8
BLACK
6
CONTINUOUS
10
3.7537442125984253
20
-4.1698633858267717
11
3.7404433464566926
21
-4.1748285826771649
0
LINE
8
BLACK
6
CONTINUOUS
10
3.7404433464566926
20
-4.1748285826771649
11
3.7276572834645667
21
-4.180999842519685
0
LINE
8
BLACK
6
CONTINUOUS
10
3.7276572834645667
20
-4.180999842519685
11
3.7154952362204723
21
-4.1883244881889761
0
LINE
8
BLACK
6
CONTINUOUS
10
3.7154952362204723
20
-4.1883244881889761
11
3.7040608661417322
21
-4.1967401181102364
0
LINE
8
BLACK
6
CONTINUOUS
10
3.7040608661417322
20
-4.1967401181102364
11
3.6934517716535433
21
-4.206174842519685
0
LINE
8
BLACK
6
CONTINUOUS
10
3.6934517716535433
20
-4.206174842519685
11
3.683758464566929
21
-4.2165481889763781
0
LINE
8
BLACK
6
CONTINUOUS
10
3.683758464566929
20
-4.2165481889763781
11
3.6750636614173229
21
-4.2277717322834647
0
LINE
8
BLACK
6
CONTINUOUS
10
3.6750636614173229
20
-4.2277717322834647
11
3.6674414960629922
21
-4.2397496062992124
0
LINE
8
BLACK
6
CONTINUOUS
10
3.6674414960629922
20
-4.2397496062992124
11
3.6609570472440942
21
-4.2523796850393696
0
LINE
8
BLACK
6
CONTINUOUS
10
3.6609570472440942
20
-4.2523796850393696
11
3.6556655905511812
21
-4.2655541732283462
0
LINE
8
BLACK
6
CONTINUOUS
10
3.6556655905511812
20
-4.2655541732283462
11
3.6516123228346458
21
-4.2791607086614176
0
LINE
8
BLACK
6
CONTINUOUS
10
3.6516123228346458
20
-4.2791607086614176
11
3.648831811023622
21
-4.2930831889763779
0
LINE
8
BLACK
6
CONTINUOUS
10
3.648831811023622
20
-4.2930831889763779
11
3.6480897637795273
21
-4.3001430314960629
0
LINE
8
BLACK
6
CONTINUOUS
10
3.6480897637795273
20
-4.3001430314960629
11
3.6479850787401573
21
-4.3004156692913389
0
LINE
8
BLACK
6
CONTINUOUS
10
3.6479850787401573
20
-4.3004156692913389
11
3.4382097637795277
21
-6.2970176771653543
0
LINE
8
BLACK
6
CONTINUOUS
10
3.4382097637795277
20
-6.2970176771653543
11
3.4382105118110236
21
-6.2970177559055118
0
LINE
8
BLACK
6
CONTINUOUS
10
3.4382105118110236
20
-6.2970177559055118
11
3.4374685039370076
21
-6.3040775984251969
0
LINE
8
BLACK
6
CONTINUOUS
10
3.4374685039370076
20
-6.3040775984251969
11
3.4372936614173226
21
-6.3182739370078735
0
LINE
8
BLACK
6
CONTINUOUS
10
3.4372936614173226
20
-6.3182739370078735
11
3.438429409448819
21
-6.3324258661417323
0
LINE
8
BLACK
6
CONTINUOUS
10
3.438429409448819
20
-6.3324258661417323
11
3.4408660629921259
21
-6.3464125984251964
0
LINE
8
BLACK
6
CONTINUOUS
10
3.4408660629921259
20
-6.3464125984251964
11
3.4445828346456691
21
-6.3601148818897633
0
LINE
8
BLACK
6
CONTINUOUS
10
3.4445828346456691
20
-6.3601148818897633
11
3.4495480708661415
21
-6.3734157480314959
0
LINE
8
BLACK
6
CONTINUOUS
10
3.4495480708661415
20
-6.3734157480314959
11
3.4557193307086616
21
-6.3862017716535435
0
LINE
8
BLACK
6
CONTINUOUS
10
3.4557193307086616
20
-6.3862017716535435
11
3.4630440157480313
21
-6.3983638188976375
0
LINE
8
BLACK
6
CONTINUOUS
10
3.4630440157480313
20
-6.3983638188976375
11
3.4714596456692912
21
-6.409798188976378
0
LINE
8
BLACK
6
CONTINUOUS
10
3.4714596456692912
20
-6.409798188976378
11
3.4808943700787403
21
-6.4204072440944877
0
LINE
8
BLACK
6
CONTINUOUS
10
3.4808943700787403
20
-6.4204072440944877
11
3.4912677165354329
21
-6.4301005905511808
0
LINE
8
BLACK
6
CONTINUOUS
10
3.4912677165354329
20
-6.4301005905511808
11
3.502491181102362
21
-6.4387953937007874
0
LINE
8
BLACK
6
CONTINUOUS
10
3.502491181102362
20
-6.4387953937007874
11
3.5144690551181101
21
-6.4464175984251968
0
LINE
8
BLACK
6
CONTINUOUS
10
3.5144690551181101
20
-6.4464175984251968
11
3.527099094488189
21
-6.4529020866141726
0
LINE
8
BLACK
6
CONTINUOUS
10
3.527099094488189
20
-6.4529020866141726
11
3.5402735826771652
21
-6.4581935826771648
0
LINE
8
BLACK
6
CONTINUOUS
10
3.5402735826771652
20
-6.4581935826771648
11
3.5538800787401574
21
-6.4622469291338582
0
LINE
8
BLACK
6
CONTINUOUS
10
3.5538800787401574
20
-6.4622469291338582
11
3.5678025196850394
21
-6.4650275196850391
0
LINE
8
BLACK
6
CONTINUOUS
10
3.5678025196850394
20
-6.4650275196850391
11
3.5748623622047244
21
-6.4657696062992125
0
LINE
8
BLACK
6
CONTINUOUS
10
3.5748623622047244
20
-6.4657696062992125
11
3.5751346850393699
21
-6.4658741338582679
0
LINE
8
BLACK
6
CONTINUOUS
10
3.5751346850393699
20
-6.4658741338582679
11
4.2182710629921258
21
-6.5333946062992121
0
LINE
8
BLACK
6
CONTINUOUS
10
4.2182710629921258
20
-6.5333946062992121
11
4.2182711023622046
21
-6.5333946062992121
0
LINE
8
BLACK
6
CONTINUOUS
10
4.2182711023622046
20
-6.5333946062992121
11
4.2182717322834646
21
-6.5333947244094484
0
LINE
8
BLACK
6
CONTINUOUS
10
4.2182717322834646
20
-6.5333947244094484
11
4.2266971259842521
21
-6.5347227952755906
0
LINE
8
BLACK
6
CONTINUOUS
10
4.2266971259842521
20
-6.5347227952755906
11
4.2349414960629916
21
-6.5369118503937003
0
LINE
8
BLACK
6
CONTINUOUS
10
4.2349414960629916
20
-6.5369118503937003
11
4.2429164960629917
21
-6.5399386220472442
0
LINE
8
BLACK
6
CONTINUOUS
10
4.2429164960629917
20
-6.5399386220472442
11
4.2505372440944882
21
-6.5437708267716532
0
LINE
8
BLACK
6
CONTINUOUS
10
4.2505372440944882
20
-6.5437708267716532
11
4.2577226771653542
21
-6.5483677165354326
0
LINE
8
BLACK
6
CONTINUOUS
10
4.2577226771653542
20
-6.5483677165354326
11
4.257722559055118
21
-6.5483678346456689
0
LINE
8
BLACK
6
CONTINUOUS
10
4.257722559055118
20
-6.5483678346456689
11
4.2579044881889763
21
-6.5485890551181098
0
LINE
8
BLACK
6
CONTINUOUS
10
4.2579044881889763
20
-6.5485890551181098
11
5.3469607874015743
21
-7.3190395275590552
0
LINE
8
BLACK
6
CONTINUOUS
10
5.3469607874015743
20
-7.3190395275590552
11
5.3469608661417318
21
-7.3190395669291339
0
LINE
8
BLACK
6
CONTINUOUS
10
5.3469608661417318
20
-7.3190395669291339
11
5.3469608267716531
21
-7.3190395669291339
0
LINE
8
BLACK
6
CONTINUOUS
10
5.3469608267716531
20
-7.3190395669291339
11
5.3469609448818893
21
-7.3190396456692914
0
LINE
8
BLACK
6
CONTINUOUS
10
5.3469609448818893
20
-7.3190396456692914
11
5.3469612204724406
21
-7.319039881889764
0
LINE
8
BLACK
6
CONTINUOUS
10
5.3469612204724406
20
-7.319039881889764
11
5.3472401181102365
21
-7.3192380708661418
0
LINE
8
BLACK
6
CONTINUOUS
10
5.3472401181102365
20
-7.3192380708661418
11
5.3475185826771652
21
-7.3194377165354325
0
LINE
8
BLACK
6
CONTINUOUS
10
5.3475185826771652
20
-7.3194377165354325
11
5.347796220472441
21
-7.319638503937008
0
LINE
8
BLACK
6
CONTINUOUS
10
5.347796220472441
20
-7.319638503937008
11
5.3479797637795272
21
-7.3198651968503938
0
LINE
8
BLACK
6
CONTINUOUS
10
5.3479797637795272
20
-7.3198651968503938
11
5.892126299212598
21
-7.7151174803149605
0
LINE
8
BLACK
6
CONTINUOUS
10
5.892126299212598
20
-7.7151174803149605
11
5.8921264173228343
21
-7.7151175196850392
0
LINE
8
BLACK
6
CONTINUOUS
10
5.8921264173228343
20
-7.7151175196850392
11
5.898331377952756
21
-7.7200990157480316
0
LINE
8
BLACK
6
CONTINUOUS
10
5.898331377952756
20
-7.7200990157480316
11
5.9040287795275592
21
-7.7256538976377955
0
LINE
8
BLACK
6
CONTINUOUS
10
5.9040287795275592
20
-7.7256538976377955
11
5.9091657874015748
21
-7.7317307480314961
0
LINE
8
BLACK
6
CONTINUOUS
10
5.9091657874015748
20
-7.7317307480314961
11
5.9091657480314961
21
-7.7317307874015748
0
LINE
8
BLACK
6
CONTINUOUS
10
5.9091657480314961
20
-7.7317307874015748
11
5.9092771653543306
21
-7.7320004724409443
0
LINE
8
BLACK
6
CONTINUOUS
10
5.9092771653543306
20
-7.7320004724409443
11
6.4358175984251966
21
-8.4193050393700783
0
LINE
8
BLACK
6
CONTINUOUS
10
6.4358175984251966
20
-8.4193050393700783
11
6.4358178740157479
21
-8.4193054724409446
0
LINE
8
BLACK
6
CONTINUOUS
10
6.4358178740157479
20
-8.4193054724409446
11
6.4395462598425199
21
-8.4245890551181102
0
LINE
8
BLACK
6
CONTINUOUS
10
6.4395462598425199
20
-8.4245890551181102
11
6.4428504330708662
21
-8.4301483858267723
0
LINE
8
BLACK
6
CONTINUOUS
10
6.4428504330708662
20
-8.4301483858267723
11
6.4457099212598425
21
-8.4359489763779525
0
LINE
8
BLACK
6
CONTINUOUS
10
6.4457099212598425
20
-8.4359489763779525
11
6.4457099606299213
21
-8.4359489763779525
0
LINE
8
BLACK
6
CONTINUOUS
10
6.4457099606299213
20
-8.4359489763779525
11
6.4457555511811018
21
-8.4362370472440951
0
LINE
8
BLACK
6
CONTINUOUS
10
6.4457555511811018
20
-8.4362370472440951
11
6.706606220472441
21
-9.0219314173228344
0
LINE
8
BLACK
6
CONTINUOUS
10
6.706606220472441
20
-9.0219314173228344
11
6.7066081889763778
21
-9.0219305905511806
0
LINE
8
BLACK
6
CONTINUOUS
10
6.7066081889763778
20
-9.0219305905511806
11
6.7094955118110233
21
-9.0284155118110228
0
LINE
8
BLACK
6
CONTINUOUS
10
6.7094955118110233
20
-9.0284155118110228
11
6.7164423228346459
21
-9.0407972047244094
0
LINE
8
BLACK
6
CONTINUOUS
10
6.7164423228346459
20
-9.0407972047244094
11
6.7245018503937004
21
-9.0524851181102353
0
LINE
8
BLACK
6
CONTINUOUS
10
6.7245018503937004
20
-9.0524851181102353
11
6.7336054330708661
21
-9.0633795669291342
0
LINE
8
BLACK
6
CONTINUOUS
10
6.7336054330708661
20
-9.0633795669291342
11
6.7436753543307084
21
-9.0733875590551172
0
LINE
8
BLACK
6
CONTINUOUS
10
6.7436753543307084
20
-9.0733875590551172
11
6.7546257480314962
21
-9.0824237795275593
0
LINE
8
BLACK
6
CONTINUOUS
10
6.7546257480314962
20
-9.0824237795275593
11
6.766363149606299
21
-9.0904111023622054
0
LINE
8
BLACK
6
CONTINUOUS
10
6.766363149606299
20
-9.0904111023622054
11
6.7787874409448818
21
-9.0972813779527559
0
LINE
8
BLACK
6
CONTINUOUS
10
6.7787874409448818
20
-9.0972813779527559
11
6.7917926377952753
21
-9.1029759842519677
0
LINE
8
BLACK
6
CONTINUOUS
10
6.7917926377952753
20
-9.1029759842519677
11
6.80526779527559
21
-9.1074464173228336
0
LINE
8
BLACK
6
CONTINUOUS
10
6.80526779527559
20
-9.1074464173228336
11
6.8190979133858267
21
-9.1106544094488182
0
LINE
8
BLACK
6
CONTINUOUS
10
6.8190979133858267
20
-9.1106544094488182
11
6.8331650393700789
21
-9.112572716535432
0
LINE
8
BLACK
6
CONTINUOUS
10
6.8331650393700789
20
-9.112572716535432
11
6.8473491338582679
21
-9.1131849212598421
0
LINE
8
BLACK
6
CONTINUOUS
10
6.8473491338582679
20
-9.1131849212598421
11
6.8615292519685038
21
-9.1124857874015746
0
LINE
8
BLACK
6
CONTINUOUS
10
6.8615292519685038
20
-9.1124857874015746
11
6.8755843307086613
21
-9.1104812598425191
0
LINE
8
BLACK
6
CONTINUOUS
10
6.8755843307086613
20
-9.1104812598425191
11
6.8893945275590553
21
-9.1071885039370084
0
LINE
8
BLACK
6
CONTINUOUS
10
6.8893945275590553
20
-9.1071885039370084
11
6.9028420078740158
21
-9.1026355905511807
0
LINE
8
BLACK
6
CONTINUOUS
10
6.9028420078740158
20
-9.1026355905511807
11
6.9093270472440942
21
-9.0997484251968501
0
LINE
8
BLACK
6
CONTINUOUS
10
6.9093270472440942
20
-9.0997484251968501
11
6.9096152362204721
21
-9.0997027559055113
0
LINE
8
BLACK
6
CONTINUOUS
10
6.9096152362204721
20
-9.0997027559055113
11
7.7189785433070863
21
-8.7392684251968493
0
LINE
8
BLACK
6
CONTINUOUS
10
7.7189785433070863
20
-8.7392684251968493
11
7.7189824015748032
21
-8.7392671259842523
0
LINE
8
BLACK
6
CONTINUOUS
10
7.7189824015748032
20
-8.7392671259842523
11
7.7250309055118107
21
-8.7365520078740158
0
LINE
8
BLACK
6
CONTINUOUS
10
7.7250309055118107
20
-8.7365520078740158
11
7.7366414960629921
21
-8.7300845275590557
0
LINE
8
BLACK
6
CONTINUOUS
10
7.7366414960629921
20
-8.7300845275590557
11
7.7476499212598426
21
-8.72263811023622
0
LINE
8
BLACK
6
CONTINUOUS
10
7.7476499212598426
20
-8.72263811023622
11
7.7579737795275587
21
-8.7142683464566932
0
LINE
8
BLACK
6
CONTINUOUS
10
7.7579737795275587
20
-8.7142683464566932
11
7.7675358661417322
21
-8.7050379133858264
0
LINE
8
BLACK
6
CONTINUOUS
10
7.7675358661417322
20
-8.7050379133858264
11
7.7762646850393695
21
-8.6950158267716535
0
LINE
8
BLACK
6
CONTINUOUS
10
7.7762646850393695
20
-8.6950158267716535
11
7.7840949212598423
21
-8.6842770472440947
0
LINE
8
BLACK
6
CONTINUOUS
10
7.7840949212598423
20
-8.6842770472440947
11
7.7875327165354333
21
-8.6785901968503936
0
LINE
8
BLACK
6
CONTINUOUS
10
7.7875327165354333
20
-8.6785901968503936
11
7.7875327559055112
21
-8.6785901968503936
0
LINE
8
BLACK
6
CONTINUOUS
10
7.7875327559055112
20
-8.6785901968503936
11
7.787743267716535
21
-8.6783878740157476
0
LINE
8
BLACK
6
CONTINUOUS
10
7.787743267716535
20
-8.6783878740157476
11
8.6468977165354328
21
-7.2563501181102357
0
LINE
8
BLACK
6
CONTINUOUS
10
8.6468977165354328
20
-7.2563501181102357
11
8.6468977165354328
21
-7.2563500393700782
0
LINE
8
BLACK
6
CONTINUOUS
10
8.6468977165354328
20
-7.2563500393700782
11
8.6468970866141728
21
-7.2563496850393703
0
LINE
8
BLACK
6
CONTINUOUS
10
8.6468970866141728
20
-7.2563496850393703
11
8.6504062992125981
21
-7.2505433464566931
0
LINE
8
BLACK
6
CONTINUOUS
10
8.6504062992125981
20
-7.2505433464566931
11
8.6563720866141729
21
-7.2383562992125983
0
LINE
8
BLACK
6
CONTINUOUS
10
8.6563720866141729
20
-7.2383562992125983
11
8.6612397244094481
21
-7.2256906299212593
0
LINE
8
BLACK
6
CONTINUOUS
10
8.6612397244094481
20
-7.2256906299212593
11
8.6649712992125973
21
-7.2126449606299214
0
LINE
8
BLACK
6
CONTINUOUS
10
8.6649712992125973
20
-7.2126449606299214
11
8.6675377559055118
21
-7.1993210629921256
0
LINE
8
BLACK
6
CONTINUOUS
10
8.6675377559055118
20
-7.1993210629921256
11
8.6689190551181099
21
-7.1858226771653539
0
LINE
8
BLACK
6
CONTINUOUS
10
8.6689190551181099
20
-7.1858226771653539
11
8.6690111417322839
21
-7.1790388976377955
0
LINE
8
BLACK
6
CONTINUOUS
10
8.6690111417322839
20
-7.1790388976377955
11
8.6690905511811014
21
-7.1787578740157478
0
LINE
8
BLACK
6
CONTINUOUS
10
8.6690905511811014
20
-7.1787578740157478
11
8.6857912204724403
21
-5.9503055905511806
0
LINE
8
BLACK
6
CONTINUOUS
10
8.6857912204724403
20
-5.9503055905511806
11
8.685789488188977
21
-5.9502986614173228
0
LINE
8
BLACK
6
CONTINUOUS
10
8.685789488188977
20
-5.9502986614173228
11
8.6857892519685045
21
-5.9502986614173228
0
LINE
8
BLACK
6
CONTINUOUS
10
8.6857892519685045
20
-5.9502986614173228
11
8.6858882677165354
21
-5.9429532677165353
0
LINE
8
BLACK
6
CONTINUOUS
10
8.6858882677165354
20
-5.9429532677165353
11
8.6846859055118113
21
-5.9283104724409448
0
LINE
8
BLACK
6
CONTINUOUS
10
8.6846859055118113
20
-5.9283104724409448
11
8.6820911023622038
21
-5.9138493307086613
0
LINE
8
BLACK
6
CONTINUOUS
10
8.6820911023622038
20
-5.9138493307086613
11
8.6781274803149611
21
-5.8997019685039369
0
LINE
8
BLACK
6
CONTINUOUS
10
8.6781274803149611
20
-5.8997019685039369
11
8.672831338582677
21
-5.8859976377952758
0
LINE
8
BLACK
6
CONTINUOUS
10
8.672831338582677
20
-5.8859976377952758
11
8.6662509842519686
21
-5.8728615748031494
0
LINE
8
BLACK
6
CONTINUOUS
10
8.6662509842519686
20
-5.8728615748031494
11
8.6584465748031487
21
-5.8604137007874018
0
LINE
8
BLACK
6
CONTINUOUS
10
8.6584465748031487
20
-5.8604137007874018
11
8.6494893700787401
21
-5.8487678346456695
0
LINE
8
BLACK
6
CONTINUOUS
10
8.6494893700787401
20
-5.8487678346456695
11
8.6394612598425198
21
-5.8380302755905511
0
LINE
8
BLACK
6
CONTINUOUS
10
8.6394612598425198
20
-5.8380302755905511
11
8.6284538582677168
21
-5.8282992125984254
0
LINE
8
BLACK
6
CONTINUOUS
10
8.6284538582677168
20
-5.8282992125984254
11
8.6225116535433077
21
-5.8239800787401572
0
LINE
8
BLACK
6
CONTINUOUS
10
8.6225116535433077
20
-5.8239800787401572
11
8.6223465354330706
21
-5.8237761811023621
0
LINE
8
BLACK
6
CONTINUOUS
10
8.6223465354330706
20
-5.8237761811023621
11
8.622312362204724
21
-5.8237420078740154
0
LINE
8
BLACK
6
CONTINUOUS
10
8.622312362204724
20
-5.8237420078740154
11
8.2468426377952753
21
-5.5510405511811021
0
LINE
8
BLACK
6
CONTINUOUS
10
8.2468426377952753
20
-5.5510405511811021
11
8.246842047244094
21
-5.5510399999999995
0
LINE
8
BLACK
6
CONTINUOUS
10
8.246842047244094
20
-5.5510399999999995
11
8.2393419685039362
21
-5.5448872047244091
0
LINE
8
BLACK
6
CONTINUOUS
10
8.2393419685039362
20
-5.5448872047244091
11
8.2326138188976383
21
-5.5378975984251966
0
LINE
8
BLACK
6
CONTINUOUS
10
8.2326138188976383
20
-5.5378975984251966
11
8.2267508267716529
21
-5.530167913385827
0
LINE
8
BLACK
6
CONTINUOUS
10
8.2267508267716529
20
-5.530167913385827
11
8.2218337007874016
21
-5.5218046456692909
0
LINE
8
BLACK
6
CONTINUOUS
10
8.2218337007874016
20
-5.5218046456692909
11
8.2179301968503928
21
-5.5129228740157483
0
LINE
8
BLACK
6
CONTINUOUS
10
8.2179301968503928
20
-5.5129228740157483
11
8.2150940551181098
21
-5.5036449999999997
0
LINE
8
BLACK
6
CONTINUOUS
10
8.2150940551181098
20
-5.5036449999999997
11
8.2150937795275585
21
-5.5036450787401572
0
LINE
8
BLACK
6
CONTINUOUS
10
8.2150937795275585
20
-5.5036450787401572
11
8.2150954330708661
21
-5.5035744094488184
0
LINE
8
BLACK
6
CONTINUOUS
10
8.2150954330708661
20
-5.5035744094488184
11
8.2150584645669298
21
-5.5034851181102358
0
LINE
8
BLACK
6
CONTINUOUS
10
8.2150584645669298
20
-5.5034851181102358
11
8.2150584645669298
21
-5.5031818503937009
0
LINE
8
BLACK
6
CONTINUOUS
10
8.2150584645669298
20
-5.5031818503937009
11
8.186838897637795
21
-5.3871688976377952
0
LINE
8
BLACK
6
CONTINUOUS
10
8.186838897637795
20
-5.3871688976377952
11
8.1868381889763775
21
-5.3871638582677166
0
LINE
8
BLACK
6
CONTINUOUS
10
8.1868381889763775
20
-5.3871638582677166
11
8.1852461023622052
21
-5.3805941732283467
0
LINE
8
BLACK
6
CONTINUOUS
10
8.1852461023622052
20
-5.3805941732283467
11
8.1809126771653542
21
-5.3677771259842517
0
LINE
8
BLACK
6
CONTINUOUS
10
8.1809126771653542
20
-5.3677771259842517
11
8.1754687795275593
21
-5.3553909055118112
0
LINE
8
BLACK
6
CONTINUOUS
10
8.1754687795275593
20
-5.3553909055118112
11
8.1689566141732275
21
-5.3435314566929133
0
LINE
8
BLACK
6
CONTINUOUS
10
8.1689566141732275
20
-5.3435314566929133
11
8.1614266535433071
21
-5.3322907086614171
0
LINE
8
BLACK
6
CONTINUOUS
10
8.1614266535433071
20
-5.3322907086614171
11
8.1529372440944883
21
-5.3217557480314959
0
LINE
8
BLACK
6
CONTINUOUS
10
8.1529372440944883
20
-5.3217557480314959
11
8.1435542125984242
21
-5.3120083070866144
0
LINE
8
BLACK
6
CONTINUOUS
10
8.1435542125984242
20
-5.3120083070866144
11
8.1333502362204726
21
-5.303123818897638
0
LINE
8
BLACK
6
CONTINUOUS
10
8.1333502362204726
20
-5.303123818897638
11
8.1278764566929134
21
-5.2991487007874012
0
LINE
8
BLACK
6
CONTINUOUS
10
8.1278764566929134
20
-5.2991487007874012
11
8.1277158661417328
21
-5.2989503937007871
0
LINE
8
BLACK
6
CONTINUOUS
10
8.1277158661417328
20
-5.2989503937007871
11
8.1276730314960624
21
-5.2989075590551176
0
LINE
8
BLACK
6
CONTINUOUS
10
8.1276730314960624
20
-5.2989075590551176
11
7.6575804724409444
21
-4.9574586614173226
0
LINE
8
BLACK
6
CONTINUOUS
10
7.6575804724409444
20
-4.9574586614173226
11
7.6575792125984252
21
-4.9574575196850397
0
LINE
8
BLACK
6
CONTINUOUS
10
7.6575792125984252
20
-4.9574575196850397
11
7.6496791338582675
21
-4.9509328740157477
0
LINE
8
BLACK
6
CONTINUOUS
10
7.6496791338582675
20
-4.9509328740157477
11
7.6426457480314962
21
-4.9434798425196851
0
LINE
8
BLACK
6
CONTINUOUS
10
7.6426457480314962
20
-4.9434798425196851
11
7.6365883070866136
21
-4.9352139763779528
0
LINE
8
BLACK
6
CONTINUOUS
10
7.6365883070866136
20
-4.9352139763779528
11
7.6315999212598422
21
-4.9262623228346456
0
LINE
8
BLACK
6
CONTINUOUS
10
7.6315999212598422
20
-4.9262623228346456
11
7.6277571653543301
21
-4.9167623622047243
0
LINE
8
BLACK
6
CONTINUOUS
10
7.6277571653543301
20
-4.9167623622047243
11
7.6251190551181098
21
-4.9068599606299212
0
LINE
8
BLACK
6
CONTINUOUS
10
7.6251190551181098
20
-4.9068599606299212
11
7.623726181102362
21
-4.8967073228346454
0
LINE
8
BLACK
6
CONTINUOUS
10
7.623726181102362
20
-4.8967073228346454
11
7.6235999212598422
21
-4.8864603543307084
0
LINE
8
BLACK
6
CONTINUOUS
10
7.6235999212598422
20
-4.8864603543307084
11
7.6236001968503935
21
-4.8864603543307084
0
LINE
8
BLACK
6
CONTINUOUS
10
7.6236001968503935
20
-4.8864603543307084
11
7.6236882283464569
21
-4.8861868503937007
0
LINE
8
BLACK
6
CONTINUOUS
10
7.6236882283464569
20
-4.8861868503937007
11
7.6340824803149605
21
-4.6606493700787404
0
LINE
8
BLACK
6
CONTINUOUS
10
7.6340824803149605
20
-4.6606493700787404
11
7.6340822834645667
21
-4.6606493700787404
0
LINE
8
BLACK
6
CONTINUOUS
10
7.6340822834645667
20
-4.6606493700787404
11
7.6343892125984247
21
-4.6537786614173227
0
LINE
8
BLACK
6
CONTINUOUS
10
7.6343892125984247
20
-4.6537786614173227
11
7.6337704724409443
21
-4.6400374803149607
0
LINE
8
BLACK
6
CONTINUOUS
10
7.6337704724409443
20
-4.6400374803149607
11
7.6319257086614174
21
-4.6264066535433068
0
LINE
8
BLACK
6
CONTINUOUS
10
7.6319257086614174
20
-4.6264066535433068
11
7.62886968503937
21
-4.6129953149606298
0
LINE
8
BLACK
6
CONTINUOUS
10
7.62886968503937
20
-4.6129953149606298
11
7.6246268503937005
21
-4.5999109055118108
0
LINE
8
BLACK
6
CONTINUOUS
10
7.6246268503937005
20
-4.5999109055118108
11
7.6192312598425191
21
-4.5872582283464567
0
LINE
8
BLACK
6
CONTINUOUS
10
7.6192312598425191
20
-4.5872582283464567
11
7.6127260629921256
21
-4.5751385826771651
0
LINE
8
BLACK
6
CONTINUOUS
10
7.6127260629921256
20
-4.5751385826771651
11
7.6051633858267715
21
-4.5636490944881887
0
LINE
8
BLACK
6
CONTINUOUS
10
7.6051633858267715
20
-4.5636490944881887
11
7.5966037795275589
21
-4.5528817322834643
0
LINE
8
BLACK
6
CONTINUOUS
10
7.5966037795275589
20
-4.5528817322834643
11
7.5871158267716536
21
-4.5429227165354327
0
LINE
8
BLACK
6
CONTINUOUS
10
7.5871158267716536
20
-4.5429227165354327
11
7.5767754724409446
21
-4.5338518503937006
0
LINE
8
BLACK
6
CONTINUOUS
10
7.5767754724409446
20
-4.5338518503937006
11
7.5656655905511814
21
-4.5257418110236216
0
LINE
8
BLACK
6
CONTINUOUS
10
7.5656655905511814
20
-4.5257418110236216
11
7.5597699606299207
21
-4.5222003149606298
0
LINE
8
BLACK
6
CONTINUOUS
10
7.5597699606299207
20
-4.5222003149606298
11
7.5595672834645669
21
-4.521990433070866
0
LINE
8
BLACK
6
CONTINUOUS
10
7.5595672834645669
20
-4.521990433070866
11
6.9523298031496061
21
-4.1572134251968507
0
LINE
8
BLACK
6
CONTINUOUS
10
6.9523298031496061
20
-4.1572134251968507
11
6.9523172047244097
21
-4.1572040551181102
0
LINE
8
BLACK
6
CONTINUOUS
10
6.9523172047244097
20
-4.1572040551181102
11
6.9465542519685037
21
-4.1537431496062993
0
LINE
8
BLACK
6
CONTINUOUS
10
6.9465542519685037
20
-4.1537431496062993
11
6.9344394881889766
21
-4.1478411417322834
0
LINE
8
BLACK
6
CONTINUOUS
10
6.9344394881889766
20
-4.1478411417322834
11
6.9218542913385823
21
-4.1430231102362205
0
LINE
8
BLACK
6
CONTINUOUS
10
6.9218542913385823
20
-4.1430231102362205
11
6.9088953937007869
21
-4.139326023622047
0
LINE
8
BLACK
6
CONTINUOUS
10
6.9088953937007869
20
-4.139326023622047
11
6.8956624803149609
21
-4.1367783858267719
0
LINE
8
BLACK
6
CONTINUOUS
10
6.8956624803149609
20
-4.1367783858267719
11
6.8822572440944878
21
-4.1353997244094485
0
LINE
8
BLACK
6
CONTINUOUS
10
6.8822572440944878
20
-4.1353997244094485
11
6.8687827559055119
21
-4.1352006692913381
0
LINE
8
BLACK
6
CONTINUOUS
10
6.8687827559055119
20
-4.1352006692913381
11
6.8553426377952755
21
-4.1361827165354326
0
LINE
8
BLACK
6
CONTINUOUS
10
6.8553426377952755
20
-4.1361827165354326
11
6.8420402362204724
21
-4.1383383858267715
0
LINE
8
BLACK
6
CONTINUOUS
10
6.8420402362204724
20
-4.1383383858267715
11
6.8289777952755903
21
-4.141651023622047
0
LINE
8
BLACK
6
CONTINUOUS
10
6.8289777952755903
20
-4.141651023622047
11
6.8226162992125987
21
-4.1438716929133861
0
LINE
8
BLACK
6
CONTINUOUS
10
6.8226162992125987
20
-4.1438716929133861
11
6.8223266141732282
21
-4.1438932283464567
0
LINE
8
BLACK
6
CONTINUOUS
10
6.8223266141732282
20
-4.1438932283464567
11
6.6629660629921261
21
-4.1996396850393696
0
LINE
8
BLACK
6
CONTINUOUS
10
6.6629660629921261
20
-4.1996396850393696
11
6.6629660236220474
21
-4.1996396850393696
0
LINE
8
BLACK
6
CONTINUOUS
10
6.6629660236220474
20
-4.1996396850393696
11
6.6629659842519686
21
-4.1996397244094483
0
LINE
8
BLACK
6
CONTINUOUS
10
6.6629659842519686
20
-4.1996397244094483
11
6.6629659448818899
21
-4.1996396850393696
0
LINE
8
BLACK
6
CONTINUOUS
10
6.6629659448818899
20
-4.1996396850393696
11
6.6629652755905511
21
-4.1996398425196846
0
LINE
8
BLACK
6
CONTINUOUS
10
6.6629652755905511
20
-4.1996398425196846
11
6.6539616141732285
21
-4.2022225984251964
0
LINE
8
BLACK
6
CONTINUOUS
10
6.6539616141732285
20
-4.2022225984251964
11
6.6447228740157476
21
-4.2037703149606296
0
LINE
8
BLACK
6
CONTINUOUS
10
6.6447228740157476
20
-4.2037703149606296
11
6.6353683464566924
21
-4.204262992125984
0
LINE
8
BLACK
6
CONTINUOUS
10
6.6353683464566924
20
-4.204262992125984
11
6.6260181496062991
21
-4.2036942125984247
0
LINE
8
BLACK
6
CONTINUOUS
10
6.6260181496062991
20
-4.2036942125984247
11
6.6167923228346455
21
-4.2020713779527554
0
LINE
8
BLACK
6
CONTINUOUS
10
6.6167923228346455
20
-4.2020713779527554
11
6.6078092913385822
21
-4.1994152755905514
0
LINE
8
BLACK
6
CONTINUOUS
10
6.6078092913385822
20
-4.1994152755905514
11
6.599184409448819
21
-4.1957599999999999
0
LINE
8
BLACK
6
CONTINUOUS
10
6.599184409448819
20
-4.1957599999999999
11
6.599183779527559
21
-4.1957612992125988
0
LINE
8
BLACK
6
CONTINUOUS
10
6.599183779527559
20
-4.1957612992125988
11
6.5989674409448815
21
-4.1955718110236218
0
LINE
8
BLACK
6
CONTINUOUS
10
6.5989674409448815
20
-4.1955718110236218
11
6.051021653543307
21
-3.9284048031496064
0
LINE
8
BLACK
6
CONTINUOUS
10
6.051021653543307
20
-3.9284048031496064
11
6.0510172047244097
21
-3.9284039370078738
0
LINE
8
BLACK
6
CONTINUOUS
10
6.0510172047244097
20
-3.9284039370078738
11
6.0510176771653539
21
-3.9284028346456692
0
LINE
8
BLACK
6
CONTINUOUS
10
6.0510176771653539
20
-3.9284028346456692
11
6.0510135826771654
21
-3.9284003149606299
0
LINE
8
BLACK
6
CONTINUOUS
10
6.0510135826771654
20
-3.9284003149606299
11
6.0447254724409447
21
-3.9253336614173229
0
LINE
8
BLACK
6
CONTINUOUS
10
6.0447254724409447
20
-3.9253336614173229
11
6.0316344881889759
21
-3.920366338582677
0
LINE
8
BLACK
6
CONTINUOUS
10
6.0316344881889759
20
-3.920366338582677
11
6.0181457480314959
21
-3.9166109448818895
0
LINE
8
BLACK
6
CONTINUOUS
10
6.0181457480314959
20
-3.9166109448818895
11
6.0043712598425198
21
-3.9140986614173228
0
LINE
8
BLACK
6
CONTINUOUS
10
6.0043712598425198
20
-3.9140986614173228
11
5.9904252755905514
21
-3.912850275590551
0
LINE
8
BLACK
6
CONTINUOUS
10
5.9904252755905514
20
-3.912850275590551
11
5.9764235433070869
21
-3.912876220472441
  0
ENDSEC
  0
EOF
